%
M48
M72
T01C0.0200
T02C0.0276
T03C0.0315
T04C0.0320
T05C0.0354
T06C0.0394
T07C0.0400
T08C0.1260
%
T01
X11752Y18160
T02
X14469Y6947
X14469Y6160
X14469Y5373
X16469Y5373
X16469Y6160
X16469Y6947
X18469Y6947
X18469Y6160
X18469Y5373
X20469Y5373
X20469Y6160
X20469Y6947
X22469Y6947
X22469Y6160
X22469Y5373
X24469Y5373
X24469Y6160
X24469Y6947
X26469Y6947
X26469Y6160
X26469Y5373
X28469Y5373
X28469Y6160
X28469Y6947
X14752Y2660
X13752Y2660
T03
X29752Y9660
X29752Y11660
T04
X28502Y12660
X27752Y12160
X26502Y12660
X25752Y12160
X24502Y12660
X23752Y12160
X22502Y12660
X21752Y12160
X20502Y12660
X19752Y12160
X19752Y13160
X18502Y12660
X17752Y12160
X16502Y12660
X15752Y12160
X14502Y12660
X13752Y12160
X13752Y13160
X15752Y13160
X17752Y13160
X21752Y13160
X23752Y13160
X25752Y13160
X27752Y13160
X30752Y8160
X31752Y8160
X31752Y4160
X30752Y4160
T05
X33252Y2660
X33252Y5660
X33252Y6660
X28252Y8160
X26252Y8160
X24252Y8160
X22252Y8160
X20252Y8160
X18252Y8160
X16252Y8160
X14252Y8160
X14252Y11160
X16252Y11160
X18252Y11160
X20252Y11160
X22252Y11160
X24252Y11160
X26252Y11160
X28252Y11160
X33252Y9660
X28252Y14160
X26252Y14160
X24252Y14160
X22252Y14160
X20252Y14160
X18252Y14160
X16252Y14160
X14252Y14160
X14252Y17160
X16252Y17160
X18252Y17160
X20252Y17160
X22252Y17160
X24252Y17160
X26252Y17160
X28252Y17160
T06
X30752Y16910
X31752Y16410
X30752Y15910
X31752Y15410
X30752Y14910
X31752Y14410
X30752Y13910
X31752Y13410
X10752Y13410
X9752Y13910
X10752Y14410
X9752Y14910
X10752Y15410
X9752Y15910
X10752Y16410
X9752Y16910
X9752Y7910
X10752Y7410
X9752Y6910
X10752Y6410
X9752Y5910
X10752Y5410
X9752Y4910
X10752Y4410
T07
X15752Y1160
X16752Y1160
X17752Y1160
X18752Y1160
X19752Y1160
X20752Y1160
X22752Y1160
X23752Y1160
X24752Y1160
X25752Y1160
X26752Y1160
X27752Y1160
X27752Y20160
X26752Y20160
X25752Y20160
X24752Y20160
X23752Y20160
X22752Y20160
X21752Y20160
X20752Y20160
X19252Y20160
X18252Y20160
X17252Y20160
X16252Y20160
X15252Y20160
X14252Y20160
X13252Y20160
X12252Y20160
T08
X7252Y3910
X7252Y8410
X7252Y12910
X7252Y17410
X34252Y17410
X34252Y12910
M30
