G75*
G70*
%OFA0B0*%
%FSLAX24Y24*%
%IPPOS*%
%LPD*%
%AMOC8*
5,1,8,0,0,1.08239X$1,22.5*
%
%ADD10C,0.0820*%
%ADD11R,0.0820X0.0820*%
%ADD12C,0.1340*%
%ADD13C,0.0720*%
%ADD14C,0.0730*%
D10*
X009752Y004910D03*
X010752Y004410D03*
X010752Y005410D03*
X009752Y005910D03*
X010752Y006410D03*
X009752Y006910D03*
X010752Y007410D03*
X014252Y008160D03*
X016252Y008160D03*
X018252Y008160D03*
X020252Y008160D03*
X022252Y008160D03*
X024252Y008160D03*
X026252Y008160D03*
X028252Y008160D03*
X030752Y008160D03*
X031752Y008160D03*
X033252Y006660D03*
X033252Y005660D03*
X031752Y004160D03*
X030752Y004160D03*
X033252Y002660D03*
X027752Y001160D03*
X026752Y001160D03*
X025752Y001160D03*
X024752Y001160D03*
X023752Y001160D03*
X022752Y001160D03*
X020752Y001160D03*
X019752Y001160D03*
X018752Y001160D03*
X017752Y001160D03*
X016752Y001160D03*
X015752Y001160D03*
X029752Y009660D03*
X028252Y011160D03*
X029752Y011660D03*
X028502Y012660D03*
X027752Y012160D03*
X026502Y012660D03*
X025752Y012160D03*
X024502Y012660D03*
X023752Y012160D03*
X022502Y012660D03*
X021752Y012160D03*
X020502Y012660D03*
X019752Y012160D03*
X019752Y013160D03*
X018502Y012660D03*
X017752Y012160D03*
X016502Y012660D03*
X015752Y012160D03*
X014502Y012660D03*
X013752Y012160D03*
X013752Y013160D03*
X014252Y014160D03*
X015752Y013160D03*
X016252Y014160D03*
X017752Y013160D03*
X018252Y014160D03*
X020252Y014160D03*
X021752Y013160D03*
X022252Y014160D03*
X023752Y013160D03*
X024252Y014160D03*
X025752Y013160D03*
X026252Y014160D03*
X027752Y013160D03*
X028252Y014160D03*
X030752Y013910D03*
X031752Y014410D03*
X030752Y014910D03*
X031752Y015410D03*
X030752Y015910D03*
X031752Y016410D03*
X030752Y016910D03*
X028252Y017160D03*
X026252Y017160D03*
X024252Y017160D03*
X022252Y017160D03*
X020252Y017160D03*
X018252Y017160D03*
X016252Y017160D03*
X014252Y017160D03*
X010752Y016410D03*
X009752Y015910D03*
X010752Y015410D03*
X009752Y014910D03*
X010752Y014410D03*
X009752Y013910D03*
X010752Y013410D03*
X014252Y011160D03*
X016252Y011160D03*
X018252Y011160D03*
X020252Y011160D03*
X022252Y011160D03*
X024252Y011160D03*
X026252Y011160D03*
X033252Y009660D03*
X027752Y020160D03*
X026752Y020160D03*
X025752Y020160D03*
X024752Y020160D03*
X023752Y020160D03*
X022752Y020160D03*
X021752Y020160D03*
X020752Y020160D03*
X019252Y020160D03*
X018252Y020160D03*
X017252Y020160D03*
X016252Y020160D03*
X015252Y020160D03*
X014252Y020160D03*
X013252Y020160D03*
X012252Y020160D03*
D11*
X009752Y016910D03*
X009752Y007910D03*
X031752Y013410D03*
D12*
X007252Y003910D03*
X007252Y008410D03*
X007252Y012910D03*
X007252Y017410D03*
X034252Y017410D03*
X034252Y012910D03*
D13*
X028469Y006947D03*
X028469Y006160D03*
X028469Y005373D03*
X026469Y005373D03*
X026469Y006160D03*
X026469Y006947D03*
X024469Y006947D03*
X024469Y006160D03*
X024469Y005373D03*
X022469Y005373D03*
X022469Y006160D03*
X022469Y006947D03*
X020469Y006947D03*
X020469Y006160D03*
X020469Y005373D03*
X018469Y005373D03*
X018469Y006160D03*
X018469Y006947D03*
X016469Y006947D03*
X016469Y006160D03*
X016469Y005373D03*
X014469Y005373D03*
X014469Y006160D03*
X014469Y006947D03*
D14*
X014752Y002660D03*
X013752Y002660D03*
M02*
