G75*
G70*
%OFA0B0*%
%FSLAX24Y24*%
%IPPOS*%
%LPD*%
%AMOC8*
5,1,8,0,0,1.08239X$1,22.5*
%
%ADD10C,0.0820*%
%ADD11C,0.1340*%
%ADD12R,0.0820X0.0820*%
%ADD13C,0.0720*%
D10*
X009759Y004911D03*
X010759Y004411D03*
X010759Y005411D03*
X009759Y005911D03*
X010759Y006411D03*
X009759Y006911D03*
X010759Y007411D03*
X014259Y008161D03*
X016259Y008161D03*
X018259Y008161D03*
X020259Y008161D03*
X022259Y008161D03*
X024259Y008161D03*
X026259Y008161D03*
X028259Y008161D03*
X030759Y008161D03*
X031759Y008161D03*
X033259Y006661D03*
X033259Y005661D03*
X031759Y004161D03*
X030759Y004161D03*
X033259Y002661D03*
X027759Y001161D03*
X026759Y001161D03*
X025759Y001161D03*
X024759Y001161D03*
X023759Y001161D03*
X022759Y001161D03*
X020759Y001161D03*
X019759Y001161D03*
X018759Y001161D03*
X017759Y001161D03*
X016759Y001161D03*
X015759Y001161D03*
X016259Y011161D03*
X015759Y012161D03*
X016509Y012661D03*
X015759Y013161D03*
X014509Y012661D03*
X013759Y012161D03*
X013759Y013161D03*
X014259Y014161D03*
X016259Y014161D03*
X017759Y013161D03*
X018509Y012661D03*
X017759Y012161D03*
X018259Y011161D03*
X019759Y012161D03*
X020509Y012661D03*
X019759Y013161D03*
X020259Y014161D03*
X021759Y013161D03*
X022509Y012661D03*
X021759Y012161D03*
X022259Y011161D03*
X023759Y012161D03*
X024509Y012661D03*
X023759Y013161D03*
X024259Y014161D03*
X025759Y013161D03*
X026509Y012661D03*
X025759Y012161D03*
X026259Y011161D03*
X027759Y012161D03*
X028509Y012661D03*
X027759Y013161D03*
X028259Y014161D03*
X026259Y014161D03*
X022259Y014161D03*
X018259Y014161D03*
X018259Y017161D03*
X020259Y017161D03*
X022259Y017161D03*
X024259Y017161D03*
X026259Y017161D03*
X028259Y017161D03*
X030759Y016911D03*
X031759Y016411D03*
X030759Y015911D03*
X031759Y015411D03*
X030759Y014911D03*
X031759Y014411D03*
X030759Y013911D03*
X028259Y011161D03*
X024259Y011161D03*
X020259Y011161D03*
X014259Y011161D03*
X010759Y013411D03*
X009759Y013911D03*
X010759Y014411D03*
X009759Y014911D03*
X010759Y015411D03*
X009759Y015911D03*
X010759Y016411D03*
X014259Y017161D03*
X016259Y017161D03*
X016259Y020161D03*
X017259Y020161D03*
X018259Y020161D03*
X019259Y020161D03*
X020759Y020161D03*
X021759Y020161D03*
X022759Y020161D03*
X023759Y020161D03*
X024759Y020161D03*
X025759Y020161D03*
X026759Y020161D03*
X027759Y020161D03*
X015259Y020161D03*
X014259Y020161D03*
X013259Y020161D03*
X012259Y020161D03*
X033259Y009661D03*
D11*
X007259Y003911D03*
X007259Y008411D03*
X007259Y012911D03*
X007259Y017411D03*
X034259Y017411D03*
X034259Y012911D03*
D12*
X031759Y013411D03*
X009759Y016911D03*
X009759Y007911D03*
D13*
X014475Y006949D03*
X014475Y006161D03*
X014475Y005374D03*
X016475Y005374D03*
X016475Y006161D03*
X016475Y006949D03*
X018475Y006949D03*
X018475Y006161D03*
X018475Y005374D03*
X020475Y005374D03*
X020475Y006161D03*
X020475Y006949D03*
X022475Y006949D03*
X022475Y006161D03*
X022475Y005374D03*
X024475Y005374D03*
X024475Y006161D03*
X024475Y006949D03*
X026475Y006949D03*
X026475Y006161D03*
X026475Y005374D03*
X028475Y005374D03*
X028475Y006161D03*
X028475Y006949D03*
M02*
