%
M48
M72
T01C0.0200
T02C0.0276
T03C0.0320
T04C0.0354
T05C0.0394
T06C0.0400
T07C0.1260
%
T01
X11759Y18161
T02
X14475Y6949
X14475Y6161
X14475Y5374
X16475Y5374
X16475Y6161
X16475Y6949
X18475Y6949
X18475Y6161
X18475Y5374
X20475Y5374
X20475Y6161
X20475Y6949
X22475Y6949
X22475Y6161
X22475Y5374
X24475Y5374
X24475Y6161
X24475Y6949
X26475Y6949
X26475Y6161
X26475Y5374
X28475Y5374
X28475Y6161
X28475Y6949
T03
X30759Y8161
X31759Y8161
X31759Y4161
X30759Y4161
X27759Y12161
X28509Y12661
X27759Y13161
X26509Y12661
X25759Y12161
X24509Y12661
X23759Y12161
X22509Y12661
X21759Y12161
X20509Y12661
X19759Y12161
X19759Y13161
X18509Y12661
X17759Y12161
X16509Y12661
X15759Y12161
X14509Y12661
X13759Y12161
X13759Y13161
X15759Y13161
X17759Y13161
X21759Y13161
X23759Y13161
X25759Y13161
T04
X26259Y14161
X24259Y14161
X22259Y14161
X20259Y14161
X18259Y14161
X16259Y14161
X14259Y14161
X14259Y11161
X16259Y11161
X18259Y11161
X20259Y11161
X22259Y11161
X24259Y11161
X26259Y11161
X28259Y11161
X33259Y9661
X28259Y8161
X26259Y8161
X24259Y8161
X22259Y8161
X20259Y8161
X18259Y8161
X16259Y8161
X14259Y8161
X28259Y14161
X28259Y17161
X26259Y17161
X24259Y17161
X22259Y17161
X20259Y17161
X18259Y17161
X16259Y17161
X14259Y17161
X33259Y6661
X33259Y5661
X33259Y2661
T05
X31759Y13411
X30759Y13911
X31759Y14411
X30759Y14911
X31759Y15411
X30759Y15911
X31759Y16411
X30759Y16911
X10759Y16411
X9759Y15911
X10759Y15411
X9759Y14911
X10759Y14411
X9759Y13911
X10759Y13411
X9759Y16911
X9759Y7911
X10759Y7411
X9759Y6911
X10759Y6411
X9759Y5911
X10759Y5411
X9759Y4911
X10759Y4411
T06
X15759Y1161
X16759Y1161
X17759Y1161
X18759Y1161
X19759Y1161
X20759Y1161
X22759Y1161
X23759Y1161
X24759Y1161
X25759Y1161
X26759Y1161
X27759Y1161
X27759Y20161
X26759Y20161
X25759Y20161
X24759Y20161
X23759Y20161
X22759Y20161
X21759Y20161
X20759Y20161
X19259Y20161
X18259Y20161
X17259Y20161
X16259Y20161
X15259Y20161
X14259Y20161
X13259Y20161
X12259Y20161
T07
X7259Y3911
X7259Y8411
X7259Y12911
X7259Y17411
X34259Y17411
X34259Y12911
M30
