G75*
G70*
%OFA0B0*%
%FSLAX24Y24*%
%IPPOS*%
%LPD*%
%AMOC8*
5,1,8,0,0,1.08239X$1,22.5*
%
%ADD10C,0.0740*%
%ADD11R,0.0740X0.0740*%
%ADD12C,0.0640*%
%ADD13C,0.0650*%
%ADD14C,0.0120*%
%ADD15C,0.0100*%
%ADD16C,0.0400*%
%ADD17C,0.0160*%
D10*
X009752Y004910D03*
X010752Y004410D03*
X010752Y005410D03*
X009752Y005910D03*
X010752Y006410D03*
X009752Y006910D03*
X010752Y007410D03*
X014252Y008160D03*
X016252Y008160D03*
X018252Y008160D03*
X020252Y008160D03*
X022252Y008160D03*
X024252Y008160D03*
X026252Y008160D03*
X028252Y008160D03*
X030752Y008160D03*
X031752Y008160D03*
X033252Y006660D03*
X033252Y005660D03*
X031752Y004160D03*
X030752Y004160D03*
X033252Y002660D03*
X027752Y001160D03*
X026752Y001160D03*
X025752Y001160D03*
X024752Y001160D03*
X023752Y001160D03*
X022752Y001160D03*
X020752Y001160D03*
X019752Y001160D03*
X018752Y001160D03*
X017752Y001160D03*
X016752Y001160D03*
X015752Y001160D03*
X029752Y009660D03*
X028252Y011160D03*
X029752Y011660D03*
X028502Y012660D03*
X027752Y012160D03*
X026502Y012660D03*
X025752Y012160D03*
X024502Y012660D03*
X023752Y012160D03*
X022502Y012660D03*
X021752Y012160D03*
X020502Y012660D03*
X019752Y012160D03*
X019752Y013160D03*
X018502Y012660D03*
X017752Y012160D03*
X016502Y012660D03*
X015752Y012160D03*
X014502Y012660D03*
X013752Y012160D03*
X013752Y013160D03*
X014252Y014160D03*
X015752Y013160D03*
X016252Y014160D03*
X017752Y013160D03*
X018252Y014160D03*
X020252Y014160D03*
X021752Y013160D03*
X022252Y014160D03*
X023752Y013160D03*
X024252Y014160D03*
X025752Y013160D03*
X026252Y014160D03*
X027752Y013160D03*
X028252Y014160D03*
X030752Y013910D03*
X031752Y014410D03*
X030752Y014910D03*
X031752Y015410D03*
X030752Y015910D03*
X031752Y016410D03*
X030752Y016910D03*
X028252Y017160D03*
X026252Y017160D03*
X024252Y017160D03*
X022252Y017160D03*
X020252Y017160D03*
X018252Y017160D03*
X016252Y017160D03*
X014252Y017160D03*
X010752Y016410D03*
X009752Y015910D03*
X010752Y015410D03*
X009752Y014910D03*
X010752Y014410D03*
X009752Y013910D03*
X010752Y013410D03*
X014252Y011160D03*
X016252Y011160D03*
X018252Y011160D03*
X020252Y011160D03*
X022252Y011160D03*
X024252Y011160D03*
X026252Y011160D03*
X033252Y009660D03*
X027752Y020160D03*
X026752Y020160D03*
X025752Y020160D03*
X024752Y020160D03*
X023752Y020160D03*
X022752Y020160D03*
X021752Y020160D03*
X020752Y020160D03*
X019252Y020160D03*
X018252Y020160D03*
X017252Y020160D03*
X016252Y020160D03*
X015252Y020160D03*
X014252Y020160D03*
X013252Y020160D03*
X012252Y020160D03*
D11*
X009752Y016910D03*
X009752Y007910D03*
X031752Y013410D03*
D12*
X028469Y006947D03*
X028469Y006160D03*
X028469Y005373D03*
X026469Y005373D03*
X026469Y006160D03*
X026469Y006947D03*
X024469Y006947D03*
X024469Y006160D03*
X024469Y005373D03*
X022469Y005373D03*
X022469Y006160D03*
X022469Y006947D03*
X020469Y006947D03*
X020469Y006160D03*
X020469Y005373D03*
X018469Y005373D03*
X018469Y006160D03*
X018469Y006947D03*
X016469Y006947D03*
X016469Y006160D03*
X016469Y005373D03*
X014469Y005373D03*
X014469Y006160D03*
X014469Y006947D03*
D13*
X014752Y002660D03*
X013752Y002660D03*
D14*
X006472Y003677D02*
X006472Y001251D01*
X007343Y000380D01*
X014207Y000380D01*
X014172Y000415D01*
X014172Y000415D01*
X013657Y000930D01*
X013522Y001065D01*
X013522Y002209D01*
X013466Y002232D01*
X013324Y002374D01*
X013247Y002560D01*
X013247Y002760D01*
X013324Y002946D01*
X013466Y003088D01*
X013652Y003165D01*
X013853Y003165D01*
X013971Y003116D01*
X011104Y005983D01*
X011064Y005944D01*
X010982Y005910D01*
X011064Y005876D01*
X011219Y005722D01*
X011302Y005519D01*
X011302Y005301D01*
X011219Y005098D01*
X011064Y004944D01*
X010958Y004900D01*
X011030Y004863D01*
X011098Y004814D01*
X011157Y004755D01*
X011206Y004688D01*
X011244Y004613D01*
X011269Y004534D01*
X011282Y004452D01*
X011282Y004448D01*
X010791Y004448D01*
X010791Y004372D01*
X011282Y004372D01*
X011282Y004368D01*
X011269Y004286D01*
X011244Y004207D01*
X011206Y004132D01*
X011157Y004065D01*
X011098Y004006D01*
X011030Y003957D01*
X010956Y003919D01*
X010876Y003893D01*
X010794Y003880D01*
X010791Y003880D01*
X010791Y004372D01*
X010714Y004372D01*
X010222Y004372D01*
X010222Y004368D01*
X010235Y004286D01*
X010261Y004207D01*
X010299Y004132D01*
X010348Y004065D01*
X010407Y004006D01*
X010475Y003957D01*
X010549Y003919D01*
X010628Y003893D01*
X010711Y003880D01*
X010714Y003880D01*
X010714Y004372D01*
X010714Y004448D01*
X010222Y004448D01*
X010222Y004452D01*
X010235Y004534D01*
X010261Y004613D01*
X010299Y004688D01*
X010348Y004755D01*
X010407Y004814D01*
X010475Y004863D01*
X010547Y004900D01*
X010441Y004944D01*
X010286Y005098D01*
X010202Y005301D01*
X010202Y005519D01*
X010286Y005722D01*
X010441Y005876D01*
X010522Y005910D01*
X010441Y005944D01*
X010286Y006098D01*
X010202Y006301D01*
X010202Y006519D01*
X010269Y006680D01*
X010252Y006680D01*
X010219Y006598D01*
X010064Y006444D01*
X009982Y006410D01*
X010064Y006376D01*
X010219Y006222D01*
X010302Y006019D01*
X010302Y005801D01*
X010219Y005598D01*
X010064Y005444D01*
X009958Y005400D01*
X010030Y005363D01*
X010098Y005314D01*
X010157Y005255D01*
X010206Y005188D01*
X010244Y005113D01*
X010269Y005034D01*
X010282Y004952D01*
X010282Y004948D01*
X009791Y004948D01*
X009791Y004872D01*
X010282Y004872D01*
X010282Y004868D01*
X010269Y004786D01*
X010244Y004707D01*
X010206Y004632D01*
X010157Y004565D01*
X010098Y004506D01*
X010030Y004457D01*
X009956Y004419D01*
X009876Y004393D01*
X009794Y004380D01*
X009791Y004380D01*
X009791Y004872D01*
X009714Y004872D01*
X009222Y004872D01*
X009222Y004868D01*
X009235Y004786D01*
X009261Y004707D01*
X009299Y004632D01*
X009348Y004565D01*
X009407Y004506D01*
X009475Y004457D01*
X009549Y004419D01*
X009628Y004393D01*
X009711Y004380D01*
X009714Y004380D01*
X009714Y004872D01*
X009714Y004948D01*
X009222Y004948D01*
X009222Y004952D01*
X009235Y005034D01*
X009261Y005113D01*
X009299Y005188D01*
X009348Y005255D01*
X009407Y005314D01*
X009475Y005363D01*
X009547Y005400D01*
X009441Y005444D01*
X009286Y005598D01*
X009202Y005801D01*
X009202Y006019D01*
X009286Y006222D01*
X009441Y006376D01*
X009522Y006410D01*
X009441Y006444D01*
X009286Y006598D01*
X009202Y006801D01*
X009202Y007019D01*
X009286Y007222D01*
X009425Y007360D01*
X009308Y007360D01*
X009202Y007465D01*
X009202Y008355D01*
X009308Y008460D01*
X010197Y008460D01*
X010302Y008355D01*
X010302Y008140D01*
X011098Y008140D01*
X013972Y005266D01*
X013969Y005273D01*
X013969Y005472D01*
X014045Y005656D01*
X014155Y005766D01*
X014045Y005877D01*
X014035Y005900D01*
X013701Y005900D01*
X013605Y005940D01*
X013105Y006440D01*
X013032Y006513D01*
X012992Y006608D01*
X012992Y011712D01*
X013032Y011807D01*
X013224Y011999D01*
X013202Y012051D01*
X013202Y012269D01*
X013286Y012472D01*
X013441Y012626D01*
X013547Y012670D01*
X013475Y012707D01*
X013407Y012756D01*
X013348Y012815D01*
X013299Y012882D01*
X013261Y012957D01*
X013235Y013036D01*
X013222Y013118D01*
X013222Y013140D01*
X013732Y013140D01*
X013732Y013180D01*
X013222Y013180D01*
X013222Y013202D01*
X013235Y013284D01*
X013261Y013363D01*
X013299Y013438D01*
X013348Y013505D01*
X013407Y013564D01*
X013475Y013613D01*
X013549Y013651D01*
X013628Y013677D01*
X013711Y013690D01*
X013732Y013690D01*
X013732Y013180D01*
X013772Y013180D01*
X013772Y013690D01*
X013794Y013690D01*
X013876Y013677D01*
X013956Y013651D01*
X014030Y013613D01*
X014098Y013564D01*
X014157Y013505D01*
X014206Y013438D01*
X014244Y013363D01*
X014269Y013284D01*
X014282Y013202D01*
X014282Y013180D01*
X013772Y013180D01*
X013772Y013140D01*
X014224Y013140D01*
X014393Y013210D01*
X014612Y013210D01*
X014814Y013126D01*
X014969Y012972D01*
X015052Y012769D01*
X015052Y012551D01*
X014969Y012348D01*
X014814Y012194D01*
X014612Y012110D01*
X014393Y012110D01*
X014302Y012148D01*
X014302Y012051D01*
X014219Y011848D01*
X014064Y011694D01*
X013862Y011610D01*
X013643Y011610D01*
X013591Y011631D01*
X013512Y011552D01*
X013512Y006768D01*
X013860Y006420D01*
X014035Y006420D01*
X014045Y006443D01*
X014155Y006554D01*
X014045Y006664D01*
X013969Y006848D01*
X013969Y007047D01*
X014045Y007231D01*
X014186Y007371D01*
X014369Y007447D01*
X014568Y007447D01*
X014752Y007371D01*
X014893Y007231D01*
X014969Y007047D01*
X014969Y006848D01*
X014893Y006664D01*
X014782Y006554D01*
X014893Y006443D01*
X014969Y006259D01*
X014969Y006061D01*
X014893Y005877D01*
X014782Y005766D01*
X014893Y005656D01*
X014969Y005472D01*
X014969Y005273D01*
X014893Y005089D01*
X014752Y004949D01*
X014610Y004890D01*
X016327Y004890D01*
X016186Y004949D01*
X016045Y005089D01*
X015969Y005273D01*
X015969Y005472D01*
X016045Y005656D01*
X016155Y005766D01*
X016045Y005877D01*
X016035Y005900D01*
X015701Y005900D01*
X015605Y005940D01*
X015105Y006440D01*
X015032Y006513D01*
X014992Y006608D01*
X014992Y011712D01*
X015032Y011807D01*
X015224Y011999D01*
X015202Y012051D01*
X015202Y012269D01*
X015286Y012472D01*
X015441Y012626D01*
X015547Y012670D01*
X015475Y012707D01*
X015407Y012756D01*
X015348Y012815D01*
X015299Y012882D01*
X015261Y012957D01*
X015235Y013036D01*
X015222Y013118D01*
X015222Y013140D01*
X015732Y013140D01*
X015732Y013180D01*
X015222Y013180D01*
X015222Y013202D01*
X015235Y013284D01*
X015261Y013363D01*
X015299Y013438D01*
X015348Y013505D01*
X015407Y013564D01*
X015475Y013613D01*
X015549Y013651D01*
X015628Y013677D01*
X015711Y013690D01*
X015732Y013690D01*
X015732Y013180D01*
X015772Y013180D01*
X015772Y013690D01*
X015794Y013690D01*
X015876Y013677D01*
X015956Y013651D01*
X016030Y013613D01*
X016098Y013564D01*
X016157Y013505D01*
X016206Y013438D01*
X016244Y013363D01*
X016269Y013284D01*
X016282Y013202D01*
X016282Y013180D01*
X015772Y013180D01*
X015772Y013140D01*
X016224Y013140D01*
X016393Y013210D01*
X016612Y013210D01*
X016814Y013126D01*
X016969Y012972D01*
X017052Y012769D01*
X017052Y012551D01*
X016969Y012348D01*
X016814Y012194D01*
X016612Y012110D01*
X016393Y012110D01*
X016302Y012148D01*
X016302Y012051D01*
X016219Y011848D01*
X016064Y011694D01*
X015862Y011610D01*
X015643Y011610D01*
X015591Y011631D01*
X015512Y011552D01*
X015512Y006768D01*
X015860Y006420D01*
X016035Y006420D01*
X016045Y006443D01*
X016155Y006554D01*
X016045Y006664D01*
X015969Y006848D01*
X015969Y007047D01*
X016045Y007231D01*
X016186Y007371D01*
X016369Y007447D01*
X016568Y007447D01*
X016752Y007371D01*
X016893Y007231D01*
X016969Y007047D01*
X016969Y006848D01*
X016893Y006664D01*
X016782Y006554D01*
X016893Y006443D01*
X016969Y006259D01*
X016969Y006061D01*
X016893Y005877D01*
X016782Y005766D01*
X016893Y005656D01*
X016969Y005472D01*
X016969Y005273D01*
X016893Y005089D01*
X016752Y004949D01*
X016610Y004890D01*
X018327Y004890D01*
X018186Y004949D01*
X018045Y005089D01*
X017969Y005273D01*
X017969Y005472D01*
X018045Y005656D01*
X018155Y005766D01*
X018045Y005877D01*
X018035Y005900D01*
X017701Y005900D01*
X017605Y005940D01*
X017105Y006440D01*
X017032Y006513D01*
X016992Y006608D01*
X016992Y011712D01*
X017032Y011807D01*
X017224Y011999D01*
X017202Y012051D01*
X017202Y012269D01*
X017286Y012472D01*
X017441Y012626D01*
X017547Y012670D01*
X017475Y012707D01*
X017407Y012756D01*
X017348Y012815D01*
X017299Y012882D01*
X017261Y012957D01*
X017235Y013036D01*
X017222Y013118D01*
X017222Y013140D01*
X017732Y013140D01*
X017732Y013180D01*
X017222Y013180D01*
X017222Y013202D01*
X017235Y013284D01*
X017261Y013363D01*
X017299Y013438D01*
X017348Y013505D01*
X017407Y013564D01*
X017475Y013613D01*
X017549Y013651D01*
X017628Y013677D01*
X017711Y013690D01*
X017732Y013690D01*
X017732Y013180D01*
X017772Y013180D01*
X017772Y013690D01*
X017794Y013690D01*
X017876Y013677D01*
X017956Y013651D01*
X018030Y013613D01*
X018098Y013564D01*
X018157Y013505D01*
X018206Y013438D01*
X018244Y013363D01*
X018269Y013284D01*
X018282Y013202D01*
X018282Y013180D01*
X017772Y013180D01*
X017772Y013140D01*
X018224Y013140D01*
X018393Y013210D01*
X018612Y013210D01*
X018814Y013126D01*
X018969Y012972D01*
X019052Y012769D01*
X019052Y012551D01*
X018969Y012348D01*
X018814Y012194D01*
X018612Y012110D01*
X018393Y012110D01*
X018302Y012148D01*
X018302Y012051D01*
X018219Y011848D01*
X018064Y011694D01*
X017862Y011610D01*
X017643Y011610D01*
X017591Y011631D01*
X017512Y011552D01*
X017512Y006768D01*
X017860Y006420D01*
X018035Y006420D01*
X018045Y006443D01*
X018155Y006554D01*
X018045Y006664D01*
X017969Y006848D01*
X017969Y007047D01*
X018045Y007231D01*
X018186Y007371D01*
X018369Y007447D01*
X018568Y007447D01*
X018752Y007371D01*
X018893Y007231D01*
X018969Y007047D01*
X018969Y006848D01*
X018893Y006664D01*
X018782Y006554D01*
X018893Y006443D01*
X018969Y006259D01*
X018969Y006061D01*
X018893Y005877D01*
X018782Y005766D01*
X018893Y005656D01*
X018969Y005472D01*
X018969Y005273D01*
X018893Y005089D01*
X018752Y004949D01*
X018610Y004890D01*
X020327Y004890D01*
X020186Y004949D01*
X020045Y005089D01*
X019969Y005273D01*
X019969Y005472D01*
X020045Y005656D01*
X020155Y005766D01*
X020045Y005877D01*
X020035Y005900D01*
X019701Y005900D01*
X019605Y005940D01*
X019105Y006440D01*
X019032Y006513D01*
X018992Y006608D01*
X018992Y011712D01*
X019032Y011807D01*
X019105Y011880D01*
X019105Y011880D01*
X019224Y011999D01*
X019202Y012051D01*
X019202Y012269D01*
X019286Y012472D01*
X019441Y012626D01*
X019547Y012670D01*
X019475Y012707D01*
X019407Y012756D01*
X019348Y012815D01*
X019299Y012882D01*
X019261Y012957D01*
X019235Y013036D01*
X019222Y013118D01*
X019222Y013140D01*
X019732Y013140D01*
X019732Y013180D01*
X019222Y013180D01*
X019222Y013202D01*
X019235Y013284D01*
X019261Y013363D01*
X019299Y013438D01*
X019348Y013505D01*
X019407Y013564D01*
X019475Y013613D01*
X019549Y013651D01*
X019628Y013677D01*
X019711Y013690D01*
X019732Y013690D01*
X019732Y013180D01*
X019772Y013180D01*
X019772Y013690D01*
X019794Y013690D01*
X019876Y013677D01*
X019956Y013651D01*
X020030Y013613D01*
X020098Y013564D01*
X020157Y013505D01*
X020206Y013438D01*
X020244Y013363D01*
X020269Y013284D01*
X020282Y013202D01*
X020282Y013180D01*
X019772Y013180D01*
X019772Y013140D01*
X020224Y013140D01*
X020393Y013210D01*
X020612Y013210D01*
X020814Y013126D01*
X020969Y012972D01*
X021052Y012769D01*
X021052Y012551D01*
X020969Y012348D01*
X020814Y012194D01*
X020612Y012110D01*
X020393Y012110D01*
X020302Y012148D01*
X020302Y012051D01*
X020219Y011848D01*
X020064Y011694D01*
X019862Y011610D01*
X019643Y011610D01*
X019591Y011631D01*
X019512Y011552D01*
X019512Y006768D01*
X019860Y006420D01*
X020035Y006420D01*
X020045Y006443D01*
X020155Y006554D01*
X020045Y006664D01*
X019969Y006848D01*
X019969Y007047D01*
X020045Y007231D01*
X020186Y007371D01*
X020369Y007447D01*
X020568Y007447D01*
X020752Y007371D01*
X020893Y007231D01*
X020969Y007047D01*
X020969Y006848D01*
X020893Y006664D01*
X020782Y006554D01*
X020893Y006443D01*
X020969Y006259D01*
X020969Y006061D01*
X020893Y005877D01*
X020782Y005766D01*
X020893Y005656D01*
X020969Y005472D01*
X020969Y005273D01*
X020893Y005089D01*
X020752Y004949D01*
X020610Y004890D01*
X022327Y004890D01*
X022186Y004949D01*
X022045Y005089D01*
X021969Y005273D01*
X021969Y005472D01*
X022045Y005656D01*
X022155Y005766D01*
X022045Y005877D01*
X022035Y005900D01*
X021701Y005900D01*
X021605Y005940D01*
X021105Y006440D01*
X021032Y006513D01*
X020992Y006608D01*
X020992Y011712D01*
X021032Y011807D01*
X021224Y011999D01*
X021202Y012051D01*
X021202Y012269D01*
X021286Y012472D01*
X021441Y012626D01*
X021547Y012670D01*
X021475Y012707D01*
X021407Y012756D01*
X021348Y012815D01*
X021299Y012882D01*
X021261Y012957D01*
X021235Y013036D01*
X021222Y013118D01*
X021222Y013140D01*
X021732Y013140D01*
X021732Y013180D01*
X021222Y013180D01*
X021222Y013202D01*
X021235Y013284D01*
X021261Y013363D01*
X021299Y013438D01*
X021348Y013505D01*
X021407Y013564D01*
X021475Y013613D01*
X021549Y013651D01*
X021628Y013677D01*
X021711Y013690D01*
X021732Y013690D01*
X021732Y013180D01*
X021772Y013180D01*
X021772Y013690D01*
X021794Y013690D01*
X021876Y013677D01*
X021956Y013651D01*
X022030Y013613D01*
X022098Y013564D01*
X022157Y013505D01*
X022206Y013438D01*
X022244Y013363D01*
X022269Y013284D01*
X022282Y013202D01*
X022282Y013180D01*
X021772Y013180D01*
X021772Y013140D01*
X022224Y013140D01*
X022393Y013210D01*
X022612Y013210D01*
X022814Y013126D01*
X022969Y012972D01*
X023052Y012769D01*
X023052Y012551D01*
X022969Y012348D01*
X022814Y012194D01*
X022612Y012110D01*
X022393Y012110D01*
X022302Y012148D01*
X022302Y012051D01*
X022219Y011848D01*
X022064Y011694D01*
X021862Y011610D01*
X021643Y011610D01*
X021591Y011631D01*
X021512Y011552D01*
X021512Y006768D01*
X021860Y006420D01*
X022035Y006420D01*
X022045Y006443D01*
X022155Y006554D01*
X022045Y006664D01*
X021969Y006848D01*
X021969Y007047D01*
X022045Y007231D01*
X022186Y007371D01*
X022369Y007447D01*
X022568Y007447D01*
X022752Y007371D01*
X022893Y007231D01*
X022969Y007047D01*
X022969Y006848D01*
X022893Y006664D01*
X022782Y006554D01*
X022893Y006443D01*
X022969Y006259D01*
X022969Y006061D01*
X022893Y005877D01*
X022782Y005766D01*
X022893Y005656D01*
X022969Y005472D01*
X022969Y005273D01*
X022893Y005089D01*
X022752Y004949D01*
X022610Y004890D01*
X024327Y004890D01*
X024186Y004949D01*
X024045Y005089D01*
X023969Y005273D01*
X023969Y005472D01*
X024045Y005656D01*
X024155Y005766D01*
X024045Y005877D01*
X024035Y005900D01*
X023701Y005900D01*
X023605Y005940D01*
X023105Y006440D01*
X023032Y006513D01*
X022992Y006608D01*
X022992Y011712D01*
X023032Y011807D01*
X023224Y011999D01*
X023202Y012051D01*
X023202Y012269D01*
X023286Y012472D01*
X023441Y012626D01*
X023547Y012670D01*
X023475Y012707D01*
X023407Y012756D01*
X023348Y012815D01*
X023299Y012882D01*
X023261Y012957D01*
X023235Y013036D01*
X023222Y013118D01*
X023222Y013140D01*
X023732Y013140D01*
X023732Y013180D01*
X023222Y013180D01*
X023222Y013202D01*
X023235Y013284D01*
X023261Y013363D01*
X023299Y013438D01*
X023348Y013505D01*
X023407Y013564D01*
X023475Y013613D01*
X023549Y013651D01*
X023628Y013677D01*
X023711Y013690D01*
X023732Y013690D01*
X023732Y013180D01*
X023772Y013180D01*
X023772Y013690D01*
X023794Y013690D01*
X023876Y013677D01*
X023956Y013651D01*
X024030Y013613D01*
X024098Y013564D01*
X024157Y013505D01*
X024206Y013438D01*
X024244Y013363D01*
X024269Y013284D01*
X024282Y013202D01*
X024282Y013180D01*
X023772Y013180D01*
X023772Y013140D01*
X024224Y013140D01*
X024393Y013210D01*
X024612Y013210D01*
X024814Y013126D01*
X024969Y012972D01*
X025052Y012769D01*
X025052Y012551D01*
X024969Y012348D01*
X024814Y012194D01*
X024612Y012110D01*
X024393Y012110D01*
X024302Y012148D01*
X024302Y012051D01*
X024219Y011848D01*
X024064Y011694D01*
X023862Y011610D01*
X023643Y011610D01*
X023591Y011631D01*
X023512Y011552D01*
X023512Y006768D01*
X023860Y006420D01*
X024035Y006420D01*
X024045Y006443D01*
X024155Y006554D01*
X024045Y006664D01*
X023969Y006848D01*
X023969Y007047D01*
X024045Y007231D01*
X024186Y007371D01*
X024369Y007447D01*
X024568Y007447D01*
X024752Y007371D01*
X024893Y007231D01*
X024969Y007047D01*
X024969Y006848D01*
X024893Y006664D01*
X024782Y006554D01*
X024893Y006443D01*
X024969Y006259D01*
X024969Y006061D01*
X024893Y005877D01*
X024782Y005766D01*
X024893Y005656D01*
X024969Y005472D01*
X024969Y005273D01*
X024893Y005089D01*
X024752Y004949D01*
X024610Y004890D01*
X025348Y004890D01*
X025482Y004755D01*
X025848Y004390D01*
X025982Y004255D01*
X025982Y001660D01*
X026064Y001626D01*
X026219Y001472D01*
X026252Y001390D01*
X026286Y001472D01*
X026441Y001626D01*
X026522Y001660D01*
X026522Y002255D01*
X026657Y002390D01*
X032657Y002390D01*
X032736Y002469D01*
X032702Y002551D01*
X032702Y002769D01*
X032786Y002972D01*
X032941Y003126D01*
X033143Y003210D01*
X033362Y003210D01*
X033564Y003126D01*
X033719Y002972D01*
X033802Y002769D01*
X033802Y002551D01*
X033719Y002348D01*
X033564Y002194D01*
X033362Y002110D01*
X033143Y002110D01*
X033061Y002144D01*
X032848Y001930D01*
X026982Y001930D01*
X026982Y001660D01*
X027064Y001626D01*
X027219Y001472D01*
X027252Y001390D01*
X027286Y001472D01*
X027441Y001626D01*
X027643Y001710D01*
X027862Y001710D01*
X028064Y001626D01*
X028219Y001472D01*
X028302Y001269D01*
X028302Y001051D01*
X028219Y000848D01*
X028110Y000740D01*
X032982Y000740D01*
X034022Y002232D01*
X034022Y010065D01*
X032522Y011565D01*
X032522Y013565D01*
X032302Y013785D01*
X032302Y012965D01*
X032197Y012860D01*
X031308Y012860D01*
X031202Y012965D01*
X031202Y013582D01*
X031064Y013444D01*
X030862Y013360D01*
X030643Y013360D01*
X030441Y013444D01*
X030286Y013598D01*
X030252Y013680D01*
X029907Y013680D01*
X029772Y013815D01*
X029772Y013815D01*
X029157Y014430D01*
X028736Y014430D01*
X028802Y014269D01*
X028802Y014051D01*
X028719Y013848D01*
X028564Y013694D01*
X028362Y013610D01*
X028143Y013610D01*
X027941Y013694D01*
X027786Y013848D01*
X027702Y014051D01*
X027702Y014269D01*
X027786Y014472D01*
X027941Y014626D01*
X027955Y014632D01*
X027157Y015430D01*
X027157Y015430D01*
X027022Y015565D01*
X011283Y015565D01*
X011302Y015519D02*
X011219Y015722D01*
X011064Y015876D01*
X010982Y015910D01*
X011064Y015944D01*
X011219Y016098D01*
X011252Y016180D01*
X012098Y016180D01*
X014848Y018930D01*
X015848Y018930D01*
X016348Y019430D01*
X016482Y019565D01*
X016482Y019660D01*
X016564Y019694D01*
X016719Y019848D01*
X016752Y019930D01*
X016786Y019848D01*
X016941Y019694D01*
X017143Y019610D01*
X017362Y019610D01*
X017564Y019694D01*
X017719Y019848D01*
X017752Y019930D01*
X017786Y019848D01*
X017941Y019694D01*
X018143Y019610D01*
X018362Y019610D01*
X018564Y019694D01*
X018719Y019848D01*
X018752Y019930D01*
X018786Y019848D01*
X018941Y019694D01*
X019143Y019610D01*
X019362Y019610D01*
X019564Y019694D01*
X019719Y019848D01*
X019802Y020051D01*
X019802Y020269D01*
X019719Y020472D01*
X019564Y020626D01*
X019362Y020710D01*
X019143Y020710D01*
X018941Y020626D01*
X018786Y020472D01*
X018752Y020390D01*
X018719Y020472D01*
X018564Y020626D01*
X018362Y020710D01*
X018143Y020710D01*
X017941Y020626D01*
X017786Y020472D01*
X017752Y020390D01*
X017719Y020472D01*
X017564Y020626D01*
X017362Y020710D01*
X017143Y020710D01*
X016941Y020626D01*
X016786Y020472D01*
X016752Y020390D01*
X016719Y020472D01*
X016564Y020626D01*
X016362Y020710D01*
X016143Y020710D01*
X015941Y020626D01*
X015786Y020472D01*
X015752Y020390D01*
X015719Y020472D01*
X015564Y020626D01*
X015362Y020710D01*
X015143Y020710D01*
X014941Y020626D01*
X014786Y020472D01*
X014752Y020390D01*
X014719Y020472D01*
X014564Y020626D01*
X014362Y020710D01*
X014143Y020710D01*
X013941Y020626D01*
X013786Y020472D01*
X013742Y020366D01*
X013706Y020438D01*
X013657Y020505D01*
X013598Y020564D01*
X013530Y020613D01*
X013456Y020651D01*
X013376Y020677D01*
X013294Y020690D01*
X013292Y020690D01*
X013292Y020200D01*
X013212Y020200D01*
X013212Y020690D01*
X013211Y020690D01*
X013128Y020677D01*
X013049Y020651D01*
X012975Y020613D01*
X012907Y020564D01*
X012848Y020505D01*
X012799Y020438D01*
X012762Y020366D01*
X012719Y020472D01*
X012564Y020626D01*
X012362Y020710D01*
X012143Y020710D01*
X011941Y020626D01*
X011786Y020472D01*
X011702Y020269D01*
X011702Y020051D01*
X011786Y019848D01*
X011941Y019694D01*
X012143Y019610D01*
X012362Y019610D01*
X012564Y019694D01*
X012719Y019848D01*
X012762Y019954D01*
X012799Y019882D01*
X012848Y019815D01*
X012907Y019756D01*
X012975Y019707D01*
X013049Y019669D01*
X013128Y019643D01*
X013211Y019630D01*
X013212Y019630D01*
X013212Y020120D01*
X013292Y020120D01*
X013292Y019630D01*
X013294Y019630D01*
X013376Y019643D01*
X013456Y019669D01*
X013530Y019707D01*
X013598Y019756D01*
X013657Y019815D01*
X013706Y019882D01*
X013742Y019954D01*
X013786Y019848D01*
X013941Y019694D01*
X013955Y019688D01*
X012657Y018390D01*
X012060Y018390D01*
X011968Y018482D01*
X011828Y018540D01*
X011677Y018540D01*
X011537Y018482D01*
X011430Y018375D01*
X011372Y018236D01*
X011372Y018084D01*
X011430Y017945D01*
X011537Y017838D01*
X011677Y017780D01*
X011828Y017780D01*
X011968Y017838D01*
X012060Y017930D01*
X012848Y017930D01*
X012982Y018065D01*
X014482Y019565D01*
X014482Y019660D01*
X014564Y019694D01*
X014719Y019848D01*
X014752Y019930D01*
X014786Y019848D01*
X014941Y019694D01*
X015143Y019610D01*
X015362Y019610D01*
X015564Y019694D01*
X015719Y019848D01*
X015752Y019930D01*
X015786Y019848D01*
X015941Y019694D01*
X015955Y019688D01*
X015657Y019390D01*
X014657Y019390D01*
X014522Y019255D01*
X011907Y016640D01*
X011252Y016640D01*
X011219Y016722D01*
X011064Y016876D01*
X010862Y016960D01*
X010643Y016960D01*
X010441Y016876D01*
X010302Y016738D01*
X010302Y017355D01*
X010197Y017460D01*
X009308Y017460D01*
X009202Y017355D01*
X009202Y016465D01*
X009308Y016360D01*
X009425Y016360D01*
X009286Y016222D01*
X009202Y016019D01*
X009202Y015801D01*
X009286Y015598D01*
X009441Y015444D01*
X009522Y015410D01*
X009441Y015376D01*
X009286Y015222D01*
X009202Y015019D01*
X009202Y014801D01*
X009286Y014598D01*
X009441Y014444D01*
X009547Y014400D01*
X009475Y014363D01*
X009407Y014314D01*
X009348Y014255D01*
X009299Y014188D01*
X009261Y014113D01*
X009235Y014034D01*
X009222Y013952D01*
X009222Y013948D01*
X009714Y013948D01*
X009714Y013872D01*
X009222Y013872D01*
X009222Y013868D01*
X009235Y013786D01*
X009261Y013707D01*
X009299Y013632D01*
X009348Y013565D01*
X009407Y013506D01*
X009475Y013457D01*
X009549Y013419D01*
X009628Y013393D01*
X009711Y013380D01*
X009714Y013380D01*
X009714Y013872D01*
X009791Y013872D01*
X009791Y013948D01*
X010282Y013948D01*
X010282Y013952D01*
X010269Y014034D01*
X010244Y014113D01*
X010206Y014188D01*
X010157Y014255D01*
X010098Y014314D01*
X010030Y014363D01*
X009958Y014400D01*
X010064Y014444D01*
X010219Y014598D01*
X010302Y014801D01*
X010302Y015019D01*
X010219Y015222D01*
X010064Y015376D01*
X009982Y015410D01*
X010064Y015444D01*
X010219Y015598D01*
X010302Y015801D01*
X010302Y016019D01*
X010219Y016222D01*
X010080Y016360D01*
X010197Y016360D01*
X010202Y016365D01*
X010202Y016301D01*
X010286Y016098D01*
X010441Y015944D01*
X010522Y015910D01*
X010441Y015876D01*
X010286Y015722D01*
X010202Y015519D01*
X010202Y015301D01*
X010286Y015098D01*
X010441Y014944D01*
X010522Y014910D01*
X010441Y014876D01*
X010286Y014722D01*
X010202Y014519D01*
X010202Y014301D01*
X010286Y014098D01*
X010441Y013944D01*
X010547Y013900D01*
X010475Y013863D01*
X010407Y013814D01*
X010348Y013755D01*
X010299Y013688D01*
X010261Y013613D01*
X010235Y013534D01*
X010222Y013452D01*
X010222Y013448D01*
X010714Y013448D01*
X010714Y013372D01*
X010222Y013372D01*
X010222Y013368D01*
X010235Y013286D01*
X010261Y013207D01*
X010299Y013132D01*
X010348Y013065D01*
X010407Y013006D01*
X010475Y012957D01*
X010549Y012919D01*
X010628Y012893D01*
X010711Y012880D01*
X010714Y012880D01*
X010714Y013372D01*
X010791Y013372D01*
X010791Y013448D01*
X011282Y013448D01*
X011282Y013452D01*
X011269Y013534D01*
X011244Y013613D01*
X011206Y013688D01*
X011157Y013755D01*
X011098Y013814D01*
X011030Y013863D01*
X010958Y013900D01*
X011064Y013944D01*
X011219Y014098D01*
X011302Y014301D01*
X011302Y014519D01*
X011219Y014722D01*
X011064Y014876D01*
X010982Y014910D01*
X011064Y014944D01*
X011219Y015098D01*
X011302Y015301D01*
X011302Y015519D01*
X011302Y015447D02*
X027141Y015447D01*
X027022Y015565D02*
X027022Y019565D01*
X026943Y019644D01*
X026862Y019610D01*
X026643Y019610D01*
X026441Y019694D01*
X026286Y019848D01*
X026252Y019930D01*
X026219Y019848D01*
X026064Y019694D01*
X025862Y019610D01*
X025643Y019610D01*
X025441Y019694D01*
X025286Y019848D01*
X025252Y019930D01*
X025219Y019848D01*
X025064Y019694D01*
X024862Y019610D01*
X024643Y019610D01*
X024441Y019694D01*
X024286Y019848D01*
X024252Y019930D01*
X024219Y019848D01*
X024064Y019694D01*
X023862Y019610D01*
X023643Y019610D01*
X023441Y019694D01*
X023286Y019848D01*
X023252Y019930D01*
X023219Y019848D01*
X023064Y019694D01*
X022862Y019610D01*
X022643Y019610D01*
X022441Y019694D01*
X022286Y019848D01*
X022252Y019930D01*
X022219Y019848D01*
X022064Y019694D01*
X021862Y019610D01*
X021643Y019610D01*
X021441Y019694D01*
X021286Y019848D01*
X021252Y019930D01*
X021219Y019848D01*
X021064Y019694D01*
X020862Y019610D01*
X020643Y019610D01*
X020441Y019694D01*
X020286Y019848D01*
X020202Y020051D01*
X020202Y020269D01*
X020286Y020472D01*
X020441Y020626D01*
X020643Y020710D01*
X020862Y020710D01*
X021064Y020626D01*
X021219Y020472D01*
X021252Y020390D01*
X021286Y020472D01*
X021441Y020626D01*
X021643Y020710D01*
X021862Y020710D01*
X022064Y020626D01*
X022219Y020472D01*
X022252Y020390D01*
X022286Y020472D01*
X022441Y020626D01*
X022643Y020710D01*
X022862Y020710D01*
X023064Y020626D01*
X023219Y020472D01*
X023252Y020390D01*
X023286Y020472D01*
X023441Y020626D01*
X023643Y020710D01*
X023862Y020710D01*
X024064Y020626D01*
X024219Y020472D01*
X024252Y020390D01*
X024286Y020472D01*
X024441Y020626D01*
X024643Y020710D01*
X024862Y020710D01*
X025064Y020626D01*
X025219Y020472D01*
X025252Y020390D01*
X025286Y020472D01*
X025441Y020626D01*
X025643Y020710D01*
X025862Y020710D01*
X026064Y020626D01*
X026219Y020472D01*
X026252Y020390D01*
X026286Y020472D01*
X026441Y020626D01*
X026643Y020710D01*
X026862Y020710D01*
X027064Y020626D01*
X027219Y020472D01*
X027252Y020390D01*
X027286Y020472D01*
X027441Y020626D01*
X027643Y020710D01*
X027862Y020710D01*
X028064Y020626D01*
X028219Y020472D01*
X028302Y020269D01*
X028302Y020051D01*
X028219Y019848D01*
X028064Y019694D01*
X027982Y019660D01*
X027982Y017643D01*
X028143Y017710D01*
X028362Y017710D01*
X028564Y017626D01*
X028719Y017472D01*
X028802Y017269D01*
X028802Y017051D01*
X028719Y016848D01*
X028564Y016694D01*
X028362Y016610D01*
X028143Y016610D01*
X027982Y016677D01*
X027982Y015755D01*
X028348Y015390D01*
X029348Y015390D01*
X030098Y014640D01*
X030269Y014640D01*
X030202Y014801D01*
X030202Y015019D01*
X030286Y015222D01*
X030441Y015376D01*
X030522Y015410D01*
X030441Y015444D01*
X030286Y015598D01*
X030202Y015801D01*
X030202Y016019D01*
X030286Y016222D01*
X030441Y016376D01*
X030547Y016420D01*
X030475Y016457D01*
X030407Y016506D01*
X030348Y016565D01*
X030299Y016632D01*
X030261Y016707D01*
X030235Y016786D01*
X030222Y016868D01*
X030222Y016872D01*
X030714Y016872D01*
X030714Y016948D01*
X030222Y016948D01*
X030222Y016952D01*
X030235Y017034D01*
X030261Y017113D01*
X030299Y017188D01*
X030348Y017255D01*
X030407Y017314D01*
X030475Y017363D01*
X030549Y017401D01*
X030628Y017427D01*
X030711Y017440D01*
X030714Y017440D01*
X030714Y016948D01*
X030791Y016948D01*
X031282Y016948D01*
X031282Y016952D01*
X031269Y017034D01*
X031244Y017113D01*
X031206Y017188D01*
X031157Y017255D01*
X031098Y017314D01*
X031030Y017363D01*
X030956Y017401D01*
X030876Y017427D01*
X030794Y017440D01*
X030791Y017440D01*
X030791Y016948D01*
X030791Y016872D01*
X031282Y016872D01*
X031282Y016868D01*
X031269Y016786D01*
X031244Y016707D01*
X031206Y016632D01*
X031157Y016565D01*
X031098Y016506D01*
X031030Y016457D01*
X030958Y016420D01*
X031064Y016376D01*
X031219Y016222D01*
X031302Y016019D01*
X031302Y015801D01*
X031219Y015598D01*
X031064Y015444D01*
X030982Y015410D01*
X031064Y015376D01*
X031219Y015222D01*
X031302Y015019D01*
X031302Y014801D01*
X031219Y014598D01*
X031179Y014559D01*
X031207Y014531D01*
X031286Y014722D01*
X031441Y014876D01*
X031522Y014910D01*
X031441Y014944D01*
X031286Y015098D01*
X031202Y015301D01*
X031202Y015519D01*
X031286Y015722D01*
X031441Y015876D01*
X031547Y015920D01*
X031475Y015957D01*
X031407Y016006D01*
X031348Y016065D01*
X031299Y016132D01*
X031261Y016207D01*
X031235Y016286D01*
X031222Y016368D01*
X031222Y016372D01*
X031714Y016372D01*
X031714Y016448D01*
X031222Y016448D01*
X031222Y016452D01*
X031235Y016534D01*
X031261Y016613D01*
X031299Y016688D01*
X031348Y016755D01*
X031407Y016814D01*
X031475Y016863D01*
X031549Y016901D01*
X031628Y016927D01*
X031711Y016940D01*
X031714Y016940D01*
X031714Y016448D01*
X031791Y016448D01*
X032282Y016448D01*
X032282Y016452D01*
X032269Y016534D01*
X032244Y016613D01*
X032206Y016688D01*
X032157Y016755D01*
X032098Y016814D01*
X032030Y016863D01*
X031956Y016901D01*
X031876Y016927D01*
X031794Y016940D01*
X031791Y016940D01*
X031791Y016448D01*
X031791Y016372D01*
X032282Y016372D01*
X032282Y016368D01*
X032269Y016286D01*
X032244Y016207D01*
X032206Y016132D01*
X032157Y016065D01*
X032098Y016006D01*
X032030Y015957D01*
X031958Y015920D01*
X032064Y015876D01*
X032219Y015722D01*
X032302Y015519D01*
X032302Y015301D01*
X032219Y015098D01*
X032064Y014944D01*
X031982Y014910D01*
X032064Y014876D01*
X032219Y014722D01*
X032302Y014519D01*
X032302Y014435D01*
X032982Y013755D01*
X032982Y011755D01*
X034482Y010255D01*
X034482Y002180D01*
X034496Y002107D01*
X034482Y002088D01*
X034482Y002065D01*
X034429Y002012D01*
X033332Y000438D01*
X033332Y000415D01*
X033298Y000380D01*
X034161Y000380D01*
X035032Y001251D01*
X035032Y012677D01*
X034939Y012451D01*
X034711Y012223D01*
X034413Y012100D01*
X034091Y012100D01*
X033794Y012223D01*
X033566Y012451D01*
X033442Y012749D01*
X033442Y013071D01*
X033566Y013369D01*
X033794Y013597D01*
X034091Y013720D01*
X034413Y013720D01*
X034711Y013597D01*
X034939Y013369D01*
X035032Y013143D01*
X035032Y017177D01*
X034939Y016951D01*
X034711Y016723D01*
X034413Y016600D01*
X034091Y016600D01*
X033794Y016723D01*
X033566Y016951D01*
X033442Y017249D01*
X033442Y017571D01*
X033566Y017869D01*
X033794Y018097D01*
X034091Y018220D01*
X034413Y018220D01*
X034711Y018097D01*
X034939Y017869D01*
X035032Y017643D01*
X035032Y020069D01*
X034161Y020940D01*
X007343Y020940D01*
X006472Y020069D01*
X006472Y017643D01*
X006566Y017869D01*
X006794Y018097D01*
X007091Y018220D01*
X007413Y018220D01*
X007711Y018097D01*
X007939Y017869D01*
X008062Y017571D01*
X008062Y017249D01*
X007939Y016951D01*
X007711Y016723D01*
X007413Y016600D01*
X007091Y016600D01*
X006794Y016723D01*
X006566Y016951D01*
X006472Y017177D01*
X006472Y013143D01*
X006566Y013369D01*
X006794Y013597D01*
X007091Y013720D01*
X007413Y013720D01*
X007711Y013597D01*
X007939Y013369D01*
X008062Y013071D01*
X008062Y012749D01*
X007939Y012451D01*
X007711Y012223D01*
X007413Y012100D01*
X007091Y012100D01*
X006794Y012223D01*
X006566Y012451D01*
X006472Y012677D01*
X006472Y008643D01*
X006566Y008869D01*
X006794Y009097D01*
X007091Y009220D01*
X007413Y009220D01*
X007711Y009097D01*
X007939Y008869D01*
X008062Y008571D01*
X008062Y008249D01*
X007939Y007951D01*
X007711Y007723D01*
X007413Y007600D01*
X007091Y007600D01*
X006794Y007723D01*
X006566Y007951D01*
X006472Y008177D01*
X006472Y004143D01*
X006566Y004369D01*
X006794Y004597D01*
X007091Y004720D01*
X007413Y004720D01*
X007711Y004597D01*
X007939Y004369D01*
X008062Y004071D01*
X008062Y003749D01*
X007939Y003451D01*
X007711Y003223D01*
X007413Y003100D01*
X007091Y003100D01*
X006794Y003223D01*
X006566Y003451D01*
X006472Y003677D01*
X006472Y003597D02*
X006506Y003597D01*
X006472Y003478D02*
X006555Y003478D01*
X006472Y003360D02*
X006657Y003360D01*
X006776Y003241D02*
X006472Y003241D01*
X006472Y003123D02*
X007037Y003123D01*
X007468Y003123D02*
X013549Y003123D01*
X013382Y003004D02*
X006472Y003004D01*
X006472Y002886D02*
X013299Y002886D01*
X013250Y002767D02*
X006472Y002767D01*
X006472Y002649D02*
X013247Y002649D01*
X013260Y002530D02*
X006472Y002530D01*
X006472Y002412D02*
X013309Y002412D01*
X013405Y002293D02*
X006472Y002293D01*
X006472Y002175D02*
X013522Y002175D01*
X013522Y002056D02*
X006472Y002056D01*
X006472Y001938D02*
X013522Y001938D01*
X013522Y001819D02*
X006472Y001819D01*
X006472Y001701D02*
X013522Y001701D01*
X013522Y001582D02*
X006472Y001582D01*
X006472Y001464D02*
X013522Y001464D01*
X013522Y001345D02*
X006472Y001345D01*
X006497Y001227D02*
X013522Y001227D01*
X013522Y001108D02*
X006615Y001108D01*
X006734Y000990D02*
X013598Y000990D01*
X013716Y000871D02*
X006852Y000871D01*
X006971Y000753D02*
X013835Y000753D01*
X013953Y000634D02*
X007089Y000634D01*
X007208Y000516D02*
X014072Y000516D01*
X014190Y000397D02*
X007326Y000397D01*
X007729Y003241D02*
X013846Y003241D01*
X013955Y003123D02*
X013965Y003123D01*
X013728Y003360D02*
X007847Y003360D01*
X007950Y003478D02*
X013609Y003478D01*
X013491Y003597D02*
X007999Y003597D01*
X008048Y003715D02*
X013372Y003715D01*
X013254Y003834D02*
X008062Y003834D01*
X008062Y003952D02*
X010484Y003952D01*
X010344Y004071D02*
X008062Y004071D01*
X008013Y004189D02*
X010270Y004189D01*
X010232Y004308D02*
X007964Y004308D01*
X007882Y004426D02*
X009535Y004426D01*
X009714Y004426D02*
X009791Y004426D01*
X009791Y004545D02*
X009714Y004545D01*
X009714Y004663D02*
X009791Y004663D01*
X009791Y004782D02*
X009714Y004782D01*
X009714Y004900D02*
X006472Y004900D01*
X006472Y004782D02*
X009237Y004782D01*
X009283Y004663D02*
X007551Y004663D01*
X007763Y004545D02*
X009368Y004545D01*
X009970Y004426D02*
X010714Y004426D01*
X010791Y004426D02*
X012661Y004426D01*
X012543Y004545D02*
X011266Y004545D01*
X011218Y004663D02*
X012424Y004663D01*
X012306Y004782D02*
X011130Y004782D01*
X010958Y004900D02*
X012187Y004900D01*
X012069Y005019D02*
X011139Y005019D01*
X011235Y005137D02*
X011950Y005137D01*
X011832Y005256D02*
X011284Y005256D01*
X011302Y005374D02*
X011713Y005374D01*
X011595Y005493D02*
X011302Y005493D01*
X011264Y005611D02*
X011476Y005611D01*
X011358Y005730D02*
X011211Y005730D01*
X011239Y005848D02*
X011092Y005848D01*
X011087Y005967D02*
X011121Y005967D01*
X010418Y005967D02*
X010302Y005967D01*
X010300Y006085D02*
X010275Y006085D01*
X010243Y006204D02*
X010226Y006204D01*
X010202Y006322D02*
X010118Y006322D01*
X010056Y006441D02*
X010202Y006441D01*
X010219Y006559D02*
X010179Y006559D01*
X010251Y006678D02*
X010268Y006678D01*
X009449Y006441D02*
X006472Y006441D01*
X006472Y006559D02*
X009326Y006559D01*
X009253Y006678D02*
X006472Y006678D01*
X006472Y006796D02*
X009204Y006796D01*
X009202Y006915D02*
X006472Y006915D01*
X006472Y007033D02*
X009208Y007033D01*
X009257Y007152D02*
X006472Y007152D01*
X006472Y007270D02*
X009335Y007270D01*
X009279Y007389D02*
X006472Y007389D01*
X006472Y007507D02*
X009202Y007507D01*
X009202Y007626D02*
X007475Y007626D01*
X007732Y007744D02*
X009202Y007744D01*
X009202Y007863D02*
X007850Y007863D01*
X007951Y007981D02*
X009202Y007981D01*
X009202Y008100D02*
X008000Y008100D01*
X008049Y008218D02*
X009202Y008218D01*
X009202Y008337D02*
X008062Y008337D01*
X008062Y008455D02*
X009303Y008455D01*
X010202Y008455D02*
X012992Y008455D01*
X012992Y008337D02*
X010302Y008337D01*
X010302Y008218D02*
X012992Y008218D01*
X012992Y008100D02*
X011138Y008100D01*
X011257Y007981D02*
X012992Y007981D01*
X012992Y007863D02*
X011375Y007863D01*
X011494Y007744D02*
X012992Y007744D01*
X012992Y007626D02*
X011612Y007626D01*
X011731Y007507D02*
X012992Y007507D01*
X012992Y007389D02*
X011849Y007389D01*
X011968Y007270D02*
X012992Y007270D01*
X012992Y007152D02*
X012086Y007152D01*
X012205Y007033D02*
X012992Y007033D01*
X012992Y006915D02*
X012323Y006915D01*
X012442Y006796D02*
X012992Y006796D01*
X012992Y006678D02*
X012560Y006678D01*
X012679Y006559D02*
X013013Y006559D01*
X013104Y006441D02*
X012797Y006441D01*
X012916Y006322D02*
X013223Y006322D01*
X013341Y006204D02*
X013034Y006204D01*
X013153Y006085D02*
X013460Y006085D01*
X013578Y005967D02*
X013271Y005967D01*
X013390Y005848D02*
X014074Y005848D01*
X014119Y005730D02*
X013508Y005730D01*
X013627Y005611D02*
X014026Y005611D01*
X013977Y005493D02*
X013745Y005493D01*
X013864Y005374D02*
X013969Y005374D01*
X014635Y004900D02*
X016303Y004900D01*
X016116Y005019D02*
X014822Y005019D01*
X014913Y005137D02*
X016025Y005137D01*
X015976Y005256D02*
X014962Y005256D01*
X014969Y005374D02*
X015969Y005374D01*
X015977Y005493D02*
X014960Y005493D01*
X014911Y005611D02*
X016026Y005611D01*
X016119Y005730D02*
X014819Y005730D01*
X014864Y005848D02*
X016074Y005848D01*
X015578Y005967D02*
X014930Y005967D01*
X014969Y006085D02*
X015460Y006085D01*
X015341Y006204D02*
X014969Y006204D01*
X014943Y006322D02*
X015223Y006322D01*
X015104Y006441D02*
X014894Y006441D01*
X014788Y006559D02*
X015013Y006559D01*
X014992Y006678D02*
X014898Y006678D01*
X014947Y006796D02*
X014992Y006796D01*
X014992Y006915D02*
X014969Y006915D01*
X014969Y007033D02*
X014992Y007033D01*
X014992Y007152D02*
X014926Y007152D01*
X014992Y007270D02*
X014853Y007270D01*
X014992Y007389D02*
X014711Y007389D01*
X014992Y007507D02*
X013512Y007507D01*
X013512Y007389D02*
X014227Y007389D01*
X014084Y007270D02*
X013512Y007270D01*
X013512Y007152D02*
X014012Y007152D01*
X013969Y007033D02*
X013512Y007033D01*
X013512Y006915D02*
X013969Y006915D01*
X013990Y006796D02*
X013512Y006796D01*
X013603Y006678D02*
X014039Y006678D01*
X014150Y006559D02*
X013721Y006559D01*
X013840Y006441D02*
X014044Y006441D01*
X015512Y006796D02*
X015990Y006796D01*
X015969Y006915D02*
X015512Y006915D01*
X015512Y007033D02*
X015969Y007033D01*
X016012Y007152D02*
X015512Y007152D01*
X015512Y007270D02*
X016084Y007270D01*
X016227Y007389D02*
X015512Y007389D01*
X015512Y007507D02*
X016992Y007507D01*
X016992Y007389D02*
X016711Y007389D01*
X016853Y007270D02*
X016992Y007270D01*
X016992Y007152D02*
X016926Y007152D01*
X016969Y007033D02*
X016992Y007033D01*
X016992Y006915D02*
X016969Y006915D01*
X016947Y006796D02*
X016992Y006796D01*
X016992Y006678D02*
X016898Y006678D01*
X016788Y006559D02*
X017013Y006559D01*
X017104Y006441D02*
X016894Y006441D01*
X016943Y006322D02*
X017223Y006322D01*
X017341Y006204D02*
X016969Y006204D01*
X016969Y006085D02*
X017460Y006085D01*
X017578Y005967D02*
X016930Y005967D01*
X016864Y005848D02*
X018074Y005848D01*
X018119Y005730D02*
X016819Y005730D01*
X016911Y005611D02*
X018026Y005611D01*
X017977Y005493D02*
X016960Y005493D01*
X016969Y005374D02*
X017969Y005374D01*
X017976Y005256D02*
X016962Y005256D01*
X016913Y005137D02*
X018025Y005137D01*
X018116Y005019D02*
X016822Y005019D01*
X016635Y004900D02*
X018303Y004900D01*
X018635Y004900D02*
X020303Y004900D01*
X020116Y005019D02*
X018822Y005019D01*
X018913Y005137D02*
X020025Y005137D01*
X019976Y005256D02*
X018962Y005256D01*
X018969Y005374D02*
X019969Y005374D01*
X019977Y005493D02*
X018960Y005493D01*
X018911Y005611D02*
X020026Y005611D01*
X020119Y005730D02*
X018819Y005730D01*
X018864Y005848D02*
X020074Y005848D01*
X019578Y005967D02*
X018930Y005967D01*
X018969Y006085D02*
X019460Y006085D01*
X019341Y006204D02*
X018969Y006204D01*
X018943Y006322D02*
X019223Y006322D01*
X019104Y006441D02*
X018894Y006441D01*
X018788Y006559D02*
X019013Y006559D01*
X018992Y006678D02*
X018898Y006678D01*
X018947Y006796D02*
X018992Y006796D01*
X018992Y006915D02*
X018969Y006915D01*
X018969Y007033D02*
X018992Y007033D01*
X018992Y007152D02*
X018926Y007152D01*
X018992Y007270D02*
X018853Y007270D01*
X018992Y007389D02*
X018711Y007389D01*
X018992Y007507D02*
X017512Y007507D01*
X017512Y007389D02*
X018227Y007389D01*
X018084Y007270D02*
X017512Y007270D01*
X017512Y007152D02*
X018012Y007152D01*
X017969Y007033D02*
X017512Y007033D01*
X017512Y006915D02*
X017969Y006915D01*
X017990Y006796D02*
X017512Y006796D01*
X017603Y006678D02*
X018039Y006678D01*
X018150Y006559D02*
X017721Y006559D01*
X017840Y006441D02*
X018044Y006441D01*
X019512Y006796D02*
X019990Y006796D01*
X019969Y006915D02*
X019512Y006915D01*
X019512Y007033D02*
X019969Y007033D01*
X020012Y007152D02*
X019512Y007152D01*
X019512Y007270D02*
X020084Y007270D01*
X020227Y007389D02*
X019512Y007389D01*
X019512Y007507D02*
X020992Y007507D01*
X020992Y007389D02*
X020711Y007389D01*
X020853Y007270D02*
X020992Y007270D01*
X020992Y007152D02*
X020926Y007152D01*
X020969Y007033D02*
X020992Y007033D01*
X020992Y006915D02*
X020969Y006915D01*
X020947Y006796D02*
X020992Y006796D01*
X020992Y006678D02*
X020898Y006678D01*
X020788Y006559D02*
X021013Y006559D01*
X021104Y006441D02*
X020894Y006441D01*
X020943Y006322D02*
X021223Y006322D01*
X021341Y006204D02*
X020969Y006204D01*
X020969Y006085D02*
X021460Y006085D01*
X021578Y005967D02*
X020930Y005967D01*
X020864Y005848D02*
X022074Y005848D01*
X022119Y005730D02*
X020819Y005730D01*
X020911Y005611D02*
X022026Y005611D01*
X021977Y005493D02*
X020960Y005493D01*
X020969Y005374D02*
X021969Y005374D01*
X021976Y005256D02*
X020962Y005256D01*
X020913Y005137D02*
X022025Y005137D01*
X022116Y005019D02*
X020822Y005019D01*
X020635Y004900D02*
X022303Y004900D01*
X022635Y004900D02*
X024303Y004900D01*
X024116Y005019D02*
X022822Y005019D01*
X022913Y005137D02*
X024025Y005137D01*
X023976Y005256D02*
X022962Y005256D01*
X022969Y005374D02*
X023969Y005374D01*
X023977Y005493D02*
X022960Y005493D01*
X022911Y005611D02*
X024026Y005611D01*
X024119Y005730D02*
X022819Y005730D01*
X022864Y005848D02*
X024074Y005848D01*
X023578Y005967D02*
X022930Y005967D01*
X022969Y006085D02*
X023460Y006085D01*
X023341Y006204D02*
X022969Y006204D01*
X022943Y006322D02*
X023223Y006322D01*
X023104Y006441D02*
X022894Y006441D01*
X022788Y006559D02*
X023013Y006559D01*
X022992Y006678D02*
X022898Y006678D01*
X022947Y006796D02*
X022992Y006796D01*
X022992Y006915D02*
X022969Y006915D01*
X022969Y007033D02*
X022992Y007033D01*
X022992Y007152D02*
X022926Y007152D01*
X022992Y007270D02*
X022853Y007270D01*
X022992Y007389D02*
X022711Y007389D01*
X022992Y007507D02*
X021512Y007507D01*
X021512Y007389D02*
X022227Y007389D01*
X022084Y007270D02*
X021512Y007270D01*
X021512Y007152D02*
X022012Y007152D01*
X021969Y007033D02*
X021512Y007033D01*
X021512Y006915D02*
X021969Y006915D01*
X021990Y006796D02*
X021512Y006796D01*
X021603Y006678D02*
X022039Y006678D01*
X022150Y006559D02*
X021721Y006559D01*
X021840Y006441D02*
X022044Y006441D01*
X023512Y006796D02*
X023990Y006796D01*
X023969Y006915D02*
X023512Y006915D01*
X023512Y007033D02*
X023969Y007033D01*
X024012Y007152D02*
X023512Y007152D01*
X023512Y007270D02*
X024084Y007270D01*
X024227Y007389D02*
X023512Y007389D01*
X023512Y007507D02*
X024992Y007507D01*
X024992Y007389D02*
X024711Y007389D01*
X024853Y007270D02*
X024992Y007270D01*
X024992Y007152D02*
X024926Y007152D01*
X024969Y007033D02*
X024992Y007033D01*
X024992Y006915D02*
X024969Y006915D01*
X024947Y006796D02*
X024992Y006796D01*
X024992Y006678D02*
X024898Y006678D01*
X024992Y006608D02*
X025032Y006513D01*
X025105Y006440D01*
X025605Y005940D01*
X025701Y005900D01*
X026035Y005900D01*
X026045Y005877D01*
X026155Y005766D01*
X026045Y005656D01*
X025969Y005472D01*
X025969Y005273D01*
X026045Y005089D01*
X026186Y004949D01*
X026369Y004873D01*
X026568Y004873D01*
X026752Y004949D01*
X026893Y005089D01*
X026969Y005273D01*
X026969Y005472D01*
X026893Y005656D01*
X026782Y005766D01*
X026893Y005877D01*
X026969Y006061D01*
X026969Y006259D01*
X026893Y006443D01*
X026782Y006554D01*
X026893Y006664D01*
X026969Y006848D01*
X026969Y007047D01*
X026893Y007231D01*
X026752Y007371D01*
X026568Y007447D01*
X026369Y007447D01*
X026186Y007371D01*
X026045Y007231D01*
X025969Y007047D01*
X025969Y006848D01*
X026045Y006664D01*
X026155Y006554D01*
X026045Y006443D01*
X026035Y006420D01*
X025860Y006420D01*
X025512Y006768D01*
X025512Y011552D01*
X025591Y011631D01*
X025643Y011610D01*
X025862Y011610D01*
X026064Y011694D01*
X026219Y011848D01*
X026302Y012051D01*
X026302Y012148D01*
X026393Y012110D01*
X026612Y012110D01*
X026814Y012194D01*
X026969Y012348D01*
X027052Y012551D01*
X027052Y012769D01*
X026969Y012972D01*
X026814Y013126D01*
X026612Y013210D01*
X026393Y013210D01*
X026224Y013140D01*
X025772Y013140D01*
X025772Y013180D01*
X025732Y013180D01*
X025732Y013140D01*
X025222Y013140D01*
X025222Y013118D01*
X025235Y013036D01*
X025261Y012957D01*
X025299Y012882D01*
X025348Y012815D01*
X025407Y012756D01*
X025475Y012707D01*
X025547Y012670D01*
X025441Y012626D01*
X025286Y012472D01*
X025202Y012269D01*
X025202Y012051D01*
X025224Y011999D01*
X025032Y011807D01*
X024992Y011712D01*
X024992Y006608D01*
X025013Y006559D02*
X024788Y006559D01*
X024894Y006441D02*
X025104Y006441D01*
X025223Y006322D02*
X024943Y006322D01*
X024969Y006204D02*
X025341Y006204D01*
X025460Y006085D02*
X024969Y006085D01*
X024930Y005967D02*
X025578Y005967D01*
X026074Y005848D02*
X024864Y005848D01*
X024819Y005730D02*
X026119Y005730D01*
X026026Y005611D02*
X024911Y005611D01*
X024960Y005493D02*
X025977Y005493D01*
X025969Y005374D02*
X024969Y005374D01*
X024962Y005256D02*
X025976Y005256D01*
X026025Y005137D02*
X024913Y005137D01*
X024822Y005019D02*
X026116Y005019D01*
X026303Y004900D02*
X024635Y004900D01*
X025456Y004782D02*
X030522Y004782D01*
X030522Y004900D02*
X028635Y004900D01*
X028568Y004873D02*
X028752Y004949D01*
X028893Y005089D01*
X028969Y005273D01*
X028969Y005472D01*
X028893Y005656D01*
X028782Y005766D01*
X028893Y005877D01*
X028969Y006061D01*
X028969Y006259D01*
X028893Y006443D01*
X028782Y006554D01*
X028893Y006664D01*
X028969Y006848D01*
X028969Y007047D01*
X028893Y007231D01*
X028752Y007371D01*
X028568Y007447D01*
X028369Y007447D01*
X028186Y007371D01*
X028045Y007231D01*
X027969Y007047D01*
X027969Y006848D01*
X028045Y006664D01*
X028155Y006554D01*
X028045Y006443D01*
X028035Y006420D01*
X027860Y006420D01*
X027512Y006768D01*
X027512Y011552D01*
X027591Y011631D01*
X027643Y011610D01*
X027862Y011610D01*
X028064Y011694D01*
X028219Y011848D01*
X028302Y012051D01*
X028302Y012148D01*
X028393Y012110D01*
X028612Y012110D01*
X028814Y012194D01*
X028969Y012348D01*
X029052Y012551D01*
X029052Y012769D01*
X028969Y012972D01*
X028814Y013126D01*
X028612Y013210D01*
X028393Y013210D01*
X028224Y013140D01*
X027772Y013140D01*
X027772Y013180D01*
X027732Y013180D01*
X027732Y013140D01*
X027222Y013140D01*
X027222Y013118D01*
X027235Y013036D01*
X027261Y012957D01*
X027299Y012882D01*
X027348Y012815D01*
X027407Y012756D01*
X027475Y012707D01*
X027547Y012670D01*
X027441Y012626D01*
X027286Y012472D01*
X027202Y012269D01*
X027202Y012051D01*
X027224Y011999D01*
X027032Y011807D01*
X026992Y011712D01*
X026992Y006608D01*
X027032Y006513D01*
X027105Y006440D01*
X027605Y005940D01*
X027701Y005900D01*
X028035Y005900D01*
X028045Y005877D01*
X028155Y005766D01*
X028045Y005656D01*
X027969Y005472D01*
X027969Y005273D01*
X028045Y005089D01*
X028186Y004949D01*
X028369Y004873D01*
X028568Y004873D01*
X028303Y004900D02*
X026635Y004900D01*
X026822Y005019D02*
X028116Y005019D01*
X028025Y005137D02*
X026913Y005137D01*
X026962Y005256D02*
X027976Y005256D01*
X027969Y005374D02*
X026969Y005374D01*
X026960Y005493D02*
X027977Y005493D01*
X028026Y005611D02*
X026911Y005611D01*
X026819Y005730D02*
X028119Y005730D01*
X028074Y005848D02*
X026864Y005848D01*
X026930Y005967D02*
X027578Y005967D01*
X027460Y006085D02*
X026969Y006085D01*
X026969Y006204D02*
X027341Y006204D01*
X027223Y006322D02*
X026943Y006322D01*
X026894Y006441D02*
X027104Y006441D01*
X027013Y006559D02*
X026788Y006559D01*
X026898Y006678D02*
X026992Y006678D01*
X026992Y006796D02*
X026947Y006796D01*
X026969Y006915D02*
X026992Y006915D01*
X026992Y007033D02*
X026969Y007033D01*
X026992Y007152D02*
X026926Y007152D01*
X026992Y007270D02*
X026853Y007270D01*
X026992Y007389D02*
X026711Y007389D01*
X026992Y007507D02*
X025512Y007507D01*
X025512Y007389D02*
X026227Y007389D01*
X026084Y007270D02*
X025512Y007270D01*
X025512Y007152D02*
X026012Y007152D01*
X025969Y007033D02*
X025512Y007033D01*
X025512Y006915D02*
X025969Y006915D01*
X025990Y006796D02*
X025512Y006796D01*
X025603Y006678D02*
X026039Y006678D01*
X026150Y006559D02*
X025721Y006559D01*
X025840Y006441D02*
X026044Y006441D01*
X027512Y006796D02*
X027990Y006796D01*
X027969Y006915D02*
X027512Y006915D01*
X027512Y007033D02*
X027969Y007033D01*
X028012Y007152D02*
X027512Y007152D01*
X027512Y007270D02*
X028084Y007270D01*
X028227Y007389D02*
X027512Y007389D01*
X027512Y007507D02*
X030580Y007507D01*
X030522Y007565D02*
X030657Y007430D01*
X031657Y006430D01*
X032752Y006430D01*
X032786Y006348D01*
X032941Y006194D01*
X033022Y006160D01*
X032941Y006126D01*
X032786Y005972D01*
X032752Y005890D01*
X031157Y005890D01*
X030657Y005390D01*
X030522Y005255D01*
X030522Y004660D01*
X030441Y004626D01*
X030286Y004472D01*
X030202Y004269D01*
X030202Y004051D01*
X030286Y003848D01*
X030441Y003694D01*
X030643Y003610D01*
X030862Y003610D01*
X031064Y003694D01*
X031219Y003848D01*
X031262Y003954D01*
X031299Y003882D01*
X031348Y003815D01*
X031407Y003756D01*
X031475Y003707D01*
X031549Y003669D01*
X031628Y003643D01*
X031711Y003630D01*
X031732Y003630D01*
X031732Y004140D01*
X031772Y004140D01*
X031772Y003630D01*
X031794Y003630D01*
X031876Y003643D01*
X031956Y003669D01*
X032030Y003707D01*
X032098Y003756D01*
X032157Y003815D01*
X032206Y003882D01*
X032244Y003957D01*
X032269Y004036D01*
X032282Y004118D01*
X032282Y004140D01*
X031772Y004140D01*
X031772Y004180D01*
X031732Y004180D01*
X031732Y004690D01*
X031711Y004690D01*
X031628Y004677D01*
X031549Y004651D01*
X031475Y004613D01*
X031407Y004564D01*
X031348Y004505D01*
X031299Y004438D01*
X031262Y004366D01*
X031219Y004472D01*
X031064Y004626D01*
X030982Y004660D01*
X030982Y005065D01*
X031348Y005430D01*
X032752Y005430D01*
X032786Y005348D01*
X032941Y005194D01*
X033143Y005110D01*
X033362Y005110D01*
X033564Y005194D01*
X033719Y005348D01*
X033802Y005551D01*
X033802Y005769D01*
X033719Y005972D01*
X033564Y006126D01*
X033482Y006160D01*
X033564Y006194D01*
X033719Y006348D01*
X033802Y006551D01*
X033802Y006769D01*
X033719Y006972D01*
X033564Y007126D01*
X033362Y007210D01*
X033143Y007210D01*
X032941Y007126D01*
X032786Y006972D01*
X032752Y006890D01*
X031848Y006890D01*
X031050Y007688D01*
X031064Y007694D01*
X031219Y007848D01*
X031262Y007954D01*
X031299Y007882D01*
X031348Y007815D01*
X031407Y007756D01*
X031475Y007707D01*
X031549Y007669D01*
X031628Y007643D01*
X031711Y007630D01*
X031732Y007630D01*
X031732Y008140D01*
X031772Y008140D01*
X031772Y007630D01*
X031794Y007630D01*
X031876Y007643D01*
X031956Y007669D01*
X032030Y007707D01*
X032098Y007756D01*
X032157Y007815D01*
X032206Y007882D01*
X032244Y007957D01*
X032269Y008036D01*
X032282Y008118D01*
X032282Y008140D01*
X031772Y008140D01*
X031772Y008180D01*
X031732Y008180D01*
X031732Y008690D01*
X031711Y008690D01*
X031628Y008677D01*
X031549Y008651D01*
X031475Y008613D01*
X031407Y008564D01*
X031348Y008505D01*
X031299Y008438D01*
X031262Y008366D01*
X031219Y008472D01*
X031064Y008626D01*
X030862Y008710D01*
X030643Y008710D01*
X030441Y008626D01*
X030286Y008472D01*
X030202Y008269D01*
X030202Y008051D01*
X030286Y007848D01*
X030441Y007694D01*
X030522Y007660D01*
X030522Y007565D01*
X030522Y007626D02*
X028399Y007626D01*
X028362Y007610D02*
X028564Y007694D01*
X028719Y007848D01*
X028802Y008051D01*
X028802Y008269D01*
X028719Y008472D01*
X028564Y008626D01*
X028362Y008710D01*
X028143Y008710D01*
X027941Y008626D01*
X027786Y008472D01*
X027702Y008269D01*
X027702Y008051D01*
X027786Y007848D01*
X027941Y007694D01*
X028143Y007610D01*
X028362Y007610D01*
X028106Y007626D02*
X027512Y007626D01*
X027512Y007744D02*
X027891Y007744D01*
X027780Y007863D02*
X027512Y007863D01*
X027512Y007981D02*
X027731Y007981D01*
X027702Y008100D02*
X027512Y008100D01*
X027512Y008218D02*
X027702Y008218D01*
X027730Y008337D02*
X027512Y008337D01*
X027512Y008455D02*
X027779Y008455D01*
X027888Y008574D02*
X027512Y008574D01*
X027512Y008692D02*
X028100Y008692D01*
X028405Y008692D02*
X030600Y008692D01*
X030388Y008574D02*
X028617Y008574D01*
X028725Y008455D02*
X030279Y008455D01*
X030230Y008337D02*
X028775Y008337D01*
X028802Y008218D02*
X030202Y008218D01*
X030202Y008100D02*
X028802Y008100D01*
X028774Y007981D02*
X030231Y007981D01*
X030280Y007863D02*
X028724Y007863D01*
X028614Y007744D02*
X030391Y007744D01*
X030699Y007389D02*
X028711Y007389D01*
X028853Y007270D02*
X030817Y007270D01*
X030936Y007152D02*
X028926Y007152D01*
X028969Y007033D02*
X031054Y007033D01*
X031173Y006915D02*
X028969Y006915D01*
X028947Y006796D02*
X031291Y006796D01*
X031410Y006678D02*
X028898Y006678D01*
X028788Y006559D02*
X031528Y006559D01*
X031647Y006441D02*
X028894Y006441D01*
X028943Y006322D02*
X032813Y006322D01*
X032931Y006204D02*
X028969Y006204D01*
X028969Y006085D02*
X032900Y006085D01*
X032784Y005967D02*
X028930Y005967D01*
X028864Y005848D02*
X031115Y005848D01*
X030997Y005730D02*
X028819Y005730D01*
X028911Y005611D02*
X030878Y005611D01*
X030760Y005493D02*
X028960Y005493D01*
X028969Y005374D02*
X030641Y005374D01*
X030523Y005256D02*
X028962Y005256D01*
X028913Y005137D02*
X030522Y005137D01*
X030522Y005019D02*
X028822Y005019D01*
X030267Y004426D02*
X025812Y004426D01*
X025930Y004308D02*
X030218Y004308D01*
X030202Y004189D02*
X025982Y004189D01*
X025982Y004071D02*
X030202Y004071D01*
X030243Y003952D02*
X025982Y003952D01*
X025982Y003834D02*
X030301Y003834D01*
X030420Y003715D02*
X025982Y003715D01*
X025982Y003597D02*
X034022Y003597D01*
X034022Y003715D02*
X032042Y003715D01*
X032170Y003834D02*
X034022Y003834D01*
X034022Y003952D02*
X032241Y003952D01*
X032275Y004071D02*
X034022Y004071D01*
X034022Y004189D02*
X032282Y004189D01*
X032282Y004180D02*
X032282Y004202D01*
X032269Y004284D01*
X032244Y004363D01*
X032206Y004438D01*
X032157Y004505D01*
X032098Y004564D01*
X032030Y004613D01*
X031956Y004651D01*
X031876Y004677D01*
X031794Y004690D01*
X031772Y004690D01*
X031772Y004180D01*
X032282Y004180D01*
X032262Y004308D02*
X034022Y004308D01*
X034022Y004426D02*
X032212Y004426D01*
X032117Y004545D02*
X034022Y004545D01*
X034022Y004663D02*
X031919Y004663D01*
X031772Y004663D02*
X031732Y004663D01*
X031732Y004545D02*
X031772Y004545D01*
X031772Y004426D02*
X031732Y004426D01*
X031732Y004308D02*
X031772Y004308D01*
X031772Y004189D02*
X031732Y004189D01*
X031732Y004071D02*
X031772Y004071D01*
X031772Y003952D02*
X031732Y003952D01*
X031732Y003834D02*
X031772Y003834D01*
X031772Y003715D02*
X031732Y003715D01*
X031463Y003715D02*
X031085Y003715D01*
X031204Y003834D02*
X031334Y003834D01*
X031264Y003952D02*
X031262Y003952D01*
X031237Y004426D02*
X031293Y004426D01*
X031387Y004545D02*
X031146Y004545D01*
X030982Y004663D02*
X031585Y004663D01*
X030982Y004782D02*
X034022Y004782D01*
X034022Y004900D02*
X030982Y004900D01*
X030982Y005019D02*
X034022Y005019D01*
X034022Y005137D02*
X033427Y005137D01*
X033626Y005256D02*
X034022Y005256D01*
X034022Y005374D02*
X033729Y005374D01*
X033778Y005493D02*
X034022Y005493D01*
X034022Y005611D02*
X033802Y005611D01*
X033802Y005730D02*
X034022Y005730D01*
X034022Y005848D02*
X033770Y005848D01*
X033721Y005967D02*
X034022Y005967D01*
X034022Y006085D02*
X033605Y006085D01*
X033574Y006204D02*
X034022Y006204D01*
X034022Y006322D02*
X033692Y006322D01*
X033757Y006441D02*
X034022Y006441D01*
X034022Y006559D02*
X033802Y006559D01*
X033802Y006678D02*
X034022Y006678D01*
X034022Y006796D02*
X033791Y006796D01*
X033742Y006915D02*
X034022Y006915D01*
X034022Y007033D02*
X033657Y007033D01*
X033503Y007152D02*
X034022Y007152D01*
X034022Y007270D02*
X031468Y007270D01*
X031586Y007152D02*
X033002Y007152D01*
X032848Y007033D02*
X031705Y007033D01*
X031823Y006915D02*
X032762Y006915D01*
X034022Y007389D02*
X031349Y007389D01*
X031231Y007507D02*
X034022Y007507D01*
X034022Y007626D02*
X031112Y007626D01*
X031114Y007744D02*
X031423Y007744D01*
X031313Y007863D02*
X031224Y007863D01*
X031732Y007863D02*
X031772Y007863D01*
X031772Y007981D02*
X031732Y007981D01*
X031732Y008100D02*
X031772Y008100D01*
X031772Y008180D02*
X032282Y008180D01*
X032282Y008202D01*
X032269Y008284D01*
X032244Y008363D01*
X032206Y008438D01*
X032157Y008505D01*
X032098Y008564D01*
X032030Y008613D01*
X031956Y008651D01*
X031876Y008677D01*
X031794Y008690D01*
X031772Y008690D01*
X031772Y008180D01*
X031772Y008218D02*
X031732Y008218D01*
X031732Y008337D02*
X031772Y008337D01*
X031772Y008455D02*
X031732Y008455D01*
X031732Y008574D02*
X031772Y008574D01*
X032085Y008574D02*
X034022Y008574D01*
X034022Y008692D02*
X030905Y008692D01*
X031117Y008574D02*
X031420Y008574D01*
X031312Y008455D02*
X031225Y008455D01*
X032193Y008455D02*
X034022Y008455D01*
X034022Y008337D02*
X032252Y008337D01*
X032280Y008218D02*
X034022Y008218D01*
X034022Y008100D02*
X032279Y008100D01*
X032251Y007981D02*
X034022Y007981D01*
X034022Y007863D02*
X032191Y007863D01*
X032081Y007744D02*
X034022Y007744D01*
X034482Y007744D02*
X035032Y007744D01*
X035032Y007626D02*
X034482Y007626D01*
X034482Y007507D02*
X035032Y007507D01*
X035032Y007389D02*
X034482Y007389D01*
X034482Y007270D02*
X035032Y007270D01*
X035032Y007152D02*
X034482Y007152D01*
X034482Y007033D02*
X035032Y007033D01*
X035032Y006915D02*
X034482Y006915D01*
X034482Y006796D02*
X035032Y006796D01*
X035032Y006678D02*
X034482Y006678D01*
X034482Y006559D02*
X035032Y006559D01*
X035032Y006441D02*
X034482Y006441D01*
X034482Y006322D02*
X035032Y006322D01*
X035032Y006204D02*
X034482Y006204D01*
X034482Y006085D02*
X035032Y006085D01*
X035032Y005967D02*
X034482Y005967D01*
X034482Y005848D02*
X035032Y005848D01*
X035032Y005730D02*
X034482Y005730D01*
X034482Y005611D02*
X035032Y005611D01*
X035032Y005493D02*
X034482Y005493D01*
X034482Y005374D02*
X035032Y005374D01*
X035032Y005256D02*
X034482Y005256D01*
X034482Y005137D02*
X035032Y005137D01*
X035032Y005019D02*
X034482Y005019D01*
X034482Y004900D02*
X035032Y004900D01*
X035032Y004782D02*
X034482Y004782D01*
X034482Y004663D02*
X035032Y004663D01*
X035032Y004545D02*
X034482Y004545D01*
X034482Y004426D02*
X035032Y004426D01*
X035032Y004308D02*
X034482Y004308D01*
X034482Y004189D02*
X035032Y004189D01*
X035032Y004071D02*
X034482Y004071D01*
X034482Y003952D02*
X035032Y003952D01*
X035032Y003834D02*
X034482Y003834D01*
X034482Y003715D02*
X035032Y003715D01*
X035032Y003597D02*
X034482Y003597D01*
X034482Y003478D02*
X035032Y003478D01*
X035032Y003360D02*
X034482Y003360D01*
X034482Y003241D02*
X035032Y003241D01*
X035032Y003123D02*
X034482Y003123D01*
X034482Y003004D02*
X035032Y003004D01*
X035032Y002886D02*
X034482Y002886D01*
X034482Y002767D02*
X035032Y002767D01*
X035032Y002649D02*
X034482Y002649D01*
X034482Y002530D02*
X035032Y002530D01*
X035032Y002412D02*
X034482Y002412D01*
X034482Y002293D02*
X035032Y002293D01*
X035032Y002175D02*
X034483Y002175D01*
X034474Y002056D02*
X035032Y002056D01*
X035032Y001938D02*
X034378Y001938D01*
X034295Y001819D02*
X035032Y001819D01*
X035032Y001701D02*
X034212Y001701D01*
X034130Y001582D02*
X035032Y001582D01*
X035032Y001464D02*
X034047Y001464D01*
X033965Y001345D02*
X035032Y001345D01*
X035008Y001227D02*
X033882Y001227D01*
X033800Y001108D02*
X034889Y001108D01*
X034771Y000990D02*
X033717Y000990D01*
X033634Y000871D02*
X034652Y000871D01*
X034534Y000753D02*
X033552Y000753D01*
X033469Y000634D02*
X034415Y000634D01*
X034297Y000516D02*
X033387Y000516D01*
X033315Y000397D02*
X034178Y000397D01*
X033156Y000990D02*
X028277Y000990D01*
X028302Y001108D02*
X033239Y001108D01*
X033321Y001227D02*
X028302Y001227D01*
X028271Y001345D02*
X033404Y001345D01*
X033487Y001464D02*
X028222Y001464D01*
X028108Y001582D02*
X033569Y001582D01*
X033652Y001701D02*
X027885Y001701D01*
X027620Y001701D02*
X026982Y001701D01*
X026982Y001819D02*
X033734Y001819D01*
X033817Y001938D02*
X032855Y001938D01*
X032974Y002056D02*
X033900Y002056D01*
X033982Y002175D02*
X033517Y002175D01*
X033663Y002293D02*
X034022Y002293D01*
X034022Y002412D02*
X033745Y002412D01*
X033794Y002530D02*
X034022Y002530D01*
X034022Y002649D02*
X033802Y002649D01*
X033802Y002767D02*
X034022Y002767D01*
X034022Y002886D02*
X033754Y002886D01*
X033686Y003004D02*
X034022Y003004D01*
X034022Y003123D02*
X033568Y003123D01*
X032937Y003123D02*
X025982Y003123D01*
X025982Y003241D02*
X034022Y003241D01*
X034022Y003360D02*
X025982Y003360D01*
X025982Y003478D02*
X034022Y003478D01*
X032819Y003004D02*
X025982Y003004D01*
X025982Y002886D02*
X032750Y002886D01*
X032702Y002767D02*
X025982Y002767D01*
X025982Y002649D02*
X032702Y002649D01*
X032711Y002530D02*
X025982Y002530D01*
X025982Y002412D02*
X032679Y002412D01*
X033074Y000871D02*
X028228Y000871D01*
X028123Y000753D02*
X032991Y000753D01*
X027397Y001582D02*
X027108Y001582D01*
X027222Y001464D02*
X027283Y001464D01*
X026522Y001701D02*
X025982Y001701D01*
X025982Y001819D02*
X026522Y001819D01*
X026522Y001938D02*
X025982Y001938D01*
X025982Y002056D02*
X026522Y002056D01*
X026522Y002175D02*
X025982Y002175D01*
X025982Y002293D02*
X026560Y002293D01*
X026397Y001582D02*
X026108Y001582D01*
X026222Y001464D02*
X026283Y001464D01*
X022522Y001660D02*
X022441Y001626D01*
X022286Y001472D01*
X022202Y001269D01*
X022202Y001051D01*
X022286Y000848D01*
X022395Y000740D01*
X021110Y000740D01*
X021219Y000848D01*
X021302Y001051D01*
X021302Y001269D01*
X021219Y001472D01*
X021064Y001626D01*
X020862Y001710D01*
X020643Y001710D01*
X020441Y001626D01*
X020286Y001472D01*
X020242Y001366D01*
X020206Y001438D01*
X020157Y001505D01*
X020098Y001564D01*
X020030Y001613D01*
X019956Y001651D01*
X019876Y001677D01*
X019794Y001690D01*
X019792Y001690D01*
X019792Y001200D01*
X019712Y001200D01*
X019712Y001120D01*
X019222Y001120D01*
X018792Y001120D01*
X018792Y001200D01*
X018712Y001200D01*
X018712Y001690D01*
X018711Y001690D01*
X018628Y001677D01*
X018549Y001651D01*
X018475Y001613D01*
X018407Y001564D01*
X018348Y001505D01*
X018299Y001438D01*
X018262Y001366D01*
X018219Y001472D01*
X018064Y001626D01*
X017862Y001710D01*
X017643Y001710D01*
X017441Y001626D01*
X017286Y001472D01*
X017252Y001390D01*
X017219Y001472D01*
X017064Y001626D01*
X016862Y001710D01*
X016643Y001710D01*
X016441Y001626D01*
X016286Y001472D01*
X016252Y001390D01*
X016219Y001472D01*
X016064Y001626D01*
X015862Y001710D01*
X015643Y001710D01*
X015441Y001626D01*
X015286Y001472D01*
X015280Y001457D01*
X014982Y001755D01*
X014982Y002209D01*
X015038Y002232D01*
X015180Y002374D01*
X015257Y002560D01*
X015257Y002760D01*
X015187Y002930D01*
X022157Y002930D01*
X022522Y002565D01*
X022522Y001660D01*
X022522Y001701D02*
X020885Y001701D01*
X021108Y001582D02*
X022397Y001582D01*
X022283Y001464D02*
X021222Y001464D01*
X021271Y001345D02*
X022234Y001345D01*
X022202Y001227D02*
X021302Y001227D01*
X021302Y001108D02*
X022202Y001108D01*
X022228Y000990D02*
X021277Y000990D01*
X021228Y000871D02*
X022277Y000871D01*
X022382Y000753D02*
X021123Y000753D01*
X020283Y001464D02*
X020187Y001464D01*
X020073Y001582D02*
X020397Y001582D01*
X020620Y001701D02*
X017885Y001701D01*
X018108Y001582D02*
X018432Y001582D01*
X018318Y001464D02*
X018222Y001464D01*
X018712Y001464D02*
X018792Y001464D01*
X018792Y001582D02*
X018712Y001582D01*
X018792Y001690D02*
X018792Y001200D01*
X019712Y001200D01*
X019712Y001690D01*
X019711Y001690D01*
X019628Y001677D01*
X019549Y001651D01*
X019475Y001613D01*
X019407Y001564D01*
X019348Y001505D01*
X019299Y001438D01*
X019261Y001363D01*
X019252Y001336D01*
X019244Y001363D01*
X019206Y001438D01*
X019157Y001505D01*
X019098Y001564D01*
X019030Y001613D01*
X018956Y001651D01*
X018876Y001677D01*
X018794Y001690D01*
X018792Y001690D01*
X019073Y001582D02*
X019432Y001582D01*
X019318Y001464D02*
X019187Y001464D01*
X019250Y001345D02*
X019255Y001345D01*
X018792Y001345D02*
X018712Y001345D01*
X018712Y001227D02*
X018792Y001227D01*
X019712Y001227D02*
X019792Y001227D01*
X019792Y001345D02*
X019712Y001345D01*
X019712Y001464D02*
X019792Y001464D01*
X019792Y001582D02*
X019712Y001582D01*
X017620Y001701D02*
X016885Y001701D01*
X017108Y001582D02*
X017397Y001582D01*
X017283Y001464D02*
X017222Y001464D01*
X016620Y001701D02*
X015885Y001701D01*
X016108Y001582D02*
X016397Y001582D01*
X016283Y001464D02*
X016222Y001464D01*
X015620Y001701D02*
X015037Y001701D01*
X014982Y001819D02*
X022522Y001819D01*
X022522Y001938D02*
X014982Y001938D01*
X014982Y002056D02*
X022522Y002056D01*
X022522Y002175D02*
X014982Y002175D01*
X015100Y002293D02*
X022522Y002293D01*
X022522Y002412D02*
X015196Y002412D01*
X015245Y002530D02*
X022522Y002530D01*
X022439Y002649D02*
X015257Y002649D01*
X015255Y002767D02*
X022320Y002767D01*
X022202Y002886D02*
X015206Y002886D01*
X015156Y001582D02*
X015397Y001582D01*
X015283Y001464D02*
X015274Y001464D01*
X013135Y003952D02*
X011021Y003952D01*
X011161Y004071D02*
X013017Y004071D01*
X012898Y004189D02*
X011235Y004189D01*
X011273Y004308D02*
X012780Y004308D01*
X010791Y004308D02*
X010714Y004308D01*
X010714Y004189D02*
X010791Y004189D01*
X010791Y004071D02*
X010714Y004071D01*
X010714Y003952D02*
X010791Y003952D01*
X010239Y004545D02*
X010136Y004545D01*
X010221Y004663D02*
X010286Y004663D01*
X010268Y004782D02*
X010374Y004782D01*
X010546Y004900D02*
X009791Y004900D01*
X010272Y005019D02*
X010366Y005019D01*
X010270Y005137D02*
X010232Y005137D01*
X010221Y005256D02*
X010156Y005256D01*
X010202Y005374D02*
X010009Y005374D01*
X010113Y005493D02*
X010202Y005493D01*
X010224Y005611D02*
X010240Y005611D01*
X010273Y005730D02*
X010294Y005730D01*
X010302Y005848D02*
X010413Y005848D01*
X009496Y005374D02*
X006472Y005374D01*
X006472Y005256D02*
X009348Y005256D01*
X009273Y005137D02*
X006472Y005137D01*
X006472Y005019D02*
X009233Y005019D01*
X009392Y005493D02*
X006472Y005493D01*
X006472Y005611D02*
X009281Y005611D01*
X009232Y005730D02*
X006472Y005730D01*
X006472Y005848D02*
X009202Y005848D01*
X009202Y005967D02*
X006472Y005967D01*
X006472Y006085D02*
X009230Y006085D01*
X009279Y006204D02*
X006472Y006204D01*
X006472Y006322D02*
X009387Y006322D01*
X007030Y007626D02*
X006472Y007626D01*
X006472Y007744D02*
X006773Y007744D01*
X006654Y007863D02*
X006472Y007863D01*
X006472Y007981D02*
X006553Y007981D01*
X006504Y008100D02*
X006472Y008100D01*
X006472Y008692D02*
X006493Y008692D01*
X006472Y008811D02*
X006542Y008811D01*
X006472Y008929D02*
X006626Y008929D01*
X006744Y009048D02*
X006472Y009048D01*
X006472Y009166D02*
X006961Y009166D01*
X007544Y009166D02*
X012992Y009166D01*
X012992Y009048D02*
X007760Y009048D01*
X007879Y008929D02*
X012992Y008929D01*
X012992Y008811D02*
X007963Y008811D01*
X008012Y008692D02*
X012992Y008692D01*
X012992Y008574D02*
X008061Y008574D01*
X006472Y009285D02*
X012992Y009285D01*
X012992Y009403D02*
X006472Y009403D01*
X006472Y009522D02*
X012992Y009522D01*
X012992Y009640D02*
X006472Y009640D01*
X006472Y009759D02*
X012992Y009759D01*
X012992Y009877D02*
X006472Y009877D01*
X006472Y009996D02*
X012992Y009996D01*
X012992Y010114D02*
X006472Y010114D01*
X006472Y010233D02*
X012992Y010233D01*
X012992Y010351D02*
X006472Y010351D01*
X006472Y010470D02*
X012992Y010470D01*
X012992Y010588D02*
X006472Y010588D01*
X006472Y010707D02*
X012992Y010707D01*
X012992Y010825D02*
X006472Y010825D01*
X006472Y010944D02*
X012992Y010944D01*
X012992Y011062D02*
X006472Y011062D01*
X006472Y011181D02*
X012992Y011181D01*
X012992Y011299D02*
X006472Y011299D01*
X006472Y011418D02*
X012992Y011418D01*
X012992Y011536D02*
X006472Y011536D01*
X006472Y011655D02*
X012992Y011655D01*
X013018Y011773D02*
X006472Y011773D01*
X006472Y011892D02*
X013116Y011892D01*
X013219Y012010D02*
X006472Y012010D01*
X006472Y012129D02*
X007023Y012129D01*
X006770Y012247D02*
X006472Y012247D01*
X006472Y012366D02*
X006651Y012366D01*
X006552Y012484D02*
X006472Y012484D01*
X006472Y012603D02*
X006503Y012603D01*
X006472Y013195D02*
X006494Y013195D01*
X006472Y013314D02*
X006543Y013314D01*
X006472Y013432D02*
X006629Y013432D01*
X006747Y013551D02*
X006472Y013551D01*
X006472Y013669D02*
X006968Y013669D01*
X007536Y013669D02*
X009280Y013669D01*
X009235Y013788D02*
X006472Y013788D01*
X006472Y013906D02*
X009714Y013906D01*
X009791Y013906D02*
X010532Y013906D01*
X010380Y013788D02*
X010270Y013788D01*
X010269Y013786D02*
X010282Y013868D01*
X010282Y013872D01*
X009791Y013872D01*
X009791Y013380D01*
X009794Y013380D01*
X009876Y013393D01*
X009956Y013419D01*
X010030Y013457D01*
X010098Y013506D01*
X010157Y013565D01*
X010206Y013632D01*
X010244Y013707D01*
X010269Y013786D01*
X010290Y013669D02*
X010224Y013669D01*
X010241Y013551D02*
X010142Y013551D01*
X009982Y013432D02*
X010714Y013432D01*
X010791Y013432D02*
X013296Y013432D01*
X013245Y013314D02*
X011274Y013314D01*
X011269Y013286D02*
X011282Y013368D01*
X011282Y013372D01*
X010791Y013372D01*
X010791Y012880D01*
X010794Y012880D01*
X010876Y012893D01*
X010956Y012919D01*
X011030Y012957D01*
X011098Y013006D01*
X011157Y013065D01*
X011206Y013132D01*
X011244Y013207D01*
X011269Y013286D01*
X011238Y013195D02*
X013222Y013195D01*
X013229Y013077D02*
X011165Y013077D01*
X011032Y012958D02*
X013261Y012958D01*
X013330Y012840D02*
X008062Y012840D01*
X008062Y012958D02*
X010473Y012958D01*
X010340Y013077D02*
X008060Y013077D01*
X008011Y013195D02*
X010267Y013195D01*
X010231Y013314D02*
X007962Y013314D01*
X007876Y013432D02*
X009523Y013432D01*
X009714Y013432D02*
X009791Y013432D01*
X009791Y013551D02*
X009714Y013551D01*
X009714Y013669D02*
X009791Y013669D01*
X009791Y013788D02*
X009714Y013788D01*
X009362Y013551D02*
X007757Y013551D01*
X006472Y014025D02*
X009234Y014025D01*
X009276Y014143D02*
X006472Y014143D01*
X006472Y014262D02*
X009354Y014262D01*
X009507Y014380D02*
X006472Y014380D01*
X006472Y014499D02*
X009386Y014499D01*
X009278Y014617D02*
X006472Y014617D01*
X006472Y014736D02*
X009229Y014736D01*
X009202Y014854D02*
X006472Y014854D01*
X006472Y014973D02*
X009202Y014973D01*
X009232Y015091D02*
X006472Y015091D01*
X006472Y015210D02*
X009281Y015210D01*
X009393Y015328D02*
X006472Y015328D01*
X006472Y015447D02*
X009438Y015447D01*
X009320Y015565D02*
X006472Y015565D01*
X006472Y015684D02*
X009251Y015684D01*
X009202Y015802D02*
X006472Y015802D01*
X006472Y015921D02*
X009202Y015921D01*
X009210Y016039D02*
X006472Y016039D01*
X006472Y016158D02*
X009260Y016158D01*
X009341Y016276D02*
X006472Y016276D01*
X006472Y016395D02*
X009273Y016395D01*
X009202Y016513D02*
X006472Y016513D01*
X006472Y016632D02*
X007015Y016632D01*
X006767Y016750D02*
X006472Y016750D01*
X006472Y016869D02*
X006648Y016869D01*
X006551Y016987D02*
X006472Y016987D01*
X006472Y017106D02*
X006502Y017106D01*
X006472Y017698D02*
X006495Y017698D01*
X006472Y017817D02*
X006544Y017817D01*
X006472Y017935D02*
X006632Y017935D01*
X006750Y018054D02*
X006472Y018054D01*
X006472Y018172D02*
X006976Y018172D01*
X007529Y018172D02*
X011372Y018172D01*
X011385Y018054D02*
X007754Y018054D01*
X007873Y017935D02*
X011440Y017935D01*
X011589Y017817D02*
X007961Y017817D01*
X008010Y017698D02*
X012965Y017698D01*
X012847Y017580D02*
X008059Y017580D01*
X008062Y017461D02*
X012728Y017461D01*
X012610Y017343D02*
X010302Y017343D01*
X010302Y017224D02*
X012491Y017224D01*
X012373Y017106D02*
X010302Y017106D01*
X010302Y016987D02*
X012254Y016987D01*
X012136Y016869D02*
X011072Y016869D01*
X011190Y016750D02*
X012017Y016750D01*
X012431Y016513D02*
X027022Y016513D01*
X027022Y016395D02*
X012312Y016395D01*
X012194Y016276D02*
X027022Y016276D01*
X027022Y016158D02*
X011243Y016158D01*
X011159Y016039D02*
X027022Y016039D01*
X027022Y015921D02*
X011008Y015921D01*
X011138Y015802D02*
X027022Y015802D01*
X027022Y015684D02*
X011234Y015684D01*
X011302Y015328D02*
X027259Y015328D01*
X027378Y015210D02*
X011265Y015210D01*
X011211Y015091D02*
X027496Y015091D01*
X027615Y014973D02*
X011093Y014973D01*
X011086Y014854D02*
X027733Y014854D01*
X027852Y014736D02*
X011205Y014736D01*
X011262Y014617D02*
X013932Y014617D01*
X013941Y014626D02*
X013786Y014472D01*
X013702Y014269D01*
X013702Y014051D01*
X013786Y013848D01*
X013941Y013694D01*
X014143Y013610D01*
X014362Y013610D01*
X014564Y013694D01*
X014719Y013848D01*
X014802Y014051D01*
X014802Y014269D01*
X014719Y014472D01*
X014564Y014626D01*
X014362Y014710D01*
X014143Y014710D01*
X013941Y014626D01*
X013813Y014499D02*
X011302Y014499D01*
X011302Y014380D02*
X013748Y014380D01*
X013702Y014262D02*
X011286Y014262D01*
X011237Y014143D02*
X013702Y014143D01*
X013713Y014025D02*
X011145Y014025D01*
X010973Y013906D02*
X013762Y013906D01*
X013847Y013788D02*
X011124Y013788D01*
X011215Y013669D02*
X013604Y013669D01*
X013732Y013669D02*
X013772Y013669D01*
X013772Y013551D02*
X013732Y013551D01*
X013732Y013432D02*
X013772Y013432D01*
X013772Y013314D02*
X013732Y013314D01*
X013732Y013195D02*
X013772Y013195D01*
X014260Y013314D02*
X015245Y013314D01*
X015222Y013195D02*
X014648Y013195D01*
X014864Y013077D02*
X015229Y013077D01*
X015261Y012958D02*
X014974Y012958D01*
X015023Y012840D02*
X015330Y012840D01*
X015455Y012721D02*
X015052Y012721D01*
X015052Y012603D02*
X015417Y012603D01*
X015299Y012484D02*
X015025Y012484D01*
X014976Y012366D02*
X015242Y012366D01*
X015202Y012247D02*
X014867Y012247D01*
X014656Y012129D02*
X015202Y012129D01*
X015219Y012010D02*
X014286Y012010D01*
X014302Y012129D02*
X014348Y012129D01*
X014236Y011892D02*
X015116Y011892D01*
X015018Y011773D02*
X014143Y011773D01*
X014143Y011710D02*
X013941Y011626D01*
X013786Y011472D01*
X013702Y011269D01*
X013702Y011051D01*
X013786Y010848D01*
X013941Y010694D01*
X014143Y010610D01*
X014362Y010610D01*
X014564Y010694D01*
X014719Y010848D01*
X014802Y011051D01*
X014802Y011269D01*
X014719Y011472D01*
X014564Y011626D01*
X014362Y011710D01*
X014143Y011710D01*
X014009Y011655D02*
X013969Y011655D01*
X013851Y011536D02*
X013512Y011536D01*
X013512Y011418D02*
X013764Y011418D01*
X013715Y011299D02*
X013512Y011299D01*
X013512Y011181D02*
X013702Y011181D01*
X013702Y011062D02*
X013512Y011062D01*
X013512Y010944D02*
X013747Y010944D01*
X013810Y010825D02*
X013512Y010825D01*
X013512Y010707D02*
X013928Y010707D01*
X014577Y010707D02*
X014992Y010707D01*
X014992Y010825D02*
X014695Y010825D01*
X014758Y010944D02*
X014992Y010944D01*
X014992Y011062D02*
X014802Y011062D01*
X014802Y011181D02*
X014992Y011181D01*
X014992Y011299D02*
X014790Y011299D01*
X014741Y011418D02*
X014992Y011418D01*
X014992Y011536D02*
X014654Y011536D01*
X014496Y011655D02*
X014992Y011655D01*
X015512Y011536D02*
X015851Y011536D01*
X015786Y011472D02*
X015941Y011626D01*
X016143Y011710D01*
X016362Y011710D01*
X016564Y011626D01*
X016719Y011472D01*
X016802Y011269D01*
X016802Y011051D01*
X016719Y010848D01*
X016564Y010694D01*
X016362Y010610D01*
X016143Y010610D01*
X015941Y010694D01*
X015786Y010848D01*
X015702Y011051D01*
X015702Y011269D01*
X015786Y011472D01*
X015764Y011418D02*
X015512Y011418D01*
X015512Y011299D02*
X015715Y011299D01*
X015702Y011181D02*
X015512Y011181D01*
X015512Y011062D02*
X015702Y011062D01*
X015747Y010944D02*
X015512Y010944D01*
X015512Y010825D02*
X015810Y010825D01*
X015928Y010707D02*
X015512Y010707D01*
X015512Y010588D02*
X016992Y010588D01*
X016992Y010470D02*
X015512Y010470D01*
X015512Y010351D02*
X016992Y010351D01*
X016992Y010233D02*
X015512Y010233D01*
X015512Y010114D02*
X016992Y010114D01*
X016992Y009996D02*
X015512Y009996D01*
X015512Y009877D02*
X016992Y009877D01*
X016992Y009759D02*
X015512Y009759D01*
X015512Y009640D02*
X016992Y009640D01*
X016992Y009522D02*
X015512Y009522D01*
X015512Y009403D02*
X016992Y009403D01*
X016992Y009285D02*
X015512Y009285D01*
X015512Y009166D02*
X016992Y009166D01*
X016992Y009048D02*
X015512Y009048D01*
X015512Y008929D02*
X016992Y008929D01*
X016992Y008811D02*
X015512Y008811D01*
X015512Y008692D02*
X016100Y008692D01*
X016143Y008710D02*
X015941Y008626D01*
X015786Y008472D01*
X015702Y008269D01*
X015702Y008051D01*
X015786Y007848D01*
X015941Y007694D01*
X016143Y007610D01*
X016362Y007610D01*
X016564Y007694D01*
X016719Y007848D01*
X016802Y008051D01*
X016802Y008269D01*
X016719Y008472D01*
X016564Y008626D01*
X016362Y008710D01*
X016143Y008710D01*
X016405Y008692D02*
X016992Y008692D01*
X016992Y008574D02*
X016617Y008574D01*
X016725Y008455D02*
X016992Y008455D01*
X016992Y008337D02*
X016775Y008337D01*
X016802Y008218D02*
X016992Y008218D01*
X016992Y008100D02*
X016802Y008100D01*
X016774Y007981D02*
X016992Y007981D01*
X016992Y007863D02*
X016724Y007863D01*
X016614Y007744D02*
X016992Y007744D01*
X016992Y007626D02*
X016399Y007626D01*
X016106Y007626D02*
X015512Y007626D01*
X015512Y007744D02*
X015891Y007744D01*
X015780Y007863D02*
X015512Y007863D01*
X015512Y007981D02*
X015731Y007981D01*
X015702Y008100D02*
X015512Y008100D01*
X015512Y008218D02*
X015702Y008218D01*
X015730Y008337D02*
X015512Y008337D01*
X015512Y008455D02*
X015779Y008455D01*
X015888Y008574D02*
X015512Y008574D01*
X014992Y008574D02*
X014617Y008574D01*
X014564Y008626D02*
X014362Y008710D01*
X014143Y008710D01*
X013941Y008626D01*
X013786Y008472D01*
X013702Y008269D01*
X013702Y008051D01*
X013786Y007848D01*
X013941Y007694D01*
X014143Y007610D01*
X014362Y007610D01*
X014564Y007694D01*
X014719Y007848D01*
X014802Y008051D01*
X014802Y008269D01*
X014719Y008472D01*
X014564Y008626D01*
X014405Y008692D02*
X014992Y008692D01*
X014992Y008811D02*
X013512Y008811D01*
X013512Y008929D02*
X014992Y008929D01*
X014992Y009048D02*
X013512Y009048D01*
X013512Y009166D02*
X014992Y009166D01*
X014992Y009285D02*
X013512Y009285D01*
X013512Y009403D02*
X014992Y009403D01*
X014992Y009522D02*
X013512Y009522D01*
X013512Y009640D02*
X014992Y009640D01*
X014992Y009759D02*
X013512Y009759D01*
X013512Y009877D02*
X014992Y009877D01*
X014992Y009996D02*
X013512Y009996D01*
X013512Y010114D02*
X014992Y010114D01*
X014992Y010233D02*
X013512Y010233D01*
X013512Y010351D02*
X014992Y010351D01*
X014992Y010470D02*
X013512Y010470D01*
X013512Y010588D02*
X014992Y010588D01*
X016577Y010707D02*
X016992Y010707D01*
X016992Y010825D02*
X016695Y010825D01*
X016758Y010944D02*
X016992Y010944D01*
X016992Y011062D02*
X016802Y011062D01*
X016802Y011181D02*
X016992Y011181D01*
X016992Y011299D02*
X016790Y011299D01*
X016741Y011418D02*
X016992Y011418D01*
X016992Y011536D02*
X016654Y011536D01*
X016496Y011655D02*
X016992Y011655D01*
X017018Y011773D02*
X016143Y011773D01*
X016236Y011892D02*
X017116Y011892D01*
X017219Y012010D02*
X016286Y012010D01*
X016302Y012129D02*
X016348Y012129D01*
X016656Y012129D02*
X017202Y012129D01*
X017202Y012247D02*
X016867Y012247D01*
X016976Y012366D02*
X017242Y012366D01*
X017299Y012484D02*
X017025Y012484D01*
X017052Y012603D02*
X017417Y012603D01*
X017455Y012721D02*
X017052Y012721D01*
X017023Y012840D02*
X017330Y012840D01*
X017261Y012958D02*
X016974Y012958D01*
X016864Y013077D02*
X017229Y013077D01*
X017222Y013195D02*
X016648Y013195D01*
X016357Y013195D02*
X016282Y013195D01*
X016260Y013314D02*
X017245Y013314D01*
X017296Y013432D02*
X016209Y013432D01*
X016111Y013551D02*
X017393Y013551D01*
X017604Y013669D02*
X016504Y013669D01*
X016564Y013694D02*
X016719Y013848D01*
X016802Y014051D01*
X016802Y014269D01*
X016719Y014472D01*
X016564Y014626D01*
X016362Y014710D01*
X016143Y014710D01*
X015941Y014626D01*
X015786Y014472D01*
X015702Y014269D01*
X015702Y014051D01*
X015786Y013848D01*
X015941Y013694D01*
X016143Y013610D01*
X016362Y013610D01*
X016564Y013694D01*
X016658Y013788D02*
X017847Y013788D01*
X017786Y013848D02*
X017941Y013694D01*
X018143Y013610D01*
X018362Y013610D01*
X018564Y013694D01*
X018719Y013848D01*
X018802Y014051D01*
X018802Y014269D01*
X018719Y014472D01*
X018564Y014626D01*
X018362Y014710D01*
X018143Y014710D01*
X017941Y014626D01*
X017786Y014472D01*
X017702Y014269D01*
X017702Y014051D01*
X017786Y013848D01*
X017762Y013906D02*
X016742Y013906D01*
X016792Y014025D02*
X017713Y014025D01*
X017702Y014143D02*
X016802Y014143D01*
X016802Y014262D02*
X017702Y014262D01*
X017748Y014380D02*
X016757Y014380D01*
X016692Y014499D02*
X017813Y014499D01*
X017932Y014617D02*
X016573Y014617D01*
X015932Y014617D02*
X014573Y014617D01*
X014692Y014499D02*
X015813Y014499D01*
X015748Y014380D02*
X014757Y014380D01*
X014802Y014262D02*
X015702Y014262D01*
X015702Y014143D02*
X014802Y014143D01*
X014792Y014025D02*
X015713Y014025D01*
X015762Y013906D02*
X014742Y013906D01*
X014658Y013788D02*
X015847Y013788D01*
X015901Y013669D02*
X016000Y013669D01*
X015772Y013669D02*
X015732Y013669D01*
X015732Y013551D02*
X015772Y013551D01*
X015772Y013432D02*
X015732Y013432D01*
X015732Y013314D02*
X015772Y013314D01*
X015772Y013195D02*
X015732Y013195D01*
X015393Y013551D02*
X014111Y013551D01*
X014209Y013432D02*
X015296Y013432D01*
X015604Y013669D02*
X014504Y013669D01*
X014000Y013669D02*
X013901Y013669D01*
X013393Y013551D02*
X011264Y013551D01*
X010791Y013314D02*
X010714Y013314D01*
X010714Y013195D02*
X010791Y013195D01*
X010791Y013077D02*
X010714Y013077D01*
X010714Y012958D02*
X010791Y012958D01*
X010360Y014025D02*
X010271Y014025D01*
X010268Y014143D02*
X010228Y014143D01*
X010219Y014262D02*
X010150Y014262D01*
X010202Y014380D02*
X009997Y014380D01*
X010119Y014499D02*
X010202Y014499D01*
X010226Y014617D02*
X010243Y014617D01*
X010275Y014736D02*
X010300Y014736D01*
X010302Y014854D02*
X010419Y014854D01*
X010412Y014973D02*
X010302Y014973D01*
X010294Y015091D02*
X010273Y015091D01*
X010240Y015210D02*
X010224Y015210D01*
X010202Y015328D02*
X010112Y015328D01*
X010067Y015447D02*
X010202Y015447D01*
X010185Y015565D02*
X010221Y015565D01*
X010254Y015684D02*
X010270Y015684D01*
X010302Y015802D02*
X010367Y015802D01*
X010302Y015921D02*
X010497Y015921D01*
X010346Y016039D02*
X010294Y016039D01*
X010262Y016158D02*
X010245Y016158D01*
X010213Y016276D02*
X010164Y016276D01*
X010302Y016750D02*
X010315Y016750D01*
X010302Y016869D02*
X010433Y016869D01*
X009202Y016869D02*
X007856Y016869D01*
X007954Y016987D02*
X009202Y016987D01*
X009202Y017106D02*
X008003Y017106D01*
X008052Y017224D02*
X009202Y017224D01*
X009202Y017343D02*
X008062Y017343D01*
X007738Y016750D02*
X009202Y016750D01*
X009202Y016632D02*
X007489Y016632D01*
X006472Y018291D02*
X011395Y018291D01*
X011464Y018409D02*
X006472Y018409D01*
X006472Y018528D02*
X011647Y018528D01*
X011858Y018528D02*
X012795Y018528D01*
X012913Y018646D02*
X006472Y018646D01*
X006472Y018765D02*
X013032Y018765D01*
X013150Y018883D02*
X006472Y018883D01*
X006472Y019002D02*
X013269Y019002D01*
X013387Y019120D02*
X006472Y019120D01*
X006472Y019239D02*
X013506Y019239D01*
X013624Y019357D02*
X006472Y019357D01*
X006472Y019476D02*
X013743Y019476D01*
X013861Y019594D02*
X006472Y019594D01*
X006472Y019713D02*
X011922Y019713D01*
X011804Y019831D02*
X006472Y019831D01*
X006472Y019950D02*
X011744Y019950D01*
X011702Y020068D02*
X006472Y020068D01*
X006590Y020187D02*
X011702Y020187D01*
X011717Y020305D02*
X006709Y020305D01*
X006827Y020424D02*
X011766Y020424D01*
X011857Y020542D02*
X006946Y020542D01*
X007064Y020661D02*
X012024Y020661D01*
X012481Y020661D02*
X013078Y020661D01*
X013212Y020661D02*
X013292Y020661D01*
X013292Y020542D02*
X013212Y020542D01*
X013212Y020424D02*
X013292Y020424D01*
X013292Y020305D02*
X013212Y020305D01*
X013212Y020068D02*
X013292Y020068D01*
X013292Y019950D02*
X013212Y019950D01*
X013212Y019831D02*
X013292Y019831D01*
X013292Y019713D02*
X013212Y019713D01*
X012967Y019713D02*
X012583Y019713D01*
X012701Y019831D02*
X012836Y019831D01*
X012765Y019950D02*
X012761Y019950D01*
X012739Y020424D02*
X012792Y020424D01*
X012885Y020542D02*
X012648Y020542D01*
X013427Y020661D02*
X014024Y020661D01*
X013857Y020542D02*
X013620Y020542D01*
X013713Y020424D02*
X013766Y020424D01*
X013740Y019950D02*
X013744Y019950D01*
X013804Y019831D02*
X013668Y019831D01*
X013538Y019713D02*
X013922Y019713D01*
X014482Y019594D02*
X015861Y019594D01*
X015922Y019713D02*
X015583Y019713D01*
X015701Y019831D02*
X015804Y019831D01*
X015743Y019476D02*
X014393Y019476D01*
X014275Y019357D02*
X014624Y019357D01*
X014506Y019239D02*
X014156Y019239D01*
X014038Y019120D02*
X014387Y019120D01*
X014269Y019002D02*
X013919Y019002D01*
X013801Y018883D02*
X014150Y018883D01*
X014032Y018765D02*
X013682Y018765D01*
X013564Y018646D02*
X013913Y018646D01*
X013795Y018528D02*
X013445Y018528D01*
X013327Y018409D02*
X013676Y018409D01*
X013558Y018291D02*
X013208Y018291D01*
X013090Y018172D02*
X013439Y018172D01*
X013321Y018054D02*
X012971Y018054D01*
X012853Y017935D02*
X013202Y017935D01*
X013084Y017817D02*
X011916Y017817D01*
X012041Y018409D02*
X012676Y018409D01*
X013497Y017580D02*
X013894Y017580D01*
X013941Y017626D02*
X013786Y017472D01*
X013702Y017269D01*
X013702Y017051D01*
X013786Y016848D01*
X013941Y016694D01*
X014143Y016610D01*
X014362Y016610D01*
X014564Y016694D01*
X014719Y016848D01*
X014802Y017051D01*
X014802Y017269D01*
X014719Y017472D01*
X014564Y017626D01*
X014362Y017710D01*
X014143Y017710D01*
X013941Y017626D01*
X014114Y017698D02*
X013616Y017698D01*
X013734Y017817D02*
X027022Y017817D01*
X027022Y017935D02*
X013853Y017935D01*
X013971Y018054D02*
X027022Y018054D01*
X027022Y018172D02*
X014090Y018172D01*
X014208Y018291D02*
X027022Y018291D01*
X027022Y018409D02*
X014327Y018409D01*
X014445Y018528D02*
X027022Y018528D01*
X027022Y018646D02*
X014564Y018646D01*
X014682Y018765D02*
X027022Y018765D01*
X027022Y018883D02*
X014801Y018883D01*
X015919Y019002D02*
X027022Y019002D01*
X027022Y019120D02*
X016038Y019120D01*
X016156Y019239D02*
X027022Y019239D01*
X027022Y019357D02*
X016275Y019357D01*
X016393Y019476D02*
X027022Y019476D01*
X026993Y019594D02*
X016482Y019594D01*
X016583Y019713D02*
X016922Y019713D01*
X016804Y019831D02*
X016701Y019831D01*
X017583Y019713D02*
X017922Y019713D01*
X017804Y019831D02*
X017701Y019831D01*
X017739Y020424D02*
X017766Y020424D01*
X017857Y020542D02*
X017648Y020542D01*
X017481Y020661D02*
X018024Y020661D01*
X018481Y020661D02*
X019024Y020661D01*
X018857Y020542D02*
X018648Y020542D01*
X018739Y020424D02*
X018766Y020424D01*
X019481Y020661D02*
X020524Y020661D01*
X020357Y020542D02*
X019648Y020542D01*
X019739Y020424D02*
X020266Y020424D01*
X020217Y020305D02*
X019788Y020305D01*
X019802Y020187D02*
X020202Y020187D01*
X020202Y020068D02*
X019802Y020068D01*
X019761Y019950D02*
X020244Y019950D01*
X020304Y019831D02*
X019701Y019831D01*
X019583Y019713D02*
X020422Y019713D01*
X021083Y019713D02*
X021422Y019713D01*
X021304Y019831D02*
X021201Y019831D01*
X021239Y020424D02*
X021266Y020424D01*
X021357Y020542D02*
X021148Y020542D01*
X020981Y020661D02*
X021524Y020661D01*
X021981Y020661D02*
X022524Y020661D01*
X022357Y020542D02*
X022148Y020542D01*
X022239Y020424D02*
X022266Y020424D01*
X022981Y020661D02*
X023524Y020661D01*
X023357Y020542D02*
X023148Y020542D01*
X023239Y020424D02*
X023266Y020424D01*
X023981Y020661D02*
X024524Y020661D01*
X024357Y020542D02*
X024148Y020542D01*
X024239Y020424D02*
X024266Y020424D01*
X024981Y020661D02*
X025524Y020661D01*
X025357Y020542D02*
X025148Y020542D01*
X025239Y020424D02*
X025266Y020424D01*
X025981Y020661D02*
X026524Y020661D01*
X026357Y020542D02*
X026148Y020542D01*
X026239Y020424D02*
X026266Y020424D01*
X026981Y020661D02*
X027524Y020661D01*
X027357Y020542D02*
X027148Y020542D01*
X027239Y020424D02*
X027266Y020424D01*
X027981Y020661D02*
X034441Y020661D01*
X034322Y020779D02*
X007183Y020779D01*
X007301Y020898D02*
X034204Y020898D01*
X034559Y020542D02*
X028148Y020542D01*
X028239Y020424D02*
X034678Y020424D01*
X034796Y020305D02*
X028288Y020305D01*
X028302Y020187D02*
X034915Y020187D01*
X035032Y020068D02*
X028302Y020068D01*
X028261Y019950D02*
X035032Y019950D01*
X035032Y019831D02*
X028201Y019831D01*
X028083Y019713D02*
X035032Y019713D01*
X035032Y019594D02*
X027982Y019594D01*
X027982Y019476D02*
X035032Y019476D01*
X035032Y019357D02*
X027982Y019357D01*
X027982Y019239D02*
X035032Y019239D01*
X035032Y019120D02*
X027982Y019120D01*
X027982Y019002D02*
X035032Y019002D01*
X035032Y018883D02*
X027982Y018883D01*
X027982Y018765D02*
X035032Y018765D01*
X035032Y018646D02*
X027982Y018646D01*
X027982Y018528D02*
X035032Y018528D01*
X035032Y018409D02*
X027982Y018409D01*
X027982Y018291D02*
X035032Y018291D01*
X035032Y018172D02*
X034529Y018172D01*
X034754Y018054D02*
X035032Y018054D01*
X035032Y017935D02*
X034873Y017935D01*
X034961Y017817D02*
X035032Y017817D01*
X035032Y017698D02*
X035010Y017698D01*
X035003Y017106D02*
X035032Y017106D01*
X035032Y016987D02*
X034954Y016987D01*
X035032Y016869D02*
X034856Y016869D01*
X034738Y016750D02*
X035032Y016750D01*
X035032Y016632D02*
X034489Y016632D01*
X034015Y016632D02*
X032234Y016632D01*
X032273Y016513D02*
X035032Y016513D01*
X035032Y016395D02*
X031791Y016395D01*
X031714Y016395D02*
X031020Y016395D01*
X031105Y016513D02*
X031232Y016513D01*
X031205Y016632D02*
X031270Y016632D01*
X031258Y016750D02*
X031344Y016750D01*
X031282Y016869D02*
X031485Y016869D01*
X031714Y016869D02*
X031791Y016869D01*
X031791Y016750D02*
X031714Y016750D01*
X031714Y016632D02*
X031791Y016632D01*
X031791Y016513D02*
X031714Y016513D01*
X032020Y016869D02*
X033648Y016869D01*
X033551Y016987D02*
X031277Y016987D01*
X031246Y017106D02*
X033502Y017106D01*
X033453Y017224D02*
X031179Y017224D01*
X031059Y017343D02*
X033442Y017343D01*
X033442Y017461D02*
X028723Y017461D01*
X028772Y017343D02*
X030446Y017343D01*
X030325Y017224D02*
X028802Y017224D01*
X028802Y017106D02*
X030259Y017106D01*
X030228Y016987D02*
X028776Y016987D01*
X028727Y016869D02*
X030222Y016869D01*
X030247Y016750D02*
X028620Y016750D01*
X028414Y016632D02*
X030300Y016632D01*
X030400Y016513D02*
X027982Y016513D01*
X027982Y016395D02*
X030485Y016395D01*
X030341Y016276D02*
X027982Y016276D01*
X027982Y016158D02*
X030260Y016158D01*
X030210Y016039D02*
X027982Y016039D01*
X027982Y015921D02*
X030202Y015921D01*
X030202Y015802D02*
X027982Y015802D01*
X028054Y015684D02*
X030251Y015684D01*
X030320Y015565D02*
X028173Y015565D01*
X028291Y015447D02*
X030438Y015447D01*
X030393Y015328D02*
X029410Y015328D01*
X029528Y015210D02*
X030281Y015210D01*
X030232Y015091D02*
X029647Y015091D01*
X029765Y014973D02*
X030202Y014973D01*
X030202Y014854D02*
X029884Y014854D01*
X030002Y014736D02*
X030229Y014736D01*
X031226Y014617D02*
X031243Y014617D01*
X031275Y014736D02*
X031300Y014736D01*
X031302Y014854D02*
X031419Y014854D01*
X031412Y014973D02*
X031302Y014973D01*
X031294Y015091D02*
X031273Y015091D01*
X031240Y015210D02*
X031224Y015210D01*
X031202Y015328D02*
X031112Y015328D01*
X031067Y015447D02*
X031202Y015447D01*
X031185Y015565D02*
X031221Y015565D01*
X031254Y015684D02*
X031270Y015684D01*
X031302Y015802D02*
X031367Y015802D01*
X031302Y015921D02*
X031546Y015921D01*
X031374Y016039D02*
X031294Y016039D01*
X031286Y016158D02*
X031245Y016158D01*
X031239Y016276D02*
X031164Y016276D01*
X031959Y015921D02*
X035032Y015921D01*
X035032Y016039D02*
X032131Y016039D01*
X032219Y016158D02*
X035032Y016158D01*
X035032Y016276D02*
X032266Y016276D01*
X032160Y016750D02*
X033767Y016750D01*
X033446Y017580D02*
X028611Y017580D01*
X028391Y017698D02*
X033495Y017698D01*
X033544Y017817D02*
X027982Y017817D01*
X027982Y017935D02*
X033632Y017935D01*
X033750Y018054D02*
X027982Y018054D01*
X027982Y018172D02*
X033976Y018172D01*
X030791Y017343D02*
X030714Y017343D01*
X030714Y017224D02*
X030791Y017224D01*
X030791Y017106D02*
X030714Y017106D01*
X030714Y016987D02*
X030791Y016987D01*
X032138Y015802D02*
X035032Y015802D01*
X035032Y015684D02*
X032234Y015684D01*
X032283Y015565D02*
X035032Y015565D01*
X035032Y015447D02*
X032302Y015447D01*
X032302Y015328D02*
X035032Y015328D01*
X035032Y015210D02*
X032265Y015210D01*
X032211Y015091D02*
X035032Y015091D01*
X035032Y014973D02*
X032093Y014973D01*
X032086Y014854D02*
X035032Y014854D01*
X035032Y014736D02*
X032205Y014736D01*
X032262Y014617D02*
X035032Y014617D01*
X035032Y014499D02*
X032302Y014499D01*
X032358Y014380D02*
X035032Y014380D01*
X035032Y014262D02*
X032476Y014262D01*
X032595Y014143D02*
X035032Y014143D01*
X035032Y014025D02*
X032713Y014025D01*
X032832Y013906D02*
X035032Y013906D01*
X035032Y013788D02*
X032950Y013788D01*
X032982Y013669D02*
X033968Y013669D01*
X033747Y013551D02*
X032982Y013551D01*
X032982Y013432D02*
X033629Y013432D01*
X033543Y013314D02*
X032982Y013314D01*
X032982Y013195D02*
X033494Y013195D01*
X033445Y013077D02*
X032982Y013077D01*
X032982Y012958D02*
X033442Y012958D01*
X033442Y012840D02*
X032982Y012840D01*
X032982Y012721D02*
X033454Y012721D01*
X033503Y012603D02*
X032982Y012603D01*
X032982Y012484D02*
X033552Y012484D01*
X033651Y012366D02*
X032982Y012366D01*
X032982Y012247D02*
X033770Y012247D01*
X034023Y012129D02*
X032982Y012129D01*
X032982Y012010D02*
X035032Y012010D01*
X035032Y011892D02*
X032982Y011892D01*
X032982Y011773D02*
X035032Y011773D01*
X035032Y011655D02*
X033083Y011655D01*
X033202Y011536D02*
X035032Y011536D01*
X035032Y011418D02*
X033320Y011418D01*
X033439Y011299D02*
X035032Y011299D01*
X035032Y011181D02*
X033557Y011181D01*
X033676Y011062D02*
X035032Y011062D01*
X035032Y010944D02*
X033794Y010944D01*
X033913Y010825D02*
X035032Y010825D01*
X035032Y010707D02*
X034031Y010707D01*
X034150Y010588D02*
X035032Y010588D01*
X035032Y010470D02*
X034268Y010470D01*
X034387Y010351D02*
X035032Y010351D01*
X035032Y010233D02*
X034482Y010233D01*
X034482Y010114D02*
X035032Y010114D01*
X035032Y009996D02*
X034482Y009996D01*
X034482Y009877D02*
X035032Y009877D01*
X035032Y009759D02*
X034482Y009759D01*
X034482Y009640D02*
X035032Y009640D01*
X035032Y009522D02*
X034482Y009522D01*
X034482Y009403D02*
X035032Y009403D01*
X035032Y009285D02*
X034482Y009285D01*
X034482Y009166D02*
X035032Y009166D01*
X035032Y009048D02*
X034482Y009048D01*
X034482Y008929D02*
X035032Y008929D01*
X035032Y008811D02*
X034482Y008811D01*
X034482Y008692D02*
X035032Y008692D01*
X035032Y008574D02*
X034482Y008574D01*
X034482Y008455D02*
X035032Y008455D01*
X035032Y008337D02*
X034482Y008337D01*
X034482Y008218D02*
X035032Y008218D01*
X035032Y008100D02*
X034482Y008100D01*
X034482Y007981D02*
X035032Y007981D01*
X035032Y007863D02*
X034482Y007863D01*
X034022Y008811D02*
X027512Y008811D01*
X027512Y008929D02*
X034022Y008929D01*
X034022Y009048D02*
X027512Y009048D01*
X027512Y009166D02*
X029508Y009166D01*
X029441Y009194D02*
X029643Y009110D01*
X029862Y009110D01*
X030064Y009194D01*
X030219Y009348D01*
X030302Y009551D01*
X030302Y009769D01*
X030219Y009972D01*
X030064Y010126D01*
X029862Y010210D01*
X029643Y010210D01*
X029441Y010126D01*
X029286Y009972D01*
X029202Y009769D01*
X029202Y009551D01*
X029286Y009348D01*
X029441Y009194D01*
X029350Y009285D02*
X027512Y009285D01*
X027512Y009403D02*
X029263Y009403D01*
X029214Y009522D02*
X027512Y009522D01*
X027512Y009640D02*
X029202Y009640D01*
X029202Y009759D02*
X027512Y009759D01*
X027512Y009877D02*
X029247Y009877D01*
X029310Y009996D02*
X027512Y009996D01*
X027512Y010114D02*
X029429Y010114D01*
X030076Y010114D02*
X032929Y010114D01*
X032941Y010126D02*
X032786Y009972D01*
X032702Y009769D01*
X032702Y009551D01*
X032786Y009348D01*
X032941Y009194D01*
X033143Y009110D01*
X033362Y009110D01*
X033564Y009194D01*
X033719Y009348D01*
X033802Y009551D01*
X033802Y009769D01*
X033719Y009972D01*
X033564Y010126D01*
X033362Y010210D01*
X033143Y010210D01*
X032941Y010126D01*
X032810Y009996D02*
X030195Y009996D01*
X030258Y009877D02*
X032747Y009877D01*
X032702Y009759D02*
X030302Y009759D01*
X030302Y009640D02*
X032702Y009640D01*
X032714Y009522D02*
X030290Y009522D01*
X030241Y009403D02*
X032763Y009403D01*
X032850Y009285D02*
X030155Y009285D01*
X029997Y009166D02*
X033008Y009166D01*
X033497Y009166D02*
X034022Y009166D01*
X034022Y009285D02*
X033655Y009285D01*
X033741Y009403D02*
X034022Y009403D01*
X034022Y009522D02*
X033790Y009522D01*
X033802Y009640D02*
X034022Y009640D01*
X034022Y009759D02*
X033802Y009759D01*
X033758Y009877D02*
X034022Y009877D01*
X034022Y009996D02*
X033695Y009996D01*
X033576Y010114D02*
X033973Y010114D01*
X033855Y010233D02*
X027512Y010233D01*
X027512Y010351D02*
X033736Y010351D01*
X033618Y010470D02*
X027512Y010470D01*
X027512Y010588D02*
X033499Y010588D01*
X033381Y010707D02*
X028577Y010707D01*
X028564Y010694D02*
X028719Y010848D01*
X028802Y011051D01*
X028802Y011269D01*
X028719Y011472D01*
X028564Y011626D01*
X028362Y011710D01*
X028143Y011710D01*
X027941Y011626D01*
X027786Y011472D01*
X027702Y011269D01*
X027702Y011051D01*
X027786Y010848D01*
X027941Y010694D01*
X028143Y010610D01*
X028362Y010610D01*
X028564Y010694D01*
X028695Y010825D02*
X033262Y010825D01*
X033144Y010944D02*
X028758Y010944D01*
X028802Y011062D02*
X033025Y011062D01*
X032907Y011181D02*
X030032Y011181D01*
X030064Y011194D02*
X030219Y011348D01*
X030302Y011551D01*
X030302Y011769D01*
X030219Y011972D01*
X030064Y012126D01*
X029862Y012210D01*
X029643Y012210D01*
X029441Y012126D01*
X029286Y011972D01*
X029202Y011769D01*
X029202Y011551D01*
X029286Y011348D01*
X029441Y011194D01*
X029643Y011110D01*
X029862Y011110D01*
X030064Y011194D01*
X030169Y011299D02*
X032788Y011299D01*
X032670Y011418D02*
X030247Y011418D01*
X030296Y011536D02*
X032551Y011536D01*
X032522Y011655D02*
X030302Y011655D01*
X030301Y011773D02*
X032522Y011773D01*
X032522Y011892D02*
X030252Y011892D01*
X030180Y012010D02*
X032522Y012010D01*
X032522Y012129D02*
X030058Y012129D01*
X029446Y012129D02*
X028656Y012129D01*
X028867Y012247D02*
X032522Y012247D01*
X032522Y012366D02*
X028976Y012366D01*
X029025Y012484D02*
X032522Y012484D01*
X032522Y012603D02*
X029052Y012603D01*
X029052Y012721D02*
X032522Y012721D01*
X032522Y012840D02*
X029023Y012840D01*
X028974Y012958D02*
X031210Y012958D01*
X031202Y013077D02*
X028864Y013077D01*
X028648Y013195D02*
X031202Y013195D01*
X031202Y013314D02*
X028260Y013314D01*
X028269Y013284D02*
X028244Y013363D01*
X028206Y013438D01*
X028157Y013505D01*
X028098Y013564D01*
X028030Y013613D01*
X027956Y013651D01*
X027876Y013677D01*
X027794Y013690D01*
X027772Y013690D01*
X027772Y013180D01*
X028282Y013180D01*
X028282Y013202D01*
X028269Y013284D01*
X028282Y013195D02*
X028357Y013195D01*
X028209Y013432D02*
X030469Y013432D01*
X030334Y013551D02*
X028111Y013551D01*
X028000Y013669D02*
X027901Y013669D01*
X027772Y013669D02*
X027732Y013669D01*
X027732Y013690D02*
X027711Y013690D01*
X027628Y013677D01*
X027549Y013651D01*
X027475Y013613D01*
X027407Y013564D01*
X027348Y013505D01*
X027299Y013438D01*
X027261Y013363D01*
X027235Y013284D01*
X027222Y013202D01*
X027222Y013180D01*
X027732Y013180D01*
X027732Y013690D01*
X027604Y013669D02*
X026504Y013669D01*
X026564Y013694D02*
X026719Y013848D01*
X026802Y014051D01*
X026802Y014269D01*
X026719Y014472D01*
X026564Y014626D01*
X026362Y014710D01*
X026143Y014710D01*
X025941Y014626D01*
X025786Y014472D01*
X025702Y014269D01*
X025702Y014051D01*
X025786Y013848D01*
X025941Y013694D01*
X026143Y013610D01*
X026362Y013610D01*
X026564Y013694D01*
X026658Y013788D02*
X027847Y013788D01*
X027762Y013906D02*
X026742Y013906D01*
X026792Y014025D02*
X027713Y014025D01*
X027702Y014143D02*
X026802Y014143D01*
X026802Y014262D02*
X027702Y014262D01*
X027748Y014380D02*
X026757Y014380D01*
X026692Y014499D02*
X027813Y014499D01*
X027932Y014617D02*
X026573Y014617D01*
X025932Y014617D02*
X024573Y014617D01*
X024564Y014626D02*
X024362Y014710D01*
X024143Y014710D01*
X023941Y014626D01*
X023786Y014472D01*
X023702Y014269D01*
X023702Y014051D01*
X023786Y013848D01*
X023941Y013694D01*
X024143Y013610D01*
X024362Y013610D01*
X024564Y013694D01*
X024719Y013848D01*
X024802Y014051D01*
X024802Y014269D01*
X024719Y014472D01*
X024564Y014626D01*
X024692Y014499D02*
X025813Y014499D01*
X025748Y014380D02*
X024757Y014380D01*
X024802Y014262D02*
X025702Y014262D01*
X025702Y014143D02*
X024802Y014143D01*
X024792Y014025D02*
X025713Y014025D01*
X025762Y013906D02*
X024742Y013906D01*
X024658Y013788D02*
X025847Y013788D01*
X025794Y013690D02*
X025772Y013690D01*
X025772Y013180D01*
X026282Y013180D01*
X026282Y013202D01*
X026269Y013284D01*
X026244Y013363D01*
X026206Y013438D01*
X026157Y013505D01*
X026098Y013564D01*
X026030Y013613D01*
X025956Y013651D01*
X025876Y013677D01*
X025794Y013690D01*
X025772Y013669D02*
X025732Y013669D01*
X025732Y013690D02*
X025711Y013690D01*
X025628Y013677D01*
X025549Y013651D01*
X025475Y013613D01*
X025407Y013564D01*
X025348Y013505D01*
X025299Y013438D01*
X025261Y013363D01*
X025235Y013284D01*
X025222Y013202D01*
X025222Y013180D01*
X025732Y013180D01*
X025732Y013690D01*
X025604Y013669D02*
X024504Y013669D01*
X024209Y013432D02*
X025296Y013432D01*
X025245Y013314D02*
X024260Y013314D01*
X024282Y013195D02*
X024357Y013195D01*
X024648Y013195D02*
X025222Y013195D01*
X025229Y013077D02*
X024864Y013077D01*
X024974Y012958D02*
X025261Y012958D01*
X025330Y012840D02*
X025023Y012840D01*
X025052Y012721D02*
X025455Y012721D01*
X025417Y012603D02*
X025052Y012603D01*
X025025Y012484D02*
X025299Y012484D01*
X025242Y012366D02*
X024976Y012366D01*
X024867Y012247D02*
X025202Y012247D01*
X025202Y012129D02*
X024656Y012129D01*
X024348Y012129D02*
X024302Y012129D01*
X024286Y012010D02*
X025219Y012010D01*
X025116Y011892D02*
X024236Y011892D01*
X024143Y011773D02*
X025018Y011773D01*
X024992Y011655D02*
X024496Y011655D01*
X024564Y011626D02*
X024362Y011710D01*
X024143Y011710D01*
X023941Y011626D01*
X023786Y011472D01*
X023702Y011269D01*
X023702Y011051D01*
X023786Y010848D01*
X023941Y010694D01*
X024143Y010610D01*
X024362Y010610D01*
X024564Y010694D01*
X024719Y010848D01*
X024802Y011051D01*
X024802Y011269D01*
X024719Y011472D01*
X024564Y011626D01*
X024654Y011536D02*
X024992Y011536D01*
X024992Y011418D02*
X024741Y011418D01*
X024790Y011299D02*
X024992Y011299D01*
X024992Y011181D02*
X024802Y011181D01*
X024802Y011062D02*
X024992Y011062D01*
X024992Y010944D02*
X024758Y010944D01*
X024695Y010825D02*
X024992Y010825D01*
X024992Y010707D02*
X024577Y010707D01*
X024992Y010588D02*
X023512Y010588D01*
X023512Y010470D02*
X024992Y010470D01*
X024992Y010351D02*
X023512Y010351D01*
X023512Y010233D02*
X024992Y010233D01*
X024992Y010114D02*
X023512Y010114D01*
X023512Y009996D02*
X024992Y009996D01*
X024992Y009877D02*
X023512Y009877D01*
X023512Y009759D02*
X024992Y009759D01*
X024992Y009640D02*
X023512Y009640D01*
X023512Y009522D02*
X024992Y009522D01*
X024992Y009403D02*
X023512Y009403D01*
X023512Y009285D02*
X024992Y009285D01*
X024992Y009166D02*
X023512Y009166D01*
X023512Y009048D02*
X024992Y009048D01*
X024992Y008929D02*
X023512Y008929D01*
X023512Y008811D02*
X024992Y008811D01*
X024992Y008692D02*
X024405Y008692D01*
X024362Y008710D02*
X024143Y008710D01*
X023941Y008626D01*
X023786Y008472D01*
X023702Y008269D01*
X023702Y008051D01*
X023786Y007848D01*
X023941Y007694D01*
X024143Y007610D01*
X024362Y007610D01*
X024564Y007694D01*
X024719Y007848D01*
X024802Y008051D01*
X024802Y008269D01*
X024719Y008472D01*
X024564Y008626D01*
X024362Y008710D01*
X024100Y008692D02*
X023512Y008692D01*
X023512Y008574D02*
X023888Y008574D01*
X023779Y008455D02*
X023512Y008455D01*
X023512Y008337D02*
X023730Y008337D01*
X023702Y008218D02*
X023512Y008218D01*
X023512Y008100D02*
X023702Y008100D01*
X023731Y007981D02*
X023512Y007981D01*
X023512Y007863D02*
X023780Y007863D01*
X023891Y007744D02*
X023512Y007744D01*
X023512Y007626D02*
X024106Y007626D01*
X024399Y007626D02*
X024992Y007626D01*
X024992Y007744D02*
X024614Y007744D01*
X024724Y007863D02*
X024992Y007863D01*
X024992Y007981D02*
X024774Y007981D01*
X024802Y008100D02*
X024992Y008100D01*
X024992Y008218D02*
X024802Y008218D01*
X024775Y008337D02*
X024992Y008337D01*
X024992Y008455D02*
X024725Y008455D01*
X024617Y008574D02*
X024992Y008574D01*
X025512Y008574D02*
X025888Y008574D01*
X025941Y008626D02*
X025786Y008472D01*
X025702Y008269D01*
X025702Y008051D01*
X025786Y007848D01*
X025941Y007694D01*
X026143Y007610D01*
X026362Y007610D01*
X026564Y007694D01*
X026719Y007848D01*
X026802Y008051D01*
X026802Y008269D01*
X026719Y008472D01*
X026564Y008626D01*
X026362Y008710D01*
X026143Y008710D01*
X025941Y008626D01*
X026100Y008692D02*
X025512Y008692D01*
X025512Y008811D02*
X026992Y008811D01*
X026992Y008929D02*
X025512Y008929D01*
X025512Y009048D02*
X026992Y009048D01*
X026992Y009166D02*
X025512Y009166D01*
X025512Y009285D02*
X026992Y009285D01*
X026992Y009403D02*
X025512Y009403D01*
X025512Y009522D02*
X026992Y009522D01*
X026992Y009640D02*
X025512Y009640D01*
X025512Y009759D02*
X026992Y009759D01*
X026992Y009877D02*
X025512Y009877D01*
X025512Y009996D02*
X026992Y009996D01*
X026992Y010114D02*
X025512Y010114D01*
X025512Y010233D02*
X026992Y010233D01*
X026992Y010351D02*
X025512Y010351D01*
X025512Y010470D02*
X026992Y010470D01*
X026992Y010588D02*
X025512Y010588D01*
X025512Y010707D02*
X025928Y010707D01*
X025941Y010694D02*
X026143Y010610D01*
X026362Y010610D01*
X026564Y010694D01*
X026719Y010848D01*
X026802Y011051D01*
X026802Y011269D01*
X026719Y011472D01*
X026564Y011626D01*
X026362Y011710D01*
X026143Y011710D01*
X025941Y011626D01*
X025786Y011472D01*
X025702Y011269D01*
X025702Y011051D01*
X025786Y010848D01*
X025941Y010694D01*
X025810Y010825D02*
X025512Y010825D01*
X025512Y010944D02*
X025747Y010944D01*
X025702Y011062D02*
X025512Y011062D01*
X025512Y011181D02*
X025702Y011181D01*
X025715Y011299D02*
X025512Y011299D01*
X025512Y011418D02*
X025764Y011418D01*
X025851Y011536D02*
X025512Y011536D01*
X025969Y011655D02*
X026009Y011655D01*
X026143Y011773D02*
X027018Y011773D01*
X026992Y011655D02*
X026496Y011655D01*
X026654Y011536D02*
X026992Y011536D01*
X026992Y011418D02*
X026741Y011418D01*
X026790Y011299D02*
X026992Y011299D01*
X026992Y011181D02*
X026802Y011181D01*
X026802Y011062D02*
X026992Y011062D01*
X026992Y010944D02*
X026758Y010944D01*
X026695Y010825D02*
X026992Y010825D01*
X026992Y010707D02*
X026577Y010707D01*
X027512Y010707D02*
X027928Y010707D01*
X027810Y010825D02*
X027512Y010825D01*
X027512Y010944D02*
X027747Y010944D01*
X027702Y011062D02*
X027512Y011062D01*
X027512Y011181D02*
X027702Y011181D01*
X027715Y011299D02*
X027512Y011299D01*
X027512Y011418D02*
X027764Y011418D01*
X027851Y011536D02*
X027512Y011536D01*
X027969Y011655D02*
X028009Y011655D01*
X028143Y011773D02*
X029204Y011773D01*
X029202Y011655D02*
X028496Y011655D01*
X028654Y011536D02*
X029208Y011536D01*
X029257Y011418D02*
X028741Y011418D01*
X028790Y011299D02*
X029336Y011299D01*
X029473Y011181D02*
X028802Y011181D01*
X029253Y011892D02*
X028236Y011892D01*
X028286Y012010D02*
X029325Y012010D01*
X028348Y012129D02*
X028302Y012129D01*
X027417Y012603D02*
X027052Y012603D01*
X027052Y012721D02*
X027455Y012721D01*
X027330Y012840D02*
X027023Y012840D01*
X026974Y012958D02*
X027261Y012958D01*
X027229Y013077D02*
X026864Y013077D01*
X026648Y013195D02*
X027222Y013195D01*
X027245Y013314D02*
X026260Y013314D01*
X026282Y013195D02*
X026357Y013195D01*
X026209Y013432D02*
X027296Y013432D01*
X027393Y013551D02*
X026111Y013551D01*
X026000Y013669D02*
X025901Y013669D01*
X025772Y013551D02*
X025732Y013551D01*
X025732Y013432D02*
X025772Y013432D01*
X025772Y013314D02*
X025732Y013314D01*
X025732Y013195D02*
X025772Y013195D01*
X025393Y013551D02*
X024111Y013551D01*
X024000Y013669D02*
X023901Y013669D01*
X023772Y013669D02*
X023732Y013669D01*
X023732Y013551D02*
X023772Y013551D01*
X023772Y013432D02*
X023732Y013432D01*
X023732Y013314D02*
X023772Y013314D01*
X023772Y013195D02*
X023732Y013195D01*
X023245Y013314D02*
X022260Y013314D01*
X022282Y013195D02*
X022357Y013195D01*
X022648Y013195D02*
X023222Y013195D01*
X023229Y013077D02*
X022864Y013077D01*
X022974Y012958D02*
X023261Y012958D01*
X023330Y012840D02*
X023023Y012840D01*
X023052Y012721D02*
X023455Y012721D01*
X023417Y012603D02*
X023052Y012603D01*
X023025Y012484D02*
X023299Y012484D01*
X023242Y012366D02*
X022976Y012366D01*
X022867Y012247D02*
X023202Y012247D01*
X023202Y012129D02*
X022656Y012129D01*
X022348Y012129D02*
X022302Y012129D01*
X022286Y012010D02*
X023219Y012010D01*
X023116Y011892D02*
X022236Y011892D01*
X022143Y011773D02*
X023018Y011773D01*
X022992Y011655D02*
X022496Y011655D01*
X022564Y011626D02*
X022362Y011710D01*
X022143Y011710D01*
X021941Y011626D01*
X021786Y011472D01*
X021702Y011269D01*
X021702Y011051D01*
X021786Y010848D01*
X021941Y010694D01*
X022143Y010610D01*
X022362Y010610D01*
X022564Y010694D01*
X022719Y010848D01*
X022802Y011051D01*
X022802Y011269D01*
X022719Y011472D01*
X022564Y011626D01*
X022654Y011536D02*
X022992Y011536D01*
X022992Y011418D02*
X022741Y011418D01*
X022790Y011299D02*
X022992Y011299D01*
X022992Y011181D02*
X022802Y011181D01*
X022802Y011062D02*
X022992Y011062D01*
X022992Y010944D02*
X022758Y010944D01*
X022695Y010825D02*
X022992Y010825D01*
X022992Y010707D02*
X022577Y010707D01*
X022992Y010588D02*
X021512Y010588D01*
X021512Y010470D02*
X022992Y010470D01*
X022992Y010351D02*
X021512Y010351D01*
X021512Y010233D02*
X022992Y010233D01*
X022992Y010114D02*
X021512Y010114D01*
X021512Y009996D02*
X022992Y009996D01*
X022992Y009877D02*
X021512Y009877D01*
X021512Y009759D02*
X022992Y009759D01*
X022992Y009640D02*
X021512Y009640D01*
X021512Y009522D02*
X022992Y009522D01*
X022992Y009403D02*
X021512Y009403D01*
X021512Y009285D02*
X022992Y009285D01*
X022992Y009166D02*
X021512Y009166D01*
X021512Y009048D02*
X022992Y009048D01*
X022992Y008929D02*
X021512Y008929D01*
X021512Y008811D02*
X022992Y008811D01*
X022992Y008692D02*
X022405Y008692D01*
X022362Y008710D02*
X022143Y008710D01*
X021941Y008626D01*
X021786Y008472D01*
X021702Y008269D01*
X021702Y008051D01*
X021786Y007848D01*
X021941Y007694D01*
X022143Y007610D01*
X022362Y007610D01*
X022564Y007694D01*
X022719Y007848D01*
X022802Y008051D01*
X022802Y008269D01*
X022719Y008472D01*
X022564Y008626D01*
X022362Y008710D01*
X022100Y008692D02*
X021512Y008692D01*
X021512Y008574D02*
X021888Y008574D01*
X021779Y008455D02*
X021512Y008455D01*
X021512Y008337D02*
X021730Y008337D01*
X021702Y008218D02*
X021512Y008218D01*
X021512Y008100D02*
X021702Y008100D01*
X021731Y007981D02*
X021512Y007981D01*
X021512Y007863D02*
X021780Y007863D01*
X021891Y007744D02*
X021512Y007744D01*
X021512Y007626D02*
X022106Y007626D01*
X022399Y007626D02*
X022992Y007626D01*
X022992Y007744D02*
X022614Y007744D01*
X022724Y007863D02*
X022992Y007863D01*
X022992Y007981D02*
X022774Y007981D01*
X022802Y008100D02*
X022992Y008100D01*
X022992Y008218D02*
X022802Y008218D01*
X022775Y008337D02*
X022992Y008337D01*
X022992Y008455D02*
X022725Y008455D01*
X022617Y008574D02*
X022992Y008574D01*
X020992Y008574D02*
X020617Y008574D01*
X020564Y008626D02*
X020362Y008710D01*
X020143Y008710D01*
X019941Y008626D01*
X019786Y008472D01*
X019702Y008269D01*
X019702Y008051D01*
X019786Y007848D01*
X019941Y007694D01*
X020143Y007610D01*
X020362Y007610D01*
X020564Y007694D01*
X020719Y007848D01*
X020802Y008051D01*
X020802Y008269D01*
X020719Y008472D01*
X020564Y008626D01*
X020405Y008692D02*
X020992Y008692D01*
X020992Y008811D02*
X019512Y008811D01*
X019512Y008929D02*
X020992Y008929D01*
X020992Y009048D02*
X019512Y009048D01*
X019512Y009166D02*
X020992Y009166D01*
X020992Y009285D02*
X019512Y009285D01*
X019512Y009403D02*
X020992Y009403D01*
X020992Y009522D02*
X019512Y009522D01*
X019512Y009640D02*
X020992Y009640D01*
X020992Y009759D02*
X019512Y009759D01*
X019512Y009877D02*
X020992Y009877D01*
X020992Y009996D02*
X019512Y009996D01*
X019512Y010114D02*
X020992Y010114D01*
X020992Y010233D02*
X019512Y010233D01*
X019512Y010351D02*
X020992Y010351D01*
X020992Y010470D02*
X019512Y010470D01*
X019512Y010588D02*
X020992Y010588D01*
X020992Y010707D02*
X020577Y010707D01*
X020564Y010694D02*
X020719Y010848D01*
X020802Y011051D01*
X020802Y011269D01*
X020719Y011472D01*
X020564Y011626D01*
X020362Y011710D01*
X020143Y011710D01*
X019941Y011626D01*
X019786Y011472D01*
X019702Y011269D01*
X019702Y011051D01*
X019786Y010848D01*
X019941Y010694D01*
X020143Y010610D01*
X020362Y010610D01*
X020564Y010694D01*
X020695Y010825D02*
X020992Y010825D01*
X020992Y010944D02*
X020758Y010944D01*
X020802Y011062D02*
X020992Y011062D01*
X020992Y011181D02*
X020802Y011181D01*
X020790Y011299D02*
X020992Y011299D01*
X020992Y011418D02*
X020741Y011418D01*
X020654Y011536D02*
X020992Y011536D01*
X020992Y011655D02*
X020496Y011655D01*
X020236Y011892D02*
X021116Y011892D01*
X021018Y011773D02*
X020143Y011773D01*
X020009Y011655D02*
X019969Y011655D01*
X019851Y011536D02*
X019512Y011536D01*
X019512Y011418D02*
X019764Y011418D01*
X019715Y011299D02*
X019512Y011299D01*
X019512Y011181D02*
X019702Y011181D01*
X019702Y011062D02*
X019512Y011062D01*
X019512Y010944D02*
X019747Y010944D01*
X019810Y010825D02*
X019512Y010825D01*
X019512Y010707D02*
X019928Y010707D01*
X018992Y010707D02*
X018577Y010707D01*
X018564Y010694D02*
X018719Y010848D01*
X018802Y011051D01*
X018802Y011269D01*
X018719Y011472D01*
X018564Y011626D01*
X018362Y011710D01*
X018143Y011710D01*
X017941Y011626D01*
X017786Y011472D01*
X017702Y011269D01*
X017702Y011051D01*
X017786Y010848D01*
X017941Y010694D01*
X018143Y010610D01*
X018362Y010610D01*
X018564Y010694D01*
X018695Y010825D02*
X018992Y010825D01*
X018992Y010944D02*
X018758Y010944D01*
X018802Y011062D02*
X018992Y011062D01*
X018992Y011181D02*
X018802Y011181D01*
X018790Y011299D02*
X018992Y011299D01*
X018992Y011418D02*
X018741Y011418D01*
X018654Y011536D02*
X018992Y011536D01*
X018992Y011655D02*
X018496Y011655D01*
X018236Y011892D02*
X019116Y011892D01*
X019018Y011773D02*
X018143Y011773D01*
X018009Y011655D02*
X017969Y011655D01*
X017851Y011536D02*
X017512Y011536D01*
X017512Y011418D02*
X017764Y011418D01*
X017715Y011299D02*
X017512Y011299D01*
X017512Y011181D02*
X017702Y011181D01*
X017702Y011062D02*
X017512Y011062D01*
X017512Y010944D02*
X017747Y010944D01*
X017810Y010825D02*
X017512Y010825D01*
X017512Y010707D02*
X017928Y010707D01*
X017512Y010588D02*
X018992Y010588D01*
X018992Y010470D02*
X017512Y010470D01*
X017512Y010351D02*
X018992Y010351D01*
X018992Y010233D02*
X017512Y010233D01*
X017512Y010114D02*
X018992Y010114D01*
X018992Y009996D02*
X017512Y009996D01*
X017512Y009877D02*
X018992Y009877D01*
X018992Y009759D02*
X017512Y009759D01*
X017512Y009640D02*
X018992Y009640D01*
X018992Y009522D02*
X017512Y009522D01*
X017512Y009403D02*
X018992Y009403D01*
X018992Y009285D02*
X017512Y009285D01*
X017512Y009166D02*
X018992Y009166D01*
X018992Y009048D02*
X017512Y009048D01*
X017512Y008929D02*
X018992Y008929D01*
X018992Y008811D02*
X017512Y008811D01*
X017512Y008692D02*
X018100Y008692D01*
X018143Y008710D02*
X017941Y008626D01*
X017786Y008472D01*
X017702Y008269D01*
X017702Y008051D01*
X017786Y007848D01*
X017941Y007694D01*
X018143Y007610D01*
X018362Y007610D01*
X018564Y007694D01*
X018719Y007848D01*
X018802Y008051D01*
X018802Y008269D01*
X018719Y008472D01*
X018564Y008626D01*
X018362Y008710D01*
X018143Y008710D01*
X018405Y008692D02*
X018992Y008692D01*
X018992Y008574D02*
X018617Y008574D01*
X018725Y008455D02*
X018992Y008455D01*
X018992Y008337D02*
X018775Y008337D01*
X018802Y008218D02*
X018992Y008218D01*
X018992Y008100D02*
X018802Y008100D01*
X018774Y007981D02*
X018992Y007981D01*
X018992Y007863D02*
X018724Y007863D01*
X018614Y007744D02*
X018992Y007744D01*
X018992Y007626D02*
X018399Y007626D01*
X018106Y007626D02*
X017512Y007626D01*
X017512Y007744D02*
X017891Y007744D01*
X017780Y007863D02*
X017512Y007863D01*
X017512Y007981D02*
X017731Y007981D01*
X017702Y008100D02*
X017512Y008100D01*
X017512Y008218D02*
X017702Y008218D01*
X017730Y008337D02*
X017512Y008337D01*
X017512Y008455D02*
X017779Y008455D01*
X017888Y008574D02*
X017512Y008574D01*
X019512Y008574D02*
X019888Y008574D01*
X019779Y008455D02*
X019512Y008455D01*
X019512Y008337D02*
X019730Y008337D01*
X019702Y008218D02*
X019512Y008218D01*
X019512Y008100D02*
X019702Y008100D01*
X019731Y007981D02*
X019512Y007981D01*
X019512Y007863D02*
X019780Y007863D01*
X019891Y007744D02*
X019512Y007744D01*
X019512Y007626D02*
X020106Y007626D01*
X020399Y007626D02*
X020992Y007626D01*
X020992Y007744D02*
X020614Y007744D01*
X020724Y007863D02*
X020992Y007863D01*
X020992Y007981D02*
X020774Y007981D01*
X020802Y008100D02*
X020992Y008100D01*
X020992Y008218D02*
X020802Y008218D01*
X020775Y008337D02*
X020992Y008337D01*
X020992Y008455D02*
X020725Y008455D01*
X020100Y008692D02*
X019512Y008692D01*
X021512Y010707D02*
X021928Y010707D01*
X021810Y010825D02*
X021512Y010825D01*
X021512Y010944D02*
X021747Y010944D01*
X021702Y011062D02*
X021512Y011062D01*
X021512Y011181D02*
X021702Y011181D01*
X021715Y011299D02*
X021512Y011299D01*
X021512Y011418D02*
X021764Y011418D01*
X021851Y011536D02*
X021512Y011536D01*
X021969Y011655D02*
X022009Y011655D01*
X021219Y012010D02*
X020286Y012010D01*
X020302Y012129D02*
X020348Y012129D01*
X020656Y012129D02*
X021202Y012129D01*
X021202Y012247D02*
X020867Y012247D01*
X020976Y012366D02*
X021242Y012366D01*
X021299Y012484D02*
X021025Y012484D01*
X021052Y012603D02*
X021417Y012603D01*
X021455Y012721D02*
X021052Y012721D01*
X021023Y012840D02*
X021330Y012840D01*
X021261Y012958D02*
X020974Y012958D01*
X020864Y013077D02*
X021229Y013077D01*
X021222Y013195D02*
X020648Y013195D01*
X020357Y013195D02*
X020282Y013195D01*
X020260Y013314D02*
X021245Y013314D01*
X021296Y013432D02*
X020209Y013432D01*
X020111Y013551D02*
X021393Y013551D01*
X021604Y013669D02*
X020504Y013669D01*
X020564Y013694D02*
X020719Y013848D01*
X020802Y014051D01*
X020802Y014269D01*
X020719Y014472D01*
X020564Y014626D01*
X020362Y014710D01*
X020143Y014710D01*
X019941Y014626D01*
X019786Y014472D01*
X019702Y014269D01*
X019702Y014051D01*
X019786Y013848D01*
X019941Y013694D01*
X020143Y013610D01*
X020362Y013610D01*
X020564Y013694D01*
X020658Y013788D02*
X021847Y013788D01*
X021786Y013848D02*
X021941Y013694D01*
X022143Y013610D01*
X022362Y013610D01*
X022564Y013694D01*
X022719Y013848D01*
X022802Y014051D01*
X022802Y014269D01*
X022719Y014472D01*
X022564Y014626D01*
X022362Y014710D01*
X022143Y014710D01*
X021941Y014626D01*
X021786Y014472D01*
X021702Y014269D01*
X021702Y014051D01*
X021786Y013848D01*
X021762Y013906D02*
X020742Y013906D01*
X020792Y014025D02*
X021713Y014025D01*
X021702Y014143D02*
X020802Y014143D01*
X020802Y014262D02*
X021702Y014262D01*
X021748Y014380D02*
X020757Y014380D01*
X020692Y014499D02*
X021813Y014499D01*
X021932Y014617D02*
X020573Y014617D01*
X019932Y014617D02*
X018573Y014617D01*
X018692Y014499D02*
X019813Y014499D01*
X019748Y014380D02*
X018757Y014380D01*
X018802Y014262D02*
X019702Y014262D01*
X019702Y014143D02*
X018802Y014143D01*
X018792Y014025D02*
X019713Y014025D01*
X019762Y013906D02*
X018742Y013906D01*
X018658Y013788D02*
X019847Y013788D01*
X019901Y013669D02*
X020000Y013669D01*
X019772Y013669D02*
X019732Y013669D01*
X019732Y013551D02*
X019772Y013551D01*
X019772Y013432D02*
X019732Y013432D01*
X019732Y013314D02*
X019772Y013314D01*
X019772Y013195D02*
X019732Y013195D01*
X019330Y012840D02*
X019023Y012840D01*
X019052Y012721D02*
X019455Y012721D01*
X019417Y012603D02*
X019052Y012603D01*
X019025Y012484D02*
X019299Y012484D01*
X019242Y012366D02*
X018976Y012366D01*
X018867Y012247D02*
X019202Y012247D01*
X019202Y012129D02*
X018656Y012129D01*
X018348Y012129D02*
X018302Y012129D01*
X018286Y012010D02*
X019219Y012010D01*
X019261Y012958D02*
X018974Y012958D01*
X018864Y013077D02*
X019229Y013077D01*
X019222Y013195D02*
X018648Y013195D01*
X018357Y013195D02*
X018282Y013195D01*
X018260Y013314D02*
X019245Y013314D01*
X019296Y013432D02*
X018209Y013432D01*
X018111Y013551D02*
X019393Y013551D01*
X019604Y013669D02*
X018504Y013669D01*
X018000Y013669D02*
X017901Y013669D01*
X017772Y013669D02*
X017732Y013669D01*
X017732Y013551D02*
X017772Y013551D01*
X017772Y013432D02*
X017732Y013432D01*
X017732Y013314D02*
X017772Y013314D01*
X017772Y013195D02*
X017732Y013195D01*
X016009Y011655D02*
X015969Y011655D01*
X014357Y013195D02*
X014282Y013195D01*
X013455Y012721D02*
X008051Y012721D01*
X008002Y012603D02*
X013417Y012603D01*
X013299Y012484D02*
X007953Y012484D01*
X007853Y012366D02*
X013242Y012366D01*
X013202Y012247D02*
X007735Y012247D01*
X007482Y012129D02*
X013202Y012129D01*
X013512Y008692D02*
X014100Y008692D01*
X013888Y008574D02*
X013512Y008574D01*
X013512Y008455D02*
X013779Y008455D01*
X013730Y008337D02*
X013512Y008337D01*
X013512Y008218D02*
X013702Y008218D01*
X013702Y008100D02*
X013512Y008100D01*
X013512Y007981D02*
X013731Y007981D01*
X013780Y007863D02*
X013512Y007863D01*
X013512Y007744D02*
X013891Y007744D01*
X014106Y007626D02*
X013512Y007626D01*
X014399Y007626D02*
X014992Y007626D01*
X014992Y007744D02*
X014614Y007744D01*
X014724Y007863D02*
X014992Y007863D01*
X014992Y007981D02*
X014774Y007981D01*
X014802Y008100D02*
X014992Y008100D01*
X014992Y008218D02*
X014802Y008218D01*
X014775Y008337D02*
X014992Y008337D01*
X014992Y008455D02*
X014725Y008455D01*
X015603Y006678D02*
X016039Y006678D01*
X016150Y006559D02*
X015721Y006559D01*
X015840Y006441D02*
X016044Y006441D01*
X019603Y006678D02*
X020039Y006678D01*
X020150Y006559D02*
X019721Y006559D01*
X019840Y006441D02*
X020044Y006441D01*
X023603Y006678D02*
X024039Y006678D01*
X024150Y006559D02*
X023721Y006559D01*
X023840Y006441D02*
X024044Y006441D01*
X025512Y007626D02*
X026106Y007626D01*
X025891Y007744D02*
X025512Y007744D01*
X025512Y007863D02*
X025780Y007863D01*
X025731Y007981D02*
X025512Y007981D01*
X025512Y008100D02*
X025702Y008100D01*
X025702Y008218D02*
X025512Y008218D01*
X025512Y008337D02*
X025730Y008337D01*
X025779Y008455D02*
X025512Y008455D01*
X026405Y008692D02*
X026992Y008692D01*
X026992Y008574D02*
X026617Y008574D01*
X026725Y008455D02*
X026992Y008455D01*
X026992Y008337D02*
X026775Y008337D01*
X026802Y008218D02*
X026992Y008218D01*
X026992Y008100D02*
X026802Y008100D01*
X026774Y007981D02*
X026992Y007981D01*
X026992Y007863D02*
X026724Y007863D01*
X026614Y007744D02*
X026992Y007744D01*
X026992Y007626D02*
X026399Y007626D01*
X027603Y006678D02*
X028039Y006678D01*
X028150Y006559D02*
X027721Y006559D01*
X027840Y006441D02*
X028044Y006441D01*
X025575Y004663D02*
X030522Y004663D01*
X030359Y004545D02*
X025693Y004545D01*
X031055Y005137D02*
X033078Y005137D01*
X032879Y005256D02*
X031173Y005256D01*
X031292Y005374D02*
X032776Y005374D01*
X031772Y007744D02*
X031732Y007744D01*
X027116Y011892D02*
X026236Y011892D01*
X026286Y012010D02*
X027219Y012010D01*
X027202Y012129D02*
X026656Y012129D01*
X026867Y012247D02*
X027202Y012247D01*
X027242Y012366D02*
X026976Y012366D01*
X027025Y012484D02*
X027299Y012484D01*
X026348Y012129D02*
X026302Y012129D01*
X027732Y013195D02*
X027772Y013195D01*
X027772Y013314D02*
X027732Y013314D01*
X027732Y013432D02*
X027772Y013432D01*
X027772Y013551D02*
X027732Y013551D01*
X028504Y013669D02*
X030257Y013669D01*
X029800Y013788D02*
X028658Y013788D01*
X028742Y013906D02*
X029681Y013906D01*
X029563Y014025D02*
X028792Y014025D01*
X028802Y014143D02*
X029444Y014143D01*
X029326Y014262D02*
X028802Y014262D01*
X028757Y014380D02*
X029207Y014380D01*
X031036Y013432D02*
X031202Y013432D01*
X031202Y013551D02*
X031171Y013551D01*
X032302Y013551D02*
X032522Y013551D01*
X032522Y013432D02*
X032302Y013432D01*
X032302Y013314D02*
X032522Y013314D01*
X032522Y013195D02*
X032302Y013195D01*
X032302Y013077D02*
X032522Y013077D01*
X032522Y012958D02*
X032295Y012958D01*
X032302Y013669D02*
X032418Y013669D01*
X034536Y013669D02*
X035032Y013669D01*
X035032Y013551D02*
X034757Y013551D01*
X034876Y013432D02*
X035032Y013432D01*
X035032Y013314D02*
X034962Y013314D01*
X035011Y013195D02*
X035032Y013195D01*
X035002Y012603D02*
X035032Y012603D01*
X035032Y012484D02*
X034953Y012484D01*
X035032Y012366D02*
X034853Y012366D01*
X034735Y012247D02*
X035032Y012247D01*
X035032Y012129D02*
X034482Y012129D01*
X028091Y016632D02*
X027982Y016632D01*
X027022Y016632D02*
X026414Y016632D01*
X026362Y016610D02*
X026564Y016694D01*
X026719Y016848D01*
X026802Y017051D01*
X026802Y017269D01*
X026719Y017472D01*
X026564Y017626D01*
X026362Y017710D01*
X026143Y017710D01*
X025941Y017626D01*
X025786Y017472D01*
X025702Y017269D01*
X025702Y017051D01*
X025786Y016848D01*
X025941Y016694D01*
X026143Y016610D01*
X026362Y016610D01*
X026091Y016632D02*
X024414Y016632D01*
X024362Y016610D02*
X024564Y016694D01*
X024719Y016848D01*
X024802Y017051D01*
X024802Y017269D01*
X024719Y017472D01*
X024564Y017626D01*
X024362Y017710D01*
X024143Y017710D01*
X023941Y017626D01*
X023786Y017472D01*
X023702Y017269D01*
X023702Y017051D01*
X023786Y016848D01*
X023941Y016694D01*
X024143Y016610D01*
X024362Y016610D01*
X024091Y016632D02*
X022414Y016632D01*
X022362Y016610D02*
X022564Y016694D01*
X022719Y016848D01*
X022802Y017051D01*
X022802Y017269D01*
X022719Y017472D01*
X022564Y017626D01*
X022362Y017710D01*
X022143Y017710D01*
X021941Y017626D01*
X021786Y017472D01*
X021702Y017269D01*
X021702Y017051D01*
X021786Y016848D01*
X021941Y016694D01*
X022143Y016610D01*
X022362Y016610D01*
X022091Y016632D02*
X020414Y016632D01*
X020362Y016610D02*
X020564Y016694D01*
X020719Y016848D01*
X020802Y017051D01*
X020802Y017269D01*
X020719Y017472D01*
X020564Y017626D01*
X020362Y017710D01*
X020143Y017710D01*
X019941Y017626D01*
X019786Y017472D01*
X019702Y017269D01*
X019702Y017051D01*
X019786Y016848D01*
X019941Y016694D01*
X020143Y016610D01*
X020362Y016610D01*
X020091Y016632D02*
X018414Y016632D01*
X018362Y016610D02*
X018564Y016694D01*
X018719Y016848D01*
X018802Y017051D01*
X018802Y017269D01*
X018719Y017472D01*
X018564Y017626D01*
X018362Y017710D01*
X018143Y017710D01*
X017941Y017626D01*
X017786Y017472D01*
X017702Y017269D01*
X017702Y017051D01*
X017786Y016848D01*
X017941Y016694D01*
X018143Y016610D01*
X018362Y016610D01*
X018091Y016632D02*
X016414Y016632D01*
X016362Y016610D02*
X016564Y016694D01*
X016719Y016848D01*
X016802Y017051D01*
X016802Y017269D01*
X016719Y017472D01*
X016564Y017626D01*
X016362Y017710D01*
X016143Y017710D01*
X015941Y017626D01*
X015786Y017472D01*
X015702Y017269D01*
X015702Y017051D01*
X015786Y016848D01*
X015941Y016694D01*
X016143Y016610D01*
X016362Y016610D01*
X016091Y016632D02*
X014414Y016632D01*
X014620Y016750D02*
X015885Y016750D01*
X015778Y016869D02*
X014727Y016869D01*
X014776Y016987D02*
X015729Y016987D01*
X015702Y017106D02*
X014802Y017106D01*
X014802Y017224D02*
X015702Y017224D01*
X015733Y017343D02*
X014772Y017343D01*
X014723Y017461D02*
X015782Y017461D01*
X015894Y017580D02*
X014611Y017580D01*
X014391Y017698D02*
X016114Y017698D01*
X016391Y017698D02*
X018114Y017698D01*
X017894Y017580D02*
X016611Y017580D01*
X016723Y017461D02*
X017782Y017461D01*
X017733Y017343D02*
X016772Y017343D01*
X016802Y017224D02*
X017702Y017224D01*
X017702Y017106D02*
X016802Y017106D01*
X016776Y016987D02*
X017729Y016987D01*
X017778Y016869D02*
X016727Y016869D01*
X016620Y016750D02*
X017885Y016750D01*
X018620Y016750D02*
X019885Y016750D01*
X019778Y016869D02*
X018727Y016869D01*
X018776Y016987D02*
X019729Y016987D01*
X019702Y017106D02*
X018802Y017106D01*
X018802Y017224D02*
X019702Y017224D01*
X019733Y017343D02*
X018772Y017343D01*
X018723Y017461D02*
X019782Y017461D01*
X019894Y017580D02*
X018611Y017580D01*
X018391Y017698D02*
X020114Y017698D01*
X020391Y017698D02*
X022114Y017698D01*
X021894Y017580D02*
X020611Y017580D01*
X020723Y017461D02*
X021782Y017461D01*
X021733Y017343D02*
X020772Y017343D01*
X020802Y017224D02*
X021702Y017224D01*
X021702Y017106D02*
X020802Y017106D01*
X020776Y016987D02*
X021729Y016987D01*
X021778Y016869D02*
X020727Y016869D01*
X020620Y016750D02*
X021885Y016750D01*
X022620Y016750D02*
X023885Y016750D01*
X023778Y016869D02*
X022727Y016869D01*
X022776Y016987D02*
X023729Y016987D01*
X023702Y017106D02*
X022802Y017106D01*
X022802Y017224D02*
X023702Y017224D01*
X023733Y017343D02*
X022772Y017343D01*
X022723Y017461D02*
X023782Y017461D01*
X023894Y017580D02*
X022611Y017580D01*
X022391Y017698D02*
X024114Y017698D01*
X024391Y017698D02*
X026114Y017698D01*
X025894Y017580D02*
X024611Y017580D01*
X024723Y017461D02*
X025782Y017461D01*
X025733Y017343D02*
X024772Y017343D01*
X024802Y017224D02*
X025702Y017224D01*
X025702Y017106D02*
X024802Y017106D01*
X024776Y016987D02*
X025729Y016987D01*
X025778Y016869D02*
X024727Y016869D01*
X024620Y016750D02*
X025885Y016750D01*
X026620Y016750D02*
X027022Y016750D01*
X027022Y016869D02*
X026727Y016869D01*
X026776Y016987D02*
X027022Y016987D01*
X027022Y017106D02*
X026802Y017106D01*
X026802Y017224D02*
X027022Y017224D01*
X027022Y017343D02*
X026772Y017343D01*
X026723Y017461D02*
X027022Y017461D01*
X027022Y017580D02*
X026611Y017580D01*
X026391Y017698D02*
X027022Y017698D01*
X027982Y017698D02*
X028114Y017698D01*
X026422Y019713D02*
X026083Y019713D01*
X026201Y019831D02*
X026304Y019831D01*
X025422Y019713D02*
X025083Y019713D01*
X025201Y019831D02*
X025304Y019831D01*
X024422Y019713D02*
X024083Y019713D01*
X024201Y019831D02*
X024304Y019831D01*
X023422Y019713D02*
X023083Y019713D01*
X023201Y019831D02*
X023304Y019831D01*
X022422Y019713D02*
X022083Y019713D01*
X022201Y019831D02*
X022304Y019831D01*
X018922Y019713D02*
X018583Y019713D01*
X018701Y019831D02*
X018804Y019831D01*
X017024Y020661D02*
X016481Y020661D01*
X016648Y020542D02*
X016857Y020542D01*
X016766Y020424D02*
X016739Y020424D01*
X016024Y020661D02*
X015481Y020661D01*
X015648Y020542D02*
X015857Y020542D01*
X015766Y020424D02*
X015739Y020424D01*
X015024Y020661D02*
X014481Y020661D01*
X014648Y020542D02*
X014857Y020542D01*
X014766Y020424D02*
X014739Y020424D01*
X014701Y019831D02*
X014804Y019831D01*
X014922Y019713D02*
X014583Y019713D01*
X013782Y017461D02*
X013379Y017461D01*
X013260Y017343D02*
X013733Y017343D01*
X013702Y017224D02*
X013142Y017224D01*
X013023Y017106D02*
X013702Y017106D01*
X013729Y016987D02*
X012905Y016987D01*
X012786Y016869D02*
X013778Y016869D01*
X013885Y016750D02*
X012668Y016750D01*
X012549Y016632D02*
X014091Y016632D01*
X021732Y013669D02*
X021772Y013669D01*
X021772Y013551D02*
X021732Y013551D01*
X021732Y013432D02*
X021772Y013432D01*
X021772Y013314D02*
X021732Y013314D01*
X021732Y013195D02*
X021772Y013195D01*
X022111Y013551D02*
X023393Y013551D01*
X023296Y013432D02*
X022209Y013432D01*
X022000Y013669D02*
X021901Y013669D01*
X022504Y013669D02*
X023604Y013669D01*
X023847Y013788D02*
X022658Y013788D01*
X022742Y013906D02*
X023762Y013906D01*
X023713Y014025D02*
X022792Y014025D01*
X022802Y014143D02*
X023702Y014143D01*
X023702Y014262D02*
X022802Y014262D01*
X022757Y014380D02*
X023748Y014380D01*
X023813Y014499D02*
X022692Y014499D01*
X022573Y014617D02*
X023932Y014617D01*
X023969Y011655D02*
X024009Y011655D01*
X023851Y011536D02*
X023512Y011536D01*
X023512Y011418D02*
X023764Y011418D01*
X023715Y011299D02*
X023512Y011299D01*
X023512Y011181D02*
X023702Y011181D01*
X023702Y011062D02*
X023512Y011062D01*
X023512Y010944D02*
X023747Y010944D01*
X023810Y010825D02*
X023512Y010825D01*
X023512Y010707D02*
X023928Y010707D01*
X006954Y004663D02*
X006472Y004663D01*
X006472Y004545D02*
X006741Y004545D01*
X006623Y004426D02*
X006472Y004426D01*
X006472Y004308D02*
X006540Y004308D01*
X006491Y004189D02*
X006472Y004189D01*
D15*
X010752Y006410D02*
X011002Y006410D01*
X014252Y003160D01*
X022252Y003160D01*
X022752Y002660D01*
X022752Y001160D01*
X023752Y001160D02*
X023752Y003160D01*
X023252Y003660D01*
X014252Y003660D01*
X011002Y006910D01*
X009752Y006910D01*
X010752Y007410D02*
X011002Y007410D01*
X014252Y004160D01*
X024252Y004160D01*
X024752Y003660D01*
X024752Y001160D01*
X025752Y001160D02*
X025752Y004160D01*
X025252Y004660D01*
X014252Y004660D01*
X011002Y007910D01*
X009752Y007910D01*
X013752Y002660D02*
X013752Y001160D01*
X014402Y000510D01*
X033102Y000510D01*
X034252Y002160D01*
X034252Y010160D01*
X032752Y011660D01*
X032752Y013660D01*
X032002Y014410D01*
X031752Y014410D01*
X031002Y014410D02*
X030002Y014410D01*
X029252Y015160D01*
X028252Y015160D01*
X027752Y015660D01*
X027752Y020160D01*
X027252Y019660D02*
X026752Y020160D01*
X027252Y019660D02*
X027252Y015660D01*
X028252Y014660D01*
X029252Y014660D01*
X030002Y013910D01*
X030752Y013910D01*
X031002Y014410D02*
X031752Y013660D01*
X031752Y013410D01*
X030752Y008160D02*
X030752Y007660D01*
X031752Y006660D01*
X033252Y006660D01*
X033252Y005660D02*
X031252Y005660D01*
X030752Y005160D01*
X030752Y004160D01*
X032752Y002160D02*
X033252Y002660D01*
X032752Y002160D02*
X026752Y002160D01*
X026752Y001160D01*
X015752Y001160D02*
X015252Y001160D01*
X014752Y001660D01*
X014752Y002660D01*
X012002Y016410D02*
X010752Y016410D01*
X012002Y016410D02*
X014752Y019160D01*
X015752Y019160D01*
X016252Y019660D01*
X016252Y020160D01*
X014252Y020160D02*
X014252Y019660D01*
X012752Y018160D01*
X011752Y018160D01*
D16*
X011752Y018160D03*
D17*
X013752Y012160D02*
X013252Y011660D01*
X013252Y006660D01*
X013752Y006160D01*
X014469Y006160D01*
X015252Y006660D02*
X015252Y011660D01*
X015752Y012160D01*
X017252Y011660D02*
X017752Y012160D01*
X017252Y011660D02*
X017252Y006660D01*
X017752Y006160D01*
X018469Y006160D01*
X019252Y006660D02*
X019252Y011660D01*
X019752Y012160D01*
X021252Y011660D02*
X021752Y012160D01*
X021252Y011660D02*
X021252Y006660D01*
X021752Y006160D01*
X022469Y006160D01*
X023252Y006660D02*
X023252Y011660D01*
X023752Y012160D01*
X025252Y011660D02*
X025752Y012160D01*
X025252Y011660D02*
X025252Y006660D01*
X025752Y006160D01*
X026469Y006160D01*
X027252Y006660D02*
X027252Y011660D01*
X027752Y012160D01*
X027252Y006660D02*
X027752Y006160D01*
X028469Y006160D01*
X024469Y006160D02*
X023752Y006160D01*
X023252Y006660D01*
X020469Y006160D02*
X019752Y006160D01*
X019252Y006660D01*
X016469Y006160D02*
X015752Y006160D01*
X015252Y006660D01*
M02*
