G75*
G70*
%OFA0B0*%
%FSLAX24Y24*%
%IPPOS*%
%LPD*%
%AMOC8*
5,1,8,0,0,1.08239X$1,22.5*
%
%ADD10C,0.0080*%
%ADD11C,0.0130*%
%ADD12C,0.0740*%
%ADD13R,0.0740X0.0740*%
%ADD14C,0.0000*%
%ADD15C,0.0640*%
%ADD16C,0.0650*%
%ADD17C,0.0120*%
%ADD18C,0.0300*%
%ADD19C,0.0160*%
%ADD20C,0.0100*%
%ADD21C,0.0400*%
D10*
X006252Y001160D02*
X007252Y000160D01*
X034252Y000160D01*
X035252Y001160D01*
X035252Y020160D01*
X034252Y021160D01*
X007252Y021160D01*
X006252Y020160D01*
X006252Y001160D01*
D11*
X007879Y019975D02*
X007817Y020037D01*
X007879Y019975D02*
X008003Y019975D01*
X008064Y020037D01*
X008064Y020160D01*
X008003Y020222D01*
X007941Y020222D01*
X007817Y020160D01*
X007817Y020345D01*
X008064Y020345D01*
X008278Y020160D02*
X008525Y020160D01*
X008738Y020222D02*
X008862Y020345D01*
X008862Y019975D01*
X008985Y019975D02*
X008738Y019975D01*
X009199Y019975D02*
X009445Y020222D01*
X009445Y020284D01*
X009384Y020345D01*
X009260Y020345D01*
X009199Y020284D01*
X009199Y019975D02*
X009445Y019975D01*
X009659Y020160D02*
X009906Y020160D01*
X010119Y020222D02*
X010243Y020345D01*
X010243Y019975D01*
X010366Y019975D02*
X010119Y019975D01*
X010580Y019975D02*
X010827Y020222D01*
X010827Y020284D01*
X010765Y020345D01*
X010641Y020345D01*
X010580Y020284D01*
X010580Y019975D02*
X010827Y019975D01*
D12*
X012252Y020160D03*
X013252Y020160D03*
X014252Y020160D03*
X015252Y020160D03*
X016252Y020160D03*
X017252Y020160D03*
X018252Y020160D03*
X019252Y020160D03*
X020752Y020160D03*
X021752Y020160D03*
X022752Y020160D03*
X023752Y020160D03*
X024752Y020160D03*
X025752Y020160D03*
X026752Y020160D03*
X027752Y020160D03*
X028252Y017160D03*
X026252Y017160D03*
X024252Y017160D03*
X022252Y017160D03*
X020252Y017160D03*
X018252Y017160D03*
X016252Y017160D03*
X014252Y017160D03*
X010752Y016410D03*
X009752Y015910D03*
X010752Y015410D03*
X009752Y014910D03*
X010752Y014410D03*
X009752Y013910D03*
X010752Y013410D03*
X013752Y013160D03*
X014502Y012660D03*
X013752Y012160D03*
X014252Y011160D03*
X015752Y012160D03*
X016502Y012660D03*
X015752Y013160D03*
X016252Y014160D03*
X017752Y013160D03*
X018502Y012660D03*
X017752Y012160D03*
X018252Y011160D03*
X019752Y012160D03*
X020502Y012660D03*
X019752Y013160D03*
X020252Y014160D03*
X021752Y013160D03*
X022502Y012660D03*
X021752Y012160D03*
X022252Y011160D03*
X023752Y012160D03*
X024502Y012660D03*
X023752Y013160D03*
X024252Y014160D03*
X025752Y013160D03*
X026502Y012660D03*
X025752Y012160D03*
X026252Y011160D03*
X027752Y012160D03*
X028502Y012660D03*
X027752Y013160D03*
X028252Y014160D03*
X026252Y014160D03*
X022252Y014160D03*
X018252Y014160D03*
X014252Y014160D03*
X016252Y011160D03*
X020252Y011160D03*
X024252Y011160D03*
X028252Y011160D03*
X029752Y011660D03*
X029752Y009660D03*
X030752Y008160D03*
X031752Y008160D03*
X033252Y006660D03*
X033252Y005660D03*
X031752Y004160D03*
X030752Y004160D03*
X033252Y002660D03*
X027752Y001160D03*
X026752Y001160D03*
X025752Y001160D03*
X024752Y001160D03*
X023752Y001160D03*
X022752Y001160D03*
X020752Y001160D03*
X019752Y001160D03*
X018752Y001160D03*
X017752Y001160D03*
X016752Y001160D03*
X015752Y001160D03*
X010752Y004410D03*
X009752Y004910D03*
X010752Y005410D03*
X009752Y005910D03*
X010752Y006410D03*
X009752Y006910D03*
X010752Y007410D03*
X014252Y008160D03*
X016252Y008160D03*
X018252Y008160D03*
X020252Y008160D03*
X022252Y008160D03*
X024252Y008160D03*
X026252Y008160D03*
X028252Y008160D03*
X033252Y009660D03*
X030752Y013910D03*
X031752Y014410D03*
X030752Y014910D03*
X031752Y015410D03*
X030752Y015910D03*
X031752Y016410D03*
X030752Y016910D03*
D13*
X031752Y013410D03*
X009752Y016910D03*
X009752Y007910D03*
D14*
X006622Y008410D02*
X006624Y008460D01*
X006630Y008510D01*
X006640Y008559D01*
X006654Y008607D01*
X006671Y008654D01*
X006692Y008699D01*
X006717Y008743D01*
X006745Y008784D01*
X006777Y008823D01*
X006811Y008860D01*
X006848Y008894D01*
X006888Y008924D01*
X006930Y008951D01*
X006974Y008975D01*
X007020Y008996D01*
X007067Y009012D01*
X007115Y009025D01*
X007165Y009034D01*
X007214Y009039D01*
X007265Y009040D01*
X007315Y009037D01*
X007364Y009030D01*
X007413Y009019D01*
X007461Y009004D01*
X007507Y008986D01*
X007552Y008964D01*
X007595Y008938D01*
X007636Y008909D01*
X007675Y008877D01*
X007711Y008842D01*
X007743Y008804D01*
X007773Y008764D01*
X007800Y008721D01*
X007823Y008677D01*
X007842Y008631D01*
X007858Y008583D01*
X007870Y008534D01*
X007878Y008485D01*
X007882Y008435D01*
X007882Y008385D01*
X007878Y008335D01*
X007870Y008286D01*
X007858Y008237D01*
X007842Y008189D01*
X007823Y008143D01*
X007800Y008099D01*
X007773Y008056D01*
X007743Y008016D01*
X007711Y007978D01*
X007675Y007943D01*
X007636Y007911D01*
X007595Y007882D01*
X007552Y007856D01*
X007507Y007834D01*
X007461Y007816D01*
X007413Y007801D01*
X007364Y007790D01*
X007315Y007783D01*
X007265Y007780D01*
X007214Y007781D01*
X007165Y007786D01*
X007115Y007795D01*
X007067Y007808D01*
X007020Y007824D01*
X006974Y007845D01*
X006930Y007869D01*
X006888Y007896D01*
X006848Y007926D01*
X006811Y007960D01*
X006777Y007997D01*
X006745Y008036D01*
X006717Y008077D01*
X006692Y008121D01*
X006671Y008166D01*
X006654Y008213D01*
X006640Y008261D01*
X006630Y008310D01*
X006624Y008360D01*
X006622Y008410D01*
X006622Y003910D02*
X006624Y003960D01*
X006630Y004010D01*
X006640Y004059D01*
X006654Y004107D01*
X006671Y004154D01*
X006692Y004199D01*
X006717Y004243D01*
X006745Y004284D01*
X006777Y004323D01*
X006811Y004360D01*
X006848Y004394D01*
X006888Y004424D01*
X006930Y004451D01*
X006974Y004475D01*
X007020Y004496D01*
X007067Y004512D01*
X007115Y004525D01*
X007165Y004534D01*
X007214Y004539D01*
X007265Y004540D01*
X007315Y004537D01*
X007364Y004530D01*
X007413Y004519D01*
X007461Y004504D01*
X007507Y004486D01*
X007552Y004464D01*
X007595Y004438D01*
X007636Y004409D01*
X007675Y004377D01*
X007711Y004342D01*
X007743Y004304D01*
X007773Y004264D01*
X007800Y004221D01*
X007823Y004177D01*
X007842Y004131D01*
X007858Y004083D01*
X007870Y004034D01*
X007878Y003985D01*
X007882Y003935D01*
X007882Y003885D01*
X007878Y003835D01*
X007870Y003786D01*
X007858Y003737D01*
X007842Y003689D01*
X007823Y003643D01*
X007800Y003599D01*
X007773Y003556D01*
X007743Y003516D01*
X007711Y003478D01*
X007675Y003443D01*
X007636Y003411D01*
X007595Y003382D01*
X007552Y003356D01*
X007507Y003334D01*
X007461Y003316D01*
X007413Y003301D01*
X007364Y003290D01*
X007315Y003283D01*
X007265Y003280D01*
X007214Y003281D01*
X007165Y003286D01*
X007115Y003295D01*
X007067Y003308D01*
X007020Y003324D01*
X006974Y003345D01*
X006930Y003369D01*
X006888Y003396D01*
X006848Y003426D01*
X006811Y003460D01*
X006777Y003497D01*
X006745Y003536D01*
X006717Y003577D01*
X006692Y003621D01*
X006671Y003666D01*
X006654Y003713D01*
X006640Y003761D01*
X006630Y003810D01*
X006624Y003860D01*
X006622Y003910D01*
X006622Y012910D02*
X006624Y012960D01*
X006630Y013010D01*
X006640Y013059D01*
X006654Y013107D01*
X006671Y013154D01*
X006692Y013199D01*
X006717Y013243D01*
X006745Y013284D01*
X006777Y013323D01*
X006811Y013360D01*
X006848Y013394D01*
X006888Y013424D01*
X006930Y013451D01*
X006974Y013475D01*
X007020Y013496D01*
X007067Y013512D01*
X007115Y013525D01*
X007165Y013534D01*
X007214Y013539D01*
X007265Y013540D01*
X007315Y013537D01*
X007364Y013530D01*
X007413Y013519D01*
X007461Y013504D01*
X007507Y013486D01*
X007552Y013464D01*
X007595Y013438D01*
X007636Y013409D01*
X007675Y013377D01*
X007711Y013342D01*
X007743Y013304D01*
X007773Y013264D01*
X007800Y013221D01*
X007823Y013177D01*
X007842Y013131D01*
X007858Y013083D01*
X007870Y013034D01*
X007878Y012985D01*
X007882Y012935D01*
X007882Y012885D01*
X007878Y012835D01*
X007870Y012786D01*
X007858Y012737D01*
X007842Y012689D01*
X007823Y012643D01*
X007800Y012599D01*
X007773Y012556D01*
X007743Y012516D01*
X007711Y012478D01*
X007675Y012443D01*
X007636Y012411D01*
X007595Y012382D01*
X007552Y012356D01*
X007507Y012334D01*
X007461Y012316D01*
X007413Y012301D01*
X007364Y012290D01*
X007315Y012283D01*
X007265Y012280D01*
X007214Y012281D01*
X007165Y012286D01*
X007115Y012295D01*
X007067Y012308D01*
X007020Y012324D01*
X006974Y012345D01*
X006930Y012369D01*
X006888Y012396D01*
X006848Y012426D01*
X006811Y012460D01*
X006777Y012497D01*
X006745Y012536D01*
X006717Y012577D01*
X006692Y012621D01*
X006671Y012666D01*
X006654Y012713D01*
X006640Y012761D01*
X006630Y012810D01*
X006624Y012860D01*
X006622Y012910D01*
X006622Y017410D02*
X006624Y017460D01*
X006630Y017510D01*
X006640Y017559D01*
X006654Y017607D01*
X006671Y017654D01*
X006692Y017699D01*
X006717Y017743D01*
X006745Y017784D01*
X006777Y017823D01*
X006811Y017860D01*
X006848Y017894D01*
X006888Y017924D01*
X006930Y017951D01*
X006974Y017975D01*
X007020Y017996D01*
X007067Y018012D01*
X007115Y018025D01*
X007165Y018034D01*
X007214Y018039D01*
X007265Y018040D01*
X007315Y018037D01*
X007364Y018030D01*
X007413Y018019D01*
X007461Y018004D01*
X007507Y017986D01*
X007552Y017964D01*
X007595Y017938D01*
X007636Y017909D01*
X007675Y017877D01*
X007711Y017842D01*
X007743Y017804D01*
X007773Y017764D01*
X007800Y017721D01*
X007823Y017677D01*
X007842Y017631D01*
X007858Y017583D01*
X007870Y017534D01*
X007878Y017485D01*
X007882Y017435D01*
X007882Y017385D01*
X007878Y017335D01*
X007870Y017286D01*
X007858Y017237D01*
X007842Y017189D01*
X007823Y017143D01*
X007800Y017099D01*
X007773Y017056D01*
X007743Y017016D01*
X007711Y016978D01*
X007675Y016943D01*
X007636Y016911D01*
X007595Y016882D01*
X007552Y016856D01*
X007507Y016834D01*
X007461Y016816D01*
X007413Y016801D01*
X007364Y016790D01*
X007315Y016783D01*
X007265Y016780D01*
X007214Y016781D01*
X007165Y016786D01*
X007115Y016795D01*
X007067Y016808D01*
X007020Y016824D01*
X006974Y016845D01*
X006930Y016869D01*
X006888Y016896D01*
X006848Y016926D01*
X006811Y016960D01*
X006777Y016997D01*
X006745Y017036D01*
X006717Y017077D01*
X006692Y017121D01*
X006671Y017166D01*
X006654Y017213D01*
X006640Y017261D01*
X006630Y017310D01*
X006624Y017360D01*
X006622Y017410D01*
X033622Y017410D02*
X033624Y017460D01*
X033630Y017510D01*
X033640Y017559D01*
X033654Y017607D01*
X033671Y017654D01*
X033692Y017699D01*
X033717Y017743D01*
X033745Y017784D01*
X033777Y017823D01*
X033811Y017860D01*
X033848Y017894D01*
X033888Y017924D01*
X033930Y017951D01*
X033974Y017975D01*
X034020Y017996D01*
X034067Y018012D01*
X034115Y018025D01*
X034165Y018034D01*
X034214Y018039D01*
X034265Y018040D01*
X034315Y018037D01*
X034364Y018030D01*
X034413Y018019D01*
X034461Y018004D01*
X034507Y017986D01*
X034552Y017964D01*
X034595Y017938D01*
X034636Y017909D01*
X034675Y017877D01*
X034711Y017842D01*
X034743Y017804D01*
X034773Y017764D01*
X034800Y017721D01*
X034823Y017677D01*
X034842Y017631D01*
X034858Y017583D01*
X034870Y017534D01*
X034878Y017485D01*
X034882Y017435D01*
X034882Y017385D01*
X034878Y017335D01*
X034870Y017286D01*
X034858Y017237D01*
X034842Y017189D01*
X034823Y017143D01*
X034800Y017099D01*
X034773Y017056D01*
X034743Y017016D01*
X034711Y016978D01*
X034675Y016943D01*
X034636Y016911D01*
X034595Y016882D01*
X034552Y016856D01*
X034507Y016834D01*
X034461Y016816D01*
X034413Y016801D01*
X034364Y016790D01*
X034315Y016783D01*
X034265Y016780D01*
X034214Y016781D01*
X034165Y016786D01*
X034115Y016795D01*
X034067Y016808D01*
X034020Y016824D01*
X033974Y016845D01*
X033930Y016869D01*
X033888Y016896D01*
X033848Y016926D01*
X033811Y016960D01*
X033777Y016997D01*
X033745Y017036D01*
X033717Y017077D01*
X033692Y017121D01*
X033671Y017166D01*
X033654Y017213D01*
X033640Y017261D01*
X033630Y017310D01*
X033624Y017360D01*
X033622Y017410D01*
X033622Y012910D02*
X033624Y012960D01*
X033630Y013010D01*
X033640Y013059D01*
X033654Y013107D01*
X033671Y013154D01*
X033692Y013199D01*
X033717Y013243D01*
X033745Y013284D01*
X033777Y013323D01*
X033811Y013360D01*
X033848Y013394D01*
X033888Y013424D01*
X033930Y013451D01*
X033974Y013475D01*
X034020Y013496D01*
X034067Y013512D01*
X034115Y013525D01*
X034165Y013534D01*
X034214Y013539D01*
X034265Y013540D01*
X034315Y013537D01*
X034364Y013530D01*
X034413Y013519D01*
X034461Y013504D01*
X034507Y013486D01*
X034552Y013464D01*
X034595Y013438D01*
X034636Y013409D01*
X034675Y013377D01*
X034711Y013342D01*
X034743Y013304D01*
X034773Y013264D01*
X034800Y013221D01*
X034823Y013177D01*
X034842Y013131D01*
X034858Y013083D01*
X034870Y013034D01*
X034878Y012985D01*
X034882Y012935D01*
X034882Y012885D01*
X034878Y012835D01*
X034870Y012786D01*
X034858Y012737D01*
X034842Y012689D01*
X034823Y012643D01*
X034800Y012599D01*
X034773Y012556D01*
X034743Y012516D01*
X034711Y012478D01*
X034675Y012443D01*
X034636Y012411D01*
X034595Y012382D01*
X034552Y012356D01*
X034507Y012334D01*
X034461Y012316D01*
X034413Y012301D01*
X034364Y012290D01*
X034315Y012283D01*
X034265Y012280D01*
X034214Y012281D01*
X034165Y012286D01*
X034115Y012295D01*
X034067Y012308D01*
X034020Y012324D01*
X033974Y012345D01*
X033930Y012369D01*
X033888Y012396D01*
X033848Y012426D01*
X033811Y012460D01*
X033777Y012497D01*
X033745Y012536D01*
X033717Y012577D01*
X033692Y012621D01*
X033671Y012666D01*
X033654Y012713D01*
X033640Y012761D01*
X033630Y012810D01*
X033624Y012860D01*
X033622Y012910D01*
D15*
X028469Y006947D03*
X028469Y006160D03*
X028469Y005373D03*
X026469Y005373D03*
X026469Y006160D03*
X026469Y006947D03*
X024469Y006947D03*
X024469Y006160D03*
X024469Y005373D03*
X022469Y005373D03*
X022469Y006160D03*
X022469Y006947D03*
X020469Y006947D03*
X020469Y006160D03*
X020469Y005373D03*
X018469Y005373D03*
X018469Y006160D03*
X018469Y006947D03*
X016469Y006947D03*
X016469Y006160D03*
X016469Y005373D03*
X014469Y005373D03*
X014469Y006160D03*
X014469Y006947D03*
D16*
X014752Y002660D03*
X013752Y002660D03*
D17*
X013247Y002649D02*
X006472Y002649D01*
X006472Y002767D02*
X013250Y002767D01*
X013247Y002760D02*
X013247Y002560D01*
X013324Y002374D01*
X013466Y002232D01*
X013652Y002155D01*
X013853Y002155D01*
X014038Y002232D01*
X014180Y002374D01*
X014252Y002547D01*
X014324Y002374D01*
X014466Y002232D01*
X014652Y002155D01*
X014853Y002155D01*
X015038Y002232D01*
X015180Y002374D01*
X015257Y002560D01*
X015257Y002760D01*
X015180Y002946D01*
X015038Y003088D01*
X014853Y003165D01*
X014652Y003165D01*
X014466Y003088D01*
X014324Y002946D01*
X014252Y002773D01*
X014180Y002946D01*
X014038Y003088D01*
X013853Y003165D01*
X013652Y003165D01*
X013466Y003088D01*
X013324Y002946D01*
X013247Y002760D01*
X013299Y002886D02*
X006472Y002886D01*
X006472Y003004D02*
X013382Y003004D01*
X013549Y003123D02*
X007468Y003123D01*
X007413Y003100D02*
X007711Y003223D01*
X007939Y003451D01*
X008062Y003749D01*
X008062Y004071D01*
X007939Y004369D01*
X007711Y004597D01*
X007413Y004720D01*
X007091Y004720D01*
X006794Y004597D01*
X006566Y004369D01*
X006472Y004143D01*
X006472Y008177D01*
X006566Y007951D01*
X006794Y007723D01*
X007091Y007600D01*
X007413Y007600D01*
X007711Y007723D01*
X007939Y007951D01*
X008062Y008249D01*
X008062Y008571D01*
X007939Y008869D01*
X007711Y009097D01*
X007413Y009220D01*
X007091Y009220D01*
X006794Y009097D01*
X006566Y008869D01*
X006472Y008643D01*
X006472Y012677D01*
X006566Y012451D01*
X006794Y012223D01*
X007091Y012100D01*
X007413Y012100D01*
X007711Y012223D01*
X007939Y012451D01*
X008062Y012749D01*
X008062Y013071D01*
X007939Y013369D01*
X007711Y013597D01*
X007413Y013720D01*
X007091Y013720D01*
X006794Y013597D01*
X006566Y013369D01*
X006472Y013143D01*
X006472Y017177D01*
X006566Y016951D01*
X006794Y016723D01*
X007091Y016600D01*
X007413Y016600D01*
X007711Y016723D01*
X007939Y016951D01*
X008062Y017249D01*
X008062Y017571D01*
X007939Y017869D01*
X007711Y018097D01*
X007413Y018220D01*
X007091Y018220D01*
X006794Y018097D01*
X006566Y017869D01*
X006472Y017643D01*
X006472Y020069D01*
X007343Y020940D01*
X034161Y020940D01*
X035032Y020069D01*
X035032Y017643D01*
X034939Y017869D01*
X034711Y018097D01*
X034413Y018220D01*
X034091Y018220D01*
X033794Y018097D01*
X033566Y017869D01*
X033442Y017571D01*
X033442Y017249D01*
X033566Y016951D01*
X033794Y016723D01*
X034091Y016600D01*
X034413Y016600D01*
X034711Y016723D01*
X034939Y016951D01*
X035032Y017177D01*
X035032Y013143D01*
X034939Y013369D01*
X034711Y013597D01*
X034413Y013720D01*
X034091Y013720D01*
X033794Y013597D01*
X033566Y013369D01*
X033442Y013071D01*
X033442Y012749D01*
X033566Y012451D01*
X033794Y012223D01*
X034091Y012100D01*
X034413Y012100D01*
X034711Y012223D01*
X034939Y012451D01*
X035032Y012677D01*
X035032Y001251D01*
X034161Y000380D01*
X007343Y000380D01*
X006472Y001251D01*
X006472Y003677D01*
X006566Y003451D01*
X006794Y003223D01*
X007091Y003100D01*
X007413Y003100D01*
X007729Y003241D02*
X015205Y003241D01*
X015323Y003123D02*
X014955Y003123D01*
X015123Y003004D02*
X015442Y003004D01*
X015560Y002886D02*
X015206Y002886D01*
X015255Y002767D02*
X015679Y002767D01*
X015797Y002649D02*
X015257Y002649D01*
X015245Y002530D02*
X015916Y002530D01*
X015973Y002473D02*
X016065Y002380D01*
X016187Y002330D01*
X017116Y002330D01*
X017422Y002023D01*
X017422Y001608D01*
X017286Y001472D01*
X017252Y001390D01*
X017219Y001472D01*
X017064Y001626D01*
X016862Y001710D01*
X016643Y001710D01*
X016441Y001626D01*
X016286Y001472D01*
X016252Y001390D01*
X016219Y001472D01*
X016064Y001626D01*
X015862Y001710D01*
X015643Y001710D01*
X015441Y001626D01*
X015286Y001472D01*
X015202Y001269D01*
X015202Y001051D01*
X015286Y000848D01*
X015441Y000694D01*
X015643Y000610D01*
X015862Y000610D01*
X016064Y000694D01*
X016219Y000848D01*
X016252Y000930D01*
X016286Y000848D01*
X016441Y000694D01*
X016643Y000610D01*
X016862Y000610D01*
X017064Y000694D01*
X017219Y000848D01*
X017252Y000930D01*
X017286Y000848D01*
X017441Y000694D01*
X017643Y000610D01*
X017862Y000610D01*
X018064Y000694D01*
X018219Y000848D01*
X018262Y000954D01*
X018299Y000882D01*
X018348Y000815D01*
X018407Y000756D01*
X018475Y000707D01*
X018549Y000669D01*
X018628Y000643D01*
X018711Y000630D01*
X018712Y000630D01*
X018712Y001120D01*
X018792Y001120D01*
X018792Y000630D01*
X018794Y000630D01*
X018876Y000643D01*
X018956Y000669D01*
X019030Y000707D01*
X019098Y000756D01*
X019157Y000815D01*
X019206Y000882D01*
X019244Y000957D01*
X019252Y000984D01*
X019261Y000957D01*
X019299Y000882D01*
X019348Y000815D01*
X019407Y000756D01*
X019475Y000707D01*
X019549Y000669D01*
X019628Y000643D01*
X019711Y000630D01*
X019712Y000630D01*
X019712Y001120D01*
X019222Y001120D01*
X018792Y001120D01*
X018792Y001200D01*
X018712Y001200D01*
X018712Y001690D01*
X018711Y001690D01*
X018628Y001677D01*
X018549Y001651D01*
X018475Y001613D01*
X018407Y001564D01*
X018348Y001505D01*
X018299Y001438D01*
X018262Y001366D01*
X018219Y001472D01*
X018082Y001608D01*
X018082Y002226D01*
X018032Y002347D01*
X017939Y002440D01*
X017439Y002940D01*
X017318Y002990D01*
X016389Y002990D01*
X014506Y004873D01*
X014568Y004873D01*
X014752Y004949D01*
X014893Y005089D01*
X014969Y005273D01*
X014969Y005472D01*
X014893Y005656D01*
X014782Y005766D01*
X014893Y005877D01*
X014969Y006061D01*
X014969Y006259D01*
X014893Y006443D01*
X014782Y006554D01*
X014893Y006664D01*
X014969Y006848D01*
X014969Y007047D01*
X014893Y007231D01*
X014752Y007371D01*
X014729Y007381D01*
X014729Y007873D01*
X014802Y008051D01*
X014802Y008269D01*
X014719Y008472D01*
X014564Y008626D01*
X014362Y008710D01*
X014143Y008710D01*
X013941Y008626D01*
X013786Y008472D01*
X013702Y008269D01*
X013702Y008051D01*
X013786Y007848D01*
X013941Y007694D01*
X014143Y007610D01*
X014209Y007610D01*
X014209Y007381D01*
X014186Y007371D01*
X014045Y007231D01*
X013969Y007047D01*
X013969Y006848D01*
X014045Y006664D01*
X014155Y006554D01*
X014045Y006443D01*
X013969Y006259D01*
X013969Y006061D01*
X014045Y005877D01*
X014155Y005766D01*
X014045Y005656D01*
X013969Y005472D01*
X013969Y005410D01*
X013727Y005652D01*
X013605Y005703D01*
X012582Y005703D01*
X012582Y010830D01*
X013805Y010830D01*
X013941Y010694D01*
X014143Y010610D01*
X014362Y010610D01*
X014564Y010694D01*
X014700Y010830D01*
X015805Y010830D01*
X015941Y010694D01*
X016143Y010610D01*
X016362Y010610D01*
X016564Y010694D01*
X016700Y010830D01*
X017805Y010830D01*
X017941Y010694D01*
X018143Y010610D01*
X018362Y010610D01*
X018564Y010694D01*
X018700Y010830D01*
X019805Y010830D01*
X019941Y010694D01*
X020143Y010610D01*
X020362Y010610D01*
X020564Y010694D01*
X020700Y010830D01*
X021805Y010830D01*
X021941Y010694D01*
X022143Y010610D01*
X022362Y010610D01*
X022564Y010694D01*
X022700Y010830D01*
X023805Y010830D01*
X023941Y010694D01*
X024143Y010610D01*
X024362Y010610D01*
X024564Y010694D01*
X024700Y010830D01*
X025805Y010830D01*
X025941Y010694D01*
X026143Y010610D01*
X026362Y010610D01*
X026564Y010694D01*
X026700Y010830D01*
X027805Y010830D01*
X027941Y010694D01*
X028143Y010610D01*
X028362Y010610D01*
X028564Y010694D01*
X028658Y010788D01*
X028973Y010473D01*
X029065Y010380D01*
X029187Y010330D01*
X032116Y010330D01*
X032702Y009743D01*
X032702Y009551D01*
X032786Y009348D01*
X032941Y009194D01*
X033143Y009110D01*
X033362Y009110D01*
X033564Y009194D01*
X033719Y009348D01*
X033802Y009551D01*
X033802Y009769D01*
X033719Y009972D01*
X033564Y010126D01*
X033362Y010210D01*
X033169Y010210D01*
X032532Y010847D01*
X032439Y010940D01*
X032318Y010990D01*
X029389Y010990D01*
X028939Y011440D01*
X028818Y011490D01*
X028700Y011490D01*
X028564Y011626D01*
X028362Y011710D01*
X028143Y011710D01*
X027941Y011626D01*
X027805Y011490D01*
X026700Y011490D01*
X026564Y011626D01*
X026362Y011710D01*
X026143Y011710D01*
X025941Y011626D01*
X025805Y011490D01*
X024700Y011490D01*
X024564Y011626D01*
X024362Y011710D01*
X024143Y011710D01*
X023941Y011626D01*
X023805Y011490D01*
X022700Y011490D01*
X022564Y011626D01*
X022362Y011710D01*
X022143Y011710D01*
X021941Y011626D01*
X021805Y011490D01*
X020700Y011490D01*
X020564Y011626D01*
X020362Y011710D01*
X020143Y011710D01*
X019941Y011626D01*
X019805Y011490D01*
X018700Y011490D01*
X018564Y011626D01*
X018362Y011710D01*
X018143Y011710D01*
X017941Y011626D01*
X017805Y011490D01*
X016700Y011490D01*
X016564Y011626D01*
X016362Y011710D01*
X016143Y011710D01*
X015941Y011626D01*
X015805Y011490D01*
X014700Y011490D01*
X014564Y011626D01*
X014362Y011710D01*
X014143Y011710D01*
X013941Y011626D01*
X013805Y011490D01*
X012582Y011490D01*
X012582Y013726D01*
X012532Y013847D01*
X012439Y013940D01*
X011689Y014690D01*
X011568Y014740D01*
X011200Y014740D01*
X011064Y014876D01*
X010982Y014910D01*
X011064Y014944D01*
X011219Y015098D01*
X011302Y015301D01*
X011302Y015519D01*
X011269Y015601D01*
X011982Y016315D01*
X011982Y017853D01*
X012075Y017945D01*
X012132Y018084D01*
X012132Y018236D01*
X012075Y018375D01*
X012020Y018430D01*
X016655Y018430D01*
X016645Y018420D01*
X014701Y018420D01*
X014605Y018380D01*
X014105Y017880D01*
X014032Y017807D01*
X013992Y017712D01*
X013992Y017648D01*
X013941Y017626D01*
X013786Y017472D01*
X013702Y017269D01*
X013702Y017051D01*
X013786Y016848D01*
X013941Y016694D01*
X014143Y016610D01*
X014362Y016610D01*
X014564Y016694D01*
X014719Y016848D01*
X014802Y017051D01*
X014802Y017269D01*
X014719Y017472D01*
X014575Y017615D01*
X014860Y017900D01*
X016625Y017900D01*
X016413Y017689D01*
X016362Y017710D01*
X016143Y017710D01*
X015941Y017626D01*
X015786Y017472D01*
X015702Y017269D01*
X015702Y017051D01*
X015786Y016848D01*
X015941Y016694D01*
X016143Y016610D01*
X016362Y016610D01*
X016564Y016694D01*
X016719Y016848D01*
X016802Y017051D01*
X016802Y017269D01*
X016781Y017321D01*
X019091Y019631D01*
X019143Y019610D01*
X019362Y019610D01*
X019564Y019694D01*
X019719Y019848D01*
X019802Y020051D01*
X019802Y020269D01*
X019719Y020472D01*
X019564Y020626D01*
X019362Y020710D01*
X019143Y020710D01*
X018941Y020626D01*
X018786Y020472D01*
X018752Y020390D01*
X018719Y020472D01*
X018564Y020626D01*
X018362Y020710D01*
X018143Y020710D01*
X017941Y020626D01*
X017786Y020472D01*
X017752Y020390D01*
X017719Y020472D01*
X017564Y020626D01*
X017362Y020710D01*
X017143Y020710D01*
X016941Y020626D01*
X016786Y020472D01*
X016752Y020390D01*
X016719Y020472D01*
X016564Y020626D01*
X016362Y020710D01*
X016143Y020710D01*
X015941Y020626D01*
X015786Y020472D01*
X015752Y020390D01*
X015719Y020472D01*
X015564Y020626D01*
X015362Y020710D01*
X015143Y020710D01*
X014941Y020626D01*
X014786Y020472D01*
X014752Y020390D01*
X014719Y020472D01*
X014564Y020626D01*
X014362Y020710D01*
X014143Y020710D01*
X013941Y020626D01*
X013786Y020472D01*
X013742Y020366D01*
X013706Y020438D01*
X013657Y020505D01*
X013598Y020564D01*
X013530Y020613D01*
X013456Y020651D01*
X013376Y020677D01*
X013294Y020690D01*
X013292Y020690D01*
X013292Y020200D01*
X013212Y020200D01*
X013212Y020690D01*
X013211Y020690D01*
X013128Y020677D01*
X013049Y020651D01*
X012975Y020613D01*
X012907Y020564D01*
X012848Y020505D01*
X012799Y020438D01*
X012762Y020366D01*
X012719Y020472D01*
X012564Y020626D01*
X012362Y020710D01*
X012143Y020710D01*
X011941Y020626D01*
X011786Y020472D01*
X011702Y020269D01*
X011702Y020051D01*
X011786Y019848D01*
X011941Y019694D01*
X012143Y019610D01*
X012362Y019610D01*
X012564Y019694D01*
X012719Y019848D01*
X012762Y019954D01*
X012799Y019882D01*
X012848Y019815D01*
X012907Y019756D01*
X012975Y019707D01*
X013049Y019669D01*
X013128Y019643D01*
X013211Y019630D01*
X013212Y019630D01*
X013212Y020120D01*
X013292Y020120D01*
X013292Y019630D01*
X013294Y019630D01*
X013376Y019643D01*
X013456Y019669D01*
X013530Y019707D01*
X013598Y019756D01*
X013657Y019815D01*
X013706Y019882D01*
X013742Y019954D01*
X013786Y019848D01*
X013941Y019694D01*
X014143Y019610D01*
X014362Y019610D01*
X014564Y019694D01*
X014719Y019848D01*
X014752Y019930D01*
X014786Y019848D01*
X014941Y019694D01*
X014955Y019688D01*
X014657Y019390D01*
X009157Y019390D01*
X009022Y019255D01*
X008522Y018755D01*
X008522Y016065D01*
X008657Y015930D01*
X008907Y015680D01*
X009252Y015680D01*
X009286Y015598D01*
X009441Y015444D01*
X009522Y015410D01*
X009441Y015376D01*
X009286Y015222D01*
X009202Y015019D01*
X009202Y014801D01*
X009286Y014598D01*
X009441Y014444D01*
X009547Y014400D01*
X009475Y014363D01*
X009407Y014314D01*
X009348Y014255D01*
X009299Y014188D01*
X009261Y014113D01*
X009235Y014034D01*
X009222Y013952D01*
X009222Y013948D01*
X009714Y013948D01*
X009714Y013872D01*
X009222Y013872D01*
X009222Y013868D01*
X009235Y013786D01*
X009261Y013707D01*
X009299Y013632D01*
X009348Y013565D01*
X009407Y013506D01*
X009475Y013457D01*
X009549Y013419D01*
X009628Y013393D01*
X009711Y013380D01*
X009714Y013380D01*
X009714Y013872D01*
X009791Y013872D01*
X009791Y013948D01*
X010282Y013948D01*
X010282Y013952D01*
X010269Y014034D01*
X010244Y014113D01*
X010206Y014188D01*
X010157Y014255D01*
X010098Y014314D01*
X010030Y014363D01*
X009958Y014400D01*
X010064Y014444D01*
X010158Y014538D01*
X010202Y014493D01*
X010202Y014301D01*
X010286Y014098D01*
X010441Y013944D01*
X010547Y013900D01*
X010475Y013863D01*
X010407Y013814D01*
X010348Y013755D01*
X010299Y013688D01*
X010261Y013613D01*
X010235Y013534D01*
X010222Y013452D01*
X010222Y013448D01*
X010714Y013448D01*
X010714Y013372D01*
X010222Y013372D01*
X010222Y013368D01*
X010235Y013286D01*
X010261Y013207D01*
X010299Y013132D01*
X010348Y013065D01*
X010407Y013006D01*
X010475Y012957D01*
X010549Y012919D01*
X010628Y012893D01*
X010711Y012880D01*
X010714Y012880D01*
X010714Y013372D01*
X010791Y013372D01*
X010791Y013448D01*
X011282Y013448D01*
X011282Y013452D01*
X011269Y013534D01*
X011244Y013613D01*
X011206Y013688D01*
X011157Y013755D01*
X011098Y013814D01*
X011030Y013863D01*
X010958Y013900D01*
X011064Y013944D01*
X011200Y014080D01*
X011366Y014080D01*
X011922Y013523D01*
X011922Y005703D01*
X011226Y005703D01*
X011219Y005722D01*
X011064Y005876D01*
X010982Y005910D01*
X011064Y005944D01*
X011219Y006098D01*
X011302Y006301D01*
X011302Y006519D01*
X011219Y006722D01*
X011064Y006876D01*
X010982Y006910D01*
X011064Y006944D01*
X011219Y007098D01*
X011302Y007301D01*
X011302Y007519D01*
X011219Y007722D01*
X011064Y007876D01*
X010862Y007960D01*
X010643Y007960D01*
X010441Y007876D01*
X010302Y007738D01*
X010302Y008355D01*
X010197Y008460D01*
X009308Y008460D01*
X009202Y008355D01*
X009202Y007465D01*
X009308Y007360D01*
X009425Y007360D01*
X009286Y007222D01*
X009202Y007019D01*
X009202Y006801D01*
X009286Y006598D01*
X009441Y006444D01*
X009522Y006410D01*
X009441Y006376D01*
X009286Y006222D01*
X009202Y006019D01*
X009202Y005801D01*
X009286Y005598D01*
X009441Y005444D01*
X009547Y005400D01*
X009475Y005363D01*
X009407Y005314D01*
X009348Y005255D01*
X009299Y005188D01*
X009261Y005113D01*
X009235Y005034D01*
X009222Y004952D01*
X009222Y004948D01*
X009714Y004948D01*
X009714Y004872D01*
X009222Y004872D01*
X009222Y004868D01*
X009235Y004786D01*
X009261Y004707D01*
X009299Y004632D01*
X009348Y004565D01*
X009407Y004506D01*
X009475Y004457D01*
X009549Y004419D01*
X009628Y004393D01*
X009711Y004380D01*
X009714Y004380D01*
X009714Y004872D01*
X009791Y004872D01*
X009791Y004948D01*
X010282Y004948D01*
X010282Y004952D01*
X010269Y005034D01*
X010244Y005113D01*
X010206Y005188D01*
X010157Y005255D01*
X010098Y005314D01*
X010030Y005363D01*
X009958Y005400D01*
X010064Y005444D01*
X010158Y005538D01*
X010202Y005493D01*
X010202Y005301D01*
X010286Y005098D01*
X010441Y004944D01*
X010547Y004900D01*
X010475Y004863D01*
X010407Y004814D01*
X010348Y004755D01*
X010299Y004688D01*
X010261Y004613D01*
X010235Y004534D01*
X010222Y004452D01*
X010222Y004448D01*
X010714Y004448D01*
X010714Y004372D01*
X010222Y004372D01*
X010222Y004368D01*
X010235Y004286D01*
X010261Y004207D01*
X010299Y004132D01*
X010348Y004065D01*
X010407Y004006D01*
X010475Y003957D01*
X010549Y003919D01*
X010628Y003893D01*
X010711Y003880D01*
X010714Y003880D01*
X010714Y004372D01*
X010791Y004372D01*
X010791Y004448D01*
X011282Y004448D01*
X011282Y004452D01*
X011269Y004534D01*
X011244Y004613D01*
X011206Y004688D01*
X011157Y004755D01*
X011098Y004814D01*
X011030Y004863D01*
X010958Y004900D01*
X011064Y004944D01*
X011163Y005043D01*
X013403Y005043D01*
X015973Y002473D01*
X016034Y002412D02*
X015196Y002412D01*
X015100Y002293D02*
X017153Y002293D01*
X017271Y002175D02*
X014900Y002175D01*
X014605Y002175D02*
X013900Y002175D01*
X014100Y002293D02*
X014405Y002293D01*
X014309Y002412D02*
X014196Y002412D01*
X014245Y002530D02*
X014260Y002530D01*
X013605Y002175D02*
X006472Y002175D01*
X006472Y002293D02*
X013405Y002293D01*
X013309Y002412D02*
X006472Y002412D01*
X006472Y002530D02*
X013260Y002530D01*
X014123Y003004D02*
X014382Y003004D01*
X014299Y002886D02*
X014206Y002886D01*
X013955Y003123D02*
X014549Y003123D01*
X014968Y003478D02*
X007950Y003478D01*
X007999Y003597D02*
X014849Y003597D01*
X014731Y003715D02*
X008048Y003715D01*
X008062Y003834D02*
X014612Y003834D01*
X014494Y003952D02*
X011021Y003952D01*
X011030Y003957D02*
X011098Y004006D01*
X011157Y004065D01*
X011206Y004132D01*
X011244Y004207D01*
X011269Y004286D01*
X011282Y004368D01*
X011282Y004372D01*
X010791Y004372D01*
X010791Y003880D01*
X010794Y003880D01*
X010876Y003893D01*
X010956Y003919D01*
X011030Y003957D01*
X011161Y004071D02*
X014375Y004071D01*
X014257Y004189D02*
X011235Y004189D01*
X011273Y004308D02*
X014138Y004308D01*
X014020Y004426D02*
X010791Y004426D01*
X010714Y004426D02*
X009970Y004426D01*
X009956Y004419D02*
X010030Y004457D01*
X010098Y004506D01*
X010157Y004565D01*
X010206Y004632D01*
X010244Y004707D01*
X010269Y004786D01*
X010282Y004868D01*
X010282Y004872D01*
X009791Y004872D01*
X009791Y004380D01*
X009794Y004380D01*
X009876Y004393D01*
X009956Y004419D01*
X009791Y004426D02*
X009714Y004426D01*
X009714Y004545D02*
X009791Y004545D01*
X009791Y004663D02*
X009714Y004663D01*
X009714Y004782D02*
X009791Y004782D01*
X009791Y004900D02*
X010546Y004900D01*
X010374Y004782D02*
X010268Y004782D01*
X010286Y004663D02*
X010221Y004663D01*
X010239Y004545D02*
X010136Y004545D01*
X010232Y004308D02*
X007964Y004308D01*
X008013Y004189D02*
X010270Y004189D01*
X010344Y004071D02*
X008062Y004071D01*
X008062Y003952D02*
X010484Y003952D01*
X010714Y003952D02*
X010791Y003952D01*
X010791Y004071D02*
X010714Y004071D01*
X010714Y004189D02*
X010791Y004189D01*
X010791Y004308D02*
X010714Y004308D01*
X011266Y004545D02*
X013901Y004545D01*
X013783Y004663D02*
X011218Y004663D01*
X011130Y004782D02*
X013664Y004782D01*
X013546Y004900D02*
X010958Y004900D01*
X011139Y005019D02*
X013427Y005019D01*
X013887Y005493D02*
X013977Y005493D01*
X014026Y005611D02*
X013768Y005611D01*
X014119Y005730D02*
X012582Y005730D01*
X012582Y005848D02*
X014074Y005848D01*
X014008Y005967D02*
X012582Y005967D01*
X012582Y006085D02*
X013969Y006085D01*
X013969Y006204D02*
X012582Y006204D01*
X012582Y006322D02*
X013995Y006322D01*
X014044Y006441D02*
X012582Y006441D01*
X012582Y006559D02*
X014150Y006559D01*
X014039Y006678D02*
X012582Y006678D01*
X012582Y006796D02*
X013990Y006796D01*
X013969Y006915D02*
X012582Y006915D01*
X012582Y007033D02*
X013969Y007033D01*
X014012Y007152D02*
X012582Y007152D01*
X012582Y007270D02*
X014084Y007270D01*
X014209Y007389D02*
X012582Y007389D01*
X012582Y007507D02*
X014209Y007507D01*
X014106Y007626D02*
X012582Y007626D01*
X012582Y007744D02*
X013891Y007744D01*
X013780Y007863D02*
X012582Y007863D01*
X012582Y007981D02*
X013731Y007981D01*
X013702Y008100D02*
X012582Y008100D01*
X012582Y008218D02*
X013702Y008218D01*
X013730Y008337D02*
X012582Y008337D01*
X012582Y008455D02*
X013779Y008455D01*
X013888Y008574D02*
X012582Y008574D01*
X012582Y008692D02*
X014100Y008692D01*
X014405Y008692D02*
X016100Y008692D01*
X016143Y008710D02*
X015941Y008626D01*
X015786Y008472D01*
X015702Y008269D01*
X015702Y008051D01*
X015786Y007848D01*
X015941Y007694D01*
X016143Y007610D01*
X016209Y007610D01*
X016209Y007381D01*
X016186Y007371D01*
X016045Y007231D01*
X015969Y007047D01*
X015969Y006848D01*
X016045Y006664D01*
X016155Y006554D01*
X016045Y006443D01*
X015969Y006259D01*
X015969Y006061D01*
X016045Y005877D01*
X016155Y005766D01*
X016045Y005656D01*
X015969Y005472D01*
X015969Y005273D01*
X016045Y005089D01*
X016186Y004949D01*
X016369Y004873D01*
X016568Y004873D01*
X016752Y004949D01*
X016893Y005089D01*
X016969Y005273D01*
X016969Y005472D01*
X016893Y005656D01*
X016782Y005766D01*
X016893Y005877D01*
X016969Y006061D01*
X016969Y006259D01*
X016893Y006443D01*
X016782Y006554D01*
X016893Y006664D01*
X016969Y006848D01*
X016969Y007047D01*
X016893Y007231D01*
X016752Y007371D01*
X016729Y007381D01*
X016729Y007873D01*
X016802Y008051D01*
X016802Y008269D01*
X016719Y008472D01*
X016564Y008626D01*
X016362Y008710D01*
X016143Y008710D01*
X016405Y008692D02*
X018100Y008692D01*
X018143Y008710D02*
X017941Y008626D01*
X017786Y008472D01*
X017702Y008269D01*
X017702Y008051D01*
X017786Y007848D01*
X017941Y007694D01*
X018143Y007610D01*
X018209Y007610D01*
X018209Y007381D01*
X018186Y007371D01*
X018045Y007231D01*
X017969Y007047D01*
X017969Y006848D01*
X018045Y006664D01*
X018155Y006554D01*
X018045Y006443D01*
X017969Y006259D01*
X017969Y006061D01*
X018045Y005877D01*
X018155Y005766D01*
X018045Y005656D01*
X017969Y005472D01*
X017969Y005273D01*
X018045Y005089D01*
X018186Y004949D01*
X018369Y004873D01*
X018568Y004873D01*
X018752Y004949D01*
X018893Y005089D01*
X018969Y005273D01*
X018969Y005472D01*
X018893Y005656D01*
X018782Y005766D01*
X018893Y005877D01*
X018969Y006061D01*
X018969Y006259D01*
X018893Y006443D01*
X018782Y006554D01*
X018893Y006664D01*
X018969Y006848D01*
X018969Y007047D01*
X018893Y007231D01*
X018752Y007371D01*
X018729Y007381D01*
X018729Y007873D01*
X018802Y008051D01*
X018802Y008269D01*
X018719Y008472D01*
X018564Y008626D01*
X018362Y008710D01*
X018143Y008710D01*
X018405Y008692D02*
X020100Y008692D01*
X020143Y008710D02*
X019941Y008626D01*
X019786Y008472D01*
X019702Y008269D01*
X019702Y008051D01*
X019786Y007848D01*
X019941Y007694D01*
X020143Y007610D01*
X020209Y007610D01*
X020209Y007381D01*
X020186Y007371D01*
X020045Y007231D01*
X019969Y007047D01*
X019969Y006848D01*
X020045Y006664D01*
X020155Y006554D01*
X020045Y006443D01*
X019969Y006259D01*
X019969Y006061D01*
X020045Y005877D01*
X020155Y005766D01*
X020045Y005656D01*
X019969Y005472D01*
X019969Y005273D01*
X020045Y005089D01*
X020186Y004949D01*
X020369Y004873D01*
X020568Y004873D01*
X020752Y004949D01*
X020893Y005089D01*
X020969Y005273D01*
X020969Y005472D01*
X020893Y005656D01*
X020782Y005766D01*
X020893Y005877D01*
X020969Y006061D01*
X020969Y006259D01*
X020893Y006443D01*
X020782Y006554D01*
X020893Y006664D01*
X020969Y006848D01*
X020969Y007047D01*
X020893Y007231D01*
X020752Y007371D01*
X020729Y007381D01*
X020729Y007873D01*
X020802Y008051D01*
X020802Y008269D01*
X020719Y008472D01*
X020564Y008626D01*
X020362Y008710D01*
X020143Y008710D01*
X020405Y008692D02*
X022100Y008692D01*
X022143Y008710D02*
X021941Y008626D01*
X021786Y008472D01*
X021702Y008269D01*
X021702Y008051D01*
X021786Y007848D01*
X021941Y007694D01*
X022143Y007610D01*
X022209Y007610D01*
X022209Y007381D01*
X022186Y007371D01*
X022045Y007231D01*
X021969Y007047D01*
X021969Y006848D01*
X022045Y006664D01*
X022155Y006554D01*
X022045Y006443D01*
X021969Y006259D01*
X021969Y006061D01*
X022045Y005877D01*
X022155Y005766D01*
X022045Y005656D01*
X021969Y005472D01*
X021969Y005273D01*
X022045Y005089D01*
X022186Y004949D01*
X022369Y004873D01*
X022568Y004873D01*
X022752Y004949D01*
X022893Y005089D01*
X022969Y005273D01*
X022969Y005472D01*
X022893Y005656D01*
X022782Y005766D01*
X022893Y005877D01*
X022969Y006061D01*
X022969Y006259D01*
X022893Y006443D01*
X022782Y006554D01*
X022893Y006664D01*
X022969Y006848D01*
X022969Y007047D01*
X022893Y007231D01*
X022752Y007371D01*
X022729Y007381D01*
X022729Y007873D01*
X022802Y008051D01*
X022802Y008269D01*
X022719Y008472D01*
X022564Y008626D01*
X022362Y008710D01*
X022143Y008710D01*
X022405Y008692D02*
X024100Y008692D01*
X024143Y008710D02*
X023941Y008626D01*
X023786Y008472D01*
X023702Y008269D01*
X023702Y008051D01*
X023786Y007848D01*
X023941Y007694D01*
X024143Y007610D01*
X024209Y007610D01*
X024209Y007381D01*
X024186Y007371D01*
X024045Y007231D01*
X023969Y007047D01*
X023969Y006848D01*
X024045Y006664D01*
X024155Y006554D01*
X024045Y006443D01*
X023969Y006259D01*
X023969Y006061D01*
X024045Y005877D01*
X024155Y005766D01*
X024045Y005656D01*
X023969Y005472D01*
X023969Y005273D01*
X024045Y005089D01*
X024186Y004949D01*
X024369Y004873D01*
X024568Y004873D01*
X024752Y004949D01*
X024893Y005089D01*
X024969Y005273D01*
X024969Y005472D01*
X024893Y005656D01*
X024782Y005766D01*
X024893Y005877D01*
X024969Y006061D01*
X024969Y006259D01*
X024893Y006443D01*
X024782Y006554D01*
X024893Y006664D01*
X024969Y006848D01*
X024969Y007047D01*
X024893Y007231D01*
X024752Y007371D01*
X024729Y007381D01*
X024729Y007873D01*
X024802Y008051D01*
X024802Y008269D01*
X024719Y008472D01*
X024564Y008626D01*
X024362Y008710D01*
X024143Y008710D01*
X024405Y008692D02*
X026100Y008692D01*
X026143Y008710D02*
X025941Y008626D01*
X025786Y008472D01*
X025702Y008269D01*
X025702Y008051D01*
X025786Y007848D01*
X025941Y007694D01*
X026143Y007610D01*
X026209Y007610D01*
X026209Y007381D01*
X026186Y007371D01*
X026045Y007231D01*
X025969Y007047D01*
X025969Y006848D01*
X026045Y006664D01*
X026155Y006554D01*
X026045Y006443D01*
X025969Y006259D01*
X025969Y006061D01*
X026045Y005877D01*
X026155Y005766D01*
X026045Y005656D01*
X025969Y005472D01*
X025969Y005273D01*
X026045Y005089D01*
X026186Y004949D01*
X026369Y004873D01*
X026568Y004873D01*
X026752Y004949D01*
X026893Y005089D01*
X026969Y005273D01*
X026969Y005472D01*
X026893Y005656D01*
X026782Y005766D01*
X026893Y005877D01*
X026969Y006061D01*
X026969Y006259D01*
X026893Y006443D01*
X026782Y006554D01*
X026893Y006664D01*
X026969Y006848D01*
X026969Y007047D01*
X026893Y007231D01*
X026752Y007371D01*
X026729Y007381D01*
X026729Y007873D01*
X026802Y008051D01*
X026802Y008269D01*
X026719Y008472D01*
X026564Y008626D01*
X026362Y008710D01*
X026143Y008710D01*
X026405Y008692D02*
X028100Y008692D01*
X028143Y008710D02*
X027941Y008626D01*
X027786Y008472D01*
X027702Y008269D01*
X027702Y008051D01*
X027786Y007848D01*
X027941Y007694D01*
X028143Y007610D01*
X028209Y007610D01*
X028209Y007381D01*
X028186Y007371D01*
X028045Y007231D01*
X027969Y007047D01*
X027969Y006848D01*
X028045Y006664D01*
X028155Y006554D01*
X028045Y006443D01*
X027969Y006259D01*
X027969Y006061D01*
X028045Y005877D01*
X028155Y005766D01*
X028045Y005656D01*
X027969Y005472D01*
X027969Y005273D01*
X028045Y005089D01*
X028186Y004949D01*
X028369Y004873D01*
X028568Y004873D01*
X028752Y004949D01*
X028893Y005089D01*
X028922Y005161D01*
X028922Y003297D01*
X028616Y002990D01*
X021187Y002990D01*
X021065Y002940D01*
X020973Y002847D01*
X020473Y002347D01*
X020422Y002226D01*
X020422Y001608D01*
X020286Y001472D01*
X020242Y001366D01*
X020206Y001438D01*
X020157Y001505D01*
X020098Y001564D01*
X020030Y001613D01*
X019956Y001651D01*
X019876Y001677D01*
X019794Y001690D01*
X019792Y001690D01*
X019792Y001200D01*
X019712Y001200D01*
X019712Y001120D01*
X019792Y001120D01*
X019792Y000630D01*
X019794Y000630D01*
X019876Y000643D01*
X019956Y000669D01*
X020030Y000707D01*
X020098Y000756D01*
X020157Y000815D01*
X020206Y000882D01*
X020242Y000954D01*
X020286Y000848D01*
X020441Y000694D01*
X020643Y000610D01*
X020862Y000610D01*
X021064Y000694D01*
X021219Y000848D01*
X021302Y001051D01*
X021302Y001269D01*
X021219Y001472D01*
X021082Y001608D01*
X021082Y002023D01*
X021389Y002330D01*
X028818Y002330D01*
X028939Y002380D01*
X029439Y002880D01*
X029532Y002973D01*
X029582Y003094D01*
X029582Y009023D01*
X029669Y009110D01*
X029862Y009110D01*
X030064Y009194D01*
X030219Y009348D01*
X030302Y009551D01*
X030302Y009769D01*
X030219Y009972D01*
X030064Y010126D01*
X029862Y010210D01*
X029643Y010210D01*
X029441Y010126D01*
X029286Y009972D01*
X029202Y009769D01*
X029202Y009577D01*
X028973Y009347D01*
X028922Y009226D01*
X028922Y007159D01*
X028893Y007231D01*
X028752Y007371D01*
X028729Y007381D01*
X028729Y007873D01*
X028802Y008051D01*
X028802Y008269D01*
X028719Y008472D01*
X028564Y008626D01*
X028362Y008710D01*
X028143Y008710D01*
X028405Y008692D02*
X028922Y008692D01*
X028922Y008574D02*
X028617Y008574D01*
X028725Y008455D02*
X028922Y008455D01*
X028922Y008337D02*
X028775Y008337D01*
X028802Y008218D02*
X028922Y008218D01*
X028922Y008100D02*
X028802Y008100D01*
X028774Y007981D02*
X028922Y007981D01*
X028922Y007863D02*
X028729Y007863D01*
X028729Y007744D02*
X028922Y007744D01*
X028922Y007626D02*
X028729Y007626D01*
X028729Y007507D02*
X028922Y007507D01*
X028922Y007389D02*
X028729Y007389D01*
X028853Y007270D02*
X028922Y007270D01*
X029582Y007270D02*
X035032Y007270D01*
X035032Y007152D02*
X033503Y007152D01*
X033564Y007126D02*
X033362Y007210D01*
X033143Y007210D01*
X032941Y007126D01*
X032786Y006972D01*
X032702Y006769D01*
X032702Y006551D01*
X032786Y006348D01*
X032941Y006194D01*
X033022Y006160D01*
X032941Y006126D01*
X032786Y005972D01*
X032702Y005769D01*
X032702Y005551D01*
X032786Y005348D01*
X032941Y005194D01*
X033143Y005110D01*
X033362Y005110D01*
X033564Y005194D01*
X033719Y005348D01*
X033802Y005551D01*
X033802Y005769D01*
X033719Y005972D01*
X033564Y006126D01*
X033482Y006160D01*
X033564Y006194D01*
X033719Y006348D01*
X033802Y006551D01*
X033802Y006769D01*
X033719Y006972D01*
X033564Y007126D01*
X033657Y007033D02*
X035032Y007033D01*
X035032Y006915D02*
X033742Y006915D01*
X033791Y006796D02*
X035032Y006796D01*
X035032Y006678D02*
X033802Y006678D01*
X033802Y006559D02*
X035032Y006559D01*
X035032Y006441D02*
X033757Y006441D01*
X033692Y006322D02*
X035032Y006322D01*
X035032Y006204D02*
X033574Y006204D01*
X033605Y006085D02*
X035032Y006085D01*
X035032Y005967D02*
X033721Y005967D01*
X033770Y005848D02*
X035032Y005848D01*
X035032Y005730D02*
X033802Y005730D01*
X033802Y005611D02*
X035032Y005611D01*
X035032Y005493D02*
X033778Y005493D01*
X033729Y005374D02*
X035032Y005374D01*
X035032Y005256D02*
X033626Y005256D01*
X033427Y005137D02*
X035032Y005137D01*
X035032Y005019D02*
X029582Y005019D01*
X029582Y005137D02*
X033078Y005137D01*
X032879Y005256D02*
X029582Y005256D01*
X029582Y005374D02*
X032776Y005374D01*
X032726Y005493D02*
X029582Y005493D01*
X029582Y005611D02*
X032702Y005611D01*
X032702Y005730D02*
X029582Y005730D01*
X029582Y005848D02*
X032735Y005848D01*
X032784Y005967D02*
X029582Y005967D01*
X029582Y006085D02*
X032900Y006085D01*
X032931Y006204D02*
X029582Y006204D01*
X029582Y006322D02*
X032813Y006322D01*
X032748Y006441D02*
X029582Y006441D01*
X029582Y006559D02*
X032702Y006559D01*
X032702Y006678D02*
X029582Y006678D01*
X029582Y006796D02*
X032713Y006796D01*
X032762Y006915D02*
X029582Y006915D01*
X029582Y007033D02*
X032848Y007033D01*
X033002Y007152D02*
X029582Y007152D01*
X029582Y007389D02*
X035032Y007389D01*
X035032Y007507D02*
X029582Y007507D01*
X029582Y007626D02*
X030606Y007626D01*
X030643Y007610D02*
X030862Y007610D01*
X031064Y007694D01*
X031219Y007848D01*
X031262Y007954D01*
X031299Y007882D01*
X031348Y007815D01*
X031407Y007756D01*
X031475Y007707D01*
X031549Y007669D01*
X031628Y007643D01*
X031711Y007630D01*
X031732Y007630D01*
X031732Y008140D01*
X031772Y008140D01*
X031772Y007630D01*
X031794Y007630D01*
X031876Y007643D01*
X031956Y007669D01*
X032030Y007707D01*
X032098Y007756D01*
X032157Y007815D01*
X032206Y007882D01*
X032244Y007957D01*
X032269Y008036D01*
X032282Y008118D01*
X032282Y008140D01*
X031772Y008140D01*
X031772Y008180D01*
X031732Y008180D01*
X031732Y008690D01*
X031711Y008690D01*
X031628Y008677D01*
X031549Y008651D01*
X031475Y008613D01*
X031407Y008564D01*
X031348Y008505D01*
X031299Y008438D01*
X031262Y008366D01*
X031219Y008472D01*
X031064Y008626D01*
X030862Y008710D01*
X030643Y008710D01*
X030441Y008626D01*
X030286Y008472D01*
X030202Y008269D01*
X030202Y008051D01*
X030286Y007848D01*
X030441Y007694D01*
X030643Y007610D01*
X030899Y007626D02*
X035032Y007626D01*
X035032Y007744D02*
X032081Y007744D01*
X032191Y007863D02*
X035032Y007863D01*
X035032Y007981D02*
X032251Y007981D01*
X032279Y008100D02*
X035032Y008100D01*
X035032Y008218D02*
X032280Y008218D01*
X032282Y008202D02*
X032269Y008284D01*
X032244Y008363D01*
X032206Y008438D01*
X032157Y008505D01*
X032098Y008564D01*
X032030Y008613D01*
X031956Y008651D01*
X031876Y008677D01*
X031794Y008690D01*
X031772Y008690D01*
X031772Y008180D01*
X032282Y008180D01*
X032282Y008202D01*
X032252Y008337D02*
X035032Y008337D01*
X035032Y008455D02*
X032193Y008455D01*
X032085Y008574D02*
X035032Y008574D01*
X035032Y008692D02*
X030905Y008692D01*
X031117Y008574D02*
X031420Y008574D01*
X031312Y008455D02*
X031225Y008455D01*
X030600Y008692D02*
X029582Y008692D01*
X029582Y008574D02*
X030388Y008574D01*
X030279Y008455D02*
X029582Y008455D01*
X029582Y008337D02*
X030230Y008337D01*
X030202Y008218D02*
X029582Y008218D01*
X029582Y008100D02*
X030202Y008100D01*
X030231Y007981D02*
X029582Y007981D01*
X029582Y007863D02*
X030280Y007863D01*
X030391Y007744D02*
X029582Y007744D01*
X028209Y007507D02*
X026729Y007507D01*
X026729Y007389D02*
X028209Y007389D01*
X028084Y007270D02*
X026853Y007270D01*
X026926Y007152D02*
X028012Y007152D01*
X027969Y007033D02*
X026969Y007033D01*
X026969Y006915D02*
X027969Y006915D01*
X027990Y006796D02*
X026947Y006796D01*
X026898Y006678D02*
X028039Y006678D01*
X028150Y006559D02*
X026788Y006559D01*
X026894Y006441D02*
X028044Y006441D01*
X027995Y006322D02*
X026943Y006322D01*
X026969Y006204D02*
X027969Y006204D01*
X027969Y006085D02*
X026969Y006085D01*
X026930Y005967D02*
X028008Y005967D01*
X028074Y005848D02*
X026864Y005848D01*
X026819Y005730D02*
X028119Y005730D01*
X028026Y005611D02*
X026911Y005611D01*
X026960Y005493D02*
X027977Y005493D01*
X027969Y005374D02*
X026969Y005374D01*
X026962Y005256D02*
X027976Y005256D01*
X028025Y005137D02*
X026913Y005137D01*
X026822Y005019D02*
X028116Y005019D01*
X028303Y004900D02*
X026635Y004900D01*
X026303Y004900D02*
X024635Y004900D01*
X024822Y005019D02*
X026116Y005019D01*
X026025Y005137D02*
X024913Y005137D01*
X024962Y005256D02*
X025976Y005256D01*
X025969Y005374D02*
X024969Y005374D01*
X024960Y005493D02*
X025977Y005493D01*
X026026Y005611D02*
X024911Y005611D01*
X024819Y005730D02*
X026119Y005730D01*
X026074Y005848D02*
X024864Y005848D01*
X024930Y005967D02*
X026008Y005967D01*
X025969Y006085D02*
X024969Y006085D01*
X024969Y006204D02*
X025969Y006204D01*
X025995Y006322D02*
X024943Y006322D01*
X024894Y006441D02*
X026044Y006441D01*
X026150Y006559D02*
X024788Y006559D01*
X024898Y006678D02*
X026039Y006678D01*
X025990Y006796D02*
X024947Y006796D01*
X024969Y006915D02*
X025969Y006915D01*
X025969Y007033D02*
X024969Y007033D01*
X024926Y007152D02*
X026012Y007152D01*
X026084Y007270D02*
X024853Y007270D01*
X024729Y007389D02*
X026209Y007389D01*
X026209Y007507D02*
X024729Y007507D01*
X024729Y007626D02*
X026106Y007626D01*
X025891Y007744D02*
X024729Y007744D01*
X024729Y007863D02*
X025780Y007863D01*
X025731Y007981D02*
X024774Y007981D01*
X024802Y008100D02*
X025702Y008100D01*
X025702Y008218D02*
X024802Y008218D01*
X024775Y008337D02*
X025730Y008337D01*
X025779Y008455D02*
X024725Y008455D01*
X024617Y008574D02*
X025888Y008574D01*
X026617Y008574D02*
X027888Y008574D01*
X027779Y008455D02*
X026725Y008455D01*
X026775Y008337D02*
X027730Y008337D01*
X027702Y008218D02*
X026802Y008218D01*
X026802Y008100D02*
X027702Y008100D01*
X027731Y007981D02*
X026774Y007981D01*
X026729Y007863D02*
X027780Y007863D01*
X027891Y007744D02*
X026729Y007744D01*
X026729Y007626D02*
X028106Y007626D01*
X028922Y008811D02*
X012582Y008811D01*
X012582Y008929D02*
X028922Y008929D01*
X028922Y009048D02*
X012582Y009048D01*
X012582Y009166D02*
X028922Y009166D01*
X028947Y009285D02*
X012582Y009285D01*
X012582Y009403D02*
X029029Y009403D01*
X029147Y009522D02*
X012582Y009522D01*
X012582Y009640D02*
X029202Y009640D01*
X029202Y009759D02*
X012582Y009759D01*
X012582Y009877D02*
X029247Y009877D01*
X029310Y009996D02*
X012582Y009996D01*
X012582Y010114D02*
X029429Y010114D01*
X029136Y010351D02*
X012582Y010351D01*
X012582Y010233D02*
X032213Y010233D01*
X032332Y010114D02*
X030076Y010114D01*
X030195Y009996D02*
X032450Y009996D01*
X032569Y009877D02*
X030258Y009877D01*
X030302Y009759D02*
X032687Y009759D01*
X032702Y009640D02*
X030302Y009640D01*
X030290Y009522D02*
X032714Y009522D01*
X032763Y009403D02*
X030241Y009403D01*
X030155Y009285D02*
X032850Y009285D01*
X033008Y009166D02*
X029997Y009166D01*
X029607Y009048D02*
X035032Y009048D01*
X035032Y009166D02*
X033497Y009166D01*
X033655Y009285D02*
X035032Y009285D01*
X035032Y009403D02*
X033741Y009403D01*
X033790Y009522D02*
X035032Y009522D01*
X035032Y009640D02*
X033802Y009640D01*
X033802Y009759D02*
X035032Y009759D01*
X035032Y009877D02*
X033758Y009877D01*
X033695Y009996D02*
X035032Y009996D01*
X035032Y010114D02*
X033576Y010114D01*
X033147Y010233D02*
X035032Y010233D01*
X035032Y010351D02*
X033028Y010351D01*
X032910Y010470D02*
X035032Y010470D01*
X035032Y010588D02*
X032791Y010588D01*
X032673Y010707D02*
X035032Y010707D01*
X035032Y010825D02*
X032554Y010825D01*
X032532Y010847D02*
X032532Y010847D01*
X032430Y010944D02*
X035032Y010944D01*
X035032Y011062D02*
X029317Y011062D01*
X029199Y011181D02*
X029473Y011181D01*
X029441Y011194D02*
X029643Y011110D01*
X029862Y011110D01*
X030064Y011194D01*
X030219Y011348D01*
X030302Y011551D01*
X030302Y011769D01*
X030219Y011972D01*
X030082Y012108D01*
X030082Y013226D01*
X030032Y013347D01*
X029582Y013797D01*
X029582Y015523D01*
X029639Y015580D01*
X030305Y015580D01*
X030441Y015444D01*
X030522Y015410D01*
X030441Y015376D01*
X030286Y015222D01*
X030202Y015019D01*
X030202Y014801D01*
X030286Y014598D01*
X030441Y014444D01*
X030522Y014410D01*
X030441Y014376D01*
X030286Y014222D01*
X030202Y014019D01*
X030202Y013801D01*
X030286Y013598D01*
X030441Y013444D01*
X030643Y013360D01*
X030862Y013360D01*
X031064Y013444D01*
X031202Y013582D01*
X031202Y012965D01*
X031308Y012860D01*
X032197Y012860D01*
X032302Y012965D01*
X032302Y013855D01*
X032197Y013960D01*
X032080Y013960D01*
X032219Y014098D01*
X032302Y014301D01*
X032302Y014519D01*
X032219Y014722D01*
X032064Y014876D01*
X031982Y014910D01*
X032064Y014944D01*
X032219Y015098D01*
X032302Y015301D01*
X032302Y015519D01*
X032219Y015722D01*
X032064Y015876D01*
X031958Y015920D01*
X032030Y015957D01*
X032098Y016006D01*
X032157Y016065D01*
X032206Y016132D01*
X032244Y016207D01*
X032269Y016286D01*
X032282Y016368D01*
X032282Y016372D01*
X031791Y016372D01*
X031791Y016448D01*
X032282Y016448D01*
X032282Y016452D01*
X032269Y016534D01*
X032244Y016613D01*
X032206Y016688D01*
X032157Y016755D01*
X032098Y016814D01*
X032030Y016863D01*
X031956Y016901D01*
X031876Y016927D01*
X031794Y016940D01*
X031791Y016940D01*
X031791Y016448D01*
X031714Y016448D01*
X031714Y016372D01*
X031222Y016372D01*
X031222Y016368D01*
X031235Y016286D01*
X031250Y016240D01*
X031200Y016240D01*
X031064Y016376D01*
X030958Y016420D01*
X031030Y016457D01*
X031098Y016506D01*
X031157Y016565D01*
X031206Y016632D01*
X031244Y016707D01*
X031269Y016786D01*
X031282Y016868D01*
X031282Y016872D01*
X030791Y016872D01*
X030791Y016948D01*
X031282Y016948D01*
X031282Y016952D01*
X031269Y017034D01*
X031244Y017113D01*
X031206Y017188D01*
X031157Y017255D01*
X031098Y017314D01*
X031030Y017363D01*
X030956Y017401D01*
X030876Y017427D01*
X030794Y017440D01*
X030791Y017440D01*
X030791Y016948D01*
X030714Y016948D01*
X030714Y016872D01*
X030222Y016872D01*
X030222Y016868D01*
X030235Y016786D01*
X030261Y016707D01*
X030299Y016632D01*
X030348Y016565D01*
X030407Y016506D01*
X030475Y016457D01*
X030547Y016420D01*
X030441Y016376D01*
X030305Y016240D01*
X029437Y016240D01*
X029315Y016190D01*
X029065Y015940D01*
X028973Y015847D01*
X028922Y015726D01*
X028922Y013594D01*
X028973Y013473D01*
X029065Y013380D01*
X029065Y013380D01*
X029422Y013023D01*
X029422Y012108D01*
X029286Y011972D01*
X029202Y011769D01*
X029202Y011551D01*
X029286Y011348D01*
X029441Y011194D01*
X029336Y011299D02*
X029080Y011299D01*
X028962Y011418D02*
X029257Y011418D01*
X029208Y011536D02*
X028654Y011536D01*
X028496Y011655D02*
X029202Y011655D01*
X029204Y011773D02*
X028143Y011773D01*
X028219Y011848D02*
X028064Y011694D01*
X027862Y011610D01*
X027643Y011610D01*
X027441Y011694D01*
X027286Y011848D01*
X027202Y012051D01*
X027202Y012269D01*
X027286Y012472D01*
X027441Y012626D01*
X027547Y012670D01*
X027475Y012707D01*
X027407Y012756D01*
X027348Y012815D01*
X027299Y012882D01*
X027261Y012957D01*
X027235Y013036D01*
X027222Y013118D01*
X027222Y013140D01*
X027732Y013140D01*
X027732Y013180D01*
X027222Y013180D01*
X027222Y013202D01*
X027235Y013284D01*
X027261Y013363D01*
X027299Y013438D01*
X027348Y013505D01*
X027407Y013564D01*
X027475Y013613D01*
X027549Y013651D01*
X027628Y013677D01*
X027711Y013690D01*
X027732Y013690D01*
X027732Y013180D01*
X027772Y013180D01*
X027772Y013690D01*
X027794Y013690D01*
X027876Y013677D01*
X027956Y013651D01*
X028030Y013613D01*
X028098Y013564D01*
X028157Y013505D01*
X028206Y013438D01*
X028242Y013366D01*
X028242Y013610D01*
X028143Y013610D01*
X027941Y013694D01*
X027786Y013848D01*
X027702Y014051D01*
X027702Y014269D01*
X027786Y014472D01*
X027941Y014626D01*
X028143Y014710D01*
X028362Y014710D01*
X028564Y014626D01*
X028719Y014472D01*
X028802Y014269D01*
X028802Y014051D01*
X028762Y013954D01*
X028762Y013148D01*
X028814Y013126D01*
X028969Y012972D01*
X029052Y012769D01*
X029052Y012551D01*
X028969Y012348D01*
X028814Y012194D01*
X028612Y012110D01*
X028393Y012110D01*
X028302Y012148D01*
X028302Y012051D01*
X028219Y011848D01*
X028236Y011892D02*
X029253Y011892D01*
X029325Y012010D02*
X028286Y012010D01*
X028302Y012129D02*
X028348Y012129D01*
X028656Y012129D02*
X029422Y012129D01*
X029422Y012247D02*
X028867Y012247D01*
X028976Y012366D02*
X029422Y012366D01*
X029422Y012484D02*
X029025Y012484D01*
X029052Y012603D02*
X029422Y012603D01*
X029422Y012721D02*
X029052Y012721D01*
X029023Y012840D02*
X029422Y012840D01*
X029422Y012958D02*
X028974Y012958D01*
X028864Y013077D02*
X029369Y013077D01*
X029251Y013195D02*
X028762Y013195D01*
X028762Y013314D02*
X029132Y013314D01*
X029014Y013432D02*
X028762Y013432D01*
X028762Y013551D02*
X028941Y013551D01*
X028922Y013669D02*
X028762Y013669D01*
X028762Y013788D02*
X028922Y013788D01*
X028922Y013906D02*
X028762Y013906D01*
X028792Y014025D02*
X028922Y014025D01*
X028922Y014143D02*
X028802Y014143D01*
X028802Y014262D02*
X028922Y014262D01*
X028922Y014380D02*
X028757Y014380D01*
X028692Y014499D02*
X028922Y014499D01*
X028922Y014617D02*
X028573Y014617D01*
X028922Y014736D02*
X011579Y014736D01*
X011762Y014617D02*
X013932Y014617D01*
X013941Y014626D02*
X013786Y014472D01*
X013702Y014269D01*
X013702Y014051D01*
X013786Y013848D01*
X013941Y013694D01*
X014143Y013610D01*
X014242Y013610D01*
X014242Y013366D01*
X014206Y013438D01*
X014157Y013505D01*
X014098Y013564D01*
X014030Y013613D01*
X013956Y013651D01*
X013876Y013677D01*
X013794Y013690D01*
X013772Y013690D01*
X013772Y013180D01*
X013732Y013180D01*
X013732Y013140D01*
X013222Y013140D01*
X013222Y013118D01*
X013235Y013036D01*
X013261Y012957D01*
X013299Y012882D01*
X013348Y012815D01*
X013407Y012756D01*
X013475Y012707D01*
X013547Y012670D01*
X013441Y012626D01*
X013286Y012472D01*
X013202Y012269D01*
X013202Y012051D01*
X013286Y011848D01*
X013441Y011694D01*
X013643Y011610D01*
X013862Y011610D01*
X014064Y011694D01*
X014219Y011848D01*
X014302Y012051D01*
X014302Y012148D01*
X014393Y012110D01*
X014612Y012110D01*
X014814Y012194D01*
X014969Y012348D01*
X015052Y012551D01*
X015052Y012769D01*
X014969Y012972D01*
X014814Y013126D01*
X014762Y013148D01*
X014762Y013954D01*
X014802Y014051D01*
X014802Y014269D01*
X014719Y014472D01*
X014564Y014626D01*
X014362Y014710D01*
X014143Y014710D01*
X013941Y014626D01*
X013813Y014499D02*
X011881Y014499D01*
X011999Y014380D02*
X013748Y014380D01*
X013702Y014262D02*
X012118Y014262D01*
X012236Y014143D02*
X013702Y014143D01*
X013713Y014025D02*
X012355Y014025D01*
X012473Y013906D02*
X013762Y013906D01*
X013847Y013788D02*
X012557Y013788D01*
X012582Y013669D02*
X013604Y013669D01*
X013628Y013677D02*
X013549Y013651D01*
X013475Y013613D01*
X013407Y013564D01*
X013348Y013505D01*
X013299Y013438D01*
X013261Y013363D01*
X013235Y013284D01*
X013222Y013202D01*
X013222Y013180D01*
X013732Y013180D01*
X013732Y013690D01*
X013711Y013690D01*
X013628Y013677D01*
X013732Y013669D02*
X013772Y013669D01*
X013772Y013551D02*
X013732Y013551D01*
X013732Y013432D02*
X013772Y013432D01*
X013772Y013314D02*
X013732Y013314D01*
X013732Y013195D02*
X013772Y013195D01*
X013245Y013314D02*
X012582Y013314D01*
X012582Y013432D02*
X013296Y013432D01*
X013393Y013551D02*
X012582Y013551D01*
X012582Y013195D02*
X013222Y013195D01*
X013229Y013077D02*
X012582Y013077D01*
X012582Y012958D02*
X013261Y012958D01*
X013330Y012840D02*
X012582Y012840D01*
X012582Y012721D02*
X013455Y012721D01*
X013417Y012603D02*
X012582Y012603D01*
X012582Y012484D02*
X013299Y012484D01*
X013242Y012366D02*
X012582Y012366D01*
X012582Y012247D02*
X013202Y012247D01*
X013202Y012129D02*
X012582Y012129D01*
X012582Y012010D02*
X013219Y012010D01*
X013268Y011892D02*
X012582Y011892D01*
X012582Y011773D02*
X013362Y011773D01*
X013535Y011655D02*
X012582Y011655D01*
X012582Y011536D02*
X013851Y011536D01*
X013969Y011655D02*
X014009Y011655D01*
X014143Y011773D02*
X015362Y011773D01*
X015286Y011848D02*
X015441Y011694D01*
X015643Y011610D01*
X015862Y011610D01*
X016064Y011694D01*
X016219Y011848D01*
X016302Y012051D01*
X016302Y012148D01*
X016393Y012110D01*
X016612Y012110D01*
X016814Y012194D01*
X016969Y012348D01*
X017052Y012551D01*
X017052Y012769D01*
X016969Y012972D01*
X016814Y013126D01*
X016762Y013148D01*
X016762Y013954D01*
X016802Y014051D01*
X016802Y014269D01*
X016719Y014472D01*
X016564Y014626D01*
X016362Y014710D01*
X016143Y014710D01*
X015941Y014626D01*
X015786Y014472D01*
X015702Y014269D01*
X015702Y014051D01*
X015786Y013848D01*
X015941Y013694D01*
X016143Y013610D01*
X016242Y013610D01*
X016242Y013366D01*
X016206Y013438D01*
X016157Y013505D01*
X016098Y013564D01*
X016030Y013613D01*
X015956Y013651D01*
X015876Y013677D01*
X015794Y013690D01*
X015772Y013690D01*
X015772Y013180D01*
X015732Y013180D01*
X015732Y013140D01*
X015222Y013140D01*
X015222Y013118D01*
X015235Y013036D01*
X015261Y012957D01*
X015299Y012882D01*
X015348Y012815D01*
X015407Y012756D01*
X015475Y012707D01*
X015547Y012670D01*
X015441Y012626D01*
X015286Y012472D01*
X015202Y012269D01*
X015202Y012051D01*
X015286Y011848D01*
X015268Y011892D02*
X014236Y011892D01*
X014286Y012010D02*
X015219Y012010D01*
X015202Y012129D02*
X014656Y012129D01*
X014867Y012247D02*
X015202Y012247D01*
X015242Y012366D02*
X014976Y012366D01*
X015025Y012484D02*
X015299Y012484D01*
X015417Y012603D02*
X015052Y012603D01*
X015052Y012721D02*
X015455Y012721D01*
X015330Y012840D02*
X015023Y012840D01*
X014974Y012958D02*
X015261Y012958D01*
X015229Y013077D02*
X014864Y013077D01*
X014762Y013195D02*
X015222Y013195D01*
X015222Y013202D02*
X015222Y013180D01*
X015732Y013180D01*
X015732Y013690D01*
X015711Y013690D01*
X015628Y013677D01*
X015549Y013651D01*
X015475Y013613D01*
X015407Y013564D01*
X015348Y013505D01*
X015299Y013438D01*
X015261Y013363D01*
X015235Y013284D01*
X015222Y013202D01*
X015245Y013314D02*
X014762Y013314D01*
X014762Y013432D02*
X015296Y013432D01*
X015393Y013551D02*
X014762Y013551D01*
X014762Y013669D02*
X015604Y013669D01*
X015732Y013669D02*
X015772Y013669D01*
X015772Y013551D02*
X015732Y013551D01*
X015732Y013432D02*
X015772Y013432D01*
X015772Y013314D02*
X015732Y013314D01*
X015732Y013195D02*
X015772Y013195D01*
X016111Y013551D02*
X016242Y013551D01*
X016242Y013432D02*
X016209Y013432D01*
X016000Y013669D02*
X015901Y013669D01*
X015847Y013788D02*
X014762Y013788D01*
X014762Y013906D02*
X015762Y013906D01*
X015713Y014025D02*
X014792Y014025D01*
X014802Y014143D02*
X015702Y014143D01*
X015702Y014262D02*
X014802Y014262D01*
X014757Y014380D02*
X015748Y014380D01*
X015813Y014499D02*
X014692Y014499D01*
X014573Y014617D02*
X015932Y014617D01*
X016573Y014617D02*
X017932Y014617D01*
X017941Y014626D02*
X017786Y014472D01*
X017702Y014269D01*
X017702Y014051D01*
X017786Y013848D01*
X017941Y013694D01*
X018143Y013610D01*
X018242Y013610D01*
X018242Y013366D01*
X018206Y013438D01*
X018157Y013505D01*
X018098Y013564D01*
X018030Y013613D01*
X017956Y013651D01*
X017876Y013677D01*
X017794Y013690D01*
X017772Y013690D01*
X017772Y013180D01*
X017732Y013180D01*
X017732Y013140D01*
X017222Y013140D01*
X017222Y013118D01*
X017235Y013036D01*
X017261Y012957D01*
X017299Y012882D01*
X017348Y012815D01*
X017407Y012756D01*
X017475Y012707D01*
X017547Y012670D01*
X017441Y012626D01*
X017286Y012472D01*
X017202Y012269D01*
X017202Y012051D01*
X017286Y011848D01*
X017441Y011694D01*
X017643Y011610D01*
X017862Y011610D01*
X018064Y011694D01*
X018219Y011848D01*
X018302Y012051D01*
X018302Y012148D01*
X018393Y012110D01*
X018612Y012110D01*
X018814Y012194D01*
X018969Y012348D01*
X019052Y012551D01*
X019052Y012769D01*
X018969Y012972D01*
X018814Y013126D01*
X018762Y013148D01*
X018762Y013954D01*
X018802Y014051D01*
X018802Y014269D01*
X018719Y014472D01*
X018564Y014626D01*
X018362Y014710D01*
X018143Y014710D01*
X017941Y014626D01*
X017813Y014499D02*
X016692Y014499D01*
X016757Y014380D02*
X017748Y014380D01*
X017702Y014262D02*
X016802Y014262D01*
X016802Y014143D02*
X017702Y014143D01*
X017713Y014025D02*
X016792Y014025D01*
X016762Y013906D02*
X017762Y013906D01*
X017847Y013788D02*
X016762Y013788D01*
X016762Y013669D02*
X017604Y013669D01*
X017628Y013677D02*
X017549Y013651D01*
X017475Y013613D01*
X017407Y013564D01*
X017348Y013505D01*
X017299Y013438D01*
X017261Y013363D01*
X017235Y013284D01*
X017222Y013202D01*
X017222Y013180D01*
X017732Y013180D01*
X017732Y013690D01*
X017711Y013690D01*
X017628Y013677D01*
X017732Y013669D02*
X017772Y013669D01*
X017772Y013551D02*
X017732Y013551D01*
X017732Y013432D02*
X017772Y013432D01*
X017772Y013314D02*
X017732Y013314D01*
X017732Y013195D02*
X017772Y013195D01*
X017245Y013314D02*
X016762Y013314D01*
X016762Y013432D02*
X017296Y013432D01*
X017393Y013551D02*
X016762Y013551D01*
X016762Y013195D02*
X017222Y013195D01*
X017229Y013077D02*
X016864Y013077D01*
X016974Y012958D02*
X017261Y012958D01*
X017330Y012840D02*
X017023Y012840D01*
X017052Y012721D02*
X017455Y012721D01*
X017417Y012603D02*
X017052Y012603D01*
X017025Y012484D02*
X017299Y012484D01*
X017242Y012366D02*
X016976Y012366D01*
X016867Y012247D02*
X017202Y012247D01*
X017202Y012129D02*
X016656Y012129D01*
X016348Y012129D02*
X016302Y012129D01*
X016286Y012010D02*
X017219Y012010D01*
X017268Y011892D02*
X016236Y011892D01*
X016143Y011773D02*
X017362Y011773D01*
X017535Y011655D02*
X016496Y011655D01*
X016654Y011536D02*
X017851Y011536D01*
X017969Y011655D02*
X018009Y011655D01*
X018143Y011773D02*
X019362Y011773D01*
X019286Y011848D02*
X019202Y012051D01*
X019202Y012269D01*
X019286Y012472D01*
X019441Y012626D01*
X019547Y012670D01*
X019475Y012707D01*
X019407Y012756D01*
X019348Y012815D01*
X019299Y012882D01*
X019261Y012957D01*
X019235Y013036D01*
X019222Y013118D01*
X019222Y013140D01*
X019732Y013140D01*
X019732Y013180D01*
X019222Y013180D01*
X019222Y013202D01*
X019235Y013284D01*
X019261Y013363D01*
X019299Y013438D01*
X019348Y013505D01*
X019407Y013564D01*
X019475Y013613D01*
X019549Y013651D01*
X019628Y013677D01*
X019711Y013690D01*
X019732Y013690D01*
X019732Y013180D01*
X019772Y013180D01*
X019772Y013690D01*
X019794Y013690D01*
X019876Y013677D01*
X019956Y013651D01*
X020030Y013613D01*
X020098Y013564D01*
X020157Y013505D01*
X020206Y013438D01*
X020242Y013366D01*
X020242Y013610D01*
X020143Y013610D01*
X019941Y013694D01*
X019786Y013848D01*
X019702Y014051D01*
X019702Y014269D01*
X019786Y014472D01*
X019941Y014626D01*
X020143Y014710D01*
X020362Y014710D01*
X020564Y014626D01*
X020719Y014472D01*
X020802Y014269D01*
X020802Y014051D01*
X020762Y013954D01*
X020762Y013148D01*
X020814Y013126D01*
X020969Y012972D01*
X021052Y012769D01*
X021052Y012551D01*
X020969Y012348D01*
X020814Y012194D01*
X020612Y012110D01*
X020393Y012110D01*
X020302Y012148D01*
X020302Y012051D01*
X020219Y011848D01*
X020064Y011694D01*
X019862Y011610D01*
X019643Y011610D01*
X019441Y011694D01*
X019286Y011848D01*
X019268Y011892D02*
X018236Y011892D01*
X018286Y012010D02*
X019219Y012010D01*
X019202Y012129D02*
X018656Y012129D01*
X018867Y012247D02*
X019202Y012247D01*
X019242Y012366D02*
X018976Y012366D01*
X019025Y012484D02*
X019299Y012484D01*
X019417Y012603D02*
X019052Y012603D01*
X019052Y012721D02*
X019455Y012721D01*
X019330Y012840D02*
X019023Y012840D01*
X018974Y012958D02*
X019261Y012958D01*
X019229Y013077D02*
X018864Y013077D01*
X018762Y013195D02*
X019222Y013195D01*
X019245Y013314D02*
X018762Y013314D01*
X018762Y013432D02*
X019296Y013432D01*
X019393Y013551D02*
X018762Y013551D01*
X018762Y013669D02*
X019604Y013669D01*
X019732Y013669D02*
X019772Y013669D01*
X019772Y013551D02*
X019732Y013551D01*
X019732Y013432D02*
X019772Y013432D01*
X019772Y013314D02*
X019732Y013314D01*
X019732Y013195D02*
X019772Y013195D01*
X020111Y013551D02*
X020242Y013551D01*
X020242Y013432D02*
X020209Y013432D01*
X020000Y013669D02*
X019901Y013669D01*
X019847Y013788D02*
X018762Y013788D01*
X018762Y013906D02*
X019762Y013906D01*
X019713Y014025D02*
X018792Y014025D01*
X018802Y014143D02*
X019702Y014143D01*
X019702Y014262D02*
X018802Y014262D01*
X018757Y014380D02*
X019748Y014380D01*
X019813Y014499D02*
X018692Y014499D01*
X018573Y014617D02*
X019932Y014617D01*
X020573Y014617D02*
X021932Y014617D01*
X021941Y014626D02*
X021786Y014472D01*
X021702Y014269D01*
X021702Y014051D01*
X021786Y013848D01*
X021941Y013694D01*
X022143Y013610D01*
X022242Y013610D01*
X022242Y013366D01*
X022206Y013438D01*
X022157Y013505D01*
X022098Y013564D01*
X022030Y013613D01*
X021956Y013651D01*
X021876Y013677D01*
X021794Y013690D01*
X021772Y013690D01*
X021772Y013180D01*
X021732Y013180D01*
X021732Y013140D01*
X021222Y013140D01*
X021222Y013118D01*
X021235Y013036D01*
X021261Y012957D01*
X021299Y012882D01*
X021348Y012815D01*
X021407Y012756D01*
X021475Y012707D01*
X021547Y012670D01*
X021441Y012626D01*
X021286Y012472D01*
X021202Y012269D01*
X021202Y012051D01*
X021286Y011848D01*
X021441Y011694D01*
X021643Y011610D01*
X021862Y011610D01*
X022064Y011694D01*
X022219Y011848D01*
X022302Y012051D01*
X022302Y012148D01*
X022393Y012110D01*
X022612Y012110D01*
X022814Y012194D01*
X022969Y012348D01*
X023052Y012551D01*
X023052Y012769D01*
X022969Y012972D01*
X022814Y013126D01*
X022762Y013148D01*
X022762Y013954D01*
X022802Y014051D01*
X022802Y014269D01*
X022719Y014472D01*
X022564Y014626D01*
X022362Y014710D01*
X022143Y014710D01*
X021941Y014626D01*
X021813Y014499D02*
X020692Y014499D01*
X020757Y014380D02*
X021748Y014380D01*
X021702Y014262D02*
X020802Y014262D01*
X020802Y014143D02*
X021702Y014143D01*
X021713Y014025D02*
X020792Y014025D01*
X020762Y013906D02*
X021762Y013906D01*
X021847Y013788D02*
X020762Y013788D01*
X020762Y013669D02*
X021604Y013669D01*
X021628Y013677D02*
X021549Y013651D01*
X021475Y013613D01*
X021407Y013564D01*
X021348Y013505D01*
X021299Y013438D01*
X021261Y013363D01*
X021235Y013284D01*
X021222Y013202D01*
X021222Y013180D01*
X021732Y013180D01*
X021732Y013690D01*
X021711Y013690D01*
X021628Y013677D01*
X021732Y013669D02*
X021772Y013669D01*
X021772Y013551D02*
X021732Y013551D01*
X021732Y013432D02*
X021772Y013432D01*
X021772Y013314D02*
X021732Y013314D01*
X021732Y013195D02*
X021772Y013195D01*
X021261Y012958D02*
X020974Y012958D01*
X021023Y012840D02*
X021330Y012840D01*
X021455Y012721D02*
X021052Y012721D01*
X021052Y012603D02*
X021417Y012603D01*
X021299Y012484D02*
X021025Y012484D01*
X020976Y012366D02*
X021242Y012366D01*
X021202Y012247D02*
X020867Y012247D01*
X020656Y012129D02*
X021202Y012129D01*
X021219Y012010D02*
X020286Y012010D01*
X020302Y012129D02*
X020348Y012129D01*
X020236Y011892D02*
X021268Y011892D01*
X021362Y011773D02*
X020143Y011773D01*
X020009Y011655D02*
X019969Y011655D01*
X019851Y011536D02*
X018654Y011536D01*
X018496Y011655D02*
X019535Y011655D01*
X020496Y011655D02*
X021535Y011655D01*
X021851Y011536D02*
X020654Y011536D01*
X021969Y011655D02*
X022009Y011655D01*
X022143Y011773D02*
X023362Y011773D01*
X023286Y011848D02*
X023441Y011694D01*
X023643Y011610D01*
X023862Y011610D01*
X024064Y011694D01*
X024219Y011848D01*
X024302Y012051D01*
X024302Y012148D01*
X024393Y012110D01*
X024612Y012110D01*
X024814Y012194D01*
X024969Y012348D01*
X025052Y012551D01*
X025052Y012769D01*
X024969Y012972D01*
X024814Y013126D01*
X024762Y013148D01*
X024762Y013954D01*
X024802Y014051D01*
X024802Y014269D01*
X024719Y014472D01*
X024564Y014626D01*
X024362Y014710D01*
X024143Y014710D01*
X023941Y014626D01*
X023786Y014472D01*
X023702Y014269D01*
X023702Y014051D01*
X023786Y013848D01*
X023941Y013694D01*
X024143Y013610D01*
X024242Y013610D01*
X024242Y013366D01*
X024206Y013438D01*
X024157Y013505D01*
X024098Y013564D01*
X024030Y013613D01*
X023956Y013651D01*
X023876Y013677D01*
X023794Y013690D01*
X023772Y013690D01*
X023772Y013180D01*
X023732Y013180D01*
X023732Y013140D01*
X023222Y013140D01*
X023222Y013118D01*
X023235Y013036D01*
X023261Y012957D01*
X023299Y012882D01*
X023348Y012815D01*
X023407Y012756D01*
X023475Y012707D01*
X023547Y012670D01*
X023441Y012626D01*
X023286Y012472D01*
X023202Y012269D01*
X023202Y012051D01*
X023286Y011848D01*
X023268Y011892D02*
X022236Y011892D01*
X022286Y012010D02*
X023219Y012010D01*
X023202Y012129D02*
X022656Y012129D01*
X022867Y012247D02*
X023202Y012247D01*
X023242Y012366D02*
X022976Y012366D01*
X023025Y012484D02*
X023299Y012484D01*
X023417Y012603D02*
X023052Y012603D01*
X023052Y012721D02*
X023455Y012721D01*
X023330Y012840D02*
X023023Y012840D01*
X022974Y012958D02*
X023261Y012958D01*
X023229Y013077D02*
X022864Y013077D01*
X022762Y013195D02*
X023222Y013195D01*
X023222Y013202D02*
X023222Y013180D01*
X023732Y013180D01*
X023732Y013690D01*
X023711Y013690D01*
X023628Y013677D01*
X023549Y013651D01*
X023475Y013613D01*
X023407Y013564D01*
X023348Y013505D01*
X023299Y013438D01*
X023261Y013363D01*
X023235Y013284D01*
X023222Y013202D01*
X023245Y013314D02*
X022762Y013314D01*
X022762Y013432D02*
X023296Y013432D01*
X023393Y013551D02*
X022762Y013551D01*
X022762Y013669D02*
X023604Y013669D01*
X023732Y013669D02*
X023772Y013669D01*
X023772Y013551D02*
X023732Y013551D01*
X023732Y013432D02*
X023772Y013432D01*
X023772Y013314D02*
X023732Y013314D01*
X023732Y013195D02*
X023772Y013195D01*
X024111Y013551D02*
X024242Y013551D01*
X024242Y013432D02*
X024209Y013432D01*
X024000Y013669D02*
X023901Y013669D01*
X023847Y013788D02*
X022762Y013788D01*
X022762Y013906D02*
X023762Y013906D01*
X023713Y014025D02*
X022792Y014025D01*
X022802Y014143D02*
X023702Y014143D01*
X023702Y014262D02*
X022802Y014262D01*
X022757Y014380D02*
X023748Y014380D01*
X023813Y014499D02*
X022692Y014499D01*
X022573Y014617D02*
X023932Y014617D01*
X024573Y014617D02*
X025932Y014617D01*
X025941Y014626D02*
X025786Y014472D01*
X025702Y014269D01*
X025702Y014051D01*
X025786Y013848D01*
X025941Y013694D01*
X026143Y013610D01*
X026242Y013610D01*
X026242Y013366D01*
X026206Y013438D01*
X026157Y013505D01*
X026098Y013564D01*
X026030Y013613D01*
X025956Y013651D01*
X025876Y013677D01*
X025794Y013690D01*
X025772Y013690D01*
X025772Y013180D01*
X025732Y013180D01*
X025732Y013140D01*
X025222Y013140D01*
X025222Y013118D01*
X025235Y013036D01*
X025261Y012957D01*
X025299Y012882D01*
X025348Y012815D01*
X025407Y012756D01*
X025475Y012707D01*
X025547Y012670D01*
X025441Y012626D01*
X025286Y012472D01*
X025202Y012269D01*
X025202Y012051D01*
X025286Y011848D01*
X025441Y011694D01*
X025643Y011610D01*
X025862Y011610D01*
X026064Y011694D01*
X026219Y011848D01*
X026302Y012051D01*
X026302Y012148D01*
X026393Y012110D01*
X026612Y012110D01*
X026814Y012194D01*
X026969Y012348D01*
X027052Y012551D01*
X027052Y012769D01*
X026969Y012972D01*
X026814Y013126D01*
X026762Y013148D01*
X026762Y013954D01*
X026802Y014051D01*
X026802Y014269D01*
X026719Y014472D01*
X026564Y014626D01*
X026362Y014710D01*
X026143Y014710D01*
X025941Y014626D01*
X025813Y014499D02*
X024692Y014499D01*
X024757Y014380D02*
X025748Y014380D01*
X025702Y014262D02*
X024802Y014262D01*
X024802Y014143D02*
X025702Y014143D01*
X025713Y014025D02*
X024792Y014025D01*
X024762Y013906D02*
X025762Y013906D01*
X025847Y013788D02*
X024762Y013788D01*
X024762Y013669D02*
X025604Y013669D01*
X025628Y013677D02*
X025549Y013651D01*
X025475Y013613D01*
X025407Y013564D01*
X025348Y013505D01*
X025299Y013438D01*
X025261Y013363D01*
X025235Y013284D01*
X025222Y013202D01*
X025222Y013180D01*
X025732Y013180D01*
X025732Y013690D01*
X025711Y013690D01*
X025628Y013677D01*
X025732Y013669D02*
X025772Y013669D01*
X025772Y013551D02*
X025732Y013551D01*
X025732Y013432D02*
X025772Y013432D01*
X025772Y013314D02*
X025732Y013314D01*
X025732Y013195D02*
X025772Y013195D01*
X025245Y013314D02*
X024762Y013314D01*
X024762Y013432D02*
X025296Y013432D01*
X025393Y013551D02*
X024762Y013551D01*
X024762Y013195D02*
X025222Y013195D01*
X025229Y013077D02*
X024864Y013077D01*
X024974Y012958D02*
X025261Y012958D01*
X025330Y012840D02*
X025023Y012840D01*
X025052Y012721D02*
X025455Y012721D01*
X025417Y012603D02*
X025052Y012603D01*
X025025Y012484D02*
X025299Y012484D01*
X025242Y012366D02*
X024976Y012366D01*
X024867Y012247D02*
X025202Y012247D01*
X025202Y012129D02*
X024656Y012129D01*
X024348Y012129D02*
X024302Y012129D01*
X024286Y012010D02*
X025219Y012010D01*
X025268Y011892D02*
X024236Y011892D01*
X024143Y011773D02*
X025362Y011773D01*
X025535Y011655D02*
X024496Y011655D01*
X024654Y011536D02*
X025851Y011536D01*
X025969Y011655D02*
X026009Y011655D01*
X026143Y011773D02*
X027362Y011773D01*
X027268Y011892D02*
X026236Y011892D01*
X026286Y012010D02*
X027219Y012010D01*
X027202Y012129D02*
X026656Y012129D01*
X026867Y012247D02*
X027202Y012247D01*
X027242Y012366D02*
X026976Y012366D01*
X027025Y012484D02*
X027299Y012484D01*
X027417Y012603D02*
X027052Y012603D01*
X027052Y012721D02*
X027455Y012721D01*
X027330Y012840D02*
X027023Y012840D01*
X026974Y012958D02*
X027261Y012958D01*
X027229Y013077D02*
X026864Y013077D01*
X026762Y013195D02*
X027222Y013195D01*
X027245Y013314D02*
X026762Y013314D01*
X026762Y013432D02*
X027296Y013432D01*
X027393Y013551D02*
X026762Y013551D01*
X026762Y013669D02*
X027604Y013669D01*
X027732Y013669D02*
X027772Y013669D01*
X027772Y013551D02*
X027732Y013551D01*
X027732Y013432D02*
X027772Y013432D01*
X027772Y013314D02*
X027732Y013314D01*
X027732Y013195D02*
X027772Y013195D01*
X028111Y013551D02*
X028242Y013551D01*
X028242Y013432D02*
X028209Y013432D01*
X028000Y013669D02*
X027901Y013669D01*
X027847Y013788D02*
X026762Y013788D01*
X026762Y013906D02*
X027762Y013906D01*
X027713Y014025D02*
X026792Y014025D01*
X026802Y014143D02*
X027702Y014143D01*
X027702Y014262D02*
X026802Y014262D01*
X026757Y014380D02*
X027748Y014380D01*
X027813Y014499D02*
X026692Y014499D01*
X026573Y014617D02*
X027932Y014617D01*
X028922Y014854D02*
X011086Y014854D01*
X011093Y014973D02*
X028922Y014973D01*
X028922Y015091D02*
X011211Y015091D01*
X011265Y015210D02*
X028922Y015210D01*
X028922Y015328D02*
X011302Y015328D01*
X011302Y015447D02*
X028922Y015447D01*
X028922Y015565D02*
X011283Y015565D01*
X011351Y015684D02*
X028922Y015684D01*
X028954Y015802D02*
X011470Y015802D01*
X011588Y015921D02*
X029046Y015921D01*
X029165Y016039D02*
X011707Y016039D01*
X011825Y016158D02*
X029283Y016158D01*
X028564Y016694D02*
X028362Y016610D01*
X028143Y016610D01*
X027941Y016694D01*
X027786Y016848D01*
X027702Y017051D01*
X027702Y017269D01*
X027724Y017321D01*
X025532Y019513D01*
X025492Y019608D01*
X025492Y019672D01*
X025441Y019694D01*
X025286Y019848D01*
X025252Y019930D01*
X025219Y019848D01*
X025064Y019694D01*
X025012Y019672D01*
X025012Y018768D01*
X026091Y017689D01*
X026143Y017710D01*
X026362Y017710D01*
X026564Y017626D01*
X026719Y017472D01*
X026802Y017269D01*
X026802Y017051D01*
X026719Y016848D01*
X026564Y016694D01*
X026362Y016610D01*
X026143Y016610D01*
X025941Y016694D01*
X025786Y016848D01*
X025702Y017051D01*
X025702Y017269D01*
X025724Y017321D01*
X024532Y018513D01*
X024492Y018608D01*
X024492Y019672D01*
X024441Y019694D01*
X024286Y019848D01*
X024252Y019930D01*
X024219Y019848D01*
X024064Y019694D01*
X024012Y019672D01*
X024012Y017768D01*
X024091Y017689D01*
X024143Y017710D01*
X024362Y017710D01*
X024564Y017626D01*
X024719Y017472D01*
X024802Y017269D01*
X024802Y017051D01*
X024719Y016848D01*
X024564Y016694D01*
X024362Y016610D01*
X024143Y016610D01*
X023941Y016694D01*
X023786Y016848D01*
X023702Y017051D01*
X023702Y017269D01*
X023724Y017321D01*
X023532Y017513D01*
X023492Y017608D01*
X023492Y019672D01*
X023441Y019694D01*
X023286Y019848D01*
X023252Y019930D01*
X023219Y019848D01*
X023064Y019694D01*
X023012Y019672D01*
X023012Y017608D01*
X022973Y017513D01*
X022781Y017321D01*
X022802Y017269D01*
X022802Y017051D01*
X022719Y016848D01*
X022564Y016694D01*
X022362Y016610D01*
X022143Y016610D01*
X021941Y016694D01*
X021786Y016848D01*
X021702Y017051D01*
X021702Y017269D01*
X021786Y017472D01*
X021941Y017626D01*
X022143Y017710D01*
X022362Y017710D01*
X022413Y017689D01*
X022492Y017768D01*
X022492Y019672D01*
X022441Y019694D01*
X022286Y019848D01*
X022252Y019930D01*
X022219Y019848D01*
X022064Y019694D01*
X022012Y019672D01*
X022012Y018608D01*
X021973Y018513D01*
X020781Y017321D01*
X020802Y017269D01*
X020802Y017051D01*
X020719Y016848D01*
X020564Y016694D01*
X020362Y016610D01*
X020143Y016610D01*
X019941Y016694D01*
X019786Y016848D01*
X019702Y017051D01*
X019702Y017269D01*
X019786Y017472D01*
X019941Y017626D01*
X020143Y017710D01*
X020362Y017710D01*
X020413Y017689D01*
X021492Y018768D01*
X021492Y019672D01*
X021441Y019694D01*
X021286Y019848D01*
X021252Y019930D01*
X021219Y019848D01*
X021064Y019694D01*
X021012Y019672D01*
X021012Y019608D01*
X020973Y019513D01*
X018781Y017321D01*
X018802Y017269D01*
X018802Y017051D01*
X018719Y016848D01*
X018564Y016694D01*
X018362Y016610D01*
X018143Y016610D01*
X017941Y016694D01*
X017786Y016848D01*
X017702Y017051D01*
X017702Y017269D01*
X017786Y017472D01*
X017941Y017626D01*
X018143Y017710D01*
X018362Y017710D01*
X018413Y017689D01*
X020430Y019705D01*
X020286Y019848D01*
X020202Y020051D01*
X020202Y020269D01*
X020286Y020472D01*
X020441Y020626D01*
X020643Y020710D01*
X020862Y020710D01*
X021064Y020626D01*
X021219Y020472D01*
X021252Y020390D01*
X021286Y020472D01*
X021441Y020626D01*
X021643Y020710D01*
X021862Y020710D01*
X022064Y020626D01*
X022219Y020472D01*
X022252Y020390D01*
X022286Y020472D01*
X022441Y020626D01*
X022643Y020710D01*
X022862Y020710D01*
X023064Y020626D01*
X023219Y020472D01*
X023252Y020390D01*
X023286Y020472D01*
X023441Y020626D01*
X023643Y020710D01*
X023862Y020710D01*
X024064Y020626D01*
X024219Y020472D01*
X024252Y020390D01*
X024286Y020472D01*
X024441Y020626D01*
X024643Y020710D01*
X024862Y020710D01*
X025064Y020626D01*
X025219Y020472D01*
X025252Y020390D01*
X025286Y020472D01*
X025441Y020626D01*
X025643Y020710D01*
X025862Y020710D01*
X026064Y020626D01*
X026219Y020472D01*
X026252Y020390D01*
X026286Y020472D01*
X026441Y020626D01*
X026643Y020710D01*
X026862Y020710D01*
X027064Y020626D01*
X027219Y020472D01*
X027252Y020390D01*
X027286Y020472D01*
X027441Y020626D01*
X027643Y020710D01*
X027862Y020710D01*
X028064Y020626D01*
X028219Y020472D01*
X028302Y020269D01*
X028302Y020051D01*
X028219Y019848D01*
X028064Y019694D01*
X027862Y019610D01*
X027643Y019610D01*
X027441Y019694D01*
X027286Y019848D01*
X027252Y019930D01*
X027219Y019848D01*
X027064Y019694D01*
X026862Y019610D01*
X026643Y019610D01*
X026441Y019694D01*
X026286Y019848D01*
X026252Y019930D01*
X026219Y019848D01*
X026075Y019705D01*
X028091Y017689D01*
X028143Y017710D01*
X028362Y017710D01*
X028564Y017626D01*
X028719Y017472D01*
X028802Y017269D01*
X028802Y017051D01*
X028719Y016848D01*
X028564Y016694D01*
X028620Y016750D02*
X030247Y016750D01*
X030222Y016869D02*
X028727Y016869D01*
X028776Y016987D02*
X030228Y016987D01*
X030222Y016952D02*
X030222Y016948D01*
X030714Y016948D01*
X030714Y017440D01*
X030711Y017440D01*
X030628Y017427D01*
X030549Y017401D01*
X030475Y017363D01*
X030407Y017314D01*
X030348Y017255D01*
X030299Y017188D01*
X030261Y017113D01*
X030235Y017034D01*
X030222Y016952D01*
X030259Y017106D02*
X028802Y017106D01*
X028802Y017224D02*
X030325Y017224D01*
X030446Y017343D02*
X028772Y017343D01*
X028723Y017461D02*
X033442Y017461D01*
X033442Y017343D02*
X031059Y017343D01*
X031179Y017224D02*
X033453Y017224D01*
X033502Y017106D02*
X031246Y017106D01*
X031277Y016987D02*
X033551Y016987D01*
X033648Y016869D02*
X032020Y016869D01*
X032160Y016750D02*
X033767Y016750D01*
X034015Y016632D02*
X032234Y016632D01*
X032273Y016513D02*
X035032Y016513D01*
X035032Y016395D02*
X031791Y016395D01*
X031714Y016395D02*
X031020Y016395D01*
X031105Y016513D02*
X031232Y016513D01*
X031235Y016534D02*
X031222Y016452D01*
X031222Y016448D01*
X031714Y016448D01*
X031714Y016940D01*
X031711Y016940D01*
X031628Y016927D01*
X031549Y016901D01*
X031475Y016863D01*
X031407Y016814D01*
X031348Y016755D01*
X031299Y016688D01*
X031261Y016613D01*
X031235Y016534D01*
X031205Y016632D02*
X031270Y016632D01*
X031258Y016750D02*
X031344Y016750D01*
X031282Y016869D02*
X031485Y016869D01*
X031714Y016869D02*
X031791Y016869D01*
X031791Y016750D02*
X031714Y016750D01*
X031714Y016632D02*
X031791Y016632D01*
X031791Y016513D02*
X031714Y016513D01*
X032266Y016276D02*
X035032Y016276D01*
X035032Y016158D02*
X032219Y016158D01*
X032131Y016039D02*
X035032Y016039D01*
X035032Y015921D02*
X031959Y015921D01*
X032138Y015802D02*
X035032Y015802D01*
X035032Y015684D02*
X032234Y015684D01*
X032283Y015565D02*
X035032Y015565D01*
X035032Y015447D02*
X032302Y015447D01*
X032302Y015328D02*
X035032Y015328D01*
X035032Y015210D02*
X032265Y015210D01*
X032211Y015091D02*
X035032Y015091D01*
X035032Y014973D02*
X032093Y014973D01*
X032086Y014854D02*
X035032Y014854D01*
X035032Y014736D02*
X032205Y014736D01*
X032262Y014617D02*
X035032Y014617D01*
X035032Y014499D02*
X032302Y014499D01*
X032302Y014380D02*
X035032Y014380D01*
X035032Y014262D02*
X032286Y014262D01*
X032237Y014143D02*
X035032Y014143D01*
X035032Y014025D02*
X032145Y014025D01*
X032251Y013906D02*
X035032Y013906D01*
X035032Y013788D02*
X032302Y013788D01*
X032302Y013669D02*
X033968Y013669D01*
X033747Y013551D02*
X032302Y013551D01*
X032302Y013432D02*
X033629Y013432D01*
X033543Y013314D02*
X032302Y013314D01*
X032302Y013195D02*
X033494Y013195D01*
X033445Y013077D02*
X032302Y013077D01*
X032295Y012958D02*
X033442Y012958D01*
X033442Y012840D02*
X030082Y012840D01*
X030082Y012958D02*
X031210Y012958D01*
X031202Y013077D02*
X030082Y013077D01*
X030082Y013195D02*
X031202Y013195D01*
X031202Y013314D02*
X030046Y013314D01*
X029947Y013432D02*
X030469Y013432D01*
X030334Y013551D02*
X029829Y013551D01*
X029710Y013669D02*
X030257Y013669D01*
X030208Y013788D02*
X029592Y013788D01*
X029582Y013906D02*
X030202Y013906D01*
X030204Y014025D02*
X029582Y014025D01*
X029582Y014143D02*
X030254Y014143D01*
X030326Y014262D02*
X029582Y014262D01*
X029582Y014380D02*
X030450Y014380D01*
X030386Y014499D02*
X029582Y014499D01*
X029582Y014617D02*
X030278Y014617D01*
X030229Y014736D02*
X029582Y014736D01*
X029582Y014854D02*
X030202Y014854D01*
X030202Y014973D02*
X029582Y014973D01*
X029582Y015091D02*
X030232Y015091D01*
X030281Y015210D02*
X029582Y015210D01*
X029582Y015328D02*
X030393Y015328D01*
X030438Y015447D02*
X029582Y015447D01*
X029624Y015565D02*
X030320Y015565D01*
X030341Y016276D02*
X011944Y016276D01*
X011982Y016395D02*
X030485Y016395D01*
X030400Y016513D02*
X011982Y016513D01*
X011982Y016632D02*
X014091Y016632D01*
X013885Y016750D02*
X011982Y016750D01*
X011982Y016869D02*
X013778Y016869D01*
X013729Y016987D02*
X011982Y016987D01*
X011982Y017106D02*
X013702Y017106D01*
X013702Y017224D02*
X011982Y017224D01*
X011982Y017343D02*
X013733Y017343D01*
X013782Y017461D02*
X011982Y017461D01*
X011982Y017580D02*
X013894Y017580D01*
X013992Y017698D02*
X011982Y017698D01*
X011982Y017817D02*
X014041Y017817D01*
X014160Y017935D02*
X012065Y017935D01*
X012120Y018054D02*
X014278Y018054D01*
X014397Y018172D02*
X012132Y018172D01*
X012110Y018291D02*
X014515Y018291D01*
X014674Y018409D02*
X012041Y018409D01*
X014611Y017580D02*
X015894Y017580D01*
X015782Y017461D02*
X014723Y017461D01*
X014772Y017343D02*
X015733Y017343D01*
X015702Y017224D02*
X014802Y017224D01*
X014802Y017106D02*
X015702Y017106D01*
X015729Y016987D02*
X014776Y016987D01*
X014727Y016869D02*
X015778Y016869D01*
X015885Y016750D02*
X014620Y016750D01*
X014414Y016632D02*
X016091Y016632D01*
X016414Y016632D02*
X018091Y016632D01*
X017885Y016750D02*
X016620Y016750D01*
X016727Y016869D02*
X017778Y016869D01*
X017729Y016987D02*
X016776Y016987D01*
X016802Y017106D02*
X017702Y017106D01*
X017702Y017224D02*
X016802Y017224D01*
X016803Y017343D02*
X017733Y017343D01*
X017782Y017461D02*
X016921Y017461D01*
X017040Y017580D02*
X017894Y017580D01*
X018114Y017698D02*
X017158Y017698D01*
X017277Y017817D02*
X018541Y017817D01*
X018660Y017935D02*
X017395Y017935D01*
X017514Y018054D02*
X018778Y018054D01*
X018897Y018172D02*
X017632Y018172D01*
X017751Y018291D02*
X019015Y018291D01*
X019134Y018409D02*
X017869Y018409D01*
X017988Y018528D02*
X019252Y018528D01*
X019371Y018646D02*
X018106Y018646D01*
X018225Y018765D02*
X019489Y018765D01*
X019608Y018883D02*
X018343Y018883D01*
X018462Y019002D02*
X019726Y019002D01*
X019845Y019120D02*
X018580Y019120D01*
X018699Y019239D02*
X019963Y019239D01*
X020082Y019357D02*
X018817Y019357D01*
X018936Y019476D02*
X020200Y019476D01*
X020319Y019594D02*
X019054Y019594D01*
X019583Y019713D02*
X020422Y019713D01*
X020304Y019831D02*
X019701Y019831D01*
X019761Y019950D02*
X020244Y019950D01*
X020202Y020068D02*
X019802Y020068D01*
X019802Y020187D02*
X020202Y020187D01*
X020217Y020305D02*
X019788Y020305D01*
X019739Y020424D02*
X020266Y020424D01*
X020357Y020542D02*
X019648Y020542D01*
X019481Y020661D02*
X020524Y020661D01*
X020981Y020661D02*
X021524Y020661D01*
X021357Y020542D02*
X021148Y020542D01*
X021239Y020424D02*
X021266Y020424D01*
X021981Y020661D02*
X022524Y020661D01*
X022357Y020542D02*
X022148Y020542D01*
X022239Y020424D02*
X022266Y020424D01*
X022981Y020661D02*
X023524Y020661D01*
X023357Y020542D02*
X023148Y020542D01*
X023239Y020424D02*
X023266Y020424D01*
X023981Y020661D02*
X024524Y020661D01*
X024357Y020542D02*
X024148Y020542D01*
X024239Y020424D02*
X024266Y020424D01*
X024981Y020661D02*
X025524Y020661D01*
X025357Y020542D02*
X025148Y020542D01*
X025239Y020424D02*
X025266Y020424D01*
X025981Y020661D02*
X026524Y020661D01*
X026357Y020542D02*
X026148Y020542D01*
X026239Y020424D02*
X026266Y020424D01*
X026981Y020661D02*
X027524Y020661D01*
X027357Y020542D02*
X027148Y020542D01*
X027239Y020424D02*
X027266Y020424D01*
X027981Y020661D02*
X034441Y020661D01*
X034322Y020779D02*
X007183Y020779D01*
X007301Y020898D02*
X034204Y020898D01*
X034559Y020542D02*
X028148Y020542D01*
X028239Y020424D02*
X034678Y020424D01*
X034796Y020305D02*
X028288Y020305D01*
X028302Y020187D02*
X034915Y020187D01*
X035032Y020068D02*
X028302Y020068D01*
X028261Y019950D02*
X035032Y019950D01*
X035032Y019831D02*
X028201Y019831D01*
X028083Y019713D02*
X035032Y019713D01*
X035032Y019594D02*
X026186Y019594D01*
X026083Y019713D02*
X026422Y019713D01*
X026304Y019831D02*
X026201Y019831D01*
X026305Y019476D02*
X035032Y019476D01*
X035032Y019357D02*
X026423Y019357D01*
X026542Y019239D02*
X035032Y019239D01*
X035032Y019120D02*
X026660Y019120D01*
X026779Y019002D02*
X035032Y019002D01*
X035032Y018883D02*
X026897Y018883D01*
X027016Y018765D02*
X035032Y018765D01*
X035032Y018646D02*
X027134Y018646D01*
X027253Y018528D02*
X035032Y018528D01*
X035032Y018409D02*
X027371Y018409D01*
X027490Y018291D02*
X035032Y018291D01*
X035032Y018172D02*
X034529Y018172D01*
X034754Y018054D02*
X035032Y018054D01*
X035032Y017935D02*
X034873Y017935D01*
X034961Y017817D02*
X035032Y017817D01*
X035032Y017698D02*
X035010Y017698D01*
X035003Y017106D02*
X035032Y017106D01*
X035032Y016987D02*
X034954Y016987D01*
X035032Y016869D02*
X034856Y016869D01*
X034738Y016750D02*
X035032Y016750D01*
X035032Y016632D02*
X034489Y016632D01*
X033446Y017580D02*
X028611Y017580D01*
X028391Y017698D02*
X033495Y017698D01*
X033544Y017817D02*
X027964Y017817D01*
X028082Y017698D02*
X028114Y017698D01*
X027845Y017935D02*
X033632Y017935D01*
X033750Y018054D02*
X027727Y018054D01*
X027608Y018172D02*
X033976Y018172D01*
X030791Y017343D02*
X030714Y017343D01*
X030714Y017224D02*
X030791Y017224D01*
X030791Y017106D02*
X030714Y017106D01*
X030714Y016987D02*
X030791Y016987D01*
X030300Y016632D02*
X028414Y016632D01*
X028091Y016632D02*
X026414Y016632D01*
X026620Y016750D02*
X027885Y016750D01*
X027778Y016869D02*
X026727Y016869D01*
X026776Y016987D02*
X027729Y016987D01*
X027702Y017106D02*
X026802Y017106D01*
X026802Y017224D02*
X027702Y017224D01*
X027702Y017343D02*
X026772Y017343D01*
X026723Y017461D02*
X027584Y017461D01*
X027465Y017580D02*
X026611Y017580D01*
X026391Y017698D02*
X027347Y017698D01*
X027228Y017817D02*
X025964Y017817D01*
X026082Y017698D02*
X026114Y017698D01*
X025845Y017935D02*
X027110Y017935D01*
X026991Y018054D02*
X025727Y018054D01*
X025608Y018172D02*
X026873Y018172D01*
X026754Y018291D02*
X025490Y018291D01*
X025371Y018409D02*
X026636Y018409D01*
X026517Y018528D02*
X025253Y018528D01*
X025134Y018646D02*
X026399Y018646D01*
X026280Y018765D02*
X025016Y018765D01*
X025012Y018883D02*
X026162Y018883D01*
X026043Y019002D02*
X025012Y019002D01*
X025012Y019120D02*
X025925Y019120D01*
X025806Y019239D02*
X025012Y019239D01*
X025012Y019357D02*
X025688Y019357D01*
X025569Y019476D02*
X025012Y019476D01*
X025012Y019594D02*
X025498Y019594D01*
X025422Y019713D02*
X025083Y019713D01*
X025201Y019831D02*
X025304Y019831D01*
X024492Y019594D02*
X024012Y019594D01*
X024012Y019476D02*
X024492Y019476D01*
X024492Y019357D02*
X024012Y019357D01*
X024012Y019239D02*
X024492Y019239D01*
X024492Y019120D02*
X024012Y019120D01*
X024012Y019002D02*
X024492Y019002D01*
X024492Y018883D02*
X024012Y018883D01*
X024012Y018765D02*
X024492Y018765D01*
X024492Y018646D02*
X024012Y018646D01*
X024012Y018528D02*
X024526Y018528D01*
X024636Y018409D02*
X024012Y018409D01*
X024012Y018291D02*
X024754Y018291D01*
X024873Y018172D02*
X024012Y018172D01*
X024012Y018054D02*
X024991Y018054D01*
X025110Y017935D02*
X024012Y017935D01*
X024012Y017817D02*
X025228Y017817D01*
X025347Y017698D02*
X024391Y017698D01*
X024611Y017580D02*
X025465Y017580D01*
X025584Y017461D02*
X024723Y017461D01*
X024772Y017343D02*
X025702Y017343D01*
X025702Y017224D02*
X024802Y017224D01*
X024802Y017106D02*
X025702Y017106D01*
X025729Y016987D02*
X024776Y016987D01*
X024727Y016869D02*
X025778Y016869D01*
X025885Y016750D02*
X024620Y016750D01*
X024414Y016632D02*
X026091Y016632D01*
X024091Y016632D02*
X022414Y016632D01*
X022620Y016750D02*
X023885Y016750D01*
X023778Y016869D02*
X022727Y016869D01*
X022776Y016987D02*
X023729Y016987D01*
X023702Y017106D02*
X022802Y017106D01*
X022802Y017224D02*
X023702Y017224D01*
X023702Y017343D02*
X022803Y017343D01*
X022921Y017461D02*
X023584Y017461D01*
X023504Y017580D02*
X023000Y017580D01*
X023012Y017698D02*
X023492Y017698D01*
X023492Y017817D02*
X023012Y017817D01*
X023012Y017935D02*
X023492Y017935D01*
X023492Y018054D02*
X023012Y018054D01*
X023012Y018172D02*
X023492Y018172D01*
X023492Y018291D02*
X023012Y018291D01*
X023012Y018409D02*
X023492Y018409D01*
X023492Y018528D02*
X023012Y018528D01*
X023012Y018646D02*
X023492Y018646D01*
X023492Y018765D02*
X023012Y018765D01*
X023012Y018883D02*
X023492Y018883D01*
X023492Y019002D02*
X023012Y019002D01*
X023012Y019120D02*
X023492Y019120D01*
X023492Y019239D02*
X023012Y019239D01*
X023012Y019357D02*
X023492Y019357D01*
X023492Y019476D02*
X023012Y019476D01*
X023012Y019594D02*
X023492Y019594D01*
X023422Y019713D02*
X023083Y019713D01*
X023201Y019831D02*
X023304Y019831D01*
X024083Y019713D02*
X024422Y019713D01*
X024304Y019831D02*
X024201Y019831D01*
X022492Y019594D02*
X022012Y019594D01*
X022012Y019476D02*
X022492Y019476D01*
X022492Y019357D02*
X022012Y019357D01*
X022012Y019239D02*
X022492Y019239D01*
X022492Y019120D02*
X022012Y019120D01*
X022012Y019002D02*
X022492Y019002D01*
X022492Y018883D02*
X022012Y018883D01*
X022012Y018765D02*
X022492Y018765D01*
X022492Y018646D02*
X022012Y018646D01*
X021979Y018528D02*
X022492Y018528D01*
X022492Y018409D02*
X021869Y018409D01*
X021751Y018291D02*
X022492Y018291D01*
X022492Y018172D02*
X021632Y018172D01*
X021514Y018054D02*
X022492Y018054D01*
X022492Y017935D02*
X021395Y017935D01*
X021277Y017817D02*
X022492Y017817D01*
X022423Y017698D02*
X022391Y017698D01*
X022114Y017698D02*
X021158Y017698D01*
X021040Y017580D02*
X021894Y017580D01*
X021782Y017461D02*
X020921Y017461D01*
X020803Y017343D02*
X021733Y017343D01*
X021702Y017224D02*
X020802Y017224D01*
X020802Y017106D02*
X021702Y017106D01*
X021729Y016987D02*
X020776Y016987D01*
X020727Y016869D02*
X021778Y016869D01*
X021885Y016750D02*
X020620Y016750D01*
X020414Y016632D02*
X022091Y016632D01*
X020423Y017698D02*
X020391Y017698D01*
X020541Y017817D02*
X019277Y017817D01*
X019395Y017935D02*
X020660Y017935D01*
X020778Y018054D02*
X019514Y018054D01*
X019632Y018172D02*
X020897Y018172D01*
X021015Y018291D02*
X019751Y018291D01*
X019869Y018409D02*
X021134Y018409D01*
X021252Y018528D02*
X019988Y018528D01*
X020106Y018646D02*
X021371Y018646D01*
X021489Y018765D02*
X020225Y018765D01*
X020343Y018883D02*
X021492Y018883D01*
X021492Y019002D02*
X020462Y019002D01*
X020580Y019120D02*
X021492Y019120D01*
X021492Y019239D02*
X020699Y019239D01*
X020817Y019357D02*
X021492Y019357D01*
X021492Y019476D02*
X020936Y019476D01*
X021006Y019594D02*
X021492Y019594D01*
X021422Y019713D02*
X021083Y019713D01*
X021201Y019831D02*
X021304Y019831D01*
X022083Y019713D02*
X022422Y019713D01*
X022304Y019831D02*
X022201Y019831D01*
X019024Y020661D02*
X018481Y020661D01*
X018648Y020542D02*
X018857Y020542D01*
X018766Y020424D02*
X018739Y020424D01*
X018024Y020661D02*
X017481Y020661D01*
X017648Y020542D02*
X017857Y020542D01*
X017766Y020424D02*
X017739Y020424D01*
X017024Y020661D02*
X016481Y020661D01*
X016648Y020542D02*
X016857Y020542D01*
X016766Y020424D02*
X016739Y020424D01*
X016024Y020661D02*
X015481Y020661D01*
X015648Y020542D02*
X015857Y020542D01*
X015766Y020424D02*
X015739Y020424D01*
X015024Y020661D02*
X014481Y020661D01*
X014648Y020542D02*
X014857Y020542D01*
X014766Y020424D02*
X014739Y020424D01*
X014024Y020661D02*
X013427Y020661D01*
X013292Y020661D02*
X013212Y020661D01*
X013212Y020542D02*
X013292Y020542D01*
X013292Y020424D02*
X013212Y020424D01*
X013212Y020305D02*
X013292Y020305D01*
X013292Y020068D02*
X013212Y020068D01*
X013212Y019950D02*
X013292Y019950D01*
X013292Y019831D02*
X013212Y019831D01*
X013212Y019713D02*
X013292Y019713D01*
X013538Y019713D02*
X013922Y019713D01*
X013804Y019831D02*
X013668Y019831D01*
X013740Y019950D02*
X013744Y019950D01*
X013766Y020424D02*
X013713Y020424D01*
X013620Y020542D02*
X013857Y020542D01*
X013078Y020661D02*
X012481Y020661D01*
X012648Y020542D02*
X012885Y020542D01*
X012792Y020424D02*
X012739Y020424D01*
X012024Y020661D02*
X007064Y020661D01*
X006946Y020542D02*
X007668Y020542D01*
X007679Y020553D02*
X007610Y020484D01*
X007572Y020394D01*
X007572Y020200D01*
X007570Y020191D01*
X007572Y020151D01*
X007572Y020111D01*
X007576Y020103D01*
X007576Y020095D01*
X007572Y020085D01*
X007572Y019988D01*
X007610Y019898D01*
X007740Y019767D01*
X007830Y019730D01*
X008051Y019730D01*
X008127Y019761D01*
X008141Y019767D01*
X008141Y019767D01*
X008141Y019767D01*
X008203Y019829D01*
X008203Y019829D01*
X008271Y019897D01*
X008272Y019898D01*
X008279Y019915D01*
X008498Y019915D01*
X008530Y019836D01*
X008599Y019767D01*
X008689Y019730D01*
X009034Y019730D01*
X009092Y019754D01*
X009150Y019730D01*
X009494Y019730D01*
X009584Y019767D01*
X009653Y019836D01*
X009686Y019915D01*
X009879Y019915D01*
X009912Y019836D01*
X009981Y019767D01*
X010071Y019730D01*
X010415Y019730D01*
X010473Y019754D01*
X010531Y019730D01*
X010875Y019730D01*
X010965Y019767D01*
X011034Y019836D01*
X011072Y019926D01*
X011072Y020024D01*
X011041Y020098D01*
X011072Y020173D01*
X011072Y020332D01*
X011034Y020422D01*
X010973Y020484D01*
X010904Y020553D01*
X010814Y020590D01*
X010593Y020590D01*
X010555Y020575D01*
X010503Y020553D01*
X010503Y020553D01*
X010502Y020552D01*
X010442Y020492D01*
X010382Y020553D01*
X010291Y020590D01*
X010194Y020590D01*
X010104Y020553D01*
X010035Y020484D01*
X009956Y020405D01*
X009955Y020405D01*
X009660Y020405D01*
X009653Y020422D01*
X009591Y020484D01*
X009522Y020553D01*
X009432Y020590D01*
X009212Y020590D01*
X009174Y020575D01*
X009121Y020553D01*
X009120Y020552D01*
X009061Y020492D01*
X009000Y020553D01*
X008910Y020590D01*
X008813Y020590D01*
X008723Y020553D01*
X008654Y020484D01*
X008574Y020405D01*
X008573Y020405D01*
X008305Y020405D01*
X008272Y020484D01*
X008203Y020553D01*
X008113Y020590D01*
X007769Y020590D01*
X007679Y020553D01*
X007585Y020424D02*
X006827Y020424D01*
X006709Y020305D02*
X007572Y020305D01*
X007570Y020187D02*
X006590Y020187D01*
X006472Y020068D02*
X007572Y020068D01*
X007588Y019950D02*
X006472Y019950D01*
X006472Y019831D02*
X007677Y019831D01*
X008205Y019831D02*
X008536Y019831D01*
X008272Y019898D02*
X008272Y019898D01*
X009124Y019357D02*
X006472Y019357D01*
X006472Y019239D02*
X009006Y019239D01*
X008887Y019120D02*
X006472Y019120D01*
X006472Y019002D02*
X008769Y019002D01*
X008650Y018883D02*
X006472Y018883D01*
X006472Y018765D02*
X008532Y018765D01*
X008522Y018646D02*
X006472Y018646D01*
X006472Y018528D02*
X008522Y018528D01*
X008522Y018409D02*
X006472Y018409D01*
X006472Y018291D02*
X008522Y018291D01*
X008522Y018172D02*
X007529Y018172D01*
X007754Y018054D02*
X008522Y018054D01*
X008522Y017935D02*
X007873Y017935D01*
X007961Y017817D02*
X008522Y017817D01*
X008522Y017698D02*
X008010Y017698D01*
X008059Y017580D02*
X008522Y017580D01*
X008522Y017461D02*
X008062Y017461D01*
X008062Y017343D02*
X008522Y017343D01*
X008522Y017224D02*
X008052Y017224D01*
X008003Y017106D02*
X008522Y017106D01*
X008522Y016987D02*
X007954Y016987D01*
X007856Y016869D02*
X008522Y016869D01*
X008522Y016750D02*
X007738Y016750D01*
X007489Y016632D02*
X008522Y016632D01*
X008522Y016513D02*
X006472Y016513D01*
X006472Y016395D02*
X008522Y016395D01*
X008522Y016276D02*
X006472Y016276D01*
X006472Y016158D02*
X008522Y016158D01*
X008548Y016039D02*
X006472Y016039D01*
X006472Y015921D02*
X008667Y015921D01*
X008785Y015802D02*
X006472Y015802D01*
X006472Y015684D02*
X008904Y015684D01*
X009320Y015565D02*
X006472Y015565D01*
X006472Y015447D02*
X009438Y015447D01*
X009393Y015328D02*
X006472Y015328D01*
X006472Y015210D02*
X009281Y015210D01*
X009232Y015091D02*
X006472Y015091D01*
X006472Y014973D02*
X009202Y014973D01*
X009202Y014854D02*
X006472Y014854D01*
X006472Y014736D02*
X009229Y014736D01*
X009278Y014617D02*
X006472Y014617D01*
X006472Y014499D02*
X009386Y014499D01*
X009507Y014380D02*
X006472Y014380D01*
X006472Y014262D02*
X009354Y014262D01*
X009276Y014143D02*
X006472Y014143D01*
X006472Y014025D02*
X009234Y014025D01*
X009235Y013788D02*
X006472Y013788D01*
X006472Y013906D02*
X009714Y013906D01*
X009791Y013906D02*
X010532Y013906D01*
X010380Y013788D02*
X010270Y013788D01*
X010269Y013786D02*
X010282Y013868D01*
X010282Y013872D01*
X009791Y013872D01*
X009791Y013380D01*
X009794Y013380D01*
X009876Y013393D01*
X009956Y013419D01*
X010030Y013457D01*
X010098Y013506D01*
X010157Y013565D01*
X010206Y013632D01*
X010244Y013707D01*
X010269Y013786D01*
X010290Y013669D02*
X010224Y013669D01*
X010241Y013551D02*
X010142Y013551D01*
X009982Y013432D02*
X010714Y013432D01*
X010791Y013432D02*
X011922Y013432D01*
X011922Y013314D02*
X011274Y013314D01*
X011269Y013286D02*
X011282Y013368D01*
X011282Y013372D01*
X010791Y013372D01*
X010791Y012880D01*
X010794Y012880D01*
X010876Y012893D01*
X010956Y012919D01*
X011030Y012957D01*
X011098Y013006D01*
X011157Y013065D01*
X011206Y013132D01*
X011244Y013207D01*
X011269Y013286D01*
X011238Y013195D02*
X011922Y013195D01*
X011922Y013077D02*
X011165Y013077D01*
X011032Y012958D02*
X011922Y012958D01*
X011922Y012840D02*
X008062Y012840D01*
X008062Y012958D02*
X010473Y012958D01*
X010340Y013077D02*
X008060Y013077D01*
X008011Y013195D02*
X010267Y013195D01*
X010231Y013314D02*
X007962Y013314D01*
X007876Y013432D02*
X009523Y013432D01*
X009714Y013432D02*
X009791Y013432D01*
X009791Y013551D02*
X009714Y013551D01*
X009714Y013669D02*
X009791Y013669D01*
X009791Y013788D02*
X009714Y013788D01*
X009362Y013551D02*
X007757Y013551D01*
X007536Y013669D02*
X009280Y013669D01*
X010271Y014025D02*
X010360Y014025D01*
X010268Y014143D02*
X010228Y014143D01*
X010219Y014262D02*
X010150Y014262D01*
X010202Y014380D02*
X009997Y014380D01*
X010119Y014499D02*
X010197Y014499D01*
X010973Y013906D02*
X011540Y013906D01*
X011658Y013788D02*
X011124Y013788D01*
X011215Y013669D02*
X011777Y013669D01*
X011895Y013551D02*
X011264Y013551D01*
X011145Y014025D02*
X011421Y014025D01*
X010791Y013314D02*
X010714Y013314D01*
X010714Y013195D02*
X010791Y013195D01*
X010791Y013077D02*
X010714Y013077D01*
X010714Y012958D02*
X010791Y012958D01*
X011922Y012721D02*
X008051Y012721D01*
X008002Y012603D02*
X011922Y012603D01*
X011922Y012484D02*
X007953Y012484D01*
X007853Y012366D02*
X011922Y012366D01*
X011922Y012247D02*
X007735Y012247D01*
X007482Y012129D02*
X011922Y012129D01*
X011922Y012010D02*
X006472Y012010D01*
X006472Y011892D02*
X011922Y011892D01*
X011922Y011773D02*
X006472Y011773D01*
X006472Y011655D02*
X011922Y011655D01*
X011922Y011536D02*
X006472Y011536D01*
X006472Y011418D02*
X011922Y011418D01*
X011922Y011299D02*
X006472Y011299D01*
X006472Y011181D02*
X011922Y011181D01*
X011922Y011062D02*
X006472Y011062D01*
X006472Y010944D02*
X011922Y010944D01*
X011922Y010825D02*
X006472Y010825D01*
X006472Y010707D02*
X011922Y010707D01*
X011922Y010588D02*
X006472Y010588D01*
X006472Y010470D02*
X011922Y010470D01*
X011922Y010351D02*
X006472Y010351D01*
X006472Y010233D02*
X011922Y010233D01*
X011922Y010114D02*
X006472Y010114D01*
X006472Y009996D02*
X011922Y009996D01*
X011922Y009877D02*
X006472Y009877D01*
X006472Y009759D02*
X011922Y009759D01*
X011922Y009640D02*
X006472Y009640D01*
X006472Y009522D02*
X011922Y009522D01*
X011922Y009403D02*
X006472Y009403D01*
X006472Y009285D02*
X011922Y009285D01*
X011922Y009166D02*
X007544Y009166D01*
X007760Y009048D02*
X011922Y009048D01*
X011922Y008929D02*
X007879Y008929D01*
X007963Y008811D02*
X011922Y008811D01*
X011922Y008692D02*
X008012Y008692D01*
X008061Y008574D02*
X011922Y008574D01*
X011922Y008455D02*
X010202Y008455D01*
X010302Y008337D02*
X011922Y008337D01*
X011922Y008218D02*
X010302Y008218D01*
X010302Y008100D02*
X011922Y008100D01*
X011922Y007981D02*
X010302Y007981D01*
X010302Y007863D02*
X010427Y007863D01*
X010309Y007744D02*
X010302Y007744D01*
X011078Y007863D02*
X011922Y007863D01*
X011922Y007744D02*
X011196Y007744D01*
X011258Y007626D02*
X011922Y007626D01*
X011922Y007507D02*
X011302Y007507D01*
X011302Y007389D02*
X011922Y007389D01*
X011922Y007270D02*
X011290Y007270D01*
X011241Y007152D02*
X011922Y007152D01*
X011922Y007033D02*
X011153Y007033D01*
X010993Y006915D02*
X011922Y006915D01*
X011922Y006796D02*
X011144Y006796D01*
X011237Y006678D02*
X011922Y006678D01*
X011922Y006559D02*
X011286Y006559D01*
X011302Y006441D02*
X011922Y006441D01*
X011922Y006322D02*
X011302Y006322D01*
X011262Y006204D02*
X011922Y006204D01*
X011922Y006085D02*
X011205Y006085D01*
X011087Y005967D02*
X011922Y005967D01*
X011922Y005848D02*
X011092Y005848D01*
X011211Y005730D02*
X011922Y005730D01*
X010366Y005019D02*
X010272Y005019D01*
X010270Y005137D02*
X010232Y005137D01*
X010221Y005256D02*
X010156Y005256D01*
X010202Y005374D02*
X010009Y005374D01*
X010113Y005493D02*
X010202Y005493D01*
X009496Y005374D02*
X006472Y005374D01*
X006472Y005256D02*
X009348Y005256D01*
X009273Y005137D02*
X006472Y005137D01*
X006472Y005019D02*
X009233Y005019D01*
X009237Y004782D02*
X006472Y004782D01*
X006472Y004900D02*
X009714Y004900D01*
X009283Y004663D02*
X007551Y004663D01*
X007763Y004545D02*
X009368Y004545D01*
X009535Y004426D02*
X007882Y004426D01*
X006954Y004663D02*
X006472Y004663D01*
X006472Y004545D02*
X006741Y004545D01*
X006623Y004426D02*
X006472Y004426D01*
X006472Y004308D02*
X006540Y004308D01*
X006491Y004189D02*
X006472Y004189D01*
X006472Y003597D02*
X006506Y003597D01*
X006472Y003478D02*
X006555Y003478D01*
X006472Y003360D02*
X006657Y003360D01*
X006776Y003241D02*
X006472Y003241D01*
X006472Y003123D02*
X007037Y003123D01*
X007847Y003360D02*
X015086Y003360D01*
X015783Y003597D02*
X028922Y003597D01*
X028922Y003715D02*
X015664Y003715D01*
X015546Y003834D02*
X028922Y003834D01*
X028922Y003952D02*
X015427Y003952D01*
X015309Y004071D02*
X028922Y004071D01*
X028922Y004189D02*
X015190Y004189D01*
X015072Y004308D02*
X028922Y004308D01*
X028922Y004426D02*
X014953Y004426D01*
X014835Y004545D02*
X028922Y004545D01*
X028922Y004663D02*
X014716Y004663D01*
X014598Y004782D02*
X028922Y004782D01*
X028922Y004900D02*
X028635Y004900D01*
X028822Y005019D02*
X028922Y005019D01*
X028913Y005137D02*
X028922Y005137D01*
X029582Y004900D02*
X035032Y004900D01*
X035032Y004782D02*
X029582Y004782D01*
X029582Y004663D02*
X030530Y004663D01*
X030441Y004626D02*
X030643Y004710D01*
X030862Y004710D01*
X031064Y004626D01*
X031219Y004472D01*
X031262Y004366D01*
X031299Y004438D01*
X031348Y004505D01*
X031407Y004564D01*
X031475Y004613D01*
X031549Y004651D01*
X031628Y004677D01*
X031711Y004690D01*
X031732Y004690D01*
X031732Y004180D01*
X031772Y004180D01*
X031772Y004690D01*
X031794Y004690D01*
X031876Y004677D01*
X031956Y004651D01*
X032030Y004613D01*
X032098Y004564D01*
X032157Y004505D01*
X032206Y004438D01*
X032244Y004363D01*
X032269Y004284D01*
X032282Y004202D01*
X032282Y004180D01*
X031772Y004180D01*
X031772Y004140D01*
X031772Y003630D01*
X031794Y003630D01*
X031876Y003643D01*
X031956Y003669D01*
X032030Y003707D01*
X032098Y003756D01*
X032157Y003815D01*
X032206Y003882D01*
X032244Y003957D01*
X032269Y004036D01*
X032282Y004118D01*
X032282Y004140D01*
X031772Y004140D01*
X031732Y004140D01*
X031732Y003630D01*
X031711Y003630D01*
X031628Y003643D01*
X031549Y003669D01*
X031475Y003707D01*
X031407Y003756D01*
X031348Y003815D01*
X031299Y003882D01*
X031262Y003954D01*
X031219Y003848D01*
X031064Y003694D01*
X030862Y003610D01*
X030643Y003610D01*
X030441Y003694D01*
X030286Y003848D01*
X030202Y004051D01*
X030202Y004269D01*
X030286Y004472D01*
X030441Y004626D01*
X030359Y004545D02*
X029582Y004545D01*
X029582Y004426D02*
X030267Y004426D01*
X030218Y004308D02*
X029582Y004308D01*
X029582Y004189D02*
X030202Y004189D01*
X030202Y004071D02*
X029582Y004071D01*
X029582Y003952D02*
X030243Y003952D01*
X030301Y003834D02*
X029582Y003834D01*
X029582Y003715D02*
X030420Y003715D01*
X031085Y003715D02*
X031463Y003715D01*
X031334Y003834D02*
X031204Y003834D01*
X031262Y003952D02*
X031264Y003952D01*
X031732Y003952D02*
X031772Y003952D01*
X031772Y003834D02*
X031732Y003834D01*
X031732Y003715D02*
X031772Y003715D01*
X032042Y003715D02*
X035032Y003715D01*
X035032Y003597D02*
X029582Y003597D01*
X029582Y003478D02*
X035032Y003478D01*
X035032Y003360D02*
X029582Y003360D01*
X029582Y003241D02*
X035032Y003241D01*
X035032Y003123D02*
X033568Y003123D01*
X033564Y003126D02*
X033362Y003210D01*
X033143Y003210D01*
X032941Y003126D01*
X032786Y002972D01*
X032702Y002769D01*
X032702Y002551D01*
X032786Y002348D01*
X032941Y002194D01*
X033143Y002110D01*
X033362Y002110D01*
X033564Y002194D01*
X033719Y002348D01*
X033802Y002551D01*
X033802Y002769D01*
X033719Y002972D01*
X033564Y003126D01*
X033686Y003004D02*
X035032Y003004D01*
X035032Y002886D02*
X033754Y002886D01*
X033802Y002767D02*
X035032Y002767D01*
X035032Y002649D02*
X033802Y002649D01*
X033794Y002530D02*
X035032Y002530D01*
X035032Y002412D02*
X033745Y002412D01*
X033663Y002293D02*
X035032Y002293D01*
X035032Y002175D02*
X033517Y002175D01*
X032987Y002175D02*
X021234Y002175D01*
X021352Y002293D02*
X032842Y002293D01*
X032760Y002412D02*
X028971Y002412D01*
X029089Y002530D02*
X032711Y002530D01*
X032702Y002649D02*
X029208Y002649D01*
X029326Y002767D02*
X032702Y002767D01*
X032750Y002886D02*
X029445Y002886D01*
X029545Y003004D02*
X032819Y003004D01*
X032937Y003123D02*
X029582Y003123D01*
X028922Y003360D02*
X016020Y003360D01*
X015901Y003478D02*
X028922Y003478D01*
X028867Y003241D02*
X016138Y003241D01*
X016257Y003123D02*
X028748Y003123D01*
X028630Y003004D02*
X016375Y003004D01*
X017494Y002886D02*
X021011Y002886D01*
X020973Y002847D02*
X020973Y002847D01*
X020893Y002767D02*
X017612Y002767D01*
X017731Y002649D02*
X020774Y002649D01*
X020656Y002530D02*
X017849Y002530D01*
X017968Y002412D02*
X020537Y002412D01*
X020450Y002293D02*
X018054Y002293D01*
X018082Y002175D02*
X020422Y002175D01*
X020422Y002056D02*
X018082Y002056D01*
X018082Y001938D02*
X020422Y001938D01*
X020422Y001819D02*
X018082Y001819D01*
X018082Y001701D02*
X020422Y001701D01*
X020397Y001582D02*
X020073Y001582D01*
X020187Y001464D02*
X020283Y001464D01*
X019792Y001464D02*
X019712Y001464D01*
X019712Y001582D02*
X019792Y001582D01*
X019712Y001690D02*
X019711Y001690D01*
X019628Y001677D01*
X019549Y001651D01*
X019475Y001613D01*
X019407Y001564D01*
X019348Y001505D01*
X019299Y001438D01*
X019261Y001363D01*
X019252Y001336D01*
X019244Y001363D01*
X019206Y001438D01*
X019157Y001505D01*
X019098Y001564D01*
X019030Y001613D01*
X018956Y001651D01*
X018876Y001677D01*
X018794Y001690D01*
X018792Y001690D01*
X018792Y001200D01*
X019712Y001200D01*
X019712Y001690D01*
X019432Y001582D02*
X019073Y001582D01*
X019187Y001464D02*
X019318Y001464D01*
X019255Y001345D02*
X019250Y001345D01*
X018792Y001345D02*
X018712Y001345D01*
X018712Y001227D02*
X018792Y001227D01*
X018792Y001108D02*
X018712Y001108D01*
X018712Y000990D02*
X018792Y000990D01*
X018792Y000871D02*
X018712Y000871D01*
X018712Y000753D02*
X018792Y000753D01*
X018792Y000634D02*
X018712Y000634D01*
X018685Y000634D02*
X017920Y000634D01*
X018123Y000753D02*
X018412Y000753D01*
X018307Y000871D02*
X018228Y000871D01*
X018222Y001464D02*
X018318Y001464D01*
X018432Y001582D02*
X018108Y001582D01*
X017422Y001701D02*
X016885Y001701D01*
X017108Y001582D02*
X017397Y001582D01*
X017283Y001464D02*
X017222Y001464D01*
X016620Y001701D02*
X015885Y001701D01*
X016108Y001582D02*
X016397Y001582D01*
X016283Y001464D02*
X016222Y001464D01*
X015620Y001701D02*
X006472Y001701D01*
X006472Y001819D02*
X017422Y001819D01*
X017422Y001938D02*
X006472Y001938D01*
X006472Y002056D02*
X017390Y002056D01*
X018712Y001582D02*
X018792Y001582D01*
X018792Y001464D02*
X018712Y001464D01*
X019198Y000871D02*
X019307Y000871D01*
X019412Y000753D02*
X019093Y000753D01*
X018819Y000634D02*
X019685Y000634D01*
X019712Y000634D02*
X019792Y000634D01*
X019819Y000634D02*
X020585Y000634D01*
X020382Y000753D02*
X020093Y000753D01*
X020198Y000871D02*
X020277Y000871D01*
X019792Y000871D02*
X019712Y000871D01*
X019712Y000753D02*
X019792Y000753D01*
X019792Y000990D02*
X019712Y000990D01*
X019712Y001108D02*
X019792Y001108D01*
X019792Y001227D02*
X019712Y001227D01*
X019712Y001345D02*
X019792Y001345D01*
X021108Y001582D02*
X022397Y001582D01*
X022441Y001626D02*
X022286Y001472D01*
X022202Y001269D01*
X022202Y001051D01*
X022286Y000848D01*
X022441Y000694D01*
X022643Y000610D01*
X022862Y000610D01*
X023064Y000694D01*
X023219Y000848D01*
X023252Y000930D01*
X023286Y000848D01*
X023441Y000694D01*
X023643Y000610D01*
X023862Y000610D01*
X024064Y000694D01*
X024219Y000848D01*
X024252Y000930D01*
X024286Y000848D01*
X024441Y000694D01*
X024643Y000610D01*
X024862Y000610D01*
X025064Y000694D01*
X025219Y000848D01*
X025252Y000930D01*
X025286Y000848D01*
X025441Y000694D01*
X025643Y000610D01*
X025862Y000610D01*
X026064Y000694D01*
X026219Y000848D01*
X026252Y000930D01*
X026286Y000848D01*
X026441Y000694D01*
X026643Y000610D01*
X026862Y000610D01*
X027064Y000694D01*
X027219Y000848D01*
X027252Y000930D01*
X027286Y000848D01*
X027441Y000694D01*
X027643Y000610D01*
X027862Y000610D01*
X028064Y000694D01*
X028219Y000848D01*
X028302Y001051D01*
X028302Y001269D01*
X028219Y001472D01*
X028064Y001626D01*
X027862Y001710D01*
X027643Y001710D01*
X027441Y001626D01*
X027286Y001472D01*
X027252Y001390D01*
X027219Y001472D01*
X027064Y001626D01*
X026862Y001710D01*
X026643Y001710D01*
X026441Y001626D01*
X026286Y001472D01*
X026252Y001390D01*
X026219Y001472D01*
X026064Y001626D01*
X025862Y001710D01*
X025643Y001710D01*
X025441Y001626D01*
X025286Y001472D01*
X025252Y001390D01*
X025219Y001472D01*
X025064Y001626D01*
X024862Y001710D01*
X024643Y001710D01*
X024441Y001626D01*
X024286Y001472D01*
X024252Y001390D01*
X024219Y001472D01*
X024064Y001626D01*
X023862Y001710D01*
X023643Y001710D01*
X023441Y001626D01*
X023286Y001472D01*
X023252Y001390D01*
X023219Y001472D01*
X023064Y001626D01*
X022862Y001710D01*
X022643Y001710D01*
X022441Y001626D01*
X022620Y001701D02*
X021082Y001701D01*
X021082Y001819D02*
X035032Y001819D01*
X035032Y001701D02*
X027885Y001701D01*
X028108Y001582D02*
X035032Y001582D01*
X035032Y001464D02*
X028222Y001464D01*
X028271Y001345D02*
X035032Y001345D01*
X035008Y001227D02*
X028302Y001227D01*
X028302Y001108D02*
X034889Y001108D01*
X034771Y000990D02*
X028277Y000990D01*
X028228Y000871D02*
X034652Y000871D01*
X034534Y000753D02*
X028123Y000753D01*
X027920Y000634D02*
X034415Y000634D01*
X034297Y000516D02*
X007208Y000516D01*
X007089Y000634D02*
X015585Y000634D01*
X015382Y000753D02*
X006971Y000753D01*
X006852Y000871D02*
X015277Y000871D01*
X015228Y000990D02*
X006734Y000990D01*
X006615Y001108D02*
X015202Y001108D01*
X015202Y001227D02*
X006497Y001227D01*
X006472Y001345D02*
X015234Y001345D01*
X015283Y001464D02*
X006472Y001464D01*
X006472Y001582D02*
X015397Y001582D01*
X016228Y000871D02*
X016277Y000871D01*
X016382Y000753D02*
X016123Y000753D01*
X015920Y000634D02*
X016585Y000634D01*
X016920Y000634D02*
X017585Y000634D01*
X017382Y000753D02*
X017123Y000753D01*
X017228Y000871D02*
X017277Y000871D01*
X020920Y000634D02*
X022585Y000634D01*
X022382Y000753D02*
X021123Y000753D01*
X021228Y000871D02*
X022277Y000871D01*
X022228Y000990D02*
X021277Y000990D01*
X021302Y001108D02*
X022202Y001108D01*
X022202Y001227D02*
X021302Y001227D01*
X021271Y001345D02*
X022234Y001345D01*
X022283Y001464D02*
X021222Y001464D01*
X021082Y001938D02*
X035032Y001938D01*
X035032Y002056D02*
X021115Y002056D01*
X022885Y001701D02*
X023620Y001701D01*
X023397Y001582D02*
X023108Y001582D01*
X023222Y001464D02*
X023283Y001464D01*
X023885Y001701D02*
X024620Y001701D01*
X024397Y001582D02*
X024108Y001582D01*
X024222Y001464D02*
X024283Y001464D01*
X024277Y000871D02*
X024228Y000871D01*
X024123Y000753D02*
X024382Y000753D01*
X024585Y000634D02*
X023920Y000634D01*
X023585Y000634D02*
X022920Y000634D01*
X023123Y000753D02*
X023382Y000753D01*
X023277Y000871D02*
X023228Y000871D01*
X024920Y000634D02*
X025585Y000634D01*
X025382Y000753D02*
X025123Y000753D01*
X025228Y000871D02*
X025277Y000871D01*
X025283Y001464D02*
X025222Y001464D01*
X025108Y001582D02*
X025397Y001582D01*
X025620Y001701D02*
X024885Y001701D01*
X025885Y001701D02*
X026620Y001701D01*
X026397Y001582D02*
X026108Y001582D01*
X026222Y001464D02*
X026283Y001464D01*
X026885Y001701D02*
X027620Y001701D01*
X027397Y001582D02*
X027108Y001582D01*
X027222Y001464D02*
X027283Y001464D01*
X027277Y000871D02*
X027228Y000871D01*
X027123Y000753D02*
X027382Y000753D01*
X027585Y000634D02*
X026920Y000634D01*
X026585Y000634D02*
X025920Y000634D01*
X026123Y000753D02*
X026382Y000753D01*
X026277Y000871D02*
X026228Y000871D01*
X031732Y004071D02*
X031772Y004071D01*
X031772Y004189D02*
X031732Y004189D01*
X031732Y004308D02*
X031772Y004308D01*
X031772Y004426D02*
X031732Y004426D01*
X031732Y004545D02*
X031772Y004545D01*
X031772Y004663D02*
X031732Y004663D01*
X031585Y004663D02*
X030975Y004663D01*
X031146Y004545D02*
X031387Y004545D01*
X031293Y004426D02*
X031237Y004426D01*
X031919Y004663D02*
X035032Y004663D01*
X035032Y004545D02*
X032117Y004545D01*
X032212Y004426D02*
X035032Y004426D01*
X035032Y004308D02*
X032262Y004308D01*
X032282Y004189D02*
X035032Y004189D01*
X035032Y004071D02*
X032275Y004071D01*
X032241Y003952D02*
X035032Y003952D01*
X035032Y003834D02*
X032170Y003834D01*
X034178Y000397D02*
X007326Y000397D01*
X014635Y004900D02*
X016303Y004900D01*
X016116Y005019D02*
X014822Y005019D01*
X014913Y005137D02*
X016025Y005137D01*
X015976Y005256D02*
X014962Y005256D01*
X014969Y005374D02*
X015969Y005374D01*
X015977Y005493D02*
X014960Y005493D01*
X014911Y005611D02*
X016026Y005611D01*
X016119Y005730D02*
X014819Y005730D01*
X014864Y005848D02*
X016074Y005848D01*
X016008Y005967D02*
X014930Y005967D01*
X014969Y006085D02*
X015969Y006085D01*
X015969Y006204D02*
X014969Y006204D01*
X014943Y006322D02*
X015995Y006322D01*
X016044Y006441D02*
X014894Y006441D01*
X014788Y006559D02*
X016150Y006559D01*
X016039Y006678D02*
X014898Y006678D01*
X014947Y006796D02*
X015990Y006796D01*
X015969Y006915D02*
X014969Y006915D01*
X014969Y007033D02*
X015969Y007033D01*
X016012Y007152D02*
X014926Y007152D01*
X014853Y007270D02*
X016084Y007270D01*
X016209Y007389D02*
X014729Y007389D01*
X014729Y007507D02*
X016209Y007507D01*
X016106Y007626D02*
X014729Y007626D01*
X014729Y007744D02*
X015891Y007744D01*
X015780Y007863D02*
X014729Y007863D01*
X014774Y007981D02*
X015731Y007981D01*
X015702Y008100D02*
X014802Y008100D01*
X014802Y008218D02*
X015702Y008218D01*
X015730Y008337D02*
X014775Y008337D01*
X014725Y008455D02*
X015779Y008455D01*
X015888Y008574D02*
X014617Y008574D01*
X016617Y008574D02*
X017888Y008574D01*
X017779Y008455D02*
X016725Y008455D01*
X016775Y008337D02*
X017730Y008337D01*
X017702Y008218D02*
X016802Y008218D01*
X016802Y008100D02*
X017702Y008100D01*
X017731Y007981D02*
X016774Y007981D01*
X016729Y007863D02*
X017780Y007863D01*
X017891Y007744D02*
X016729Y007744D01*
X016729Y007626D02*
X018106Y007626D01*
X018209Y007507D02*
X016729Y007507D01*
X016729Y007389D02*
X018209Y007389D01*
X018084Y007270D02*
X016853Y007270D01*
X016926Y007152D02*
X018012Y007152D01*
X017969Y007033D02*
X016969Y007033D01*
X016969Y006915D02*
X017969Y006915D01*
X017990Y006796D02*
X016947Y006796D01*
X016898Y006678D02*
X018039Y006678D01*
X018150Y006559D02*
X016788Y006559D01*
X016894Y006441D02*
X018044Y006441D01*
X017995Y006322D02*
X016943Y006322D01*
X016969Y006204D02*
X017969Y006204D01*
X017969Y006085D02*
X016969Y006085D01*
X016930Y005967D02*
X018008Y005967D01*
X018074Y005848D02*
X016864Y005848D01*
X016819Y005730D02*
X018119Y005730D01*
X018026Y005611D02*
X016911Y005611D01*
X016960Y005493D02*
X017977Y005493D01*
X017969Y005374D02*
X016969Y005374D01*
X016962Y005256D02*
X017976Y005256D01*
X018025Y005137D02*
X016913Y005137D01*
X016822Y005019D02*
X018116Y005019D01*
X018303Y004900D02*
X016635Y004900D01*
X018635Y004900D02*
X020303Y004900D01*
X020116Y005019D02*
X018822Y005019D01*
X018913Y005137D02*
X020025Y005137D01*
X019976Y005256D02*
X018962Y005256D01*
X018969Y005374D02*
X019969Y005374D01*
X019977Y005493D02*
X018960Y005493D01*
X018911Y005611D02*
X020026Y005611D01*
X020119Y005730D02*
X018819Y005730D01*
X018864Y005848D02*
X020074Y005848D01*
X020008Y005967D02*
X018930Y005967D01*
X018969Y006085D02*
X019969Y006085D01*
X019969Y006204D02*
X018969Y006204D01*
X018943Y006322D02*
X019995Y006322D01*
X020044Y006441D02*
X018894Y006441D01*
X018788Y006559D02*
X020150Y006559D01*
X020039Y006678D02*
X018898Y006678D01*
X018947Y006796D02*
X019990Y006796D01*
X019969Y006915D02*
X018969Y006915D01*
X018969Y007033D02*
X019969Y007033D01*
X020012Y007152D02*
X018926Y007152D01*
X018853Y007270D02*
X020084Y007270D01*
X020209Y007389D02*
X018729Y007389D01*
X018729Y007507D02*
X020209Y007507D01*
X020106Y007626D02*
X018729Y007626D01*
X018729Y007744D02*
X019891Y007744D01*
X019780Y007863D02*
X018729Y007863D01*
X018774Y007981D02*
X019731Y007981D01*
X019702Y008100D02*
X018802Y008100D01*
X018802Y008218D02*
X019702Y008218D01*
X019730Y008337D02*
X018775Y008337D01*
X018725Y008455D02*
X019779Y008455D01*
X019888Y008574D02*
X018617Y008574D01*
X020617Y008574D02*
X021888Y008574D01*
X021779Y008455D02*
X020725Y008455D01*
X020775Y008337D02*
X021730Y008337D01*
X021702Y008218D02*
X020802Y008218D01*
X020802Y008100D02*
X021702Y008100D01*
X021731Y007981D02*
X020774Y007981D01*
X020729Y007863D02*
X021780Y007863D01*
X021891Y007744D02*
X020729Y007744D01*
X020729Y007626D02*
X022106Y007626D01*
X022209Y007507D02*
X020729Y007507D01*
X020729Y007389D02*
X022209Y007389D01*
X022084Y007270D02*
X020853Y007270D01*
X020926Y007152D02*
X022012Y007152D01*
X021969Y007033D02*
X020969Y007033D01*
X020969Y006915D02*
X021969Y006915D01*
X021990Y006796D02*
X020947Y006796D01*
X020898Y006678D02*
X022039Y006678D01*
X022150Y006559D02*
X020788Y006559D01*
X020894Y006441D02*
X022044Y006441D01*
X021995Y006322D02*
X020943Y006322D01*
X020969Y006204D02*
X021969Y006204D01*
X021969Y006085D02*
X020969Y006085D01*
X020930Y005967D02*
X022008Y005967D01*
X022074Y005848D02*
X020864Y005848D01*
X020819Y005730D02*
X022119Y005730D01*
X022026Y005611D02*
X020911Y005611D01*
X020960Y005493D02*
X021977Y005493D01*
X021969Y005374D02*
X020969Y005374D01*
X020962Y005256D02*
X021976Y005256D01*
X022025Y005137D02*
X020913Y005137D01*
X020822Y005019D02*
X022116Y005019D01*
X022303Y004900D02*
X020635Y004900D01*
X022635Y004900D02*
X024303Y004900D01*
X024116Y005019D02*
X022822Y005019D01*
X022913Y005137D02*
X024025Y005137D01*
X023976Y005256D02*
X022962Y005256D01*
X022969Y005374D02*
X023969Y005374D01*
X023977Y005493D02*
X022960Y005493D01*
X022911Y005611D02*
X024026Y005611D01*
X024119Y005730D02*
X022819Y005730D01*
X022864Y005848D02*
X024074Y005848D01*
X024008Y005967D02*
X022930Y005967D01*
X022969Y006085D02*
X023969Y006085D01*
X023969Y006204D02*
X022969Y006204D01*
X022943Y006322D02*
X023995Y006322D01*
X024044Y006441D02*
X022894Y006441D01*
X022788Y006559D02*
X024150Y006559D01*
X024039Y006678D02*
X022898Y006678D01*
X022947Y006796D02*
X023990Y006796D01*
X023969Y006915D02*
X022969Y006915D01*
X022969Y007033D02*
X023969Y007033D01*
X024012Y007152D02*
X022926Y007152D01*
X022853Y007270D02*
X024084Y007270D01*
X024209Y007389D02*
X022729Y007389D01*
X022729Y007507D02*
X024209Y007507D01*
X024106Y007626D02*
X022729Y007626D01*
X022729Y007744D02*
X023891Y007744D01*
X023780Y007863D02*
X022729Y007863D01*
X022774Y007981D02*
X023731Y007981D01*
X023702Y008100D02*
X022802Y008100D01*
X022802Y008218D02*
X023702Y008218D01*
X023730Y008337D02*
X022775Y008337D01*
X022725Y008455D02*
X023779Y008455D01*
X023888Y008574D02*
X022617Y008574D01*
X022577Y010707D02*
X023928Y010707D01*
X023810Y010825D02*
X022695Y010825D01*
X021928Y010707D02*
X020577Y010707D01*
X020695Y010825D02*
X021810Y010825D01*
X022496Y011655D02*
X023535Y011655D01*
X023851Y011536D02*
X022654Y011536D01*
X022348Y012129D02*
X022302Y012129D01*
X021229Y013077D02*
X020864Y013077D01*
X020762Y013195D02*
X021222Y013195D01*
X021245Y013314D02*
X020762Y013314D01*
X020762Y013432D02*
X021296Y013432D01*
X021393Y013551D02*
X020762Y013551D01*
X021901Y013669D02*
X022000Y013669D01*
X022111Y013551D02*
X022242Y013551D01*
X022242Y013432D02*
X022209Y013432D01*
X023969Y011655D02*
X024009Y011655D01*
X024695Y010825D02*
X025810Y010825D01*
X025928Y010707D02*
X024577Y010707D01*
X026577Y010707D02*
X027928Y010707D01*
X027810Y010825D02*
X026695Y010825D01*
X026654Y011536D02*
X027851Y011536D01*
X027969Y011655D02*
X028009Y011655D01*
X027535Y011655D02*
X026496Y011655D01*
X026348Y012129D02*
X026302Y012129D01*
X028577Y010707D02*
X028739Y010707D01*
X028858Y010588D02*
X012582Y010588D01*
X012582Y010470D02*
X028976Y010470D01*
X030032Y011181D02*
X035032Y011181D01*
X035032Y011299D02*
X030169Y011299D01*
X030247Y011418D02*
X035032Y011418D01*
X035032Y011536D02*
X030296Y011536D01*
X030302Y011655D02*
X035032Y011655D01*
X035032Y011773D02*
X030301Y011773D01*
X030252Y011892D02*
X035032Y011892D01*
X035032Y012010D02*
X030180Y012010D01*
X030082Y012129D02*
X034023Y012129D01*
X033770Y012247D02*
X030082Y012247D01*
X030082Y012366D02*
X033651Y012366D01*
X033552Y012484D02*
X030082Y012484D01*
X030082Y012603D02*
X033503Y012603D01*
X033454Y012721D02*
X030082Y012721D01*
X031036Y013432D02*
X031202Y013432D01*
X031202Y013551D02*
X031171Y013551D01*
X034536Y013669D02*
X035032Y013669D01*
X035032Y013551D02*
X034757Y013551D01*
X034876Y013432D02*
X035032Y013432D01*
X035032Y013314D02*
X034962Y013314D01*
X035011Y013195D02*
X035032Y013195D01*
X035002Y012603D02*
X035032Y012603D01*
X035032Y012484D02*
X034953Y012484D01*
X035032Y012366D02*
X034853Y012366D01*
X034735Y012247D02*
X035032Y012247D01*
X035032Y012129D02*
X034482Y012129D01*
X035032Y008929D02*
X029582Y008929D01*
X029582Y008811D02*
X035032Y008811D01*
X031772Y008574D02*
X031732Y008574D01*
X031732Y008455D02*
X031772Y008455D01*
X031772Y008337D02*
X031732Y008337D01*
X031732Y008218D02*
X031772Y008218D01*
X031772Y008100D02*
X031732Y008100D01*
X031732Y007981D02*
X031772Y007981D01*
X031772Y007863D02*
X031732Y007863D01*
X031732Y007744D02*
X031772Y007744D01*
X031423Y007744D02*
X031114Y007744D01*
X031224Y007863D02*
X031313Y007863D01*
X026242Y013432D02*
X026209Y013432D01*
X026242Y013551D02*
X026111Y013551D01*
X026000Y013669D02*
X025901Y013669D01*
X031164Y016276D02*
X031239Y016276D01*
X027422Y019713D02*
X027083Y019713D01*
X027201Y019831D02*
X027304Y019831D01*
X024114Y017698D02*
X024082Y017698D01*
X020114Y017698D02*
X019158Y017698D01*
X019040Y017580D02*
X019894Y017580D01*
X019782Y017461D02*
X018921Y017461D01*
X018803Y017343D02*
X019733Y017343D01*
X019702Y017224D02*
X018802Y017224D01*
X018802Y017106D02*
X019702Y017106D01*
X019729Y016987D02*
X018776Y016987D01*
X018727Y016869D02*
X019778Y016869D01*
X019885Y016750D02*
X018620Y016750D01*
X018414Y016632D02*
X020091Y016632D01*
X018423Y017698D02*
X018391Y017698D01*
X016541Y017817D02*
X014777Y017817D01*
X014658Y017698D02*
X016114Y017698D01*
X016391Y017698D02*
X016423Y017698D01*
X014743Y019476D02*
X006472Y019476D01*
X006472Y019594D02*
X014861Y019594D01*
X014922Y019713D02*
X014583Y019713D01*
X014701Y019831D02*
X014804Y019831D01*
X012967Y019713D02*
X012583Y019713D01*
X012701Y019831D02*
X012836Y019831D01*
X012765Y019950D02*
X012761Y019950D01*
X011922Y019713D02*
X006472Y019713D01*
X008214Y020542D02*
X008712Y020542D01*
X008593Y020424D02*
X008297Y020424D01*
X009011Y020542D02*
X009111Y020542D01*
X009121Y020553D02*
X009121Y020553D01*
X009533Y020542D02*
X010093Y020542D01*
X009975Y020424D02*
X009652Y020424D01*
X010393Y020542D02*
X010492Y020542D01*
X010915Y020542D02*
X011857Y020542D01*
X011766Y020424D02*
X011033Y020424D01*
X011072Y020305D02*
X011717Y020305D01*
X011702Y020187D02*
X011072Y020187D01*
X011053Y020068D02*
X011702Y020068D01*
X011744Y019950D02*
X011072Y019950D01*
X011029Y019831D02*
X011804Y019831D01*
X009917Y019831D02*
X009648Y019831D01*
X006976Y018172D02*
X006472Y018172D01*
X006472Y018054D02*
X006750Y018054D01*
X006632Y017935D02*
X006472Y017935D01*
X006472Y017817D02*
X006544Y017817D01*
X006495Y017698D02*
X006472Y017698D01*
X006472Y017106D02*
X006502Y017106D01*
X006472Y016987D02*
X006551Y016987D01*
X006472Y016869D02*
X006648Y016869D01*
X006767Y016750D02*
X006472Y016750D01*
X006472Y016632D02*
X007015Y016632D01*
X006968Y013669D02*
X006472Y013669D01*
X006472Y013551D02*
X006747Y013551D01*
X006629Y013432D02*
X006472Y013432D01*
X006472Y013314D02*
X006543Y013314D01*
X006494Y013195D02*
X006472Y013195D01*
X006472Y012603D02*
X006503Y012603D01*
X006472Y012484D02*
X006552Y012484D01*
X006472Y012366D02*
X006651Y012366D01*
X006770Y012247D02*
X006472Y012247D01*
X006472Y012129D02*
X007023Y012129D01*
X006961Y009166D02*
X006472Y009166D01*
X006472Y009048D02*
X006744Y009048D01*
X006626Y008929D02*
X006472Y008929D01*
X006472Y008811D02*
X006542Y008811D01*
X006493Y008692D02*
X006472Y008692D01*
X006472Y008100D02*
X006504Y008100D01*
X006472Y007981D02*
X006553Y007981D01*
X006472Y007863D02*
X006654Y007863D01*
X006773Y007744D02*
X006472Y007744D01*
X006472Y007626D02*
X007030Y007626D01*
X007475Y007626D02*
X009202Y007626D01*
X009202Y007744D02*
X007732Y007744D01*
X007850Y007863D02*
X009202Y007863D01*
X009202Y007981D02*
X007951Y007981D01*
X008000Y008100D02*
X009202Y008100D01*
X009202Y008218D02*
X008049Y008218D01*
X008062Y008337D02*
X009202Y008337D01*
X009303Y008455D02*
X008062Y008455D01*
X009202Y007507D02*
X006472Y007507D01*
X006472Y007389D02*
X009279Y007389D01*
X009335Y007270D02*
X006472Y007270D01*
X006472Y007152D02*
X009257Y007152D01*
X009208Y007033D02*
X006472Y007033D01*
X006472Y006915D02*
X009202Y006915D01*
X009204Y006796D02*
X006472Y006796D01*
X006472Y006678D02*
X009253Y006678D01*
X009326Y006559D02*
X006472Y006559D01*
X006472Y006441D02*
X009449Y006441D01*
X009387Y006322D02*
X006472Y006322D01*
X006472Y006204D02*
X009279Y006204D01*
X009230Y006085D02*
X006472Y006085D01*
X006472Y005967D02*
X009202Y005967D01*
X009202Y005848D02*
X006472Y005848D01*
X006472Y005730D02*
X009232Y005730D01*
X009281Y005611D02*
X006472Y005611D01*
X006472Y005493D02*
X009392Y005493D01*
X012582Y010707D02*
X013928Y010707D01*
X013810Y010825D02*
X012582Y010825D01*
X014577Y010707D02*
X015928Y010707D01*
X015810Y010825D02*
X014695Y010825D01*
X014654Y011536D02*
X015851Y011536D01*
X015969Y011655D02*
X016009Y011655D01*
X015535Y011655D02*
X014496Y011655D01*
X014348Y012129D02*
X014302Y012129D01*
X016577Y010707D02*
X017928Y010707D01*
X017810Y010825D02*
X016695Y010825D01*
X018577Y010707D02*
X019928Y010707D01*
X019810Y010825D02*
X018695Y010825D01*
X018348Y012129D02*
X018302Y012129D01*
X018242Y013432D02*
X018209Y013432D01*
X018242Y013551D02*
X018111Y013551D01*
X018000Y013669D02*
X017901Y013669D01*
X014242Y013551D02*
X014111Y013551D01*
X014209Y013432D02*
X014242Y013432D01*
X014000Y013669D02*
X013901Y013669D01*
D18*
X012252Y013660D02*
X012252Y011160D01*
X014252Y011160D01*
X016252Y011160D01*
X018252Y011160D01*
X020252Y011160D01*
X022252Y011160D01*
X024252Y011160D01*
X026252Y011160D01*
X028252Y011160D01*
X028752Y011160D01*
X029252Y010660D01*
X032252Y010660D01*
X033252Y009660D01*
X029752Y009660D02*
X029252Y009160D01*
X029252Y003160D01*
X028752Y002660D01*
X021252Y002660D01*
X020752Y002160D01*
X020752Y001160D01*
X017752Y001160D02*
X017752Y002160D01*
X017252Y002660D01*
X016252Y002660D01*
X013540Y005373D01*
X012252Y005373D01*
X012252Y011160D01*
X012252Y013660D02*
X011502Y014410D01*
X010752Y014410D01*
X010252Y014910D01*
X009752Y014910D01*
X009752Y005910D02*
X010252Y005910D01*
X010752Y005410D01*
X010790Y005373D01*
X012252Y005373D01*
X029252Y013660D02*
X029252Y015660D01*
X029502Y015910D01*
X030752Y015910D01*
X031252Y015910D01*
X031752Y015410D01*
X029752Y013160D02*
X029252Y013660D01*
X029752Y013160D02*
X029752Y011660D01*
D19*
X028502Y012660D02*
X028502Y013910D01*
X028252Y014160D01*
X026502Y013910D02*
X026252Y014160D01*
X026502Y013910D02*
X026502Y012660D01*
X024502Y012660D02*
X024502Y013910D01*
X024252Y014160D01*
X022502Y013910D02*
X022252Y014160D01*
X022502Y013910D02*
X022502Y012660D01*
X020502Y012660D02*
X020502Y013910D01*
X020252Y014160D01*
X018502Y013910D02*
X018252Y014160D01*
X018502Y013910D02*
X018502Y012660D01*
X016502Y012660D02*
X016502Y013910D01*
X016252Y014160D01*
X014502Y013910D02*
X014252Y014160D01*
X014502Y013910D02*
X014502Y012660D01*
X014252Y008160D02*
X014469Y007943D01*
X014469Y006947D01*
X016469Y006947D02*
X016469Y007943D01*
X016252Y008160D01*
X018252Y008160D02*
X018469Y007943D01*
X018469Y006947D01*
X020469Y006947D02*
X020469Y007943D01*
X020252Y008160D01*
X022252Y008160D02*
X022469Y007943D01*
X022469Y006947D01*
X024469Y006947D02*
X024469Y007943D01*
X024252Y008160D01*
X026252Y008160D02*
X026469Y007943D01*
X026469Y006947D01*
X028469Y006947D02*
X028469Y007943D01*
X028252Y008160D01*
X028252Y017160D02*
X025752Y019660D01*
X025752Y020160D01*
X024752Y020160D02*
X024752Y018660D01*
X026252Y017160D01*
X024252Y017160D02*
X023752Y017660D01*
X023752Y020160D01*
X022752Y020160D02*
X022752Y017660D01*
X022252Y017160D01*
X021752Y018660D02*
X020252Y017160D01*
X018252Y017160D02*
X020752Y019660D01*
X020752Y020160D01*
X021752Y020160D02*
X021752Y018660D01*
X019252Y020160D02*
X016252Y017160D01*
X016752Y018160D02*
X014752Y018160D01*
X014252Y017660D01*
X014252Y017160D01*
X016752Y018160D02*
X018252Y019660D01*
X018252Y020160D01*
D20*
X017252Y020160D02*
X017252Y019160D01*
X016752Y018660D01*
X010252Y018660D01*
X009752Y018160D01*
X009752Y016910D01*
X008752Y016160D02*
X008752Y018660D01*
X009252Y019160D01*
X014752Y019160D01*
X015252Y019660D01*
X015252Y020160D01*
X011752Y018160D02*
X011752Y016410D01*
X010752Y015410D01*
X009752Y015910D02*
X009002Y015910D01*
X008752Y016160D01*
D21*
X011752Y018160D03*
M02*
