G75*
G70*
%OFA0B0*%
%FSLAX24Y24*%
%IPPOS*%
%LPD*%
%AMOC8*
5,1,8,0,0,1.08239X$1,22.5*
%
%ADD10C,0.0100*%
%ADD11C,0.0010*%
D10*
X013333Y005500D02*
X015833Y005500D01*
X013333Y005500D02*
X013333Y007500D01*
X015833Y007500D01*
D11*
X012382Y006900D02*
X012166Y006708D01*
X012135Y006674D01*
X012111Y006634D01*
X012106Y006619D01*
X012103Y006604D01*
X012103Y006514D01*
X012098Y006460D01*
X012084Y006408D01*
X012060Y006360D01*
X012028Y006314D01*
X011990Y006274D01*
X011946Y006239D01*
X011880Y006202D01*
X011808Y006177D01*
X011733Y006166D01*
X011657Y006168D01*
X011616Y006176D01*
X011577Y006190D01*
X011540Y006210D01*
X011496Y006246D01*
X011459Y006290D01*
X011494Y006290D01*
X011500Y006291D01*
X011505Y006293D01*
X011520Y006305D01*
X011530Y006320D01*
X011533Y006328D01*
X011536Y006351D01*
X011532Y006373D01*
X011521Y006393D01*
X011495Y006429D01*
X011481Y006446D01*
X011464Y006460D01*
X011446Y006472D01*
X011425Y006480D01*
X011412Y006483D01*
X011399Y006482D01*
X011378Y006475D01*
X011358Y006463D01*
X011343Y006447D01*
X011332Y006427D01*
X011327Y006407D01*
X011324Y006386D01*
X011324Y006362D01*
X011323Y006363D01*
X011310Y006380D01*
X011301Y006400D01*
X011295Y006414D01*
X011291Y006423D01*
X011283Y006458D01*
X011279Y006493D01*
X011282Y006527D01*
X011291Y006560D01*
X011306Y006591D01*
X011328Y006622D01*
X011354Y006649D01*
X011378Y006666D01*
X011405Y006676D01*
X011434Y006680D01*
X011463Y006676D01*
X011490Y006665D01*
X011560Y006618D01*
X011620Y006561D01*
X011638Y006546D01*
X011659Y006536D01*
X011682Y006532D01*
X011705Y006533D01*
X011727Y006541D01*
X011746Y006554D01*
X011761Y006572D01*
X011773Y006594D01*
X011781Y006618D01*
X011785Y006643D01*
X011784Y006672D01*
X011775Y006700D01*
X011760Y006725D01*
X011746Y006738D01*
X011729Y006747D01*
X011712Y006751D01*
X011694Y006751D01*
X011676Y006747D01*
X011670Y006743D01*
X011664Y006738D01*
X011640Y006705D01*
X011637Y006699D01*
X011636Y006692D01*
X011636Y006685D01*
X011633Y006704D01*
X011630Y006741D01*
X011633Y006778D01*
X011641Y006806D01*
X011653Y006831D01*
X011671Y006853D01*
X011692Y006872D01*
X011721Y006888D01*
X011753Y006897D01*
X011785Y006900D01*
X012382Y006900D01*
X012379Y006897D02*
X011752Y006897D01*
X011724Y006889D02*
X012370Y006889D01*
X012360Y006880D02*
X011707Y006880D01*
X011692Y006872D02*
X012350Y006872D01*
X012341Y006863D02*
X011682Y006863D01*
X011672Y006855D02*
X012331Y006855D01*
X012322Y006846D02*
X011665Y006846D01*
X011658Y006838D02*
X012312Y006838D01*
X012303Y006829D02*
X011652Y006829D01*
X011648Y006821D02*
X012293Y006821D01*
X012283Y006812D02*
X011644Y006812D01*
X011640Y006804D02*
X012274Y006804D01*
X012264Y006795D02*
X011638Y006795D01*
X011636Y006787D02*
X012255Y006787D01*
X012245Y006778D02*
X011633Y006778D01*
X011633Y006770D02*
X012236Y006770D01*
X012226Y006761D02*
X011632Y006761D01*
X011631Y006753D02*
X012216Y006753D01*
X012207Y006744D02*
X011735Y006744D01*
X011749Y006736D02*
X012197Y006736D01*
X012188Y006727D02*
X011758Y006727D01*
X011764Y006719D02*
X012178Y006719D01*
X012169Y006710D02*
X011769Y006710D01*
X011774Y006702D02*
X012160Y006702D01*
X012153Y006693D02*
X011778Y006693D01*
X011780Y006685D02*
X012145Y006685D01*
X012137Y006676D02*
X011783Y006676D01*
X011784Y006668D02*
X012131Y006668D01*
X012126Y006659D02*
X011785Y006659D01*
X011785Y006651D02*
X012121Y006651D01*
X012116Y006642D02*
X011785Y006642D01*
X011784Y006634D02*
X012111Y006634D01*
X012108Y006625D02*
X011782Y006625D01*
X011781Y006617D02*
X012106Y006617D01*
X012104Y006608D02*
X011778Y006608D01*
X011775Y006600D02*
X012103Y006600D01*
X012103Y006591D02*
X011772Y006591D01*
X011767Y006583D02*
X012103Y006583D01*
X012103Y006574D02*
X011762Y006574D01*
X011756Y006566D02*
X012103Y006566D01*
X012103Y006557D02*
X011749Y006557D01*
X011738Y006549D02*
X012103Y006549D01*
X012103Y006540D02*
X011724Y006540D01*
X011650Y006540D02*
X011285Y006540D01*
X011283Y006532D02*
X012103Y006532D01*
X012103Y006523D02*
X011282Y006523D01*
X011281Y006515D02*
X012103Y006515D01*
X012103Y006506D02*
X011280Y006506D01*
X011280Y006498D02*
X012102Y006498D01*
X012101Y006489D02*
X011280Y006489D01*
X011280Y006481D02*
X011395Y006481D01*
X011372Y006472D02*
X011281Y006472D01*
X011282Y006464D02*
X011359Y006464D01*
X011351Y006455D02*
X011283Y006455D01*
X011285Y006447D02*
X011343Y006447D01*
X011338Y006438D02*
X011288Y006438D01*
X011290Y006430D02*
X011334Y006430D01*
X011331Y006421D02*
X011292Y006421D01*
X011296Y006413D02*
X011328Y006413D01*
X011326Y006404D02*
X011300Y006404D01*
X011303Y006396D02*
X011325Y006396D01*
X011324Y006387D02*
X011307Y006387D01*
X011311Y006379D02*
X011324Y006379D01*
X011324Y006370D02*
X011318Y006370D01*
X011324Y006362D02*
X011324Y006362D01*
X011422Y006481D02*
X012100Y006481D01*
X012100Y006472D02*
X011444Y006472D01*
X011458Y006464D02*
X012099Y006464D01*
X012097Y006455D02*
X011470Y006455D01*
X011480Y006447D02*
X012095Y006447D01*
X012092Y006438D02*
X011488Y006438D01*
X011495Y006430D02*
X012090Y006430D01*
X012087Y006421D02*
X011501Y006421D01*
X011507Y006413D02*
X012085Y006413D01*
X012082Y006404D02*
X011513Y006404D01*
X011519Y006396D02*
X012078Y006396D01*
X012074Y006387D02*
X011524Y006387D01*
X011529Y006379D02*
X012069Y006379D01*
X012065Y006370D02*
X011532Y006370D01*
X011534Y006362D02*
X012061Y006362D01*
X012055Y006353D02*
X011535Y006353D01*
X011535Y006345D02*
X012049Y006345D01*
X012043Y006336D02*
X011534Y006336D01*
X011533Y006328D02*
X012037Y006328D01*
X012031Y006319D02*
X011530Y006319D01*
X011524Y006311D02*
X012025Y006311D01*
X012017Y006302D02*
X011517Y006302D01*
X011506Y006294D02*
X012009Y006294D01*
X012001Y006285D02*
X011463Y006285D01*
X011470Y006277D02*
X011993Y006277D01*
X011983Y006268D02*
X011477Y006268D01*
X011484Y006260D02*
X011972Y006260D01*
X011961Y006251D02*
X011491Y006251D01*
X011499Y006243D02*
X011951Y006243D01*
X011938Y006234D02*
X011510Y006234D01*
X011521Y006226D02*
X011922Y006226D01*
X011907Y006217D02*
X011531Y006217D01*
X011543Y006209D02*
X011892Y006209D01*
X011875Y006200D02*
X011559Y006200D01*
X011575Y006192D02*
X011851Y006192D01*
X011826Y006183D02*
X011597Y006183D01*
X011624Y006175D02*
X011792Y006175D01*
X011736Y006166D02*
X011719Y006166D01*
X011635Y006549D02*
X011288Y006549D01*
X011290Y006557D02*
X011625Y006557D01*
X011615Y006566D02*
X011294Y006566D01*
X011298Y006574D02*
X011606Y006574D01*
X011597Y006583D02*
X011302Y006583D01*
X011306Y006591D02*
X011588Y006591D01*
X011579Y006600D02*
X011313Y006600D01*
X011319Y006608D02*
X011570Y006608D01*
X011561Y006617D02*
X011325Y006617D01*
X011332Y006625D02*
X011549Y006625D01*
X011537Y006634D02*
X011340Y006634D01*
X011348Y006642D02*
X011524Y006642D01*
X011512Y006651D02*
X011357Y006651D01*
X011368Y006659D02*
X011499Y006659D01*
X011484Y006668D02*
X011382Y006668D01*
X011404Y006676D02*
X011463Y006676D01*
X011634Y006702D02*
X011639Y006702D01*
X011635Y006693D02*
X011636Y006693D01*
X011633Y006710D02*
X011644Y006710D01*
X011650Y006719D02*
X011632Y006719D01*
X011632Y006727D02*
X011656Y006727D01*
X011663Y006736D02*
X011631Y006736D01*
X011631Y006744D02*
X011671Y006744D01*
M02*
