%
M48
M72
T01C0.0200
T02C0.0320
T03C0.0354
T04C0.0394
T05C0.0400
T06C0.1260
T07C0.1300
%
T01
X15759Y3661
T02
X13259Y12661
X12259Y12661
X9259Y12661
X8259Y12661
T03
X10259Y11161
X14259Y11161
X14259Y14161
X16259Y15161
X17259Y15161
X18259Y15161
X19259Y15161
X20259Y15161
X21259Y15161
X22259Y15161
X23259Y15161
X23259Y18161
X22259Y18161
X21259Y18161
X20259Y18161
X19259Y18161
X18259Y18161
X17259Y18161
X16259Y18161
X10259Y14161
T04
X25259Y8911
X26259Y8411
X25259Y7911
X26259Y7411
X25259Y6911
X26259Y6411
X25259Y5911
X26259Y5411
T05
X15759Y1161
X16759Y1161
X17759Y1161
X18759Y1161
X19759Y1161
X20759Y1161
X22759Y1161
X23759Y1161
X24759Y1161
X25759Y1161
X26759Y1161
X27759Y1161
X21759Y12161
X20759Y12161
X19759Y12161
X18759Y12161
X17759Y12161
X17759Y13161
X18759Y13161
X19759Y13161
X20759Y13161
X21759Y13161
X21759Y20161
X22759Y20161
X23759Y20161
X24759Y20161
X25759Y20161
X26759Y20161
X27759Y20161
X20759Y20161
X19259Y20161
X18259Y20161
X17259Y20161
X16259Y20161
X15259Y20161
X14259Y20161
X13259Y20161
X12259Y20161
T06
X28759Y9411
X28759Y4911
T07
X28759Y3161
X8759Y20161
M30
