G75*
G70*
%OFA0B0*%
%FSLAX24Y24*%
%IPPOS*%
%LPD*%
%AMOC8*
5,1,8,0,0,1.08239X$1,22.5*
%
%ADD10C,0.0740*%
%ADD11R,0.0740X0.0740*%
%ADD12OC8,0.0740*%
%ADD13C,0.0120*%
%ADD14C,0.0100*%
%ADD15C,0.0500*%
%ADD16C,0.0400*%
D10*
X015759Y001161D03*
X016759Y001161D03*
X017759Y001161D03*
X018759Y001161D03*
X019759Y001161D03*
X020759Y001161D03*
X022759Y001161D03*
X023759Y001161D03*
X024759Y001161D03*
X025759Y001161D03*
X026759Y001161D03*
X027759Y001161D03*
X025259Y005911D03*
X026259Y006411D03*
X025259Y006911D03*
X026259Y007411D03*
X025259Y007911D03*
X026259Y008411D03*
X025259Y008911D03*
X023259Y015161D03*
X022259Y015161D03*
X021259Y015161D03*
X020259Y015161D03*
X019259Y015161D03*
X018259Y015161D03*
X017259Y015161D03*
X016259Y015161D03*
X014259Y014161D03*
X013259Y012661D03*
X012259Y012661D03*
X014259Y011161D03*
X010259Y011161D03*
X009259Y012661D03*
X008259Y012661D03*
X010259Y014161D03*
X016259Y018161D03*
X017259Y018161D03*
X018259Y018161D03*
X019259Y018161D03*
X020259Y018161D03*
X021259Y018161D03*
X022259Y018161D03*
X023259Y018161D03*
X023759Y020161D03*
X024759Y020161D03*
X025759Y020161D03*
X026759Y020161D03*
X027759Y020161D03*
X022759Y020161D03*
X021759Y020161D03*
X020759Y020161D03*
X019259Y020161D03*
X018259Y020161D03*
X017259Y020161D03*
X016259Y020161D03*
X015259Y020161D03*
X014259Y020161D03*
X013259Y020161D03*
X012259Y020161D03*
D11*
X026259Y005411D03*
D12*
X021759Y012161D03*
X020759Y012161D03*
X019759Y012161D03*
X018759Y012161D03*
X017759Y012161D03*
X017759Y013161D03*
X018759Y013161D03*
X019759Y013161D03*
X020759Y013161D03*
X021759Y013161D03*
D13*
X006479Y020070D02*
X006479Y001252D01*
X007350Y000381D01*
X028668Y000381D01*
X029539Y001252D01*
X029539Y002643D01*
X029434Y002486D01*
X029434Y002486D01*
X029124Y002279D01*
X029124Y002279D01*
X028759Y002206D01*
X028759Y002206D01*
X028393Y002279D01*
X028393Y002279D01*
X028084Y002486D01*
X028084Y002486D01*
X028084Y002486D01*
X027877Y002796D01*
X027877Y002796D01*
X027804Y003161D01*
X027804Y003161D01*
X027877Y003527D01*
X027877Y003527D01*
X028084Y003836D01*
X028083Y003836D02*
X021189Y003836D01*
X021189Y003718D02*
X028004Y003718D01*
X028084Y003836D02*
X028084Y003837D01*
X028084Y003837D01*
X028393Y004044D01*
X028393Y004044D01*
X028684Y004101D01*
X028598Y004101D01*
X028300Y004225D01*
X028072Y004452D01*
X027949Y004750D01*
X027949Y005072D01*
X028072Y005370D01*
X028300Y005598D01*
X028598Y005721D01*
X028920Y005721D01*
X029218Y005598D01*
X029445Y005370D01*
X029539Y005144D01*
X029539Y009178D01*
X029445Y008952D01*
X029218Y008725D01*
X028920Y008601D01*
X028598Y008601D01*
X028300Y008725D01*
X028072Y008952D01*
X027949Y009250D01*
X027949Y009572D01*
X028072Y009870D01*
X028300Y010098D01*
X028598Y010221D01*
X028920Y010221D01*
X029218Y010098D01*
X029445Y009870D01*
X029539Y009644D01*
X029539Y020070D01*
X028668Y020941D01*
X009277Y020941D01*
X009434Y020837D01*
X009434Y020837D01*
X009434Y020836D01*
X009641Y020527D01*
X009641Y020527D01*
X009714Y020161D01*
X009641Y019796D01*
X009641Y019796D01*
X009434Y019486D01*
X009434Y019486D01*
X009124Y019279D01*
X009124Y019279D01*
X008759Y019206D01*
X008759Y019206D01*
X008393Y019279D01*
X008393Y019279D01*
X008084Y019486D01*
X008084Y019486D01*
X008084Y019486D01*
X007877Y019796D01*
X007804Y020161D01*
X007877Y020527D01*
X008084Y020836D01*
X008084Y020837D01*
X008240Y020941D01*
X007350Y020941D01*
X006479Y020070D01*
X006485Y020077D02*
X007821Y020077D01*
X007811Y020195D02*
X006604Y020195D01*
X006722Y020314D02*
X007834Y020314D01*
X007858Y020432D02*
X006841Y020432D01*
X006959Y020551D02*
X007893Y020551D01*
X007972Y020669D02*
X007078Y020669D01*
X007197Y020788D02*
X008051Y020788D01*
X008188Y020906D02*
X007315Y020906D01*
X007844Y019958D02*
X006479Y019958D01*
X006479Y019839D02*
X007868Y019839D01*
X007927Y019721D02*
X006479Y019721D01*
X006479Y019602D02*
X008006Y019602D01*
X008087Y019484D02*
X006479Y019484D01*
X006479Y019365D02*
X008264Y019365D01*
X008555Y019247D02*
X006479Y019247D01*
X006479Y019128D02*
X029539Y019128D01*
X029539Y019010D02*
X006479Y019010D01*
X006479Y018891D02*
X029539Y018891D01*
X029539Y018773D02*
X006479Y018773D01*
X006479Y018654D02*
X016011Y018654D01*
X015947Y018627D02*
X016149Y018711D01*
X016368Y018711D01*
X016570Y018627D01*
X016725Y018473D01*
X016759Y018391D01*
X016793Y018473D01*
X016947Y018627D01*
X017149Y018711D01*
X017368Y018711D01*
X017570Y018627D01*
X017725Y018473D01*
X017759Y018391D01*
X017793Y018473D01*
X017947Y018627D01*
X018149Y018711D01*
X018368Y018711D01*
X018570Y018627D01*
X018725Y018473D01*
X018759Y018391D01*
X018793Y018473D01*
X018947Y018627D01*
X019149Y018711D01*
X019368Y018711D01*
X019570Y018627D01*
X019725Y018473D01*
X019759Y018391D01*
X019793Y018473D01*
X019947Y018627D01*
X020149Y018711D01*
X020368Y018711D01*
X020570Y018627D01*
X020725Y018473D01*
X020759Y018391D01*
X020793Y018473D01*
X020947Y018627D01*
X021149Y018711D01*
X021368Y018711D01*
X021570Y018627D01*
X021725Y018473D01*
X021759Y018391D01*
X021793Y018473D01*
X021947Y018627D01*
X022149Y018711D01*
X022368Y018711D01*
X022570Y018627D01*
X022725Y018473D01*
X022759Y018391D01*
X022793Y018473D01*
X022947Y018627D01*
X023149Y018711D01*
X023368Y018711D01*
X023570Y018627D01*
X023725Y018473D01*
X023809Y018271D01*
X023809Y018052D01*
X023725Y017850D01*
X023570Y017695D01*
X023368Y017611D01*
X023149Y017611D01*
X022947Y017695D01*
X022793Y017850D01*
X022759Y017931D01*
X022725Y017850D01*
X022570Y017695D01*
X022368Y017611D01*
X022149Y017611D01*
X021947Y017695D01*
X021793Y017850D01*
X021759Y017931D01*
X021725Y017850D01*
X021570Y017695D01*
X021368Y017611D01*
X021149Y017611D01*
X020947Y017695D01*
X020793Y017850D01*
X020759Y017931D01*
X020725Y017850D01*
X020570Y017695D01*
X020368Y017611D01*
X020149Y017611D01*
X019947Y017695D01*
X019793Y017850D01*
X019759Y017931D01*
X019725Y017850D01*
X019570Y017695D01*
X019368Y017611D01*
X019149Y017611D01*
X018947Y017695D01*
X018793Y017850D01*
X018759Y017931D01*
X018725Y017850D01*
X018570Y017695D01*
X018368Y017611D01*
X018149Y017611D01*
X017947Y017695D01*
X017793Y017850D01*
X017759Y017931D01*
X017725Y017850D01*
X017570Y017695D01*
X017368Y017611D01*
X017149Y017611D01*
X016947Y017695D01*
X016793Y017850D01*
X016759Y017931D01*
X016725Y017850D01*
X016570Y017695D01*
X016368Y017611D01*
X016149Y017611D01*
X015947Y017695D01*
X015793Y017850D01*
X015709Y018052D01*
X015709Y018271D01*
X015793Y018473D01*
X015947Y018627D01*
X015855Y018535D02*
X006479Y018535D01*
X006479Y018417D02*
X015770Y018417D01*
X015720Y018298D02*
X006479Y018298D01*
X006479Y018180D02*
X015709Y018180D01*
X015709Y018061D02*
X006479Y018061D01*
X006479Y017943D02*
X015754Y017943D01*
X015818Y017824D02*
X006479Y017824D01*
X006479Y017706D02*
X015937Y017706D01*
X016581Y017706D02*
X016937Y017706D01*
X016818Y017824D02*
X016700Y017824D01*
X016748Y018417D02*
X016770Y018417D01*
X016855Y018535D02*
X016662Y018535D01*
X016506Y018654D02*
X017011Y018654D01*
X017506Y018654D02*
X018011Y018654D01*
X017855Y018535D02*
X017662Y018535D01*
X017748Y018417D02*
X017770Y018417D01*
X017818Y017824D02*
X017700Y017824D01*
X017581Y017706D02*
X017937Y017706D01*
X018581Y017706D02*
X018937Y017706D01*
X018818Y017824D02*
X018700Y017824D01*
X018748Y018417D02*
X018770Y018417D01*
X018855Y018535D02*
X018662Y018535D01*
X018506Y018654D02*
X019011Y018654D01*
X019506Y018654D02*
X020011Y018654D01*
X019855Y018535D02*
X019662Y018535D01*
X019748Y018417D02*
X019770Y018417D01*
X019818Y017824D02*
X019700Y017824D01*
X019581Y017706D02*
X019937Y017706D01*
X020581Y017706D02*
X020937Y017706D01*
X020818Y017824D02*
X020700Y017824D01*
X020748Y018417D02*
X020770Y018417D01*
X020855Y018535D02*
X020662Y018535D01*
X020506Y018654D02*
X021011Y018654D01*
X021506Y018654D02*
X022011Y018654D01*
X021855Y018535D02*
X021662Y018535D01*
X021748Y018417D02*
X021770Y018417D01*
X021818Y017824D02*
X021700Y017824D01*
X021581Y017706D02*
X021937Y017706D01*
X022581Y017706D02*
X022937Y017706D01*
X022818Y017824D02*
X022700Y017824D01*
X022748Y018417D02*
X022770Y018417D01*
X022855Y018535D02*
X022662Y018535D01*
X022506Y018654D02*
X023011Y018654D01*
X023506Y018654D02*
X029539Y018654D01*
X029539Y018535D02*
X023662Y018535D01*
X023748Y018417D02*
X029539Y018417D01*
X029539Y018298D02*
X023797Y018298D01*
X023809Y018180D02*
X029539Y018180D01*
X029539Y018061D02*
X023809Y018061D01*
X023764Y017943D02*
X029539Y017943D01*
X029539Y017824D02*
X023700Y017824D01*
X023581Y017706D02*
X029539Y017706D01*
X029539Y017587D02*
X006479Y017587D01*
X006479Y017469D02*
X029539Y017469D01*
X029539Y017350D02*
X006479Y017350D01*
X006479Y017231D02*
X029539Y017231D01*
X029539Y017113D02*
X006479Y017113D01*
X006479Y016994D02*
X029539Y016994D01*
X029539Y016876D02*
X006479Y016876D01*
X006479Y016757D02*
X029539Y016757D01*
X029539Y016639D02*
X006479Y016639D01*
X006479Y016520D02*
X029539Y016520D01*
X029539Y016402D02*
X006479Y016402D01*
X006479Y016283D02*
X029539Y016283D01*
X029539Y016165D02*
X006479Y016165D01*
X006479Y016046D02*
X029539Y016046D01*
X029539Y015928D02*
X006479Y015928D01*
X006479Y015809D02*
X029539Y015809D01*
X029539Y015690D02*
X023419Y015690D01*
X023368Y015711D02*
X023149Y015711D01*
X022947Y015627D01*
X022793Y015473D01*
X022759Y015391D01*
X022725Y015473D01*
X022570Y015627D01*
X022368Y015711D01*
X022149Y015711D01*
X021947Y015627D01*
X021793Y015473D01*
X021759Y015391D01*
X021725Y015473D01*
X021570Y015627D01*
X021368Y015711D01*
X021149Y015711D01*
X020947Y015627D01*
X020793Y015473D01*
X020759Y015391D01*
X020725Y015473D01*
X020570Y015627D01*
X020368Y015711D01*
X020149Y015711D01*
X019947Y015627D01*
X019793Y015473D01*
X019759Y015391D01*
X019725Y015473D01*
X019570Y015627D01*
X019368Y015711D01*
X019149Y015711D01*
X018947Y015627D01*
X018793Y015473D01*
X018759Y015391D01*
X018725Y015473D01*
X018570Y015627D01*
X018368Y015711D01*
X018149Y015711D01*
X017947Y015627D01*
X017793Y015473D01*
X017759Y015391D01*
X017725Y015473D01*
X017570Y015627D01*
X017368Y015711D01*
X017149Y015711D01*
X016947Y015627D01*
X016793Y015473D01*
X016759Y015391D01*
X016725Y015473D01*
X016570Y015627D01*
X016368Y015711D01*
X016149Y015711D01*
X015947Y015627D01*
X015793Y015473D01*
X015709Y015271D01*
X015709Y015052D01*
X015793Y014850D01*
X015947Y014695D01*
X016149Y014611D01*
X016368Y014611D01*
X016570Y014695D01*
X016725Y014850D01*
X016759Y014931D01*
X016793Y014850D01*
X016947Y014695D01*
X017149Y014611D01*
X017368Y014611D01*
X017570Y014695D01*
X017725Y014850D01*
X017759Y014931D01*
X017793Y014850D01*
X017947Y014695D01*
X018149Y014611D01*
X018368Y014611D01*
X018570Y014695D01*
X018725Y014850D01*
X018759Y014931D01*
X018793Y014850D01*
X018947Y014695D01*
X019149Y014611D01*
X019368Y014611D01*
X019570Y014695D01*
X019725Y014850D01*
X019759Y014931D01*
X019793Y014850D01*
X019947Y014695D01*
X020149Y014611D01*
X020368Y014611D01*
X020570Y014695D01*
X020725Y014850D01*
X020759Y014931D01*
X020793Y014850D01*
X020947Y014695D01*
X021149Y014611D01*
X021368Y014611D01*
X021570Y014695D01*
X021725Y014850D01*
X021759Y014931D01*
X021793Y014850D01*
X021947Y014695D01*
X022149Y014611D01*
X022368Y014611D01*
X022570Y014695D01*
X022725Y014850D01*
X022759Y014931D01*
X022793Y014850D01*
X022947Y014695D01*
X023149Y014611D01*
X023368Y014611D01*
X023570Y014695D01*
X023725Y014850D01*
X023809Y015052D01*
X023809Y015271D01*
X023725Y015473D01*
X023570Y015627D01*
X023368Y015711D01*
X023099Y015690D02*
X022419Y015690D01*
X022626Y015572D02*
X022892Y015572D01*
X022785Y015453D02*
X022733Y015453D01*
X022099Y015690D02*
X021419Y015690D01*
X021626Y015572D02*
X021892Y015572D01*
X021785Y015453D02*
X021733Y015453D01*
X021099Y015690D02*
X020419Y015690D01*
X020626Y015572D02*
X020892Y015572D01*
X020785Y015453D02*
X020733Y015453D01*
X020099Y015690D02*
X019419Y015690D01*
X019626Y015572D02*
X019892Y015572D01*
X019785Y015453D02*
X019733Y015453D01*
X019099Y015690D02*
X018419Y015690D01*
X018626Y015572D02*
X018892Y015572D01*
X018785Y015453D02*
X018733Y015453D01*
X018099Y015690D02*
X017419Y015690D01*
X017626Y015572D02*
X017892Y015572D01*
X017785Y015453D02*
X017733Y015453D01*
X017099Y015690D02*
X016419Y015690D01*
X016626Y015572D02*
X016892Y015572D01*
X016785Y015453D02*
X016733Y015453D01*
X016099Y015690D02*
X006479Y015690D01*
X006479Y015572D02*
X015892Y015572D01*
X015785Y015453D02*
X006479Y015453D01*
X006479Y015335D02*
X015735Y015335D01*
X015709Y015216D02*
X006479Y015216D01*
X006479Y015098D02*
X015709Y015098D01*
X015739Y014979D02*
X006479Y014979D01*
X006479Y014861D02*
X015788Y014861D01*
X015900Y014742D02*
X006479Y014742D01*
X006479Y014624D02*
X009943Y014624D01*
X009947Y014627D02*
X009793Y014473D01*
X009759Y014391D01*
X008664Y014391D01*
X008529Y014256D01*
X008029Y013756D01*
X008029Y013566D01*
X008029Y013161D01*
X007947Y013127D01*
X007793Y012973D01*
X007709Y012771D01*
X007709Y012552D01*
X007793Y012350D01*
X007947Y012195D01*
X008149Y012111D01*
X008368Y012111D01*
X008570Y012195D01*
X008725Y012350D01*
X008769Y012455D01*
X008806Y012383D01*
X008855Y012316D01*
X008914Y012257D01*
X008981Y012208D01*
X009055Y012170D01*
X009135Y012144D01*
X009217Y012131D01*
X009239Y012131D01*
X009239Y012641D01*
X009279Y012641D01*
X009279Y012131D01*
X009301Y012131D01*
X009383Y012144D01*
X009462Y012170D01*
X009537Y012208D01*
X009604Y012257D01*
X009663Y012316D01*
X009712Y012383D01*
X009750Y012458D01*
X009776Y012537D01*
X009789Y012620D01*
X009789Y012641D01*
X009279Y012641D01*
X009279Y012681D01*
X009789Y012681D01*
X009789Y012703D01*
X009776Y012785D01*
X009750Y012865D01*
X009712Y012939D01*
X009663Y013006D01*
X009604Y013065D01*
X009537Y013115D01*
X009462Y013152D01*
X009383Y013178D01*
X009301Y013191D01*
X009279Y013191D01*
X009279Y012681D01*
X009239Y012681D01*
X009239Y013191D01*
X009217Y013191D01*
X009135Y013178D01*
X009055Y013152D01*
X008981Y013115D01*
X008914Y013065D01*
X008855Y013006D01*
X008806Y012939D01*
X008769Y012867D01*
X008725Y012973D01*
X008570Y013127D01*
X008489Y013161D01*
X008489Y013566D01*
X008854Y013931D01*
X009759Y013931D01*
X009793Y013850D01*
X009947Y013695D01*
X010149Y013611D01*
X010368Y013611D01*
X010570Y013695D01*
X010725Y013850D01*
X010809Y014052D01*
X010809Y014271D01*
X010725Y014473D01*
X010570Y014627D01*
X010368Y014711D01*
X010149Y014711D01*
X009947Y014627D01*
X009825Y014505D02*
X006479Y014505D01*
X006479Y014386D02*
X008659Y014386D01*
X008540Y014268D02*
X006479Y014268D01*
X006479Y014149D02*
X008422Y014149D01*
X008303Y014031D02*
X006479Y014031D01*
X006479Y013912D02*
X008185Y013912D01*
X008066Y013794D02*
X006479Y013794D01*
X006479Y013675D02*
X008029Y013675D01*
X008029Y013557D02*
X006479Y013557D01*
X006479Y013438D02*
X008029Y013438D01*
X008029Y013320D02*
X006479Y013320D01*
X006479Y013201D02*
X008029Y013201D01*
X007902Y013082D02*
X006479Y013082D01*
X006479Y012964D02*
X007789Y012964D01*
X007740Y012845D02*
X006479Y012845D01*
X006479Y012727D02*
X007709Y012727D01*
X007709Y012608D02*
X006479Y012608D01*
X006479Y012490D02*
X007735Y012490D01*
X007784Y012371D02*
X006479Y012371D01*
X006479Y012253D02*
X007890Y012253D01*
X008094Y012134D02*
X006479Y012134D01*
X006479Y012016D02*
X017229Y012016D01*
X017229Y011942D02*
X017539Y011631D01*
X017719Y011631D01*
X017719Y012121D01*
X017799Y012121D01*
X017799Y011631D01*
X017978Y011631D01*
X018245Y011898D01*
X018531Y011611D01*
X018987Y011611D01*
X019259Y011883D01*
X019531Y011611D01*
X019987Y011611D01*
X020259Y011883D01*
X020531Y011611D01*
X020987Y011611D01*
X021259Y011883D01*
X021531Y011611D01*
X021987Y011611D01*
X022309Y011933D01*
X022309Y012389D01*
X022037Y012661D01*
X022309Y012933D01*
X022309Y013389D01*
X021987Y013711D01*
X021531Y013711D01*
X021259Y013439D01*
X020987Y013711D01*
X020531Y013711D01*
X020259Y013439D01*
X019987Y013711D01*
X019531Y013711D01*
X019259Y013439D01*
X018987Y013711D01*
X018531Y013711D01*
X018245Y013425D01*
X017978Y013691D01*
X017799Y013691D01*
X017799Y013201D01*
X017719Y013201D01*
X012489Y013201D01*
X012489Y013161D02*
X012489Y013566D01*
X012854Y013931D01*
X013759Y013931D01*
X013793Y013850D01*
X013947Y013695D01*
X014149Y013611D01*
X014368Y013611D01*
X014570Y013695D01*
X014725Y013850D01*
X014809Y014052D01*
X014809Y014271D01*
X014725Y014473D01*
X014570Y014627D01*
X014368Y014711D01*
X014149Y014711D01*
X013947Y014627D01*
X013793Y014473D01*
X013759Y014391D01*
X012664Y014391D01*
X012529Y014256D01*
X012029Y013756D01*
X012029Y013566D01*
X012029Y013161D01*
X011947Y013127D01*
X011793Y012973D01*
X011709Y012771D01*
X011709Y012552D01*
X011793Y012350D01*
X011947Y012195D01*
X012149Y012111D01*
X012368Y012111D01*
X012570Y012195D01*
X012725Y012350D01*
X012769Y012455D01*
X012806Y012383D01*
X012855Y012316D01*
X012914Y012257D01*
X012981Y012208D01*
X013055Y012170D01*
X013135Y012144D01*
X013217Y012131D01*
X013239Y012131D01*
X013239Y012641D01*
X013279Y012641D01*
X013279Y012131D01*
X013301Y012131D01*
X013383Y012144D01*
X013462Y012170D01*
X013537Y012208D01*
X013604Y012257D01*
X013663Y012316D01*
X013712Y012383D01*
X013750Y012458D01*
X013776Y012537D01*
X013789Y012620D01*
X013789Y012641D01*
X013279Y012641D01*
X013279Y012681D01*
X013789Y012681D01*
X013789Y012703D01*
X013776Y012785D01*
X013750Y012865D01*
X013712Y012939D01*
X013663Y013006D01*
X013604Y013065D01*
X013537Y013115D01*
X013462Y013152D01*
X013383Y013178D01*
X013301Y013191D01*
X013279Y013191D01*
X013279Y012681D01*
X013239Y012681D01*
X013239Y013191D01*
X013217Y013191D01*
X013135Y013178D01*
X013055Y013152D01*
X012981Y013115D01*
X012914Y013065D01*
X012855Y013006D01*
X012806Y012939D01*
X012769Y012867D01*
X012725Y012973D01*
X012570Y013127D01*
X012489Y013161D01*
X012615Y013082D02*
X012937Y013082D01*
X012824Y012964D02*
X012729Y012964D01*
X013239Y012964D02*
X013279Y012964D01*
X013279Y013082D02*
X013239Y013082D01*
X013239Y012845D02*
X013279Y012845D01*
X013279Y012727D02*
X013239Y012727D01*
X013239Y012608D02*
X013279Y012608D01*
X013279Y012490D02*
X013239Y012490D01*
X013239Y012371D02*
X013279Y012371D01*
X013279Y012253D02*
X013239Y012253D01*
X013239Y012134D02*
X013279Y012134D01*
X013319Y012134D02*
X017719Y012134D01*
X017719Y012121D02*
X017229Y012121D01*
X017229Y011942D01*
X017274Y011897D02*
X006479Y011897D01*
X006479Y011779D02*
X017392Y011779D01*
X017511Y011660D02*
X014492Y011660D01*
X014570Y011627D02*
X014368Y011711D01*
X014149Y011711D01*
X013947Y011627D01*
X013793Y011473D01*
X013709Y011271D01*
X013709Y011052D01*
X013793Y010850D01*
X013947Y010695D01*
X014149Y010611D01*
X014368Y010611D01*
X014570Y010695D01*
X014725Y010850D01*
X014809Y011052D01*
X014809Y011271D01*
X014725Y011473D01*
X014570Y011627D01*
X014656Y011541D02*
X029539Y011541D01*
X029539Y011423D02*
X014746Y011423D01*
X014795Y011304D02*
X029539Y011304D01*
X029539Y011186D02*
X014809Y011186D01*
X014809Y011067D02*
X029539Y011067D01*
X029539Y010949D02*
X014766Y010949D01*
X014706Y010830D02*
X029539Y010830D01*
X029539Y010712D02*
X014587Y010712D01*
X013931Y010712D02*
X010587Y010712D01*
X010570Y010695D02*
X010725Y010850D01*
X010809Y011052D01*
X010809Y011271D01*
X010725Y011473D01*
X010570Y011627D01*
X010368Y011711D01*
X010149Y011711D01*
X009947Y011627D01*
X009793Y011473D01*
X009709Y011271D01*
X009709Y011052D01*
X009793Y010850D01*
X009947Y010695D01*
X010029Y010661D01*
X010029Y010566D01*
X010164Y010431D01*
X010664Y009931D01*
X010854Y009931D01*
X017164Y009931D01*
X017529Y009566D01*
X017529Y001661D01*
X017447Y001627D01*
X017293Y001473D01*
X017259Y001391D01*
X017225Y001473D01*
X017070Y001627D01*
X016868Y001711D01*
X016649Y001711D01*
X016447Y001627D01*
X016293Y001473D01*
X016259Y001391D01*
X016225Y001473D01*
X016070Y001627D01*
X015989Y001661D01*
X015989Y003354D01*
X016081Y003446D01*
X016139Y003586D01*
X016139Y003737D01*
X016081Y003876D01*
X015974Y003983D01*
X015834Y004041D01*
X015683Y004041D01*
X015544Y003983D01*
X015437Y003876D01*
X015379Y003737D01*
X015379Y003586D01*
X015437Y003446D01*
X015529Y003354D01*
X015529Y001661D01*
X015447Y001627D01*
X015293Y001473D01*
X015209Y001271D01*
X015209Y001052D01*
X015293Y000850D01*
X015447Y000695D01*
X015649Y000611D01*
X015868Y000611D01*
X016070Y000695D01*
X016225Y000850D01*
X016259Y000931D01*
X016293Y000850D01*
X016447Y000695D01*
X016649Y000611D01*
X016868Y000611D01*
X017070Y000695D01*
X017225Y000850D01*
X017259Y000931D01*
X017293Y000850D01*
X017447Y000695D01*
X017649Y000611D01*
X017868Y000611D01*
X018070Y000695D01*
X018225Y000850D01*
X018269Y000955D01*
X018306Y000883D01*
X018355Y000816D01*
X018414Y000757D01*
X018481Y000708D01*
X018555Y000670D01*
X018635Y000644D01*
X018717Y000631D01*
X018719Y000631D01*
X018719Y001121D01*
X018799Y001121D01*
X018799Y000631D01*
X018801Y000631D01*
X018883Y000644D01*
X018962Y000670D01*
X019037Y000708D01*
X019104Y000757D01*
X019163Y000816D01*
X019212Y000883D01*
X019250Y000958D01*
X019259Y000985D01*
X019268Y000958D01*
X019306Y000883D01*
X019355Y000816D01*
X019414Y000757D01*
X019481Y000708D01*
X019555Y000670D01*
X019635Y000644D01*
X019717Y000631D01*
X019719Y000631D01*
X019719Y001121D01*
X019799Y001121D01*
X019799Y000631D01*
X019801Y000631D01*
X019883Y000644D01*
X019962Y000670D01*
X020037Y000708D01*
X020104Y000757D01*
X020163Y000816D01*
X020212Y000883D01*
X020249Y000955D01*
X020293Y000850D01*
X020447Y000695D01*
X020649Y000611D01*
X020868Y000611D01*
X021070Y000695D01*
X021225Y000850D01*
X021309Y001052D01*
X021309Y001271D01*
X021225Y001473D01*
X021189Y001509D01*
X021189Y006483D01*
X022187Y007481D01*
X024911Y007481D01*
X024947Y007445D01*
X025029Y007411D01*
X024947Y007377D01*
X024793Y007223D01*
X024709Y007021D01*
X024709Y006802D01*
X024793Y006600D01*
X024947Y006445D01*
X025029Y006411D01*
X024947Y006377D01*
X024793Y006223D01*
X024709Y006021D01*
X024709Y005802D01*
X024793Y005600D01*
X024947Y005445D01*
X025149Y005361D01*
X025368Y005361D01*
X025570Y005445D01*
X025709Y005584D01*
X025709Y004967D01*
X025814Y004861D01*
X026703Y004861D01*
X026809Y004967D01*
X026809Y005856D01*
X026703Y005961D01*
X026587Y005961D01*
X026725Y006100D01*
X026809Y006302D01*
X026809Y006521D01*
X026725Y006723D01*
X026570Y006877D01*
X026489Y006911D01*
X026570Y006945D01*
X026725Y007100D01*
X026809Y007302D01*
X026809Y007521D01*
X026725Y007723D01*
X026570Y007877D01*
X026465Y007921D01*
X026537Y007958D01*
X026604Y008007D01*
X026663Y008066D01*
X026712Y008133D01*
X026750Y008208D01*
X026776Y008287D01*
X026789Y008370D01*
X026789Y008373D01*
X026298Y008373D01*
X026298Y008450D01*
X026789Y008450D01*
X026789Y008453D01*
X026776Y008535D01*
X026750Y008615D01*
X026712Y008689D01*
X026663Y008756D01*
X026604Y008815D01*
X026537Y008865D01*
X026462Y008902D01*
X026383Y008928D01*
X026301Y008941D01*
X026297Y008941D01*
X026297Y008450D01*
X026220Y008450D01*
X026220Y008373D01*
X025729Y008373D01*
X025729Y008370D01*
X025742Y008287D01*
X025745Y008279D01*
X025615Y008333D01*
X025570Y008377D01*
X025465Y008421D01*
X025537Y008458D01*
X025604Y008507D01*
X025663Y008566D01*
X025712Y008633D01*
X025750Y008708D01*
X025776Y008787D01*
X025789Y008870D01*
X025789Y008873D01*
X025298Y008873D01*
X025298Y008950D01*
X025789Y008950D01*
X025789Y008953D01*
X025776Y009035D01*
X025750Y009115D01*
X025712Y009189D01*
X025663Y009256D01*
X025604Y009315D01*
X025537Y009365D01*
X025462Y009402D01*
X025383Y009428D01*
X025301Y009441D01*
X025297Y009441D01*
X025297Y008950D01*
X025220Y008950D01*
X025220Y008873D01*
X024729Y008873D01*
X024729Y008870D01*
X024742Y008787D01*
X024768Y008708D01*
X024806Y008633D01*
X024855Y008566D01*
X024914Y008507D01*
X024981Y008458D01*
X025053Y008421D01*
X024947Y008377D01*
X024911Y008341D01*
X022094Y008341D01*
X021923Y008341D01*
X021765Y008276D01*
X020515Y007026D01*
X020394Y006905D01*
X020329Y006747D01*
X020329Y001509D01*
X020293Y001473D01*
X020249Y001367D01*
X020212Y001439D01*
X020163Y001506D01*
X020104Y001565D01*
X020037Y001615D01*
X019962Y001652D01*
X019883Y001678D01*
X019801Y001691D01*
X019799Y001691D01*
X019799Y001201D01*
X019719Y001201D01*
X019719Y001121D01*
X019229Y001121D01*
X018799Y001121D01*
X018799Y001201D01*
X019229Y001201D01*
X019719Y001201D01*
X019719Y001691D01*
X019717Y001691D01*
X019635Y001678D01*
X019555Y001652D01*
X019481Y001615D01*
X019414Y001565D01*
X019355Y001506D01*
X019306Y001439D01*
X019268Y001365D01*
X019259Y001337D01*
X019250Y001365D01*
X019212Y001439D01*
X019163Y001506D01*
X019104Y001565D01*
X019037Y001615D01*
X018962Y001652D01*
X018883Y001678D01*
X018801Y001691D01*
X018799Y001691D01*
X018799Y001201D01*
X018719Y001201D01*
X018719Y001691D01*
X018717Y001691D01*
X018635Y001678D01*
X018555Y001652D01*
X018481Y001615D01*
X018414Y001565D01*
X018355Y001506D01*
X018306Y001439D01*
X018269Y001367D01*
X018225Y001473D01*
X018070Y001627D01*
X017989Y001661D01*
X017989Y009566D01*
X017989Y009756D01*
X017489Y010256D01*
X017354Y010391D01*
X010854Y010391D01*
X010556Y010689D01*
X010570Y010695D01*
X010652Y010593D02*
X029539Y010593D01*
X029539Y010475D02*
X010771Y010475D01*
X010706Y010830D02*
X013812Y010830D01*
X013752Y010949D02*
X010766Y010949D01*
X010809Y011067D02*
X013709Y011067D01*
X013709Y011186D02*
X010809Y011186D01*
X010795Y011304D02*
X013723Y011304D01*
X013772Y011423D02*
X010746Y011423D01*
X010656Y011541D02*
X013861Y011541D01*
X014026Y011660D02*
X010492Y011660D01*
X010026Y011660D02*
X006479Y011660D01*
X006479Y011541D02*
X009861Y011541D01*
X009772Y011423D02*
X006479Y011423D01*
X006479Y011304D02*
X009723Y011304D01*
X009709Y011186D02*
X006479Y011186D01*
X006479Y011067D02*
X009709Y011067D01*
X009752Y010949D02*
X006479Y010949D01*
X006479Y010830D02*
X009812Y010830D01*
X009931Y010712D02*
X006479Y010712D01*
X006479Y010593D02*
X010029Y010593D01*
X010120Y010475D02*
X006479Y010475D01*
X006479Y010356D02*
X010239Y010356D01*
X010357Y010237D02*
X006479Y010237D01*
X006479Y010119D02*
X010476Y010119D01*
X010595Y010000D02*
X006479Y010000D01*
X006479Y009882D02*
X017213Y009882D01*
X017332Y009763D02*
X006479Y009763D01*
X006479Y009645D02*
X017450Y009645D01*
X017529Y009526D02*
X006479Y009526D01*
X006479Y009408D02*
X017529Y009408D01*
X017529Y009289D02*
X006479Y009289D01*
X006479Y009171D02*
X017529Y009171D01*
X017529Y009052D02*
X006479Y009052D01*
X006479Y008933D02*
X017529Y008933D01*
X017529Y008815D02*
X006479Y008815D01*
X006479Y008696D02*
X017529Y008696D01*
X017529Y008578D02*
X006479Y008578D01*
X006479Y008459D02*
X017529Y008459D01*
X017529Y008341D02*
X006479Y008341D01*
X006479Y008222D02*
X017529Y008222D01*
X017529Y008104D02*
X006479Y008104D01*
X006479Y007985D02*
X017529Y007985D01*
X017529Y007867D02*
X006479Y007867D01*
X006479Y007748D02*
X017529Y007748D01*
X017529Y007629D02*
X006479Y007629D01*
X006479Y007511D02*
X017529Y007511D01*
X017529Y007392D02*
X006479Y007392D01*
X006479Y007274D02*
X017529Y007274D01*
X017529Y007155D02*
X006479Y007155D01*
X006479Y007037D02*
X017529Y007037D01*
X017529Y006918D02*
X006479Y006918D01*
X006479Y006800D02*
X017529Y006800D01*
X017529Y006681D02*
X006479Y006681D01*
X006479Y006563D02*
X017529Y006563D01*
X017529Y006444D02*
X006479Y006444D01*
X006479Y006326D02*
X017529Y006326D01*
X017529Y006207D02*
X006479Y006207D01*
X006479Y006088D02*
X017529Y006088D01*
X017529Y005970D02*
X006479Y005970D01*
X006479Y005851D02*
X017529Y005851D01*
X017529Y005733D02*
X006479Y005733D01*
X006479Y005614D02*
X017529Y005614D01*
X017529Y005496D02*
X006479Y005496D01*
X006479Y005377D02*
X017529Y005377D01*
X017529Y005259D02*
X006479Y005259D01*
X006479Y005140D02*
X017529Y005140D01*
X017529Y005022D02*
X006479Y005022D01*
X006479Y004903D02*
X017529Y004903D01*
X017529Y004784D02*
X006479Y004784D01*
X006479Y004666D02*
X017529Y004666D01*
X017529Y004547D02*
X006479Y004547D01*
X006479Y004429D02*
X017529Y004429D01*
X017529Y004310D02*
X006479Y004310D01*
X006479Y004192D02*
X017529Y004192D01*
X017529Y004073D02*
X006479Y004073D01*
X006479Y003955D02*
X015515Y003955D01*
X015420Y003836D02*
X006479Y003836D01*
X006479Y003718D02*
X015379Y003718D01*
X015379Y003599D02*
X006479Y003599D01*
X006479Y003480D02*
X015422Y003480D01*
X015521Y003362D02*
X006479Y003362D01*
X006479Y003243D02*
X015529Y003243D01*
X015529Y003125D02*
X006479Y003125D01*
X006479Y003006D02*
X015529Y003006D01*
X015529Y002888D02*
X006479Y002888D01*
X006479Y002769D02*
X015529Y002769D01*
X015529Y002651D02*
X006479Y002651D01*
X006479Y002532D02*
X015529Y002532D01*
X015529Y002414D02*
X006479Y002414D01*
X006479Y002295D02*
X015529Y002295D01*
X015529Y002176D02*
X006479Y002176D01*
X006479Y002058D02*
X015529Y002058D01*
X015529Y001939D02*
X006479Y001939D01*
X006479Y001821D02*
X015529Y001821D01*
X015529Y001702D02*
X006479Y001702D01*
X006479Y001584D02*
X015404Y001584D01*
X015290Y001465D02*
X006479Y001465D01*
X006479Y001347D02*
X015240Y001347D01*
X015209Y001228D02*
X006503Y001228D01*
X006622Y001110D02*
X015209Y001110D01*
X015234Y000991D02*
X006740Y000991D01*
X006859Y000873D02*
X015283Y000873D01*
X015388Y000754D02*
X006977Y000754D01*
X007096Y000635D02*
X015591Y000635D01*
X015927Y000635D02*
X016591Y000635D01*
X016388Y000754D02*
X016129Y000754D01*
X016235Y000873D02*
X016283Y000873D01*
X016290Y001465D02*
X016228Y001465D01*
X016114Y001584D02*
X016404Y001584D01*
X016628Y001702D02*
X015989Y001702D01*
X015989Y001821D02*
X017529Y001821D01*
X017529Y001939D02*
X015989Y001939D01*
X015989Y002058D02*
X017529Y002058D01*
X017529Y002176D02*
X015989Y002176D01*
X015989Y002295D02*
X017529Y002295D01*
X017529Y002414D02*
X015989Y002414D01*
X015989Y002532D02*
X017529Y002532D01*
X017529Y002651D02*
X015989Y002651D01*
X015989Y002769D02*
X017529Y002769D01*
X017529Y002888D02*
X015989Y002888D01*
X015989Y003006D02*
X017529Y003006D01*
X017529Y003125D02*
X015989Y003125D01*
X015989Y003243D02*
X017529Y003243D01*
X017529Y003362D02*
X015997Y003362D01*
X016095Y003480D02*
X017529Y003480D01*
X017529Y003599D02*
X016139Y003599D01*
X016139Y003718D02*
X017529Y003718D01*
X017529Y003836D02*
X016098Y003836D01*
X016003Y003955D02*
X017529Y003955D01*
X017989Y003955D02*
X020329Y003955D01*
X020329Y004073D02*
X017989Y004073D01*
X017989Y004192D02*
X020329Y004192D01*
X020329Y004310D02*
X017989Y004310D01*
X017989Y004429D02*
X020329Y004429D01*
X020329Y004547D02*
X017989Y004547D01*
X017989Y004666D02*
X020329Y004666D01*
X020329Y004784D02*
X017989Y004784D01*
X017989Y004903D02*
X020329Y004903D01*
X020329Y005022D02*
X017989Y005022D01*
X017989Y005140D02*
X020329Y005140D01*
X020329Y005259D02*
X017989Y005259D01*
X017989Y005377D02*
X020329Y005377D01*
X020329Y005496D02*
X017989Y005496D01*
X017989Y005614D02*
X020329Y005614D01*
X020329Y005733D02*
X017989Y005733D01*
X017989Y005851D02*
X020329Y005851D01*
X020329Y005970D02*
X017989Y005970D01*
X017989Y006088D02*
X020329Y006088D01*
X020329Y006207D02*
X017989Y006207D01*
X017989Y006326D02*
X020329Y006326D01*
X020329Y006444D02*
X017989Y006444D01*
X017989Y006563D02*
X020329Y006563D01*
X020329Y006681D02*
X017989Y006681D01*
X017989Y006800D02*
X020351Y006800D01*
X020408Y006918D02*
X017989Y006918D01*
X017989Y007037D02*
X020526Y007037D01*
X020645Y007155D02*
X017989Y007155D01*
X017989Y007274D02*
X020763Y007274D01*
X020882Y007392D02*
X017989Y007392D01*
X017989Y007511D02*
X021001Y007511D01*
X021119Y007629D02*
X017989Y007629D01*
X017989Y007748D02*
X021238Y007748D01*
X021356Y007867D02*
X017989Y007867D01*
X017989Y007985D02*
X021475Y007985D01*
X021593Y008104D02*
X017989Y008104D01*
X017989Y008222D02*
X021712Y008222D01*
X021922Y008341D02*
X017989Y008341D01*
X017989Y008459D02*
X024979Y008459D01*
X024846Y008578D02*
X017989Y008578D01*
X017989Y008696D02*
X024774Y008696D01*
X024738Y008815D02*
X017989Y008815D01*
X017989Y008933D02*
X025220Y008933D01*
X025220Y008950D02*
X024729Y008950D01*
X024729Y008953D01*
X024742Y009035D01*
X024768Y009115D01*
X024806Y009189D01*
X024855Y009256D01*
X024914Y009315D01*
X024981Y009365D01*
X025055Y009402D01*
X025135Y009428D01*
X025217Y009441D01*
X025220Y009441D01*
X025220Y008950D01*
X025298Y008933D02*
X026168Y008933D01*
X026135Y008928D02*
X026055Y008902D01*
X025981Y008865D01*
X025914Y008815D01*
X025855Y008756D01*
X025806Y008689D01*
X025768Y008615D01*
X025742Y008535D01*
X025729Y008453D01*
X025729Y008450D01*
X026220Y008450D01*
X026220Y008941D01*
X026217Y008941D01*
X026135Y008928D01*
X026220Y008933D02*
X026297Y008933D01*
X026350Y008933D02*
X028091Y008933D01*
X028031Y009052D02*
X025770Y009052D01*
X025722Y009171D02*
X027982Y009171D01*
X027949Y009289D02*
X025631Y009289D01*
X025446Y009408D02*
X027949Y009408D01*
X027949Y009526D02*
X017989Y009526D01*
X017989Y009408D02*
X025072Y009408D01*
X025220Y009408D02*
X025297Y009408D01*
X025297Y009289D02*
X025220Y009289D01*
X025220Y009171D02*
X025297Y009171D01*
X025297Y009052D02*
X025220Y009052D01*
X024887Y009289D02*
X017989Y009289D01*
X017989Y009171D02*
X024796Y009171D01*
X024747Y009052D02*
X017989Y009052D01*
X017989Y009645D02*
X027979Y009645D01*
X028028Y009763D02*
X017982Y009763D01*
X017864Y009882D02*
X028084Y009882D01*
X028203Y010000D02*
X017745Y010000D01*
X017626Y010119D02*
X028351Y010119D01*
X029167Y010119D02*
X029539Y010119D01*
X029539Y010237D02*
X017508Y010237D01*
X017389Y010356D02*
X029539Y010356D01*
X029539Y010000D02*
X029315Y010000D01*
X029434Y009882D02*
X029539Y009882D01*
X029539Y009763D02*
X029490Y009763D01*
X029539Y009645D02*
X029539Y009645D01*
X029536Y009171D02*
X029539Y009171D01*
X029539Y009052D02*
X029487Y009052D01*
X029539Y008933D02*
X029426Y008933D01*
X029539Y008815D02*
X029308Y008815D01*
X029149Y008696D02*
X029539Y008696D01*
X029539Y008578D02*
X026762Y008578D01*
X026788Y008459D02*
X029539Y008459D01*
X029539Y008341D02*
X026784Y008341D01*
X026755Y008222D02*
X029539Y008222D01*
X029539Y008104D02*
X026690Y008104D01*
X026574Y007985D02*
X029539Y007985D01*
X029539Y007867D02*
X026581Y007867D01*
X026700Y007748D02*
X029539Y007748D01*
X029539Y007629D02*
X026764Y007629D01*
X026809Y007511D02*
X029539Y007511D01*
X029539Y007392D02*
X026809Y007392D01*
X026797Y007274D02*
X029539Y007274D01*
X029539Y007155D02*
X026748Y007155D01*
X026662Y007037D02*
X029539Y007037D01*
X029539Y006918D02*
X026506Y006918D01*
X026648Y006800D02*
X029539Y006800D01*
X029539Y006681D02*
X026742Y006681D01*
X026791Y006563D02*
X029539Y006563D01*
X029539Y006444D02*
X026809Y006444D01*
X026809Y006326D02*
X029539Y006326D01*
X029539Y006207D02*
X026770Y006207D01*
X026714Y006088D02*
X029539Y006088D01*
X029539Y005970D02*
X026595Y005970D01*
X026809Y005851D02*
X029539Y005851D01*
X029539Y005733D02*
X026809Y005733D01*
X026809Y005614D02*
X028340Y005614D01*
X028198Y005496D02*
X026809Y005496D01*
X026809Y005377D02*
X028079Y005377D01*
X028026Y005259D02*
X026809Y005259D01*
X026809Y005140D02*
X027977Y005140D01*
X027949Y005022D02*
X026809Y005022D01*
X026745Y004903D02*
X027949Y004903D01*
X027949Y004784D02*
X021189Y004784D01*
X021189Y004666D02*
X027984Y004666D01*
X028033Y004547D02*
X021189Y004547D01*
X021189Y004429D02*
X028096Y004429D01*
X028214Y004310D02*
X021189Y004310D01*
X021189Y004192D02*
X028380Y004192D01*
X028543Y004073D02*
X021189Y004073D01*
X021189Y003955D02*
X028260Y003955D01*
X027925Y003599D02*
X021189Y003599D01*
X021189Y003480D02*
X027867Y003480D01*
X027844Y003362D02*
X021189Y003362D01*
X021189Y003243D02*
X027820Y003243D01*
X027811Y003125D02*
X021189Y003125D01*
X021189Y003006D02*
X027835Y003006D01*
X027858Y002888D02*
X021189Y002888D01*
X021189Y002769D02*
X027894Y002769D01*
X027974Y002651D02*
X021189Y002651D01*
X021189Y002532D02*
X028053Y002532D01*
X028192Y002414D02*
X021189Y002414D01*
X021189Y002295D02*
X028369Y002295D01*
X029148Y002295D02*
X029539Y002295D01*
X029539Y002176D02*
X021189Y002176D01*
X021189Y002058D02*
X029539Y002058D01*
X029539Y001939D02*
X021189Y001939D01*
X021189Y001821D02*
X029539Y001821D01*
X029539Y001702D02*
X027890Y001702D01*
X027868Y001711D02*
X027649Y001711D01*
X027447Y001627D01*
X027293Y001473D01*
X027259Y001391D01*
X027225Y001473D01*
X027070Y001627D01*
X026868Y001711D01*
X026649Y001711D01*
X026447Y001627D01*
X026293Y001473D01*
X026259Y001391D01*
X026225Y001473D01*
X026070Y001627D01*
X025868Y001711D01*
X025649Y001711D01*
X025447Y001627D01*
X025293Y001473D01*
X025259Y001391D01*
X025225Y001473D01*
X025070Y001627D01*
X024868Y001711D01*
X024649Y001711D01*
X024447Y001627D01*
X024293Y001473D01*
X024259Y001391D01*
X024225Y001473D01*
X024070Y001627D01*
X023868Y001711D01*
X023649Y001711D01*
X023447Y001627D01*
X023293Y001473D01*
X023259Y001391D01*
X023225Y001473D01*
X023070Y001627D01*
X022868Y001711D01*
X022649Y001711D01*
X022447Y001627D01*
X022293Y001473D01*
X022209Y001271D01*
X022209Y001052D01*
X022293Y000850D01*
X022447Y000695D01*
X022649Y000611D01*
X022868Y000611D01*
X023070Y000695D01*
X023225Y000850D01*
X023259Y000931D01*
X023293Y000850D01*
X023447Y000695D01*
X023649Y000611D01*
X023868Y000611D01*
X024070Y000695D01*
X024225Y000850D01*
X024259Y000931D01*
X024293Y000850D01*
X024447Y000695D01*
X024649Y000611D01*
X024868Y000611D01*
X025070Y000695D01*
X025225Y000850D01*
X025259Y000931D01*
X025293Y000850D01*
X025447Y000695D01*
X025649Y000611D01*
X025868Y000611D01*
X026070Y000695D01*
X026225Y000850D01*
X026259Y000931D01*
X026293Y000850D01*
X026447Y000695D01*
X026649Y000611D01*
X026868Y000611D01*
X027070Y000695D01*
X027225Y000850D01*
X027259Y000931D01*
X027293Y000850D01*
X027447Y000695D01*
X027649Y000611D01*
X027868Y000611D01*
X028070Y000695D01*
X028225Y000850D01*
X028309Y001052D01*
X028309Y001271D01*
X028225Y001473D01*
X028070Y001627D01*
X027868Y001711D01*
X027628Y001702D02*
X026890Y001702D01*
X027114Y001584D02*
X027404Y001584D01*
X027290Y001465D02*
X027228Y001465D01*
X027235Y000873D02*
X027283Y000873D01*
X027388Y000754D02*
X027129Y000754D01*
X026927Y000635D02*
X027591Y000635D01*
X027927Y000635D02*
X028922Y000635D01*
X028803Y000517D02*
X007214Y000517D01*
X007333Y000398D02*
X028685Y000398D01*
X029041Y000754D02*
X028129Y000754D01*
X028235Y000873D02*
X029159Y000873D01*
X029278Y000991D02*
X028284Y000991D01*
X028309Y001110D02*
X029396Y001110D01*
X029515Y001228D02*
X028309Y001228D01*
X028277Y001347D02*
X029539Y001347D01*
X029539Y001465D02*
X028228Y001465D01*
X028114Y001584D02*
X029539Y001584D01*
X029539Y002414D02*
X029326Y002414D01*
X029434Y002486D02*
X029434Y002486D01*
X029465Y002532D02*
X029539Y002532D01*
X026628Y001702D02*
X025890Y001702D01*
X026114Y001584D02*
X026404Y001584D01*
X026290Y001465D02*
X026228Y001465D01*
X026235Y000873D02*
X026283Y000873D01*
X026388Y000754D02*
X026129Y000754D01*
X025927Y000635D02*
X026591Y000635D01*
X025591Y000635D02*
X024927Y000635D01*
X025129Y000754D02*
X025388Y000754D01*
X025283Y000873D02*
X025235Y000873D01*
X025228Y001465D02*
X025290Y001465D01*
X025404Y001584D02*
X025114Y001584D01*
X024890Y001702D02*
X025628Y001702D01*
X024628Y001702D02*
X023890Y001702D01*
X024114Y001584D02*
X024404Y001584D01*
X024290Y001465D02*
X024228Y001465D01*
X024235Y000873D02*
X024283Y000873D01*
X024388Y000754D02*
X024129Y000754D01*
X023927Y000635D02*
X024591Y000635D01*
X023591Y000635D02*
X022927Y000635D01*
X023129Y000754D02*
X023388Y000754D01*
X023283Y000873D02*
X023235Y000873D01*
X023228Y001465D02*
X023290Y001465D01*
X023404Y001584D02*
X023114Y001584D01*
X022890Y001702D02*
X023628Y001702D01*
X022628Y001702D02*
X021189Y001702D01*
X021189Y001584D02*
X022404Y001584D01*
X022290Y001465D02*
X021228Y001465D01*
X021277Y001347D02*
X022240Y001347D01*
X022209Y001228D02*
X021309Y001228D01*
X021309Y001110D02*
X022209Y001110D01*
X022234Y000991D02*
X021284Y000991D01*
X021235Y000873D02*
X022283Y000873D01*
X022388Y000754D02*
X021129Y000754D01*
X020927Y000635D02*
X022591Y000635D01*
X020591Y000635D02*
X019827Y000635D01*
X019799Y000635D02*
X019719Y000635D01*
X019691Y000635D02*
X018827Y000635D01*
X018799Y000635D02*
X018719Y000635D01*
X018691Y000635D02*
X017927Y000635D01*
X018129Y000754D02*
X018418Y000754D01*
X018314Y000873D02*
X018235Y000873D01*
X018719Y000873D02*
X018799Y000873D01*
X018799Y000991D02*
X018719Y000991D01*
X018719Y001110D02*
X018799Y001110D01*
X018799Y001228D02*
X018719Y001228D01*
X018719Y001347D02*
X018799Y001347D01*
X018799Y001465D02*
X018719Y001465D01*
X018719Y001584D02*
X018799Y001584D01*
X019079Y001584D02*
X019439Y001584D01*
X019325Y001465D02*
X019193Y001465D01*
X019256Y001347D02*
X019262Y001347D01*
X019719Y001347D02*
X019799Y001347D01*
X019799Y001465D02*
X019719Y001465D01*
X019719Y001584D02*
X019799Y001584D01*
X020079Y001584D02*
X020329Y001584D01*
X020329Y001702D02*
X017989Y001702D01*
X017989Y001821D02*
X020329Y001821D01*
X020329Y001939D02*
X017989Y001939D01*
X017989Y002058D02*
X020329Y002058D01*
X020329Y002176D02*
X017989Y002176D01*
X017989Y002295D02*
X020329Y002295D01*
X020329Y002414D02*
X017989Y002414D01*
X017989Y002532D02*
X020329Y002532D01*
X020329Y002651D02*
X017989Y002651D01*
X017989Y002769D02*
X020329Y002769D01*
X020329Y002888D02*
X017989Y002888D01*
X017989Y003006D02*
X020329Y003006D01*
X020329Y003125D02*
X017989Y003125D01*
X017989Y003243D02*
X020329Y003243D01*
X020329Y003362D02*
X017989Y003362D01*
X017989Y003480D02*
X020329Y003480D01*
X020329Y003599D02*
X017989Y003599D01*
X017989Y003718D02*
X020329Y003718D01*
X020329Y003836D02*
X017989Y003836D01*
X021189Y004903D02*
X025773Y004903D01*
X025709Y005022D02*
X021189Y005022D01*
X021189Y005140D02*
X025709Y005140D01*
X025709Y005259D02*
X021189Y005259D01*
X021189Y005377D02*
X025111Y005377D01*
X024897Y005496D02*
X021189Y005496D01*
X021189Y005614D02*
X024787Y005614D01*
X024737Y005733D02*
X021189Y005733D01*
X021189Y005851D02*
X024709Y005851D01*
X024709Y005970D02*
X021189Y005970D01*
X021189Y006088D02*
X024737Y006088D01*
X024786Y006207D02*
X021189Y006207D01*
X021189Y006326D02*
X024895Y006326D01*
X024950Y006444D02*
X021189Y006444D01*
X021268Y006563D02*
X024830Y006563D01*
X024759Y006681D02*
X021387Y006681D01*
X021505Y006800D02*
X024710Y006800D01*
X024709Y006918D02*
X021624Y006918D01*
X021742Y007037D02*
X024716Y007037D01*
X024765Y007155D02*
X021861Y007155D01*
X021980Y007274D02*
X024844Y007274D01*
X024983Y007392D02*
X022098Y007392D01*
X025407Y005377D02*
X025709Y005377D01*
X025709Y005496D02*
X025621Y005496D01*
X029178Y005614D02*
X029539Y005614D01*
X029539Y005496D02*
X029320Y005496D01*
X029438Y005377D02*
X029539Y005377D01*
X029539Y005259D02*
X029492Y005259D01*
X025733Y008341D02*
X025607Y008341D01*
X025538Y008459D02*
X025730Y008459D01*
X025756Y008578D02*
X025672Y008578D01*
X025744Y008696D02*
X025811Y008696D01*
X025780Y008815D02*
X025913Y008815D01*
X026220Y008815D02*
X026297Y008815D01*
X026297Y008696D02*
X026220Y008696D01*
X026220Y008578D02*
X026297Y008578D01*
X026297Y008459D02*
X026220Y008459D01*
X026605Y008815D02*
X028210Y008815D01*
X028368Y008696D02*
X026707Y008696D01*
X029539Y011660D02*
X022035Y011660D01*
X022154Y011779D02*
X029539Y011779D01*
X029539Y011897D02*
X022272Y011897D01*
X022309Y012016D02*
X029539Y012016D01*
X029539Y012134D02*
X022309Y012134D01*
X022309Y012253D02*
X029539Y012253D01*
X029539Y012371D02*
X022309Y012371D01*
X022208Y012490D02*
X029539Y012490D01*
X029539Y012608D02*
X022090Y012608D01*
X022102Y012727D02*
X029539Y012727D01*
X029539Y012845D02*
X022221Y012845D01*
X022309Y012964D02*
X029539Y012964D01*
X029539Y013082D02*
X022309Y013082D01*
X022309Y013201D02*
X029539Y013201D01*
X029539Y013320D02*
X022309Y013320D01*
X022260Y013438D02*
X029539Y013438D01*
X029539Y013557D02*
X022141Y013557D01*
X022023Y013675D02*
X029539Y013675D01*
X029539Y013794D02*
X014669Y013794D01*
X014751Y013912D02*
X029539Y013912D01*
X029539Y014031D02*
X014800Y014031D01*
X014809Y014149D02*
X029539Y014149D01*
X029539Y014268D02*
X014809Y014268D01*
X014761Y014386D02*
X029539Y014386D01*
X029539Y014505D02*
X014693Y014505D01*
X014574Y014624D02*
X016120Y014624D01*
X016398Y014624D02*
X017120Y014624D01*
X016900Y014742D02*
X016618Y014742D01*
X016730Y014861D02*
X016788Y014861D01*
X017398Y014624D02*
X018120Y014624D01*
X017900Y014742D02*
X017618Y014742D01*
X017730Y014861D02*
X017788Y014861D01*
X018398Y014624D02*
X019120Y014624D01*
X018900Y014742D02*
X018618Y014742D01*
X018730Y014861D02*
X018788Y014861D01*
X019398Y014624D02*
X020120Y014624D01*
X019900Y014742D02*
X019618Y014742D01*
X019730Y014861D02*
X019788Y014861D01*
X020398Y014624D02*
X021120Y014624D01*
X020900Y014742D02*
X020618Y014742D01*
X020730Y014861D02*
X020788Y014861D01*
X021398Y014624D02*
X022120Y014624D01*
X021900Y014742D02*
X021618Y014742D01*
X021730Y014861D02*
X021788Y014861D01*
X022398Y014624D02*
X023120Y014624D01*
X022900Y014742D02*
X022618Y014742D01*
X022730Y014861D02*
X022788Y014861D01*
X023398Y014624D02*
X029539Y014624D01*
X029539Y014742D02*
X023618Y014742D01*
X023730Y014861D02*
X029539Y014861D01*
X029539Y014979D02*
X023779Y014979D01*
X023809Y015098D02*
X029539Y015098D01*
X029539Y015216D02*
X023809Y015216D01*
X023782Y015335D02*
X029539Y015335D01*
X029539Y015453D02*
X023733Y015453D01*
X023626Y015572D02*
X029539Y015572D01*
X029539Y019247D02*
X008962Y019247D01*
X009254Y019365D02*
X029539Y019365D01*
X029539Y019484D02*
X009431Y019484D01*
X009434Y019486D02*
X009434Y019486D01*
X009512Y019602D02*
X029539Y019602D01*
X029539Y019721D02*
X028096Y019721D01*
X028070Y019695D02*
X028225Y019850D01*
X028309Y020052D01*
X028309Y020271D01*
X028225Y020473D01*
X028070Y020627D01*
X027868Y020711D01*
X027649Y020711D01*
X027447Y020627D01*
X027293Y020473D01*
X027259Y020391D01*
X027225Y020473D01*
X027070Y020627D01*
X026868Y020711D01*
X026649Y020711D01*
X026447Y020627D01*
X026293Y020473D01*
X026259Y020391D01*
X026225Y020473D01*
X026070Y020627D01*
X025868Y020711D01*
X025649Y020711D01*
X025447Y020627D01*
X025293Y020473D01*
X025259Y020391D01*
X025225Y020473D01*
X025070Y020627D01*
X024868Y020711D01*
X024649Y020711D01*
X024447Y020627D01*
X024293Y020473D01*
X024259Y020391D01*
X024225Y020473D01*
X024070Y020627D01*
X023868Y020711D01*
X023649Y020711D01*
X023447Y020627D01*
X023293Y020473D01*
X023259Y020391D01*
X023225Y020473D01*
X023070Y020627D01*
X022868Y020711D01*
X022649Y020711D01*
X022447Y020627D01*
X022293Y020473D01*
X022259Y020391D01*
X022225Y020473D01*
X022070Y020627D01*
X021868Y020711D01*
X021649Y020711D01*
X021447Y020627D01*
X021293Y020473D01*
X021259Y020391D01*
X021225Y020473D01*
X021070Y020627D01*
X020868Y020711D01*
X020649Y020711D01*
X020447Y020627D01*
X020293Y020473D01*
X020209Y020271D01*
X020209Y020052D01*
X020293Y019850D01*
X020447Y019695D01*
X020649Y019611D01*
X020868Y019611D01*
X021070Y019695D01*
X021225Y019850D01*
X021259Y019931D01*
X021293Y019850D01*
X021447Y019695D01*
X021649Y019611D01*
X021868Y019611D01*
X022070Y019695D01*
X022225Y019850D01*
X022259Y019931D01*
X022293Y019850D01*
X022447Y019695D01*
X022649Y019611D01*
X022868Y019611D01*
X023070Y019695D01*
X023225Y019850D01*
X023259Y019931D01*
X023293Y019850D01*
X023447Y019695D01*
X023649Y019611D01*
X023868Y019611D01*
X024070Y019695D01*
X024225Y019850D01*
X024259Y019931D01*
X024293Y019850D01*
X024447Y019695D01*
X024649Y019611D01*
X024868Y019611D01*
X025070Y019695D01*
X025225Y019850D01*
X025259Y019931D01*
X025293Y019850D01*
X025447Y019695D01*
X025649Y019611D01*
X025868Y019611D01*
X026070Y019695D01*
X026225Y019850D01*
X026259Y019931D01*
X026293Y019850D01*
X026447Y019695D01*
X026649Y019611D01*
X026868Y019611D01*
X027070Y019695D01*
X027225Y019850D01*
X027259Y019931D01*
X027293Y019850D01*
X027447Y019695D01*
X027649Y019611D01*
X027868Y019611D01*
X028070Y019695D01*
X028215Y019839D02*
X029539Y019839D01*
X029539Y019958D02*
X028270Y019958D01*
X028309Y020077D02*
X029532Y020077D01*
X029414Y020195D02*
X028309Y020195D01*
X028291Y020314D02*
X029295Y020314D01*
X029177Y020432D02*
X028242Y020432D01*
X028147Y020551D02*
X029058Y020551D01*
X028940Y020669D02*
X027970Y020669D01*
X027548Y020669D02*
X026970Y020669D01*
X027147Y020551D02*
X027371Y020551D01*
X027276Y020432D02*
X027242Y020432D01*
X026548Y020669D02*
X025970Y020669D01*
X026147Y020551D02*
X026371Y020551D01*
X026276Y020432D02*
X026242Y020432D01*
X025548Y020669D02*
X024970Y020669D01*
X025147Y020551D02*
X025371Y020551D01*
X025276Y020432D02*
X025242Y020432D01*
X024548Y020669D02*
X023970Y020669D01*
X024147Y020551D02*
X024371Y020551D01*
X024276Y020432D02*
X024242Y020432D01*
X023548Y020669D02*
X022970Y020669D01*
X023147Y020551D02*
X023371Y020551D01*
X023276Y020432D02*
X023242Y020432D01*
X022548Y020669D02*
X021970Y020669D01*
X022147Y020551D02*
X022371Y020551D01*
X022276Y020432D02*
X022242Y020432D01*
X022215Y019839D02*
X022303Y019839D01*
X022421Y019721D02*
X022096Y019721D01*
X021421Y019721D02*
X021096Y019721D01*
X021215Y019839D02*
X021303Y019839D01*
X021276Y020432D02*
X021242Y020432D01*
X021147Y020551D02*
X021371Y020551D01*
X021548Y020669D02*
X020970Y020669D01*
X020548Y020669D02*
X019470Y020669D01*
X019570Y020627D02*
X019368Y020711D01*
X019149Y020711D01*
X018947Y020627D01*
X018793Y020473D01*
X018759Y020391D01*
X018725Y020473D01*
X018570Y020627D01*
X018368Y020711D01*
X018149Y020711D01*
X017947Y020627D01*
X017793Y020473D01*
X017759Y020391D01*
X017725Y020473D01*
X017570Y020627D01*
X017368Y020711D01*
X017149Y020711D01*
X016947Y020627D01*
X016793Y020473D01*
X016759Y020391D01*
X016725Y020473D01*
X016570Y020627D01*
X016368Y020711D01*
X016149Y020711D01*
X015947Y020627D01*
X015793Y020473D01*
X015759Y020391D01*
X015725Y020473D01*
X015570Y020627D01*
X015368Y020711D01*
X015149Y020711D01*
X014947Y020627D01*
X014793Y020473D01*
X014759Y020391D01*
X014725Y020473D01*
X014570Y020627D01*
X014368Y020711D01*
X014149Y020711D01*
X013947Y020627D01*
X013793Y020473D01*
X013749Y020367D01*
X013712Y020439D01*
X013663Y020506D01*
X013604Y020565D01*
X013537Y020615D01*
X013462Y020652D01*
X013383Y020678D01*
X013301Y020691D01*
X013299Y020691D01*
X013299Y020201D01*
X013219Y020201D01*
X013219Y020691D01*
X013217Y020691D01*
X013135Y020678D01*
X013055Y020652D01*
X012981Y020615D01*
X012914Y020565D01*
X012855Y020506D01*
X012806Y020439D01*
X012769Y020367D01*
X012725Y020473D01*
X012570Y020627D01*
X012368Y020711D01*
X012149Y020711D01*
X011947Y020627D01*
X011793Y020473D01*
X011709Y020271D01*
X011709Y020052D01*
X011793Y019850D01*
X011947Y019695D01*
X012149Y019611D01*
X012368Y019611D01*
X012570Y019695D01*
X012725Y019850D01*
X012769Y019955D01*
X012806Y019883D01*
X012855Y019816D01*
X012914Y019757D01*
X012981Y019708D01*
X013055Y019670D01*
X013135Y019644D01*
X013217Y019631D01*
X013219Y019631D01*
X013219Y020121D01*
X013299Y020121D01*
X013299Y019631D01*
X013301Y019631D01*
X013383Y019644D01*
X013462Y019670D01*
X013537Y019708D01*
X013604Y019757D01*
X013663Y019816D01*
X013712Y019883D01*
X013749Y019955D01*
X013793Y019850D01*
X013947Y019695D01*
X014149Y019611D01*
X014368Y019611D01*
X014570Y019695D01*
X014725Y019850D01*
X014759Y019931D01*
X014793Y019850D01*
X014947Y019695D01*
X015149Y019611D01*
X015368Y019611D01*
X015570Y019695D01*
X015725Y019850D01*
X015759Y019931D01*
X015793Y019850D01*
X015947Y019695D01*
X016149Y019611D01*
X016368Y019611D01*
X016570Y019695D01*
X016725Y019850D01*
X016759Y019931D01*
X016793Y019850D01*
X016947Y019695D01*
X017149Y019611D01*
X017368Y019611D01*
X017570Y019695D01*
X017725Y019850D01*
X017759Y019931D01*
X017793Y019850D01*
X017947Y019695D01*
X018149Y019611D01*
X018368Y019611D01*
X018570Y019695D01*
X018725Y019850D01*
X018759Y019931D01*
X018793Y019850D01*
X018947Y019695D01*
X019149Y019611D01*
X019368Y019611D01*
X019570Y019695D01*
X019725Y019850D01*
X019809Y020052D01*
X019809Y020271D01*
X019725Y020473D01*
X019570Y020627D01*
X019647Y020551D02*
X020371Y020551D01*
X020276Y020432D02*
X019742Y020432D01*
X019791Y020314D02*
X020227Y020314D01*
X020209Y020195D02*
X019809Y020195D01*
X019809Y020077D02*
X020209Y020077D01*
X020248Y019958D02*
X019770Y019958D01*
X019715Y019839D02*
X020303Y019839D01*
X020421Y019721D02*
X019596Y019721D01*
X018921Y019721D02*
X018596Y019721D01*
X018715Y019839D02*
X018803Y019839D01*
X017921Y019721D02*
X017596Y019721D01*
X017715Y019839D02*
X017803Y019839D01*
X016921Y019721D02*
X016596Y019721D01*
X016715Y019839D02*
X016803Y019839D01*
X015921Y019721D02*
X015596Y019721D01*
X015715Y019839D02*
X015803Y019839D01*
X014921Y019721D02*
X014596Y019721D01*
X014715Y019839D02*
X014803Y019839D01*
X014776Y020432D02*
X014742Y020432D01*
X014647Y020551D02*
X014871Y020551D01*
X015048Y020669D02*
X014470Y020669D01*
X014048Y020669D02*
X013411Y020669D01*
X013299Y020669D02*
X013219Y020669D01*
X013107Y020669D02*
X012470Y020669D01*
X012647Y020551D02*
X012899Y020551D01*
X012802Y020432D02*
X012742Y020432D01*
X013219Y020432D02*
X013299Y020432D01*
X013299Y020314D02*
X013219Y020314D01*
X013219Y020551D02*
X013299Y020551D01*
X013619Y020551D02*
X013871Y020551D01*
X013776Y020432D02*
X013716Y020432D01*
X013299Y020077D02*
X013219Y020077D01*
X013219Y019958D02*
X013299Y019958D01*
X013299Y019839D02*
X013219Y019839D01*
X013219Y019721D02*
X013299Y019721D01*
X013554Y019721D02*
X013921Y019721D01*
X013803Y019839D02*
X013680Y019839D01*
X012963Y019721D02*
X012596Y019721D01*
X012715Y019839D02*
X012838Y019839D01*
X011921Y019721D02*
X009591Y019721D01*
X009650Y019839D02*
X011803Y019839D01*
X011748Y019958D02*
X009673Y019958D01*
X009697Y020077D02*
X011709Y020077D01*
X011709Y020195D02*
X009707Y020195D01*
X009684Y020314D02*
X011727Y020314D01*
X011776Y020432D02*
X009660Y020432D01*
X009625Y020551D02*
X011871Y020551D01*
X012048Y020669D02*
X009546Y020669D01*
X009467Y020788D02*
X028821Y020788D01*
X028703Y020906D02*
X009330Y020906D01*
X015470Y020669D02*
X016048Y020669D01*
X015871Y020551D02*
X015647Y020551D01*
X015742Y020432D02*
X015776Y020432D01*
X016470Y020669D02*
X017048Y020669D01*
X016871Y020551D02*
X016647Y020551D01*
X016742Y020432D02*
X016776Y020432D01*
X017470Y020669D02*
X018048Y020669D01*
X017871Y020551D02*
X017647Y020551D01*
X017742Y020432D02*
X017776Y020432D01*
X018470Y020669D02*
X019048Y020669D01*
X018871Y020551D02*
X018647Y020551D01*
X018742Y020432D02*
X018776Y020432D01*
X023096Y019721D02*
X023421Y019721D01*
X023303Y019839D02*
X023215Y019839D01*
X024096Y019721D02*
X024421Y019721D01*
X024303Y019839D02*
X024215Y019839D01*
X025096Y019721D02*
X025421Y019721D01*
X025303Y019839D02*
X025215Y019839D01*
X026096Y019721D02*
X026421Y019721D01*
X026303Y019839D02*
X026215Y019839D01*
X027096Y019721D02*
X027421Y019721D01*
X027303Y019839D02*
X027215Y019839D01*
X021495Y013675D02*
X021023Y013675D01*
X021141Y013557D02*
X021377Y013557D01*
X020495Y013675D02*
X020023Y013675D01*
X020141Y013557D02*
X020377Y013557D01*
X019495Y013675D02*
X019023Y013675D01*
X019141Y013557D02*
X019377Y013557D01*
X018495Y013675D02*
X017994Y013675D01*
X018113Y013557D02*
X018377Y013557D01*
X018258Y013438D02*
X018231Y013438D01*
X017799Y013438D02*
X017719Y013438D01*
X017719Y013320D02*
X017799Y013320D01*
X017719Y013201D02*
X017719Y013691D01*
X017539Y013691D01*
X017229Y013381D01*
X017229Y013201D01*
X017719Y013201D01*
X017719Y013121D01*
X017799Y013121D01*
X017799Y012691D01*
X017799Y012201D01*
X017719Y012201D01*
X017719Y012121D01*
X017719Y012201D02*
X017229Y012201D01*
X017229Y012381D01*
X017509Y012661D01*
X017229Y012942D01*
X017229Y013121D01*
X017719Y013121D01*
X017719Y012691D01*
X017719Y012201D01*
X017719Y012253D02*
X017799Y012253D01*
X017799Y012371D02*
X017719Y012371D01*
X017719Y012490D02*
X017799Y012490D01*
X017799Y012608D02*
X017719Y012608D01*
X017719Y012727D02*
X017799Y012727D01*
X017799Y012845D02*
X017719Y012845D01*
X017719Y012964D02*
X017799Y012964D01*
X017799Y013082D02*
X017719Y013082D01*
X017325Y012845D02*
X013756Y012845D01*
X013785Y012727D02*
X017444Y012727D01*
X017456Y012608D02*
X013787Y012608D01*
X013760Y012490D02*
X017338Y012490D01*
X017229Y012371D02*
X013703Y012371D01*
X013598Y012253D02*
X017229Y012253D01*
X017719Y012016D02*
X017799Y012016D01*
X017799Y011897D02*
X017719Y011897D01*
X017719Y011779D02*
X017799Y011779D01*
X017799Y011660D02*
X017719Y011660D01*
X018007Y011660D02*
X018482Y011660D01*
X018364Y011779D02*
X018126Y011779D01*
X018244Y011897D02*
X018245Y011897D01*
X019035Y011660D02*
X019482Y011660D01*
X019364Y011779D02*
X019154Y011779D01*
X020035Y011660D02*
X020482Y011660D01*
X020364Y011779D02*
X020154Y011779D01*
X021035Y011660D02*
X021482Y011660D01*
X021364Y011779D02*
X021154Y011779D01*
X017799Y013557D02*
X017719Y013557D01*
X017719Y013675D02*
X017799Y013675D01*
X017523Y013675D02*
X014523Y013675D01*
X013995Y013675D02*
X012598Y013675D01*
X012489Y013557D02*
X017405Y013557D01*
X017286Y013438D02*
X012489Y013438D01*
X012489Y013320D02*
X017229Y013320D01*
X017229Y013082D02*
X013581Y013082D01*
X013694Y012964D02*
X017229Y012964D01*
X013943Y014624D02*
X010574Y014624D01*
X010693Y014505D02*
X013825Y014505D01*
X013767Y013912D02*
X012835Y013912D01*
X012717Y013794D02*
X013849Y013794D01*
X012659Y014386D02*
X010761Y014386D01*
X010809Y014268D02*
X012540Y014268D01*
X012422Y014149D02*
X010809Y014149D01*
X010800Y014031D02*
X012303Y014031D01*
X012185Y013912D02*
X010751Y013912D01*
X010669Y013794D02*
X012066Y013794D01*
X012029Y013675D02*
X010523Y013675D01*
X009995Y013675D02*
X008598Y013675D01*
X008489Y013557D02*
X012029Y013557D01*
X012029Y013438D02*
X008489Y013438D01*
X008489Y013320D02*
X012029Y013320D01*
X012029Y013201D02*
X008489Y013201D01*
X008615Y013082D02*
X008937Y013082D01*
X008824Y012964D02*
X008729Y012964D01*
X009239Y012964D02*
X009279Y012964D01*
X009279Y013082D02*
X009239Y013082D01*
X009239Y012845D02*
X009279Y012845D01*
X009279Y012727D02*
X009239Y012727D01*
X009239Y012608D02*
X009279Y012608D01*
X009279Y012490D02*
X009239Y012490D01*
X009239Y012371D02*
X009279Y012371D01*
X009279Y012253D02*
X009239Y012253D01*
X009239Y012134D02*
X009279Y012134D01*
X009319Y012134D02*
X012094Y012134D01*
X011890Y012253D02*
X009598Y012253D01*
X009703Y012371D02*
X011784Y012371D01*
X011735Y012490D02*
X009760Y012490D01*
X009787Y012608D02*
X011709Y012608D01*
X011709Y012727D02*
X009785Y012727D01*
X009756Y012845D02*
X011740Y012845D01*
X011789Y012964D02*
X009694Y012964D01*
X009581Y013082D02*
X011902Y013082D01*
X012734Y012371D02*
X012814Y012371D01*
X012920Y012253D02*
X012628Y012253D01*
X012424Y012134D02*
X013199Y012134D01*
X009849Y013794D02*
X008717Y013794D01*
X008835Y013912D02*
X009767Y013912D01*
X008814Y012371D02*
X008734Y012371D01*
X008628Y012253D02*
X008920Y012253D01*
X009199Y012134D02*
X008424Y012134D01*
X016890Y001702D02*
X017529Y001702D01*
X017404Y001584D02*
X017114Y001584D01*
X017228Y001465D02*
X017290Y001465D01*
X017283Y000873D02*
X017235Y000873D01*
X017129Y000754D02*
X017388Y000754D01*
X017591Y000635D02*
X016927Y000635D01*
X018228Y001465D02*
X018325Y001465D01*
X018439Y001584D02*
X018114Y001584D01*
X019204Y000873D02*
X019314Y000873D01*
X019418Y000754D02*
X019100Y000754D01*
X018799Y000754D02*
X018719Y000754D01*
X019719Y000754D02*
X019799Y000754D01*
X019799Y000873D02*
X019719Y000873D01*
X019719Y000991D02*
X019799Y000991D01*
X019799Y001110D02*
X019719Y001110D01*
X019719Y001228D02*
X019799Y001228D01*
X020193Y001465D02*
X020290Y001465D01*
X020283Y000873D02*
X020204Y000873D01*
X020100Y000754D02*
X020388Y000754D01*
D14*
X017759Y001161D02*
X017759Y009661D01*
X017259Y010161D01*
X010759Y010161D01*
X010259Y010661D01*
X010259Y011161D01*
X012259Y012661D02*
X012259Y013661D01*
X012759Y014161D01*
X014259Y014161D01*
X010259Y014161D02*
X008759Y014161D01*
X008259Y013661D01*
X008259Y012661D01*
X015759Y003661D02*
X015759Y001161D01*
D15*
X020759Y001161D02*
X020759Y006661D01*
X022009Y007911D01*
X025259Y007911D01*
X025509Y007911D01*
X026009Y007411D01*
X026259Y007411D01*
D16*
X015759Y003661D03*
M02*
