G75*
G70*
%OFA0B0*%
%FSLAX24Y24*%
%IPPOS*%
%LPD*%
%AMOC8*
5,1,8,0,0,1.08239X$1,22.5*
%
%ADD10C,0.0080*%
%ADD11C,0.0130*%
%ADD12C,0.0740*%
%ADD13C,0.0000*%
%ADD14R,0.0740X0.0740*%
%ADD15OC8,0.0740*%
%ADD16C,0.0120*%
%ADD17C,0.0100*%
%ADD18C,0.0400*%
D10*
X006259Y001161D02*
X007259Y000161D01*
X028759Y000161D01*
X029759Y001161D01*
X029759Y020161D01*
X028759Y021161D01*
X007259Y021161D01*
X006259Y020161D01*
X006259Y001161D01*
D11*
X015124Y004561D02*
X015371Y004561D01*
X015309Y004376D02*
X015309Y004747D01*
X015124Y004561D01*
X015584Y004561D02*
X015831Y004561D01*
X016045Y004438D02*
X016106Y004376D01*
X016230Y004376D01*
X016291Y004438D01*
X016291Y004500D01*
X016230Y004561D01*
X016168Y004561D01*
X016230Y004561D02*
X016291Y004623D01*
X016291Y004685D01*
X016230Y004747D01*
X016106Y004747D01*
X016045Y004685D01*
X016505Y004561D02*
X016752Y004561D01*
X016965Y004623D02*
X017089Y004747D01*
X017089Y004376D01*
X017212Y004376D02*
X016965Y004376D01*
X017426Y004376D02*
X017673Y004376D01*
X017549Y004376D02*
X017549Y004747D01*
X017426Y004623D01*
D12*
X017759Y001161D03*
X018759Y001161D03*
X019759Y001161D03*
X020759Y001161D03*
X022759Y001161D03*
X023759Y001161D03*
X024759Y001161D03*
X025759Y001161D03*
X026759Y001161D03*
X027759Y001161D03*
X025259Y005911D03*
X026259Y006411D03*
X025259Y006911D03*
X026259Y007411D03*
X025259Y007911D03*
X026259Y008411D03*
X025259Y008911D03*
X023259Y015161D03*
X022259Y015161D03*
X021259Y015161D03*
X020259Y015161D03*
X019259Y015161D03*
X018259Y015161D03*
X017259Y015161D03*
X016259Y015161D03*
X014259Y014161D03*
X013259Y012661D03*
X012259Y012661D03*
X014259Y011161D03*
X010259Y011161D03*
X009259Y012661D03*
X008259Y012661D03*
X010259Y014161D03*
X016259Y018161D03*
X017259Y018161D03*
X018259Y018161D03*
X019259Y018161D03*
X020259Y018161D03*
X021259Y018161D03*
X022259Y018161D03*
X023259Y018161D03*
X023759Y020161D03*
X024759Y020161D03*
X025759Y020161D03*
X026759Y020161D03*
X027759Y020161D03*
X022759Y020161D03*
X021759Y020161D03*
X020759Y020161D03*
X019259Y020161D03*
X018259Y020161D03*
X017259Y020161D03*
X016259Y020161D03*
X015259Y020161D03*
X014259Y020161D03*
X013259Y020161D03*
X012259Y020161D03*
X015759Y001161D03*
X016759Y001161D03*
D13*
X028109Y003161D02*
X028111Y003211D01*
X028117Y003261D01*
X028127Y003311D01*
X028140Y003359D01*
X028157Y003407D01*
X028178Y003453D01*
X028202Y003497D01*
X028230Y003539D01*
X028261Y003579D01*
X028295Y003616D01*
X028332Y003651D01*
X028371Y003682D01*
X028412Y003711D01*
X028456Y003736D01*
X028502Y003758D01*
X028549Y003776D01*
X028597Y003790D01*
X028646Y003801D01*
X028696Y003808D01*
X028746Y003811D01*
X028797Y003810D01*
X028847Y003805D01*
X028897Y003796D01*
X028945Y003784D01*
X028993Y003767D01*
X029039Y003747D01*
X029084Y003724D01*
X029127Y003697D01*
X029167Y003667D01*
X029205Y003634D01*
X029240Y003598D01*
X029273Y003559D01*
X029302Y003518D01*
X029328Y003475D01*
X029351Y003430D01*
X029370Y003383D01*
X029385Y003335D01*
X029397Y003286D01*
X029405Y003236D01*
X029409Y003186D01*
X029409Y003136D01*
X029405Y003086D01*
X029397Y003036D01*
X029385Y002987D01*
X029370Y002939D01*
X029351Y002892D01*
X029328Y002847D01*
X029302Y002804D01*
X029273Y002763D01*
X029240Y002724D01*
X029205Y002688D01*
X029167Y002655D01*
X029127Y002625D01*
X029084Y002598D01*
X029039Y002575D01*
X028993Y002555D01*
X028945Y002538D01*
X028897Y002526D01*
X028847Y002517D01*
X028797Y002512D01*
X028746Y002511D01*
X028696Y002514D01*
X028646Y002521D01*
X028597Y002532D01*
X028549Y002546D01*
X028502Y002564D01*
X028456Y002586D01*
X028412Y002611D01*
X028371Y002640D01*
X028332Y002671D01*
X028295Y002706D01*
X028261Y002743D01*
X028230Y002783D01*
X028202Y002825D01*
X028178Y002869D01*
X028157Y002915D01*
X028140Y002963D01*
X028127Y003011D01*
X028117Y003061D01*
X028111Y003111D01*
X028109Y003161D01*
X028129Y004911D02*
X028131Y004961D01*
X028137Y005011D01*
X028147Y005060D01*
X028161Y005108D01*
X028178Y005155D01*
X028199Y005200D01*
X028224Y005244D01*
X028252Y005285D01*
X028284Y005324D01*
X028318Y005361D01*
X028355Y005395D01*
X028395Y005425D01*
X028437Y005452D01*
X028481Y005476D01*
X028527Y005497D01*
X028574Y005513D01*
X028622Y005526D01*
X028672Y005535D01*
X028721Y005540D01*
X028772Y005541D01*
X028822Y005538D01*
X028871Y005531D01*
X028920Y005520D01*
X028968Y005505D01*
X029014Y005487D01*
X029059Y005465D01*
X029102Y005439D01*
X029143Y005410D01*
X029182Y005378D01*
X029218Y005343D01*
X029250Y005305D01*
X029280Y005265D01*
X029307Y005222D01*
X029330Y005178D01*
X029349Y005132D01*
X029365Y005084D01*
X029377Y005035D01*
X029385Y004986D01*
X029389Y004936D01*
X029389Y004886D01*
X029385Y004836D01*
X029377Y004787D01*
X029365Y004738D01*
X029349Y004690D01*
X029330Y004644D01*
X029307Y004600D01*
X029280Y004557D01*
X029250Y004517D01*
X029218Y004479D01*
X029182Y004444D01*
X029143Y004412D01*
X029102Y004383D01*
X029059Y004357D01*
X029014Y004335D01*
X028968Y004317D01*
X028920Y004302D01*
X028871Y004291D01*
X028822Y004284D01*
X028772Y004281D01*
X028721Y004282D01*
X028672Y004287D01*
X028622Y004296D01*
X028574Y004309D01*
X028527Y004325D01*
X028481Y004346D01*
X028437Y004370D01*
X028395Y004397D01*
X028355Y004427D01*
X028318Y004461D01*
X028284Y004498D01*
X028252Y004537D01*
X028224Y004578D01*
X028199Y004622D01*
X028178Y004667D01*
X028161Y004714D01*
X028147Y004762D01*
X028137Y004811D01*
X028131Y004861D01*
X028129Y004911D01*
X028129Y009411D02*
X028131Y009461D01*
X028137Y009511D01*
X028147Y009560D01*
X028161Y009608D01*
X028178Y009655D01*
X028199Y009700D01*
X028224Y009744D01*
X028252Y009785D01*
X028284Y009824D01*
X028318Y009861D01*
X028355Y009895D01*
X028395Y009925D01*
X028437Y009952D01*
X028481Y009976D01*
X028527Y009997D01*
X028574Y010013D01*
X028622Y010026D01*
X028672Y010035D01*
X028721Y010040D01*
X028772Y010041D01*
X028822Y010038D01*
X028871Y010031D01*
X028920Y010020D01*
X028968Y010005D01*
X029014Y009987D01*
X029059Y009965D01*
X029102Y009939D01*
X029143Y009910D01*
X029182Y009878D01*
X029218Y009843D01*
X029250Y009805D01*
X029280Y009765D01*
X029307Y009722D01*
X029330Y009678D01*
X029349Y009632D01*
X029365Y009584D01*
X029377Y009535D01*
X029385Y009486D01*
X029389Y009436D01*
X029389Y009386D01*
X029385Y009336D01*
X029377Y009287D01*
X029365Y009238D01*
X029349Y009190D01*
X029330Y009144D01*
X029307Y009100D01*
X029280Y009057D01*
X029250Y009017D01*
X029218Y008979D01*
X029182Y008944D01*
X029143Y008912D01*
X029102Y008883D01*
X029059Y008857D01*
X029014Y008835D01*
X028968Y008817D01*
X028920Y008802D01*
X028871Y008791D01*
X028822Y008784D01*
X028772Y008781D01*
X028721Y008782D01*
X028672Y008787D01*
X028622Y008796D01*
X028574Y008809D01*
X028527Y008825D01*
X028481Y008846D01*
X028437Y008870D01*
X028395Y008897D01*
X028355Y008927D01*
X028318Y008961D01*
X028284Y008998D01*
X028252Y009037D01*
X028224Y009078D01*
X028199Y009122D01*
X028178Y009167D01*
X028161Y009214D01*
X028147Y009262D01*
X028137Y009311D01*
X028131Y009361D01*
X028129Y009411D01*
X008109Y020161D02*
X008111Y020211D01*
X008117Y020261D01*
X008127Y020311D01*
X008140Y020359D01*
X008157Y020407D01*
X008178Y020453D01*
X008202Y020497D01*
X008230Y020539D01*
X008261Y020579D01*
X008295Y020616D01*
X008332Y020651D01*
X008371Y020682D01*
X008412Y020711D01*
X008456Y020736D01*
X008502Y020758D01*
X008549Y020776D01*
X008597Y020790D01*
X008646Y020801D01*
X008696Y020808D01*
X008746Y020811D01*
X008797Y020810D01*
X008847Y020805D01*
X008897Y020796D01*
X008945Y020784D01*
X008993Y020767D01*
X009039Y020747D01*
X009084Y020724D01*
X009127Y020697D01*
X009167Y020667D01*
X009205Y020634D01*
X009240Y020598D01*
X009273Y020559D01*
X009302Y020518D01*
X009328Y020475D01*
X009351Y020430D01*
X009370Y020383D01*
X009385Y020335D01*
X009397Y020286D01*
X009405Y020236D01*
X009409Y020186D01*
X009409Y020136D01*
X009405Y020086D01*
X009397Y020036D01*
X009385Y019987D01*
X009370Y019939D01*
X009351Y019892D01*
X009328Y019847D01*
X009302Y019804D01*
X009273Y019763D01*
X009240Y019724D01*
X009205Y019688D01*
X009167Y019655D01*
X009127Y019625D01*
X009084Y019598D01*
X009039Y019575D01*
X008993Y019555D01*
X008945Y019538D01*
X008897Y019526D01*
X008847Y019517D01*
X008797Y019512D01*
X008746Y019511D01*
X008696Y019514D01*
X008646Y019521D01*
X008597Y019532D01*
X008549Y019546D01*
X008502Y019564D01*
X008456Y019586D01*
X008412Y019611D01*
X008371Y019640D01*
X008332Y019671D01*
X008295Y019706D01*
X008261Y019743D01*
X008230Y019783D01*
X008202Y019825D01*
X008178Y019869D01*
X008157Y019915D01*
X008140Y019963D01*
X008127Y020011D01*
X008117Y020061D01*
X008111Y020111D01*
X008109Y020161D01*
D14*
X026259Y005411D03*
D15*
X021759Y012161D03*
X020759Y012161D03*
X019759Y012161D03*
X018759Y012161D03*
X017759Y012161D03*
X017759Y013161D03*
X018759Y013161D03*
X019759Y013161D03*
X020759Y013161D03*
X021759Y013161D03*
D16*
X022141Y013557D02*
X024529Y013557D01*
X024529Y013675D02*
X022098Y013675D01*
X022060Y013638D02*
X023068Y014645D01*
X023149Y014611D01*
X023368Y014611D01*
X023570Y014695D01*
X023725Y014850D01*
X023809Y015052D01*
X023809Y015271D01*
X023725Y015473D01*
X023570Y015627D01*
X023368Y015711D01*
X023149Y015711D01*
X022947Y015627D01*
X022793Y015473D01*
X022759Y015391D01*
X022725Y015473D01*
X022570Y015627D01*
X022368Y015711D01*
X022149Y015711D01*
X021947Y015627D01*
X021793Y015473D01*
X021759Y015391D01*
X021725Y015473D01*
X021570Y015627D01*
X021368Y015711D01*
X021149Y015711D01*
X020947Y015627D01*
X020793Y015473D01*
X020759Y015391D01*
X020725Y015473D01*
X020570Y015627D01*
X020368Y015711D01*
X020149Y015711D01*
X019947Y015627D01*
X019793Y015473D01*
X019759Y015391D01*
X019725Y015473D01*
X019570Y015627D01*
X019368Y015711D01*
X019149Y015711D01*
X018947Y015627D01*
X018793Y015473D01*
X018759Y015391D01*
X018725Y015473D01*
X018570Y015627D01*
X018368Y015711D01*
X018149Y015711D01*
X017947Y015627D01*
X017793Y015473D01*
X017759Y015391D01*
X017725Y015473D01*
X017570Y015627D01*
X017368Y015711D01*
X017149Y015711D01*
X016947Y015627D01*
X016793Y015473D01*
X016759Y015391D01*
X016725Y015473D01*
X016570Y015627D01*
X016368Y015711D01*
X016149Y015711D01*
X015947Y015627D01*
X015793Y015473D01*
X015709Y015271D01*
X015709Y015052D01*
X015793Y014850D01*
X015947Y014695D01*
X016149Y014611D01*
X016368Y014611D01*
X016450Y014645D01*
X017164Y013931D01*
X017354Y013931D01*
X017664Y013931D01*
X017904Y013691D01*
X017799Y013691D01*
X017799Y013201D01*
X017719Y013201D01*
X012393Y013201D01*
X012368Y013211D02*
X012149Y013211D01*
X011947Y013127D01*
X011793Y012973D01*
X011709Y012771D01*
X011709Y012552D01*
X011793Y012350D01*
X011947Y012195D01*
X012149Y012111D01*
X012368Y012111D01*
X012570Y012195D01*
X012725Y012350D01*
X012769Y012455D01*
X012806Y012383D01*
X012855Y012316D01*
X012914Y012257D01*
X012981Y012208D01*
X013055Y012170D01*
X013135Y012144D01*
X013217Y012131D01*
X013239Y012131D01*
X013239Y012641D01*
X013279Y012641D01*
X013279Y012131D01*
X013301Y012131D01*
X013383Y012144D01*
X013462Y012170D01*
X013537Y012208D01*
X013604Y012257D01*
X013663Y012316D01*
X013712Y012383D01*
X013750Y012458D01*
X013776Y012537D01*
X013789Y012620D01*
X013789Y012641D01*
X013279Y012641D01*
X013279Y012681D01*
X013789Y012681D01*
X013789Y012703D01*
X013776Y012785D01*
X013750Y012865D01*
X013712Y012939D01*
X013663Y013006D01*
X013604Y013065D01*
X013537Y013115D01*
X013462Y013152D01*
X013383Y013178D01*
X013301Y013191D01*
X013279Y013191D01*
X013279Y012681D01*
X013239Y012681D01*
X013239Y013191D01*
X013217Y013191D01*
X013135Y013178D01*
X013055Y013152D01*
X012981Y013115D01*
X012914Y013065D01*
X012855Y013006D01*
X012806Y012939D01*
X012769Y012867D01*
X012725Y012973D01*
X012570Y013127D01*
X012368Y013211D01*
X012125Y013201D02*
X008393Y013201D01*
X008368Y013211D02*
X008149Y013211D01*
X007947Y013127D01*
X007793Y012973D01*
X007709Y012771D01*
X007709Y012552D01*
X007793Y012350D01*
X007947Y012195D01*
X008149Y012111D01*
X008368Y012111D01*
X008570Y012195D01*
X008725Y012350D01*
X008769Y012455D01*
X008806Y012383D01*
X008855Y012316D01*
X008914Y012257D01*
X008981Y012208D01*
X009055Y012170D01*
X009135Y012144D01*
X009217Y012131D01*
X009239Y012131D01*
X009239Y012641D01*
X009279Y012641D01*
X009279Y012131D01*
X009301Y012131D01*
X009383Y012144D01*
X009462Y012170D01*
X009537Y012208D01*
X009604Y012257D01*
X009663Y012316D01*
X009712Y012383D01*
X009750Y012458D01*
X009776Y012537D01*
X009789Y012620D01*
X009789Y012641D01*
X009279Y012641D01*
X009279Y012681D01*
X009789Y012681D01*
X009789Y012703D01*
X009776Y012785D01*
X009750Y012865D01*
X009712Y012939D01*
X009663Y013006D01*
X009604Y013065D01*
X009537Y013115D01*
X009462Y013152D01*
X009383Y013178D01*
X009301Y013191D01*
X009279Y013191D01*
X009279Y012681D01*
X009239Y012681D01*
X009239Y013191D01*
X009217Y013191D01*
X009135Y013178D01*
X009055Y013152D01*
X008981Y013115D01*
X008914Y013065D01*
X008855Y013006D01*
X008806Y012939D01*
X008769Y012867D01*
X008725Y012973D01*
X008570Y013127D01*
X008368Y013211D01*
X008125Y013201D02*
X006479Y013201D01*
X006479Y013082D02*
X007902Y013082D01*
X007789Y012964D02*
X006479Y012964D01*
X006479Y012845D02*
X007740Y012845D01*
X007709Y012727D02*
X006479Y012727D01*
X006479Y012608D02*
X007709Y012608D01*
X007735Y012490D02*
X006479Y012490D01*
X006479Y012371D02*
X007784Y012371D01*
X007890Y012253D02*
X006479Y012253D01*
X006479Y012134D02*
X008094Y012134D01*
X008424Y012134D02*
X009199Y012134D01*
X009239Y012134D02*
X009279Y012134D01*
X009319Y012134D02*
X012094Y012134D01*
X011890Y012253D02*
X009598Y012253D01*
X009703Y012371D02*
X011784Y012371D01*
X011735Y012490D02*
X009760Y012490D01*
X009787Y012608D02*
X011709Y012608D01*
X011709Y012727D02*
X009785Y012727D01*
X009756Y012845D02*
X011740Y012845D01*
X011789Y012964D02*
X009694Y012964D01*
X009581Y013082D02*
X011902Y013082D01*
X012615Y013082D02*
X012937Y013082D01*
X012824Y012964D02*
X012729Y012964D01*
X013239Y012964D02*
X013279Y012964D01*
X013279Y013082D02*
X013239Y013082D01*
X013239Y012845D02*
X013279Y012845D01*
X013279Y012727D02*
X013239Y012727D01*
X013239Y012608D02*
X013279Y012608D01*
X013279Y012490D02*
X013239Y012490D01*
X013239Y012371D02*
X013279Y012371D01*
X013279Y012253D02*
X013239Y012253D01*
X013239Y012134D02*
X013279Y012134D01*
X013319Y012134D02*
X017719Y012134D01*
X017719Y012121D02*
X017229Y012121D01*
X017229Y011942D01*
X017539Y011631D01*
X017719Y011631D01*
X017719Y012121D01*
X017799Y012121D01*
X017799Y011631D01*
X017978Y011631D01*
X018245Y011898D01*
X018531Y011611D01*
X018987Y011611D01*
X019259Y011883D01*
X019531Y011611D01*
X019987Y011611D01*
X020259Y011883D01*
X020531Y011611D01*
X020987Y011611D01*
X021259Y011883D01*
X021531Y011611D01*
X021987Y011611D01*
X022309Y011933D01*
X022309Y012389D01*
X022037Y012661D01*
X022309Y012933D01*
X022309Y013389D01*
X022060Y013638D01*
X022217Y013794D02*
X024529Y013794D01*
X024529Y013912D02*
X022335Y013912D01*
X022454Y014031D02*
X024529Y014031D01*
X024529Y014149D02*
X022572Y014149D01*
X022691Y014268D02*
X024529Y014268D01*
X024529Y014386D02*
X022809Y014386D01*
X022928Y014505D02*
X024529Y014505D01*
X024529Y014624D02*
X023398Y014624D01*
X023618Y014742D02*
X024529Y014742D01*
X024529Y014861D02*
X023730Y014861D01*
X023779Y014979D02*
X024529Y014979D01*
X024529Y015098D02*
X023809Y015098D01*
X023809Y015216D02*
X024529Y015216D01*
X024529Y015335D02*
X023782Y015335D01*
X023733Y015453D02*
X024529Y015453D01*
X024529Y015572D02*
X023626Y015572D01*
X023419Y015690D02*
X024529Y015690D01*
X024529Y015809D02*
X006479Y015809D01*
X006479Y015928D02*
X024529Y015928D01*
X024529Y016046D02*
X006479Y016046D01*
X006479Y016165D02*
X024529Y016165D01*
X024529Y016283D02*
X006479Y016283D01*
X006479Y016402D02*
X024529Y016402D01*
X024529Y016520D02*
X006479Y016520D01*
X006479Y016639D02*
X024529Y016639D01*
X024529Y016757D02*
X006479Y016757D01*
X006479Y016876D02*
X024529Y016876D01*
X024529Y016994D02*
X006479Y016994D01*
X006479Y017113D02*
X024529Y017113D01*
X024529Y017231D02*
X006479Y017231D01*
X006479Y017350D02*
X024529Y017350D01*
X024529Y017469D02*
X006479Y017469D01*
X006479Y017587D02*
X024529Y017587D01*
X024529Y017706D02*
X023581Y017706D01*
X023570Y017695D02*
X023725Y017850D01*
X023809Y018052D01*
X023809Y018271D01*
X023725Y018473D01*
X023570Y018627D01*
X023489Y018661D01*
X023489Y019566D01*
X023568Y019645D01*
X023649Y019611D01*
X023868Y019611D01*
X024070Y019695D01*
X024225Y019850D01*
X024259Y019931D01*
X024293Y019850D01*
X024447Y019695D01*
X024529Y019661D01*
X024529Y011756D01*
X023529Y010756D01*
X023529Y010566D01*
X023529Y006066D01*
X023664Y005931D01*
X025164Y004431D01*
X025354Y004431D01*
X025854Y004431D01*
X025989Y004566D01*
X026284Y004861D01*
X026703Y004861D01*
X026809Y004967D01*
X026809Y005856D01*
X026703Y005961D01*
X026587Y005961D01*
X026725Y006100D01*
X026759Y006181D01*
X026914Y006181D01*
X027029Y006066D01*
X027029Y004256D01*
X026664Y003891D01*
X016066Y003891D01*
X015974Y003983D01*
X015834Y004041D01*
X015683Y004041D01*
X015544Y003983D01*
X015437Y003876D01*
X015379Y003737D01*
X015379Y003586D01*
X015437Y003446D01*
X015492Y003391D01*
X014854Y003391D01*
X014489Y003756D01*
X014489Y010661D01*
X014570Y010695D01*
X014725Y010850D01*
X014809Y011052D01*
X014809Y011271D01*
X014725Y011473D01*
X014570Y011627D01*
X014368Y011711D01*
X014149Y011711D01*
X013947Y011627D01*
X013793Y011473D01*
X013709Y011271D01*
X013709Y011052D01*
X013793Y010850D01*
X013947Y010695D01*
X014029Y010661D01*
X014029Y003566D01*
X014164Y003431D01*
X014664Y002931D01*
X014854Y002931D01*
X026164Y002931D01*
X026529Y002566D01*
X026529Y001661D01*
X026447Y001627D01*
X026293Y001473D01*
X026259Y001391D01*
X026225Y001473D01*
X026070Y001627D01*
X025868Y001711D01*
X025649Y001711D01*
X025447Y001627D01*
X025293Y001473D01*
X025259Y001391D01*
X025225Y001473D01*
X025070Y001627D01*
X024868Y001711D01*
X024649Y001711D01*
X024447Y001627D01*
X024293Y001473D01*
X024259Y001391D01*
X024225Y001473D01*
X024070Y001627D01*
X023868Y001711D01*
X023649Y001711D01*
X023447Y001627D01*
X023293Y001473D01*
X023259Y001391D01*
X023225Y001473D01*
X023070Y001627D01*
X022868Y001711D01*
X022649Y001711D01*
X022447Y001627D01*
X022293Y001473D01*
X022209Y001271D01*
X022209Y001052D01*
X022293Y000850D01*
X022447Y000695D01*
X022649Y000611D01*
X022868Y000611D01*
X023070Y000695D01*
X023225Y000850D01*
X023259Y000931D01*
X023293Y000850D01*
X023447Y000695D01*
X023649Y000611D01*
X023868Y000611D01*
X024070Y000695D01*
X024225Y000850D01*
X024259Y000931D01*
X024293Y000850D01*
X024447Y000695D01*
X024649Y000611D01*
X024868Y000611D01*
X025070Y000695D01*
X025225Y000850D01*
X025259Y000931D01*
X025293Y000850D01*
X025447Y000695D01*
X025649Y000611D01*
X025868Y000611D01*
X026070Y000695D01*
X026225Y000850D01*
X026259Y000931D01*
X026293Y000850D01*
X026447Y000695D01*
X026649Y000611D01*
X026868Y000611D01*
X027070Y000695D01*
X027225Y000850D01*
X027259Y000931D01*
X027293Y000850D01*
X027447Y000695D01*
X027649Y000611D01*
X027868Y000611D01*
X028070Y000695D01*
X028225Y000850D01*
X028309Y001052D01*
X028309Y001271D01*
X028225Y001473D01*
X028070Y001627D01*
X027868Y001711D01*
X027649Y001711D01*
X027447Y001627D01*
X027293Y001473D01*
X027259Y001391D01*
X027225Y001473D01*
X027070Y001627D01*
X026989Y001661D01*
X026989Y002756D01*
X026854Y002891D01*
X026489Y003256D01*
X026354Y003391D01*
X016026Y003391D01*
X016066Y003431D01*
X026854Y003431D01*
X026989Y003566D01*
X027489Y004066D01*
X027489Y004256D01*
X027489Y006256D01*
X027354Y006391D01*
X027104Y006641D01*
X026914Y006641D01*
X026759Y006641D01*
X026725Y006723D01*
X026570Y006877D01*
X026489Y006911D01*
X026570Y006945D01*
X026725Y007100D01*
X026809Y007302D01*
X026809Y007521D01*
X026725Y007723D01*
X026570Y007877D01*
X026465Y007921D01*
X026537Y007958D01*
X026604Y008007D01*
X026663Y008066D01*
X026712Y008133D01*
X026750Y008208D01*
X026776Y008287D01*
X026789Y008370D01*
X026789Y008373D01*
X026298Y008373D01*
X026298Y008450D01*
X026789Y008450D01*
X026789Y008453D01*
X026776Y008535D01*
X026750Y008615D01*
X026712Y008689D01*
X026663Y008756D01*
X026604Y008815D01*
X026537Y008865D01*
X026462Y008902D01*
X026383Y008928D01*
X026301Y008941D01*
X026297Y008941D01*
X026297Y008450D01*
X026220Y008450D01*
X026220Y008373D01*
X025729Y008373D01*
X025729Y008370D01*
X025742Y008287D01*
X025768Y008208D01*
X025806Y008133D01*
X025855Y008066D01*
X025914Y008007D01*
X025981Y007958D01*
X026053Y007921D01*
X025947Y007877D01*
X025793Y007723D01*
X025709Y007521D01*
X025709Y007302D01*
X025793Y007100D01*
X025947Y006945D01*
X026029Y006911D01*
X025947Y006877D01*
X025793Y006723D01*
X025709Y006521D01*
X025709Y006302D01*
X025793Y006100D01*
X025931Y005961D01*
X025814Y005961D01*
X025809Y005956D01*
X025809Y006021D01*
X025725Y006223D01*
X025570Y006377D01*
X025489Y006411D01*
X025570Y006445D01*
X025725Y006600D01*
X025809Y006802D01*
X025809Y007021D01*
X025725Y007223D01*
X025570Y007377D01*
X025489Y007411D01*
X025570Y007445D01*
X025725Y007600D01*
X025809Y007802D01*
X025809Y008021D01*
X025725Y008223D01*
X025570Y008377D01*
X025465Y008421D01*
X025537Y008458D01*
X025604Y008507D01*
X025663Y008566D01*
X025712Y008633D01*
X025750Y008708D01*
X025776Y008787D01*
X025789Y008870D01*
X025789Y008873D01*
X025298Y008873D01*
X025298Y008950D01*
X025789Y008950D01*
X025789Y008953D01*
X025776Y009035D01*
X025750Y009115D01*
X025712Y009189D01*
X025663Y009256D01*
X025604Y009315D01*
X025537Y009365D01*
X025462Y009402D01*
X025383Y009428D01*
X025301Y009441D01*
X025297Y009441D01*
X025297Y008950D01*
X025220Y008950D01*
X025220Y008873D01*
X024729Y008873D01*
X024729Y008870D01*
X024742Y008787D01*
X024768Y008708D01*
X024806Y008633D01*
X024855Y008566D01*
X024914Y008507D01*
X024981Y008458D01*
X025053Y008421D01*
X024947Y008377D01*
X024793Y008223D01*
X024709Y008021D01*
X024709Y007802D01*
X024793Y007600D01*
X024947Y007445D01*
X025029Y007411D01*
X024947Y007377D01*
X024793Y007223D01*
X024709Y007021D01*
X024709Y006802D01*
X024793Y006600D01*
X024947Y006445D01*
X025029Y006411D01*
X024947Y006377D01*
X024908Y006338D01*
X024489Y006756D01*
X024489Y010066D01*
X025989Y011566D01*
X025989Y011756D01*
X025989Y019661D01*
X026070Y019695D01*
X026225Y019850D01*
X026259Y019931D01*
X026293Y019850D01*
X026447Y019695D01*
X026649Y019611D01*
X026868Y019611D01*
X027070Y019695D01*
X027225Y019850D01*
X027259Y019931D01*
X027293Y019850D01*
X027447Y019695D01*
X027649Y019611D01*
X027868Y019611D01*
X028070Y019695D01*
X028225Y019850D01*
X028309Y020052D01*
X028309Y020271D01*
X028225Y020473D01*
X028070Y020627D01*
X027868Y020711D01*
X027649Y020711D01*
X027447Y020627D01*
X027293Y020473D01*
X027259Y020391D01*
X027225Y020473D01*
X027070Y020627D01*
X026868Y020711D01*
X026649Y020711D01*
X026447Y020627D01*
X026293Y020473D01*
X026259Y020391D01*
X026225Y020473D01*
X026070Y020627D01*
X025868Y020711D01*
X025649Y020711D01*
X025447Y020627D01*
X025293Y020473D01*
X025259Y020391D01*
X025225Y020473D01*
X025070Y020627D01*
X024868Y020711D01*
X024649Y020711D01*
X024447Y020627D01*
X024293Y020473D01*
X024259Y020391D01*
X024225Y020473D01*
X024070Y020627D01*
X023868Y020711D01*
X023649Y020711D01*
X023447Y020627D01*
X023293Y020473D01*
X023259Y020391D01*
X023225Y020473D01*
X023070Y020627D01*
X022868Y020711D01*
X022649Y020711D01*
X022447Y020627D01*
X022293Y020473D01*
X022259Y020391D01*
X022225Y020473D01*
X022070Y020627D01*
X021868Y020711D01*
X021649Y020711D01*
X021447Y020627D01*
X021293Y020473D01*
X021259Y020391D01*
X021225Y020473D01*
X021070Y020627D01*
X020868Y020711D01*
X020649Y020711D01*
X020447Y020627D01*
X020293Y020473D01*
X020209Y020271D01*
X020209Y020052D01*
X020243Y019970D01*
X020029Y019756D01*
X020029Y019566D01*
X020029Y018661D01*
X019947Y018627D01*
X019793Y018473D01*
X019759Y018391D01*
X019725Y018473D01*
X019570Y018627D01*
X019489Y018661D01*
X019489Y019661D01*
X019570Y019695D01*
X019725Y019850D01*
X019809Y020052D01*
X019809Y020271D01*
X019725Y020473D01*
X019570Y020627D01*
X019368Y020711D01*
X019149Y020711D01*
X018947Y020627D01*
X018793Y020473D01*
X018759Y020391D01*
X018725Y020473D01*
X018570Y020627D01*
X018368Y020711D01*
X018149Y020711D01*
X017947Y020627D01*
X017793Y020473D01*
X017759Y020391D01*
X017725Y020473D01*
X017570Y020627D01*
X017368Y020711D01*
X017149Y020711D01*
X016947Y020627D01*
X016793Y020473D01*
X016759Y020391D01*
X016725Y020473D01*
X016570Y020627D01*
X016368Y020711D01*
X016149Y020711D01*
X015947Y020627D01*
X015793Y020473D01*
X015759Y020391D01*
X015725Y020473D01*
X015570Y020627D01*
X015368Y020711D01*
X015149Y020711D01*
X014947Y020627D01*
X014793Y020473D01*
X014759Y020391D01*
X014725Y020473D01*
X014570Y020627D01*
X014368Y020711D01*
X014149Y020711D01*
X013947Y020627D01*
X013793Y020473D01*
X013749Y020367D01*
X013712Y020439D01*
X013663Y020506D01*
X013604Y020565D01*
X013537Y020615D01*
X013462Y020652D01*
X013383Y020678D01*
X013301Y020691D01*
X013299Y020691D01*
X013299Y020201D01*
X013219Y020201D01*
X013219Y020691D01*
X013217Y020691D01*
X013135Y020678D01*
X013055Y020652D01*
X012981Y020615D01*
X012914Y020565D01*
X012855Y020506D01*
X012806Y020439D01*
X012769Y020367D01*
X012725Y020473D01*
X012570Y020627D01*
X012368Y020711D01*
X012149Y020711D01*
X011947Y020627D01*
X011793Y020473D01*
X011709Y020271D01*
X011709Y020052D01*
X011793Y019850D01*
X011947Y019695D01*
X012149Y019611D01*
X012368Y019611D01*
X012570Y019695D01*
X012725Y019850D01*
X012769Y019955D01*
X012806Y019883D01*
X012855Y019816D01*
X012914Y019757D01*
X012981Y019708D01*
X013055Y019670D01*
X013135Y019644D01*
X013217Y019631D01*
X013219Y019631D01*
X013219Y020121D01*
X013299Y020121D01*
X013299Y019631D01*
X013301Y019631D01*
X013383Y019644D01*
X013462Y019670D01*
X013537Y019708D01*
X013604Y019757D01*
X013663Y019816D01*
X013712Y019883D01*
X013749Y019955D01*
X013793Y019850D01*
X013947Y019695D01*
X014149Y019611D01*
X014368Y019611D01*
X014570Y019695D01*
X014725Y019850D01*
X014759Y019931D01*
X014793Y019850D01*
X014947Y019695D01*
X015149Y019611D01*
X015368Y019611D01*
X015570Y019695D01*
X015725Y019850D01*
X015759Y019931D01*
X015793Y019850D01*
X015947Y019695D01*
X016029Y019661D01*
X016029Y018661D01*
X015947Y018627D01*
X015793Y018473D01*
X015709Y018271D01*
X015709Y018052D01*
X015793Y017850D01*
X015947Y017695D01*
X016149Y017611D01*
X016368Y017611D01*
X016570Y017695D01*
X016725Y017850D01*
X016759Y017931D01*
X016793Y017850D01*
X016947Y017695D01*
X017149Y017611D01*
X017368Y017611D01*
X017570Y017695D01*
X017725Y017850D01*
X017759Y017931D01*
X017793Y017850D01*
X017947Y017695D01*
X018149Y017611D01*
X018368Y017611D01*
X018570Y017695D01*
X018725Y017850D01*
X018759Y017931D01*
X018793Y017850D01*
X018947Y017695D01*
X019149Y017611D01*
X019368Y017611D01*
X019570Y017695D01*
X019725Y017850D01*
X019759Y017931D01*
X019793Y017850D01*
X019947Y017695D01*
X020149Y017611D01*
X020368Y017611D01*
X020570Y017695D01*
X020725Y017850D01*
X020759Y017931D01*
X020793Y017850D01*
X020947Y017695D01*
X021149Y017611D01*
X021368Y017611D01*
X021570Y017695D01*
X021725Y017850D01*
X021759Y017931D01*
X021793Y017850D01*
X021947Y017695D01*
X022149Y017611D01*
X022368Y017611D01*
X022570Y017695D01*
X022725Y017850D01*
X022759Y017931D01*
X022793Y017850D01*
X022947Y017695D01*
X023149Y017611D01*
X023368Y017611D01*
X023570Y017695D01*
X023700Y017824D02*
X024529Y017824D01*
X024529Y017943D02*
X023764Y017943D01*
X023809Y018061D02*
X024529Y018061D01*
X024529Y018180D02*
X023809Y018180D01*
X023797Y018298D02*
X024529Y018298D01*
X024529Y018417D02*
X023748Y018417D01*
X023662Y018535D02*
X024529Y018535D01*
X024529Y018654D02*
X023506Y018654D01*
X023489Y018773D02*
X024529Y018773D01*
X024529Y018891D02*
X023489Y018891D01*
X023489Y019010D02*
X024529Y019010D01*
X024529Y019128D02*
X023489Y019128D01*
X023489Y019247D02*
X024529Y019247D01*
X024529Y019365D02*
X023489Y019365D01*
X023489Y019484D02*
X024529Y019484D01*
X024529Y019602D02*
X023525Y019602D01*
X024096Y019721D02*
X024421Y019721D01*
X024303Y019839D02*
X024215Y019839D01*
X024242Y020432D02*
X024276Y020432D01*
X024371Y020551D02*
X024147Y020551D01*
X023970Y020669D02*
X024548Y020669D01*
X024970Y020669D02*
X025548Y020669D01*
X025371Y020551D02*
X025147Y020551D01*
X025242Y020432D02*
X025276Y020432D01*
X025970Y020669D02*
X026548Y020669D01*
X026371Y020551D02*
X026147Y020551D01*
X026242Y020432D02*
X026276Y020432D01*
X026970Y020669D02*
X027548Y020669D01*
X027371Y020551D02*
X027147Y020551D01*
X027242Y020432D02*
X027276Y020432D01*
X027970Y020669D02*
X028940Y020669D01*
X029058Y020551D02*
X028147Y020551D01*
X028242Y020432D02*
X029177Y020432D01*
X029295Y020314D02*
X028291Y020314D01*
X028309Y020195D02*
X029414Y020195D01*
X029532Y020077D02*
X028309Y020077D01*
X028270Y019958D02*
X029539Y019958D01*
X029539Y020070D02*
X029539Y009644D01*
X029445Y009870D01*
X029218Y010098D01*
X028920Y010221D01*
X028598Y010221D01*
X028300Y010098D01*
X028072Y009870D01*
X027949Y009572D01*
X027949Y009250D01*
X028072Y008952D01*
X028300Y008725D01*
X028598Y008601D01*
X028920Y008601D01*
X029218Y008725D01*
X029445Y008952D01*
X029539Y009178D01*
X029539Y005144D01*
X029445Y005370D01*
X029218Y005598D01*
X028920Y005721D01*
X028598Y005721D01*
X028300Y005598D01*
X028072Y005370D01*
X027949Y005072D01*
X027949Y004750D01*
X028072Y004452D01*
X028300Y004225D01*
X028598Y004101D01*
X028684Y004101D01*
X028393Y004044D01*
X028084Y003837D01*
X028084Y003836D01*
X028083Y003836D02*
X027259Y003836D01*
X027140Y003718D02*
X028004Y003718D01*
X028084Y003836D02*
X027877Y003527D01*
X027877Y003527D01*
X027804Y003161D01*
X027877Y002796D01*
X028084Y002486D01*
X028393Y002279D01*
X028759Y002206D01*
X029124Y002279D01*
X029124Y002279D01*
X029434Y002486D01*
X029434Y002486D01*
X029539Y002643D01*
X029539Y001252D01*
X028668Y000381D01*
X007350Y000381D01*
X006479Y001252D01*
X006479Y020070D01*
X007350Y020941D01*
X008240Y020941D01*
X008084Y020837D01*
X008084Y020837D01*
X008084Y020836D01*
X007877Y020527D01*
X007877Y020527D01*
X007804Y020161D01*
X007877Y019796D01*
X007877Y019796D01*
X008084Y019486D01*
X008393Y019279D01*
X008393Y019279D01*
X008759Y019206D01*
X009124Y019279D01*
X009124Y019279D01*
X009434Y019486D01*
X009434Y019486D01*
X009641Y019796D01*
X009714Y020161D01*
X009641Y020527D01*
X009434Y020836D01*
X009434Y020837D01*
X009277Y020941D01*
X028668Y020941D01*
X029539Y020070D01*
X029539Y019839D02*
X028215Y019839D01*
X028096Y019721D02*
X029539Y019721D01*
X029539Y019602D02*
X025989Y019602D01*
X025989Y019484D02*
X029539Y019484D01*
X029539Y019365D02*
X025989Y019365D01*
X025989Y019247D02*
X029539Y019247D01*
X029539Y019128D02*
X025989Y019128D01*
X025989Y019010D02*
X029539Y019010D01*
X029539Y018891D02*
X025989Y018891D01*
X025989Y018773D02*
X029539Y018773D01*
X029539Y018654D02*
X025989Y018654D01*
X025989Y018535D02*
X029539Y018535D01*
X029539Y018417D02*
X025989Y018417D01*
X025989Y018298D02*
X029539Y018298D01*
X029539Y018180D02*
X025989Y018180D01*
X025989Y018061D02*
X029539Y018061D01*
X029539Y017943D02*
X025989Y017943D01*
X025989Y017824D02*
X029539Y017824D01*
X029539Y017706D02*
X025989Y017706D01*
X025989Y017587D02*
X029539Y017587D01*
X029539Y017469D02*
X025989Y017469D01*
X025989Y017350D02*
X029539Y017350D01*
X029539Y017231D02*
X025989Y017231D01*
X025989Y017113D02*
X029539Y017113D01*
X029539Y016994D02*
X025989Y016994D01*
X025989Y016876D02*
X029539Y016876D01*
X029539Y016757D02*
X025989Y016757D01*
X025989Y016639D02*
X029539Y016639D01*
X029539Y016520D02*
X025989Y016520D01*
X025989Y016402D02*
X029539Y016402D01*
X029539Y016283D02*
X025989Y016283D01*
X025989Y016165D02*
X029539Y016165D01*
X029539Y016046D02*
X025989Y016046D01*
X025989Y015928D02*
X029539Y015928D01*
X029539Y015809D02*
X025989Y015809D01*
X025989Y015690D02*
X029539Y015690D01*
X029539Y015572D02*
X025989Y015572D01*
X025989Y015453D02*
X029539Y015453D01*
X029539Y015335D02*
X025989Y015335D01*
X025989Y015216D02*
X029539Y015216D01*
X029539Y015098D02*
X025989Y015098D01*
X025989Y014979D02*
X029539Y014979D01*
X029539Y014861D02*
X025989Y014861D01*
X025989Y014742D02*
X029539Y014742D01*
X029539Y014624D02*
X025989Y014624D01*
X025989Y014505D02*
X029539Y014505D01*
X029539Y014386D02*
X025989Y014386D01*
X025989Y014268D02*
X029539Y014268D01*
X029539Y014149D02*
X025989Y014149D01*
X025989Y014031D02*
X029539Y014031D01*
X029539Y013912D02*
X025989Y013912D01*
X025989Y013794D02*
X029539Y013794D01*
X029539Y013675D02*
X025989Y013675D01*
X025989Y013557D02*
X029539Y013557D01*
X029539Y013438D02*
X025989Y013438D01*
X025989Y013320D02*
X029539Y013320D01*
X029539Y013201D02*
X025989Y013201D01*
X025989Y013082D02*
X029539Y013082D01*
X029539Y012964D02*
X025989Y012964D01*
X025989Y012845D02*
X029539Y012845D01*
X029539Y012727D02*
X025989Y012727D01*
X025989Y012608D02*
X029539Y012608D01*
X029539Y012490D02*
X025989Y012490D01*
X025989Y012371D02*
X029539Y012371D01*
X029539Y012253D02*
X025989Y012253D01*
X025989Y012134D02*
X029539Y012134D01*
X029539Y012016D02*
X025989Y012016D01*
X025989Y011897D02*
X029539Y011897D01*
X029539Y011779D02*
X025989Y011779D01*
X025989Y011660D02*
X029539Y011660D01*
X029539Y011541D02*
X025964Y011541D01*
X025846Y011423D02*
X029539Y011423D01*
X029539Y011304D02*
X025727Y011304D01*
X025609Y011186D02*
X029539Y011186D01*
X029539Y011067D02*
X025490Y011067D01*
X025372Y010949D02*
X029539Y010949D01*
X029539Y010830D02*
X025253Y010830D01*
X025134Y010712D02*
X029539Y010712D01*
X029539Y010593D02*
X025016Y010593D01*
X024897Y010475D02*
X029539Y010475D01*
X029539Y010356D02*
X024779Y010356D01*
X024660Y010237D02*
X029539Y010237D01*
X029539Y010119D02*
X029167Y010119D01*
X029315Y010000D02*
X029539Y010000D01*
X029539Y009882D02*
X029434Y009882D01*
X029490Y009763D02*
X029539Y009763D01*
X029539Y009645D02*
X029539Y009645D01*
X029536Y009171D02*
X029539Y009171D01*
X029539Y009052D02*
X029487Y009052D01*
X029539Y008933D02*
X029426Y008933D01*
X029539Y008815D02*
X029308Y008815D01*
X029149Y008696D02*
X029539Y008696D01*
X029539Y008578D02*
X026762Y008578D01*
X026788Y008459D02*
X029539Y008459D01*
X029539Y008341D02*
X026784Y008341D01*
X026755Y008222D02*
X029539Y008222D01*
X029539Y008104D02*
X026690Y008104D01*
X026574Y007985D02*
X029539Y007985D01*
X029539Y007867D02*
X026581Y007867D01*
X026700Y007748D02*
X029539Y007748D01*
X029539Y007629D02*
X026764Y007629D01*
X026809Y007511D02*
X029539Y007511D01*
X029539Y007392D02*
X026809Y007392D01*
X026797Y007274D02*
X029539Y007274D01*
X029539Y007155D02*
X026748Y007155D01*
X026662Y007037D02*
X029539Y007037D01*
X029539Y006918D02*
X026506Y006918D01*
X026648Y006800D02*
X029539Y006800D01*
X029539Y006681D02*
X026742Y006681D01*
X027183Y006563D02*
X029539Y006563D01*
X029539Y006444D02*
X027301Y006444D01*
X027420Y006326D02*
X029539Y006326D01*
X029539Y006207D02*
X027489Y006207D01*
X027489Y006088D02*
X029539Y006088D01*
X029539Y005970D02*
X027489Y005970D01*
X027489Y005851D02*
X029539Y005851D01*
X029539Y005733D02*
X027489Y005733D01*
X027489Y005614D02*
X028340Y005614D01*
X028198Y005496D02*
X027489Y005496D01*
X027489Y005377D02*
X028079Y005377D01*
X028026Y005259D02*
X027489Y005259D01*
X027489Y005140D02*
X027977Y005140D01*
X027949Y005022D02*
X027489Y005022D01*
X027489Y004903D02*
X027949Y004903D01*
X027949Y004784D02*
X027489Y004784D01*
X027489Y004666D02*
X027984Y004666D01*
X028033Y004547D02*
X027489Y004547D01*
X027489Y004429D02*
X028096Y004429D01*
X028214Y004310D02*
X027489Y004310D01*
X027489Y004192D02*
X028380Y004192D01*
X028393Y004044D02*
X028393Y004044D01*
X028543Y004073D02*
X027489Y004073D01*
X027378Y003955D02*
X028260Y003955D01*
X027925Y003599D02*
X027022Y003599D01*
X026903Y003480D02*
X027867Y003480D01*
X027844Y003362D02*
X026383Y003362D01*
X026502Y003243D02*
X027820Y003243D01*
X027804Y003161D02*
X027804Y003161D01*
X027811Y003125D02*
X026621Y003125D01*
X026739Y003006D02*
X027835Y003006D01*
X027858Y002888D02*
X026858Y002888D01*
X026976Y002769D02*
X027894Y002769D01*
X027974Y002651D02*
X026989Y002651D01*
X026989Y002532D02*
X028053Y002532D01*
X028084Y002486D02*
X028084Y002486D01*
X028192Y002414D02*
X026989Y002414D01*
X026989Y002295D02*
X028369Y002295D01*
X028393Y002279D02*
X028393Y002279D01*
X028759Y002206D02*
X028759Y002206D01*
X029148Y002295D02*
X029539Y002295D01*
X029539Y002176D02*
X026989Y002176D01*
X026989Y002058D02*
X029539Y002058D01*
X029539Y001939D02*
X026989Y001939D01*
X026989Y001821D02*
X029539Y001821D01*
X029539Y001702D02*
X027890Y001702D01*
X028114Y001584D02*
X029539Y001584D01*
X029539Y001465D02*
X028228Y001465D01*
X028277Y001347D02*
X029539Y001347D01*
X029515Y001228D02*
X028309Y001228D01*
X028309Y001110D02*
X029396Y001110D01*
X029278Y000991D02*
X028284Y000991D01*
X028235Y000873D02*
X029159Y000873D01*
X029041Y000754D02*
X028129Y000754D01*
X027927Y000635D02*
X028922Y000635D01*
X028803Y000517D02*
X007214Y000517D01*
X007096Y000635D02*
X015591Y000635D01*
X015649Y000611D02*
X015868Y000611D01*
X016070Y000695D01*
X016225Y000850D01*
X016259Y000931D01*
X016293Y000850D01*
X016447Y000695D01*
X016649Y000611D01*
X016868Y000611D01*
X017070Y000695D01*
X017225Y000850D01*
X017259Y000931D01*
X017293Y000850D01*
X017447Y000695D01*
X017649Y000611D01*
X017868Y000611D01*
X018070Y000695D01*
X018225Y000850D01*
X018269Y000955D01*
X018306Y000883D01*
X018355Y000816D01*
X018414Y000757D01*
X018481Y000708D01*
X018555Y000670D01*
X018635Y000644D01*
X018717Y000631D01*
X018719Y000631D01*
X018719Y001121D01*
X018799Y001121D01*
X018799Y000631D01*
X018801Y000631D01*
X018883Y000644D01*
X018962Y000670D01*
X019037Y000708D01*
X019104Y000757D01*
X019163Y000816D01*
X019212Y000883D01*
X019250Y000958D01*
X019259Y000985D01*
X019268Y000958D01*
X019306Y000883D01*
X019355Y000816D01*
X019414Y000757D01*
X019481Y000708D01*
X019555Y000670D01*
X019635Y000644D01*
X019717Y000631D01*
X019719Y000631D01*
X019719Y001121D01*
X019799Y001121D01*
X019799Y000631D01*
X019801Y000631D01*
X019883Y000644D01*
X019962Y000670D01*
X020037Y000708D01*
X020104Y000757D01*
X020163Y000816D01*
X020212Y000883D01*
X020249Y000955D01*
X020293Y000850D01*
X020447Y000695D01*
X020649Y000611D01*
X020868Y000611D01*
X021070Y000695D01*
X021225Y000850D01*
X021309Y001052D01*
X021309Y001271D01*
X021225Y001473D01*
X021070Y001627D01*
X020868Y001711D01*
X020649Y001711D01*
X020447Y001627D01*
X020293Y001473D01*
X020249Y001367D01*
X020212Y001439D01*
X020163Y001506D01*
X020104Y001565D01*
X020037Y001615D01*
X019962Y001652D01*
X019883Y001678D01*
X019801Y001691D01*
X019799Y001691D01*
X019799Y001201D01*
X019719Y001201D01*
X019719Y001121D01*
X019229Y001121D01*
X018799Y001121D01*
X018799Y001201D01*
X019229Y001201D01*
X019719Y001201D01*
X019719Y001691D01*
X019717Y001691D01*
X019635Y001678D01*
X019555Y001652D01*
X019481Y001615D01*
X019414Y001565D01*
X019355Y001506D01*
X019306Y001439D01*
X019268Y001365D01*
X019259Y001337D01*
X019250Y001365D01*
X019212Y001439D01*
X019163Y001506D01*
X019104Y001565D01*
X019037Y001615D01*
X018962Y001652D01*
X018883Y001678D01*
X018801Y001691D01*
X018799Y001691D01*
X018799Y001201D01*
X018719Y001201D01*
X018719Y001691D01*
X018717Y001691D01*
X018635Y001678D01*
X018555Y001652D01*
X018481Y001615D01*
X018414Y001565D01*
X018355Y001506D01*
X018306Y001439D01*
X018269Y001367D01*
X018225Y001473D01*
X018070Y001627D01*
X017868Y001711D01*
X017649Y001711D01*
X017447Y001627D01*
X017293Y001473D01*
X017259Y001391D01*
X017225Y001473D01*
X017070Y001627D01*
X016868Y001711D01*
X016649Y001711D01*
X016447Y001627D01*
X016293Y001473D01*
X016259Y001391D01*
X016225Y001473D01*
X016070Y001627D01*
X015868Y001711D01*
X015649Y001711D01*
X015447Y001627D01*
X015293Y001473D01*
X015209Y001271D01*
X015209Y001052D01*
X015293Y000850D01*
X015447Y000695D01*
X015649Y000611D01*
X015927Y000635D02*
X016591Y000635D01*
X016388Y000754D02*
X016129Y000754D01*
X016235Y000873D02*
X016283Y000873D01*
X016290Y001465D02*
X016228Y001465D01*
X016114Y001584D02*
X016404Y001584D01*
X016628Y001702D02*
X015890Y001702D01*
X015628Y001702D02*
X006479Y001702D01*
X006479Y001584D02*
X015404Y001584D01*
X015290Y001465D02*
X006479Y001465D01*
X006479Y001347D02*
X015240Y001347D01*
X015209Y001228D02*
X006503Y001228D01*
X006622Y001110D02*
X015209Y001110D01*
X015234Y000991D02*
X006740Y000991D01*
X006859Y000873D02*
X015283Y000873D01*
X015388Y000754D02*
X006977Y000754D01*
X007333Y000398D02*
X028685Y000398D01*
X027591Y000635D02*
X026927Y000635D01*
X027129Y000754D02*
X027388Y000754D01*
X027283Y000873D02*
X027235Y000873D01*
X027228Y001465D02*
X027290Y001465D01*
X027404Y001584D02*
X027114Y001584D01*
X026989Y001702D02*
X027628Y001702D01*
X026529Y001702D02*
X025890Y001702D01*
X026114Y001584D02*
X026404Y001584D01*
X026290Y001465D02*
X026228Y001465D01*
X026529Y001821D02*
X006479Y001821D01*
X006479Y001939D02*
X026529Y001939D01*
X026529Y002058D02*
X006479Y002058D01*
X006479Y002176D02*
X026529Y002176D01*
X026529Y002295D02*
X006479Y002295D01*
X006479Y002414D02*
X026529Y002414D01*
X026529Y002532D02*
X006479Y002532D01*
X006479Y002651D02*
X026444Y002651D01*
X026326Y002769D02*
X006479Y002769D01*
X006479Y002888D02*
X026207Y002888D01*
X026727Y003955D02*
X016003Y003955D01*
X016058Y004131D02*
X016155Y004131D01*
X016279Y004131D01*
X016369Y004169D01*
X016437Y004237D01*
X016499Y004299D01*
X016506Y004316D01*
X016725Y004316D01*
X016758Y004237D01*
X016827Y004169D01*
X016917Y004131D01*
X017261Y004131D01*
X017319Y004155D01*
X017377Y004131D01*
X017721Y004131D01*
X017811Y004169D01*
X017880Y004237D01*
X017917Y004327D01*
X017917Y004425D01*
X017880Y004515D01*
X017811Y004584D01*
X017794Y004591D01*
X017794Y004795D01*
X017794Y004795D01*
X017779Y004832D01*
X017757Y004885D01*
X017688Y004954D01*
X017598Y004992D01*
X017500Y004992D01*
X017464Y004976D01*
X017410Y004954D01*
X017341Y004885D01*
X017310Y004853D01*
X017296Y004885D01*
X017227Y004954D01*
X017137Y004992D01*
X017040Y004992D01*
X017004Y004976D01*
X016950Y004954D01*
X016881Y004885D01*
X016802Y004806D01*
X016801Y004806D01*
X016506Y004806D01*
X016499Y004824D01*
X016498Y004825D01*
X016437Y004885D01*
X016435Y004888D01*
X016369Y004954D01*
X016369Y004954D01*
X016369Y004954D01*
X016354Y004960D01*
X016279Y004992D01*
X016181Y004992D01*
X016058Y004992D01*
X016057Y004992D01*
X015984Y004961D01*
X015968Y004954D01*
X015967Y004954D01*
X015903Y004890D01*
X015899Y004885D01*
X015837Y004824D01*
X015830Y004806D01*
X015549Y004806D01*
X015517Y004885D01*
X015448Y004954D01*
X015358Y004992D01*
X015260Y004992D01*
X015170Y004954D01*
X014985Y004769D01*
X014916Y004700D01*
X014879Y004610D01*
X014879Y004513D01*
X014916Y004423D01*
X014985Y004354D01*
X015067Y004320D01*
X015101Y004237D01*
X015170Y004169D01*
X015260Y004131D01*
X015358Y004131D01*
X015448Y004169D01*
X015517Y004237D01*
X015549Y004316D01*
X015830Y004316D01*
X015837Y004299D01*
X015968Y004169D01*
X016058Y004131D01*
X015944Y004192D02*
X015471Y004192D01*
X015547Y004310D02*
X015832Y004310D01*
X015515Y003955D02*
X014489Y003955D01*
X014489Y004073D02*
X026846Y004073D01*
X026964Y004192D02*
X017834Y004192D01*
X017910Y004310D02*
X027029Y004310D01*
X027029Y004429D02*
X017916Y004429D01*
X017848Y004547D02*
X025048Y004547D01*
X024929Y004666D02*
X017794Y004666D01*
X017794Y004784D02*
X024810Y004784D01*
X024692Y004903D02*
X017739Y004903D01*
X017500Y004992D02*
X017500Y004992D01*
X017359Y004903D02*
X017279Y004903D01*
X017341Y004885D02*
X017341Y004885D01*
X017040Y004992D02*
X017040Y004992D01*
X016899Y004903D02*
X016420Y004903D01*
X016437Y004885D02*
X016437Y004885D01*
X016499Y004824D02*
X016499Y004824D01*
X016881Y004885D02*
X016881Y004885D01*
X015968Y004954D02*
X015968Y004954D01*
X015916Y004903D02*
X015499Y004903D01*
X015119Y004903D02*
X014489Y004903D01*
X014489Y004784D02*
X015000Y004784D01*
X014902Y004666D02*
X014489Y004666D01*
X014489Y004547D02*
X014879Y004547D01*
X014914Y004429D02*
X014489Y004429D01*
X014489Y004310D02*
X015071Y004310D01*
X015147Y004192D02*
X014489Y004192D01*
X014029Y004192D02*
X006479Y004192D01*
X006479Y004310D02*
X014029Y004310D01*
X014029Y004429D02*
X006479Y004429D01*
X006479Y004547D02*
X014029Y004547D01*
X014029Y004666D02*
X006479Y004666D01*
X006479Y004784D02*
X014029Y004784D01*
X014029Y004903D02*
X006479Y004903D01*
X006479Y005022D02*
X014029Y005022D01*
X014029Y005140D02*
X006479Y005140D01*
X006479Y005259D02*
X014029Y005259D01*
X014029Y005377D02*
X006479Y005377D01*
X006479Y005496D02*
X014029Y005496D01*
X014029Y005614D02*
X006479Y005614D01*
X006479Y005733D02*
X014029Y005733D01*
X014029Y005851D02*
X006479Y005851D01*
X006479Y005970D02*
X014029Y005970D01*
X014029Y006088D02*
X006479Y006088D01*
X006479Y006207D02*
X014029Y006207D01*
X014029Y006326D02*
X006479Y006326D01*
X006479Y006444D02*
X014029Y006444D01*
X014029Y006563D02*
X006479Y006563D01*
X006479Y006681D02*
X014029Y006681D01*
X014029Y006800D02*
X006479Y006800D01*
X006479Y006918D02*
X014029Y006918D01*
X014029Y007037D02*
X006479Y007037D01*
X006479Y007155D02*
X014029Y007155D01*
X014029Y007274D02*
X006479Y007274D01*
X006479Y007392D02*
X014029Y007392D01*
X014029Y007511D02*
X006479Y007511D01*
X006479Y007629D02*
X014029Y007629D01*
X014029Y007748D02*
X006479Y007748D01*
X006479Y007867D02*
X014029Y007867D01*
X014029Y007985D02*
X006479Y007985D01*
X006479Y008104D02*
X014029Y008104D01*
X014029Y008222D02*
X006479Y008222D01*
X006479Y008341D02*
X014029Y008341D01*
X014029Y008459D02*
X006479Y008459D01*
X006479Y008578D02*
X014029Y008578D01*
X014029Y008696D02*
X006479Y008696D01*
X006479Y008815D02*
X014029Y008815D01*
X014029Y008933D02*
X006479Y008933D01*
X006479Y009052D02*
X014029Y009052D01*
X014029Y009171D02*
X006479Y009171D01*
X006479Y009289D02*
X014029Y009289D01*
X014029Y009408D02*
X006479Y009408D01*
X006479Y009526D02*
X014029Y009526D01*
X014029Y009645D02*
X006479Y009645D01*
X006479Y009763D02*
X014029Y009763D01*
X014029Y009882D02*
X006479Y009882D01*
X006479Y010000D02*
X014029Y010000D01*
X014029Y010119D02*
X006479Y010119D01*
X006479Y010237D02*
X014029Y010237D01*
X014029Y010356D02*
X006479Y010356D01*
X006479Y010475D02*
X014029Y010475D01*
X014029Y010593D02*
X006479Y010593D01*
X006479Y010712D02*
X009931Y010712D01*
X009947Y010695D02*
X009793Y010850D01*
X009709Y011052D01*
X009709Y011271D01*
X009793Y011473D01*
X009947Y011627D01*
X010149Y011711D01*
X010368Y011711D01*
X010570Y011627D01*
X010725Y011473D01*
X010809Y011271D01*
X010809Y011052D01*
X010725Y010850D01*
X010570Y010695D01*
X010368Y010611D01*
X010149Y010611D01*
X009947Y010695D01*
X009812Y010830D02*
X006479Y010830D01*
X006479Y010949D02*
X009752Y010949D01*
X009709Y011067D02*
X006479Y011067D01*
X006479Y011186D02*
X009709Y011186D01*
X009723Y011304D02*
X006479Y011304D01*
X006479Y011423D02*
X009772Y011423D01*
X009861Y011541D02*
X006479Y011541D01*
X006479Y011660D02*
X010026Y011660D01*
X010492Y011660D02*
X014026Y011660D01*
X013861Y011541D02*
X010656Y011541D01*
X010746Y011423D02*
X013772Y011423D01*
X013723Y011304D02*
X010795Y011304D01*
X010809Y011186D02*
X013709Y011186D01*
X013709Y011067D02*
X010809Y011067D01*
X010766Y010949D02*
X013752Y010949D01*
X013812Y010830D02*
X010706Y010830D01*
X010587Y010712D02*
X013931Y010712D01*
X014489Y010593D02*
X023529Y010593D01*
X023529Y010475D02*
X014489Y010475D01*
X014489Y010356D02*
X023529Y010356D01*
X023529Y010237D02*
X014489Y010237D01*
X014489Y010119D02*
X023529Y010119D01*
X023529Y010000D02*
X014489Y010000D01*
X014489Y009882D02*
X023529Y009882D01*
X023529Y009763D02*
X014489Y009763D01*
X014489Y009645D02*
X023529Y009645D01*
X023529Y009526D02*
X014489Y009526D01*
X014489Y009408D02*
X023529Y009408D01*
X023529Y009289D02*
X014489Y009289D01*
X014489Y009171D02*
X023529Y009171D01*
X023529Y009052D02*
X014489Y009052D01*
X014489Y008933D02*
X023529Y008933D01*
X023529Y008815D02*
X014489Y008815D01*
X014489Y008696D02*
X023529Y008696D01*
X023529Y008578D02*
X014489Y008578D01*
X014489Y008459D02*
X023529Y008459D01*
X023529Y008341D02*
X014489Y008341D01*
X014489Y008222D02*
X023529Y008222D01*
X023529Y008104D02*
X014489Y008104D01*
X014489Y007985D02*
X023529Y007985D01*
X023529Y007867D02*
X014489Y007867D01*
X014489Y007748D02*
X023529Y007748D01*
X023529Y007629D02*
X014489Y007629D01*
X014489Y007511D02*
X023529Y007511D01*
X023529Y007392D02*
X014489Y007392D01*
X014489Y007274D02*
X023529Y007274D01*
X023529Y007155D02*
X014489Y007155D01*
X014489Y007037D02*
X023529Y007037D01*
X023529Y006918D02*
X014489Y006918D01*
X014489Y006800D02*
X023529Y006800D01*
X023529Y006681D02*
X014489Y006681D01*
X014489Y006563D02*
X023529Y006563D01*
X023529Y006444D02*
X014489Y006444D01*
X014489Y006326D02*
X023529Y006326D01*
X023529Y006207D02*
X014489Y006207D01*
X014489Y006088D02*
X023529Y006088D01*
X023625Y005970D02*
X014489Y005970D01*
X014489Y005851D02*
X023744Y005851D01*
X023862Y005733D02*
X014489Y005733D01*
X014489Y005614D02*
X023981Y005614D01*
X024099Y005496D02*
X014489Y005496D01*
X014489Y005377D02*
X024218Y005377D01*
X024336Y005259D02*
X014489Y005259D01*
X014489Y005140D02*
X024455Y005140D01*
X024573Y005022D02*
X014489Y005022D01*
X015899Y004885D02*
X015899Y004885D01*
X016504Y004310D02*
X016727Y004310D01*
X016803Y004192D02*
X016392Y004192D01*
X015420Y003836D02*
X014489Y003836D01*
X014528Y003718D02*
X015379Y003718D01*
X015379Y003599D02*
X014646Y003599D01*
X014765Y003480D02*
X015422Y003480D01*
X014589Y003006D02*
X006479Y003006D01*
X006479Y003125D02*
X014470Y003125D01*
X014351Y003243D02*
X006479Y003243D01*
X006479Y003362D02*
X014233Y003362D01*
X014114Y003480D02*
X006479Y003480D01*
X006479Y003599D02*
X014029Y003599D01*
X014029Y003718D02*
X006479Y003718D01*
X006479Y003836D02*
X014029Y003836D01*
X014029Y003955D02*
X006479Y003955D01*
X006479Y004073D02*
X014029Y004073D01*
X016890Y001702D02*
X017628Y001702D01*
X017404Y001584D02*
X017114Y001584D01*
X017228Y001465D02*
X017290Y001465D01*
X017890Y001702D02*
X020628Y001702D01*
X020404Y001584D02*
X020079Y001584D01*
X020193Y001465D02*
X020290Y001465D01*
X019799Y001465D02*
X019719Y001465D01*
X019719Y001347D02*
X019799Y001347D01*
X019799Y001228D02*
X019719Y001228D01*
X019719Y001110D02*
X019799Y001110D01*
X019799Y000991D02*
X019719Y000991D01*
X019719Y000873D02*
X019799Y000873D01*
X019799Y000754D02*
X019719Y000754D01*
X019719Y000635D02*
X019799Y000635D01*
X019827Y000635D02*
X020591Y000635D01*
X020388Y000754D02*
X020100Y000754D01*
X020204Y000873D02*
X020283Y000873D01*
X019691Y000635D02*
X018827Y000635D01*
X018799Y000635D02*
X018719Y000635D01*
X018691Y000635D02*
X017927Y000635D01*
X018129Y000754D02*
X018418Y000754D01*
X018314Y000873D02*
X018235Y000873D01*
X018719Y000873D02*
X018799Y000873D01*
X018799Y000991D02*
X018719Y000991D01*
X018719Y001110D02*
X018799Y001110D01*
X018799Y001228D02*
X018719Y001228D01*
X018719Y001347D02*
X018799Y001347D01*
X018799Y001465D02*
X018719Y001465D01*
X018719Y001584D02*
X018799Y001584D01*
X019079Y001584D02*
X019439Y001584D01*
X019325Y001465D02*
X019193Y001465D01*
X019256Y001347D02*
X019262Y001347D01*
X019719Y001584D02*
X019799Y001584D01*
X019314Y000873D02*
X019204Y000873D01*
X019100Y000754D02*
X019418Y000754D01*
X018799Y000754D02*
X018719Y000754D01*
X018325Y001465D02*
X018228Y001465D01*
X018114Y001584D02*
X018439Y001584D01*
X017283Y000873D02*
X017235Y000873D01*
X017129Y000754D02*
X017388Y000754D01*
X017591Y000635D02*
X016927Y000635D01*
X020927Y000635D02*
X022591Y000635D01*
X022388Y000754D02*
X021129Y000754D01*
X021235Y000873D02*
X022283Y000873D01*
X022234Y000991D02*
X021284Y000991D01*
X021309Y001110D02*
X022209Y001110D01*
X022209Y001228D02*
X021309Y001228D01*
X021277Y001347D02*
X022240Y001347D01*
X022290Y001465D02*
X021228Y001465D01*
X021114Y001584D02*
X022404Y001584D01*
X022628Y001702D02*
X020890Y001702D01*
X022890Y001702D02*
X023628Y001702D01*
X023404Y001584D02*
X023114Y001584D01*
X023228Y001465D02*
X023290Y001465D01*
X023283Y000873D02*
X023235Y000873D01*
X023129Y000754D02*
X023388Y000754D01*
X023591Y000635D02*
X022927Y000635D01*
X023927Y000635D02*
X024591Y000635D01*
X024388Y000754D02*
X024129Y000754D01*
X024235Y000873D02*
X024283Y000873D01*
X024290Y001465D02*
X024228Y001465D01*
X024114Y001584D02*
X024404Y001584D01*
X024628Y001702D02*
X023890Y001702D01*
X024890Y001702D02*
X025628Y001702D01*
X025404Y001584D02*
X025114Y001584D01*
X025228Y001465D02*
X025290Y001465D01*
X025283Y000873D02*
X025235Y000873D01*
X025129Y000754D02*
X025388Y000754D01*
X025591Y000635D02*
X024927Y000635D01*
X025927Y000635D02*
X026591Y000635D01*
X026388Y000754D02*
X026129Y000754D01*
X026235Y000873D02*
X026283Y000873D01*
X029326Y002414D02*
X029539Y002414D01*
X029539Y002532D02*
X029465Y002532D01*
X029434Y002486D02*
X029434Y002486D01*
X027029Y004547D02*
X025970Y004547D01*
X026089Y004666D02*
X027029Y004666D01*
X027029Y004784D02*
X026207Y004784D01*
X026745Y004903D02*
X027029Y004903D01*
X027029Y005022D02*
X026809Y005022D01*
X026809Y005140D02*
X027029Y005140D01*
X027029Y005259D02*
X026809Y005259D01*
X026809Y005377D02*
X027029Y005377D01*
X027029Y005496D02*
X026809Y005496D01*
X026809Y005614D02*
X027029Y005614D01*
X027029Y005733D02*
X026809Y005733D01*
X026809Y005851D02*
X027029Y005851D01*
X027029Y005970D02*
X026595Y005970D01*
X026714Y006088D02*
X027006Y006088D01*
X025922Y005970D02*
X025809Y005970D01*
X025804Y006088D02*
X025781Y006088D01*
X025748Y006207D02*
X025732Y006207D01*
X025709Y006326D02*
X025622Y006326D01*
X025568Y006444D02*
X025709Y006444D01*
X025688Y006563D02*
X025726Y006563D01*
X025759Y006681D02*
X025775Y006681D01*
X025808Y006800D02*
X025870Y006800D01*
X025809Y006918D02*
X026012Y006918D01*
X025856Y007037D02*
X025802Y007037D01*
X025770Y007155D02*
X025753Y007155D01*
X025720Y007274D02*
X025674Y007274D01*
X025709Y007392D02*
X025534Y007392D01*
X025636Y007511D02*
X025709Y007511D01*
X025737Y007629D02*
X025754Y007629D01*
X025787Y007748D02*
X025818Y007748D01*
X025809Y007867D02*
X025936Y007867D01*
X025944Y007985D02*
X025809Y007985D01*
X025827Y008104D02*
X025774Y008104D01*
X025763Y008222D02*
X025725Y008222D01*
X025733Y008341D02*
X025607Y008341D01*
X025538Y008459D02*
X025730Y008459D01*
X025729Y008453D02*
X025729Y008450D01*
X026220Y008450D01*
X026220Y008941D01*
X026217Y008941D01*
X026135Y008928D01*
X026055Y008902D01*
X025981Y008865D01*
X025914Y008815D01*
X025855Y008756D01*
X025806Y008689D01*
X025768Y008615D01*
X025742Y008535D01*
X025729Y008453D01*
X025756Y008578D02*
X025672Y008578D01*
X025744Y008696D02*
X025811Y008696D01*
X025780Y008815D02*
X025913Y008815D01*
X025770Y009052D02*
X028031Y009052D01*
X027982Y009171D02*
X025722Y009171D01*
X025631Y009289D02*
X027949Y009289D01*
X027949Y009408D02*
X025446Y009408D01*
X025297Y009408D02*
X025220Y009408D01*
X025220Y009441D02*
X025217Y009441D01*
X025135Y009428D01*
X025055Y009402D01*
X024981Y009365D01*
X024914Y009315D01*
X024855Y009256D01*
X024806Y009189D01*
X024768Y009115D01*
X024742Y009035D01*
X024729Y008953D01*
X024729Y008950D01*
X025220Y008950D01*
X025220Y009441D01*
X025220Y009289D02*
X025297Y009289D01*
X025297Y009171D02*
X025220Y009171D01*
X025220Y009052D02*
X025297Y009052D01*
X025298Y008933D02*
X026168Y008933D01*
X026220Y008933D02*
X026297Y008933D01*
X026350Y008933D02*
X028091Y008933D01*
X028210Y008815D02*
X026605Y008815D01*
X026707Y008696D02*
X028368Y008696D01*
X027949Y009526D02*
X024489Y009526D01*
X024489Y009408D02*
X025072Y009408D01*
X024887Y009289D02*
X024489Y009289D01*
X024489Y009171D02*
X024796Y009171D01*
X024747Y009052D02*
X024489Y009052D01*
X024489Y008933D02*
X025220Y008933D01*
X024738Y008815D02*
X024489Y008815D01*
X024489Y008696D02*
X024774Y008696D01*
X024846Y008578D02*
X024489Y008578D01*
X024489Y008459D02*
X024979Y008459D01*
X024911Y008341D02*
X024489Y008341D01*
X024489Y008222D02*
X024792Y008222D01*
X024743Y008104D02*
X024489Y008104D01*
X024489Y007985D02*
X024709Y007985D01*
X024709Y007867D02*
X024489Y007867D01*
X024489Y007748D02*
X024731Y007748D01*
X024780Y007629D02*
X024489Y007629D01*
X024489Y007511D02*
X024881Y007511D01*
X024983Y007392D02*
X024489Y007392D01*
X024489Y007274D02*
X024844Y007274D01*
X024765Y007155D02*
X024489Y007155D01*
X024489Y007037D02*
X024716Y007037D01*
X024709Y006918D02*
X024489Y006918D01*
X024489Y006800D02*
X024710Y006800D01*
X024759Y006681D02*
X024564Y006681D01*
X024683Y006563D02*
X024830Y006563D01*
X024801Y006444D02*
X024950Y006444D01*
X026220Y008459D02*
X026297Y008459D01*
X026297Y008578D02*
X026220Y008578D01*
X026220Y008696D02*
X026297Y008696D01*
X026297Y008815D02*
X026220Y008815D01*
X024489Y009645D02*
X027979Y009645D01*
X028028Y009763D02*
X024489Y009763D01*
X024489Y009882D02*
X028084Y009882D01*
X028203Y010000D02*
X024489Y010000D01*
X024542Y010119D02*
X028351Y010119D01*
X024529Y011779D02*
X022154Y011779D01*
X022272Y011897D02*
X024529Y011897D01*
X024529Y012016D02*
X022309Y012016D01*
X022309Y012134D02*
X024529Y012134D01*
X024529Y012253D02*
X022309Y012253D01*
X022309Y012371D02*
X024529Y012371D01*
X024529Y012490D02*
X022208Y012490D01*
X022090Y012608D02*
X024529Y012608D01*
X024529Y012727D02*
X022102Y012727D01*
X022221Y012845D02*
X024529Y012845D01*
X024529Y012964D02*
X022309Y012964D01*
X022309Y013082D02*
X024529Y013082D01*
X024529Y013201D02*
X022309Y013201D01*
X022309Y013320D02*
X024529Y013320D01*
X024529Y013438D02*
X022260Y013438D01*
X023046Y014624D02*
X023120Y014624D01*
X022785Y015453D02*
X022733Y015453D01*
X022626Y015572D02*
X022892Y015572D01*
X023099Y015690D02*
X022419Y015690D01*
X022099Y015690D02*
X021419Y015690D01*
X021626Y015572D02*
X021892Y015572D01*
X021785Y015453D02*
X021733Y015453D01*
X021099Y015690D02*
X020419Y015690D01*
X020626Y015572D02*
X020892Y015572D01*
X020785Y015453D02*
X020733Y015453D01*
X020099Y015690D02*
X019419Y015690D01*
X019626Y015572D02*
X019892Y015572D01*
X019785Y015453D02*
X019733Y015453D01*
X019099Y015690D02*
X018419Y015690D01*
X018626Y015572D02*
X018892Y015572D01*
X018785Y015453D02*
X018733Y015453D01*
X018099Y015690D02*
X017419Y015690D01*
X017626Y015572D02*
X017892Y015572D01*
X017785Y015453D02*
X017733Y015453D01*
X017099Y015690D02*
X016419Y015690D01*
X016626Y015572D02*
X016892Y015572D01*
X016785Y015453D02*
X016733Y015453D01*
X016099Y015690D02*
X006479Y015690D01*
X006479Y015572D02*
X015892Y015572D01*
X015785Y015453D02*
X006479Y015453D01*
X006479Y015335D02*
X015735Y015335D01*
X015709Y015216D02*
X006479Y015216D01*
X006479Y015098D02*
X015709Y015098D01*
X015739Y014979D02*
X006479Y014979D01*
X006479Y014861D02*
X015788Y014861D01*
X015900Y014742D02*
X006479Y014742D01*
X006479Y014624D02*
X009943Y014624D01*
X009947Y014627D02*
X009793Y014473D01*
X009709Y014271D01*
X009709Y014052D01*
X009793Y013850D01*
X009947Y013695D01*
X010149Y013611D01*
X010368Y013611D01*
X010570Y013695D01*
X010725Y013850D01*
X010809Y014052D01*
X010809Y014271D01*
X010725Y014473D01*
X010570Y014627D01*
X010368Y014711D01*
X010149Y014711D01*
X009947Y014627D01*
X009825Y014505D02*
X006479Y014505D01*
X006479Y014386D02*
X009757Y014386D01*
X009709Y014268D02*
X006479Y014268D01*
X006479Y014149D02*
X009709Y014149D01*
X009718Y014031D02*
X006479Y014031D01*
X006479Y013912D02*
X009767Y013912D01*
X009849Y013794D02*
X006479Y013794D01*
X006479Y013675D02*
X009995Y013675D01*
X010523Y013675D02*
X013995Y013675D01*
X013947Y013695D02*
X014149Y013611D01*
X014368Y013611D01*
X014570Y013695D01*
X014725Y013850D01*
X014809Y014052D01*
X014809Y014271D01*
X014725Y014473D01*
X014570Y014627D01*
X014368Y014711D01*
X014149Y014711D01*
X013947Y014627D01*
X013793Y014473D01*
X013709Y014271D01*
X013709Y014052D01*
X013793Y013850D01*
X013947Y013695D01*
X013849Y013794D02*
X010669Y013794D01*
X010751Y013912D02*
X013767Y013912D01*
X013718Y014031D02*
X010800Y014031D01*
X010809Y014149D02*
X013709Y014149D01*
X013709Y014268D02*
X010809Y014268D01*
X010761Y014386D02*
X013757Y014386D01*
X013825Y014505D02*
X010693Y014505D01*
X010574Y014624D02*
X013943Y014624D01*
X014574Y014624D02*
X016120Y014624D01*
X016398Y014624D02*
X016471Y014624D01*
X016590Y014505D02*
X014693Y014505D01*
X014761Y014386D02*
X016708Y014386D01*
X016827Y014268D02*
X014809Y014268D01*
X014809Y014149D02*
X016946Y014149D01*
X017064Y014031D02*
X014800Y014031D01*
X014751Y013912D02*
X017683Y013912D01*
X017801Y013794D02*
X014669Y013794D01*
X014523Y013675D02*
X017523Y013675D01*
X017539Y013691D02*
X017229Y013381D01*
X017229Y013201D01*
X017719Y013201D01*
X017719Y013121D01*
X017799Y013121D01*
X017799Y012691D01*
X017799Y012201D01*
X017719Y012201D01*
X017719Y012121D01*
X017719Y012201D02*
X017229Y012201D01*
X017229Y012381D01*
X017509Y012661D01*
X017229Y012942D01*
X017229Y013121D01*
X017719Y013121D01*
X017719Y012691D01*
X017719Y012201D01*
X017719Y012253D02*
X017799Y012253D01*
X017799Y012371D02*
X017719Y012371D01*
X017719Y012490D02*
X017799Y012490D01*
X017799Y012608D02*
X017719Y012608D01*
X017719Y012727D02*
X017799Y012727D01*
X017799Y012845D02*
X017719Y012845D01*
X017719Y012964D02*
X017799Y012964D01*
X017799Y013082D02*
X017719Y013082D01*
X017719Y013201D02*
X017719Y013691D01*
X017539Y013691D01*
X017719Y013675D02*
X017799Y013675D01*
X017799Y013557D02*
X017719Y013557D01*
X017719Y013438D02*
X017799Y013438D01*
X017799Y013320D02*
X017719Y013320D01*
X017405Y013557D02*
X006479Y013557D01*
X006479Y013438D02*
X017286Y013438D01*
X017229Y013320D02*
X006479Y013320D01*
X006479Y012016D02*
X017229Y012016D01*
X017274Y011897D02*
X006479Y011897D01*
X006479Y011779D02*
X017392Y011779D01*
X017511Y011660D02*
X014492Y011660D01*
X014656Y011541D02*
X024314Y011541D01*
X024195Y011423D02*
X014746Y011423D01*
X014795Y011304D02*
X024077Y011304D01*
X023958Y011186D02*
X014809Y011186D01*
X014809Y011067D02*
X023840Y011067D01*
X023721Y010949D02*
X014766Y010949D01*
X014706Y010830D02*
X023603Y010830D01*
X023529Y010712D02*
X014587Y010712D01*
X013199Y012134D02*
X012424Y012134D01*
X012628Y012253D02*
X012920Y012253D01*
X012814Y012371D02*
X012734Y012371D01*
X013598Y012253D02*
X017229Y012253D01*
X017229Y012371D02*
X013703Y012371D01*
X013760Y012490D02*
X017338Y012490D01*
X017456Y012608D02*
X013787Y012608D01*
X013785Y012727D02*
X017444Y012727D01*
X017325Y012845D02*
X013756Y012845D01*
X013694Y012964D02*
X017229Y012964D01*
X017229Y013082D02*
X013581Y013082D01*
X017719Y012016D02*
X017799Y012016D01*
X017799Y011897D02*
X017719Y011897D01*
X017719Y011779D02*
X017799Y011779D01*
X017799Y011660D02*
X017719Y011660D01*
X018007Y011660D02*
X018482Y011660D01*
X018364Y011779D02*
X018126Y011779D01*
X018244Y011897D02*
X018245Y011897D01*
X019035Y011660D02*
X019482Y011660D01*
X019364Y011779D02*
X019154Y011779D01*
X020035Y011660D02*
X020482Y011660D01*
X020364Y011779D02*
X020154Y011779D01*
X021035Y011660D02*
X021482Y011660D01*
X021364Y011779D02*
X021154Y011779D01*
X022035Y011660D02*
X024432Y011660D01*
X022937Y017706D02*
X022581Y017706D01*
X022700Y017824D02*
X022818Y017824D01*
X021937Y017706D02*
X021581Y017706D01*
X021700Y017824D02*
X021818Y017824D01*
X020937Y017706D02*
X020581Y017706D01*
X020700Y017824D02*
X020818Y017824D01*
X019937Y017706D02*
X019581Y017706D01*
X019700Y017824D02*
X019818Y017824D01*
X019770Y018417D02*
X019748Y018417D01*
X019662Y018535D02*
X019855Y018535D01*
X020011Y018654D02*
X019506Y018654D01*
X019489Y018773D02*
X020029Y018773D01*
X020029Y018891D02*
X019489Y018891D01*
X019489Y019010D02*
X020029Y019010D01*
X020029Y019128D02*
X019489Y019128D01*
X019489Y019247D02*
X020029Y019247D01*
X020029Y019365D02*
X019489Y019365D01*
X019489Y019484D02*
X020029Y019484D01*
X020029Y019602D02*
X019489Y019602D01*
X019596Y019721D02*
X020029Y019721D01*
X020112Y019839D02*
X019715Y019839D01*
X019770Y019958D02*
X020230Y019958D01*
X020209Y020077D02*
X019809Y020077D01*
X019809Y020195D02*
X020209Y020195D01*
X020227Y020314D02*
X019791Y020314D01*
X019742Y020432D02*
X020276Y020432D01*
X020371Y020551D02*
X019647Y020551D01*
X019470Y020669D02*
X020548Y020669D01*
X020970Y020669D02*
X021548Y020669D01*
X021371Y020551D02*
X021147Y020551D01*
X021242Y020432D02*
X021276Y020432D01*
X021970Y020669D02*
X022548Y020669D01*
X022371Y020551D02*
X022147Y020551D01*
X022242Y020432D02*
X022276Y020432D01*
X022970Y020669D02*
X023548Y020669D01*
X023371Y020551D02*
X023147Y020551D01*
X023242Y020432D02*
X023276Y020432D01*
X026096Y019721D02*
X026421Y019721D01*
X026303Y019839D02*
X026215Y019839D01*
X027096Y019721D02*
X027421Y019721D01*
X027303Y019839D02*
X027215Y019839D01*
X028821Y020788D02*
X009467Y020788D01*
X009434Y020837D02*
X009434Y020837D01*
X009330Y020906D02*
X028703Y020906D01*
X019048Y020669D02*
X018470Y020669D01*
X018647Y020551D02*
X018871Y020551D01*
X018776Y020432D02*
X018742Y020432D01*
X018048Y020669D02*
X017470Y020669D01*
X017647Y020551D02*
X017871Y020551D01*
X017776Y020432D02*
X017742Y020432D01*
X017048Y020669D02*
X016470Y020669D01*
X016647Y020551D02*
X016871Y020551D01*
X016776Y020432D02*
X016742Y020432D01*
X016048Y020669D02*
X015470Y020669D01*
X015647Y020551D02*
X015871Y020551D01*
X015776Y020432D02*
X015742Y020432D01*
X015048Y020669D02*
X014470Y020669D01*
X014647Y020551D02*
X014871Y020551D01*
X014776Y020432D02*
X014742Y020432D01*
X014048Y020669D02*
X013411Y020669D01*
X013299Y020669D02*
X013219Y020669D01*
X013107Y020669D02*
X012470Y020669D01*
X012647Y020551D02*
X012899Y020551D01*
X012802Y020432D02*
X012742Y020432D01*
X013219Y020432D02*
X013299Y020432D01*
X013299Y020314D02*
X013219Y020314D01*
X013219Y020551D02*
X013299Y020551D01*
X013619Y020551D02*
X013871Y020551D01*
X013776Y020432D02*
X013716Y020432D01*
X013299Y020077D02*
X013219Y020077D01*
X013219Y019958D02*
X013299Y019958D01*
X013299Y019839D02*
X013219Y019839D01*
X013219Y019721D02*
X013299Y019721D01*
X013554Y019721D02*
X013921Y019721D01*
X013803Y019839D02*
X013680Y019839D01*
X012963Y019721D02*
X012596Y019721D01*
X012715Y019839D02*
X012838Y019839D01*
X011921Y019721D02*
X009591Y019721D01*
X009641Y019796D02*
X009641Y019796D01*
X009650Y019839D02*
X011803Y019839D01*
X011748Y019958D02*
X009673Y019958D01*
X009697Y020077D02*
X011709Y020077D01*
X011709Y020195D02*
X009707Y020195D01*
X009684Y020314D02*
X011727Y020314D01*
X011776Y020432D02*
X009660Y020432D01*
X009641Y020527D02*
X009641Y020527D01*
X009625Y020551D02*
X011871Y020551D01*
X012048Y020669D02*
X009546Y020669D01*
X008188Y020906D02*
X007315Y020906D01*
X007197Y020788D02*
X008051Y020788D01*
X007972Y020669D02*
X007078Y020669D01*
X006959Y020551D02*
X007893Y020551D01*
X007858Y020432D02*
X006841Y020432D01*
X006722Y020314D02*
X007834Y020314D01*
X007811Y020195D02*
X006604Y020195D01*
X006485Y020077D02*
X007821Y020077D01*
X007804Y020161D02*
X007804Y020161D01*
X007844Y019958D02*
X006479Y019958D01*
X006479Y019839D02*
X007868Y019839D01*
X007927Y019721D02*
X006479Y019721D01*
X006479Y019602D02*
X008006Y019602D01*
X008084Y019486D02*
X008084Y019486D01*
X008084Y019486D01*
X008087Y019484D02*
X006479Y019484D01*
X006479Y019365D02*
X008264Y019365D01*
X008555Y019247D02*
X006479Y019247D01*
X006479Y019128D02*
X016029Y019128D01*
X016029Y019010D02*
X006479Y019010D01*
X006479Y018891D02*
X016029Y018891D01*
X016029Y018773D02*
X006479Y018773D01*
X006479Y018654D02*
X016011Y018654D01*
X015855Y018535D02*
X006479Y018535D01*
X006479Y018417D02*
X015770Y018417D01*
X015720Y018298D02*
X006479Y018298D01*
X006479Y018180D02*
X015709Y018180D01*
X015709Y018061D02*
X006479Y018061D01*
X006479Y017943D02*
X015754Y017943D01*
X015818Y017824D02*
X006479Y017824D01*
X006479Y017706D02*
X015937Y017706D01*
X016581Y017706D02*
X016937Y017706D01*
X016818Y017824D02*
X016700Y017824D01*
X017581Y017706D02*
X017937Y017706D01*
X017818Y017824D02*
X017700Y017824D01*
X018581Y017706D02*
X018937Y017706D01*
X018818Y017824D02*
X018700Y017824D01*
X016029Y019247D02*
X008962Y019247D01*
X008759Y019206D02*
X008759Y019206D01*
X009254Y019365D02*
X016029Y019365D01*
X016029Y019484D02*
X009431Y019484D01*
X009434Y019486D02*
X009434Y019486D01*
X009512Y019602D02*
X016029Y019602D01*
X015921Y019721D02*
X015596Y019721D01*
X015715Y019839D02*
X015803Y019839D01*
X014921Y019721D02*
X014596Y019721D01*
X014715Y019839D02*
X014803Y019839D01*
X009279Y013082D02*
X009239Y013082D01*
X009239Y012964D02*
X009279Y012964D01*
X009279Y012845D02*
X009239Y012845D01*
X009239Y012727D02*
X009279Y012727D01*
X009279Y012608D02*
X009239Y012608D01*
X009239Y012490D02*
X009279Y012490D01*
X009279Y012371D02*
X009239Y012371D01*
X009239Y012253D02*
X009279Y012253D01*
X008920Y012253D02*
X008628Y012253D01*
X008734Y012371D02*
X008814Y012371D01*
X008824Y012964D02*
X008729Y012964D01*
X008615Y013082D02*
X008937Y013082D01*
X029178Y005614D02*
X029539Y005614D01*
X029539Y005496D02*
X029320Y005496D01*
X029438Y005377D02*
X029539Y005377D01*
X029539Y005259D02*
X029492Y005259D01*
D17*
X027259Y006161D02*
X027259Y004161D01*
X026759Y003661D01*
X015759Y003661D01*
X014759Y003161D02*
X014259Y003661D01*
X014259Y011161D01*
X018259Y012661D02*
X018259Y013661D01*
X017759Y014161D01*
X017259Y014161D01*
X016259Y015161D01*
X017259Y015161D02*
X018759Y013661D01*
X018759Y013161D01*
X019259Y012661D02*
X019259Y014161D01*
X018259Y015161D01*
X019259Y015161D02*
X019759Y014661D01*
X019759Y013161D01*
X020259Y012661D02*
X020259Y015161D01*
X020759Y014661D02*
X021259Y015161D01*
X020759Y014661D02*
X020759Y013161D01*
X021259Y012661D02*
X021259Y014161D01*
X022259Y015161D01*
X023259Y015161D02*
X021759Y013661D01*
X021759Y013161D01*
X021259Y012661D02*
X021759Y012161D01*
X020759Y012161D02*
X020259Y012661D01*
X019759Y012161D02*
X019259Y012661D01*
X018759Y012161D02*
X018259Y012661D01*
X023759Y010661D02*
X024759Y011661D01*
X024759Y020161D01*
X025759Y020161D02*
X025759Y011661D01*
X024259Y010161D01*
X024259Y006661D01*
X025009Y005911D01*
X025259Y005911D01*
X026259Y005411D02*
X026259Y005161D01*
X025759Y004661D01*
X025259Y004661D01*
X023759Y006161D01*
X023759Y010661D01*
X026259Y006411D02*
X027009Y006411D01*
X027259Y006161D01*
X026259Y003161D02*
X014759Y003161D01*
X026259Y003161D02*
X026759Y002661D01*
X026759Y001161D01*
X023259Y018161D02*
X023259Y019661D01*
X023759Y020161D01*
X022759Y020161D02*
X022259Y019661D01*
X022259Y018161D01*
X021259Y018161D02*
X021259Y019661D01*
X021759Y020161D01*
X020759Y020161D02*
X020259Y019661D01*
X020259Y018161D01*
X019259Y018161D02*
X019259Y020161D01*
X018259Y020161D02*
X018259Y018161D01*
X017259Y018161D02*
X017259Y020161D01*
X016259Y020161D02*
X016259Y018161D01*
D18*
X015759Y003661D03*
M02*
