G75*
G70*
%OFA0B0*%
%FSLAX24Y24*%
%IPPOS*%
%LPD*%
%AMOC8*
5,1,8,0,0,1.08239X$1,22.5*
%
%ADD10C,0.0110*%
%ADD11C,0.0060*%
%ADD12C,0.0080*%
%ADD13C,0.0010*%
%ADD14C,0.0050*%
%ADD15R,0.0195X0.0191*%
%ADD16C,0.0180*%
%ADD17R,0.0500X0.0170*%
%ADD18R,0.0200X0.0680*%
%ADD19R,0.0300X0.0170*%
%ADD20R,0.0200X0.0670*%
%ADD21C,0.0200*%
D10*
X014055Y013619D02*
X014055Y014210D01*
X014351Y014210D01*
X014449Y014111D01*
X014449Y013915D01*
X014351Y013816D01*
X014055Y013816D01*
X013804Y013915D02*
X013706Y014013D01*
X013509Y014013D01*
X013411Y014111D01*
X013509Y014210D01*
X013804Y014210D01*
X013804Y013915D02*
X013706Y013816D01*
X013411Y013816D01*
X013160Y013915D02*
X013061Y013816D01*
X012865Y013816D01*
X012766Y013915D01*
X012766Y014308D01*
X012865Y014407D01*
X013061Y014407D01*
X013160Y014308D01*
X013160Y014111D01*
X013061Y014013D01*
X013061Y014210D01*
X012865Y014210D01*
X012865Y014013D01*
X013061Y014013D01*
X012515Y014111D02*
X012515Y013816D01*
X012122Y013816D02*
X012122Y014210D01*
X012417Y014210D01*
X012515Y014111D01*
X011871Y014111D02*
X011871Y013816D01*
X011576Y013816D01*
X011477Y013915D01*
X011576Y014013D01*
X011871Y014013D01*
X011871Y014111D02*
X011772Y014210D01*
X011576Y014210D01*
X011226Y014111D02*
X011226Y013816D01*
X010833Y013816D02*
X010833Y014407D01*
X010931Y014210D02*
X011128Y014210D01*
X011226Y014111D01*
X010931Y014210D02*
X010833Y014111D01*
X010600Y014210D02*
X010403Y014210D01*
X010501Y014308D02*
X010501Y013915D01*
X010600Y013816D01*
X010152Y013816D02*
X009857Y013816D01*
X009758Y013915D01*
X009857Y014013D01*
X010152Y014013D01*
X010152Y014111D02*
X010152Y013816D01*
X010152Y014111D02*
X010054Y014210D01*
X009857Y014210D01*
X009508Y014111D02*
X009508Y013816D01*
X009114Y013816D02*
X009114Y014210D01*
X009409Y014210D01*
X009508Y014111D01*
X009309Y014916D02*
X009112Y014916D01*
X009211Y014916D02*
X009211Y015310D01*
X009112Y015310D01*
X009211Y015507D02*
X009211Y015605D01*
X009542Y015310D02*
X009739Y015310D01*
X009640Y015408D02*
X009640Y015015D01*
X009739Y014916D01*
X009972Y015015D02*
X010070Y014916D01*
X010365Y014916D01*
X010365Y015310D01*
X010616Y015310D02*
X010911Y015310D01*
X011010Y015211D01*
X011010Y014916D01*
X011261Y015015D02*
X011261Y015211D01*
X011359Y015310D01*
X011556Y015310D01*
X011654Y015211D01*
X011654Y015113D01*
X011261Y015113D01*
X011261Y015015D02*
X011359Y014916D01*
X011556Y014916D01*
X011905Y014916D02*
X012201Y014916D01*
X012299Y015015D01*
X012201Y015113D01*
X012004Y015113D01*
X011905Y015211D01*
X012004Y015310D01*
X012299Y015310D01*
X013194Y015507D02*
X013194Y014916D01*
X013588Y014916D02*
X013588Y015507D01*
X013391Y015310D01*
X013194Y015507D01*
X013937Y015310D02*
X014134Y015310D01*
X014233Y015211D01*
X014233Y014916D01*
X013937Y014916D01*
X013839Y015015D01*
X013937Y015113D01*
X014233Y015113D01*
X014483Y015211D02*
X014582Y015310D01*
X014877Y015310D01*
X014779Y015113D02*
X014582Y015113D01*
X014483Y015211D01*
X014779Y015113D02*
X014877Y015015D01*
X014779Y014916D01*
X014483Y014916D01*
X015226Y015015D02*
X015325Y014916D01*
X015226Y015015D02*
X015226Y015408D01*
X015128Y015310D02*
X015325Y015310D01*
X015558Y015211D02*
X015558Y015015D01*
X015656Y014916D01*
X015853Y014916D01*
X015951Y015113D02*
X015558Y015113D01*
X015558Y015211D02*
X015656Y015310D01*
X015853Y015310D01*
X015951Y015211D01*
X015951Y015113D01*
X016202Y015113D02*
X016399Y015310D01*
X016497Y015310D01*
X016202Y015310D02*
X016202Y014916D01*
X015881Y014407D02*
X015881Y013816D01*
X015881Y014013D02*
X016177Y014210D01*
X016419Y014111D02*
X016615Y014111D01*
X016517Y014308D02*
X016615Y014407D01*
X016517Y014308D02*
X016517Y013816D01*
X016177Y013816D02*
X015881Y014013D01*
X015640Y014210D02*
X015541Y014210D01*
X015344Y014013D01*
X015344Y013816D02*
X015344Y014210D01*
X015093Y014111D02*
X015093Y013816D01*
X014798Y013816D01*
X014700Y013915D01*
X014798Y014013D01*
X015093Y014013D01*
X015093Y014111D02*
X014995Y014210D01*
X014798Y014210D01*
X016848Y014210D02*
X016848Y013915D01*
X016947Y013816D01*
X017242Y013816D01*
X017242Y014210D01*
X017493Y014210D02*
X017788Y014210D01*
X017886Y014111D01*
X017886Y013816D01*
X018137Y013816D02*
X018137Y013915D01*
X018236Y013915D01*
X018236Y013816D01*
X018137Y013816D01*
X018459Y013915D02*
X018558Y013816D01*
X018853Y013816D01*
X019104Y013915D02*
X019202Y013816D01*
X019399Y013816D01*
X019498Y013915D01*
X019498Y014111D01*
X019399Y014210D01*
X019202Y014210D01*
X019104Y014111D01*
X019104Y013915D01*
X018853Y014210D02*
X018558Y014210D01*
X018459Y014111D01*
X018459Y013915D01*
X017493Y013816D02*
X017493Y014210D01*
X017482Y014916D02*
X017679Y014916D01*
X017777Y015015D01*
X018028Y015015D02*
X018127Y014916D01*
X018324Y014916D01*
X018422Y015015D01*
X018422Y015211D01*
X018324Y015310D01*
X018127Y015310D01*
X018028Y015211D01*
X018028Y015015D01*
X017777Y015408D02*
X017679Y015507D01*
X017482Y015507D01*
X017384Y015408D01*
X017384Y015015D01*
X017482Y014916D01*
X018673Y014916D02*
X018673Y015310D01*
X018968Y015310D01*
X019066Y015211D01*
X019066Y014916D01*
X019416Y015015D02*
X019514Y014916D01*
X019416Y015015D02*
X019416Y015408D01*
X019514Y015310D02*
X019317Y015310D01*
X019747Y015310D02*
X019747Y014916D01*
X019747Y015113D02*
X019944Y015310D01*
X020042Y015310D01*
X020284Y015211D02*
X020284Y015015D01*
X020382Y014916D01*
X020579Y014916D01*
X020678Y015015D01*
X020678Y015211D01*
X020579Y015310D01*
X020382Y015310D01*
X020284Y015211D01*
X020929Y014916D02*
X021125Y014916D01*
X021027Y014916D02*
X021027Y015507D01*
X020929Y015507D01*
X021358Y015507D02*
X021457Y015507D01*
X021457Y014916D01*
X021555Y014916D02*
X021358Y014916D01*
X021788Y015015D02*
X021788Y015211D01*
X021886Y015310D01*
X022083Y015310D01*
X022182Y015211D01*
X022182Y015113D01*
X021788Y015113D01*
X021788Y015015D02*
X021886Y014916D01*
X022083Y014916D01*
X022433Y014916D02*
X022433Y015310D01*
X022629Y015310D02*
X022728Y015310D01*
X022629Y015310D02*
X022433Y015113D01*
X020142Y014111D02*
X020142Y013816D01*
X019945Y013816D02*
X019945Y014111D01*
X020044Y014210D01*
X020142Y014111D01*
X019945Y014111D02*
X019847Y014210D01*
X019749Y014210D01*
X019749Y013816D01*
X010616Y014916D02*
X010616Y015310D01*
X009972Y015310D02*
X009972Y015015D01*
X008861Y014916D02*
X008861Y015211D01*
X008763Y015310D01*
X008665Y015211D01*
X008665Y014916D01*
X008468Y014916D02*
X008468Y015310D01*
X008566Y015310D01*
X008665Y015211D01*
X008217Y015310D02*
X008217Y014916D01*
X007922Y014916D01*
X007823Y015015D01*
X007823Y015310D01*
X007492Y015507D02*
X007492Y014916D01*
X007394Y014916D02*
X007590Y014916D01*
X007161Y014916D02*
X006964Y014916D01*
X007062Y014916D02*
X007062Y015507D01*
X006964Y015507D02*
X007161Y015507D01*
X007394Y015507D02*
X007492Y015507D01*
D11*
X012089Y018331D02*
X012202Y018445D01*
X012429Y018445D01*
X012429Y018586D02*
X012089Y018586D01*
X012089Y018756D01*
X012145Y018813D01*
X012259Y018813D01*
X012315Y018756D01*
X012315Y018586D01*
X012315Y018700D02*
X012429Y018813D01*
X012429Y018955D02*
X012089Y018955D01*
X012089Y019181D01*
X012089Y019323D02*
X012089Y019550D01*
X012259Y019436D02*
X012259Y019323D01*
X012429Y019323D02*
X012089Y019323D01*
X012429Y019181D02*
X012429Y018955D01*
X012259Y018955D02*
X012259Y019068D01*
X012259Y018445D02*
X012259Y018218D01*
X012202Y018218D02*
X012089Y018331D01*
X012202Y018218D02*
X012429Y018218D01*
X013089Y018643D02*
X013145Y018586D01*
X013372Y018586D01*
X013429Y018643D01*
X013429Y018756D01*
X013372Y018813D01*
X013259Y018813D01*
X013259Y018700D01*
X013145Y018813D02*
X013089Y018756D01*
X013089Y018643D01*
X013089Y018955D02*
X013429Y019181D01*
X013089Y019181D01*
X013089Y019323D02*
X013089Y019493D01*
X013145Y019550D01*
X013372Y019550D01*
X013429Y019493D01*
X013429Y019323D01*
X013089Y019323D01*
X013089Y018955D02*
X013429Y018955D01*
X014089Y019068D02*
X014429Y019068D01*
X014429Y018955D02*
X014429Y019181D01*
X014372Y019323D02*
X014429Y019380D01*
X014429Y019493D01*
X014372Y019550D01*
X014315Y019550D01*
X014259Y019493D01*
X014259Y019436D01*
X014259Y019493D02*
X014202Y019550D01*
X014145Y019550D01*
X014089Y019493D01*
X014089Y019380D01*
X014145Y019323D01*
X014089Y019068D02*
X014202Y018955D01*
X015089Y019068D02*
X015429Y019068D01*
X015429Y018955D02*
X015429Y019181D01*
X015429Y019323D02*
X015202Y019550D01*
X015145Y019550D01*
X015089Y019493D01*
X015089Y019380D01*
X015145Y019323D01*
X015429Y019323D02*
X015429Y019550D01*
X016089Y019436D02*
X016429Y019436D01*
X016429Y019323D02*
X016429Y019550D01*
X016202Y019323D02*
X016089Y019436D01*
X016429Y019181D02*
X016429Y018955D01*
X016429Y019068D02*
X016089Y019068D01*
X016202Y018955D01*
X017089Y019068D02*
X017429Y019068D01*
X017429Y018955D02*
X017429Y019181D01*
X017372Y019323D02*
X017145Y019323D01*
X017089Y019380D01*
X017089Y019493D01*
X017145Y019550D01*
X017372Y019323D01*
X017429Y019380D01*
X017429Y019493D01*
X017372Y019550D01*
X017145Y019550D01*
X017089Y019068D02*
X017202Y018955D01*
X018089Y019380D02*
X018145Y019323D01*
X018202Y019323D01*
X018259Y019380D01*
X018259Y019550D01*
X018372Y019550D02*
X018145Y019550D01*
X018089Y019493D01*
X018089Y019380D01*
X018372Y019323D02*
X018429Y019380D01*
X018429Y019493D01*
X018372Y019550D01*
X019089Y019493D02*
X019145Y019550D01*
X019202Y019550D01*
X019259Y019493D01*
X019259Y019380D01*
X019202Y019323D01*
X019145Y019323D01*
X019089Y019380D01*
X019089Y019493D01*
X019259Y019493D02*
X019315Y019550D01*
X019372Y019550D01*
X019429Y019493D01*
X019429Y019380D01*
X019372Y019323D01*
X019315Y019323D01*
X019259Y019380D01*
X020589Y019323D02*
X020589Y019550D01*
X020645Y019550D01*
X020872Y019323D01*
X020929Y019323D01*
X021589Y019550D02*
X021645Y019436D01*
X021759Y019323D01*
X021759Y019493D01*
X021815Y019550D01*
X021872Y019550D01*
X021929Y019493D01*
X021929Y019380D01*
X021872Y019323D01*
X021759Y019323D01*
X022589Y019323D02*
X022759Y019323D01*
X022702Y019436D01*
X022702Y019493D01*
X022759Y019550D01*
X022872Y019550D01*
X022929Y019493D01*
X022929Y019380D01*
X022872Y019323D01*
X022589Y019323D02*
X022589Y019550D01*
X023589Y019493D02*
X023759Y019323D01*
X023759Y019550D01*
X023929Y019493D02*
X023589Y019493D01*
X024589Y019493D02*
X024645Y019550D01*
X024702Y019550D01*
X024759Y019493D01*
X024815Y019550D01*
X024872Y019550D01*
X024929Y019493D01*
X024929Y019380D01*
X024872Y019323D01*
X024759Y019436D02*
X024759Y019493D01*
X024589Y019493D02*
X024589Y019380D01*
X024645Y019323D01*
X025589Y019380D02*
X025645Y019323D01*
X025589Y019380D02*
X025589Y019493D01*
X025645Y019550D01*
X025702Y019550D01*
X025929Y019323D01*
X025929Y019550D01*
X026589Y019550D02*
X026929Y019323D01*
X026929Y019550D02*
X026589Y019323D01*
X026589Y019181D02*
X026589Y018955D01*
X026589Y019068D02*
X026929Y019068D01*
X027589Y019125D02*
X027589Y018955D01*
X027929Y018955D01*
X027815Y018955D02*
X027815Y019125D01*
X027759Y019181D01*
X027645Y019181D01*
X027589Y019125D01*
X027589Y019323D02*
X027929Y019550D01*
X027929Y019323D02*
X027589Y019550D01*
X027929Y019181D02*
X027815Y019068D01*
X015202Y018955D02*
X015089Y019068D01*
X011929Y010986D02*
X011759Y010816D01*
X011815Y010760D02*
X011589Y010986D01*
X011589Y010760D02*
X011929Y010760D01*
X011929Y010618D02*
X011929Y010391D01*
X011929Y010505D02*
X011589Y010505D01*
X011702Y010391D01*
X013289Y009232D02*
X013459Y009232D01*
X013516Y009175D01*
X013516Y009061D01*
X013459Y009005D01*
X013289Y009005D01*
X013289Y008891D02*
X013289Y009232D01*
X013657Y009232D02*
X013657Y008891D01*
X013771Y009005D01*
X013884Y008891D01*
X013884Y009232D01*
X014026Y009232D02*
X014196Y009232D01*
X014252Y009175D01*
X014252Y009061D01*
X014196Y009005D01*
X014026Y009005D01*
X014139Y009005D02*
X014252Y008891D01*
X014026Y008891D02*
X014026Y009232D01*
X012759Y010661D02*
X012761Y010724D01*
X012767Y010786D01*
X012777Y010848D01*
X012790Y010910D01*
X012808Y010970D01*
X012829Y011029D01*
X012854Y011087D01*
X012883Y011143D01*
X012915Y011197D01*
X012950Y011249D01*
X012988Y011298D01*
X013030Y011346D01*
X013074Y011390D01*
X013122Y011432D01*
X013171Y011470D01*
X013223Y011505D01*
X013277Y011537D01*
X013333Y011566D01*
X013391Y011591D01*
X013450Y011612D01*
X013510Y011630D01*
X013572Y011643D01*
X013634Y011653D01*
X013696Y011659D01*
X013759Y011661D01*
X013822Y011659D01*
X013884Y011653D01*
X013946Y011643D01*
X014008Y011630D01*
X014068Y011612D01*
X014127Y011591D01*
X014185Y011566D01*
X014241Y011537D01*
X014295Y011505D01*
X014347Y011470D01*
X014396Y011432D01*
X014444Y011390D01*
X014488Y011346D01*
X014530Y011298D01*
X014568Y011249D01*
X014603Y011197D01*
X014635Y011143D01*
X014664Y011087D01*
X014689Y011029D01*
X014710Y010970D01*
X014728Y010910D01*
X014741Y010848D01*
X014751Y010786D01*
X014757Y010724D01*
X014759Y010661D01*
X014757Y010598D01*
X014751Y010536D01*
X014741Y010474D01*
X014728Y010412D01*
X014710Y010352D01*
X014689Y010293D01*
X014664Y010235D01*
X014635Y010179D01*
X014603Y010125D01*
X014568Y010073D01*
X014530Y010024D01*
X014488Y009976D01*
X014444Y009932D01*
X014396Y009890D01*
X014347Y009852D01*
X014295Y009817D01*
X014241Y009785D01*
X014185Y009756D01*
X014127Y009731D01*
X014068Y009710D01*
X014008Y009692D01*
X013946Y009679D01*
X013884Y009669D01*
X013822Y009663D01*
X013759Y009661D01*
X013696Y009663D01*
X013634Y009669D01*
X013572Y009679D01*
X013510Y009692D01*
X013450Y009710D01*
X013391Y009731D01*
X013333Y009756D01*
X013277Y009785D01*
X013223Y009817D01*
X013171Y009852D01*
X013122Y009890D01*
X013074Y009932D01*
X013030Y009976D01*
X012988Y010024D01*
X012950Y010073D01*
X012915Y010125D01*
X012883Y010179D01*
X012854Y010235D01*
X012829Y010293D01*
X012808Y010352D01*
X012790Y010412D01*
X012777Y010474D01*
X012767Y010536D01*
X012761Y010598D01*
X012759Y010661D01*
X017089Y009175D02*
X017089Y009118D01*
X017146Y009061D01*
X017259Y009061D01*
X017316Y009005D01*
X017316Y008948D01*
X017259Y008891D01*
X017146Y008891D01*
X017089Y008948D01*
X017089Y009175D02*
X017146Y009232D01*
X017259Y009232D01*
X017316Y009175D01*
X017457Y009232D02*
X017684Y009232D01*
X017571Y009232D02*
X017571Y008891D01*
X017826Y008891D02*
X017826Y009118D01*
X017939Y009232D01*
X018052Y009118D01*
X018052Y008891D01*
X018052Y009061D02*
X017826Y009061D01*
X018194Y009232D02*
X018421Y009232D01*
X018307Y009232D02*
X018307Y008891D01*
X016759Y010661D02*
X016761Y010724D01*
X016767Y010786D01*
X016777Y010848D01*
X016790Y010910D01*
X016808Y010970D01*
X016829Y011029D01*
X016854Y011087D01*
X016883Y011143D01*
X016915Y011197D01*
X016950Y011249D01*
X016988Y011298D01*
X017030Y011346D01*
X017074Y011390D01*
X017122Y011432D01*
X017171Y011470D01*
X017223Y011505D01*
X017277Y011537D01*
X017333Y011566D01*
X017391Y011591D01*
X017450Y011612D01*
X017510Y011630D01*
X017572Y011643D01*
X017634Y011653D01*
X017696Y011659D01*
X017759Y011661D01*
X017822Y011659D01*
X017884Y011653D01*
X017946Y011643D01*
X018008Y011630D01*
X018068Y011612D01*
X018127Y011591D01*
X018185Y011566D01*
X018241Y011537D01*
X018295Y011505D01*
X018347Y011470D01*
X018396Y011432D01*
X018444Y011390D01*
X018488Y011346D01*
X018530Y011298D01*
X018568Y011249D01*
X018603Y011197D01*
X018635Y011143D01*
X018664Y011087D01*
X018689Y011029D01*
X018710Y010970D01*
X018728Y010910D01*
X018741Y010848D01*
X018751Y010786D01*
X018757Y010724D01*
X018759Y010661D01*
X018757Y010598D01*
X018751Y010536D01*
X018741Y010474D01*
X018728Y010412D01*
X018710Y010352D01*
X018689Y010293D01*
X018664Y010235D01*
X018635Y010179D01*
X018603Y010125D01*
X018568Y010073D01*
X018530Y010024D01*
X018488Y009976D01*
X018444Y009932D01*
X018396Y009890D01*
X018347Y009852D01*
X018295Y009817D01*
X018241Y009785D01*
X018185Y009756D01*
X018127Y009731D01*
X018068Y009710D01*
X018008Y009692D01*
X017946Y009679D01*
X017884Y009669D01*
X017822Y009663D01*
X017759Y009661D01*
X017696Y009663D01*
X017634Y009669D01*
X017572Y009679D01*
X017510Y009692D01*
X017450Y009710D01*
X017391Y009731D01*
X017333Y009756D01*
X017277Y009785D01*
X017223Y009817D01*
X017171Y009852D01*
X017122Y009890D01*
X017074Y009932D01*
X017030Y009976D01*
X016988Y010024D01*
X016950Y010073D01*
X016915Y010125D01*
X016883Y010179D01*
X016854Y010235D01*
X016829Y010293D01*
X016808Y010352D01*
X016790Y010412D01*
X016777Y010474D01*
X016767Y010536D01*
X016761Y010598D01*
X016759Y010661D01*
X016815Y003252D02*
X016589Y003252D01*
X016815Y003252D02*
X016929Y003139D01*
X016815Y003025D01*
X016589Y003025D01*
X016645Y002884D02*
X016702Y002884D01*
X016759Y002827D01*
X016815Y002884D01*
X016872Y002884D01*
X016929Y002827D01*
X016929Y002714D01*
X016872Y002657D01*
X016872Y002530D02*
X016929Y002530D01*
X016929Y002473D01*
X016872Y002473D01*
X016872Y002530D01*
X016872Y002331D02*
X016815Y002331D01*
X016759Y002275D01*
X016759Y002218D01*
X016759Y002275D02*
X016702Y002331D01*
X016645Y002331D01*
X016589Y002275D01*
X016589Y002161D01*
X016645Y002105D01*
X016759Y001963D02*
X016759Y001736D01*
X016872Y001850D02*
X016645Y001850D01*
X016872Y002105D02*
X016929Y002161D01*
X016929Y002275D01*
X016872Y002331D01*
X016645Y002657D02*
X016589Y002714D01*
X016589Y002827D01*
X016645Y002884D01*
X016759Y002827D02*
X016759Y002770D01*
X015929Y002586D02*
X015589Y002586D01*
X015589Y002473D02*
X015589Y002700D01*
X015645Y002331D02*
X015589Y002275D01*
X015589Y002161D01*
X015645Y002105D01*
X015702Y002105D01*
X015759Y002161D01*
X015759Y002275D01*
X015815Y002331D01*
X015872Y002331D01*
X015929Y002275D01*
X015929Y002161D01*
X015872Y002105D01*
X015929Y001963D02*
X015815Y001850D01*
X015815Y001906D02*
X015815Y001736D01*
X015929Y001736D02*
X015589Y001736D01*
X015589Y001906D01*
X015645Y001963D01*
X015759Y001963D01*
X015815Y001906D01*
X017589Y002105D02*
X017759Y002105D01*
X017702Y002218D01*
X017702Y002275D01*
X017759Y002331D01*
X017872Y002331D01*
X017929Y002275D01*
X017929Y002161D01*
X017872Y002105D01*
X017759Y001963D02*
X017759Y001736D01*
X017872Y001850D02*
X017645Y001850D01*
X017589Y002105D02*
X017589Y002331D01*
X017589Y002473D02*
X017815Y002473D01*
X017929Y002586D01*
X017815Y002700D01*
X017589Y002700D01*
X018589Y002643D02*
X018589Y002473D01*
X018929Y002473D01*
X018929Y002643D01*
X018872Y002700D01*
X018645Y002700D01*
X018589Y002643D01*
X018589Y002331D02*
X018929Y002331D01*
X018589Y002105D01*
X018929Y002105D01*
X018872Y001963D02*
X018759Y001963D01*
X018759Y001850D01*
X018872Y001963D02*
X018929Y001906D01*
X018929Y001793D01*
X018872Y001736D01*
X018645Y001736D01*
X018589Y001793D01*
X018589Y001906D01*
X018645Y001963D01*
X019589Y001906D02*
X019589Y001793D01*
X019645Y001736D01*
X019872Y001736D01*
X019929Y001793D01*
X019929Y001906D01*
X019872Y001963D01*
X019759Y001963D01*
X019759Y001850D01*
X019645Y001963D02*
X019589Y001906D01*
X019589Y002105D02*
X019929Y002331D01*
X019589Y002331D01*
X019589Y002473D02*
X019589Y002643D01*
X019645Y002700D01*
X019872Y002700D01*
X019929Y002643D01*
X019929Y002473D01*
X019589Y002473D01*
X019589Y002105D02*
X019929Y002105D01*
X020589Y002105D02*
X020589Y002218D01*
X020589Y002161D02*
X020929Y002161D01*
X020929Y002105D02*
X020929Y002218D01*
X020929Y002350D02*
X020589Y002350D01*
X020929Y002577D01*
X020589Y002577D01*
X020589Y001963D02*
X020815Y001963D01*
X020929Y001850D01*
X020815Y001736D01*
X020589Y001736D01*
X022589Y001793D02*
X022589Y001906D01*
X022645Y001963D01*
X022872Y001736D01*
X022929Y001793D01*
X022929Y001906D01*
X022872Y001963D01*
X022645Y001963D01*
X022589Y001793D02*
X022645Y001736D01*
X022872Y001736D01*
X023589Y001850D02*
X023929Y001850D01*
X023929Y001963D02*
X023929Y001736D01*
X023702Y001736D02*
X023589Y001850D01*
X023770Y002336D02*
X023770Y002563D01*
X023883Y002677D01*
X023996Y002563D01*
X023996Y002336D01*
X024138Y002336D02*
X024138Y002563D01*
X024308Y002563D01*
X024365Y002506D01*
X024365Y002336D01*
X024506Y002393D02*
X024563Y002450D01*
X024733Y002450D01*
X024733Y002506D02*
X024733Y002336D01*
X024563Y002336D01*
X024506Y002393D01*
X024563Y002563D02*
X024676Y002563D01*
X024733Y002506D01*
X024875Y002336D02*
X024988Y002336D01*
X024931Y002336D02*
X024931Y002677D01*
X024875Y002677D01*
X025120Y002506D02*
X025120Y002393D01*
X025177Y002336D01*
X025290Y002336D01*
X025347Y002393D01*
X025347Y002506D01*
X025290Y002563D01*
X025177Y002563D01*
X025120Y002506D01*
X025488Y002506D02*
X025488Y002393D01*
X025545Y002336D01*
X025715Y002336D01*
X025715Y002280D02*
X025715Y002563D01*
X025545Y002563D01*
X025488Y002506D01*
X025602Y002223D02*
X025659Y002223D01*
X025715Y002280D01*
X025702Y001963D02*
X025759Y001906D01*
X025815Y001963D01*
X025872Y001963D01*
X025929Y001906D01*
X025929Y001793D01*
X025872Y001736D01*
X025759Y001850D02*
X025759Y001906D01*
X025702Y001963D02*
X025645Y001963D01*
X025589Y001906D01*
X025589Y001793D01*
X025645Y001736D01*
X024929Y001736D02*
X024702Y001963D01*
X024645Y001963D01*
X024589Y001906D01*
X024589Y001793D01*
X024645Y001736D01*
X024929Y001736D02*
X024929Y001963D01*
X023996Y002506D02*
X023770Y002506D01*
X026225Y002336D02*
X026338Y002336D01*
X026282Y002336D02*
X026282Y002677D01*
X026338Y002677D02*
X026225Y002677D01*
X026471Y002563D02*
X026641Y002563D01*
X026697Y002506D01*
X026697Y002336D01*
X026471Y002336D02*
X026471Y002563D01*
X026759Y001963D02*
X026759Y001736D01*
X026589Y001906D01*
X026929Y001906D01*
X027589Y001963D02*
X027589Y001736D01*
X027759Y001736D01*
X027702Y001850D01*
X027702Y001906D01*
X027759Y001963D01*
X027872Y001963D01*
X027929Y001906D01*
X027929Y001793D01*
X027872Y001736D01*
D12*
X006669Y004501D02*
X006599Y004571D01*
X006599Y004711D01*
X006669Y004781D01*
X006809Y004781D02*
X006809Y004641D01*
X006809Y004781D02*
X006949Y004781D01*
X007019Y004711D01*
X007019Y004571D01*
X006949Y004501D01*
X006669Y004501D01*
X006599Y004962D02*
X006599Y005172D01*
X006669Y005242D01*
X006809Y005242D01*
X006879Y005172D01*
X006879Y004962D01*
X007019Y004962D02*
X006599Y004962D01*
X007259Y004911D02*
X007259Y005411D01*
X007509Y005661D01*
X007259Y005911D01*
X007259Y006411D01*
X007509Y006661D01*
X007259Y006911D01*
X007259Y007411D01*
X007509Y007661D01*
X008009Y007661D01*
X008259Y007411D01*
X008259Y006911D01*
X008009Y006661D01*
X008259Y006411D01*
X008259Y005911D01*
X008009Y005661D01*
X008259Y005411D01*
X008259Y004911D01*
X008009Y004661D01*
X008259Y004411D01*
X008259Y003911D01*
X008009Y003661D01*
X008259Y003411D01*
X008259Y002911D01*
X008009Y002661D01*
X007509Y002661D01*
X007259Y002911D01*
X007259Y003411D01*
X007509Y003661D01*
X007259Y003911D01*
X007259Y004411D01*
X007509Y004661D01*
X007259Y004911D01*
X006949Y005422D02*
X007019Y005492D01*
X007019Y005632D01*
X006949Y005702D01*
X006879Y005702D01*
X006809Y005632D01*
X006809Y005492D01*
X006739Y005422D01*
X006669Y005422D01*
X006599Y005492D01*
X006599Y005632D01*
X006669Y005702D01*
X011459Y009661D02*
X011759Y009661D01*
X011759Y009561D01*
X011759Y009661D02*
X012059Y009661D01*
X012059Y011661D01*
X011759Y011661D01*
X011759Y011761D01*
X011759Y011661D02*
X011459Y011661D01*
X011459Y009661D01*
X014759Y009911D02*
X014759Y011411D01*
X014959Y011661D02*
X015259Y011661D01*
X015259Y011761D01*
X015259Y011661D02*
X015559Y011661D01*
X015559Y009661D01*
X015259Y009661D01*
X015259Y009561D01*
X015259Y009661D02*
X014959Y009661D01*
X014959Y011661D01*
X018759Y011411D02*
X018759Y009911D01*
X018959Y009661D02*
X019259Y009661D01*
X019259Y009561D01*
X019259Y009661D02*
X019559Y009661D01*
X019559Y011661D01*
X019259Y011661D01*
X019259Y011761D01*
X019259Y011661D02*
X018959Y011661D01*
X018959Y009661D01*
X020599Y008872D02*
X020809Y008872D01*
X020879Y008802D01*
X020879Y008731D01*
X020809Y008661D01*
X020599Y008661D01*
X020599Y008451D02*
X020809Y008451D01*
X020879Y008521D01*
X020879Y008591D01*
X020809Y008661D01*
X021059Y008731D02*
X021059Y008521D01*
X021129Y008451D01*
X021339Y008451D01*
X021339Y008731D01*
X021520Y008731D02*
X021660Y008731D01*
X021590Y008802D02*
X021590Y008521D01*
X021660Y008451D01*
X021897Y008521D02*
X021967Y008451D01*
X021897Y008521D02*
X021897Y008802D01*
X021967Y008731D02*
X021826Y008731D01*
X022133Y008661D02*
X022133Y008521D01*
X022203Y008451D01*
X022344Y008451D01*
X022414Y008521D01*
X022414Y008661D01*
X022344Y008731D01*
X022203Y008731D01*
X022133Y008661D01*
X022594Y008731D02*
X022804Y008731D01*
X022874Y008661D01*
X022874Y008451D01*
X022594Y008451D02*
X022594Y008731D01*
X022645Y009106D02*
X022645Y010268D01*
X022448Y010268D01*
X022448Y011055D01*
X022645Y011055D01*
X022645Y012216D01*
X020873Y012216D01*
X020873Y009106D01*
X022645Y009106D01*
X022509Y008161D02*
X022009Y008161D01*
X021759Y007911D01*
X021759Y007411D01*
X022009Y007161D01*
X021759Y006911D01*
X021759Y006411D01*
X022009Y006161D01*
X021759Y005911D01*
X021759Y005411D01*
X022009Y005161D01*
X021759Y004911D01*
X021759Y004411D01*
X022009Y004161D01*
X021759Y003911D01*
X021759Y003411D01*
X022009Y003161D01*
X021759Y002911D01*
X021759Y002411D01*
X022009Y002161D01*
X022509Y002161D01*
X022759Y002411D01*
X022759Y002911D01*
X022509Y003161D01*
X022759Y003411D01*
X022759Y003911D01*
X022509Y004161D01*
X022759Y004411D01*
X022759Y004911D01*
X022509Y005161D01*
X022759Y005411D01*
X022759Y005911D01*
X022509Y006161D01*
X022759Y006411D01*
X022759Y006911D01*
X022509Y007161D01*
X022759Y007411D01*
X022759Y007911D01*
X022509Y008161D01*
X023339Y007939D02*
X023339Y007799D01*
X023409Y007729D01*
X023549Y007729D01*
X023619Y007799D01*
X023619Y007939D01*
X023479Y008009D02*
X023479Y007729D01*
X023619Y007549D02*
X023339Y007549D01*
X023619Y007549D02*
X023619Y007339D01*
X023549Y007269D01*
X023339Y007269D01*
X023199Y007032D02*
X023619Y007032D01*
X023619Y006962D02*
X023619Y007102D01*
X023549Y006781D02*
X023619Y006711D01*
X023619Y006501D01*
X023199Y006501D01*
X023199Y006711D01*
X023269Y006781D01*
X023339Y006781D01*
X023409Y006711D01*
X023409Y006501D01*
X023409Y006711D02*
X023479Y006781D01*
X023549Y006781D01*
X023199Y006962D02*
X023199Y007032D01*
X023979Y007163D02*
X024049Y007163D01*
X024189Y007163D02*
X024189Y007093D01*
X024189Y007163D02*
X024469Y007163D01*
X024469Y007093D02*
X024469Y007233D01*
X024399Y007400D02*
X024469Y007470D01*
X024469Y007680D01*
X024539Y007680D02*
X024189Y007680D01*
X024189Y007470D01*
X024259Y007400D01*
X024399Y007400D01*
X024609Y007540D02*
X024609Y007610D01*
X024539Y007680D01*
X024469Y007860D02*
X024049Y007860D01*
X024189Y007930D02*
X024189Y008070D01*
X024259Y008140D01*
X024469Y008140D01*
X024399Y008390D02*
X024469Y008460D01*
X024399Y008390D02*
X024119Y008390D01*
X024189Y008320D02*
X024189Y008460D01*
X024259Y008627D02*
X024189Y008697D01*
X024189Y008907D01*
X024329Y008837D02*
X024399Y008907D01*
X024469Y008837D01*
X024469Y008627D01*
X024329Y008697D02*
X024259Y008627D01*
X024329Y008697D02*
X024329Y008837D01*
X024189Y007930D02*
X024259Y007860D01*
X023479Y008009D02*
X023409Y008009D01*
X023339Y007939D01*
X024469Y006913D02*
X024469Y006632D01*
X024049Y006632D01*
X024259Y005992D02*
X024189Y005922D01*
X024189Y005782D01*
X024259Y005712D01*
X024399Y005712D01*
X024469Y005782D01*
X024469Y005922D01*
X024399Y005992D01*
X024259Y005992D01*
X024049Y005531D02*
X024049Y005251D01*
X024049Y005391D02*
X024469Y005391D01*
X024822Y004161D02*
X029940Y004161D01*
X029940Y010161D01*
X024822Y010161D01*
X024822Y004161D01*
X021559Y004112D02*
X021139Y004112D01*
X021139Y004322D01*
X021209Y004392D01*
X021349Y004392D01*
X021419Y004322D01*
X021419Y004112D01*
X021349Y003931D02*
X021069Y003931D01*
X020999Y003861D01*
X020999Y003721D01*
X021069Y003651D01*
X021349Y003651D01*
X021419Y003721D01*
X021419Y003861D01*
X021349Y003931D01*
X021349Y004572D02*
X021209Y004572D01*
X021139Y004642D01*
X021139Y004782D01*
X021209Y004852D01*
X021279Y004852D01*
X021279Y004572D01*
X021349Y004572D02*
X021419Y004642D01*
X021419Y004782D01*
X021419Y005032D02*
X021139Y005032D01*
X021139Y005242D01*
X021209Y005313D01*
X021419Y005313D01*
X021419Y005493D02*
X020999Y005493D01*
X021419Y005493D02*
X021419Y005773D01*
X021349Y005953D02*
X021209Y005953D01*
X021139Y006023D01*
X021139Y006163D01*
X021209Y006233D01*
X021349Y006233D01*
X021419Y006163D01*
X021419Y006023D01*
X021349Y005953D01*
X021349Y006413D02*
X021209Y006413D01*
X021139Y006483D01*
X021139Y006694D01*
X021489Y006694D01*
X021559Y006624D01*
X021559Y006554D01*
X021419Y006483D02*
X021419Y006694D01*
X021419Y006483D02*
X021349Y006413D01*
X021220Y007451D02*
X021220Y007872D01*
X021500Y007451D01*
X021500Y007872D01*
X021039Y007802D02*
X021039Y007661D01*
X020969Y007591D01*
X020759Y007591D01*
X020759Y007451D02*
X020759Y007872D01*
X020969Y007872D01*
X021039Y007802D01*
X020899Y007591D02*
X021039Y007451D01*
X020579Y007521D02*
X020579Y007661D01*
X020439Y007661D01*
X020299Y007521D02*
X020369Y007451D01*
X020509Y007451D01*
X020579Y007521D01*
X020299Y007521D02*
X020299Y007802D01*
X020369Y007872D01*
X020509Y007872D01*
X020579Y007802D01*
X020599Y008451D02*
X020599Y008872D01*
X024822Y011161D02*
X029940Y011161D01*
X029940Y017161D01*
X024822Y017161D01*
X024822Y011161D01*
X024049Y012951D02*
X024049Y013231D01*
X024049Y013091D02*
X024469Y013091D01*
X024399Y013412D02*
X024469Y013482D01*
X024469Y013622D01*
X024399Y013692D01*
X024259Y013692D01*
X024189Y013622D01*
X024189Y013482D01*
X024259Y013412D01*
X024399Y013412D01*
X023719Y013551D02*
X023299Y013551D01*
X023299Y013761D01*
X023369Y013831D01*
X023509Y013831D01*
X023579Y013761D01*
X023579Y013551D01*
X023579Y013691D02*
X023719Y013831D01*
X023649Y014012D02*
X023509Y014012D01*
X023439Y014082D01*
X023439Y014222D01*
X023509Y014292D01*
X023579Y014292D01*
X023579Y014012D01*
X023649Y014012D02*
X023719Y014082D01*
X023719Y014222D01*
X023649Y014472D02*
X023509Y014472D01*
X023439Y014542D01*
X023439Y014752D01*
X023299Y014752D02*
X023719Y014752D01*
X023719Y014542D01*
X023649Y014472D01*
X024049Y014472D02*
X024049Y014332D01*
X024049Y014402D02*
X024469Y014402D01*
X024469Y014332D02*
X024469Y014472D01*
X024469Y014639D02*
X024049Y014639D01*
X024049Y014849D01*
X024119Y014919D01*
X024259Y014919D01*
X024329Y014849D01*
X024329Y014639D01*
X024329Y014779D02*
X024469Y014919D01*
X024469Y015100D02*
X024469Y015310D01*
X024399Y015380D01*
X024329Y015310D01*
X024329Y015170D01*
X024259Y015100D01*
X024189Y015170D01*
X024189Y015380D01*
X021550Y003172D02*
X021270Y002891D01*
X021340Y002961D02*
X021550Y002751D01*
X021270Y002751D02*
X021270Y003172D01*
X020809Y003172D02*
X020809Y002751D01*
X021089Y002751D01*
X020629Y002821D02*
X020559Y002751D01*
X020349Y002751D01*
X020349Y003172D01*
X020559Y003172D01*
X020629Y003102D01*
X020629Y003031D01*
X020559Y002961D01*
X020349Y002961D01*
X020559Y002961D02*
X020629Y002891D01*
X020629Y002821D01*
D13*
X018791Y011441D02*
X018719Y011387D01*
X018720Y011388D02*
X018677Y011441D01*
X018632Y011492D01*
X018583Y011540D01*
X018532Y011585D01*
X018478Y011628D01*
X018422Y011667D01*
X018364Y011703D01*
X018304Y011736D01*
X018243Y011765D01*
X018179Y011790D01*
X018115Y011812D01*
X018049Y011831D01*
X017982Y011845D01*
X017915Y011856D01*
X017847Y011863D01*
X017779Y011866D01*
X017710Y011865D01*
X017642Y011860D01*
X017574Y011852D01*
X017507Y011839D01*
X017441Y011823D01*
X017376Y011803D01*
X017311Y011780D01*
X017249Y011753D01*
X017188Y011722D01*
X017129Y011688D01*
X017071Y011651D01*
X017016Y011610D01*
X016964Y011566D01*
X016914Y011520D01*
X016867Y011471D01*
X016822Y011419D01*
X016781Y011365D01*
X016742Y011308D01*
X016707Y011249D01*
X016676Y011189D01*
X016648Y011127D01*
X016623Y011063D01*
X016602Y010998D01*
X016585Y010932D01*
X016571Y010865D01*
X016562Y010797D01*
X016556Y010729D01*
X016554Y010661D01*
X016556Y010593D01*
X016562Y010525D01*
X016571Y010457D01*
X016585Y010390D01*
X016602Y010324D01*
X016623Y010259D01*
X016648Y010195D01*
X016676Y010133D01*
X016707Y010073D01*
X016742Y010014D01*
X016781Y009957D01*
X016822Y009903D01*
X016867Y009851D01*
X016914Y009802D01*
X016964Y009756D01*
X017016Y009712D01*
X017071Y009671D01*
X017129Y009634D01*
X017188Y009600D01*
X017249Y009569D01*
X017311Y009542D01*
X017376Y009519D01*
X017441Y009499D01*
X017507Y009483D01*
X017574Y009470D01*
X017642Y009462D01*
X017710Y009457D01*
X017779Y009456D01*
X017847Y009459D01*
X017915Y009466D01*
X017982Y009477D01*
X018049Y009491D01*
X018115Y009510D01*
X018179Y009532D01*
X018243Y009557D01*
X018304Y009586D01*
X018364Y009619D01*
X018422Y009655D01*
X018478Y009694D01*
X018532Y009737D01*
X018583Y009782D01*
X018632Y009830D01*
X018677Y009881D01*
X018720Y009934D01*
X018791Y009881D01*
X018792Y009880D01*
X018748Y009825D01*
X018700Y009772D01*
X018650Y009721D01*
X018597Y009674D01*
X018542Y009630D01*
X018484Y009588D01*
X018424Y009550D01*
X018363Y009515D01*
X018299Y009484D01*
X018234Y009456D01*
X018167Y009432D01*
X018099Y009411D01*
X018030Y009395D01*
X017960Y009382D01*
X017890Y009373D01*
X017819Y009367D01*
X017748Y009366D01*
X017677Y009369D01*
X017606Y009375D01*
X017536Y009385D01*
X017467Y009399D01*
X017398Y009417D01*
X017330Y009439D01*
X017264Y009464D01*
X017199Y009493D01*
X017136Y009526D01*
X017075Y009562D01*
X017016Y009601D01*
X016959Y009643D01*
X016904Y009688D01*
X016852Y009737D01*
X016803Y009788D01*
X016756Y009841D01*
X016713Y009898D01*
X016673Y009956D01*
X016636Y010017D01*
X016602Y010079D01*
X016572Y010143D01*
X016545Y010209D01*
X016522Y010276D01*
X016503Y010345D01*
X016488Y010414D01*
X016476Y010484D01*
X016468Y010555D01*
X016464Y010626D01*
X016464Y010696D01*
X016468Y010767D01*
X016476Y010838D01*
X016488Y010908D01*
X016503Y010977D01*
X016522Y011046D01*
X016545Y011113D01*
X016572Y011179D01*
X016602Y011243D01*
X016636Y011305D01*
X016673Y011366D01*
X016713Y011424D01*
X016756Y011481D01*
X016803Y011534D01*
X016852Y011585D01*
X016904Y011634D01*
X016959Y011679D01*
X017016Y011721D01*
X017075Y011760D01*
X017136Y011796D01*
X017199Y011829D01*
X017264Y011858D01*
X017330Y011883D01*
X017398Y011905D01*
X017467Y011923D01*
X017536Y011937D01*
X017606Y011947D01*
X017677Y011953D01*
X017748Y011956D01*
X017819Y011955D01*
X017890Y011949D01*
X017960Y011940D01*
X018030Y011927D01*
X018099Y011911D01*
X018167Y011890D01*
X018234Y011866D01*
X018299Y011838D01*
X018363Y011807D01*
X018424Y011772D01*
X018484Y011734D01*
X018542Y011692D01*
X018597Y011648D01*
X018650Y011601D01*
X018700Y011550D01*
X018748Y011497D01*
X018792Y011442D01*
X018785Y011437D01*
X018740Y011492D01*
X018693Y011545D01*
X018642Y011596D01*
X018589Y011643D01*
X018533Y011688D01*
X018475Y011729D01*
X018415Y011767D01*
X018353Y011802D01*
X018289Y011833D01*
X018223Y011860D01*
X018156Y011884D01*
X018087Y011904D01*
X018018Y011921D01*
X017948Y011933D01*
X017877Y011942D01*
X017806Y011946D01*
X017735Y011947D01*
X017664Y011943D01*
X017593Y011936D01*
X017522Y011925D01*
X017453Y011910D01*
X017384Y011891D01*
X017316Y011868D01*
X017250Y011842D01*
X017185Y011812D01*
X017123Y011778D01*
X017062Y011742D01*
X017003Y011701D01*
X016946Y011658D01*
X016892Y011611D01*
X016841Y011562D01*
X016793Y011509D01*
X016747Y011455D01*
X016705Y011397D01*
X016666Y011338D01*
X016630Y011276D01*
X016597Y011213D01*
X016569Y011148D01*
X016543Y011081D01*
X016522Y011013D01*
X016504Y010944D01*
X016491Y010874D01*
X016481Y010803D01*
X016475Y010732D01*
X016473Y010661D01*
X016475Y010590D01*
X016481Y010519D01*
X016491Y010448D01*
X016504Y010378D01*
X016522Y010309D01*
X016543Y010241D01*
X016569Y010174D01*
X016597Y010109D01*
X016630Y010046D01*
X016666Y009984D01*
X016705Y009925D01*
X016747Y009867D01*
X016793Y009813D01*
X016841Y009760D01*
X016892Y009711D01*
X016946Y009664D01*
X017003Y009621D01*
X017062Y009580D01*
X017123Y009544D01*
X017185Y009510D01*
X017250Y009480D01*
X017316Y009454D01*
X017384Y009431D01*
X017453Y009412D01*
X017522Y009397D01*
X017593Y009386D01*
X017664Y009379D01*
X017735Y009375D01*
X017806Y009376D01*
X017877Y009380D01*
X017948Y009389D01*
X018018Y009401D01*
X018087Y009418D01*
X018156Y009438D01*
X018223Y009462D01*
X018289Y009489D01*
X018353Y009520D01*
X018415Y009555D01*
X018475Y009593D01*
X018533Y009634D01*
X018589Y009679D01*
X018642Y009726D01*
X018693Y009777D01*
X018740Y009830D01*
X018785Y009885D01*
X018778Y009891D01*
X018733Y009836D01*
X018686Y009783D01*
X018636Y009733D01*
X018583Y009686D01*
X018528Y009642D01*
X018470Y009600D01*
X018411Y009563D01*
X018349Y009528D01*
X018285Y009497D01*
X018220Y009470D01*
X018153Y009446D01*
X018085Y009426D01*
X018016Y009410D01*
X017947Y009398D01*
X017876Y009389D01*
X017806Y009385D01*
X017735Y009384D01*
X017664Y009388D01*
X017594Y009395D01*
X017524Y009406D01*
X017455Y009421D01*
X017387Y009440D01*
X017319Y009462D01*
X017254Y009488D01*
X017189Y009518D01*
X017127Y009551D01*
X017067Y009588D01*
X017008Y009628D01*
X016952Y009671D01*
X016898Y009717D01*
X016848Y009767D01*
X016799Y009818D01*
X016754Y009873D01*
X016712Y009930D01*
X016673Y009989D01*
X016638Y010050D01*
X016605Y010113D01*
X016577Y010178D01*
X016552Y010244D01*
X016531Y010312D01*
X016513Y010380D01*
X016500Y010450D01*
X016490Y010520D01*
X016484Y010590D01*
X016482Y010661D01*
X016484Y010732D01*
X016490Y010802D01*
X016500Y010872D01*
X016513Y010942D01*
X016531Y011010D01*
X016552Y011078D01*
X016577Y011144D01*
X016605Y011209D01*
X016638Y011272D01*
X016673Y011333D01*
X016712Y011392D01*
X016754Y011449D01*
X016799Y011504D01*
X016848Y011555D01*
X016898Y011605D01*
X016952Y011651D01*
X017008Y011694D01*
X017067Y011734D01*
X017127Y011771D01*
X017189Y011804D01*
X017254Y011834D01*
X017319Y011860D01*
X017387Y011882D01*
X017455Y011901D01*
X017524Y011916D01*
X017594Y011927D01*
X017664Y011934D01*
X017735Y011938D01*
X017806Y011937D01*
X017876Y011933D01*
X017947Y011924D01*
X018016Y011912D01*
X018085Y011896D01*
X018153Y011876D01*
X018220Y011852D01*
X018285Y011825D01*
X018349Y011794D01*
X018411Y011759D01*
X018470Y011722D01*
X018528Y011680D01*
X018583Y011636D01*
X018636Y011589D01*
X018686Y011539D01*
X018733Y011486D01*
X018778Y011431D01*
X018770Y011426D01*
X018726Y011481D01*
X018678Y011534D01*
X018628Y011584D01*
X018575Y011632D01*
X018519Y011676D01*
X018461Y011717D01*
X018401Y011754D01*
X018339Y011789D01*
X018275Y011819D01*
X018209Y011846D01*
X018142Y011870D01*
X018074Y011889D01*
X018004Y011905D01*
X017934Y011917D01*
X017864Y011925D01*
X017793Y011929D01*
X017722Y011928D01*
X017651Y011924D01*
X017580Y011916D01*
X017510Y011904D01*
X017441Y011888D01*
X017373Y011869D01*
X017305Y011845D01*
X017240Y011818D01*
X017176Y011787D01*
X017114Y011753D01*
X017054Y011715D01*
X016996Y011673D01*
X016940Y011629D01*
X016887Y011582D01*
X016837Y011531D01*
X016790Y011478D01*
X016745Y011423D01*
X016704Y011365D01*
X016667Y011305D01*
X016632Y011242D01*
X016601Y011178D01*
X016574Y011113D01*
X016551Y011046D01*
X016531Y010977D01*
X016515Y010908D01*
X016503Y010838D01*
X016495Y010767D01*
X016491Y010697D01*
X016491Y010625D01*
X016495Y010555D01*
X016503Y010484D01*
X016515Y010414D01*
X016531Y010345D01*
X016551Y010276D01*
X016574Y010209D01*
X016601Y010144D01*
X016632Y010080D01*
X016667Y010017D01*
X016704Y009957D01*
X016745Y009899D01*
X016790Y009844D01*
X016837Y009791D01*
X016887Y009740D01*
X016940Y009693D01*
X016996Y009649D01*
X017054Y009607D01*
X017114Y009569D01*
X017176Y009535D01*
X017240Y009504D01*
X017305Y009477D01*
X017373Y009453D01*
X017441Y009434D01*
X017510Y009418D01*
X017580Y009406D01*
X017651Y009398D01*
X017722Y009394D01*
X017793Y009393D01*
X017864Y009397D01*
X017934Y009405D01*
X018004Y009417D01*
X018074Y009433D01*
X018142Y009452D01*
X018209Y009476D01*
X018275Y009503D01*
X018339Y009533D01*
X018401Y009568D01*
X018461Y009605D01*
X018519Y009646D01*
X018575Y009690D01*
X018628Y009738D01*
X018678Y009788D01*
X018726Y009841D01*
X018770Y009896D01*
X018763Y009902D01*
X018719Y009847D01*
X018672Y009794D01*
X018622Y009744D01*
X018569Y009697D01*
X018514Y009653D01*
X018456Y009613D01*
X018397Y009575D01*
X018335Y009541D01*
X018271Y009511D01*
X018206Y009484D01*
X018139Y009461D01*
X018071Y009441D01*
X018003Y009426D01*
X017933Y009414D01*
X017863Y009406D01*
X017792Y009402D01*
X017722Y009403D01*
X017651Y009407D01*
X017581Y009415D01*
X017512Y009427D01*
X017443Y009442D01*
X017375Y009462D01*
X017309Y009485D01*
X017244Y009512D01*
X017180Y009543D01*
X017118Y009577D01*
X017059Y009615D01*
X017001Y009656D01*
X016946Y009700D01*
X016893Y009747D01*
X016844Y009797D01*
X016797Y009849D01*
X016753Y009905D01*
X016712Y009962D01*
X016674Y010022D01*
X016640Y010084D01*
X016610Y010147D01*
X016583Y010212D01*
X016559Y010279D01*
X016540Y010347D01*
X016524Y010416D01*
X016512Y010485D01*
X016504Y010555D01*
X016500Y010626D01*
X016500Y010696D01*
X016504Y010767D01*
X016512Y010837D01*
X016524Y010906D01*
X016540Y010975D01*
X016559Y011043D01*
X016583Y011110D01*
X016610Y011175D01*
X016640Y011238D01*
X016674Y011300D01*
X016712Y011360D01*
X016753Y011417D01*
X016797Y011473D01*
X016844Y011525D01*
X016893Y011575D01*
X016946Y011622D01*
X017001Y011666D01*
X017059Y011707D01*
X017118Y011745D01*
X017180Y011779D01*
X017244Y011810D01*
X017309Y011837D01*
X017375Y011860D01*
X017443Y011880D01*
X017512Y011895D01*
X017581Y011907D01*
X017651Y011915D01*
X017722Y011919D01*
X017792Y011920D01*
X017863Y011916D01*
X017933Y011908D01*
X018003Y011896D01*
X018071Y011881D01*
X018139Y011861D01*
X018206Y011838D01*
X018271Y011811D01*
X018335Y011781D01*
X018397Y011747D01*
X018456Y011709D01*
X018514Y011669D01*
X018569Y011625D01*
X018622Y011578D01*
X018672Y011528D01*
X018719Y011475D01*
X018763Y011420D01*
X018756Y011415D01*
X018712Y011470D01*
X018665Y011522D01*
X018616Y011571D01*
X018563Y011618D01*
X018509Y011661D01*
X018451Y011702D01*
X018392Y011739D01*
X018331Y011773D01*
X018267Y011803D01*
X018203Y011830D01*
X018136Y011853D01*
X018069Y011872D01*
X018001Y011887D01*
X017932Y011899D01*
X017862Y011907D01*
X017792Y011911D01*
X017722Y011910D01*
X017652Y011906D01*
X017583Y011898D01*
X017514Y011887D01*
X017445Y011871D01*
X017378Y011852D01*
X017312Y011828D01*
X017247Y011801D01*
X017184Y011771D01*
X017123Y011737D01*
X017064Y011700D01*
X017006Y011659D01*
X016952Y011615D01*
X016900Y011569D01*
X016850Y011519D01*
X016803Y011467D01*
X016760Y011412D01*
X016719Y011355D01*
X016682Y011296D01*
X016648Y011234D01*
X016618Y011171D01*
X016591Y011106D01*
X016568Y011040D01*
X016549Y010973D01*
X016533Y010905D01*
X016521Y010836D01*
X016513Y010766D01*
X016509Y010696D01*
X016509Y010626D01*
X016513Y010556D01*
X016521Y010486D01*
X016533Y010417D01*
X016549Y010349D01*
X016568Y010282D01*
X016591Y010216D01*
X016618Y010151D01*
X016648Y010088D01*
X016682Y010026D01*
X016719Y009967D01*
X016760Y009910D01*
X016803Y009855D01*
X016850Y009803D01*
X016900Y009753D01*
X016952Y009707D01*
X017006Y009663D01*
X017064Y009622D01*
X017123Y009585D01*
X017184Y009551D01*
X017247Y009521D01*
X017312Y009494D01*
X017378Y009470D01*
X017445Y009451D01*
X017514Y009435D01*
X017583Y009424D01*
X017652Y009416D01*
X017722Y009412D01*
X017792Y009411D01*
X017862Y009415D01*
X017932Y009423D01*
X018001Y009435D01*
X018069Y009450D01*
X018136Y009469D01*
X018203Y009492D01*
X018267Y009519D01*
X018331Y009549D01*
X018392Y009583D01*
X018451Y009620D01*
X018509Y009661D01*
X018563Y009704D01*
X018616Y009751D01*
X018665Y009800D01*
X018712Y009852D01*
X018756Y009907D01*
X018749Y009912D01*
X018705Y009858D01*
X018659Y009806D01*
X018610Y009757D01*
X018558Y009711D01*
X018503Y009668D01*
X018446Y009628D01*
X018387Y009591D01*
X018326Y009557D01*
X018264Y009527D01*
X018199Y009501D01*
X018134Y009478D01*
X018067Y009459D01*
X017999Y009443D01*
X017930Y009432D01*
X017861Y009424D01*
X017792Y009420D01*
X017722Y009421D01*
X017653Y009425D01*
X017584Y009432D01*
X017515Y009444D01*
X017448Y009460D01*
X017381Y009479D01*
X017315Y009502D01*
X017251Y009529D01*
X017188Y009559D01*
X017127Y009593D01*
X017069Y009630D01*
X017012Y009670D01*
X016958Y009713D01*
X016906Y009760D01*
X016857Y009809D01*
X016810Y009861D01*
X016767Y009915D01*
X016727Y009972D01*
X016690Y010031D01*
X016656Y010092D01*
X016626Y010155D01*
X016599Y010219D01*
X016576Y010284D01*
X016557Y010351D01*
X016542Y010419D01*
X016530Y010488D01*
X016522Y010557D01*
X016518Y010626D01*
X016518Y010696D01*
X016522Y010765D01*
X016530Y010834D01*
X016542Y010903D01*
X016557Y010971D01*
X016576Y011038D01*
X016599Y011103D01*
X016626Y011167D01*
X016656Y011230D01*
X016690Y011291D01*
X016727Y011350D01*
X016767Y011407D01*
X016810Y011461D01*
X016857Y011513D01*
X016906Y011562D01*
X016958Y011609D01*
X017012Y011652D01*
X017069Y011692D01*
X017127Y011729D01*
X017188Y011763D01*
X017251Y011793D01*
X017315Y011820D01*
X017381Y011843D01*
X017448Y011862D01*
X017515Y011878D01*
X017584Y011890D01*
X017653Y011897D01*
X017722Y011901D01*
X017792Y011902D01*
X017861Y011898D01*
X017930Y011890D01*
X017999Y011879D01*
X018067Y011863D01*
X018134Y011844D01*
X018199Y011821D01*
X018264Y011795D01*
X018326Y011765D01*
X018387Y011731D01*
X018446Y011694D01*
X018503Y011654D01*
X018558Y011611D01*
X018610Y011565D01*
X018659Y011516D01*
X018705Y011464D01*
X018749Y011410D01*
X018742Y011404D01*
X018698Y011458D01*
X018652Y011509D01*
X018603Y011558D01*
X018552Y011604D01*
X018498Y011647D01*
X018441Y011687D01*
X018383Y011723D01*
X018322Y011757D01*
X018260Y011787D01*
X018196Y011813D01*
X018131Y011835D01*
X018065Y011854D01*
X017997Y011870D01*
X017929Y011881D01*
X017861Y011889D01*
X017792Y011893D01*
X017723Y011892D01*
X017654Y011888D01*
X017585Y011881D01*
X017517Y011869D01*
X017450Y011854D01*
X017383Y011834D01*
X017318Y011811D01*
X017255Y011785D01*
X017192Y011755D01*
X017132Y011722D01*
X017074Y011685D01*
X017017Y011645D01*
X016963Y011602D01*
X016912Y011556D01*
X016863Y011507D01*
X016817Y011455D01*
X016774Y011401D01*
X016734Y011345D01*
X016698Y011286D01*
X016664Y011226D01*
X016634Y011164D01*
X016608Y011100D01*
X016585Y011035D01*
X016566Y010968D01*
X016551Y010901D01*
X016539Y010833D01*
X016531Y010764D01*
X016527Y010696D01*
X016527Y010626D01*
X016531Y010558D01*
X016539Y010489D01*
X016551Y010421D01*
X016566Y010354D01*
X016585Y010287D01*
X016608Y010222D01*
X016634Y010158D01*
X016664Y010096D01*
X016698Y010036D01*
X016734Y009977D01*
X016774Y009921D01*
X016817Y009867D01*
X016863Y009815D01*
X016912Y009766D01*
X016963Y009720D01*
X017017Y009677D01*
X017074Y009637D01*
X017132Y009600D01*
X017192Y009567D01*
X017255Y009537D01*
X017318Y009511D01*
X017383Y009488D01*
X017450Y009468D01*
X017517Y009453D01*
X017585Y009441D01*
X017654Y009434D01*
X017723Y009430D01*
X017792Y009429D01*
X017861Y009433D01*
X017929Y009441D01*
X017997Y009452D01*
X018065Y009468D01*
X018131Y009487D01*
X018196Y009509D01*
X018260Y009535D01*
X018322Y009565D01*
X018383Y009599D01*
X018441Y009635D01*
X018498Y009675D01*
X018552Y009718D01*
X018603Y009764D01*
X018652Y009813D01*
X018698Y009864D01*
X018742Y009918D01*
X018734Y009923D01*
X018691Y009869D01*
X018645Y009818D01*
X018595Y009769D01*
X018544Y009723D01*
X018489Y009680D01*
X018432Y009640D01*
X018374Y009604D01*
X018313Y009570D01*
X018250Y009541D01*
X018186Y009515D01*
X018120Y009493D01*
X018053Y009474D01*
X017986Y009459D01*
X017917Y009448D01*
X017848Y009441D01*
X017779Y009438D01*
X017710Y009439D01*
X017640Y009444D01*
X017572Y009452D01*
X017504Y009465D01*
X017436Y009481D01*
X017370Y009502D01*
X017305Y009525D01*
X017241Y009553D01*
X017179Y009584D01*
X017119Y009619D01*
X017061Y009657D01*
X017005Y009698D01*
X016952Y009742D01*
X016901Y009789D01*
X016853Y009839D01*
X016808Y009892D01*
X016766Y009947D01*
X016727Y010004D01*
X016692Y010064D01*
X016660Y010125D01*
X016631Y010188D01*
X016606Y010253D01*
X016585Y010319D01*
X016567Y010386D01*
X016554Y010454D01*
X016544Y010523D01*
X016538Y010592D01*
X016536Y010661D01*
X016538Y010730D01*
X016544Y010799D01*
X016554Y010868D01*
X016567Y010936D01*
X016585Y011003D01*
X016606Y011069D01*
X016631Y011134D01*
X016660Y011197D01*
X016692Y011258D01*
X016727Y011318D01*
X016766Y011375D01*
X016808Y011430D01*
X016853Y011483D01*
X016901Y011533D01*
X016952Y011580D01*
X017005Y011624D01*
X017061Y011665D01*
X017119Y011703D01*
X017179Y011738D01*
X017241Y011769D01*
X017305Y011797D01*
X017370Y011820D01*
X017436Y011841D01*
X017504Y011857D01*
X017572Y011870D01*
X017640Y011878D01*
X017710Y011883D01*
X017779Y011884D01*
X017848Y011881D01*
X017917Y011874D01*
X017986Y011863D01*
X018053Y011848D01*
X018120Y011829D01*
X018186Y011807D01*
X018250Y011781D01*
X018313Y011752D01*
X018374Y011718D01*
X018432Y011682D01*
X018489Y011642D01*
X018544Y011599D01*
X018595Y011553D01*
X018645Y011504D01*
X018691Y011453D01*
X018734Y011399D01*
X018727Y011393D01*
X018684Y011447D01*
X018638Y011498D01*
X018589Y011547D01*
X018538Y011592D01*
X018484Y011635D01*
X018427Y011674D01*
X018369Y011711D01*
X018309Y011744D01*
X018246Y011773D01*
X018183Y011799D01*
X018117Y011821D01*
X018051Y011839D01*
X017984Y011854D01*
X017916Y011865D01*
X017847Y011872D01*
X017779Y011875D01*
X017710Y011874D01*
X017641Y011869D01*
X017573Y011861D01*
X017505Y011848D01*
X017439Y011832D01*
X017373Y011812D01*
X017308Y011788D01*
X017245Y011761D01*
X017184Y011730D01*
X017124Y011696D01*
X017066Y011658D01*
X017011Y011617D01*
X016958Y011573D01*
X016908Y011526D01*
X016860Y011477D01*
X016815Y011425D01*
X016773Y011370D01*
X016735Y011313D01*
X016700Y011254D01*
X016668Y011193D01*
X016639Y011130D01*
X016615Y011066D01*
X016593Y011000D01*
X016576Y010934D01*
X016563Y010866D01*
X016553Y010798D01*
X016547Y010730D01*
X016545Y010661D01*
X016547Y010592D01*
X016553Y010524D01*
X016563Y010456D01*
X016576Y010388D01*
X016593Y010322D01*
X016615Y010256D01*
X016639Y010192D01*
X016668Y010129D01*
X016700Y010068D01*
X016735Y010009D01*
X016773Y009952D01*
X016815Y009897D01*
X016860Y009845D01*
X016908Y009796D01*
X016958Y009749D01*
X017011Y009705D01*
X017066Y009664D01*
X017124Y009626D01*
X017184Y009592D01*
X017245Y009561D01*
X017308Y009534D01*
X017373Y009510D01*
X017439Y009490D01*
X017505Y009474D01*
X017573Y009461D01*
X017641Y009453D01*
X017710Y009448D01*
X017779Y009447D01*
X017847Y009450D01*
X017916Y009457D01*
X017984Y009468D01*
X018051Y009483D01*
X018117Y009501D01*
X018183Y009523D01*
X018246Y009549D01*
X018309Y009578D01*
X018369Y009611D01*
X018427Y009648D01*
X018484Y009687D01*
X018538Y009730D01*
X018589Y009775D01*
X018638Y009824D01*
X018684Y009875D01*
X018727Y009929D01*
X014791Y011441D02*
X014719Y011387D01*
X014720Y011388D02*
X014677Y011441D01*
X014632Y011492D01*
X014583Y011540D01*
X014532Y011585D01*
X014478Y011628D01*
X014422Y011667D01*
X014364Y011703D01*
X014304Y011736D01*
X014243Y011765D01*
X014179Y011790D01*
X014115Y011812D01*
X014049Y011831D01*
X013982Y011845D01*
X013915Y011856D01*
X013847Y011863D01*
X013779Y011866D01*
X013710Y011865D01*
X013642Y011860D01*
X013574Y011852D01*
X013507Y011839D01*
X013441Y011823D01*
X013376Y011803D01*
X013311Y011780D01*
X013249Y011753D01*
X013188Y011722D01*
X013129Y011688D01*
X013071Y011651D01*
X013016Y011610D01*
X012964Y011566D01*
X012914Y011520D01*
X012867Y011471D01*
X012822Y011419D01*
X012781Y011365D01*
X012742Y011308D01*
X012707Y011249D01*
X012676Y011189D01*
X012648Y011127D01*
X012623Y011063D01*
X012602Y010998D01*
X012585Y010932D01*
X012571Y010865D01*
X012562Y010797D01*
X012556Y010729D01*
X012554Y010661D01*
X012556Y010593D01*
X012562Y010525D01*
X012571Y010457D01*
X012585Y010390D01*
X012602Y010324D01*
X012623Y010259D01*
X012648Y010195D01*
X012676Y010133D01*
X012707Y010073D01*
X012742Y010014D01*
X012781Y009957D01*
X012822Y009903D01*
X012867Y009851D01*
X012914Y009802D01*
X012964Y009756D01*
X013016Y009712D01*
X013071Y009671D01*
X013129Y009634D01*
X013188Y009600D01*
X013249Y009569D01*
X013311Y009542D01*
X013376Y009519D01*
X013441Y009499D01*
X013507Y009483D01*
X013574Y009470D01*
X013642Y009462D01*
X013710Y009457D01*
X013779Y009456D01*
X013847Y009459D01*
X013915Y009466D01*
X013982Y009477D01*
X014049Y009491D01*
X014115Y009510D01*
X014179Y009532D01*
X014243Y009557D01*
X014304Y009586D01*
X014364Y009619D01*
X014422Y009655D01*
X014478Y009694D01*
X014532Y009737D01*
X014583Y009782D01*
X014632Y009830D01*
X014677Y009881D01*
X014720Y009934D01*
X014791Y009881D01*
X014792Y009880D01*
X014748Y009825D01*
X014700Y009772D01*
X014650Y009721D01*
X014597Y009674D01*
X014542Y009630D01*
X014484Y009588D01*
X014424Y009550D01*
X014363Y009515D01*
X014299Y009484D01*
X014234Y009456D01*
X014167Y009432D01*
X014099Y009411D01*
X014030Y009395D01*
X013960Y009382D01*
X013890Y009373D01*
X013819Y009367D01*
X013748Y009366D01*
X013677Y009369D01*
X013606Y009375D01*
X013536Y009385D01*
X013467Y009399D01*
X013398Y009417D01*
X013330Y009439D01*
X013264Y009464D01*
X013199Y009493D01*
X013136Y009526D01*
X013075Y009562D01*
X013016Y009601D01*
X012959Y009643D01*
X012904Y009688D01*
X012852Y009737D01*
X012803Y009788D01*
X012756Y009841D01*
X012713Y009898D01*
X012673Y009956D01*
X012636Y010017D01*
X012602Y010079D01*
X012572Y010143D01*
X012545Y010209D01*
X012522Y010276D01*
X012503Y010345D01*
X012488Y010414D01*
X012476Y010484D01*
X012468Y010555D01*
X012464Y010626D01*
X012464Y010696D01*
X012468Y010767D01*
X012476Y010838D01*
X012488Y010908D01*
X012503Y010977D01*
X012522Y011046D01*
X012545Y011113D01*
X012572Y011179D01*
X012602Y011243D01*
X012636Y011305D01*
X012673Y011366D01*
X012713Y011424D01*
X012756Y011481D01*
X012803Y011534D01*
X012852Y011585D01*
X012904Y011634D01*
X012959Y011679D01*
X013016Y011721D01*
X013075Y011760D01*
X013136Y011796D01*
X013199Y011829D01*
X013264Y011858D01*
X013330Y011883D01*
X013398Y011905D01*
X013467Y011923D01*
X013536Y011937D01*
X013606Y011947D01*
X013677Y011953D01*
X013748Y011956D01*
X013819Y011955D01*
X013890Y011949D01*
X013960Y011940D01*
X014030Y011927D01*
X014099Y011911D01*
X014167Y011890D01*
X014234Y011866D01*
X014299Y011838D01*
X014363Y011807D01*
X014424Y011772D01*
X014484Y011734D01*
X014542Y011692D01*
X014597Y011648D01*
X014650Y011601D01*
X014700Y011550D01*
X014748Y011497D01*
X014792Y011442D01*
X014785Y011437D01*
X014740Y011492D01*
X014693Y011545D01*
X014642Y011596D01*
X014589Y011643D01*
X014533Y011688D01*
X014475Y011729D01*
X014415Y011767D01*
X014353Y011802D01*
X014289Y011833D01*
X014223Y011860D01*
X014156Y011884D01*
X014087Y011904D01*
X014018Y011921D01*
X013948Y011933D01*
X013877Y011942D01*
X013806Y011946D01*
X013735Y011947D01*
X013664Y011943D01*
X013593Y011936D01*
X013522Y011925D01*
X013453Y011910D01*
X013384Y011891D01*
X013316Y011868D01*
X013250Y011842D01*
X013185Y011812D01*
X013123Y011778D01*
X013062Y011742D01*
X013003Y011701D01*
X012946Y011658D01*
X012892Y011611D01*
X012841Y011562D01*
X012793Y011509D01*
X012747Y011455D01*
X012705Y011397D01*
X012666Y011338D01*
X012630Y011276D01*
X012597Y011213D01*
X012569Y011148D01*
X012543Y011081D01*
X012522Y011013D01*
X012504Y010944D01*
X012491Y010874D01*
X012481Y010803D01*
X012475Y010732D01*
X012473Y010661D01*
X012475Y010590D01*
X012481Y010519D01*
X012491Y010448D01*
X012504Y010378D01*
X012522Y010309D01*
X012543Y010241D01*
X012569Y010174D01*
X012597Y010109D01*
X012630Y010046D01*
X012666Y009984D01*
X012705Y009925D01*
X012747Y009867D01*
X012793Y009813D01*
X012841Y009760D01*
X012892Y009711D01*
X012946Y009664D01*
X013003Y009621D01*
X013062Y009580D01*
X013123Y009544D01*
X013185Y009510D01*
X013250Y009480D01*
X013316Y009454D01*
X013384Y009431D01*
X013453Y009412D01*
X013522Y009397D01*
X013593Y009386D01*
X013664Y009379D01*
X013735Y009375D01*
X013806Y009376D01*
X013877Y009380D01*
X013948Y009389D01*
X014018Y009401D01*
X014087Y009418D01*
X014156Y009438D01*
X014223Y009462D01*
X014289Y009489D01*
X014353Y009520D01*
X014415Y009555D01*
X014475Y009593D01*
X014533Y009634D01*
X014589Y009679D01*
X014642Y009726D01*
X014693Y009777D01*
X014740Y009830D01*
X014785Y009885D01*
X014778Y009891D01*
X014733Y009836D01*
X014686Y009783D01*
X014636Y009733D01*
X014583Y009686D01*
X014528Y009642D01*
X014470Y009600D01*
X014411Y009563D01*
X014349Y009528D01*
X014285Y009497D01*
X014220Y009470D01*
X014153Y009446D01*
X014085Y009426D01*
X014016Y009410D01*
X013947Y009398D01*
X013876Y009389D01*
X013806Y009385D01*
X013735Y009384D01*
X013664Y009388D01*
X013594Y009395D01*
X013524Y009406D01*
X013455Y009421D01*
X013387Y009440D01*
X013319Y009462D01*
X013254Y009488D01*
X013189Y009518D01*
X013127Y009551D01*
X013067Y009588D01*
X013008Y009628D01*
X012952Y009671D01*
X012898Y009717D01*
X012848Y009767D01*
X012799Y009818D01*
X012754Y009873D01*
X012712Y009930D01*
X012673Y009989D01*
X012638Y010050D01*
X012605Y010113D01*
X012577Y010178D01*
X012552Y010244D01*
X012531Y010312D01*
X012513Y010380D01*
X012500Y010450D01*
X012490Y010520D01*
X012484Y010590D01*
X012482Y010661D01*
X012484Y010732D01*
X012490Y010802D01*
X012500Y010872D01*
X012513Y010942D01*
X012531Y011010D01*
X012552Y011078D01*
X012577Y011144D01*
X012605Y011209D01*
X012638Y011272D01*
X012673Y011333D01*
X012712Y011392D01*
X012754Y011449D01*
X012799Y011504D01*
X012848Y011555D01*
X012898Y011605D01*
X012952Y011651D01*
X013008Y011694D01*
X013067Y011734D01*
X013127Y011771D01*
X013189Y011804D01*
X013254Y011834D01*
X013319Y011860D01*
X013387Y011882D01*
X013455Y011901D01*
X013524Y011916D01*
X013594Y011927D01*
X013664Y011934D01*
X013735Y011938D01*
X013806Y011937D01*
X013876Y011933D01*
X013947Y011924D01*
X014016Y011912D01*
X014085Y011896D01*
X014153Y011876D01*
X014220Y011852D01*
X014285Y011825D01*
X014349Y011794D01*
X014411Y011759D01*
X014470Y011722D01*
X014528Y011680D01*
X014583Y011636D01*
X014636Y011589D01*
X014686Y011539D01*
X014733Y011486D01*
X014778Y011431D01*
X014770Y011426D01*
X014726Y011481D01*
X014678Y011534D01*
X014628Y011584D01*
X014575Y011632D01*
X014519Y011676D01*
X014461Y011717D01*
X014401Y011754D01*
X014339Y011789D01*
X014275Y011819D01*
X014209Y011846D01*
X014142Y011870D01*
X014074Y011889D01*
X014004Y011905D01*
X013934Y011917D01*
X013864Y011925D01*
X013793Y011929D01*
X013722Y011928D01*
X013651Y011924D01*
X013580Y011916D01*
X013510Y011904D01*
X013441Y011888D01*
X013373Y011869D01*
X013305Y011845D01*
X013240Y011818D01*
X013176Y011787D01*
X013114Y011753D01*
X013054Y011715D01*
X012996Y011673D01*
X012940Y011629D01*
X012887Y011582D01*
X012837Y011531D01*
X012790Y011478D01*
X012745Y011423D01*
X012704Y011365D01*
X012667Y011305D01*
X012632Y011242D01*
X012601Y011178D01*
X012574Y011113D01*
X012551Y011046D01*
X012531Y010977D01*
X012515Y010908D01*
X012503Y010838D01*
X012495Y010767D01*
X012491Y010697D01*
X012491Y010625D01*
X012495Y010555D01*
X012503Y010484D01*
X012515Y010414D01*
X012531Y010345D01*
X012551Y010276D01*
X012574Y010209D01*
X012601Y010144D01*
X012632Y010080D01*
X012667Y010017D01*
X012704Y009957D01*
X012745Y009899D01*
X012790Y009844D01*
X012837Y009791D01*
X012887Y009740D01*
X012940Y009693D01*
X012996Y009649D01*
X013054Y009607D01*
X013114Y009569D01*
X013176Y009535D01*
X013240Y009504D01*
X013305Y009477D01*
X013373Y009453D01*
X013441Y009434D01*
X013510Y009418D01*
X013580Y009406D01*
X013651Y009398D01*
X013722Y009394D01*
X013793Y009393D01*
X013864Y009397D01*
X013934Y009405D01*
X014004Y009417D01*
X014074Y009433D01*
X014142Y009452D01*
X014209Y009476D01*
X014275Y009503D01*
X014339Y009533D01*
X014401Y009568D01*
X014461Y009605D01*
X014519Y009646D01*
X014575Y009690D01*
X014628Y009738D01*
X014678Y009788D01*
X014726Y009841D01*
X014770Y009896D01*
X014763Y009902D01*
X014719Y009847D01*
X014672Y009794D01*
X014622Y009744D01*
X014569Y009697D01*
X014514Y009653D01*
X014456Y009613D01*
X014397Y009575D01*
X014335Y009541D01*
X014271Y009511D01*
X014206Y009484D01*
X014139Y009461D01*
X014071Y009441D01*
X014003Y009426D01*
X013933Y009414D01*
X013863Y009406D01*
X013792Y009402D01*
X013722Y009403D01*
X013651Y009407D01*
X013581Y009415D01*
X013512Y009427D01*
X013443Y009442D01*
X013375Y009462D01*
X013309Y009485D01*
X013244Y009512D01*
X013180Y009543D01*
X013118Y009577D01*
X013059Y009615D01*
X013001Y009656D01*
X012946Y009700D01*
X012893Y009747D01*
X012844Y009797D01*
X012797Y009849D01*
X012753Y009905D01*
X012712Y009962D01*
X012674Y010022D01*
X012640Y010084D01*
X012610Y010147D01*
X012583Y010212D01*
X012559Y010279D01*
X012540Y010347D01*
X012524Y010416D01*
X012512Y010485D01*
X012504Y010555D01*
X012500Y010626D01*
X012500Y010696D01*
X012504Y010767D01*
X012512Y010837D01*
X012524Y010906D01*
X012540Y010975D01*
X012559Y011043D01*
X012583Y011110D01*
X012610Y011175D01*
X012640Y011238D01*
X012674Y011300D01*
X012712Y011360D01*
X012753Y011417D01*
X012797Y011473D01*
X012844Y011525D01*
X012893Y011575D01*
X012946Y011622D01*
X013001Y011666D01*
X013059Y011707D01*
X013118Y011745D01*
X013180Y011779D01*
X013244Y011810D01*
X013309Y011837D01*
X013375Y011860D01*
X013443Y011880D01*
X013512Y011895D01*
X013581Y011907D01*
X013651Y011915D01*
X013722Y011919D01*
X013792Y011920D01*
X013863Y011916D01*
X013933Y011908D01*
X014003Y011896D01*
X014071Y011881D01*
X014139Y011861D01*
X014206Y011838D01*
X014271Y011811D01*
X014335Y011781D01*
X014397Y011747D01*
X014456Y011709D01*
X014514Y011669D01*
X014569Y011625D01*
X014622Y011578D01*
X014672Y011528D01*
X014719Y011475D01*
X014763Y011420D01*
X014756Y011415D01*
X014712Y011470D01*
X014665Y011522D01*
X014616Y011571D01*
X014563Y011618D01*
X014509Y011661D01*
X014451Y011702D01*
X014392Y011739D01*
X014331Y011773D01*
X014267Y011803D01*
X014203Y011830D01*
X014136Y011853D01*
X014069Y011872D01*
X014001Y011887D01*
X013932Y011899D01*
X013862Y011907D01*
X013792Y011911D01*
X013722Y011910D01*
X013652Y011906D01*
X013583Y011898D01*
X013514Y011887D01*
X013445Y011871D01*
X013378Y011852D01*
X013312Y011828D01*
X013247Y011801D01*
X013184Y011771D01*
X013123Y011737D01*
X013064Y011700D01*
X013006Y011659D01*
X012952Y011615D01*
X012900Y011569D01*
X012850Y011519D01*
X012803Y011467D01*
X012760Y011412D01*
X012719Y011355D01*
X012682Y011296D01*
X012648Y011234D01*
X012618Y011171D01*
X012591Y011106D01*
X012568Y011040D01*
X012549Y010973D01*
X012533Y010905D01*
X012521Y010836D01*
X012513Y010766D01*
X012509Y010696D01*
X012509Y010626D01*
X012513Y010556D01*
X012521Y010486D01*
X012533Y010417D01*
X012549Y010349D01*
X012568Y010282D01*
X012591Y010216D01*
X012618Y010151D01*
X012648Y010088D01*
X012682Y010026D01*
X012719Y009967D01*
X012760Y009910D01*
X012803Y009855D01*
X012850Y009803D01*
X012900Y009753D01*
X012952Y009707D01*
X013006Y009663D01*
X013064Y009622D01*
X013123Y009585D01*
X013184Y009551D01*
X013247Y009521D01*
X013312Y009494D01*
X013378Y009470D01*
X013445Y009451D01*
X013514Y009435D01*
X013583Y009424D01*
X013652Y009416D01*
X013722Y009412D01*
X013792Y009411D01*
X013862Y009415D01*
X013932Y009423D01*
X014001Y009435D01*
X014069Y009450D01*
X014136Y009469D01*
X014203Y009492D01*
X014267Y009519D01*
X014331Y009549D01*
X014392Y009583D01*
X014451Y009620D01*
X014509Y009661D01*
X014563Y009704D01*
X014616Y009751D01*
X014665Y009800D01*
X014712Y009852D01*
X014756Y009907D01*
X014749Y009912D01*
X014705Y009858D01*
X014659Y009806D01*
X014610Y009757D01*
X014558Y009711D01*
X014503Y009668D01*
X014446Y009628D01*
X014387Y009591D01*
X014326Y009557D01*
X014264Y009527D01*
X014199Y009501D01*
X014134Y009478D01*
X014067Y009459D01*
X013999Y009443D01*
X013930Y009432D01*
X013861Y009424D01*
X013792Y009420D01*
X013722Y009421D01*
X013653Y009425D01*
X013584Y009432D01*
X013515Y009444D01*
X013448Y009460D01*
X013381Y009479D01*
X013315Y009502D01*
X013251Y009529D01*
X013188Y009559D01*
X013127Y009593D01*
X013069Y009630D01*
X013012Y009670D01*
X012958Y009713D01*
X012906Y009760D01*
X012857Y009809D01*
X012810Y009861D01*
X012767Y009915D01*
X012727Y009972D01*
X012690Y010031D01*
X012656Y010092D01*
X012626Y010155D01*
X012599Y010219D01*
X012576Y010284D01*
X012557Y010351D01*
X012542Y010419D01*
X012530Y010488D01*
X012522Y010557D01*
X012518Y010626D01*
X012518Y010696D01*
X012522Y010765D01*
X012530Y010834D01*
X012542Y010903D01*
X012557Y010971D01*
X012576Y011038D01*
X012599Y011103D01*
X012626Y011167D01*
X012656Y011230D01*
X012690Y011291D01*
X012727Y011350D01*
X012767Y011407D01*
X012810Y011461D01*
X012857Y011513D01*
X012906Y011562D01*
X012958Y011609D01*
X013012Y011652D01*
X013069Y011692D01*
X013127Y011729D01*
X013188Y011763D01*
X013251Y011793D01*
X013315Y011820D01*
X013381Y011843D01*
X013448Y011862D01*
X013515Y011878D01*
X013584Y011890D01*
X013653Y011897D01*
X013722Y011901D01*
X013792Y011902D01*
X013861Y011898D01*
X013930Y011890D01*
X013999Y011879D01*
X014067Y011863D01*
X014134Y011844D01*
X014199Y011821D01*
X014264Y011795D01*
X014326Y011765D01*
X014387Y011731D01*
X014446Y011694D01*
X014503Y011654D01*
X014558Y011611D01*
X014610Y011565D01*
X014659Y011516D01*
X014705Y011464D01*
X014749Y011410D01*
X014742Y011404D01*
X014698Y011458D01*
X014652Y011509D01*
X014603Y011558D01*
X014552Y011604D01*
X014498Y011647D01*
X014441Y011687D01*
X014383Y011723D01*
X014322Y011757D01*
X014260Y011787D01*
X014196Y011813D01*
X014131Y011835D01*
X014065Y011854D01*
X013997Y011870D01*
X013929Y011881D01*
X013861Y011889D01*
X013792Y011893D01*
X013723Y011892D01*
X013654Y011888D01*
X013585Y011881D01*
X013517Y011869D01*
X013450Y011854D01*
X013383Y011834D01*
X013318Y011811D01*
X013255Y011785D01*
X013192Y011755D01*
X013132Y011722D01*
X013074Y011685D01*
X013017Y011645D01*
X012963Y011602D01*
X012912Y011556D01*
X012863Y011507D01*
X012817Y011455D01*
X012774Y011401D01*
X012734Y011345D01*
X012698Y011286D01*
X012664Y011226D01*
X012634Y011164D01*
X012608Y011100D01*
X012585Y011035D01*
X012566Y010968D01*
X012551Y010901D01*
X012539Y010833D01*
X012531Y010764D01*
X012527Y010696D01*
X012527Y010626D01*
X012531Y010558D01*
X012539Y010489D01*
X012551Y010421D01*
X012566Y010354D01*
X012585Y010287D01*
X012608Y010222D01*
X012634Y010158D01*
X012664Y010096D01*
X012698Y010036D01*
X012734Y009977D01*
X012774Y009921D01*
X012817Y009867D01*
X012863Y009815D01*
X012912Y009766D01*
X012963Y009720D01*
X013017Y009677D01*
X013074Y009637D01*
X013132Y009600D01*
X013192Y009567D01*
X013255Y009537D01*
X013318Y009511D01*
X013383Y009488D01*
X013450Y009468D01*
X013517Y009453D01*
X013585Y009441D01*
X013654Y009434D01*
X013723Y009430D01*
X013792Y009429D01*
X013861Y009433D01*
X013929Y009441D01*
X013997Y009452D01*
X014065Y009468D01*
X014131Y009487D01*
X014196Y009509D01*
X014260Y009535D01*
X014322Y009565D01*
X014383Y009599D01*
X014441Y009635D01*
X014498Y009675D01*
X014552Y009718D01*
X014603Y009764D01*
X014652Y009813D01*
X014698Y009864D01*
X014742Y009918D01*
X014734Y009923D01*
X014691Y009869D01*
X014645Y009818D01*
X014595Y009769D01*
X014544Y009723D01*
X014489Y009680D01*
X014432Y009640D01*
X014374Y009604D01*
X014313Y009570D01*
X014250Y009541D01*
X014186Y009515D01*
X014120Y009493D01*
X014053Y009474D01*
X013986Y009459D01*
X013917Y009448D01*
X013848Y009441D01*
X013779Y009438D01*
X013710Y009439D01*
X013640Y009444D01*
X013572Y009452D01*
X013504Y009465D01*
X013436Y009481D01*
X013370Y009502D01*
X013305Y009525D01*
X013241Y009553D01*
X013179Y009584D01*
X013119Y009619D01*
X013061Y009657D01*
X013005Y009698D01*
X012952Y009742D01*
X012901Y009789D01*
X012853Y009839D01*
X012808Y009892D01*
X012766Y009947D01*
X012727Y010004D01*
X012692Y010064D01*
X012660Y010125D01*
X012631Y010188D01*
X012606Y010253D01*
X012585Y010319D01*
X012567Y010386D01*
X012554Y010454D01*
X012544Y010523D01*
X012538Y010592D01*
X012536Y010661D01*
X012538Y010730D01*
X012544Y010799D01*
X012554Y010868D01*
X012567Y010936D01*
X012585Y011003D01*
X012606Y011069D01*
X012631Y011134D01*
X012660Y011197D01*
X012692Y011258D01*
X012727Y011318D01*
X012766Y011375D01*
X012808Y011430D01*
X012853Y011483D01*
X012901Y011533D01*
X012952Y011580D01*
X013005Y011624D01*
X013061Y011665D01*
X013119Y011703D01*
X013179Y011738D01*
X013241Y011769D01*
X013305Y011797D01*
X013370Y011820D01*
X013436Y011841D01*
X013504Y011857D01*
X013572Y011870D01*
X013640Y011878D01*
X013710Y011883D01*
X013779Y011884D01*
X013848Y011881D01*
X013917Y011874D01*
X013986Y011863D01*
X014053Y011848D01*
X014120Y011829D01*
X014186Y011807D01*
X014250Y011781D01*
X014313Y011752D01*
X014374Y011718D01*
X014432Y011682D01*
X014489Y011642D01*
X014544Y011599D01*
X014595Y011553D01*
X014645Y011504D01*
X014691Y011453D01*
X014734Y011399D01*
X014727Y011393D01*
X014684Y011447D01*
X014638Y011498D01*
X014589Y011547D01*
X014538Y011592D01*
X014484Y011635D01*
X014427Y011674D01*
X014369Y011711D01*
X014309Y011744D01*
X014246Y011773D01*
X014183Y011799D01*
X014117Y011821D01*
X014051Y011839D01*
X013984Y011854D01*
X013916Y011865D01*
X013847Y011872D01*
X013779Y011875D01*
X013710Y011874D01*
X013641Y011869D01*
X013573Y011861D01*
X013505Y011848D01*
X013439Y011832D01*
X013373Y011812D01*
X013308Y011788D01*
X013245Y011761D01*
X013184Y011730D01*
X013124Y011696D01*
X013066Y011658D01*
X013011Y011617D01*
X012958Y011573D01*
X012908Y011526D01*
X012860Y011477D01*
X012815Y011425D01*
X012773Y011370D01*
X012735Y011313D01*
X012700Y011254D01*
X012668Y011193D01*
X012639Y011130D01*
X012615Y011066D01*
X012593Y011000D01*
X012576Y010934D01*
X012563Y010866D01*
X012553Y010798D01*
X012547Y010730D01*
X012545Y010661D01*
X012547Y010592D01*
X012553Y010524D01*
X012563Y010456D01*
X012576Y010388D01*
X012593Y010322D01*
X012615Y010256D01*
X012639Y010192D01*
X012668Y010129D01*
X012700Y010068D01*
X012735Y010009D01*
X012773Y009952D01*
X012815Y009897D01*
X012860Y009845D01*
X012908Y009796D01*
X012958Y009749D01*
X013011Y009705D01*
X013066Y009664D01*
X013124Y009626D01*
X013184Y009592D01*
X013245Y009561D01*
X013308Y009534D01*
X013373Y009510D01*
X013439Y009490D01*
X013505Y009474D01*
X013573Y009461D01*
X013641Y009453D01*
X013710Y009448D01*
X013779Y009447D01*
X013847Y009450D01*
X013916Y009457D01*
X013984Y009468D01*
X014051Y009483D01*
X014117Y009501D01*
X014183Y009523D01*
X014246Y009549D01*
X014309Y009578D01*
X014369Y009611D01*
X014427Y009648D01*
X014484Y009687D01*
X014538Y009730D01*
X014589Y009775D01*
X014638Y009824D01*
X014684Y009875D01*
X014727Y009929D01*
X015452Y016624D02*
X015463Y016639D01*
X015479Y016658D01*
X015497Y016674D01*
X015532Y016697D01*
X015571Y016711D01*
X015613Y016717D01*
X015692Y016715D01*
X015730Y016707D01*
X015766Y016691D01*
X015797Y016666D01*
X015816Y016644D01*
X015831Y016618D01*
X015842Y016590D01*
X015618Y016590D01*
X015612Y016592D02*
X015599Y016592D01*
X015555Y016590D01*
X015532Y016587D01*
X015511Y016578D01*
X015492Y016565D01*
X015471Y016542D01*
X015456Y016514D01*
X015447Y016484D01*
X015444Y016452D01*
X015444Y016425D01*
X015444Y016083D01*
X015278Y016083D01*
X015278Y016702D01*
X015437Y016702D01*
X015437Y016615D01*
X015440Y016615D01*
X015444Y016616D01*
X015447Y016618D01*
X015452Y016624D01*
X015828Y016624D01*
X015832Y016616D02*
X015442Y016616D01*
X015440Y016615D02*
X015437Y016615D01*
X015437Y016702D01*
X015278Y016702D01*
X015278Y016083D01*
X015444Y016083D01*
X015444Y016425D01*
X015444Y016428D02*
X015278Y016428D01*
X015278Y016436D02*
X015444Y016436D01*
X015444Y016445D02*
X015278Y016445D01*
X015278Y016453D02*
X015444Y016453D01*
X015445Y016462D02*
X015278Y016462D01*
X015278Y016470D02*
X015446Y016470D01*
X015447Y016479D02*
X015278Y016479D01*
X015278Y016488D02*
X015448Y016488D01*
X015451Y016496D02*
X015278Y016496D01*
X015278Y016505D02*
X015453Y016505D01*
X015456Y016513D02*
X015278Y016513D01*
X015278Y016522D02*
X015460Y016522D01*
X015464Y016530D02*
X015278Y016530D01*
X015278Y016539D02*
X015469Y016539D01*
X015476Y016547D02*
X015278Y016547D01*
X015278Y016556D02*
X015483Y016556D01*
X015491Y016564D02*
X015278Y016564D01*
X015278Y016573D02*
X015503Y016573D01*
X015519Y016581D02*
X015278Y016581D01*
X015278Y016590D02*
X015553Y016590D01*
X015612Y016592D02*
X015625Y016588D01*
X015643Y016579D01*
X015659Y016566D01*
X015671Y016550D01*
X015684Y016524D01*
X015691Y016496D01*
X015694Y016467D01*
X015694Y016087D01*
X015855Y016087D01*
X015855Y016502D01*
X015851Y016547D01*
X015672Y016547D01*
X015692Y016715D02*
X015715Y016712D01*
X015737Y016705D01*
X015759Y016695D01*
X015779Y016682D01*
X015796Y016666D01*
X015796Y016667D02*
X015489Y016667D01*
X015499Y016675D02*
X015785Y016675D01*
X015774Y016684D02*
X015512Y016684D01*
X015526Y016693D02*
X015762Y016693D01*
X015743Y016701D02*
X015544Y016701D01*
X015567Y016710D02*
X015719Y016710D01*
X015804Y016658D02*
X015479Y016658D01*
X015472Y016650D02*
X015811Y016650D01*
X015817Y016641D02*
X015465Y016641D01*
X015463Y016639D02*
X015452Y016624D01*
X015458Y016633D02*
X015823Y016633D01*
X015835Y016607D02*
X015278Y016607D01*
X015278Y016599D02*
X015839Y016599D01*
X015842Y016590D02*
X015851Y016547D01*
X015852Y016539D02*
X015676Y016539D01*
X015842Y016590D02*
X015835Y016611D01*
X015825Y016631D01*
X015812Y016650D01*
X015797Y016666D01*
X015844Y016581D02*
X015638Y016581D01*
X015651Y016573D02*
X015846Y016573D01*
X015847Y016564D02*
X015660Y016564D01*
X015667Y016556D02*
X015849Y016556D01*
X015853Y016530D02*
X015681Y016530D01*
X015684Y016522D02*
X015853Y016522D01*
X015854Y016513D02*
X015687Y016513D01*
X015689Y016505D02*
X015855Y016505D01*
X015855Y016502D02*
X015855Y016087D01*
X015694Y016087D01*
X015694Y016467D01*
X015694Y016470D02*
X015855Y016470D01*
X015855Y016462D02*
X015694Y016462D01*
X015694Y016453D02*
X015855Y016453D01*
X015855Y016445D02*
X015694Y016445D01*
X015694Y016436D02*
X015855Y016436D01*
X015855Y016428D02*
X015694Y016428D01*
X015694Y016419D02*
X015855Y016419D01*
X015855Y016411D02*
X015694Y016411D01*
X015694Y016402D02*
X015855Y016402D01*
X015855Y016394D02*
X015694Y016394D01*
X015694Y016385D02*
X015855Y016385D01*
X015855Y016376D02*
X015694Y016376D01*
X015694Y016368D02*
X015855Y016368D01*
X015855Y016359D02*
X015694Y016359D01*
X015694Y016351D02*
X015855Y016351D01*
X015855Y016342D02*
X015694Y016342D01*
X015694Y016334D02*
X015855Y016334D01*
X015855Y016325D02*
X015694Y016325D01*
X015694Y016317D02*
X015855Y016317D01*
X015855Y016308D02*
X015694Y016308D01*
X015694Y016300D02*
X015855Y016300D01*
X015855Y016291D02*
X015694Y016291D01*
X015694Y016282D02*
X015855Y016282D01*
X015855Y016274D02*
X015694Y016274D01*
X015694Y016265D02*
X015855Y016265D01*
X015855Y016257D02*
X015694Y016257D01*
X015694Y016248D02*
X015855Y016248D01*
X015855Y016240D02*
X015694Y016240D01*
X015694Y016231D02*
X015855Y016231D01*
X015855Y016223D02*
X015694Y016223D01*
X015694Y016214D02*
X015855Y016214D01*
X015855Y016206D02*
X015694Y016206D01*
X015694Y016197D02*
X015855Y016197D01*
X015855Y016189D02*
X015694Y016189D01*
X015694Y016180D02*
X015855Y016180D01*
X015855Y016171D02*
X015694Y016171D01*
X015694Y016163D02*
X015855Y016163D01*
X015855Y016154D02*
X015694Y016154D01*
X015694Y016146D02*
X015855Y016146D01*
X015855Y016137D02*
X015694Y016137D01*
X015694Y016129D02*
X015855Y016129D01*
X015855Y016120D02*
X015694Y016120D01*
X015694Y016112D02*
X015855Y016112D01*
X015855Y016103D02*
X015694Y016103D01*
X015694Y016095D02*
X015855Y016095D01*
X015692Y016716D02*
X015653Y016718D01*
X015613Y016717D01*
X015437Y016701D02*
X015278Y016701D01*
X015278Y016693D02*
X015437Y016693D01*
X015437Y016684D02*
X015278Y016684D01*
X015278Y016675D02*
X015437Y016675D01*
X015437Y016667D02*
X015278Y016667D01*
X015278Y016658D02*
X015437Y016658D01*
X015437Y016650D02*
X015278Y016650D01*
X015278Y016641D02*
X015437Y016641D01*
X015437Y016633D02*
X015278Y016633D01*
X015278Y016624D02*
X015437Y016624D01*
X015440Y016615D02*
X015444Y016616D01*
X015447Y016618D01*
X015437Y016616D02*
X015278Y016616D01*
X015180Y016616D02*
X015014Y016616D01*
X015014Y016624D02*
X015180Y016624D01*
X015180Y016633D02*
X015014Y016633D01*
X015014Y016641D02*
X015180Y016641D01*
X015180Y016650D02*
X015014Y016650D01*
X015014Y016658D02*
X015180Y016658D01*
X015180Y016667D02*
X015014Y016667D01*
X015014Y016675D02*
X015180Y016675D01*
X015180Y016684D02*
X015014Y016684D01*
X015014Y016693D02*
X015180Y016693D01*
X015180Y016701D02*
X015014Y016701D01*
X015014Y016374D01*
X015011Y016325D01*
X015180Y016325D01*
X015180Y016317D02*
X015009Y016317D01*
X015011Y016325D02*
X015002Y016277D01*
X014993Y016255D01*
X014980Y016235D01*
X014962Y016218D01*
X014941Y016206D01*
X014913Y016198D01*
X014883Y016195D01*
X014854Y016198D01*
X014826Y016207D01*
X014809Y016217D01*
X014795Y016229D01*
X014784Y016244D01*
X014770Y016276D01*
X014764Y016309D01*
X014764Y016703D01*
X014601Y016703D01*
X014601Y016278D01*
X014605Y016235D01*
X014617Y016193D01*
X014636Y016154D01*
X014662Y016119D01*
X014672Y016110D01*
X014707Y016090D01*
X014746Y016076D01*
X014787Y016070D01*
X014846Y016071D01*
X014904Y016080D01*
X014914Y016083D01*
X014924Y016088D01*
X014961Y016114D01*
X014993Y016145D01*
X015021Y016180D01*
X015022Y016180D01*
X015180Y016180D01*
X015180Y016189D02*
X014619Y016189D01*
X014616Y016197D02*
X014864Y016197D01*
X014831Y016206D02*
X014613Y016206D01*
X014611Y016214D02*
X014814Y016214D01*
X014803Y016223D02*
X014608Y016223D01*
X014606Y016231D02*
X014794Y016231D01*
X014787Y016240D02*
X014604Y016240D01*
X014604Y016248D02*
X014782Y016248D01*
X014778Y016257D02*
X014603Y016257D01*
X014602Y016265D02*
X014774Y016265D01*
X014771Y016274D02*
X014601Y016274D01*
X014601Y016282D02*
X014769Y016282D01*
X014767Y016291D02*
X014601Y016291D01*
X014601Y016300D02*
X014766Y016300D01*
X014764Y016308D02*
X014601Y016308D01*
X014601Y016317D02*
X014764Y016317D01*
X014764Y016325D02*
X014601Y016325D01*
X014601Y016334D02*
X014764Y016334D01*
X014764Y016342D02*
X014601Y016342D01*
X014601Y016351D02*
X014764Y016351D01*
X014764Y016359D02*
X014601Y016359D01*
X014601Y016368D02*
X014764Y016368D01*
X014764Y016376D02*
X014601Y016376D01*
X014601Y016385D02*
X014764Y016385D01*
X014764Y016394D02*
X014601Y016394D01*
X014601Y016402D02*
X014764Y016402D01*
X014764Y016411D02*
X014601Y016411D01*
X014601Y016419D02*
X014764Y016419D01*
X014764Y016428D02*
X014601Y016428D01*
X014601Y016436D02*
X014764Y016436D01*
X014764Y016445D02*
X014601Y016445D01*
X014601Y016453D02*
X014764Y016453D01*
X014764Y016462D02*
X014601Y016462D01*
X014601Y016470D02*
X014764Y016470D01*
X014764Y016479D02*
X014601Y016479D01*
X014601Y016488D02*
X014764Y016488D01*
X014764Y016496D02*
X014601Y016496D01*
X014601Y016505D02*
X014764Y016505D01*
X014764Y016513D02*
X014601Y016513D01*
X014601Y016522D02*
X014764Y016522D01*
X014764Y016530D02*
X014601Y016530D01*
X014601Y016539D02*
X014764Y016539D01*
X014764Y016547D02*
X014601Y016547D01*
X014601Y016556D02*
X014764Y016556D01*
X014764Y016564D02*
X014601Y016564D01*
X014601Y016573D02*
X014764Y016573D01*
X014764Y016581D02*
X014601Y016581D01*
X014601Y016590D02*
X014764Y016590D01*
X014764Y016599D02*
X014601Y016599D01*
X014601Y016607D02*
X014764Y016607D01*
X014764Y016616D02*
X014601Y016616D01*
X014601Y016624D02*
X014764Y016624D01*
X014764Y016633D02*
X014601Y016633D01*
X014601Y016641D02*
X014764Y016641D01*
X014764Y016650D02*
X014601Y016650D01*
X014601Y016658D02*
X014764Y016658D01*
X014764Y016667D02*
X014601Y016667D01*
X014601Y016675D02*
X014764Y016675D01*
X014764Y016684D02*
X014601Y016684D01*
X014601Y016693D02*
X014764Y016693D01*
X014764Y016701D02*
X014601Y016701D01*
X014543Y016701D02*
X014209Y016701D01*
X014263Y016701D01*
X014263Y016719D01*
X014270Y016803D01*
X014276Y016826D01*
X014286Y016846D01*
X014285Y016846D02*
X014554Y016846D01*
X014554Y016838D02*
X014281Y016838D01*
X014277Y016829D02*
X014554Y016829D01*
X014554Y016821D02*
X014274Y016821D01*
X014272Y016812D02*
X014458Y016812D01*
X014455Y016811D02*
X014467Y016815D01*
X014503Y016819D01*
X014540Y016815D01*
X014551Y016814D01*
X014554Y016814D01*
X014554Y016933D01*
X014553Y016933D01*
X014501Y016936D01*
X014440Y016936D01*
X014400Y016929D01*
X014362Y016915D01*
X014554Y016915D01*
X014554Y016923D02*
X014384Y016923D01*
X014362Y016915D02*
X014328Y016893D01*
X014299Y016865D01*
X014286Y016846D01*
X014291Y016855D02*
X014554Y016855D01*
X014554Y016863D02*
X014298Y016863D01*
X014306Y016872D02*
X014554Y016872D01*
X014554Y016881D02*
X014315Y016881D01*
X014324Y016889D02*
X014554Y016889D01*
X014554Y016898D02*
X014335Y016898D01*
X014349Y016906D02*
X014554Y016906D01*
X014554Y016932D02*
X014414Y016932D01*
X014455Y016811D02*
X014444Y016804D01*
X014270Y016804D01*
X014269Y016795D02*
X014437Y016795D01*
X014436Y016793D02*
X014429Y016775D01*
X014426Y016756D01*
X014426Y016701D01*
X014470Y016701D01*
X014543Y016701D01*
X014543Y016596D01*
X014425Y016596D01*
X014425Y016083D01*
X014261Y016083D01*
X014261Y016587D01*
X014261Y016595D01*
X014104Y016596D01*
X014209Y016701D01*
X014200Y016693D02*
X014543Y016693D01*
X014543Y016684D02*
X014192Y016684D01*
X014183Y016675D02*
X014543Y016675D01*
X014543Y016667D02*
X014175Y016667D01*
X014166Y016658D02*
X014543Y016658D01*
X014543Y016650D02*
X014157Y016650D01*
X014149Y016641D02*
X014543Y016641D01*
X014543Y016633D02*
X014140Y016633D01*
X014132Y016624D02*
X014543Y016624D01*
X014543Y016616D02*
X014123Y016616D01*
X014115Y016607D02*
X014543Y016607D01*
X014543Y016599D02*
X014106Y016599D01*
X014061Y016650D02*
X013878Y016650D01*
X013870Y016641D02*
X014053Y016641D01*
X014044Y016633D02*
X013861Y016633D01*
X013853Y016624D02*
X014035Y016624D01*
X014026Y016616D02*
X013844Y016616D01*
X013836Y016607D02*
X014018Y016607D01*
X014009Y016599D02*
X013827Y016599D01*
X013819Y016590D02*
X014000Y016590D01*
X013991Y016581D02*
X013810Y016581D01*
X013802Y016573D02*
X013983Y016573D01*
X013974Y016564D02*
X013793Y016564D01*
X013784Y016556D02*
X013965Y016556D01*
X013957Y016547D02*
X013776Y016547D01*
X013767Y016539D02*
X013948Y016539D01*
X013939Y016530D02*
X013759Y016530D01*
X013750Y016522D02*
X013930Y016522D01*
X013922Y016513D02*
X013742Y016513D01*
X013733Y016505D02*
X013913Y016505D01*
X013904Y016496D02*
X013725Y016496D01*
X013716Y016488D02*
X013895Y016488D01*
X013887Y016479D02*
X013708Y016479D01*
X013705Y016479D02*
X013542Y016479D01*
X013542Y016488D02*
X013705Y016488D01*
X013705Y016496D02*
X013542Y016496D01*
X013542Y016505D02*
X013705Y016505D01*
X013705Y016513D02*
X013542Y016513D01*
X013542Y016522D02*
X013705Y016522D01*
X013705Y016530D02*
X013542Y016530D01*
X013542Y016539D02*
X013705Y016539D01*
X013705Y016547D02*
X013542Y016547D01*
X013542Y016556D02*
X013705Y016556D01*
X013705Y016564D02*
X013542Y016564D01*
X013542Y016573D02*
X013705Y016573D01*
X013705Y016581D02*
X013542Y016581D01*
X013542Y016590D02*
X013705Y016590D01*
X013705Y016599D02*
X013542Y016599D01*
X013542Y016607D02*
X013705Y016607D01*
X013705Y016616D02*
X013542Y016616D01*
X013542Y016624D02*
X013705Y016624D01*
X013705Y016633D02*
X013542Y016633D01*
X013542Y016641D02*
X013705Y016641D01*
X013705Y016650D02*
X013542Y016650D01*
X013542Y016658D02*
X013705Y016658D01*
X013705Y016667D02*
X013542Y016667D01*
X013542Y016675D02*
X013705Y016675D01*
X013705Y016684D02*
X013542Y016684D01*
X013542Y016693D02*
X013705Y016693D01*
X013705Y016701D02*
X013542Y016701D01*
X013542Y016710D02*
X013705Y016710D01*
X013705Y016718D02*
X013542Y016718D01*
X013542Y016727D02*
X013705Y016727D01*
X013705Y016735D02*
X013542Y016735D01*
X013542Y016744D02*
X013705Y016744D01*
X013705Y016752D02*
X013542Y016752D01*
X013542Y016761D02*
X013705Y016761D01*
X013705Y016769D02*
X013542Y016769D01*
X013542Y016778D02*
X013705Y016778D01*
X013705Y016787D02*
X013542Y016787D01*
X013542Y016795D02*
X013705Y016795D01*
X013705Y016804D02*
X013542Y016804D01*
X013542Y016812D02*
X013705Y016812D01*
X013705Y016821D02*
X013542Y016821D01*
X013542Y016829D02*
X013705Y016829D01*
X013705Y016838D02*
X013542Y016838D01*
X013542Y016845D02*
X013705Y016938D01*
X013705Y016476D01*
X013929Y016700D01*
X014113Y016700D01*
X013886Y016478D01*
X014148Y016085D01*
X013948Y016086D01*
X013780Y016363D01*
X013778Y016366D01*
X013707Y016297D01*
X013707Y016087D01*
X013707Y016082D01*
X013544Y016082D01*
X013542Y016084D01*
X013542Y016845D01*
X013544Y016846D02*
X013705Y016846D01*
X013705Y016855D02*
X013559Y016855D01*
X013574Y016863D02*
X013705Y016863D01*
X013705Y016872D02*
X013589Y016872D01*
X013604Y016881D02*
X013705Y016881D01*
X013705Y016889D02*
X013619Y016889D01*
X013634Y016898D02*
X013705Y016898D01*
X013705Y016906D02*
X013649Y016906D01*
X013664Y016915D02*
X013705Y016915D01*
X013705Y016923D02*
X013679Y016923D01*
X013693Y016932D02*
X013705Y016932D01*
X013898Y016932D02*
X013973Y016932D01*
X013981Y016940D02*
X013898Y016940D01*
X013898Y016949D02*
X013988Y016949D01*
X013996Y016957D02*
X013898Y016957D01*
X013898Y016966D02*
X014003Y016966D01*
X014011Y016974D02*
X013898Y016974D01*
X013898Y016983D02*
X014019Y016983D01*
X014026Y016992D02*
X013898Y016992D01*
X013898Y017000D02*
X014034Y017000D01*
X014041Y017009D02*
X013898Y017009D01*
X013898Y017017D02*
X014049Y017017D01*
X014057Y017026D02*
X013898Y017026D01*
X013898Y017034D02*
X014064Y017034D01*
X014072Y017043D02*
X013898Y017043D01*
X013898Y017051D02*
X014079Y017051D01*
X014087Y017060D02*
X013898Y017060D01*
X013898Y017068D02*
X014096Y017068D01*
X014090Y017063D02*
X014124Y017095D01*
X014164Y017118D01*
X014179Y017124D01*
X014194Y017126D01*
X014284Y017126D01*
X014338Y017131D01*
X014389Y017146D01*
X014438Y017169D01*
X014484Y017201D01*
X014524Y017240D01*
X014559Y017283D01*
X014596Y017349D01*
X014621Y017421D01*
X014632Y017496D01*
X014252Y017496D01*
X014257Y017503D02*
X014244Y017483D01*
X014226Y017468D01*
X014204Y017456D01*
X014180Y017448D01*
X014155Y017444D01*
X014126Y017446D01*
X014098Y017454D01*
X014073Y017469D01*
X014060Y017483D01*
X014051Y017500D01*
X014047Y017518D01*
X014047Y017536D01*
X014051Y017553D01*
X014054Y017560D01*
X014060Y017565D01*
X014093Y017589D01*
X014099Y017593D01*
X014106Y017594D01*
X014113Y017593D01*
X014094Y017596D01*
X014057Y017599D01*
X014020Y017596D01*
X013992Y017589D01*
X013967Y017576D01*
X013944Y017559D01*
X013926Y017537D01*
X013910Y017508D01*
X013901Y017477D01*
X013898Y017444D01*
X013898Y016847D01*
X014090Y017063D01*
X014105Y017077D02*
X013898Y017077D01*
X013898Y017086D02*
X014114Y017086D01*
X014124Y017094D02*
X013898Y017094D01*
X013898Y017103D02*
X014138Y017103D01*
X014152Y017111D02*
X013898Y017111D01*
X013898Y017120D02*
X014168Y017120D01*
X014306Y017128D02*
X013898Y017128D01*
X013898Y017137D02*
X014358Y017137D01*
X014388Y017145D02*
X013898Y017145D01*
X013898Y017154D02*
X014406Y017154D01*
X014424Y017162D02*
X013898Y017162D01*
X013898Y017171D02*
X014440Y017171D01*
X014452Y017180D02*
X013898Y017180D01*
X013898Y017188D02*
X014465Y017188D01*
X014477Y017197D02*
X013898Y017197D01*
X013898Y017205D02*
X014487Y017205D01*
X014496Y017214D02*
X013898Y017214D01*
X013898Y017222D02*
X014506Y017222D01*
X014515Y017231D02*
X013898Y017231D01*
X013898Y017239D02*
X014524Y017239D01*
X014531Y017248D02*
X013898Y017248D01*
X013898Y017256D02*
X014537Y017256D01*
X014544Y017265D02*
X013898Y017265D01*
X013898Y017274D02*
X014551Y017274D01*
X014558Y017282D02*
X013898Y017282D01*
X013898Y017291D02*
X014563Y017291D01*
X014568Y017299D02*
X013898Y017299D01*
X013898Y017308D02*
X014573Y017308D01*
X014577Y017316D02*
X013898Y017316D01*
X013898Y017325D02*
X014582Y017325D01*
X014587Y017333D02*
X013898Y017333D01*
X013898Y017342D02*
X014592Y017342D01*
X014596Y017350D02*
X013898Y017350D01*
X013898Y017359D02*
X014599Y017359D01*
X014602Y017367D02*
X013898Y017367D01*
X013898Y017376D02*
X014605Y017376D01*
X014608Y017385D02*
X013898Y017385D01*
X013898Y017393D02*
X014611Y017393D01*
X014614Y017402D02*
X013898Y017402D01*
X013898Y017410D02*
X014617Y017410D01*
X014620Y017419D02*
X013898Y017419D01*
X013898Y017427D02*
X014622Y017427D01*
X014623Y017436D02*
X013898Y017436D01*
X013898Y017444D02*
X014153Y017444D01*
X014156Y017444D02*
X014624Y017444D01*
X014626Y017453D02*
X014194Y017453D01*
X014213Y017461D02*
X014627Y017461D01*
X014628Y017470D02*
X014228Y017470D01*
X014238Y017479D02*
X014630Y017479D01*
X014631Y017487D02*
X014246Y017487D01*
X014257Y017503D02*
X014264Y017525D01*
X014266Y017548D01*
X014262Y017571D01*
X014252Y017592D01*
X014237Y017609D01*
X014180Y017670D01*
X014133Y017739D01*
X014122Y017766D01*
X014118Y017795D01*
X014121Y017824D01*
X014132Y017851D01*
X014149Y017875D01*
X014176Y017901D01*
X014207Y017923D01*
X014238Y017939D01*
X014271Y017948D01*
X014305Y017950D01*
X014340Y017947D01*
X014375Y017938D01*
X014384Y017934D01*
X014398Y017928D01*
X014418Y017920D01*
X014435Y017906D01*
X014436Y017905D01*
X014436Y017905D01*
X014412Y017905D01*
X014391Y017903D01*
X014371Y017897D01*
X014351Y017887D01*
X014334Y017871D01*
X014322Y017852D01*
X014316Y017830D01*
X014315Y017817D01*
X014318Y017804D01*
X014326Y017784D01*
X014338Y017765D01*
X014352Y017749D01*
X014369Y017734D01*
X014405Y017708D01*
X014425Y017698D01*
X014447Y017694D01*
X014470Y017696D01*
X014478Y017699D01*
X014493Y017710D01*
X014505Y017724D01*
X014507Y017730D01*
X014508Y017735D01*
X014551Y017735D01*
X014552Y017734D02*
X014508Y017770D01*
X014508Y017735D01*
X014508Y017743D02*
X014541Y017743D01*
X014530Y017752D02*
X014508Y017752D01*
X014508Y017760D02*
X014520Y017760D01*
X014509Y017769D02*
X014508Y017769D01*
X014506Y017726D02*
X014558Y017726D01*
X014552Y017734D02*
X014588Y017689D01*
X014608Y017652D01*
X014622Y017613D01*
X014630Y017572D01*
X014632Y017496D01*
X014632Y017504D02*
X014257Y017504D01*
X014260Y017513D02*
X014632Y017513D01*
X014631Y017521D02*
X014263Y017521D01*
X014265Y017530D02*
X014631Y017530D01*
X014631Y017538D02*
X014266Y017538D01*
X014266Y017547D02*
X014631Y017547D01*
X014630Y017555D02*
X014265Y017555D01*
X014263Y017564D02*
X014630Y017564D01*
X014630Y017573D02*
X014261Y017573D01*
X014257Y017581D02*
X014628Y017581D01*
X014626Y017590D02*
X014253Y017590D01*
X014246Y017598D02*
X014625Y017598D01*
X014623Y017607D02*
X014239Y017607D01*
X014231Y017615D02*
X014621Y017615D01*
X014618Y017624D02*
X014223Y017624D01*
X014215Y017632D02*
X014615Y017632D01*
X014612Y017641D02*
X014207Y017641D01*
X014199Y017649D02*
X014609Y017649D01*
X014605Y017658D02*
X014191Y017658D01*
X014183Y017666D02*
X014600Y017666D01*
X014596Y017675D02*
X014176Y017675D01*
X014170Y017684D02*
X014591Y017684D01*
X014586Y017692D02*
X014165Y017692D01*
X014159Y017701D02*
X014420Y017701D01*
X014404Y017709D02*
X014153Y017709D01*
X014147Y017718D02*
X014392Y017718D01*
X014380Y017726D02*
X014142Y017726D01*
X014136Y017735D02*
X014368Y017735D01*
X014358Y017743D02*
X014131Y017743D01*
X014128Y017752D02*
X014349Y017752D01*
X014342Y017760D02*
X014124Y017760D01*
X014122Y017769D02*
X014336Y017769D01*
X014330Y017778D02*
X014120Y017778D01*
X014119Y017786D02*
X014326Y017786D01*
X014322Y017795D02*
X014118Y017795D01*
X014119Y017803D02*
X014318Y017803D01*
X014316Y017812D02*
X014120Y017812D01*
X014121Y017820D02*
X014315Y017820D01*
X014316Y017829D02*
X014123Y017829D01*
X014126Y017837D02*
X014318Y017837D01*
X014321Y017846D02*
X014130Y017846D01*
X014134Y017854D02*
X014324Y017854D01*
X014329Y017863D02*
X014140Y017863D01*
X014146Y017872D02*
X014335Y017872D01*
X014344Y017880D02*
X014154Y017880D01*
X014163Y017889D02*
X014355Y017889D01*
X014371Y017897D02*
X014172Y017897D01*
X014183Y017906D02*
X014435Y017906D01*
X014425Y017914D02*
X014194Y017914D01*
X014206Y017923D02*
X014410Y017923D01*
X014391Y017931D02*
X014223Y017931D01*
X014242Y017940D02*
X014368Y017940D01*
X014324Y017948D02*
X014281Y017948D01*
X014480Y017701D02*
X014579Y017701D01*
X014572Y017709D02*
X014492Y017709D01*
X014500Y017718D02*
X014565Y017718D01*
X014094Y017590D02*
X013995Y017590D01*
X013976Y017581D02*
X014082Y017581D01*
X014070Y017573D02*
X013962Y017573D01*
X013951Y017564D02*
X014059Y017564D01*
X014052Y017555D02*
X013941Y017555D01*
X013934Y017547D02*
X014049Y017547D01*
X014048Y017538D02*
X013927Y017538D01*
X013922Y017530D02*
X014047Y017530D01*
X014047Y017521D02*
X013917Y017521D01*
X013912Y017513D02*
X014048Y017513D01*
X014050Y017504D02*
X013909Y017504D01*
X013906Y017496D02*
X014053Y017496D01*
X014058Y017487D02*
X013904Y017487D01*
X013901Y017479D02*
X014064Y017479D01*
X014072Y017470D02*
X013900Y017470D01*
X013899Y017461D02*
X014086Y017461D01*
X014102Y017453D02*
X013899Y017453D01*
X014044Y017598D02*
X014070Y017598D01*
X013965Y016923D02*
X013898Y016923D01*
X013898Y016915D02*
X013958Y016915D01*
X013950Y016906D02*
X013898Y016906D01*
X013898Y016898D02*
X013943Y016898D01*
X013935Y016889D02*
X013898Y016889D01*
X013898Y016881D02*
X013927Y016881D01*
X013920Y016872D02*
X013898Y016872D01*
X013898Y016863D02*
X013912Y016863D01*
X013905Y016855D02*
X013898Y016855D01*
X013921Y016693D02*
X014105Y016693D01*
X014096Y016684D02*
X013913Y016684D01*
X013904Y016675D02*
X014088Y016675D01*
X014079Y016667D02*
X013896Y016667D01*
X013887Y016658D02*
X014070Y016658D01*
X014263Y016710D02*
X014426Y016710D01*
X014426Y016718D02*
X014263Y016718D01*
X014264Y016727D02*
X014426Y016727D01*
X014426Y016735D02*
X014264Y016735D01*
X014265Y016744D02*
X014426Y016744D01*
X014426Y016752D02*
X014266Y016752D01*
X014266Y016761D02*
X014427Y016761D01*
X014428Y016769D02*
X014267Y016769D01*
X014268Y016778D02*
X014430Y016778D01*
X014433Y016787D02*
X014268Y016787D01*
X014436Y016793D02*
X014444Y016804D01*
X014425Y016590D02*
X014261Y016590D01*
X014261Y016581D02*
X014425Y016581D01*
X014425Y016573D02*
X014261Y016573D01*
X014261Y016564D02*
X014425Y016564D01*
X014425Y016556D02*
X014261Y016556D01*
X014261Y016547D02*
X014425Y016547D01*
X014425Y016539D02*
X014261Y016539D01*
X014261Y016530D02*
X014425Y016530D01*
X014425Y016522D02*
X014261Y016522D01*
X014261Y016513D02*
X014425Y016513D01*
X014425Y016505D02*
X014261Y016505D01*
X014261Y016496D02*
X014425Y016496D01*
X014425Y016488D02*
X014261Y016488D01*
X014261Y016479D02*
X014425Y016479D01*
X014425Y016470D02*
X014261Y016470D01*
X014261Y016462D02*
X014425Y016462D01*
X014425Y016453D02*
X014261Y016453D01*
X014261Y016445D02*
X014425Y016445D01*
X014425Y016436D02*
X014261Y016436D01*
X014261Y016428D02*
X014425Y016428D01*
X014425Y016419D02*
X014261Y016419D01*
X014261Y016411D02*
X014425Y016411D01*
X014425Y016402D02*
X014261Y016402D01*
X014261Y016394D02*
X014425Y016394D01*
X014425Y016385D02*
X014261Y016385D01*
X014261Y016376D02*
X014425Y016376D01*
X014425Y016368D02*
X014261Y016368D01*
X014261Y016359D02*
X014425Y016359D01*
X014425Y016351D02*
X014261Y016351D01*
X014261Y016342D02*
X014425Y016342D01*
X014425Y016334D02*
X014261Y016334D01*
X014261Y016325D02*
X014425Y016325D01*
X014425Y016317D02*
X014261Y016317D01*
X014261Y016308D02*
X014425Y016308D01*
X014425Y016300D02*
X014261Y016300D01*
X014261Y016291D02*
X014425Y016291D01*
X014425Y016282D02*
X014261Y016282D01*
X014261Y016274D02*
X014425Y016274D01*
X014425Y016265D02*
X014261Y016265D01*
X014261Y016257D02*
X014425Y016257D01*
X014425Y016248D02*
X014261Y016248D01*
X014261Y016240D02*
X014425Y016240D01*
X014425Y016231D02*
X014261Y016231D01*
X014261Y016223D02*
X014425Y016223D01*
X014425Y016214D02*
X014261Y016214D01*
X014261Y016206D02*
X014425Y016206D01*
X014425Y016197D02*
X014261Y016197D01*
X014261Y016189D02*
X014425Y016189D01*
X014425Y016180D02*
X014261Y016180D01*
X014261Y016171D02*
X014425Y016171D01*
X014425Y016163D02*
X014261Y016163D01*
X014261Y016154D02*
X014425Y016154D01*
X014425Y016146D02*
X014261Y016146D01*
X014261Y016137D02*
X014425Y016137D01*
X014425Y016129D02*
X014261Y016129D01*
X014261Y016120D02*
X014425Y016120D01*
X014425Y016112D02*
X014261Y016112D01*
X014261Y016103D02*
X014425Y016103D01*
X014425Y016095D02*
X014261Y016095D01*
X014261Y016086D02*
X014425Y016086D01*
X014623Y016180D02*
X015021Y016180D01*
X015022Y016180D02*
X015022Y016086D01*
X015180Y016086D01*
X015180Y016701D01*
X015014Y016701D01*
X015014Y016607D02*
X015180Y016607D01*
X015180Y016599D02*
X015014Y016599D01*
X015014Y016590D02*
X015180Y016590D01*
X015180Y016581D02*
X015014Y016581D01*
X015014Y016573D02*
X015180Y016573D01*
X015180Y016564D02*
X015014Y016564D01*
X015014Y016556D02*
X015180Y016556D01*
X015180Y016547D02*
X015014Y016547D01*
X015014Y016539D02*
X015180Y016539D01*
X015180Y016530D02*
X015014Y016530D01*
X015014Y016522D02*
X015180Y016522D01*
X015180Y016513D02*
X015014Y016513D01*
X015014Y016505D02*
X015180Y016505D01*
X015180Y016496D02*
X015014Y016496D01*
X015014Y016488D02*
X015180Y016488D01*
X015180Y016479D02*
X015014Y016479D01*
X015014Y016470D02*
X015180Y016470D01*
X015180Y016462D02*
X015014Y016462D01*
X015014Y016453D02*
X015180Y016453D01*
X015180Y016445D02*
X015014Y016445D01*
X015014Y016436D02*
X015180Y016436D01*
X015180Y016428D02*
X015014Y016428D01*
X015014Y016419D02*
X015180Y016419D01*
X015180Y016411D02*
X015014Y016411D01*
X015014Y016402D02*
X015180Y016402D01*
X015180Y016394D02*
X015014Y016394D01*
X015014Y016385D02*
X015180Y016385D01*
X015180Y016376D02*
X015014Y016376D01*
X015014Y016368D02*
X015180Y016368D01*
X015180Y016359D02*
X015013Y016359D01*
X015012Y016351D02*
X015180Y016351D01*
X015180Y016342D02*
X015012Y016342D01*
X015011Y016334D02*
X015180Y016334D01*
X015180Y016308D02*
X015008Y016308D01*
X015006Y016300D02*
X015180Y016300D01*
X015180Y016291D02*
X015004Y016291D01*
X015003Y016282D02*
X015180Y016282D01*
X015180Y016274D02*
X015001Y016274D01*
X014997Y016265D02*
X015180Y016265D01*
X015180Y016257D02*
X014994Y016257D01*
X014989Y016248D02*
X015180Y016248D01*
X015180Y016240D02*
X014983Y016240D01*
X014976Y016231D02*
X015180Y016231D01*
X015180Y016223D02*
X014967Y016223D01*
X014955Y016214D02*
X015180Y016214D01*
X015180Y016206D02*
X014939Y016206D01*
X014906Y016197D02*
X015180Y016197D01*
X015180Y016171D02*
X015022Y016171D01*
X015022Y016163D02*
X015180Y016163D01*
X015180Y016154D02*
X015022Y016154D01*
X015022Y016146D02*
X015180Y016146D01*
X015180Y016137D02*
X015022Y016137D01*
X015022Y016129D02*
X015180Y016129D01*
X015180Y016120D02*
X015022Y016120D01*
X015022Y016112D02*
X015180Y016112D01*
X015180Y016103D02*
X015022Y016103D01*
X015022Y016095D02*
X015180Y016095D01*
X015278Y016095D02*
X015444Y016095D01*
X015444Y016103D02*
X015278Y016103D01*
X015278Y016112D02*
X015444Y016112D01*
X015444Y016120D02*
X015278Y016120D01*
X015278Y016129D02*
X015444Y016129D01*
X015444Y016137D02*
X015278Y016137D01*
X015278Y016146D02*
X015444Y016146D01*
X015444Y016154D02*
X015278Y016154D01*
X015278Y016163D02*
X015444Y016163D01*
X015444Y016171D02*
X015278Y016171D01*
X015278Y016180D02*
X015444Y016180D01*
X015444Y016189D02*
X015278Y016189D01*
X015278Y016197D02*
X015444Y016197D01*
X015444Y016206D02*
X015278Y016206D01*
X015278Y016214D02*
X015444Y016214D01*
X015444Y016223D02*
X015278Y016223D01*
X015278Y016231D02*
X015444Y016231D01*
X015444Y016240D02*
X015278Y016240D01*
X015278Y016248D02*
X015444Y016248D01*
X015444Y016257D02*
X015278Y016257D01*
X015278Y016265D02*
X015444Y016265D01*
X015444Y016274D02*
X015278Y016274D01*
X015278Y016282D02*
X015444Y016282D01*
X015444Y016291D02*
X015278Y016291D01*
X015278Y016300D02*
X015444Y016300D01*
X015444Y016308D02*
X015278Y016308D01*
X015278Y016317D02*
X015444Y016317D01*
X015444Y016325D02*
X015278Y016325D01*
X015278Y016334D02*
X015444Y016334D01*
X015444Y016342D02*
X015278Y016342D01*
X015278Y016351D02*
X015444Y016351D01*
X015444Y016359D02*
X015278Y016359D01*
X015278Y016368D02*
X015444Y016368D01*
X015444Y016376D02*
X015278Y016376D01*
X015278Y016385D02*
X015444Y016385D01*
X015444Y016394D02*
X015278Y016394D01*
X015278Y016402D02*
X015444Y016402D01*
X015444Y016411D02*
X015278Y016411D01*
X015278Y016419D02*
X015444Y016419D01*
X015694Y016467D02*
X015693Y016489D01*
X015688Y016510D01*
X015681Y016530D01*
X015671Y016550D01*
X015691Y016496D02*
X015855Y016496D01*
X015855Y016488D02*
X015692Y016488D01*
X015693Y016479D02*
X015855Y016479D01*
X015456Y016514D02*
X015450Y016494D01*
X015446Y016473D01*
X015444Y016452D01*
X015855Y016502D02*
X015853Y016532D01*
X015849Y016562D01*
X015842Y016591D01*
X015613Y016717D02*
X015588Y016714D01*
X015563Y016708D01*
X015540Y016700D01*
X015517Y016688D01*
X015497Y016674D01*
X015453Y016624D02*
X015448Y016618D01*
X015492Y016565D02*
X015506Y016575D01*
X015521Y016583D01*
X015537Y016588D01*
X015555Y016590D01*
X015599Y016592D02*
X015612Y016591D01*
X015625Y016588D01*
X015496Y016674D02*
X015478Y016658D01*
X015462Y016639D01*
X015624Y016588D02*
X015638Y016581D01*
X015651Y016573D01*
X015661Y016562D01*
X015670Y016550D01*
X015492Y016566D02*
X015477Y016551D01*
X015465Y016534D01*
X015456Y016515D01*
X015444Y016086D02*
X015278Y016086D01*
X015014Y016171D02*
X014627Y016171D01*
X014632Y016163D02*
X015007Y016163D01*
X015000Y016154D02*
X014636Y016154D01*
X014642Y016146D02*
X014994Y016146D01*
X014985Y016137D02*
X014648Y016137D01*
X014655Y016129D02*
X014976Y016129D01*
X014967Y016120D02*
X014661Y016120D01*
X014670Y016112D02*
X014957Y016112D01*
X014945Y016103D02*
X014684Y016103D01*
X014699Y016095D02*
X014933Y016095D01*
X014919Y016086D02*
X014718Y016086D01*
X014742Y016077D02*
X014885Y016077D01*
X014147Y016086D02*
X014004Y016086D01*
X013943Y016095D02*
X014142Y016095D01*
X014136Y016103D02*
X013938Y016103D01*
X013933Y016112D02*
X014130Y016112D01*
X014125Y016120D02*
X013927Y016120D01*
X013922Y016129D02*
X014119Y016129D01*
X014113Y016137D02*
X013917Y016137D01*
X013912Y016146D02*
X014108Y016146D01*
X014102Y016154D02*
X013907Y016154D01*
X013901Y016163D02*
X014096Y016163D01*
X014090Y016171D02*
X013896Y016171D01*
X013891Y016180D02*
X014085Y016180D01*
X014079Y016189D02*
X013886Y016189D01*
X013881Y016197D02*
X014073Y016197D01*
X014068Y016206D02*
X013876Y016206D01*
X013870Y016214D02*
X014062Y016214D01*
X014056Y016223D02*
X013865Y016223D01*
X013860Y016231D02*
X014051Y016231D01*
X014045Y016240D02*
X013855Y016240D01*
X013850Y016248D02*
X014039Y016248D01*
X014034Y016257D02*
X013844Y016257D01*
X013839Y016265D02*
X014028Y016265D01*
X014022Y016274D02*
X013834Y016274D01*
X013829Y016282D02*
X014016Y016282D01*
X014011Y016291D02*
X013824Y016291D01*
X013819Y016300D02*
X014005Y016300D01*
X013999Y016308D02*
X013813Y016308D01*
X013808Y016317D02*
X013994Y016317D01*
X013988Y016325D02*
X013803Y016325D01*
X013798Y016334D02*
X013982Y016334D01*
X013977Y016342D02*
X013793Y016342D01*
X013787Y016351D02*
X013971Y016351D01*
X013965Y016359D02*
X013782Y016359D01*
X013771Y016359D02*
X013542Y016359D01*
X013542Y016351D02*
X013762Y016351D01*
X013753Y016342D02*
X013542Y016342D01*
X013542Y016334D02*
X013744Y016334D01*
X013736Y016325D02*
X013542Y016325D01*
X013542Y016317D02*
X013727Y016317D01*
X013718Y016308D02*
X013542Y016308D01*
X013542Y016300D02*
X013709Y016300D01*
X013707Y016291D02*
X013542Y016291D01*
X013542Y016282D02*
X013707Y016282D01*
X013707Y016274D02*
X013542Y016274D01*
X013542Y016265D02*
X013707Y016265D01*
X013707Y016257D02*
X013542Y016257D01*
X013542Y016248D02*
X013707Y016248D01*
X013707Y016240D02*
X013542Y016240D01*
X013542Y016231D02*
X013707Y016231D01*
X013707Y016223D02*
X013542Y016223D01*
X013542Y016214D02*
X013707Y016214D01*
X013707Y016206D02*
X013542Y016206D01*
X013542Y016197D02*
X013707Y016197D01*
X013707Y016189D02*
X013542Y016189D01*
X013542Y016180D02*
X013707Y016180D01*
X013707Y016171D02*
X013542Y016171D01*
X013542Y016163D02*
X013707Y016163D01*
X013707Y016154D02*
X013542Y016154D01*
X013542Y016146D02*
X013707Y016146D01*
X013707Y016137D02*
X013542Y016137D01*
X013542Y016129D02*
X013707Y016129D01*
X013707Y016120D02*
X013542Y016120D01*
X013542Y016112D02*
X013707Y016112D01*
X013707Y016103D02*
X013542Y016103D01*
X013542Y016095D02*
X013707Y016095D01*
X013707Y016086D02*
X013542Y016086D01*
X013542Y016368D02*
X013959Y016368D01*
X013954Y016376D02*
X013542Y016376D01*
X013542Y016385D02*
X013948Y016385D01*
X013942Y016394D02*
X013542Y016394D01*
X013542Y016402D02*
X013937Y016402D01*
X013931Y016411D02*
X013542Y016411D01*
X013542Y016419D02*
X013925Y016419D01*
X013920Y016428D02*
X013542Y016428D01*
X013542Y016436D02*
X013914Y016436D01*
X013908Y016445D02*
X013542Y016445D01*
X013542Y016453D02*
X013903Y016453D01*
X013897Y016462D02*
X013542Y016462D01*
X013542Y016470D02*
X013891Y016470D01*
X013468Y016561D02*
X013468Y016713D01*
X013414Y016716D01*
X013386Y016713D01*
X013360Y016704D01*
X013336Y016690D01*
X013301Y016667D01*
X013285Y016655D01*
X013273Y016640D01*
X013246Y016599D01*
X013238Y016587D01*
X013232Y016585D01*
X013228Y016587D01*
X013228Y016700D01*
X013076Y016673D01*
X013075Y016087D01*
X013239Y016087D01*
X013239Y016395D01*
X013242Y016429D01*
X013250Y016462D01*
X013076Y016462D01*
X013076Y016470D02*
X013254Y016470D01*
X013250Y016462D02*
X013264Y016494D01*
X013286Y016523D01*
X013313Y016545D01*
X013333Y016556D01*
X013354Y016564D01*
X013376Y016567D01*
X013437Y016567D01*
X013461Y016562D01*
X013467Y016561D01*
X013468Y016561D01*
X013468Y016564D02*
X013451Y016564D01*
X013468Y016573D02*
X013076Y016573D01*
X013076Y016581D02*
X013468Y016581D01*
X013468Y016590D02*
X013240Y016590D01*
X013245Y016599D02*
X013468Y016599D01*
X013468Y016607D02*
X013251Y016607D01*
X013257Y016616D02*
X013468Y016616D01*
X013468Y016624D02*
X013262Y016624D01*
X013268Y016633D02*
X013468Y016633D01*
X013468Y016641D02*
X013274Y016641D01*
X013281Y016650D02*
X013468Y016650D01*
X013468Y016658D02*
X013289Y016658D01*
X013300Y016667D02*
X013468Y016667D01*
X013468Y016675D02*
X013313Y016675D01*
X013326Y016684D02*
X013468Y016684D01*
X013468Y016693D02*
X013340Y016693D01*
X013355Y016701D02*
X013468Y016701D01*
X013468Y016710D02*
X013376Y016710D01*
X013359Y016564D02*
X013076Y016564D01*
X013076Y016556D02*
X013332Y016556D01*
X013317Y016547D02*
X013076Y016547D01*
X013076Y016539D02*
X013305Y016539D01*
X013295Y016530D02*
X013076Y016530D01*
X013076Y016522D02*
X013285Y016522D01*
X013279Y016513D02*
X013076Y016513D01*
X013076Y016505D02*
X013272Y016505D01*
X013266Y016496D02*
X013076Y016496D01*
X013076Y016488D02*
X013261Y016488D01*
X013257Y016479D02*
X013076Y016479D01*
X013076Y016453D02*
X013248Y016453D01*
X013246Y016445D02*
X013075Y016445D01*
X013075Y016436D02*
X013244Y016436D01*
X013242Y016428D02*
X013075Y016428D01*
X013075Y016419D02*
X013241Y016419D01*
X013240Y016411D02*
X013075Y016411D01*
X013075Y016402D02*
X013240Y016402D01*
X013239Y016394D02*
X013075Y016394D01*
X013075Y016385D02*
X013239Y016385D01*
X013239Y016376D02*
X013075Y016376D01*
X013075Y016368D02*
X013239Y016368D01*
X013239Y016359D02*
X013075Y016359D01*
X013075Y016351D02*
X013239Y016351D01*
X013239Y016342D02*
X013075Y016342D01*
X013075Y016334D02*
X013239Y016334D01*
X013239Y016325D02*
X013075Y016325D01*
X013075Y016317D02*
X013239Y016317D01*
X013239Y016308D02*
X013075Y016308D01*
X013075Y016300D02*
X013239Y016300D01*
X013239Y016291D02*
X013075Y016291D01*
X013075Y016282D02*
X013239Y016282D01*
X013239Y016274D02*
X013075Y016274D01*
X013075Y016265D02*
X013239Y016265D01*
X013239Y016257D02*
X013075Y016257D01*
X013075Y016248D02*
X013239Y016248D01*
X013239Y016240D02*
X013075Y016240D01*
X013075Y016231D02*
X013239Y016231D01*
X013239Y016223D02*
X013075Y016223D01*
X013075Y016214D02*
X013239Y016214D01*
X013239Y016206D02*
X013075Y016206D01*
X013075Y016197D02*
X013239Y016197D01*
X013239Y016189D02*
X013075Y016189D01*
X013075Y016180D02*
X013239Y016180D01*
X013239Y016171D02*
X013075Y016171D01*
X013075Y016163D02*
X013239Y016163D01*
X013239Y016154D02*
X013075Y016154D01*
X013075Y016146D02*
X013239Y016146D01*
X013239Y016137D02*
X013075Y016137D01*
X013075Y016129D02*
X013239Y016129D01*
X013239Y016120D02*
X013075Y016120D01*
X013075Y016112D02*
X013239Y016112D01*
X013239Y016103D02*
X013075Y016103D01*
X013075Y016095D02*
X013239Y016095D01*
X012989Y016087D02*
X012986Y016095D01*
X012972Y016147D01*
X012968Y016200D01*
X012969Y016371D01*
X012808Y016371D01*
X012808Y016338D01*
X012805Y016295D01*
X012797Y016252D01*
X012795Y016245D01*
X012790Y016235D01*
X012784Y016225D01*
X012754Y016196D01*
X012742Y016188D01*
X012742Y016189D02*
X012969Y016189D01*
X012968Y016197D02*
X012755Y016197D01*
X012764Y016206D02*
X012968Y016206D01*
X012968Y016214D02*
X012772Y016214D01*
X012781Y016223D02*
X012968Y016223D01*
X012968Y016231D02*
X012788Y016231D01*
X012793Y016240D02*
X012968Y016240D01*
X012968Y016248D02*
X012796Y016248D01*
X012798Y016257D02*
X012968Y016257D01*
X012968Y016265D02*
X012799Y016265D01*
X012801Y016274D02*
X012968Y016274D01*
X012968Y016282D02*
X012803Y016282D01*
X012804Y016291D02*
X012968Y016291D01*
X012968Y016300D02*
X012805Y016300D01*
X012806Y016308D02*
X012969Y016308D01*
X012969Y016317D02*
X012807Y016317D01*
X012807Y016325D02*
X012969Y016325D01*
X012969Y016334D02*
X012808Y016334D01*
X012808Y016342D02*
X012969Y016342D01*
X012969Y016351D02*
X012808Y016351D01*
X012808Y016359D02*
X012969Y016359D01*
X012969Y016368D02*
X012808Y016368D01*
X012808Y016375D02*
X012968Y016375D01*
X012968Y016565D01*
X012964Y016594D01*
X012954Y016621D01*
X012937Y016645D01*
X012915Y016664D01*
X012864Y016692D01*
X012808Y016708D01*
X012739Y016717D01*
X012670Y016718D01*
X012602Y016709D01*
X012554Y016696D01*
X012508Y016675D01*
X012476Y016653D01*
X012449Y016624D01*
X012952Y016624D01*
X012956Y016616D02*
X012444Y016616D01*
X012449Y016624D02*
X012428Y016590D01*
X012612Y016590D01*
X012615Y016593D02*
X012634Y016603D01*
X012657Y016610D01*
X012681Y016612D01*
X012735Y016610D01*
X012750Y016608D01*
X012765Y016602D01*
X012778Y016594D01*
X012789Y016584D01*
X012797Y016573D01*
X012967Y016573D01*
X012966Y016581D02*
X012791Y016581D01*
X012797Y016573D02*
X012803Y016559D01*
X012807Y016538D01*
X012807Y016516D01*
X012803Y016494D01*
X012801Y016490D01*
X012798Y016485D01*
X012786Y016474D01*
X012768Y016464D01*
X012749Y016457D01*
X012697Y016448D01*
X012610Y016439D01*
X012549Y016428D01*
X012491Y016409D01*
X012464Y016395D01*
X012439Y016375D01*
X012420Y016351D01*
X012403Y016317D01*
X012395Y016280D01*
X012395Y016239D01*
X012402Y016197D01*
X012582Y016197D01*
X012588Y016192D02*
X012573Y016204D01*
X012565Y016215D01*
X012559Y016227D01*
X012556Y016240D01*
X012395Y016240D01*
X012395Y016248D02*
X012556Y016248D01*
X012556Y016240D02*
X012555Y016264D01*
X012560Y016288D01*
X012569Y016310D01*
X012578Y016323D01*
X012589Y016333D01*
X012608Y016345D01*
X012630Y016353D01*
X012652Y016357D01*
X012709Y016363D01*
X012748Y016370D01*
X012786Y016381D01*
X012794Y016385D01*
X012801Y016392D01*
X012806Y016399D01*
X012808Y016399D01*
X012808Y016375D01*
X012808Y016376D02*
X012968Y016376D01*
X012968Y016385D02*
X012808Y016385D01*
X012808Y016394D02*
X012968Y016394D01*
X012968Y016402D02*
X012477Y016402D01*
X012462Y016394D02*
X012802Y016394D01*
X012793Y016385D02*
X012451Y016385D01*
X012441Y016376D02*
X012770Y016376D01*
X012736Y016368D02*
X012434Y016368D01*
X012427Y016359D02*
X012672Y016359D01*
X012624Y016351D02*
X012420Y016351D01*
X012415Y016342D02*
X012604Y016342D01*
X012590Y016334D02*
X012411Y016334D01*
X012407Y016325D02*
X012580Y016325D01*
X012573Y016317D02*
X012403Y016317D01*
X012401Y016308D02*
X012568Y016308D01*
X012565Y016300D02*
X012399Y016300D01*
X012397Y016291D02*
X012561Y016291D01*
X012559Y016282D02*
X012395Y016282D01*
X012395Y016274D02*
X012557Y016274D01*
X012556Y016265D02*
X012395Y016265D01*
X012395Y016257D02*
X012556Y016257D01*
X012558Y016231D02*
X012396Y016231D01*
X012398Y016223D02*
X012561Y016223D01*
X012565Y016214D02*
X012399Y016214D01*
X012401Y016206D02*
X012572Y016206D01*
X012588Y016192D02*
X012606Y016183D01*
X012625Y016179D01*
X012686Y016177D01*
X012728Y016183D01*
X012742Y016188D01*
X012705Y016180D02*
X012969Y016180D01*
X012970Y016171D02*
X012412Y016171D01*
X012415Y016163D02*
X012971Y016163D01*
X012971Y016154D02*
X012419Y016154D01*
X012417Y016158D02*
X012428Y016139D01*
X012443Y016123D01*
X012461Y016109D01*
X012511Y016085D01*
X012565Y016073D01*
X012629Y016072D01*
X012693Y016081D01*
X012734Y016095D01*
X012771Y016116D01*
X012804Y016144D01*
X012806Y016146D01*
X012809Y016146D01*
X012972Y016146D01*
X012975Y016137D02*
X012815Y016137D01*
X012814Y016141D02*
X012823Y016100D01*
X012826Y016089D01*
X012827Y016088D01*
X012828Y016087D01*
X012830Y016087D01*
X012989Y016087D01*
X012986Y016095D02*
X012824Y016095D01*
X012822Y016103D02*
X012984Y016103D01*
X012982Y016112D02*
X012820Y016112D01*
X012819Y016120D02*
X012979Y016120D01*
X012977Y016129D02*
X012817Y016129D01*
X012814Y016141D02*
X012813Y016144D01*
X012811Y016145D01*
X012809Y016146D01*
X012807Y016146D02*
X012424Y016146D01*
X012430Y016137D02*
X012796Y016137D01*
X012786Y016129D02*
X012438Y016129D01*
X012447Y016120D02*
X012776Y016120D01*
X012763Y016112D02*
X012458Y016112D01*
X012474Y016103D02*
X012748Y016103D01*
X012732Y016095D02*
X012492Y016095D01*
X012510Y016086D02*
X012707Y016086D01*
X012667Y016077D02*
X012546Y016077D01*
X012595Y016189D02*
X012406Y016189D01*
X012402Y016197D02*
X012417Y016158D01*
X012409Y016180D02*
X012622Y016180D01*
X012593Y016436D02*
X012968Y016436D01*
X012968Y016428D02*
X012548Y016428D01*
X012521Y016419D02*
X012968Y016419D01*
X012968Y016411D02*
X012495Y016411D01*
X012574Y016515D02*
X012576Y016515D01*
X012576Y016517D01*
X012579Y016539D01*
X012586Y016560D01*
X012598Y016578D01*
X012615Y016593D01*
X012625Y016599D02*
X012433Y016599D01*
X012439Y016607D02*
X012647Y016607D01*
X012602Y016581D02*
X012425Y016581D01*
X012422Y016573D02*
X012595Y016573D01*
X012589Y016564D02*
X012419Y016564D01*
X012416Y016556D02*
X012585Y016556D01*
X012582Y016547D02*
X012414Y016547D01*
X012415Y016553D02*
X012410Y016514D01*
X012409Y016515D01*
X012574Y016515D01*
X012576Y016522D02*
X012411Y016522D01*
X012412Y016530D02*
X012577Y016530D01*
X012578Y016539D02*
X012413Y016539D01*
X012415Y016553D02*
X012428Y016590D01*
X012457Y016633D02*
X012946Y016633D01*
X012940Y016641D02*
X012465Y016641D01*
X012473Y016650D02*
X012932Y016650D01*
X012922Y016658D02*
X012484Y016658D01*
X012496Y016667D02*
X012910Y016667D01*
X012894Y016675D02*
X012508Y016675D01*
X012527Y016684D02*
X012878Y016684D01*
X012860Y016693D02*
X012546Y016693D01*
X012572Y016701D02*
X012832Y016701D01*
X012798Y016710D02*
X012605Y016710D01*
X012752Y016607D02*
X012959Y016607D01*
X012963Y016599D02*
X012771Y016599D01*
X012782Y016590D02*
X012965Y016590D01*
X012968Y016564D02*
X012801Y016564D01*
X012804Y016556D02*
X012968Y016556D01*
X012968Y016547D02*
X012805Y016547D01*
X012807Y016539D02*
X012968Y016539D01*
X012968Y016530D02*
X012807Y016530D01*
X012807Y016522D02*
X012968Y016522D01*
X012968Y016513D02*
X012807Y016513D01*
X012805Y016505D02*
X012968Y016505D01*
X012968Y016496D02*
X012803Y016496D01*
X012799Y016488D02*
X012968Y016488D01*
X012968Y016479D02*
X012791Y016479D01*
X012779Y016470D02*
X012968Y016470D01*
X012968Y016462D02*
X012762Y016462D01*
X012726Y016453D02*
X012968Y016453D01*
X012968Y016445D02*
X012663Y016445D01*
X012333Y016400D02*
X012321Y016487D01*
X012295Y016570D01*
X012272Y016611D01*
X012241Y016646D01*
X012208Y016672D01*
X012173Y016693D01*
X012133Y016709D01*
X012090Y016716D01*
X012012Y016715D01*
X011993Y016711D01*
X011941Y016690D01*
X011925Y016681D01*
X011912Y016669D01*
X011877Y016631D01*
X011868Y016621D01*
X011866Y016622D01*
X011863Y016625D01*
X011864Y016704D01*
X011711Y016675D01*
X011711Y016672D01*
X011711Y015865D01*
X011874Y015718D01*
X011874Y016159D01*
X011874Y016281D01*
X011879Y016281D01*
X011880Y016281D01*
X011881Y016282D01*
X011882Y016284D01*
X011882Y016285D01*
X011873Y016312D01*
X011868Y016343D01*
X011867Y016444D01*
X011871Y016477D01*
X011882Y016509D01*
X011899Y016537D01*
X011923Y016565D01*
X011952Y016587D01*
X011966Y016594D01*
X011982Y016597D01*
X012025Y016599D01*
X012048Y016597D01*
X012070Y016591D01*
X012091Y016580D01*
X012122Y016555D01*
X012146Y016523D01*
X012162Y016486D01*
X012170Y016447D01*
X012170Y016369D01*
X012158Y016291D01*
X012323Y016291D01*
X012325Y016300D02*
X012159Y016300D01*
X012161Y016308D02*
X012327Y016308D01*
X012328Y016313D02*
X012315Y016259D01*
X012293Y016208D01*
X012263Y016161D01*
X012237Y016133D01*
X012207Y016110D01*
X012173Y016093D01*
X012137Y016081D01*
X012089Y016074D01*
X012041Y016073D01*
X011993Y016079D01*
X011960Y016090D01*
X011929Y016107D01*
X011903Y016130D01*
X011883Y016158D01*
X011883Y016275D01*
X011886Y016278D01*
X011886Y016276D01*
X011887Y016272D01*
X011889Y016269D01*
X011891Y016266D01*
X011903Y016244D01*
X011920Y016224D01*
X011941Y016209D01*
X011969Y016197D01*
X011998Y016191D01*
X012035Y016191D01*
X012071Y016198D01*
X012101Y016212D01*
X012127Y016233D01*
X012146Y016260D01*
X012158Y016291D01*
X012155Y016282D02*
X012321Y016282D01*
X012319Y016274D02*
X012151Y016274D01*
X012148Y016265D02*
X012317Y016265D01*
X012314Y016257D02*
X012144Y016257D01*
X012138Y016248D02*
X012311Y016248D01*
X012307Y016240D02*
X012131Y016240D01*
X012124Y016231D02*
X012303Y016231D01*
X012300Y016223D02*
X012114Y016223D01*
X012104Y016214D02*
X012296Y016214D01*
X012292Y016206D02*
X012087Y016206D01*
X012065Y016197D02*
X012286Y016197D01*
X012281Y016189D02*
X011883Y016189D01*
X011883Y016197D02*
X011970Y016197D01*
X011949Y016206D02*
X011883Y016206D01*
X011883Y016214D02*
X011934Y016214D01*
X011922Y016223D02*
X011883Y016223D01*
X011883Y016231D02*
X011914Y016231D01*
X011906Y016240D02*
X011883Y016240D01*
X011883Y016248D02*
X011900Y016248D01*
X011896Y016257D02*
X011883Y016257D01*
X011883Y016265D02*
X011891Y016265D01*
X011886Y016274D02*
X011883Y016274D01*
X011882Y016282D02*
X011711Y016282D01*
X011711Y016274D02*
X011874Y016274D01*
X011874Y016265D02*
X011711Y016265D01*
X011711Y016257D02*
X011874Y016257D01*
X011874Y016248D02*
X011711Y016248D01*
X011711Y016240D02*
X011874Y016240D01*
X011874Y016231D02*
X011711Y016231D01*
X011711Y016223D02*
X011874Y016223D01*
X011874Y016214D02*
X011711Y016214D01*
X011711Y016206D02*
X011874Y016206D01*
X011874Y016197D02*
X011711Y016197D01*
X011711Y016189D02*
X011874Y016189D01*
X011874Y016180D02*
X011711Y016180D01*
X011711Y016171D02*
X011874Y016171D01*
X011874Y016163D02*
X011711Y016163D01*
X011711Y016154D02*
X011874Y016154D01*
X011874Y016146D02*
X011711Y016146D01*
X011711Y016137D02*
X011874Y016137D01*
X011874Y016129D02*
X011711Y016129D01*
X011711Y016120D02*
X011874Y016120D01*
X011874Y016112D02*
X011711Y016112D01*
X011711Y016103D02*
X011874Y016103D01*
X011874Y016095D02*
X011711Y016095D01*
X011711Y016086D02*
X011874Y016086D01*
X011874Y016077D02*
X011711Y016077D01*
X011711Y016069D02*
X011874Y016069D01*
X011874Y016060D02*
X011711Y016060D01*
X011711Y016052D02*
X011874Y016052D01*
X011874Y016043D02*
X011711Y016043D01*
X011711Y016035D02*
X011874Y016035D01*
X011874Y016026D02*
X011711Y016026D01*
X011711Y016018D02*
X011874Y016018D01*
X011874Y016009D02*
X011711Y016009D01*
X011711Y016001D02*
X011874Y016001D01*
X011874Y015992D02*
X011711Y015992D01*
X011711Y015983D02*
X011874Y015983D01*
X011874Y015975D02*
X011711Y015975D01*
X011711Y015966D02*
X011874Y015966D01*
X011874Y015958D02*
X011711Y015958D01*
X011711Y015949D02*
X011874Y015949D01*
X011874Y015941D02*
X011711Y015941D01*
X011711Y015932D02*
X011874Y015932D01*
X011874Y015924D02*
X011711Y015924D01*
X011711Y015915D02*
X011874Y015915D01*
X011874Y015907D02*
X011711Y015907D01*
X011711Y015898D02*
X011874Y015898D01*
X011874Y015889D02*
X011711Y015889D01*
X011711Y015881D02*
X011874Y015881D01*
X011874Y015872D02*
X011711Y015872D01*
X011712Y015864D02*
X011874Y015864D01*
X011874Y015855D02*
X011722Y015855D01*
X011731Y015847D02*
X011874Y015847D01*
X011874Y015838D02*
X011741Y015838D01*
X011750Y015830D02*
X011874Y015830D01*
X011874Y015821D02*
X011760Y015821D01*
X011769Y015813D02*
X011874Y015813D01*
X011874Y015804D02*
X011779Y015804D01*
X011788Y015796D02*
X011874Y015796D01*
X011874Y015787D02*
X011798Y015787D01*
X011807Y015778D02*
X011874Y015778D01*
X011874Y015770D02*
X011817Y015770D01*
X011826Y015761D02*
X011874Y015761D01*
X011874Y015753D02*
X011836Y015753D01*
X011845Y015744D02*
X011874Y015744D01*
X011874Y015736D02*
X011855Y015736D01*
X011864Y015727D02*
X011874Y015727D01*
X011874Y015719D02*
X011874Y015719D01*
X011971Y016086D02*
X012152Y016086D01*
X012176Y016095D02*
X011951Y016095D01*
X011936Y016103D02*
X012193Y016103D01*
X012208Y016112D02*
X011924Y016112D01*
X011915Y016120D02*
X012220Y016120D01*
X012231Y016129D02*
X011905Y016129D01*
X011898Y016137D02*
X012241Y016137D01*
X012249Y016146D02*
X011892Y016146D01*
X011886Y016154D02*
X012256Y016154D01*
X012264Y016163D02*
X011883Y016163D01*
X011883Y016171D02*
X012270Y016171D01*
X012275Y016180D02*
X011883Y016180D01*
X011880Y016291D02*
X011711Y016291D01*
X011711Y016300D02*
X011877Y016300D01*
X011874Y016308D02*
X011711Y016308D01*
X011711Y016317D02*
X011872Y016317D01*
X011871Y016325D02*
X011711Y016325D01*
X011711Y016334D02*
X011869Y016334D01*
X011868Y016342D02*
X011711Y016342D01*
X011711Y016351D02*
X011868Y016351D01*
X011868Y016359D02*
X011711Y016359D01*
X011711Y016368D02*
X011868Y016368D01*
X011868Y016376D02*
X011711Y016376D01*
X011711Y016385D02*
X011867Y016385D01*
X011867Y016394D02*
X011711Y016394D01*
X011711Y016402D02*
X011867Y016402D01*
X011867Y016411D02*
X011711Y016411D01*
X011711Y016419D02*
X011867Y016419D01*
X011867Y016428D02*
X011711Y016428D01*
X011711Y016436D02*
X011867Y016436D01*
X011867Y016445D02*
X011711Y016445D01*
X011711Y016453D02*
X011868Y016453D01*
X011869Y016462D02*
X011711Y016462D01*
X011711Y016470D02*
X011870Y016470D01*
X011872Y016479D02*
X011711Y016479D01*
X011711Y016488D02*
X011875Y016488D01*
X011878Y016496D02*
X011711Y016496D01*
X011711Y016505D02*
X011881Y016505D01*
X011885Y016513D02*
X011711Y016513D01*
X011711Y016522D02*
X011890Y016522D01*
X011895Y016530D02*
X011711Y016530D01*
X011711Y016539D02*
X011900Y016539D01*
X011908Y016547D02*
X011711Y016547D01*
X011711Y016556D02*
X011915Y016556D01*
X011923Y016564D02*
X011711Y016564D01*
X011711Y016573D02*
X011934Y016573D01*
X011945Y016581D02*
X011711Y016581D01*
X011711Y016590D02*
X011958Y016590D01*
X012011Y016599D02*
X011711Y016599D01*
X011711Y016607D02*
X012274Y016607D01*
X012279Y016599D02*
X012033Y016599D01*
X012072Y016590D02*
X012284Y016590D01*
X012289Y016581D02*
X012089Y016581D01*
X012100Y016573D02*
X012293Y016573D01*
X012297Y016564D02*
X012110Y016564D01*
X012120Y016556D02*
X012299Y016556D01*
X012302Y016547D02*
X012127Y016547D01*
X012134Y016539D02*
X012305Y016539D01*
X012308Y016530D02*
X012140Y016530D01*
X012146Y016522D02*
X012310Y016522D01*
X012313Y016513D02*
X012150Y016513D01*
X012154Y016505D02*
X012316Y016505D01*
X012319Y016496D02*
X012158Y016496D01*
X012162Y016488D02*
X012321Y016488D01*
X012322Y016479D02*
X012164Y016479D01*
X012165Y016470D02*
X012324Y016470D01*
X012325Y016462D02*
X012167Y016462D01*
X012169Y016453D02*
X012326Y016453D01*
X012327Y016445D02*
X012170Y016445D01*
X012170Y016436D02*
X012328Y016436D01*
X012329Y016428D02*
X012170Y016428D01*
X012170Y016419D02*
X012330Y016419D01*
X012331Y016411D02*
X012170Y016411D01*
X012170Y016402D02*
X012332Y016402D01*
X012333Y016400D02*
X012328Y016313D01*
X012328Y016317D02*
X012162Y016317D01*
X012163Y016325D02*
X012329Y016325D01*
X012329Y016334D02*
X012165Y016334D01*
X012166Y016342D02*
X012329Y016342D01*
X012330Y016351D02*
X012167Y016351D01*
X012169Y016359D02*
X012330Y016359D01*
X012331Y016368D02*
X012170Y016368D01*
X012170Y016376D02*
X012331Y016376D01*
X012332Y016385D02*
X012170Y016385D01*
X012170Y016394D02*
X012332Y016394D01*
X012268Y016616D02*
X011711Y016616D01*
X011711Y016624D02*
X011864Y016624D01*
X011871Y016624D02*
X012260Y016624D01*
X012253Y016633D02*
X011878Y016633D01*
X011886Y016641D02*
X012245Y016641D01*
X012236Y016650D02*
X011894Y016650D01*
X011902Y016658D02*
X012226Y016658D01*
X012215Y016667D02*
X011910Y016667D01*
X011919Y016675D02*
X012203Y016675D01*
X012188Y016684D02*
X011930Y016684D01*
X011947Y016693D02*
X012174Y016693D01*
X012153Y016701D02*
X011968Y016701D01*
X011989Y016710D02*
X012129Y016710D01*
X011864Y016701D02*
X011847Y016701D01*
X011864Y016693D02*
X011802Y016693D01*
X011757Y016684D02*
X011864Y016684D01*
X011864Y016675D02*
X011712Y016675D01*
X011711Y016667D02*
X011863Y016667D01*
X011863Y016658D02*
X011711Y016658D01*
X011711Y016650D02*
X011863Y016650D01*
X011863Y016641D02*
X011711Y016641D01*
X011711Y016633D02*
X011863Y016633D01*
X011611Y016560D02*
X011592Y016546D01*
X011515Y016603D01*
X011349Y016656D01*
X011200Y016611D01*
X011219Y016503D01*
X011544Y016314D01*
X011551Y016300D01*
X011507Y016169D01*
X011345Y016133D01*
X011064Y016281D01*
X011216Y016281D01*
X011216Y016279D01*
X011217Y016259D01*
X011223Y016240D01*
X011143Y016240D01*
X011148Y016240D02*
X011070Y016240D01*
X011069Y016244D02*
X011086Y016194D01*
X011098Y016171D01*
X011115Y016150D01*
X011135Y016133D01*
X011182Y016103D01*
X011518Y016103D01*
X011533Y016110D02*
X011566Y016134D01*
X011595Y016163D01*
X011610Y016185D01*
X011620Y016210D01*
X011626Y016236D01*
X011629Y016277D01*
X011625Y016319D01*
X011612Y016358D01*
X011602Y016374D01*
X011589Y016388D01*
X011562Y016408D01*
X011532Y016424D01*
X011467Y016448D01*
X011399Y016463D01*
X011319Y016479D01*
X011288Y016490D01*
X011261Y016507D01*
X011249Y016520D01*
X011241Y016535D01*
X011238Y016551D01*
X011240Y016567D01*
X011247Y016582D01*
X011257Y016594D01*
X011270Y016602D01*
X011287Y016609D01*
X011306Y016612D01*
X011340Y016614D01*
X011374Y016612D01*
X011394Y016608D01*
X011413Y016600D01*
X011431Y016589D01*
X011442Y016578D01*
X011452Y016565D01*
X011458Y016550D01*
X011460Y016540D01*
X011461Y016529D01*
X011614Y016529D01*
X011611Y016557D01*
X011530Y016608D01*
X011351Y016660D01*
X011186Y016617D01*
X011207Y016497D01*
X011380Y016394D01*
X011547Y016303D01*
X011504Y016175D01*
X011349Y016140D01*
X011064Y016281D01*
X011065Y016267D01*
X011069Y016244D01*
X011068Y016248D02*
X011131Y016248D01*
X011126Y016248D02*
X011221Y016248D01*
X011223Y016240D02*
X011234Y016222D01*
X011252Y016204D01*
X011274Y016190D01*
X011298Y016181D01*
X011321Y016178D01*
X011374Y016178D01*
X011398Y016181D01*
X011422Y016189D01*
X011443Y016202D01*
X011455Y016214D01*
X011522Y016214D01*
X011517Y016214D02*
X011621Y016214D01*
X011618Y016206D02*
X011514Y016206D01*
X011519Y016206D02*
X011446Y016206D01*
X011455Y016214D02*
X011464Y016229D01*
X011469Y016245D01*
X011470Y016262D01*
X011466Y016279D01*
X011458Y016295D01*
X011447Y016308D01*
X011433Y016317D01*
X011389Y016336D01*
X011342Y016348D01*
X011199Y016382D01*
X011167Y016394D01*
X011138Y016411D01*
X011378Y016411D01*
X011367Y016402D02*
X011570Y016402D01*
X011582Y016394D02*
X011381Y016394D01*
X011393Y016402D02*
X011153Y016402D01*
X011138Y016411D02*
X011111Y016432D01*
X011098Y016447D01*
X011088Y016465D01*
X011082Y016484D01*
X011078Y016529D01*
X011083Y016574D01*
X011097Y016616D01*
X011109Y016637D01*
X011124Y016655D01*
X011143Y016669D01*
X011193Y016695D01*
X011248Y016711D01*
X011304Y016717D01*
X011375Y016717D01*
X011430Y016712D01*
X011483Y016697D01*
X011526Y016676D01*
X011564Y016646D01*
X011578Y016631D01*
X011589Y016613D01*
X011603Y016582D01*
X011611Y016560D01*
X011611Y016556D02*
X011455Y016556D01*
X011452Y016564D02*
X011600Y016564D01*
X011609Y016564D02*
X011567Y016564D01*
X011556Y016573D02*
X011606Y016573D01*
X011603Y016581D02*
X011544Y016581D01*
X011533Y016590D02*
X011599Y016590D01*
X011596Y016599D02*
X011521Y016599D01*
X011532Y016607D02*
X011397Y016607D01*
X011416Y016599D02*
X011545Y016599D01*
X011559Y016590D02*
X011430Y016590D01*
X011439Y016581D02*
X011572Y016581D01*
X011586Y016573D02*
X011446Y016573D01*
X011459Y016547D02*
X011612Y016547D01*
X011613Y016539D02*
X011460Y016539D01*
X011461Y016530D02*
X011614Y016530D01*
X011593Y016547D02*
X011590Y016547D01*
X011579Y016556D02*
X011605Y016556D01*
X011592Y016607D02*
X011503Y016607D01*
X011504Y016616D02*
X011186Y016616D01*
X011188Y016607D02*
X011283Y016607D01*
X011264Y016599D02*
X011189Y016599D01*
X011191Y016590D02*
X011254Y016590D01*
X011247Y016581D02*
X011192Y016581D01*
X011194Y016573D02*
X011243Y016573D01*
X011240Y016564D02*
X011195Y016564D01*
X011197Y016556D02*
X011239Y016556D01*
X011239Y016547D02*
X011198Y016547D01*
X011200Y016539D02*
X011240Y016539D01*
X011244Y016530D02*
X011201Y016530D01*
X011203Y016522D02*
X011248Y016522D01*
X011255Y016513D02*
X011204Y016513D01*
X011206Y016505D02*
X011265Y016505D01*
X011279Y016496D02*
X011209Y016496D01*
X011219Y016505D02*
X011080Y016505D01*
X011079Y016513D02*
X011217Y016513D01*
X011216Y016522D02*
X011078Y016522D01*
X011078Y016530D02*
X011214Y016530D01*
X011213Y016539D02*
X011079Y016539D01*
X011080Y016547D02*
X011211Y016547D01*
X011210Y016556D02*
X011081Y016556D01*
X011082Y016564D02*
X011208Y016564D01*
X011207Y016573D02*
X011083Y016573D01*
X011085Y016581D02*
X011205Y016581D01*
X011204Y016590D02*
X011088Y016590D01*
X011091Y016599D02*
X011202Y016599D01*
X011201Y016607D02*
X011094Y016607D01*
X011097Y016616D02*
X011214Y016616D01*
X011213Y016624D02*
X011475Y016624D01*
X011476Y016616D02*
X011587Y016616D01*
X011582Y016624D02*
X011449Y016624D01*
X011446Y016633D02*
X011245Y016633D01*
X011243Y016624D02*
X011101Y016624D01*
X011106Y016633D02*
X011271Y016633D01*
X011278Y016641D02*
X011416Y016641D01*
X011422Y016633D02*
X011576Y016633D01*
X011568Y016641D02*
X011396Y016641D01*
X011387Y016650D02*
X011311Y016650D01*
X011299Y016641D02*
X011113Y016641D01*
X011120Y016650D02*
X011328Y016650D01*
X011344Y016658D02*
X011357Y016658D01*
X011369Y016650D02*
X011559Y016650D01*
X011549Y016658D02*
X011129Y016658D01*
X011140Y016667D02*
X011538Y016667D01*
X011527Y016675D02*
X011155Y016675D01*
X011172Y016684D02*
X011510Y016684D01*
X011492Y016693D02*
X011189Y016693D01*
X011214Y016701D02*
X011469Y016701D01*
X011438Y016710D02*
X011243Y016710D01*
X011231Y016496D02*
X011081Y016496D01*
X011082Y016488D02*
X011246Y016488D01*
X011238Y016479D02*
X011320Y016479D01*
X011296Y016488D02*
X011223Y016488D01*
X011252Y016470D02*
X011363Y016470D01*
X011405Y016462D02*
X011266Y016462D01*
X011275Y016470D02*
X011086Y016470D01*
X011090Y016462D02*
X011290Y016462D01*
X011281Y016453D02*
X011444Y016453D01*
X011476Y016445D02*
X011295Y016445D01*
X011305Y016453D02*
X011094Y016453D01*
X011100Y016445D02*
X011319Y016445D01*
X011309Y016436D02*
X011499Y016436D01*
X011523Y016428D02*
X011324Y016428D01*
X011334Y016436D02*
X011107Y016436D01*
X011117Y016428D02*
X011349Y016428D01*
X011338Y016419D02*
X011541Y016419D01*
X011557Y016411D02*
X011352Y016411D01*
X011364Y016419D02*
X011127Y016419D01*
X011169Y016394D02*
X011408Y016394D01*
X011397Y016385D02*
X011592Y016385D01*
X011600Y016376D02*
X011413Y016376D01*
X011422Y016385D02*
X011192Y016385D01*
X011223Y016376D02*
X011437Y016376D01*
X011428Y016368D02*
X011606Y016368D01*
X011611Y016359D02*
X011444Y016359D01*
X011452Y016368D02*
X011259Y016368D01*
X011295Y016359D02*
X011466Y016359D01*
X011460Y016351D02*
X011614Y016351D01*
X011617Y016342D02*
X011475Y016342D01*
X011481Y016351D02*
X011331Y016351D01*
X011365Y016342D02*
X011496Y016342D01*
X011491Y016334D02*
X011620Y016334D01*
X011623Y016325D02*
X011507Y016325D01*
X011510Y016334D02*
X011394Y016334D01*
X011414Y016325D02*
X011525Y016325D01*
X011522Y016317D02*
X011625Y016317D01*
X011626Y016308D02*
X011538Y016308D01*
X011540Y016317D02*
X011434Y016317D01*
X011446Y016308D02*
X011547Y016308D01*
X011546Y016300D02*
X011627Y016300D01*
X011628Y016291D02*
X011543Y016291D01*
X011548Y016291D02*
X011460Y016291D01*
X011464Y016282D02*
X011545Y016282D01*
X011540Y016282D02*
X011628Y016282D01*
X011629Y016274D02*
X011537Y016274D01*
X011542Y016274D02*
X011467Y016274D01*
X011469Y016265D02*
X011539Y016265D01*
X011534Y016265D02*
X011628Y016265D01*
X011627Y016257D02*
X011531Y016257D01*
X011536Y016257D02*
X011469Y016257D01*
X011469Y016248D02*
X011533Y016248D01*
X011528Y016248D02*
X011627Y016248D01*
X011626Y016240D02*
X011526Y016240D01*
X011531Y016240D02*
X011467Y016240D01*
X011465Y016231D02*
X011528Y016231D01*
X011523Y016231D02*
X011625Y016231D01*
X011623Y016223D02*
X011520Y016223D01*
X011525Y016223D02*
X011460Y016223D01*
X011434Y016197D02*
X011516Y016197D01*
X011511Y016197D02*
X011615Y016197D01*
X011611Y016189D02*
X011508Y016189D01*
X011513Y016189D02*
X011419Y016189D01*
X011388Y016180D02*
X011510Y016180D01*
X011505Y016180D02*
X011606Y016180D01*
X011600Y016171D02*
X011487Y016171D01*
X011478Y016163D02*
X011289Y016163D01*
X011286Y016171D02*
X011098Y016171D01*
X011093Y016180D02*
X011269Y016180D01*
X011272Y016171D02*
X011508Y016171D01*
X011449Y016163D02*
X011594Y016163D01*
X011586Y016154D02*
X011411Y016154D01*
X011401Y016146D02*
X011321Y016146D01*
X011321Y016154D02*
X011111Y016154D01*
X011104Y016163D02*
X011303Y016163D01*
X011305Y016154D02*
X011440Y016154D01*
X011373Y016146D02*
X011578Y016146D01*
X011569Y016137D02*
X011130Y016137D01*
X011120Y016146D02*
X011338Y016146D01*
X011337Y016137D02*
X011363Y016137D01*
X011353Y016072D02*
X011405Y016074D01*
X011457Y016081D01*
X011496Y016092D01*
X011533Y016110D01*
X011535Y016112D02*
X011169Y016112D01*
X011182Y016103D02*
X011216Y016088D01*
X011252Y016079D01*
X011353Y016072D01*
X011278Y016077D02*
X011429Y016077D01*
X011474Y016086D02*
X011223Y016086D01*
X011201Y016095D02*
X011501Y016095D01*
X011547Y016120D02*
X011155Y016120D01*
X011142Y016129D02*
X011559Y016129D01*
X011551Y016300D02*
X011454Y016300D01*
X011308Y016180D02*
X011256Y016180D01*
X011251Y016189D02*
X011089Y016189D01*
X011085Y016197D02*
X011234Y016197D01*
X011224Y016197D02*
X011263Y016197D01*
X011251Y016206D02*
X011208Y016206D01*
X011217Y016206D02*
X011082Y016206D01*
X011079Y016214D02*
X011200Y016214D01*
X011191Y016214D02*
X011242Y016214D01*
X011234Y016223D02*
X011175Y016223D01*
X011182Y016223D02*
X011076Y016223D01*
X011073Y016231D02*
X011165Y016231D01*
X011159Y016231D02*
X011228Y016231D01*
X011218Y016257D02*
X011110Y016257D01*
X011113Y016257D02*
X011067Y016257D01*
X011065Y016265D02*
X011096Y016265D01*
X011094Y016265D02*
X011217Y016265D01*
X011216Y016274D02*
X011078Y016274D01*
X011079Y016274D02*
X011064Y016274D01*
X011240Y016189D02*
X011278Y016189D01*
X011261Y016479D02*
X011084Y016479D01*
X012007Y016077D02*
X012112Y016077D01*
X013076Y016590D02*
X013228Y016590D01*
X013228Y016599D02*
X013076Y016599D01*
X013076Y016607D02*
X013228Y016607D01*
X013228Y016616D02*
X013076Y016616D01*
X013076Y016624D02*
X013228Y016624D01*
X013228Y016633D02*
X013076Y016633D01*
X013076Y016641D02*
X013228Y016641D01*
X013228Y016650D02*
X013076Y016650D01*
X013076Y016658D02*
X013228Y016658D01*
X013228Y016667D02*
X013076Y016667D01*
X013088Y016675D02*
X013228Y016675D01*
X013228Y016684D02*
X013136Y016684D01*
X013184Y016693D02*
X013228Y016693D01*
X016192Y016457D02*
X016204Y016516D01*
X016226Y016571D01*
X016259Y016621D01*
X016301Y016664D01*
X016350Y016698D01*
X016405Y016722D01*
X016464Y016735D01*
X016532Y016735D01*
X016525Y016736D02*
X016581Y016729D01*
X016637Y016716D01*
X016682Y016698D01*
X016723Y016671D01*
X016757Y016635D01*
X016782Y016593D01*
X016799Y016548D01*
X016808Y016500D01*
X016643Y016500D01*
X016643Y016501D01*
X016640Y016525D01*
X016632Y016547D01*
X016799Y016547D01*
X016800Y016539D02*
X016635Y016539D01*
X016632Y016547D02*
X016619Y016567D01*
X016602Y016584D01*
X016582Y016596D01*
X016550Y016607D01*
X016516Y016610D01*
X016482Y016608D01*
X016449Y016600D01*
X016432Y016592D01*
X016417Y016580D01*
X016389Y016544D01*
X016369Y016502D01*
X016357Y016458D01*
X016353Y016412D01*
X016358Y016350D01*
X016372Y016289D01*
X016385Y016260D01*
X016404Y016235D01*
X016429Y016215D01*
X016458Y016201D01*
X016489Y016194D01*
X016522Y016192D01*
X016546Y016195D01*
X016569Y016202D01*
X016591Y016213D01*
X016609Y016227D01*
X016624Y016245D01*
X016637Y016269D01*
X016646Y016295D01*
X016650Y016322D01*
X016810Y016322D01*
X016810Y016320D01*
X016809Y016302D01*
X016805Y016283D01*
X016784Y016229D01*
X016751Y016179D01*
X016710Y016138D01*
X016661Y016105D01*
X016618Y016087D01*
X016572Y016076D01*
X016526Y016072D01*
X016463Y016076D01*
X016402Y016087D01*
X016360Y016101D01*
X016321Y016122D01*
X016285Y016149D01*
X016255Y016181D01*
X016228Y016221D01*
X016208Y016265D01*
X016195Y016311D01*
X016189Y016359D01*
X016192Y016457D01*
X016192Y016453D02*
X016356Y016453D01*
X016356Y016445D02*
X016191Y016445D01*
X016191Y016436D02*
X016355Y016436D01*
X016354Y016428D02*
X016191Y016428D01*
X016191Y016419D02*
X016354Y016419D01*
X016353Y016411D02*
X016190Y016411D01*
X016190Y016402D02*
X016354Y016402D01*
X016354Y016394D02*
X016190Y016394D01*
X016190Y016385D02*
X016355Y016385D01*
X016356Y016376D02*
X016189Y016376D01*
X016189Y016368D02*
X016357Y016368D01*
X016357Y016359D02*
X016189Y016359D01*
X016190Y016351D02*
X016358Y016351D01*
X016360Y016342D02*
X016191Y016342D01*
X016192Y016334D02*
X016362Y016334D01*
X016364Y016325D02*
X016193Y016325D01*
X016194Y016317D02*
X016366Y016317D01*
X016368Y016308D02*
X016196Y016308D01*
X016198Y016300D02*
X016370Y016300D01*
X016371Y016291D02*
X016200Y016291D01*
X016203Y016282D02*
X016375Y016282D01*
X016379Y016274D02*
X016205Y016274D01*
X016208Y016265D02*
X016382Y016265D01*
X016387Y016257D02*
X016212Y016257D01*
X016216Y016248D02*
X016394Y016248D01*
X016400Y016240D02*
X016220Y016240D01*
X016223Y016231D02*
X016408Y016231D01*
X016419Y016223D02*
X016227Y016223D01*
X016233Y016214D02*
X016430Y016214D01*
X016449Y016206D02*
X016239Y016206D01*
X016244Y016197D02*
X016476Y016197D01*
X016552Y016197D02*
X016763Y016197D01*
X016758Y016189D02*
X016250Y016189D01*
X016256Y016180D02*
X016752Y016180D01*
X016744Y016171D02*
X016264Y016171D01*
X016272Y016163D02*
X016735Y016163D01*
X016727Y016154D02*
X016280Y016154D01*
X016289Y016146D02*
X016718Y016146D01*
X016709Y016137D02*
X016300Y016137D01*
X016312Y016129D02*
X016696Y016129D01*
X016684Y016120D02*
X016324Y016120D01*
X016340Y016112D02*
X016671Y016112D01*
X016656Y016103D02*
X016356Y016103D01*
X016380Y016095D02*
X016636Y016095D01*
X016613Y016086D02*
X016409Y016086D01*
X016456Y016077D02*
X016578Y016077D01*
X016576Y016206D02*
X016769Y016206D01*
X016774Y016214D02*
X016592Y016214D01*
X016603Y016223D02*
X016780Y016223D01*
X016785Y016231D02*
X016612Y016231D01*
X016619Y016240D02*
X016788Y016240D01*
X016791Y016248D02*
X016626Y016248D01*
X016630Y016257D02*
X016795Y016257D01*
X016798Y016265D02*
X016635Y016265D01*
X016639Y016274D02*
X016801Y016274D01*
X016805Y016282D02*
X016641Y016282D01*
X016644Y016291D02*
X016806Y016291D01*
X016808Y016300D02*
X016646Y016300D01*
X016648Y016308D02*
X016809Y016308D01*
X016810Y016317D02*
X016649Y016317D01*
X016643Y016505D02*
X016807Y016505D01*
X016805Y016513D02*
X016642Y016513D01*
X016641Y016522D02*
X016804Y016522D01*
X016802Y016530D02*
X016638Y016530D01*
X016627Y016556D02*
X016796Y016556D01*
X016792Y016564D02*
X016621Y016564D01*
X016614Y016573D02*
X016789Y016573D01*
X016786Y016581D02*
X016605Y016581D01*
X016592Y016590D02*
X016783Y016590D01*
X016779Y016599D02*
X016575Y016599D01*
X016547Y016607D02*
X016774Y016607D01*
X016768Y016616D02*
X016255Y016616D01*
X016250Y016607D02*
X016480Y016607D01*
X016445Y016599D02*
X016244Y016599D01*
X016239Y016590D02*
X016429Y016590D01*
X016418Y016581D02*
X016233Y016581D01*
X016227Y016573D02*
X016411Y016573D01*
X016405Y016564D02*
X016223Y016564D01*
X016220Y016556D02*
X016399Y016556D01*
X016392Y016547D02*
X016216Y016547D01*
X016213Y016539D02*
X016387Y016539D01*
X016383Y016530D02*
X016209Y016530D01*
X016206Y016522D02*
X016378Y016522D01*
X016374Y016513D02*
X016203Y016513D01*
X016201Y016505D02*
X016370Y016505D01*
X016367Y016496D02*
X016200Y016496D01*
X016198Y016488D02*
X016365Y016488D01*
X016362Y016479D02*
X016196Y016479D01*
X016195Y016470D02*
X016360Y016470D01*
X016358Y016462D02*
X016193Y016462D01*
X016262Y016624D02*
X016763Y016624D01*
X016758Y016633D02*
X016270Y016633D01*
X016279Y016641D02*
X016751Y016641D01*
X016743Y016650D02*
X016287Y016650D01*
X016295Y016658D02*
X016735Y016658D01*
X016727Y016667D02*
X016305Y016667D01*
X016317Y016675D02*
X016716Y016675D01*
X016703Y016684D02*
X016330Y016684D01*
X016342Y016693D02*
X016691Y016693D01*
X016675Y016701D02*
X016357Y016701D01*
X016376Y016710D02*
X016654Y016710D01*
X016628Y016718D02*
X016396Y016718D01*
X016425Y016727D02*
X016591Y016727D01*
X016525Y016736D02*
X016464Y016735D01*
X015444Y016452D02*
X015444Y016425D01*
X016862Y016417D02*
X016894Y016557D01*
X016978Y016664D01*
X017111Y016730D01*
X017169Y016737D01*
X017171Y016737D01*
X017176Y016735D01*
X017152Y016735D01*
X017176Y016735D02*
X017176Y016620D01*
X017132Y016614D01*
X017085Y016588D01*
X017053Y016544D01*
X017037Y016508D01*
X017026Y016449D01*
X017024Y016375D01*
X017031Y016325D01*
X016876Y016325D01*
X016878Y016317D02*
X017034Y016317D01*
X017031Y016325D02*
X017046Y016279D01*
X017068Y016237D01*
X017135Y016196D01*
X017206Y016187D01*
X017277Y016211D01*
X017321Y016251D01*
X017343Y016300D01*
X017358Y016362D01*
X017358Y016419D01*
X017511Y016419D01*
X017511Y016422D02*
X017501Y016339D01*
X017474Y016242D01*
X017442Y016191D01*
X017395Y016146D01*
X017351Y016115D01*
X017278Y016090D01*
X017179Y016080D01*
X017061Y016096D01*
X016949Y016166D01*
X016886Y016264D01*
X016862Y016417D01*
X016862Y016419D02*
X017025Y016419D01*
X017025Y016411D02*
X016863Y016411D01*
X016864Y016402D02*
X017025Y016402D01*
X017024Y016394D02*
X016866Y016394D01*
X016867Y016385D02*
X017024Y016385D01*
X017024Y016376D02*
X016868Y016376D01*
X016870Y016368D02*
X017025Y016368D01*
X017026Y016359D02*
X016871Y016359D01*
X016872Y016351D02*
X017027Y016351D01*
X017029Y016342D02*
X016874Y016342D01*
X016875Y016334D02*
X017030Y016334D01*
X017036Y016308D02*
X016879Y016308D01*
X016880Y016300D02*
X017039Y016300D01*
X017042Y016291D02*
X016882Y016291D01*
X016883Y016282D02*
X017045Y016282D01*
X017049Y016274D02*
X016884Y016274D01*
X016886Y016265D02*
X017053Y016265D01*
X017058Y016257D02*
X016891Y016257D01*
X016896Y016248D02*
X017062Y016248D01*
X017067Y016240D02*
X016902Y016240D01*
X016907Y016231D02*
X017078Y016231D01*
X017092Y016223D02*
X016913Y016223D01*
X016918Y016214D02*
X017106Y016214D01*
X017120Y016206D02*
X016924Y016206D01*
X016929Y016197D02*
X017134Y016197D01*
X017196Y016189D02*
X016935Y016189D01*
X016940Y016180D02*
X017430Y016180D01*
X017421Y016171D02*
X016946Y016171D01*
X016954Y016163D02*
X017412Y016163D01*
X017403Y016154D02*
X016968Y016154D01*
X016982Y016146D02*
X017394Y016146D01*
X017382Y016137D02*
X016995Y016137D01*
X017009Y016129D02*
X017370Y016129D01*
X017358Y016120D02*
X017023Y016120D01*
X017036Y016112D02*
X017340Y016112D01*
X017315Y016103D02*
X017050Y016103D01*
X017074Y016095D02*
X017290Y016095D01*
X017235Y016086D02*
X017137Y016086D01*
X017210Y016189D02*
X017439Y016189D01*
X017446Y016197D02*
X017235Y016197D01*
X017260Y016206D02*
X017451Y016206D01*
X017456Y016214D02*
X017280Y016214D01*
X017289Y016223D02*
X017462Y016223D01*
X017467Y016231D02*
X017299Y016231D01*
X017308Y016240D02*
X017472Y016240D01*
X017476Y016248D02*
X017318Y016248D01*
X017323Y016257D02*
X017478Y016257D01*
X017480Y016265D02*
X017327Y016265D01*
X017331Y016274D02*
X017483Y016274D01*
X017485Y016282D02*
X017335Y016282D01*
X017339Y016291D02*
X017487Y016291D01*
X017490Y016300D02*
X017343Y016300D01*
X017345Y016308D02*
X017492Y016308D01*
X017495Y016317D02*
X017347Y016317D01*
X017349Y016325D02*
X017497Y016325D01*
X017499Y016334D02*
X017351Y016334D01*
X017353Y016342D02*
X017501Y016342D01*
X017502Y016351D02*
X017355Y016351D01*
X017357Y016359D02*
X017503Y016359D01*
X017504Y016368D02*
X017358Y016368D01*
X017358Y016376D02*
X017505Y016376D01*
X017506Y016385D02*
X017358Y016385D01*
X017358Y016394D02*
X017507Y016394D01*
X017509Y016402D02*
X017358Y016402D01*
X017358Y016411D02*
X017510Y016411D01*
X017511Y016422D02*
X017500Y016508D01*
X017459Y016600D01*
X017416Y016650D01*
X017338Y016704D01*
X017274Y016726D01*
X017195Y016736D01*
X017193Y016619D01*
X017197Y016619D01*
X017245Y016615D01*
X017284Y016594D01*
X017318Y016561D01*
X017348Y016496D01*
X017501Y016496D01*
X017503Y016488D02*
X017349Y016488D01*
X017348Y016496D02*
X017358Y016419D01*
X017357Y016428D02*
X017510Y016428D01*
X017509Y016436D02*
X017356Y016436D01*
X017355Y016445D02*
X017508Y016445D01*
X017507Y016453D02*
X017354Y016453D01*
X017352Y016462D02*
X017506Y016462D01*
X017505Y016470D02*
X017351Y016470D01*
X017350Y016479D02*
X017504Y016479D01*
X017500Y016505D02*
X017344Y016505D01*
X017340Y016513D02*
X017498Y016513D01*
X017494Y016522D02*
X017336Y016522D01*
X017332Y016530D02*
X017490Y016530D01*
X017486Y016539D02*
X017328Y016539D01*
X017324Y016547D02*
X017482Y016547D01*
X017479Y016556D02*
X017320Y016556D01*
X017315Y016564D02*
X017475Y016564D01*
X017471Y016573D02*
X017306Y016573D01*
X017297Y016581D02*
X017467Y016581D01*
X017463Y016590D02*
X017288Y016590D01*
X017276Y016599D02*
X017460Y016599D01*
X017453Y016607D02*
X017260Y016607D01*
X017240Y016616D02*
X017446Y016616D01*
X017438Y016624D02*
X017193Y016624D01*
X017193Y016633D02*
X017431Y016633D01*
X017424Y016641D02*
X017193Y016641D01*
X017193Y016650D02*
X017416Y016650D01*
X017404Y016658D02*
X017194Y016658D01*
X017194Y016667D02*
X017392Y016667D01*
X017379Y016675D02*
X017194Y016675D01*
X017194Y016684D02*
X017367Y016684D01*
X017355Y016693D02*
X017194Y016693D01*
X017194Y016701D02*
X017342Y016701D01*
X017322Y016710D02*
X017194Y016710D01*
X017195Y016718D02*
X017297Y016718D01*
X017270Y016727D02*
X017195Y016727D01*
X017195Y016735D02*
X017203Y016735D01*
X017195Y016740D02*
X017189Y016740D01*
X017189Y016615D01*
X017181Y016613D02*
X017172Y016613D01*
X017181Y016613D02*
X017181Y016740D01*
X017176Y016727D02*
X017104Y016727D01*
X017087Y016718D02*
X017176Y016718D01*
X017176Y016710D02*
X017069Y016710D01*
X017052Y016701D02*
X017176Y016701D01*
X017176Y016693D02*
X017035Y016693D01*
X017018Y016684D02*
X017176Y016684D01*
X017176Y016675D02*
X017001Y016675D01*
X016983Y016667D02*
X017176Y016667D01*
X017176Y016658D02*
X016973Y016658D01*
X016967Y016650D02*
X017176Y016650D01*
X017176Y016641D02*
X016960Y016641D01*
X016953Y016633D02*
X017176Y016633D01*
X017176Y016624D02*
X016946Y016624D01*
X016940Y016616D02*
X017142Y016616D01*
X017119Y016607D02*
X016933Y016607D01*
X016926Y016599D02*
X017104Y016599D01*
X017088Y016590D02*
X016920Y016590D01*
X016913Y016581D02*
X017080Y016581D01*
X017074Y016573D02*
X016906Y016573D01*
X016899Y016564D02*
X017068Y016564D01*
X017061Y016556D02*
X016894Y016556D01*
X016892Y016547D02*
X017055Y016547D01*
X017051Y016539D02*
X016890Y016539D01*
X016888Y016530D02*
X017047Y016530D01*
X017043Y016522D02*
X016886Y016522D01*
X016884Y016513D02*
X017039Y016513D01*
X017036Y016505D02*
X016882Y016505D01*
X016880Y016496D02*
X017035Y016496D01*
X017033Y016488D02*
X016878Y016488D01*
X016876Y016479D02*
X017031Y016479D01*
X017030Y016470D02*
X016874Y016470D01*
X016872Y016462D02*
X017028Y016462D01*
X017027Y016453D02*
X016870Y016453D01*
X016868Y016445D02*
X017026Y016445D01*
X017026Y016436D02*
X016866Y016436D01*
X016864Y016428D02*
X017025Y016428D01*
X017483Y016249D02*
X017495Y016283D01*
X017504Y016317D01*
X017511Y016352D01*
X017515Y016388D01*
X017517Y016423D01*
X017583Y016419D02*
X017753Y016419D01*
X017753Y016411D02*
X017583Y016411D01*
X017583Y016402D02*
X017753Y016402D01*
X017753Y016394D02*
X017583Y016394D01*
X017583Y016385D02*
X017753Y016385D01*
X017753Y016376D02*
X017583Y016376D01*
X017583Y016368D02*
X017753Y016368D01*
X017753Y016359D02*
X017583Y016359D01*
X017583Y016351D02*
X017753Y016351D01*
X017753Y016342D02*
X017583Y016342D01*
X017583Y016334D02*
X017753Y016334D01*
X017753Y016325D02*
X017583Y016325D01*
X017583Y016317D02*
X017753Y016317D01*
X017753Y016308D02*
X017583Y016308D01*
X017583Y016300D02*
X017753Y016300D01*
X017753Y016291D02*
X017583Y016291D01*
X017583Y016282D02*
X017753Y016282D01*
X017753Y016274D02*
X017583Y016274D01*
X017583Y016265D02*
X017753Y016265D01*
X017753Y016257D02*
X017583Y016257D01*
X017583Y016248D02*
X017753Y016248D01*
X017753Y016240D02*
X017583Y016240D01*
X017583Y016231D02*
X017753Y016231D01*
X017753Y016223D02*
X017583Y016223D01*
X017583Y016214D02*
X017753Y016214D01*
X017753Y016206D02*
X017583Y016206D01*
X017583Y016197D02*
X017753Y016197D01*
X017753Y016189D02*
X017583Y016189D01*
X017583Y016180D02*
X017753Y016180D01*
X017753Y016171D02*
X017583Y016171D01*
X017583Y016163D02*
X017753Y016163D01*
X017753Y016154D02*
X017583Y016154D01*
X017583Y016146D02*
X017753Y016146D01*
X017753Y016137D02*
X017583Y016137D01*
X017583Y016129D02*
X017753Y016129D01*
X017753Y016120D02*
X017583Y016120D01*
X017583Y016112D02*
X017753Y016112D01*
X017753Y016103D02*
X017583Y016103D01*
X017583Y016095D02*
X017753Y016095D01*
X017753Y016087D02*
X017583Y016087D01*
X017583Y016719D01*
X017740Y016719D01*
X017740Y016632D01*
X017749Y016634D01*
X017762Y016651D01*
X017792Y016682D01*
X017822Y016706D01*
X017857Y016722D01*
X017900Y016732D01*
X017954Y016737D01*
X017992Y016735D01*
X018028Y016724D01*
X018059Y016708D01*
X018086Y016687D01*
X018109Y016661D01*
X018127Y016630D01*
X018129Y016631D01*
X018130Y016632D01*
X018134Y016635D01*
X018152Y016654D01*
X018183Y016684D01*
X018218Y016709D01*
X018250Y016725D01*
X018284Y016734D01*
X018319Y016736D01*
X018369Y016732D01*
X018419Y016722D01*
X018453Y016709D01*
X018484Y016689D01*
X018509Y016663D01*
X018532Y016626D01*
X018547Y016585D01*
X018554Y016542D01*
X018554Y016086D01*
X018387Y016086D01*
X018387Y016491D01*
X018383Y016527D01*
X018370Y016560D01*
X018359Y016576D01*
X018345Y016589D01*
X018328Y016599D01*
X018309Y016604D01*
X018272Y016607D01*
X018236Y016603D01*
X018219Y016598D01*
X018203Y016589D01*
X018190Y016577D01*
X018174Y016556D01*
X017970Y016556D01*
X017971Y016555D02*
X017956Y016577D01*
X017941Y016591D01*
X017924Y016600D01*
X017906Y016606D01*
X017886Y016607D01*
X017852Y016605D01*
X017834Y016602D01*
X017817Y016594D01*
X017802Y016583D01*
X017769Y016545D01*
X017757Y016523D01*
X017752Y016498D01*
X017753Y016473D01*
X017753Y016087D01*
X017984Y016086D02*
X017984Y016502D01*
X017981Y016529D01*
X017971Y016555D01*
X017974Y016547D02*
X018170Y016547D01*
X018166Y016539D02*
X017977Y016539D01*
X017980Y016530D02*
X018163Y016530D01*
X018163Y016531D02*
X018157Y016505D01*
X018154Y016461D01*
X018154Y016086D01*
X017984Y016086D01*
X017984Y016095D02*
X018154Y016095D01*
X018154Y016103D02*
X017984Y016103D01*
X017984Y016112D02*
X018154Y016112D01*
X018154Y016120D02*
X017984Y016120D01*
X017984Y016129D02*
X018154Y016129D01*
X018154Y016137D02*
X017984Y016137D01*
X017984Y016146D02*
X018154Y016146D01*
X018154Y016154D02*
X017984Y016154D01*
X017984Y016163D02*
X018154Y016163D01*
X018154Y016171D02*
X017984Y016171D01*
X017984Y016180D02*
X018154Y016180D01*
X018154Y016189D02*
X017984Y016189D01*
X017984Y016197D02*
X018154Y016197D01*
X018154Y016206D02*
X017984Y016206D01*
X017984Y016214D02*
X018154Y016214D01*
X018154Y016223D02*
X017984Y016223D01*
X017984Y016231D02*
X018154Y016231D01*
X018154Y016240D02*
X017984Y016240D01*
X017984Y016248D02*
X018154Y016248D01*
X018154Y016257D02*
X017984Y016257D01*
X017984Y016265D02*
X018154Y016265D01*
X018154Y016274D02*
X017984Y016274D01*
X017984Y016282D02*
X018154Y016282D01*
X018154Y016291D02*
X017984Y016291D01*
X017984Y016300D02*
X018154Y016300D01*
X018154Y016308D02*
X017984Y016308D01*
X017984Y016317D02*
X018154Y016317D01*
X018154Y016325D02*
X017984Y016325D01*
X017984Y016334D02*
X018154Y016334D01*
X018154Y016342D02*
X017984Y016342D01*
X017984Y016351D02*
X018154Y016351D01*
X018154Y016359D02*
X017984Y016359D01*
X017984Y016368D02*
X018154Y016368D01*
X018154Y016376D02*
X017984Y016376D01*
X017984Y016385D02*
X018154Y016385D01*
X018154Y016394D02*
X017984Y016394D01*
X017984Y016402D02*
X018154Y016402D01*
X018154Y016411D02*
X017984Y016411D01*
X017984Y016419D02*
X018154Y016419D01*
X018154Y016428D02*
X017984Y016428D01*
X017984Y016436D02*
X018154Y016436D01*
X018154Y016445D02*
X017984Y016445D01*
X017984Y016453D02*
X018154Y016453D01*
X018154Y016462D02*
X017984Y016462D01*
X017984Y016470D02*
X018155Y016470D01*
X018155Y016479D02*
X017984Y016479D01*
X017984Y016488D02*
X018156Y016488D01*
X018156Y016496D02*
X017984Y016496D01*
X017984Y016505D02*
X018157Y016505D01*
X018159Y016513D02*
X017983Y016513D01*
X017982Y016522D02*
X018161Y016522D01*
X018163Y016531D02*
X018174Y016556D01*
X018181Y016564D02*
X017965Y016564D01*
X017959Y016573D02*
X018187Y016573D01*
X018195Y016581D02*
X017951Y016581D01*
X017942Y016590D02*
X018205Y016590D01*
X018221Y016599D02*
X017927Y016599D01*
X017888Y016607D02*
X018539Y016607D01*
X018542Y016599D02*
X018328Y016599D01*
X018344Y016590D02*
X018546Y016590D01*
X018548Y016581D02*
X018353Y016581D01*
X018361Y016573D02*
X018549Y016573D01*
X018550Y016564D02*
X018367Y016564D01*
X018372Y016556D02*
X018552Y016556D01*
X018553Y016547D02*
X018375Y016547D01*
X018378Y016539D02*
X018554Y016539D01*
X018554Y016530D02*
X018381Y016530D01*
X018383Y016522D02*
X018554Y016522D01*
X018554Y016513D02*
X018384Y016513D01*
X018385Y016505D02*
X018554Y016505D01*
X018554Y016496D02*
X018386Y016496D01*
X018387Y016488D02*
X018554Y016488D01*
X018554Y016479D02*
X018387Y016479D01*
X018387Y016470D02*
X018554Y016470D01*
X018554Y016462D02*
X018387Y016462D01*
X018387Y016453D02*
X018554Y016453D01*
X018554Y016445D02*
X018387Y016445D01*
X018387Y016436D02*
X018554Y016436D01*
X018554Y016428D02*
X018387Y016428D01*
X018387Y016419D02*
X018554Y016419D01*
X018554Y016411D02*
X018387Y016411D01*
X018387Y016402D02*
X018554Y016402D01*
X018554Y016394D02*
X018387Y016394D01*
X018387Y016385D02*
X018554Y016385D01*
X018554Y016376D02*
X018387Y016376D01*
X018387Y016368D02*
X018554Y016368D01*
X018554Y016359D02*
X018387Y016359D01*
X018387Y016351D02*
X018554Y016351D01*
X018554Y016342D02*
X018387Y016342D01*
X018387Y016334D02*
X018554Y016334D01*
X018554Y016325D02*
X018387Y016325D01*
X018387Y016317D02*
X018554Y016317D01*
X018554Y016308D02*
X018387Y016308D01*
X018387Y016300D02*
X018554Y016300D01*
X018554Y016291D02*
X018387Y016291D01*
X018387Y016282D02*
X018554Y016282D01*
X018554Y016274D02*
X018387Y016274D01*
X018387Y016265D02*
X018554Y016265D01*
X018554Y016257D02*
X018387Y016257D01*
X018387Y016248D02*
X018554Y016248D01*
X018554Y016240D02*
X018387Y016240D01*
X018387Y016231D02*
X018554Y016231D01*
X018554Y016223D02*
X018387Y016223D01*
X018387Y016214D02*
X018554Y016214D01*
X018554Y016206D02*
X018387Y016206D01*
X018387Y016197D02*
X018554Y016197D01*
X018554Y016189D02*
X018387Y016189D01*
X018387Y016180D02*
X018554Y016180D01*
X018554Y016171D02*
X018387Y016171D01*
X018387Y016163D02*
X018554Y016163D01*
X018554Y016154D02*
X018387Y016154D01*
X018387Y016146D02*
X018554Y016146D01*
X018554Y016137D02*
X018387Y016137D01*
X018387Y016129D02*
X018554Y016129D01*
X018554Y016120D02*
X018387Y016120D01*
X018387Y016112D02*
X018554Y016112D01*
X018554Y016103D02*
X018387Y016103D01*
X018387Y016095D02*
X018554Y016095D01*
X018536Y016616D02*
X017583Y016616D01*
X017583Y016624D02*
X018533Y016624D01*
X018528Y016633D02*
X018131Y016633D01*
X018125Y016633D02*
X017742Y016633D01*
X017740Y016633D02*
X017583Y016633D01*
X017583Y016641D02*
X017740Y016641D01*
X017740Y016650D02*
X017583Y016650D01*
X017583Y016658D02*
X017740Y016658D01*
X017740Y016667D02*
X017583Y016667D01*
X017583Y016675D02*
X017740Y016675D01*
X017740Y016684D02*
X017583Y016684D01*
X017583Y016693D02*
X017740Y016693D01*
X017740Y016701D02*
X017583Y016701D01*
X017583Y016710D02*
X017740Y016710D01*
X017740Y016718D02*
X017583Y016718D01*
X017583Y016607D02*
X017884Y016607D01*
X017826Y016599D02*
X017583Y016599D01*
X017583Y016590D02*
X017811Y016590D01*
X017800Y016581D02*
X017583Y016581D01*
X017583Y016573D02*
X017793Y016573D01*
X017786Y016564D02*
X017583Y016564D01*
X017583Y016556D02*
X017778Y016556D01*
X017771Y016547D02*
X017583Y016547D01*
X017583Y016539D02*
X017766Y016539D01*
X017761Y016530D02*
X017583Y016530D01*
X017583Y016522D02*
X017757Y016522D01*
X017755Y016513D02*
X017583Y016513D01*
X017583Y016505D02*
X017753Y016505D01*
X017752Y016496D02*
X017583Y016496D01*
X017583Y016488D02*
X017752Y016488D01*
X017753Y016479D02*
X017583Y016479D01*
X017583Y016470D02*
X017753Y016470D01*
X017753Y016462D02*
X017583Y016462D01*
X017583Y016453D02*
X017753Y016453D01*
X017753Y016445D02*
X017583Y016445D01*
X017583Y016436D02*
X017753Y016436D01*
X017753Y016428D02*
X017583Y016428D01*
X017032Y016454D02*
X017030Y016421D01*
X017030Y016389D01*
X017033Y016357D01*
X017322Y016267D02*
X017335Y016295D01*
X017345Y016326D01*
X017351Y016357D01*
X017353Y016389D01*
X016867Y016328D02*
X016862Y016366D01*
X016861Y016404D01*
X016863Y016442D01*
X016868Y016479D01*
X017342Y016487D02*
X017348Y016454D01*
X017352Y016421D01*
X017353Y016388D01*
X017058Y016266D02*
X017048Y016287D01*
X017040Y016309D01*
X017034Y016332D01*
X017031Y016356D01*
X016910Y016211D02*
X016924Y016189D01*
X016942Y016170D01*
X016961Y016152D01*
X017059Y016266D02*
X017070Y016250D01*
X017083Y016235D01*
X017098Y016222D01*
X017115Y016212D01*
X017133Y016204D01*
X017265Y016212D02*
X017282Y016222D01*
X017298Y016235D01*
X017311Y016250D01*
X017322Y016266D01*
X017483Y016249D02*
X017471Y016222D01*
X017456Y016197D01*
X017439Y016174D01*
X017419Y016153D01*
X017397Y016135D01*
X017373Y016118D01*
X017347Y016105D01*
X017320Y016094D01*
X017265Y016212D02*
X017244Y016204D01*
X017222Y016198D01*
X017200Y016195D01*
X017177Y016195D01*
X017155Y016198D01*
X017133Y016204D01*
X016910Y016211D02*
X016895Y016239D01*
X016883Y016268D01*
X016874Y016298D01*
X016867Y016328D01*
X017293Y016580D02*
X017310Y016559D01*
X017324Y016537D01*
X017335Y016513D01*
X017343Y016488D01*
X017074Y016565D02*
X017061Y016545D01*
X017049Y016523D01*
X017041Y016501D01*
X017035Y016477D01*
X017032Y016453D01*
X016868Y016479D02*
X016875Y016512D01*
X016886Y016543D01*
X016901Y016573D01*
X016918Y016602D01*
X016939Y016628D01*
X016962Y016652D01*
X016987Y016673D01*
X017015Y016692D01*
X017178Y016073D02*
X017214Y016074D01*
X017250Y016078D01*
X017285Y016085D01*
X017320Y016095D01*
X017283Y016729D02*
X017254Y016735D01*
X017225Y016739D01*
X017195Y016740D01*
X017251Y016606D02*
X017266Y016599D01*
X017279Y016590D01*
X017292Y016580D01*
X017172Y016613D02*
X017153Y016612D01*
X017135Y016607D01*
X017117Y016600D01*
X017101Y016591D01*
X017087Y016579D01*
X017074Y016565D01*
X016961Y016152D02*
X016988Y016132D01*
X017017Y016115D01*
X017047Y016100D01*
X017079Y016089D01*
X017111Y016080D01*
X017144Y016075D01*
X017178Y016073D01*
X017015Y016692D02*
X017046Y016708D01*
X017078Y016721D01*
X017112Y016731D01*
X017146Y016738D01*
X017181Y016741D01*
X017283Y016729D02*
X017310Y016721D01*
X017337Y016710D01*
X017362Y016697D01*
X017387Y016681D01*
X017409Y016663D01*
X017433Y016639D01*
X017455Y016613D01*
X017474Y016585D01*
X017489Y016555D01*
X017502Y016523D01*
X017510Y016490D01*
X017515Y016457D01*
X017517Y016423D01*
X017754Y016641D02*
X018121Y016641D01*
X018116Y016650D02*
X017761Y016650D01*
X017769Y016658D02*
X018111Y016658D01*
X018104Y016667D02*
X017777Y016667D01*
X017785Y016675D02*
X018096Y016675D01*
X018089Y016684D02*
X017794Y016684D01*
X017805Y016693D02*
X018079Y016693D01*
X018068Y016701D02*
X017815Y016701D01*
X017829Y016710D02*
X018056Y016710D01*
X018040Y016718D02*
X017848Y016718D01*
X017876Y016727D02*
X018019Y016727D01*
X017981Y016735D02*
X017933Y016735D01*
X018140Y016641D02*
X018523Y016641D01*
X018517Y016650D02*
X018148Y016650D01*
X018156Y016658D02*
X018512Y016658D01*
X018505Y016667D02*
X018165Y016667D01*
X018174Y016675D02*
X018497Y016675D01*
X018489Y016684D02*
X018183Y016684D01*
X018195Y016693D02*
X018479Y016693D01*
X018466Y016701D02*
X018207Y016701D01*
X018219Y016710D02*
X018452Y016710D01*
X018430Y016718D02*
X018236Y016718D01*
X018257Y016727D02*
X018396Y016727D01*
X018331Y016735D02*
X018304Y016735D01*
X017251Y016605D02*
X017231Y016611D01*
X017210Y016614D01*
X017189Y016615D01*
X015599Y016593D02*
X015555Y016591D01*
D14*
X015384Y010961D02*
X015249Y010826D01*
X015294Y010781D02*
X015114Y010961D01*
X015114Y010781D02*
X015384Y010781D01*
X015384Y010666D02*
X015384Y010486D01*
X015384Y010576D02*
X015114Y010576D01*
X015204Y010486D01*
X019114Y010526D02*
X019384Y010526D01*
X019384Y010436D02*
X019384Y010616D01*
X019384Y010731D02*
X019114Y010731D01*
X019249Y010776D02*
X019384Y010911D01*
X019294Y010731D02*
X019114Y010911D01*
X019114Y010526D02*
X019204Y010436D01*
D15*
X016048Y016179D03*
D16*
X008959Y010846D02*
X008942Y010896D01*
X008922Y010945D01*
X008898Y010992D01*
X008870Y011037D01*
X008840Y011080D01*
X008806Y011120D01*
X008770Y011158D01*
X008730Y011194D01*
X008689Y011226D01*
X008645Y011255D01*
X008599Y011281D01*
X008551Y011303D01*
X008502Y011321D01*
X008451Y011336D01*
X008400Y011348D01*
X008347Y011355D01*
X008295Y011359D01*
X008242Y011358D01*
X008190Y011354D01*
X008137Y011346D01*
X008086Y011334D01*
X008036Y011318D01*
X007987Y011299D01*
X007939Y011276D01*
X007893Y011250D01*
X007850Y011220D01*
X007809Y011188D01*
X007770Y011152D01*
X007734Y011113D01*
X007701Y011072D01*
X007671Y011029D01*
X007644Y010984D01*
X007621Y010936D01*
X007601Y010888D01*
X007585Y010837D01*
X007572Y010786D01*
X007564Y010734D01*
X007559Y010682D01*
X007558Y010629D01*
X007561Y010576D01*
X007568Y010524D01*
X007579Y010472D01*
X007593Y010422D01*
X007612Y010372D01*
X007633Y010324D01*
X007659Y010278D01*
X007687Y010234D01*
X007719Y010192D01*
X007754Y010152D01*
X007792Y010115D01*
X007832Y010081D01*
X007875Y010050D01*
X007920Y010022D01*
X007966Y009998D01*
X008015Y009977D01*
X008065Y009960D01*
X008115Y009947D01*
X008167Y009937D01*
X008220Y009931D01*
X008272Y009929D01*
X008325Y009931D01*
X008377Y009937D01*
X008429Y009946D01*
X008480Y009960D01*
X008530Y009977D01*
X008579Y009998D01*
X008625Y010022D01*
X008670Y010050D01*
X008713Y010080D01*
X008753Y010114D01*
X008791Y010151D01*
X008826Y010191D01*
X008858Y010233D01*
X008887Y010277D01*
X008912Y010323D01*
X008934Y010371D01*
D17*
X008959Y010786D03*
D18*
X008059Y010641D03*
D19*
X008289Y010656D03*
D20*
X008449Y010646D03*
D21*
X008861Y010361D02*
X008863Y010380D01*
X008868Y010399D01*
X008878Y010415D01*
X008890Y010430D01*
X008905Y010442D01*
X008921Y010452D01*
X008940Y010457D01*
X008959Y010459D01*
X008978Y010457D01*
X008997Y010452D01*
X009013Y010442D01*
X009028Y010430D01*
X009040Y010415D01*
X009050Y010399D01*
X009055Y010380D01*
X009057Y010361D01*
X009055Y010342D01*
X009050Y010323D01*
X009040Y010307D01*
X009028Y010292D01*
X009013Y010280D01*
X008997Y010270D01*
X008978Y010265D01*
X008959Y010263D01*
X008940Y010265D01*
X008921Y010270D01*
X008905Y010280D01*
X008890Y010292D01*
X008878Y010307D01*
X008868Y010323D01*
X008863Y010342D01*
X008861Y010361D01*
M02*
