G75*
G70*
%OFA0B0*%
%FSLAX24Y24*%
%IPPOS*%
%LPD*%
%AMOC8*
5,1,8,0,0,1.08239X$1,22.5*
%
%ADD10C,0.0080*%
%ADD11C,0.0130*%
%ADD12C,0.0740*%
%ADD13C,0.0000*%
%ADD14R,0.0740X0.0740*%
%ADD15C,0.0640*%
%ADD16C,0.0120*%
%ADD17C,0.0100*%
%ADD18C,0.0436*%
D10*
X006259Y001161D02*
X007259Y000161D01*
X028759Y000161D01*
X029759Y001161D01*
X029759Y020161D01*
X028759Y021161D01*
X007259Y021161D01*
X006259Y020161D01*
X006259Y001161D01*
D11*
X013186Y012876D02*
X013124Y012938D01*
X013186Y012876D02*
X013309Y012876D01*
X013371Y012938D01*
X013371Y013000D01*
X013309Y013061D01*
X013247Y013061D01*
X013309Y013061D02*
X013371Y013123D01*
X013371Y013185D01*
X013309Y013247D01*
X013186Y013247D01*
X013124Y013185D01*
X013584Y013061D02*
X013831Y013061D01*
X014045Y013185D02*
X014106Y013247D01*
X014230Y013247D01*
X014291Y013185D01*
X014291Y013123D01*
X014045Y012876D01*
X014291Y012876D01*
X014505Y013061D02*
X014752Y013061D01*
X014965Y013123D02*
X015089Y013247D01*
X015089Y012876D01*
X015212Y012876D02*
X014965Y012876D01*
X015426Y012876D02*
X015673Y012876D01*
X015549Y012876D02*
X015549Y013247D01*
X015426Y013123D01*
D12*
X015259Y012161D03*
X014259Y010661D03*
X013259Y010661D03*
X011759Y009161D03*
X015259Y009161D03*
X017259Y010661D03*
X018259Y010661D03*
X019259Y009161D03*
X022259Y007661D03*
X022259Y006661D03*
X022259Y005661D03*
X022259Y004661D03*
X022259Y003661D03*
X022259Y002661D03*
X022759Y001161D03*
X023759Y001161D03*
X024759Y001161D03*
X025759Y001161D03*
X026759Y001161D03*
X027759Y001161D03*
X020759Y001161D03*
X019759Y001161D03*
X018759Y001161D03*
X017759Y001161D03*
X016759Y001161D03*
X015759Y001161D03*
X007759Y003161D03*
X007759Y004161D03*
X007759Y005161D03*
X007759Y006161D03*
X007759Y007161D03*
X011759Y012161D03*
X019259Y012161D03*
X025259Y012911D03*
X026259Y013411D03*
X025259Y013911D03*
X026259Y014411D03*
X025259Y014911D03*
X026259Y015411D03*
X025259Y015911D03*
X024759Y020161D03*
X023759Y020161D03*
X022759Y020161D03*
X021759Y020161D03*
X020759Y020161D03*
X019259Y020161D03*
X018259Y020161D03*
X017259Y020161D03*
X016259Y020161D03*
X015259Y020161D03*
X014259Y020161D03*
X013259Y020161D03*
X012259Y020161D03*
X025759Y020161D03*
X026759Y020161D03*
X027759Y020161D03*
X025259Y008911D03*
X026259Y008411D03*
X025259Y007911D03*
X026259Y007411D03*
X025259Y006911D03*
X026259Y006411D03*
X025259Y005911D03*
D13*
X028129Y004911D02*
X028131Y004961D01*
X028137Y005011D01*
X028147Y005060D01*
X028161Y005108D01*
X028178Y005155D01*
X028199Y005200D01*
X028224Y005244D01*
X028252Y005285D01*
X028284Y005324D01*
X028318Y005361D01*
X028355Y005395D01*
X028395Y005425D01*
X028437Y005452D01*
X028481Y005476D01*
X028527Y005497D01*
X028574Y005513D01*
X028622Y005526D01*
X028672Y005535D01*
X028721Y005540D01*
X028772Y005541D01*
X028822Y005538D01*
X028871Y005531D01*
X028920Y005520D01*
X028968Y005505D01*
X029014Y005487D01*
X029059Y005465D01*
X029102Y005439D01*
X029143Y005410D01*
X029182Y005378D01*
X029218Y005343D01*
X029250Y005305D01*
X029280Y005265D01*
X029307Y005222D01*
X029330Y005178D01*
X029349Y005132D01*
X029365Y005084D01*
X029377Y005035D01*
X029385Y004986D01*
X029389Y004936D01*
X029389Y004886D01*
X029385Y004836D01*
X029377Y004787D01*
X029365Y004738D01*
X029349Y004690D01*
X029330Y004644D01*
X029307Y004600D01*
X029280Y004557D01*
X029250Y004517D01*
X029218Y004479D01*
X029182Y004444D01*
X029143Y004412D01*
X029102Y004383D01*
X029059Y004357D01*
X029014Y004335D01*
X028968Y004317D01*
X028920Y004302D01*
X028871Y004291D01*
X028822Y004284D01*
X028772Y004281D01*
X028721Y004282D01*
X028672Y004287D01*
X028622Y004296D01*
X028574Y004309D01*
X028527Y004325D01*
X028481Y004346D01*
X028437Y004370D01*
X028395Y004397D01*
X028355Y004427D01*
X028318Y004461D01*
X028284Y004498D01*
X028252Y004537D01*
X028224Y004578D01*
X028199Y004622D01*
X028178Y004667D01*
X028161Y004714D01*
X028147Y004762D01*
X028137Y004811D01*
X028131Y004861D01*
X028129Y004911D01*
X028109Y003161D02*
X028111Y003211D01*
X028117Y003261D01*
X028127Y003311D01*
X028140Y003359D01*
X028157Y003407D01*
X028178Y003453D01*
X028202Y003497D01*
X028230Y003539D01*
X028261Y003579D01*
X028295Y003616D01*
X028332Y003651D01*
X028371Y003682D01*
X028412Y003711D01*
X028456Y003736D01*
X028502Y003758D01*
X028549Y003776D01*
X028597Y003790D01*
X028646Y003801D01*
X028696Y003808D01*
X028746Y003811D01*
X028797Y003810D01*
X028847Y003805D01*
X028897Y003796D01*
X028945Y003784D01*
X028993Y003767D01*
X029039Y003747D01*
X029084Y003724D01*
X029127Y003697D01*
X029167Y003667D01*
X029205Y003634D01*
X029240Y003598D01*
X029273Y003559D01*
X029302Y003518D01*
X029328Y003475D01*
X029351Y003430D01*
X029370Y003383D01*
X029385Y003335D01*
X029397Y003286D01*
X029405Y003236D01*
X029409Y003186D01*
X029409Y003136D01*
X029405Y003086D01*
X029397Y003036D01*
X029385Y002987D01*
X029370Y002939D01*
X029351Y002892D01*
X029328Y002847D01*
X029302Y002804D01*
X029273Y002763D01*
X029240Y002724D01*
X029205Y002688D01*
X029167Y002655D01*
X029127Y002625D01*
X029084Y002598D01*
X029039Y002575D01*
X028993Y002555D01*
X028945Y002538D01*
X028897Y002526D01*
X028847Y002517D01*
X028797Y002512D01*
X028746Y002511D01*
X028696Y002514D01*
X028646Y002521D01*
X028597Y002532D01*
X028549Y002546D01*
X028502Y002564D01*
X028456Y002586D01*
X028412Y002611D01*
X028371Y002640D01*
X028332Y002671D01*
X028295Y002706D01*
X028261Y002743D01*
X028230Y002783D01*
X028202Y002825D01*
X028178Y002869D01*
X028157Y002915D01*
X028140Y002963D01*
X028127Y003011D01*
X028117Y003061D01*
X028111Y003111D01*
X028109Y003161D01*
X028129Y009411D02*
X028131Y009461D01*
X028137Y009511D01*
X028147Y009560D01*
X028161Y009608D01*
X028178Y009655D01*
X028199Y009700D01*
X028224Y009744D01*
X028252Y009785D01*
X028284Y009824D01*
X028318Y009861D01*
X028355Y009895D01*
X028395Y009925D01*
X028437Y009952D01*
X028481Y009976D01*
X028527Y009997D01*
X028574Y010013D01*
X028622Y010026D01*
X028672Y010035D01*
X028721Y010040D01*
X028772Y010041D01*
X028822Y010038D01*
X028871Y010031D01*
X028920Y010020D01*
X028968Y010005D01*
X029014Y009987D01*
X029059Y009965D01*
X029102Y009939D01*
X029143Y009910D01*
X029182Y009878D01*
X029218Y009843D01*
X029250Y009805D01*
X029280Y009765D01*
X029307Y009722D01*
X029330Y009678D01*
X029349Y009632D01*
X029365Y009584D01*
X029377Y009535D01*
X029385Y009486D01*
X029389Y009436D01*
X029389Y009386D01*
X029385Y009336D01*
X029377Y009287D01*
X029365Y009238D01*
X029349Y009190D01*
X029330Y009144D01*
X029307Y009100D01*
X029280Y009057D01*
X029250Y009017D01*
X029218Y008979D01*
X029182Y008944D01*
X029143Y008912D01*
X029102Y008883D01*
X029059Y008857D01*
X029014Y008835D01*
X028968Y008817D01*
X028920Y008802D01*
X028871Y008791D01*
X028822Y008784D01*
X028772Y008781D01*
X028721Y008782D01*
X028672Y008787D01*
X028622Y008796D01*
X028574Y008809D01*
X028527Y008825D01*
X028481Y008846D01*
X028437Y008870D01*
X028395Y008897D01*
X028355Y008927D01*
X028318Y008961D01*
X028284Y008998D01*
X028252Y009037D01*
X028224Y009078D01*
X028199Y009122D01*
X028178Y009167D01*
X028161Y009214D01*
X028147Y009262D01*
X028137Y009311D01*
X028131Y009361D01*
X028129Y009411D01*
X028129Y011911D02*
X028131Y011961D01*
X028137Y012011D01*
X028147Y012060D01*
X028161Y012108D01*
X028178Y012155D01*
X028199Y012200D01*
X028224Y012244D01*
X028252Y012285D01*
X028284Y012324D01*
X028318Y012361D01*
X028355Y012395D01*
X028395Y012425D01*
X028437Y012452D01*
X028481Y012476D01*
X028527Y012497D01*
X028574Y012513D01*
X028622Y012526D01*
X028672Y012535D01*
X028721Y012540D01*
X028772Y012541D01*
X028822Y012538D01*
X028871Y012531D01*
X028920Y012520D01*
X028968Y012505D01*
X029014Y012487D01*
X029059Y012465D01*
X029102Y012439D01*
X029143Y012410D01*
X029182Y012378D01*
X029218Y012343D01*
X029250Y012305D01*
X029280Y012265D01*
X029307Y012222D01*
X029330Y012178D01*
X029349Y012132D01*
X029365Y012084D01*
X029377Y012035D01*
X029385Y011986D01*
X029389Y011936D01*
X029389Y011886D01*
X029385Y011836D01*
X029377Y011787D01*
X029365Y011738D01*
X029349Y011690D01*
X029330Y011644D01*
X029307Y011600D01*
X029280Y011557D01*
X029250Y011517D01*
X029218Y011479D01*
X029182Y011444D01*
X029143Y011412D01*
X029102Y011383D01*
X029059Y011357D01*
X029014Y011335D01*
X028968Y011317D01*
X028920Y011302D01*
X028871Y011291D01*
X028822Y011284D01*
X028772Y011281D01*
X028721Y011282D01*
X028672Y011287D01*
X028622Y011296D01*
X028574Y011309D01*
X028527Y011325D01*
X028481Y011346D01*
X028437Y011370D01*
X028395Y011397D01*
X028355Y011427D01*
X028318Y011461D01*
X028284Y011498D01*
X028252Y011537D01*
X028224Y011578D01*
X028199Y011622D01*
X028178Y011667D01*
X028161Y011714D01*
X028147Y011762D01*
X028137Y011811D01*
X028131Y011861D01*
X028129Y011911D01*
X028129Y016411D02*
X028131Y016461D01*
X028137Y016511D01*
X028147Y016560D01*
X028161Y016608D01*
X028178Y016655D01*
X028199Y016700D01*
X028224Y016744D01*
X028252Y016785D01*
X028284Y016824D01*
X028318Y016861D01*
X028355Y016895D01*
X028395Y016925D01*
X028437Y016952D01*
X028481Y016976D01*
X028527Y016997D01*
X028574Y017013D01*
X028622Y017026D01*
X028672Y017035D01*
X028721Y017040D01*
X028772Y017041D01*
X028822Y017038D01*
X028871Y017031D01*
X028920Y017020D01*
X028968Y017005D01*
X029014Y016987D01*
X029059Y016965D01*
X029102Y016939D01*
X029143Y016910D01*
X029182Y016878D01*
X029218Y016843D01*
X029250Y016805D01*
X029280Y016765D01*
X029307Y016722D01*
X029330Y016678D01*
X029349Y016632D01*
X029365Y016584D01*
X029377Y016535D01*
X029385Y016486D01*
X029389Y016436D01*
X029389Y016386D01*
X029385Y016336D01*
X029377Y016287D01*
X029365Y016238D01*
X029349Y016190D01*
X029330Y016144D01*
X029307Y016100D01*
X029280Y016057D01*
X029250Y016017D01*
X029218Y015979D01*
X029182Y015944D01*
X029143Y015912D01*
X029102Y015883D01*
X029059Y015857D01*
X029014Y015835D01*
X028968Y015817D01*
X028920Y015802D01*
X028871Y015791D01*
X028822Y015784D01*
X028772Y015781D01*
X028721Y015782D01*
X028672Y015787D01*
X028622Y015796D01*
X028574Y015809D01*
X028527Y015825D01*
X028481Y015846D01*
X028437Y015870D01*
X028395Y015897D01*
X028355Y015927D01*
X028318Y015961D01*
X028284Y015998D01*
X028252Y016037D01*
X028224Y016078D01*
X028199Y016122D01*
X028178Y016167D01*
X028161Y016214D01*
X028147Y016262D01*
X028137Y016311D01*
X028131Y016361D01*
X028129Y016411D01*
X008109Y020161D02*
X008111Y020211D01*
X008117Y020261D01*
X008127Y020311D01*
X008140Y020359D01*
X008157Y020407D01*
X008178Y020453D01*
X008202Y020497D01*
X008230Y020539D01*
X008261Y020579D01*
X008295Y020616D01*
X008332Y020651D01*
X008371Y020682D01*
X008412Y020711D01*
X008456Y020736D01*
X008502Y020758D01*
X008549Y020776D01*
X008597Y020790D01*
X008646Y020801D01*
X008696Y020808D01*
X008746Y020811D01*
X008797Y020810D01*
X008847Y020805D01*
X008897Y020796D01*
X008945Y020784D01*
X008993Y020767D01*
X009039Y020747D01*
X009084Y020724D01*
X009127Y020697D01*
X009167Y020667D01*
X009205Y020634D01*
X009240Y020598D01*
X009273Y020559D01*
X009302Y020518D01*
X009328Y020475D01*
X009351Y020430D01*
X009370Y020383D01*
X009385Y020335D01*
X009397Y020286D01*
X009405Y020236D01*
X009409Y020186D01*
X009409Y020136D01*
X009405Y020086D01*
X009397Y020036D01*
X009385Y019987D01*
X009370Y019939D01*
X009351Y019892D01*
X009328Y019847D01*
X009302Y019804D01*
X009273Y019763D01*
X009240Y019724D01*
X009205Y019688D01*
X009167Y019655D01*
X009127Y019625D01*
X009084Y019598D01*
X009039Y019575D01*
X008993Y019555D01*
X008945Y019538D01*
X008897Y019526D01*
X008847Y019517D01*
X008797Y019512D01*
X008746Y019511D01*
X008696Y019514D01*
X008646Y019521D01*
X008597Y019532D01*
X008549Y019546D01*
X008502Y019564D01*
X008456Y019586D01*
X008412Y019611D01*
X008371Y019640D01*
X008332Y019671D01*
X008295Y019706D01*
X008261Y019743D01*
X008230Y019783D01*
X008202Y019825D01*
X008178Y019869D01*
X008157Y019915D01*
X008140Y019963D01*
X008127Y020011D01*
X008117Y020061D01*
X008111Y020111D01*
X008109Y020161D01*
D14*
X026259Y012411D03*
X026259Y005411D03*
D15*
X021975Y009874D03*
X021975Y010661D03*
X021975Y011449D03*
D16*
X021522Y011660D02*
X021489Y011660D01*
X021489Y011580D02*
X021489Y017066D01*
X021489Y017256D01*
X020657Y018088D01*
X020657Y018240D01*
X020596Y018387D01*
X020484Y018499D01*
X020338Y018559D01*
X020180Y018559D01*
X020033Y018499D01*
X019921Y018387D01*
X019903Y018342D01*
X019489Y018756D01*
X019489Y019661D01*
X019570Y019695D01*
X019725Y019850D01*
X019809Y020052D01*
X019809Y020271D01*
X019725Y020473D01*
X019570Y020627D01*
X019368Y020711D01*
X019149Y020711D01*
X018947Y020627D01*
X018793Y020473D01*
X018759Y020391D01*
X018725Y020473D01*
X018570Y020627D01*
X018368Y020711D01*
X018149Y020711D01*
X017947Y020627D01*
X017793Y020473D01*
X017759Y020391D01*
X017725Y020473D01*
X017570Y020627D01*
X017368Y020711D01*
X017149Y020711D01*
X016947Y020627D01*
X016793Y020473D01*
X016759Y020391D01*
X016725Y020473D01*
X016570Y020627D01*
X016368Y020711D01*
X016149Y020711D01*
X015947Y020627D01*
X015793Y020473D01*
X015759Y020391D01*
X015725Y020473D01*
X015570Y020627D01*
X015368Y020711D01*
X015149Y020711D01*
X014947Y020627D01*
X014793Y020473D01*
X014759Y020391D01*
X014725Y020473D01*
X014570Y020627D01*
X014368Y020711D01*
X014149Y020711D01*
X013947Y020627D01*
X013793Y020473D01*
X013749Y020367D01*
X013712Y020439D01*
X013663Y020506D01*
X013604Y020565D01*
X013537Y020615D01*
X013462Y020652D01*
X013383Y020678D01*
X013301Y020691D01*
X013299Y020691D01*
X013299Y020201D01*
X013219Y020201D01*
X013219Y020691D01*
X013217Y020691D01*
X013135Y020678D01*
X013055Y020652D01*
X012981Y020615D01*
X012914Y020565D01*
X012855Y020506D01*
X012806Y020439D01*
X012769Y020367D01*
X012725Y020473D01*
X012570Y020627D01*
X012368Y020711D01*
X012149Y020711D01*
X011947Y020627D01*
X011793Y020473D01*
X011709Y020271D01*
X011709Y020052D01*
X011793Y019850D01*
X011947Y019695D01*
X012149Y019611D01*
X012368Y019611D01*
X012570Y019695D01*
X012725Y019850D01*
X012769Y019955D01*
X012806Y019883D01*
X012855Y019816D01*
X012914Y019757D01*
X012981Y019708D01*
X013055Y019670D01*
X013135Y019644D01*
X013217Y019631D01*
X013219Y019631D01*
X013219Y020121D01*
X013299Y020121D01*
X013299Y019631D01*
X013301Y019631D01*
X013383Y019644D01*
X013462Y019670D01*
X013537Y019708D01*
X013604Y019757D01*
X013663Y019816D01*
X013712Y019883D01*
X013749Y019955D01*
X013793Y019850D01*
X013947Y019695D01*
X014149Y019611D01*
X014368Y019611D01*
X014570Y019695D01*
X014725Y019850D01*
X014759Y019931D01*
X014793Y019850D01*
X014947Y019695D01*
X015149Y019611D01*
X015368Y019611D01*
X015570Y019695D01*
X015725Y019850D01*
X015759Y019931D01*
X015793Y019850D01*
X015947Y019695D01*
X016149Y019611D01*
X016368Y019611D01*
X016570Y019695D01*
X016725Y019850D01*
X016759Y019931D01*
X016793Y019850D01*
X016947Y019695D01*
X017149Y019611D01*
X017368Y019611D01*
X017570Y019695D01*
X017725Y019850D01*
X017759Y019931D01*
X017793Y019850D01*
X017947Y019695D01*
X018029Y019661D01*
X018029Y019256D01*
X018029Y019066D01*
X020029Y017066D01*
X020029Y006066D01*
X020164Y005931D01*
X021029Y005066D01*
X021164Y004931D01*
X021775Y004931D01*
X021709Y004771D01*
X021709Y004552D01*
X021793Y004350D01*
X021947Y004195D01*
X022053Y004151D01*
X021981Y004115D01*
X021914Y004065D01*
X021855Y004006D01*
X021806Y003939D01*
X021768Y003865D01*
X021742Y003785D01*
X021729Y003703D01*
X021729Y003701D01*
X022219Y003701D01*
X022219Y003621D01*
X021729Y003621D01*
X021729Y003620D01*
X021742Y003537D01*
X021768Y003458D01*
X021802Y003391D01*
X019854Y003391D01*
X019489Y003756D01*
X019489Y008661D01*
X019570Y008695D01*
X019725Y008850D01*
X019809Y009052D01*
X020029Y009052D01*
X020029Y008933D02*
X019760Y008933D01*
X019809Y009052D02*
X019809Y009271D01*
X019725Y009473D01*
X019570Y009627D01*
X019368Y009711D01*
X019149Y009711D01*
X018947Y009627D01*
X018793Y009473D01*
X018709Y009271D01*
X018709Y009052D01*
X015809Y009052D01*
X015725Y008850D01*
X015570Y008695D01*
X015368Y008611D01*
X015149Y008611D01*
X014947Y008695D01*
X014793Y008850D01*
X014709Y009052D01*
X012309Y009052D01*
X012225Y008850D01*
X012070Y008695D01*
X011868Y008611D01*
X011649Y008611D01*
X011447Y008695D01*
X011293Y008850D01*
X011209Y009052D01*
X006479Y009052D01*
X006479Y008933D02*
X011258Y008933D01*
X011209Y009052D02*
X011209Y009271D01*
X011293Y009473D01*
X011447Y009627D01*
X011649Y009711D01*
X011868Y009711D01*
X012070Y009627D01*
X012225Y009473D01*
X012309Y009271D01*
X012309Y009052D01*
X012309Y009171D02*
X014709Y009171D01*
X014709Y009271D02*
X014709Y009052D01*
X014758Y008933D02*
X012260Y008933D01*
X012190Y008815D02*
X014827Y008815D01*
X014946Y008696D02*
X012072Y008696D01*
X011446Y008696D02*
X006479Y008696D01*
X006479Y008578D02*
X019029Y008578D01*
X019029Y008661D02*
X019029Y003756D01*
X019029Y003566D01*
X019529Y003066D01*
X019664Y002931D01*
X021775Y002931D01*
X021709Y002771D01*
X021709Y002552D01*
X021793Y002350D01*
X021947Y002195D01*
X022149Y002111D01*
X022368Y002111D01*
X022570Y002195D01*
X022725Y002350D01*
X022809Y002552D01*
X022809Y002771D01*
X022742Y002931D01*
X026164Y002931D01*
X026529Y002566D01*
X026529Y001661D01*
X026447Y001627D01*
X026293Y001473D01*
X026259Y001391D01*
X026225Y001473D01*
X026070Y001627D01*
X025868Y001711D01*
X025649Y001711D01*
X025447Y001627D01*
X025293Y001473D01*
X025259Y001391D01*
X025225Y001473D01*
X025070Y001627D01*
X024868Y001711D01*
X024649Y001711D01*
X024447Y001627D01*
X024293Y001473D01*
X024259Y001391D01*
X024225Y001473D01*
X024070Y001627D01*
X023868Y001711D01*
X023649Y001711D01*
X023447Y001627D01*
X023293Y001473D01*
X023259Y001391D01*
X023225Y001473D01*
X023070Y001627D01*
X022868Y001711D01*
X022649Y001711D01*
X022447Y001627D01*
X022293Y001473D01*
X022209Y001271D01*
X022209Y001052D01*
X022293Y000850D01*
X022447Y000695D01*
X022649Y000611D01*
X022868Y000611D01*
X023070Y000695D01*
X023225Y000850D01*
X023259Y000931D01*
X023293Y000850D01*
X023447Y000695D01*
X023649Y000611D01*
X023868Y000611D01*
X024070Y000695D01*
X024225Y000850D01*
X024259Y000931D01*
X024293Y000850D01*
X024447Y000695D01*
X024649Y000611D01*
X024868Y000611D01*
X025070Y000695D01*
X025225Y000850D01*
X025259Y000931D01*
X025293Y000850D01*
X025447Y000695D01*
X025649Y000611D01*
X025868Y000611D01*
X026070Y000695D01*
X026225Y000850D01*
X026259Y000931D01*
X026293Y000850D01*
X026447Y000695D01*
X026649Y000611D01*
X026868Y000611D01*
X027070Y000695D01*
X027225Y000850D01*
X027259Y000931D01*
X027293Y000850D01*
X027447Y000695D01*
X027649Y000611D01*
X027868Y000611D01*
X028070Y000695D01*
X028225Y000850D01*
X028309Y001052D01*
X028309Y001271D01*
X028225Y001473D01*
X028070Y001627D01*
X027868Y001711D01*
X027649Y001711D01*
X027447Y001627D01*
X027293Y001473D01*
X027259Y001391D01*
X027225Y001473D01*
X027070Y001627D01*
X026989Y001661D01*
X026989Y002756D01*
X026854Y002891D01*
X026354Y003391D01*
X026164Y003391D01*
X022716Y003391D01*
X022750Y003458D01*
X022776Y003537D01*
X022789Y003620D01*
X022789Y003621D01*
X022299Y003621D01*
X022299Y003701D01*
X022789Y003701D01*
X022789Y003703D01*
X022776Y003785D01*
X022750Y003865D01*
X022712Y003939D01*
X022663Y004006D01*
X022604Y004065D01*
X022537Y004115D01*
X022465Y004151D01*
X022570Y004195D01*
X022725Y004350D01*
X022809Y004552D01*
X022809Y004771D01*
X022742Y004931D01*
X024164Y004931D01*
X024354Y004931D01*
X024604Y005181D01*
X025709Y005181D01*
X025709Y004967D01*
X025814Y004861D01*
X026703Y004861D01*
X026809Y004967D01*
X026809Y005856D01*
X026703Y005961D01*
X026587Y005961D01*
X026725Y006100D01*
X026809Y006302D01*
X026809Y006521D01*
X026725Y006723D01*
X026570Y006877D01*
X026489Y006911D01*
X026570Y006945D01*
X026725Y007100D01*
X026809Y007302D01*
X026809Y007521D01*
X026725Y007723D01*
X026570Y007877D01*
X026465Y007921D01*
X026537Y007958D01*
X026604Y008007D01*
X026663Y008066D01*
X026712Y008133D01*
X026750Y008208D01*
X026776Y008287D01*
X026789Y008370D01*
X026789Y008373D01*
X026298Y008373D01*
X026298Y008450D01*
X026789Y008450D01*
X026789Y008453D01*
X026776Y008535D01*
X026750Y008615D01*
X026712Y008689D01*
X026663Y008756D01*
X026604Y008815D01*
X026537Y008865D01*
X026462Y008902D01*
X026383Y008928D01*
X026301Y008941D01*
X026297Y008941D01*
X026297Y008450D01*
X026220Y008450D01*
X026220Y008373D01*
X025729Y008373D01*
X025729Y008370D01*
X025742Y008287D01*
X025768Y008208D01*
X025806Y008133D01*
X025855Y008066D01*
X025914Y008007D01*
X025981Y007958D01*
X026053Y007921D01*
X025947Y007877D01*
X025793Y007723D01*
X025709Y007521D01*
X025709Y007302D01*
X025793Y007100D01*
X025947Y006945D01*
X026029Y006911D01*
X025947Y006877D01*
X025793Y006723D01*
X025759Y006641D01*
X025742Y006641D01*
X025809Y006802D01*
X025809Y007021D01*
X025725Y007223D01*
X025570Y007377D01*
X025489Y007411D01*
X025570Y007445D01*
X025725Y007600D01*
X025809Y007802D01*
X025809Y008021D01*
X025725Y008223D01*
X025570Y008377D01*
X025465Y008421D01*
X025537Y008458D01*
X025604Y008507D01*
X025663Y008566D01*
X025712Y008633D01*
X025750Y008708D01*
X025776Y008787D01*
X025789Y008870D01*
X025789Y008873D01*
X025298Y008873D01*
X025298Y008950D01*
X025789Y008950D01*
X025789Y008953D01*
X025776Y009035D01*
X025750Y009115D01*
X025712Y009189D01*
X025663Y009256D01*
X025604Y009315D01*
X025537Y009365D01*
X025462Y009402D01*
X025383Y009428D01*
X025301Y009441D01*
X025297Y009441D01*
X025297Y008950D01*
X025220Y008950D01*
X025220Y008873D01*
X024729Y008873D01*
X024729Y008870D01*
X024742Y008787D01*
X024768Y008708D01*
X024806Y008633D01*
X024855Y008566D01*
X024914Y008507D01*
X024981Y008458D01*
X025053Y008421D01*
X024947Y008377D01*
X024793Y008223D01*
X024709Y008021D01*
X024709Y007802D01*
X024793Y007600D01*
X024947Y007445D01*
X025029Y007411D01*
X024947Y007377D01*
X024793Y007223D01*
X024709Y007021D01*
X024709Y006802D01*
X024775Y006641D01*
X024604Y006641D01*
X023854Y007391D01*
X023664Y007391D01*
X022742Y007391D01*
X022809Y007552D01*
X022809Y007771D01*
X022725Y007973D01*
X022570Y008127D01*
X022368Y008211D01*
X022149Y008211D01*
X021947Y008127D01*
X021793Y007973D01*
X021709Y007771D01*
X021709Y007552D01*
X021720Y007526D01*
X021489Y007756D01*
X021489Y009742D01*
X021552Y009591D01*
X021692Y009450D01*
X021876Y009374D01*
X022075Y009374D01*
X022259Y009450D01*
X022399Y009591D01*
X022475Y009774D01*
X022475Y009973D01*
X022399Y010157D01*
X022273Y010284D01*
X022288Y010295D01*
X022342Y010349D01*
X022386Y010410D01*
X022420Y010477D01*
X022444Y010549D01*
X022455Y010623D01*
X022455Y010652D01*
X021985Y010652D01*
X021985Y010670D01*
X022455Y010670D01*
X022455Y010699D01*
X022444Y010774D01*
X022420Y010846D01*
X022386Y010913D01*
X022342Y010974D01*
X022288Y011027D01*
X022273Y011039D01*
X022399Y011165D01*
X022475Y011349D01*
X022475Y011548D01*
X022399Y011732D01*
X022259Y011873D01*
X022205Y011895D01*
X022205Y017849D01*
X022205Y018040D01*
X020989Y019256D01*
X020989Y019661D01*
X021070Y019695D01*
X021225Y019850D01*
X021259Y019931D01*
X021293Y019850D01*
X021447Y019695D01*
X021649Y019611D01*
X021868Y019611D01*
X022070Y019695D01*
X022225Y019850D01*
X022259Y019931D01*
X022293Y019850D01*
X022447Y019695D01*
X022529Y019661D01*
X022529Y013066D01*
X022664Y012931D01*
X023414Y012181D01*
X023604Y012181D01*
X025709Y012181D01*
X025709Y011967D01*
X025814Y011861D01*
X026703Y011861D01*
X026809Y011967D01*
X026809Y012681D01*
X027414Y012681D01*
X027604Y012681D01*
X027854Y012931D01*
X027989Y013066D01*
X027989Y016154D01*
X028072Y015952D01*
X028300Y015725D01*
X028598Y015601D01*
X028920Y015601D01*
X029218Y015725D01*
X029445Y015952D01*
X029539Y016178D01*
X029539Y012144D01*
X029445Y012370D01*
X029218Y012598D01*
X028920Y012721D01*
X028598Y012721D01*
X028300Y012598D01*
X028072Y012370D01*
X027949Y012072D01*
X027949Y011750D01*
X028072Y011452D01*
X028300Y011225D01*
X028598Y011101D01*
X028920Y011101D01*
X029218Y011225D01*
X029445Y011452D01*
X029539Y011678D01*
X029539Y009644D01*
X029445Y009870D01*
X029218Y010098D01*
X028920Y010221D01*
X028598Y010221D01*
X028300Y010098D01*
X028072Y009870D01*
X027949Y009572D01*
X027949Y009250D01*
X028072Y008952D01*
X028300Y008725D01*
X028598Y008601D01*
X028920Y008601D01*
X029218Y008725D01*
X029445Y008952D01*
X029539Y009178D01*
X029539Y005144D01*
X029445Y005370D01*
X029218Y005598D01*
X028920Y005721D01*
X028598Y005721D01*
X028300Y005598D01*
X028072Y005370D01*
X027949Y005072D01*
X027949Y004750D01*
X028072Y004452D01*
X028300Y004225D01*
X028598Y004101D01*
X028684Y004101D01*
X028393Y004044D01*
X028084Y003837D01*
X028084Y003837D01*
X028084Y003836D01*
X028083Y003836D02*
X022759Y003836D01*
X022787Y003718D02*
X028004Y003718D01*
X028084Y003836D02*
X027877Y003527D01*
X027877Y003527D01*
X027804Y003161D01*
X027877Y002796D01*
X027877Y002796D01*
X028084Y002486D01*
X028393Y002279D01*
X028393Y002279D01*
X028759Y002206D01*
X029124Y002279D01*
X029434Y002486D01*
X029434Y002486D01*
X029539Y002643D01*
X029539Y001252D01*
X028668Y000381D01*
X007350Y000381D01*
X006479Y001252D01*
X006479Y020070D01*
X007350Y020941D01*
X008240Y020941D01*
X008084Y020837D01*
X008084Y020837D01*
X008084Y020836D01*
X007877Y020527D01*
X007877Y020527D01*
X007804Y020161D01*
X007877Y019796D01*
X007877Y019796D01*
X008084Y019486D01*
X008393Y019279D01*
X008393Y019279D01*
X008759Y019206D01*
X009124Y019279D01*
X009124Y019279D01*
X009434Y019486D01*
X009434Y019486D01*
X009641Y019796D01*
X009714Y020161D01*
X009641Y020527D01*
X009434Y020836D01*
X009434Y020837D01*
X009277Y020941D01*
X028668Y020941D01*
X029539Y020070D01*
X029539Y016644D01*
X029445Y016870D01*
X029218Y017098D01*
X028920Y017221D01*
X028598Y017221D01*
X028300Y017098D01*
X028072Y016870D01*
X027989Y016669D01*
X027989Y019661D01*
X028070Y019695D01*
X028225Y019850D01*
X028309Y020052D01*
X028309Y020271D01*
X028225Y020473D01*
X028070Y020627D01*
X027868Y020711D01*
X027649Y020711D01*
X027447Y020627D01*
X027293Y020473D01*
X027259Y020391D01*
X027225Y020473D01*
X027070Y020627D01*
X026868Y020711D01*
X026649Y020711D01*
X026447Y020627D01*
X026293Y020473D01*
X026259Y020391D01*
X026225Y020473D01*
X026070Y020627D01*
X025868Y020711D01*
X025649Y020711D01*
X025447Y020627D01*
X025293Y020473D01*
X025259Y020391D01*
X025225Y020473D01*
X025070Y020627D01*
X024868Y020711D01*
X024649Y020711D01*
X024447Y020627D01*
X024293Y020473D01*
X024259Y020391D01*
X024225Y020473D01*
X024070Y020627D01*
X023868Y020711D01*
X023649Y020711D01*
X023447Y020627D01*
X023293Y020473D01*
X023259Y020391D01*
X023225Y020473D01*
X023070Y020627D01*
X022868Y020711D01*
X022649Y020711D01*
X022447Y020627D01*
X022293Y020473D01*
X022259Y020391D01*
X022225Y020473D01*
X022070Y020627D01*
X021868Y020711D01*
X021649Y020711D01*
X021447Y020627D01*
X021293Y020473D01*
X021259Y020391D01*
X021225Y020473D01*
X021070Y020627D01*
X020868Y020711D01*
X020649Y020711D01*
X020447Y020627D01*
X020293Y020473D01*
X020209Y020271D01*
X020209Y020052D01*
X020293Y019850D01*
X020447Y019695D01*
X020529Y019661D01*
X020529Y019066D01*
X020664Y018931D01*
X021745Y017849D01*
X021745Y011895D01*
X021692Y011873D01*
X021552Y011732D01*
X021489Y011580D01*
X021489Y011779D02*
X021598Y011779D01*
X021489Y011897D02*
X021745Y011897D01*
X021745Y012016D02*
X021489Y012016D01*
X021489Y012134D02*
X021745Y012134D01*
X021745Y012253D02*
X021489Y012253D01*
X021489Y012371D02*
X021745Y012371D01*
X021745Y012490D02*
X021489Y012490D01*
X021489Y012608D02*
X021745Y012608D01*
X021745Y012727D02*
X021489Y012727D01*
X021489Y012845D02*
X021745Y012845D01*
X021745Y012964D02*
X021489Y012964D01*
X021489Y013082D02*
X021745Y013082D01*
X021745Y013201D02*
X021489Y013201D01*
X021489Y013320D02*
X021745Y013320D01*
X021745Y013438D02*
X021489Y013438D01*
X021489Y013557D02*
X021745Y013557D01*
X021745Y013675D02*
X021489Y013675D01*
X021489Y013794D02*
X021745Y013794D01*
X021745Y013912D02*
X021489Y013912D01*
X021489Y014031D02*
X021745Y014031D01*
X021745Y014149D02*
X021489Y014149D01*
X021489Y014268D02*
X021745Y014268D01*
X021745Y014386D02*
X021489Y014386D01*
X021489Y014505D02*
X021745Y014505D01*
X021745Y014624D02*
X021489Y014624D01*
X021489Y014742D02*
X021745Y014742D01*
X021745Y014861D02*
X021489Y014861D01*
X021489Y014979D02*
X021745Y014979D01*
X021745Y015098D02*
X021489Y015098D01*
X021489Y015216D02*
X021745Y015216D01*
X021745Y015335D02*
X021489Y015335D01*
X021489Y015453D02*
X021745Y015453D01*
X021745Y015572D02*
X021489Y015572D01*
X021489Y015690D02*
X021745Y015690D01*
X021745Y015809D02*
X021489Y015809D01*
X021489Y015928D02*
X021745Y015928D01*
X021745Y016046D02*
X021489Y016046D01*
X021489Y016165D02*
X021745Y016165D01*
X021745Y016283D02*
X021489Y016283D01*
X021489Y016402D02*
X021745Y016402D01*
X021745Y016520D02*
X021489Y016520D01*
X021489Y016639D02*
X021745Y016639D01*
X021745Y016757D02*
X021489Y016757D01*
X021489Y016876D02*
X021745Y016876D01*
X021745Y016994D02*
X021489Y016994D01*
X021489Y017113D02*
X021745Y017113D01*
X021745Y017231D02*
X021489Y017231D01*
X021395Y017350D02*
X021745Y017350D01*
X021745Y017469D02*
X021277Y017469D01*
X021158Y017587D02*
X021745Y017587D01*
X021745Y017706D02*
X021040Y017706D01*
X020921Y017824D02*
X021745Y017824D01*
X021652Y017943D02*
X020803Y017943D01*
X020684Y018061D02*
X021534Y018061D01*
X021415Y018180D02*
X020657Y018180D01*
X020633Y018298D02*
X021296Y018298D01*
X021178Y018417D02*
X020566Y018417D01*
X020396Y018535D02*
X021059Y018535D01*
X020941Y018654D02*
X019591Y018654D01*
X019489Y018773D02*
X020822Y018773D01*
X020704Y018891D02*
X019489Y018891D01*
X019489Y019010D02*
X020585Y019010D01*
X020529Y019128D02*
X019489Y019128D01*
X019489Y019247D02*
X020529Y019247D01*
X020529Y019365D02*
X019489Y019365D01*
X019489Y019484D02*
X020529Y019484D01*
X020529Y019602D02*
X019489Y019602D01*
X019596Y019721D02*
X020421Y019721D01*
X020303Y019839D02*
X019715Y019839D01*
X019770Y019958D02*
X020248Y019958D01*
X020209Y020077D02*
X019809Y020077D01*
X019809Y020195D02*
X020209Y020195D01*
X020227Y020314D02*
X019791Y020314D01*
X019742Y020432D02*
X020276Y020432D01*
X020371Y020551D02*
X019647Y020551D01*
X019470Y020669D02*
X020548Y020669D01*
X020970Y020669D02*
X021548Y020669D01*
X021371Y020551D02*
X021147Y020551D01*
X021242Y020432D02*
X021276Y020432D01*
X021970Y020669D02*
X022548Y020669D01*
X022371Y020551D02*
X022147Y020551D01*
X022242Y020432D02*
X022276Y020432D01*
X022970Y020669D02*
X023548Y020669D01*
X023371Y020551D02*
X023147Y020551D01*
X023242Y020432D02*
X023276Y020432D01*
X023970Y020669D02*
X024548Y020669D01*
X024371Y020551D02*
X024147Y020551D01*
X024242Y020432D02*
X024276Y020432D01*
X024970Y020669D02*
X025548Y020669D01*
X025371Y020551D02*
X025147Y020551D01*
X025242Y020432D02*
X025276Y020432D01*
X025970Y020669D02*
X026548Y020669D01*
X026371Y020551D02*
X026147Y020551D01*
X026242Y020432D02*
X026276Y020432D01*
X026970Y020669D02*
X027548Y020669D01*
X027371Y020551D02*
X027147Y020551D01*
X027242Y020432D02*
X027276Y020432D01*
X027970Y020669D02*
X028940Y020669D01*
X029058Y020551D02*
X028147Y020551D01*
X028242Y020432D02*
X029177Y020432D01*
X029295Y020314D02*
X028291Y020314D01*
X028309Y020195D02*
X029414Y020195D01*
X029532Y020077D02*
X028309Y020077D01*
X028270Y019958D02*
X029539Y019958D01*
X029539Y019839D02*
X028215Y019839D01*
X028096Y019721D02*
X029539Y019721D01*
X029539Y019602D02*
X027989Y019602D01*
X027989Y019484D02*
X029539Y019484D01*
X029539Y019365D02*
X027989Y019365D01*
X027989Y019247D02*
X029539Y019247D01*
X029539Y019128D02*
X027989Y019128D01*
X027989Y019010D02*
X029539Y019010D01*
X029539Y018891D02*
X027989Y018891D01*
X027989Y018773D02*
X029539Y018773D01*
X029539Y018654D02*
X027989Y018654D01*
X027989Y018535D02*
X029539Y018535D01*
X029539Y018417D02*
X027989Y018417D01*
X027989Y018298D02*
X029539Y018298D01*
X029539Y018180D02*
X027989Y018180D01*
X027989Y018061D02*
X029539Y018061D01*
X029539Y017943D02*
X027989Y017943D01*
X027989Y017824D02*
X029539Y017824D01*
X029539Y017706D02*
X027989Y017706D01*
X027989Y017587D02*
X029539Y017587D01*
X029539Y017469D02*
X027989Y017469D01*
X027989Y017350D02*
X029539Y017350D01*
X029539Y017231D02*
X027989Y017231D01*
X027989Y017113D02*
X028337Y017113D01*
X028197Y016994D02*
X027989Y016994D01*
X027989Y016876D02*
X028078Y016876D01*
X028026Y016757D02*
X027989Y016757D01*
X027529Y016757D02*
X023489Y016757D01*
X023489Y016639D02*
X027529Y016639D01*
X027529Y016520D02*
X023489Y016520D01*
X023489Y016402D02*
X025054Y016402D01*
X025055Y016402D02*
X024981Y016365D01*
X024914Y016315D01*
X024855Y016256D01*
X024806Y016189D01*
X024768Y016115D01*
X024742Y016035D01*
X024729Y015953D01*
X024729Y015950D01*
X025220Y015950D01*
X025220Y015873D01*
X024729Y015873D01*
X024729Y015870D01*
X024742Y015787D01*
X024768Y015708D01*
X024806Y015633D01*
X024855Y015566D01*
X024914Y015507D01*
X024981Y015458D01*
X025053Y015421D01*
X024947Y015377D01*
X024793Y015223D01*
X024709Y015021D01*
X024709Y014802D01*
X024793Y014600D01*
X024947Y014445D01*
X025029Y014411D01*
X024947Y014377D01*
X024793Y014223D01*
X024709Y014021D01*
X024709Y013802D01*
X024775Y013641D01*
X023604Y013641D01*
X023489Y013756D01*
X023489Y018328D01*
X023596Y018436D01*
X023657Y018582D01*
X023657Y018740D01*
X023596Y018887D01*
X023484Y018999D01*
X023338Y019059D01*
X023180Y019059D01*
X023033Y018999D01*
X022989Y018954D01*
X022989Y019661D01*
X023070Y019695D01*
X023225Y019850D01*
X023259Y019931D01*
X023293Y019850D01*
X023447Y019695D01*
X023649Y019611D01*
X023868Y019611D01*
X024070Y019695D01*
X024225Y019850D01*
X024259Y019931D01*
X024293Y019850D01*
X024447Y019695D01*
X024649Y019611D01*
X024868Y019611D01*
X025070Y019695D01*
X025225Y019850D01*
X025259Y019931D01*
X025293Y019850D01*
X025447Y019695D01*
X025649Y019611D01*
X025868Y019611D01*
X026070Y019695D01*
X026225Y019850D01*
X026259Y019931D01*
X026293Y019850D01*
X026447Y019695D01*
X026649Y019611D01*
X026868Y019611D01*
X027070Y019695D01*
X027225Y019850D01*
X027259Y019931D01*
X027293Y019850D01*
X027447Y019695D01*
X027529Y019661D01*
X027529Y013256D01*
X027414Y013141D01*
X026742Y013141D01*
X026809Y013302D01*
X026809Y013521D01*
X026725Y013723D01*
X026570Y013877D01*
X026489Y013911D01*
X026570Y013945D01*
X026725Y014100D01*
X026809Y014302D01*
X026809Y014521D01*
X026725Y014723D01*
X026570Y014877D01*
X026465Y014921D01*
X026537Y014958D01*
X026604Y015007D01*
X026663Y015066D01*
X026712Y015133D01*
X026750Y015208D01*
X026776Y015287D01*
X026789Y015370D01*
X026789Y015373D01*
X026298Y015373D01*
X026298Y015450D01*
X026789Y015450D01*
X026789Y015453D01*
X026776Y015535D01*
X026750Y015615D01*
X026712Y015689D01*
X026663Y015756D01*
X026604Y015815D01*
X026537Y015865D01*
X026462Y015902D01*
X026383Y015928D01*
X026301Y015941D01*
X026297Y015941D01*
X026297Y015450D01*
X026220Y015450D01*
X026220Y015373D01*
X025729Y015373D01*
X025729Y015370D01*
X025742Y015287D01*
X025768Y015208D01*
X025806Y015133D01*
X025855Y015066D01*
X025914Y015007D01*
X025981Y014958D01*
X026053Y014921D01*
X025947Y014877D01*
X025793Y014723D01*
X025709Y014521D01*
X025709Y014302D01*
X025793Y014100D01*
X025947Y013945D01*
X026029Y013911D01*
X025947Y013877D01*
X025793Y013723D01*
X025759Y013641D01*
X025742Y013641D01*
X025809Y013802D01*
X025809Y014021D01*
X025725Y014223D01*
X025570Y014377D01*
X025489Y014411D01*
X025570Y014445D01*
X025725Y014600D01*
X025809Y014802D01*
X025809Y015021D01*
X025725Y015223D01*
X025570Y015377D01*
X025465Y015421D01*
X025537Y015458D01*
X025604Y015507D01*
X025663Y015566D01*
X025712Y015633D01*
X025750Y015708D01*
X025776Y015787D01*
X025789Y015870D01*
X025789Y015873D01*
X025298Y015873D01*
X025298Y015950D01*
X025789Y015950D01*
X025789Y015953D01*
X025776Y016035D01*
X025750Y016115D01*
X025712Y016189D01*
X025663Y016256D01*
X025604Y016315D01*
X025537Y016365D01*
X025462Y016402D01*
X025383Y016428D01*
X025301Y016441D01*
X025297Y016441D01*
X025297Y015950D01*
X025220Y015950D01*
X025220Y016441D01*
X025217Y016441D01*
X025135Y016428D01*
X025055Y016402D01*
X025220Y016402D02*
X025297Y016402D01*
X025297Y016283D02*
X025220Y016283D01*
X025220Y016165D02*
X025297Y016165D01*
X025297Y016046D02*
X025220Y016046D01*
X025220Y015928D02*
X023489Y015928D01*
X023489Y016046D02*
X024745Y016046D01*
X024793Y016165D02*
X023489Y016165D01*
X023489Y016283D02*
X024881Y016283D01*
X025464Y016402D02*
X027529Y016402D01*
X027529Y016283D02*
X025636Y016283D01*
X025725Y016165D02*
X027529Y016165D01*
X027529Y016046D02*
X025772Y016046D01*
X025914Y015815D02*
X025981Y015865D01*
X026055Y015902D01*
X026135Y015928D01*
X026217Y015941D01*
X026220Y015941D01*
X026220Y015450D01*
X025729Y015450D01*
X025729Y015453D01*
X025742Y015535D01*
X025768Y015615D01*
X025806Y015689D01*
X025855Y015756D01*
X025914Y015815D01*
X025907Y015809D02*
X025779Y015809D01*
X025807Y015690D02*
X025741Y015690D01*
X025754Y015572D02*
X025667Y015572D01*
X025729Y015453D02*
X025528Y015453D01*
X025613Y015335D02*
X025734Y015335D01*
X025728Y015216D02*
X025765Y015216D01*
X025777Y015098D02*
X025832Y015098D01*
X025809Y014979D02*
X025952Y014979D01*
X025930Y014861D02*
X025809Y014861D01*
X025812Y014742D02*
X025784Y014742D01*
X025752Y014624D02*
X025735Y014624D01*
X025709Y014505D02*
X025630Y014505D01*
X025709Y014386D02*
X025549Y014386D01*
X025680Y014268D02*
X025723Y014268D01*
X025756Y014149D02*
X025772Y014149D01*
X025805Y014031D02*
X025861Y014031D01*
X025809Y013912D02*
X026026Y013912D01*
X025864Y013794D02*
X025806Y013794D01*
X025773Y013675D02*
X025756Y013675D01*
X026491Y013912D02*
X027529Y013912D01*
X027529Y013794D02*
X026654Y013794D01*
X026745Y013675D02*
X027529Y013675D01*
X027529Y013557D02*
X026794Y013557D01*
X026809Y013438D02*
X027529Y013438D01*
X027529Y013320D02*
X026809Y013320D01*
X026767Y013201D02*
X027473Y013201D01*
X027768Y012845D02*
X029539Y012845D01*
X029539Y012727D02*
X027650Y012727D01*
X027887Y012964D02*
X029539Y012964D01*
X029539Y013082D02*
X027989Y013082D01*
X027989Y013201D02*
X029539Y013201D01*
X029539Y013320D02*
X027989Y013320D01*
X027989Y013438D02*
X029539Y013438D01*
X029539Y013557D02*
X027989Y013557D01*
X027989Y013675D02*
X029539Y013675D01*
X029539Y013794D02*
X027989Y013794D01*
X027989Y013912D02*
X029539Y013912D01*
X029539Y014031D02*
X027989Y014031D01*
X027989Y014149D02*
X029539Y014149D01*
X029539Y014268D02*
X027989Y014268D01*
X027989Y014386D02*
X029539Y014386D01*
X029539Y014505D02*
X027989Y014505D01*
X027989Y014624D02*
X029539Y014624D01*
X029539Y014742D02*
X027989Y014742D01*
X027989Y014861D02*
X029539Y014861D01*
X029539Y014979D02*
X027989Y014979D01*
X027989Y015098D02*
X029539Y015098D01*
X029539Y015216D02*
X027989Y015216D01*
X027989Y015335D02*
X029539Y015335D01*
X029539Y015453D02*
X027989Y015453D01*
X027989Y015572D02*
X029539Y015572D01*
X029539Y015690D02*
X029135Y015690D01*
X029302Y015809D02*
X029539Y015809D01*
X029539Y015928D02*
X029421Y015928D01*
X029484Y016046D02*
X029539Y016046D01*
X029533Y016165D02*
X029539Y016165D01*
X029539Y016757D02*
X029492Y016757D01*
X029539Y016876D02*
X029440Y016876D01*
X029539Y016994D02*
X029321Y016994D01*
X029181Y017113D02*
X029539Y017113D01*
X028034Y016046D02*
X027989Y016046D01*
X027989Y015928D02*
X028097Y015928D01*
X027989Y015809D02*
X028216Y015809D01*
X028383Y015690D02*
X027989Y015690D01*
X027529Y015690D02*
X026711Y015690D01*
X026764Y015572D02*
X027529Y015572D01*
X027529Y015453D02*
X026789Y015453D01*
X026783Y015335D02*
X027529Y015335D01*
X027529Y015216D02*
X026753Y015216D01*
X026686Y015098D02*
X027529Y015098D01*
X027529Y014979D02*
X026566Y014979D01*
X026587Y014861D02*
X027529Y014861D01*
X027529Y014742D02*
X026706Y014742D01*
X026766Y014624D02*
X027529Y014624D01*
X027529Y014505D02*
X026809Y014505D01*
X026809Y014386D02*
X027529Y014386D01*
X027529Y014268D02*
X026795Y014268D01*
X026746Y014149D02*
X027529Y014149D01*
X027529Y014031D02*
X026656Y014031D01*
X024969Y014386D02*
X023489Y014386D01*
X023489Y014268D02*
X024838Y014268D01*
X024762Y014149D02*
X023489Y014149D01*
X023489Y014031D02*
X024713Y014031D01*
X024709Y013912D02*
X023489Y013912D01*
X023489Y013794D02*
X024712Y013794D01*
X024761Y013675D02*
X023570Y013675D01*
X023489Y014505D02*
X024887Y014505D01*
X024783Y014624D02*
X023489Y014624D01*
X023489Y014742D02*
X024734Y014742D01*
X024709Y014861D02*
X023489Y014861D01*
X023489Y014979D02*
X024709Y014979D01*
X024741Y015098D02*
X023489Y015098D01*
X023489Y015216D02*
X024790Y015216D01*
X024905Y015335D02*
X023489Y015335D01*
X023489Y015453D02*
X024990Y015453D01*
X024850Y015572D02*
X023489Y015572D01*
X023489Y015690D02*
X024777Y015690D01*
X024738Y015809D02*
X023489Y015809D01*
X022529Y015809D02*
X022205Y015809D01*
X022205Y015928D02*
X022529Y015928D01*
X022529Y016046D02*
X022205Y016046D01*
X022205Y016165D02*
X022529Y016165D01*
X022529Y016283D02*
X022205Y016283D01*
X022205Y016402D02*
X022529Y016402D01*
X022529Y016520D02*
X022205Y016520D01*
X022205Y016639D02*
X022529Y016639D01*
X022529Y016757D02*
X022205Y016757D01*
X022205Y016876D02*
X022529Y016876D01*
X022529Y016994D02*
X022205Y016994D01*
X022205Y017113D02*
X022529Y017113D01*
X022529Y017231D02*
X022205Y017231D01*
X022205Y017350D02*
X022529Y017350D01*
X022529Y017469D02*
X022205Y017469D01*
X022205Y017587D02*
X022529Y017587D01*
X022529Y017706D02*
X022205Y017706D01*
X022205Y017824D02*
X022529Y017824D01*
X022529Y017943D02*
X022205Y017943D01*
X022184Y018061D02*
X022529Y018061D01*
X022529Y018180D02*
X022066Y018180D01*
X021947Y018298D02*
X022529Y018298D01*
X022529Y018417D02*
X021828Y018417D01*
X021710Y018535D02*
X022529Y018535D01*
X022529Y018654D02*
X021591Y018654D01*
X021473Y018773D02*
X022529Y018773D01*
X022529Y018891D02*
X021354Y018891D01*
X021236Y019010D02*
X022529Y019010D01*
X022529Y019128D02*
X021117Y019128D01*
X020999Y019247D02*
X022529Y019247D01*
X022529Y019365D02*
X020989Y019365D01*
X020989Y019484D02*
X022529Y019484D01*
X022529Y019602D02*
X020989Y019602D01*
X021096Y019721D02*
X021421Y019721D01*
X021303Y019839D02*
X021215Y019839D01*
X022096Y019721D02*
X022421Y019721D01*
X022303Y019839D02*
X022215Y019839D01*
X022989Y019602D02*
X027529Y019602D01*
X027529Y019484D02*
X022989Y019484D01*
X022989Y019365D02*
X027529Y019365D01*
X027529Y019247D02*
X022989Y019247D01*
X022989Y019128D02*
X027529Y019128D01*
X027529Y019010D02*
X023458Y019010D01*
X023592Y018891D02*
X027529Y018891D01*
X027529Y018773D02*
X023644Y018773D01*
X023657Y018654D02*
X027529Y018654D01*
X027529Y018535D02*
X023638Y018535D01*
X023578Y018417D02*
X027529Y018417D01*
X027529Y018298D02*
X023489Y018298D01*
X023489Y018180D02*
X027529Y018180D01*
X027529Y018061D02*
X023489Y018061D01*
X023489Y017943D02*
X027529Y017943D01*
X027529Y017824D02*
X023489Y017824D01*
X023489Y017706D02*
X027529Y017706D01*
X027529Y017587D02*
X023489Y017587D01*
X023489Y017469D02*
X027529Y017469D01*
X027529Y017350D02*
X023489Y017350D01*
X023489Y017231D02*
X027529Y017231D01*
X027529Y017113D02*
X023489Y017113D01*
X023489Y016994D02*
X027529Y016994D01*
X027529Y016876D02*
X023489Y016876D01*
X022529Y015690D02*
X022205Y015690D01*
X022205Y015572D02*
X022529Y015572D01*
X022529Y015453D02*
X022205Y015453D01*
X022205Y015335D02*
X022529Y015335D01*
X022529Y015216D02*
X022205Y015216D01*
X022205Y015098D02*
X022529Y015098D01*
X022529Y014979D02*
X022205Y014979D01*
X022205Y014861D02*
X022529Y014861D01*
X022529Y014742D02*
X022205Y014742D01*
X022205Y014624D02*
X022529Y014624D01*
X022529Y014505D02*
X022205Y014505D01*
X022205Y014386D02*
X022529Y014386D01*
X022529Y014268D02*
X022205Y014268D01*
X022205Y014149D02*
X022529Y014149D01*
X022529Y014031D02*
X022205Y014031D01*
X022205Y013912D02*
X022529Y013912D01*
X022529Y013794D02*
X022205Y013794D01*
X022205Y013675D02*
X022529Y013675D01*
X022529Y013557D02*
X022205Y013557D01*
X022205Y013438D02*
X022529Y013438D01*
X022529Y013320D02*
X022205Y013320D01*
X022205Y013201D02*
X022529Y013201D01*
X022529Y013082D02*
X022205Y013082D01*
X022205Y012964D02*
X022631Y012964D01*
X022749Y012845D02*
X022205Y012845D01*
X022205Y012727D02*
X022868Y012727D01*
X022987Y012608D02*
X022205Y012608D01*
X022205Y012490D02*
X023105Y012490D01*
X023224Y012371D02*
X022205Y012371D01*
X022205Y012253D02*
X023342Y012253D01*
X022429Y011660D02*
X027986Y011660D01*
X027949Y011779D02*
X022353Y011779D01*
X022205Y011897D02*
X025779Y011897D01*
X025709Y012016D02*
X022205Y012016D01*
X022205Y012134D02*
X025709Y012134D01*
X026739Y011897D02*
X027949Y011897D01*
X027949Y012016D02*
X026809Y012016D01*
X026809Y012134D02*
X027975Y012134D01*
X028024Y012253D02*
X026809Y012253D01*
X026809Y012371D02*
X028073Y012371D01*
X028192Y012490D02*
X026809Y012490D01*
X026809Y012608D02*
X028325Y012608D01*
X029192Y012608D02*
X029539Y012608D01*
X029539Y012490D02*
X029326Y012490D01*
X029444Y012371D02*
X029539Y012371D01*
X029539Y012253D02*
X029494Y012253D01*
X029531Y011660D02*
X029539Y011660D01*
X029539Y011541D02*
X029482Y011541D01*
X029539Y011423D02*
X029416Y011423D01*
X029297Y011304D02*
X029539Y011304D01*
X029539Y011186D02*
X029124Y011186D01*
X029539Y011067D02*
X022301Y011067D01*
X022360Y010949D02*
X029539Y010949D01*
X029539Y010830D02*
X022425Y010830D01*
X022453Y010712D02*
X029539Y010712D01*
X029539Y010593D02*
X022451Y010593D01*
X022419Y010475D02*
X029539Y010475D01*
X029539Y010356D02*
X022347Y010356D01*
X022319Y010237D02*
X029539Y010237D01*
X029539Y010119D02*
X029167Y010119D01*
X029315Y010000D02*
X029539Y010000D01*
X029539Y009882D02*
X029434Y009882D01*
X029490Y009763D02*
X029539Y009763D01*
X029539Y009645D02*
X029539Y009645D01*
X029536Y009171D02*
X029539Y009171D01*
X029539Y009052D02*
X029487Y009052D01*
X029539Y008933D02*
X029426Y008933D01*
X029539Y008815D02*
X029308Y008815D01*
X029149Y008696D02*
X029539Y008696D01*
X029539Y008578D02*
X026762Y008578D01*
X026788Y008459D02*
X029539Y008459D01*
X029539Y008341D02*
X026784Y008341D01*
X026755Y008222D02*
X029539Y008222D01*
X029539Y008104D02*
X026690Y008104D01*
X026574Y007985D02*
X029539Y007985D01*
X029539Y007867D02*
X026581Y007867D01*
X026700Y007748D02*
X029539Y007748D01*
X029539Y007629D02*
X026764Y007629D01*
X026809Y007511D02*
X029539Y007511D01*
X029539Y007392D02*
X026809Y007392D01*
X026797Y007274D02*
X029539Y007274D01*
X029539Y007155D02*
X026748Y007155D01*
X026662Y007037D02*
X029539Y007037D01*
X029539Y006918D02*
X026506Y006918D01*
X026648Y006800D02*
X029539Y006800D01*
X029539Y006681D02*
X026742Y006681D01*
X026791Y006563D02*
X029539Y006563D01*
X029539Y006444D02*
X026809Y006444D01*
X026809Y006326D02*
X029539Y006326D01*
X029539Y006207D02*
X026770Y006207D01*
X026714Y006088D02*
X029539Y006088D01*
X029539Y005970D02*
X026595Y005970D01*
X026809Y005851D02*
X029539Y005851D01*
X029539Y005733D02*
X026809Y005733D01*
X026809Y005614D02*
X028340Y005614D01*
X028198Y005496D02*
X026809Y005496D01*
X026809Y005377D02*
X028079Y005377D01*
X028026Y005259D02*
X026809Y005259D01*
X026809Y005140D02*
X027977Y005140D01*
X027949Y005022D02*
X026809Y005022D01*
X026745Y004903D02*
X027949Y004903D01*
X027949Y004784D02*
X022803Y004784D01*
X022809Y004666D02*
X027984Y004666D01*
X028033Y004547D02*
X022807Y004547D01*
X022758Y004429D02*
X028096Y004429D01*
X028214Y004310D02*
X022686Y004310D01*
X022563Y004192D02*
X028380Y004192D01*
X028393Y004044D02*
X028393Y004044D01*
X028543Y004073D02*
X022594Y004073D01*
X022701Y003955D02*
X028260Y003955D01*
X027925Y003599D02*
X022786Y003599D01*
X022757Y003480D02*
X027867Y003480D01*
X027844Y003362D02*
X026383Y003362D01*
X026502Y003243D02*
X027820Y003243D01*
X027804Y003161D02*
X027804Y003161D01*
X027811Y003125D02*
X026621Y003125D01*
X026739Y003006D02*
X027835Y003006D01*
X027858Y002888D02*
X026858Y002888D01*
X026976Y002769D02*
X027894Y002769D01*
X027974Y002651D02*
X026989Y002651D01*
X026989Y002532D02*
X028053Y002532D01*
X028084Y002486D02*
X028084Y002486D01*
X028192Y002414D02*
X026989Y002414D01*
X026989Y002295D02*
X028369Y002295D01*
X029124Y002279D02*
X029124Y002279D01*
X029148Y002295D02*
X029539Y002295D01*
X029539Y002176D02*
X026989Y002176D01*
X026989Y002058D02*
X029539Y002058D01*
X029539Y001939D02*
X026989Y001939D01*
X026989Y001821D02*
X029539Y001821D01*
X029539Y001702D02*
X027890Y001702D01*
X028114Y001584D02*
X029539Y001584D01*
X029539Y001465D02*
X028228Y001465D01*
X028277Y001347D02*
X029539Y001347D01*
X029515Y001228D02*
X028309Y001228D01*
X028309Y001110D02*
X029396Y001110D01*
X029278Y000991D02*
X028284Y000991D01*
X028235Y000873D02*
X029159Y000873D01*
X029041Y000754D02*
X028129Y000754D01*
X027927Y000635D02*
X028922Y000635D01*
X028803Y000517D02*
X007214Y000517D01*
X007096Y000635D02*
X015591Y000635D01*
X015649Y000611D02*
X015868Y000611D01*
X016070Y000695D01*
X016225Y000850D01*
X016259Y000931D01*
X016293Y000850D01*
X016447Y000695D01*
X016649Y000611D01*
X016868Y000611D01*
X017070Y000695D01*
X017225Y000850D01*
X017259Y000931D01*
X017293Y000850D01*
X017447Y000695D01*
X017649Y000611D01*
X017868Y000611D01*
X018070Y000695D01*
X018225Y000850D01*
X018269Y000955D01*
X018306Y000883D01*
X018355Y000816D01*
X018414Y000757D01*
X018481Y000708D01*
X018555Y000670D01*
X018635Y000644D01*
X018717Y000631D01*
X018719Y000631D01*
X018719Y001121D01*
X018799Y001121D01*
X018799Y000631D01*
X018801Y000631D01*
X018883Y000644D01*
X018962Y000670D01*
X019037Y000708D01*
X019104Y000757D01*
X019163Y000816D01*
X019212Y000883D01*
X019250Y000958D01*
X019259Y000985D01*
X019268Y000958D01*
X019306Y000883D01*
X019355Y000816D01*
X019414Y000757D01*
X019481Y000708D01*
X019555Y000670D01*
X019635Y000644D01*
X019717Y000631D01*
X019719Y000631D01*
X019719Y001121D01*
X019799Y001121D01*
X019799Y000631D01*
X019801Y000631D01*
X019883Y000644D01*
X019962Y000670D01*
X020037Y000708D01*
X020104Y000757D01*
X020163Y000816D01*
X020212Y000883D01*
X020249Y000955D01*
X020293Y000850D01*
X020447Y000695D01*
X020649Y000611D01*
X020868Y000611D01*
X021070Y000695D01*
X021225Y000850D01*
X021309Y001052D01*
X021309Y001271D01*
X021225Y001473D01*
X021070Y001627D01*
X020868Y001711D01*
X020649Y001711D01*
X020447Y001627D01*
X020293Y001473D01*
X020249Y001367D01*
X020212Y001439D01*
X020163Y001506D01*
X020104Y001565D01*
X020037Y001615D01*
X019962Y001652D01*
X019883Y001678D01*
X019801Y001691D01*
X019799Y001691D01*
X019799Y001201D01*
X019719Y001201D01*
X019719Y001121D01*
X019229Y001121D01*
X018799Y001121D01*
X018799Y001201D01*
X019229Y001201D01*
X019719Y001201D01*
X019719Y001691D01*
X019717Y001691D01*
X019635Y001678D01*
X019555Y001652D01*
X019481Y001615D01*
X019414Y001565D01*
X019355Y001506D01*
X019306Y001439D01*
X019268Y001365D01*
X019259Y001337D01*
X019250Y001365D01*
X019212Y001439D01*
X019163Y001506D01*
X019104Y001565D01*
X019037Y001615D01*
X018962Y001652D01*
X018883Y001678D01*
X018801Y001691D01*
X018799Y001691D01*
X018799Y001201D01*
X018719Y001201D01*
X018719Y001691D01*
X018717Y001691D01*
X018635Y001678D01*
X018555Y001652D01*
X018481Y001615D01*
X018414Y001565D01*
X018355Y001506D01*
X018306Y001439D01*
X018269Y001367D01*
X018225Y001473D01*
X018070Y001627D01*
X017868Y001711D01*
X017649Y001711D01*
X017447Y001627D01*
X017293Y001473D01*
X017259Y001391D01*
X017225Y001473D01*
X017070Y001627D01*
X016868Y001711D01*
X016649Y001711D01*
X016447Y001627D01*
X016293Y001473D01*
X016259Y001391D01*
X016225Y001473D01*
X016070Y001627D01*
X015868Y001711D01*
X015649Y001711D01*
X015447Y001627D01*
X015293Y001473D01*
X015209Y001271D01*
X015209Y001052D01*
X015293Y000850D01*
X015447Y000695D01*
X015649Y000611D01*
X015927Y000635D02*
X016591Y000635D01*
X016388Y000754D02*
X016129Y000754D01*
X016235Y000873D02*
X016283Y000873D01*
X016290Y001465D02*
X016228Y001465D01*
X016114Y001584D02*
X016404Y001584D01*
X016628Y001702D02*
X015890Y001702D01*
X015628Y001702D02*
X006479Y001702D01*
X006479Y001584D02*
X015404Y001584D01*
X015290Y001465D02*
X006479Y001465D01*
X006479Y001347D02*
X015240Y001347D01*
X015209Y001228D02*
X006503Y001228D01*
X006622Y001110D02*
X015209Y001110D01*
X015234Y000991D02*
X006740Y000991D01*
X006859Y000873D02*
X015283Y000873D01*
X015388Y000754D02*
X006977Y000754D01*
X007333Y000398D02*
X028685Y000398D01*
X027591Y000635D02*
X026927Y000635D01*
X027129Y000754D02*
X027388Y000754D01*
X027283Y000873D02*
X027235Y000873D01*
X027228Y001465D02*
X027290Y001465D01*
X027404Y001584D02*
X027114Y001584D01*
X026989Y001702D02*
X027628Y001702D01*
X026529Y001702D02*
X025890Y001702D01*
X026114Y001584D02*
X026404Y001584D01*
X026290Y001465D02*
X026228Y001465D01*
X026529Y001821D02*
X006479Y001821D01*
X006479Y001939D02*
X026529Y001939D01*
X026529Y002058D02*
X006479Y002058D01*
X006479Y002176D02*
X021992Y002176D01*
X021847Y002295D02*
X006479Y002295D01*
X006479Y002414D02*
X021766Y002414D01*
X021717Y002532D02*
X006479Y002532D01*
X006479Y002651D02*
X007554Y002651D01*
X007649Y002611D02*
X007447Y002695D01*
X007293Y002850D01*
X007209Y003052D01*
X007209Y003271D01*
X007293Y003473D01*
X007447Y003627D01*
X007529Y003661D01*
X007447Y003695D01*
X007293Y003850D01*
X007209Y004052D01*
X007209Y004271D01*
X007293Y004473D01*
X007447Y004627D01*
X007529Y004661D01*
X007447Y004695D01*
X007293Y004850D01*
X007209Y005052D01*
X007209Y005271D01*
X007293Y005473D01*
X007447Y005627D01*
X007553Y005671D01*
X007481Y005708D01*
X007414Y005757D01*
X007355Y005816D01*
X007306Y005883D01*
X007268Y005958D01*
X007242Y006037D01*
X007229Y006120D01*
X007229Y006121D01*
X007719Y006121D01*
X007719Y006201D01*
X007229Y006201D01*
X007229Y006203D01*
X007242Y006285D01*
X007268Y006365D01*
X007306Y006439D01*
X007355Y006506D01*
X007414Y006565D01*
X007481Y006615D01*
X007555Y006652D01*
X007583Y006661D01*
X007555Y006670D01*
X007481Y006708D01*
X007414Y006757D01*
X007355Y006816D01*
X007306Y006883D01*
X007268Y006958D01*
X007242Y007037D01*
X007229Y007120D01*
X007229Y007121D01*
X007719Y007121D01*
X007799Y007121D01*
X007799Y006631D01*
X007799Y006201D01*
X008289Y006201D01*
X008289Y006203D01*
X008276Y006285D01*
X008250Y006365D01*
X008212Y006439D01*
X008163Y006506D01*
X008104Y006565D01*
X008037Y006615D01*
X007962Y006652D01*
X007935Y006661D01*
X007962Y006670D01*
X008037Y006708D01*
X008104Y006757D01*
X008163Y006816D01*
X008212Y006883D01*
X008250Y006958D01*
X008276Y007037D01*
X008289Y007120D01*
X008289Y007121D01*
X007799Y007121D01*
X007799Y007201D01*
X008289Y007201D01*
X008289Y007203D01*
X008276Y007285D01*
X008250Y007365D01*
X008212Y007439D01*
X008163Y007506D01*
X008104Y007565D01*
X008037Y007615D01*
X007962Y007652D01*
X007883Y007678D01*
X007801Y007691D01*
X007799Y007691D01*
X007799Y007201D01*
X007719Y007201D01*
X007719Y007121D01*
X007719Y006631D01*
X007719Y006201D01*
X007799Y006201D01*
X007799Y006121D01*
X008289Y006121D01*
X008289Y006120D01*
X008276Y006037D01*
X008250Y005958D01*
X008212Y005883D01*
X008163Y005816D01*
X008104Y005757D01*
X008037Y005708D01*
X007965Y005671D01*
X008070Y005627D01*
X008225Y005473D01*
X008309Y005271D01*
X008309Y005052D01*
X008225Y004850D01*
X008070Y004695D01*
X007989Y004661D01*
X008070Y004627D01*
X008225Y004473D01*
X008309Y004271D01*
X008309Y004052D01*
X008225Y003850D01*
X008070Y003695D01*
X007989Y003661D01*
X008070Y003627D01*
X008225Y003473D01*
X008309Y003271D01*
X008309Y003052D01*
X008225Y002850D01*
X008070Y002695D01*
X007868Y002611D01*
X007649Y002611D01*
X007963Y002651D02*
X021709Y002651D01*
X021709Y002769D02*
X008145Y002769D01*
X008241Y002888D02*
X021757Y002888D01*
X021760Y003480D02*
X019765Y003480D01*
X019646Y003599D02*
X021732Y003599D01*
X021731Y003718D02*
X019528Y003718D01*
X019489Y003836D02*
X021758Y003836D01*
X021817Y003955D02*
X019489Y003955D01*
X019489Y004073D02*
X021924Y004073D01*
X021955Y004192D02*
X019489Y004192D01*
X019489Y004310D02*
X021832Y004310D01*
X021760Y004429D02*
X019489Y004429D01*
X019489Y004547D02*
X021711Y004547D01*
X021709Y004666D02*
X019489Y004666D01*
X019489Y004784D02*
X021715Y004784D01*
X021764Y004903D02*
X019489Y004903D01*
X019489Y005022D02*
X021073Y005022D01*
X020955Y005140D02*
X019489Y005140D01*
X019489Y005259D02*
X020836Y005259D01*
X020718Y005377D02*
X019489Y005377D01*
X019489Y005496D02*
X020599Y005496D01*
X020481Y005614D02*
X019489Y005614D01*
X019489Y005733D02*
X020362Y005733D01*
X020244Y005851D02*
X019489Y005851D01*
X019489Y005970D02*
X020125Y005970D01*
X020164Y005931D02*
X020164Y005931D01*
X020029Y006088D02*
X019489Y006088D01*
X019489Y006207D02*
X020029Y006207D01*
X020029Y006326D02*
X019489Y006326D01*
X019489Y006444D02*
X020029Y006444D01*
X020029Y006563D02*
X019489Y006563D01*
X019489Y006681D02*
X020029Y006681D01*
X020029Y006800D02*
X019489Y006800D01*
X019489Y006918D02*
X020029Y006918D01*
X020029Y007037D02*
X019489Y007037D01*
X019489Y007155D02*
X020029Y007155D01*
X020029Y007274D02*
X019489Y007274D01*
X019489Y007392D02*
X020029Y007392D01*
X020029Y007511D02*
X019489Y007511D01*
X019489Y007629D02*
X020029Y007629D01*
X020029Y007748D02*
X019489Y007748D01*
X019489Y007867D02*
X020029Y007867D01*
X020029Y007985D02*
X019489Y007985D01*
X019489Y008104D02*
X020029Y008104D01*
X020029Y008222D02*
X019489Y008222D01*
X019489Y008341D02*
X020029Y008341D01*
X020029Y008459D02*
X019489Y008459D01*
X019489Y008578D02*
X020029Y008578D01*
X020029Y008696D02*
X019572Y008696D01*
X019690Y008815D02*
X020029Y008815D01*
X020029Y009171D02*
X019809Y009171D01*
X019801Y009289D02*
X020029Y009289D01*
X020029Y009408D02*
X019752Y009408D01*
X019672Y009526D02*
X020029Y009526D01*
X020029Y009645D02*
X019529Y009645D01*
X018989Y009645D02*
X015529Y009645D01*
X015570Y009627D02*
X015368Y009711D01*
X015149Y009711D01*
X014947Y009627D01*
X014793Y009473D01*
X014709Y009271D01*
X014717Y009289D02*
X012301Y009289D01*
X012252Y009408D02*
X014766Y009408D01*
X014846Y009526D02*
X012172Y009526D01*
X012029Y009645D02*
X014989Y009645D01*
X015570Y009627D02*
X015725Y009473D01*
X015809Y009271D01*
X015809Y009052D01*
X015809Y009171D02*
X018709Y009171D01*
X018717Y009289D02*
X015801Y009289D01*
X015752Y009408D02*
X018766Y009408D01*
X018846Y009526D02*
X015672Y009526D01*
X015760Y008933D02*
X018758Y008933D01*
X018793Y008850D02*
X018709Y009052D01*
X018793Y008850D02*
X018947Y008695D01*
X019029Y008661D01*
X018946Y008696D02*
X015572Y008696D01*
X015690Y008815D02*
X018827Y008815D01*
X019029Y008459D02*
X006479Y008459D01*
X006479Y008341D02*
X019029Y008341D01*
X019029Y008222D02*
X006479Y008222D01*
X006479Y008104D02*
X019029Y008104D01*
X019029Y007985D02*
X006479Y007985D01*
X006479Y007867D02*
X019029Y007867D01*
X019029Y007748D02*
X006479Y007748D01*
X006479Y007629D02*
X007510Y007629D01*
X007481Y007615D02*
X007414Y007565D01*
X007355Y007506D01*
X007306Y007439D01*
X007268Y007365D01*
X007242Y007285D01*
X007229Y007203D01*
X007229Y007201D01*
X007719Y007201D01*
X007719Y007691D01*
X007717Y007691D01*
X007635Y007678D01*
X007555Y007652D01*
X007481Y007615D01*
X007359Y007511D02*
X006479Y007511D01*
X006479Y007392D02*
X007282Y007392D01*
X007240Y007274D02*
X006479Y007274D01*
X006479Y007155D02*
X007719Y007155D01*
X007799Y007155D02*
X019029Y007155D01*
X019029Y007037D02*
X008276Y007037D01*
X008230Y006918D02*
X019029Y006918D01*
X019029Y006800D02*
X008147Y006800D01*
X007984Y006681D02*
X019029Y006681D01*
X019029Y006563D02*
X008107Y006563D01*
X008209Y006444D02*
X019029Y006444D01*
X019029Y006326D02*
X008263Y006326D01*
X008288Y006207D02*
X019029Y006207D01*
X019029Y006088D02*
X008284Y006088D01*
X008254Y005970D02*
X019029Y005970D01*
X019029Y005851D02*
X008189Y005851D01*
X008071Y005733D02*
X019029Y005733D01*
X019029Y005614D02*
X008084Y005614D01*
X008202Y005496D02*
X019029Y005496D01*
X019029Y005377D02*
X008265Y005377D01*
X008309Y005259D02*
X019029Y005259D01*
X019029Y005140D02*
X008309Y005140D01*
X008296Y005022D02*
X019029Y005022D01*
X019029Y004903D02*
X008247Y004903D01*
X008160Y004784D02*
X019029Y004784D01*
X019029Y004666D02*
X008000Y004666D01*
X008151Y004547D02*
X019029Y004547D01*
X019029Y004429D02*
X008243Y004429D01*
X008292Y004310D02*
X019029Y004310D01*
X019029Y004192D02*
X008309Y004192D01*
X008309Y004073D02*
X019029Y004073D01*
X019029Y003955D02*
X008269Y003955D01*
X008212Y003836D02*
X019029Y003836D01*
X019029Y003718D02*
X008093Y003718D01*
X008099Y003599D02*
X019029Y003599D01*
X019114Y003480D02*
X008217Y003480D01*
X008271Y003362D02*
X019233Y003362D01*
X019351Y003243D02*
X008309Y003243D01*
X008309Y003125D02*
X019470Y003125D01*
X019589Y003006D02*
X008290Y003006D01*
X007373Y002769D02*
X006479Y002769D01*
X006479Y002888D02*
X007277Y002888D01*
X007228Y003006D02*
X006479Y003006D01*
X006479Y003125D02*
X007209Y003125D01*
X007209Y003243D02*
X006479Y003243D01*
X006479Y003362D02*
X007247Y003362D01*
X007300Y003480D02*
X006479Y003480D01*
X006479Y003599D02*
X007419Y003599D01*
X007425Y003718D02*
X006479Y003718D01*
X006479Y003836D02*
X007306Y003836D01*
X007249Y003955D02*
X006479Y003955D01*
X006479Y004073D02*
X007209Y004073D01*
X007209Y004192D02*
X006479Y004192D01*
X006479Y004310D02*
X007225Y004310D01*
X007274Y004429D02*
X006479Y004429D01*
X006479Y004547D02*
X007367Y004547D01*
X007518Y004666D02*
X006479Y004666D01*
X006479Y004784D02*
X007358Y004784D01*
X007271Y004903D02*
X006479Y004903D01*
X006479Y005022D02*
X007221Y005022D01*
X007209Y005140D02*
X006479Y005140D01*
X006479Y005259D02*
X007209Y005259D01*
X007253Y005377D02*
X006479Y005377D01*
X006479Y005496D02*
X007316Y005496D01*
X007434Y005614D02*
X006479Y005614D01*
X006479Y005733D02*
X007447Y005733D01*
X007329Y005851D02*
X006479Y005851D01*
X006479Y005970D02*
X007264Y005970D01*
X007234Y006088D02*
X006479Y006088D01*
X006479Y006207D02*
X007230Y006207D01*
X007255Y006326D02*
X006479Y006326D01*
X006479Y006444D02*
X007309Y006444D01*
X007411Y006563D02*
X006479Y006563D01*
X006479Y006681D02*
X007534Y006681D01*
X007719Y006681D02*
X007799Y006681D01*
X007799Y006563D02*
X007719Y006563D01*
X007719Y006444D02*
X007799Y006444D01*
X007799Y006326D02*
X007719Y006326D01*
X007719Y006207D02*
X007799Y006207D01*
X007799Y006800D02*
X007719Y006800D01*
X007719Y006918D02*
X007799Y006918D01*
X007799Y007037D02*
X007719Y007037D01*
X007719Y007274D02*
X007799Y007274D01*
X007799Y007392D02*
X007719Y007392D01*
X007719Y007511D02*
X007799Y007511D01*
X007799Y007629D02*
X007719Y007629D01*
X008007Y007629D02*
X019029Y007629D01*
X019029Y007511D02*
X008159Y007511D01*
X008236Y007392D02*
X019029Y007392D01*
X019029Y007274D02*
X008278Y007274D01*
X007371Y006800D02*
X006479Y006800D01*
X006479Y006918D02*
X007288Y006918D01*
X007242Y007037D02*
X006479Y007037D01*
X006479Y008815D02*
X011327Y008815D01*
X011209Y009171D02*
X006479Y009171D01*
X006479Y009289D02*
X011217Y009289D01*
X011266Y009408D02*
X006479Y009408D01*
X006479Y009526D02*
X011346Y009526D01*
X011489Y009645D02*
X006479Y009645D01*
X006479Y009763D02*
X020029Y009763D01*
X020029Y009882D02*
X006479Y009882D01*
X006479Y010000D02*
X020029Y010000D01*
X020029Y010119D02*
X017387Y010119D01*
X017368Y010111D02*
X017570Y010195D01*
X017725Y010350D01*
X017769Y010455D01*
X017806Y010383D01*
X017855Y010316D01*
X017914Y010257D01*
X017981Y010208D01*
X018055Y010170D01*
X018135Y010144D01*
X018217Y010131D01*
X018239Y010131D01*
X018239Y010641D01*
X018279Y010641D01*
X018279Y010131D01*
X018301Y010131D01*
X018383Y010144D01*
X018462Y010170D01*
X018537Y010208D01*
X018604Y010257D01*
X018663Y010316D01*
X018712Y010383D01*
X018750Y010458D01*
X018776Y010537D01*
X018789Y010620D01*
X018789Y010641D01*
X018279Y010641D01*
X018279Y010681D01*
X018789Y010681D01*
X018789Y010703D01*
X018776Y010785D01*
X018750Y010865D01*
X018712Y010939D01*
X018663Y011006D01*
X018604Y011065D01*
X018537Y011115D01*
X018462Y011152D01*
X018383Y011178D01*
X018301Y011191D01*
X018279Y011191D01*
X018279Y010681D01*
X018239Y010681D01*
X018239Y011191D01*
X018217Y011191D01*
X018135Y011178D01*
X018055Y011152D01*
X017981Y011115D01*
X017914Y011065D01*
X017855Y011006D01*
X017806Y010939D01*
X017769Y010867D01*
X017725Y010973D01*
X017570Y011127D01*
X017368Y011211D01*
X017149Y011211D01*
X016947Y011127D01*
X016793Y010973D01*
X016709Y010771D01*
X016709Y010552D01*
X016793Y010350D01*
X016947Y010195D01*
X017149Y010111D01*
X017368Y010111D01*
X017131Y010119D02*
X013387Y010119D01*
X013368Y010111D02*
X013570Y010195D01*
X013725Y010350D01*
X013769Y010455D01*
X013806Y010383D01*
X013855Y010316D01*
X013914Y010257D01*
X013981Y010208D01*
X014055Y010170D01*
X014135Y010144D01*
X014217Y010131D01*
X014239Y010131D01*
X014239Y010641D01*
X014279Y010641D01*
X014279Y010131D01*
X014301Y010131D01*
X014383Y010144D01*
X014462Y010170D01*
X014537Y010208D01*
X014604Y010257D01*
X014663Y010316D01*
X014712Y010383D01*
X014750Y010458D01*
X014776Y010537D01*
X014789Y010620D01*
X014789Y010641D01*
X014279Y010641D01*
X014279Y010681D01*
X014789Y010681D01*
X014789Y010703D01*
X014776Y010785D01*
X014750Y010865D01*
X014712Y010939D01*
X014663Y011006D01*
X014604Y011065D01*
X014537Y011115D01*
X014462Y011152D01*
X014383Y011178D01*
X014301Y011191D01*
X014279Y011191D01*
X014279Y010681D01*
X014239Y010681D01*
X014239Y011191D01*
X014217Y011191D01*
X014135Y011178D01*
X014055Y011152D01*
X013981Y011115D01*
X013914Y011065D01*
X013855Y011006D01*
X013806Y010939D01*
X013769Y010867D01*
X013725Y010973D01*
X013570Y011127D01*
X013368Y011211D01*
X013149Y011211D01*
X012947Y011127D01*
X012793Y010973D01*
X012709Y010771D01*
X012709Y010552D01*
X012793Y010350D01*
X012947Y010195D01*
X013149Y010111D01*
X013368Y010111D01*
X013131Y010119D02*
X006479Y010119D01*
X006479Y010237D02*
X012905Y010237D01*
X012790Y010356D02*
X006479Y010356D01*
X006479Y010475D02*
X012741Y010475D01*
X012709Y010593D02*
X006479Y010593D01*
X006479Y010712D02*
X012709Y010712D01*
X012734Y010830D02*
X006479Y010830D01*
X006479Y010949D02*
X012783Y010949D01*
X012887Y011067D02*
X006479Y011067D01*
X006479Y011186D02*
X013088Y011186D01*
X013430Y011186D02*
X014183Y011186D01*
X014239Y011186D02*
X014279Y011186D01*
X014335Y011186D02*
X017088Y011186D01*
X016887Y011067D02*
X014602Y011067D01*
X014705Y010949D02*
X016783Y010949D01*
X016734Y010830D02*
X014761Y010830D01*
X014788Y010712D02*
X016709Y010712D01*
X016709Y010593D02*
X014785Y010593D01*
X014755Y010475D02*
X016741Y010475D01*
X016790Y010356D02*
X014692Y010356D01*
X014577Y010237D02*
X016905Y010237D01*
X017613Y010237D02*
X017941Y010237D01*
X017826Y010356D02*
X017728Y010356D01*
X018239Y010356D02*
X018279Y010356D01*
X018279Y010237D02*
X018239Y010237D01*
X018239Y010475D02*
X018279Y010475D01*
X018279Y010593D02*
X018239Y010593D01*
X018239Y010712D02*
X018279Y010712D01*
X018279Y010830D02*
X018239Y010830D01*
X018239Y010949D02*
X018279Y010949D01*
X018279Y011067D02*
X018239Y011067D01*
X018239Y011186D02*
X018279Y011186D01*
X018335Y011186D02*
X020029Y011186D01*
X020029Y011304D02*
X006479Y011304D01*
X006479Y011423D02*
X020029Y011423D01*
X020029Y011541D02*
X006479Y011541D01*
X006479Y011660D02*
X011532Y011660D01*
X011447Y011695D02*
X011649Y011611D01*
X011868Y011611D01*
X012070Y011695D01*
X012225Y011850D01*
X012309Y012052D01*
X012309Y012271D01*
X012225Y012473D01*
X012070Y012627D01*
X011868Y012711D01*
X011649Y012711D01*
X011447Y012627D01*
X011293Y012473D01*
X011209Y012271D01*
X011209Y012052D01*
X011293Y011850D01*
X011447Y011695D01*
X011364Y011779D02*
X006479Y011779D01*
X006479Y011897D02*
X011273Y011897D01*
X011224Y012016D02*
X006479Y012016D01*
X006479Y012134D02*
X011209Y012134D01*
X011209Y012253D02*
X006479Y012253D01*
X006479Y012371D02*
X011251Y012371D01*
X011310Y012490D02*
X006479Y012490D01*
X006479Y012608D02*
X011428Y012608D01*
X012090Y012608D02*
X014928Y012608D01*
X014917Y012631D02*
X014957Y012631D01*
X014947Y012627D01*
X014793Y012473D01*
X014709Y012271D01*
X014709Y012052D01*
X014793Y011850D01*
X014947Y011695D01*
X015149Y011611D01*
X015368Y011611D01*
X015570Y011695D01*
X015725Y011850D01*
X015809Y012052D01*
X015809Y012271D01*
X015725Y012473D01*
X015570Y012627D01*
X015561Y012631D01*
X015721Y012631D01*
X015811Y012669D01*
X015880Y012737D01*
X015917Y012827D01*
X015917Y012925D01*
X015880Y013015D01*
X015811Y013084D01*
X015794Y013091D01*
X015794Y013295D01*
X015794Y013295D01*
X015779Y013332D01*
X015757Y013385D01*
X015688Y013454D01*
X015598Y013492D01*
X015500Y013492D01*
X015464Y013476D01*
X015410Y013454D01*
X015341Y013385D01*
X015310Y013353D01*
X015296Y013385D01*
X015227Y013454D01*
X015137Y013492D01*
X015040Y013492D01*
X015004Y013476D01*
X014950Y013454D01*
X014881Y013385D01*
X014802Y013306D01*
X014801Y013306D01*
X014506Y013306D01*
X014499Y013324D01*
X014437Y013385D01*
X014433Y013390D01*
X014369Y013454D01*
X014369Y013454D01*
X014369Y013454D01*
X014352Y013461D01*
X014279Y013492D01*
X014279Y013492D01*
X014155Y013492D01*
X014057Y013492D01*
X013982Y013460D01*
X013968Y013454D01*
X013967Y013454D01*
X013901Y013388D01*
X013899Y013385D01*
X013837Y013324D01*
X013830Y013306D01*
X013586Y013306D01*
X013578Y013324D01*
X013577Y013325D01*
X013517Y013385D01*
X013517Y013385D01*
X013514Y013388D01*
X013448Y013454D01*
X013448Y013454D01*
X013433Y013460D01*
X013358Y013492D01*
X013260Y013492D01*
X013137Y013492D01*
X013063Y013461D01*
X013047Y013454D01*
X013047Y013454D01*
X013047Y013454D01*
X012982Y013390D01*
X012978Y013385D01*
X012916Y013324D01*
X012879Y013234D01*
X012879Y013136D01*
X012910Y013061D01*
X012879Y012987D01*
X012879Y012889D01*
X012916Y012799D01*
X013047Y012669D01*
X013137Y012631D01*
X013234Y012631D01*
X013358Y012631D01*
X013448Y012669D01*
X013517Y012737D01*
X013578Y012799D01*
X013586Y012816D01*
X013804Y012816D01*
X013837Y012737D01*
X013906Y012669D01*
X013996Y012631D01*
X014093Y012631D01*
X014340Y012631D01*
X014430Y012669D01*
X014499Y012737D01*
X014532Y012816D01*
X014725Y012816D01*
X014758Y012737D01*
X014827Y012669D01*
X014917Y012631D01*
X014768Y012727D02*
X014489Y012727D01*
X014810Y012490D02*
X012208Y012490D01*
X012267Y012371D02*
X014751Y012371D01*
X014709Y012253D02*
X012309Y012253D01*
X012309Y012134D02*
X014709Y012134D01*
X014724Y012016D02*
X012294Y012016D01*
X012245Y011897D02*
X014773Y011897D01*
X014864Y011779D02*
X012154Y011779D01*
X011986Y011660D02*
X015032Y011660D01*
X015486Y011660D02*
X019032Y011660D01*
X018947Y011695D02*
X019149Y011611D01*
X019368Y011611D01*
X019570Y011695D01*
X019725Y011850D01*
X019809Y012052D01*
X019809Y012271D01*
X019725Y012473D01*
X019570Y012627D01*
X019368Y012711D01*
X019149Y012711D01*
X018947Y012627D01*
X018793Y012473D01*
X018709Y012271D01*
X018709Y012052D01*
X018793Y011850D01*
X018947Y011695D01*
X018864Y011779D02*
X015654Y011779D01*
X015745Y011897D02*
X018773Y011897D01*
X018724Y012016D02*
X015794Y012016D01*
X015809Y012134D02*
X018709Y012134D01*
X018709Y012253D02*
X015809Y012253D01*
X015767Y012371D02*
X018751Y012371D01*
X018810Y012490D02*
X015708Y012490D01*
X015590Y012608D02*
X018928Y012608D01*
X019590Y012608D02*
X020029Y012608D01*
X020029Y012490D02*
X019708Y012490D01*
X019767Y012371D02*
X020029Y012371D01*
X020029Y012253D02*
X019809Y012253D01*
X019809Y012134D02*
X020029Y012134D01*
X020029Y012016D02*
X019794Y012016D01*
X019745Y011897D02*
X020029Y011897D01*
X020029Y011779D02*
X019654Y011779D01*
X019486Y011660D02*
X020029Y011660D01*
X020029Y011067D02*
X018602Y011067D01*
X018705Y010949D02*
X020029Y010949D01*
X020029Y010830D02*
X018761Y010830D01*
X018788Y010712D02*
X020029Y010712D01*
X020029Y010593D02*
X018785Y010593D01*
X018755Y010475D02*
X020029Y010475D01*
X020029Y010356D02*
X018692Y010356D01*
X018577Y010237D02*
X020029Y010237D01*
X021489Y010237D02*
X021632Y010237D01*
X021663Y010295D02*
X021678Y010284D01*
X021552Y010157D01*
X021489Y010006D01*
X021489Y011317D01*
X021552Y011165D01*
X021678Y011039D01*
X021663Y011027D01*
X021609Y010974D01*
X021565Y010913D01*
X021531Y010846D01*
X021507Y010774D01*
X021495Y010699D01*
X021495Y010670D01*
X021966Y010670D01*
X021966Y010652D01*
X021495Y010652D01*
X021495Y010623D01*
X021507Y010549D01*
X021531Y010477D01*
X021565Y010410D01*
X021609Y010349D01*
X021663Y010295D01*
X021604Y010356D02*
X021489Y010356D01*
X021489Y010475D02*
X021532Y010475D01*
X021500Y010593D02*
X021489Y010593D01*
X021489Y010712D02*
X021497Y010712D01*
X021489Y010830D02*
X021526Y010830D01*
X021489Y010949D02*
X021591Y010949D01*
X021650Y011067D02*
X021489Y011067D01*
X021489Y011186D02*
X021543Y011186D01*
X021494Y011304D02*
X021489Y011304D01*
X022408Y011186D02*
X028394Y011186D01*
X028220Y011304D02*
X022457Y011304D01*
X022475Y011423D02*
X028102Y011423D01*
X028035Y011541D02*
X022475Y011541D01*
X022415Y010119D02*
X028351Y010119D01*
X028203Y010000D02*
X022464Y010000D01*
X022475Y009882D02*
X028084Y009882D01*
X028028Y009763D02*
X022471Y009763D01*
X022422Y009645D02*
X027979Y009645D01*
X027949Y009526D02*
X022335Y009526D01*
X022156Y009408D02*
X025072Y009408D01*
X025055Y009402D02*
X024981Y009365D01*
X024914Y009315D01*
X024855Y009256D01*
X024806Y009189D01*
X024768Y009115D01*
X024742Y009035D01*
X024729Y008953D01*
X024729Y008950D01*
X025220Y008950D01*
X025220Y009441D01*
X025217Y009441D01*
X025135Y009428D01*
X025055Y009402D01*
X025220Y009408D02*
X025297Y009408D01*
X025297Y009289D02*
X025220Y009289D01*
X025220Y009171D02*
X025297Y009171D01*
X025297Y009052D02*
X025220Y009052D01*
X025220Y008933D02*
X021489Y008933D01*
X021489Y008815D02*
X024738Y008815D01*
X024774Y008696D02*
X021489Y008696D01*
X021489Y008578D02*
X024846Y008578D01*
X024979Y008459D02*
X021489Y008459D01*
X021489Y008341D02*
X024911Y008341D01*
X024792Y008222D02*
X021489Y008222D01*
X021489Y008104D02*
X021924Y008104D01*
X021805Y007985D02*
X021489Y007985D01*
X021489Y007867D02*
X021749Y007867D01*
X021709Y007748D02*
X021497Y007748D01*
X021616Y007629D02*
X021709Y007629D01*
X022594Y008104D02*
X024743Y008104D01*
X024709Y007985D02*
X022713Y007985D01*
X022769Y007867D02*
X024709Y007867D01*
X024731Y007748D02*
X022809Y007748D01*
X022809Y007629D02*
X024780Y007629D01*
X024881Y007511D02*
X022792Y007511D01*
X022743Y007392D02*
X024983Y007392D01*
X024844Y007274D02*
X023971Y007274D01*
X024090Y007155D02*
X024765Y007155D01*
X024716Y007037D02*
X024209Y007037D01*
X024327Y006918D02*
X024709Y006918D01*
X024710Y006800D02*
X024446Y006800D01*
X024564Y006681D02*
X024759Y006681D01*
X025759Y006681D02*
X025775Y006681D01*
X025808Y006800D02*
X025870Y006800D01*
X025809Y006918D02*
X026012Y006918D01*
X025856Y007037D02*
X025802Y007037D01*
X025770Y007155D02*
X025753Y007155D01*
X025720Y007274D02*
X025674Y007274D01*
X025709Y007392D02*
X025534Y007392D01*
X025636Y007511D02*
X025709Y007511D01*
X025737Y007629D02*
X025754Y007629D01*
X025787Y007748D02*
X025818Y007748D01*
X025809Y007867D02*
X025936Y007867D01*
X025944Y007985D02*
X025809Y007985D01*
X025827Y008104D02*
X025774Y008104D01*
X025763Y008222D02*
X025725Y008222D01*
X025733Y008341D02*
X025607Y008341D01*
X025538Y008459D02*
X025730Y008459D01*
X025729Y008453D02*
X025729Y008450D01*
X026220Y008450D01*
X026220Y008941D01*
X026217Y008941D01*
X026135Y008928D01*
X026055Y008902D01*
X025981Y008865D01*
X025914Y008815D01*
X025855Y008756D01*
X025806Y008689D01*
X025768Y008615D01*
X025742Y008535D01*
X025729Y008453D01*
X025756Y008578D02*
X025672Y008578D01*
X025744Y008696D02*
X025811Y008696D01*
X025780Y008815D02*
X025913Y008815D01*
X025770Y009052D02*
X028031Y009052D01*
X027982Y009171D02*
X025722Y009171D01*
X025631Y009289D02*
X027949Y009289D01*
X027949Y009408D02*
X025446Y009408D01*
X024887Y009289D02*
X021489Y009289D01*
X021489Y009171D02*
X024796Y009171D01*
X024747Y009052D02*
X021489Y009052D01*
X021489Y009408D02*
X021794Y009408D01*
X021616Y009526D02*
X021489Y009526D01*
X021489Y009645D02*
X021529Y009645D01*
X021536Y010119D02*
X021489Y010119D01*
X018183Y011186D02*
X017430Y011186D01*
X017631Y011067D02*
X017916Y011067D01*
X017813Y010949D02*
X017735Y010949D01*
X015870Y012727D02*
X020029Y012727D01*
X020029Y012845D02*
X015917Y012845D01*
X015901Y012964D02*
X020029Y012964D01*
X020029Y013082D02*
X015813Y013082D01*
X015794Y013201D02*
X020029Y013201D01*
X020029Y013320D02*
X015784Y013320D01*
X015704Y013438D02*
X020029Y013438D01*
X020029Y013557D02*
X006479Y013557D01*
X006479Y013675D02*
X020029Y013675D01*
X020029Y013794D02*
X006479Y013794D01*
X006479Y013912D02*
X020029Y013912D01*
X020029Y014031D02*
X006479Y014031D01*
X006479Y014149D02*
X020029Y014149D01*
X020029Y014268D02*
X006479Y014268D01*
X006479Y014386D02*
X020029Y014386D01*
X020029Y014505D02*
X006479Y014505D01*
X006479Y014624D02*
X020029Y014624D01*
X020029Y014742D02*
X006479Y014742D01*
X006479Y014861D02*
X020029Y014861D01*
X020029Y014979D02*
X006479Y014979D01*
X006479Y015098D02*
X020029Y015098D01*
X020029Y015216D02*
X006479Y015216D01*
X006479Y015335D02*
X020029Y015335D01*
X020029Y015453D02*
X006479Y015453D01*
X006479Y015572D02*
X020029Y015572D01*
X020029Y015690D02*
X006479Y015690D01*
X006479Y015809D02*
X020029Y015809D01*
X020029Y015928D02*
X006479Y015928D01*
X006479Y016046D02*
X020029Y016046D01*
X020029Y016165D02*
X006479Y016165D01*
X006479Y016283D02*
X020029Y016283D01*
X020029Y016402D02*
X006479Y016402D01*
X006479Y016520D02*
X020029Y016520D01*
X020029Y016639D02*
X006479Y016639D01*
X006479Y016757D02*
X020029Y016757D01*
X020029Y016876D02*
X006479Y016876D01*
X006479Y016994D02*
X020029Y016994D01*
X019982Y017113D02*
X006479Y017113D01*
X006479Y017231D02*
X019863Y017231D01*
X019745Y017350D02*
X006479Y017350D01*
X006479Y017469D02*
X019626Y017469D01*
X019508Y017587D02*
X006479Y017587D01*
X006479Y017706D02*
X019389Y017706D01*
X019271Y017824D02*
X006479Y017824D01*
X006479Y017943D02*
X019152Y017943D01*
X019034Y018061D02*
X006479Y018061D01*
X006479Y018180D02*
X018915Y018180D01*
X018796Y018298D02*
X006479Y018298D01*
X006479Y018417D02*
X018678Y018417D01*
X018559Y018535D02*
X006479Y018535D01*
X006479Y018654D02*
X018441Y018654D01*
X018322Y018773D02*
X006479Y018773D01*
X006479Y018891D02*
X018204Y018891D01*
X018085Y019010D02*
X006479Y019010D01*
X006479Y019128D02*
X018029Y019128D01*
X018029Y019247D02*
X008962Y019247D01*
X008759Y019206D02*
X008759Y019206D01*
X008555Y019247D02*
X006479Y019247D01*
X006479Y019365D02*
X008264Y019365D01*
X008087Y019484D02*
X006479Y019484D01*
X006479Y019602D02*
X008006Y019602D01*
X008084Y019486D02*
X008084Y019486D01*
X008084Y019486D01*
X007927Y019721D02*
X006479Y019721D01*
X006479Y019839D02*
X007868Y019839D01*
X007844Y019958D02*
X006479Y019958D01*
X006485Y020077D02*
X007821Y020077D01*
X007804Y020161D02*
X007804Y020161D01*
X007811Y020195D02*
X006604Y020195D01*
X006722Y020314D02*
X007834Y020314D01*
X007858Y020432D02*
X006841Y020432D01*
X006959Y020551D02*
X007893Y020551D01*
X007972Y020669D02*
X007078Y020669D01*
X007197Y020788D02*
X008051Y020788D01*
X008188Y020906D02*
X007315Y020906D01*
X009330Y020906D02*
X028703Y020906D01*
X028821Y020788D02*
X009467Y020788D01*
X009434Y020837D02*
X009434Y020837D01*
X009546Y020669D02*
X012048Y020669D01*
X011871Y020551D02*
X009625Y020551D01*
X009641Y020527D02*
X009641Y020527D01*
X009660Y020432D02*
X011776Y020432D01*
X011727Y020314D02*
X009684Y020314D01*
X009707Y020195D02*
X011709Y020195D01*
X011709Y020077D02*
X009697Y020077D01*
X009673Y019958D02*
X011748Y019958D01*
X011803Y019839D02*
X009650Y019839D01*
X009641Y019796D02*
X009641Y019796D01*
X009591Y019721D02*
X011921Y019721D01*
X012596Y019721D02*
X012963Y019721D01*
X012838Y019839D02*
X012715Y019839D01*
X013219Y019839D02*
X013299Y019839D01*
X013299Y019721D02*
X013219Y019721D01*
X013219Y019958D02*
X013299Y019958D01*
X013299Y020077D02*
X013219Y020077D01*
X013219Y020314D02*
X013299Y020314D01*
X013299Y020432D02*
X013219Y020432D01*
X013219Y020551D02*
X013299Y020551D01*
X013299Y020669D02*
X013219Y020669D01*
X013107Y020669D02*
X012470Y020669D01*
X012647Y020551D02*
X012899Y020551D01*
X012802Y020432D02*
X012742Y020432D01*
X013411Y020669D02*
X014048Y020669D01*
X013871Y020551D02*
X013619Y020551D01*
X013716Y020432D02*
X013776Y020432D01*
X014470Y020669D02*
X015048Y020669D01*
X014871Y020551D02*
X014647Y020551D01*
X014742Y020432D02*
X014776Y020432D01*
X015470Y020669D02*
X016048Y020669D01*
X015871Y020551D02*
X015647Y020551D01*
X015742Y020432D02*
X015776Y020432D01*
X016470Y020669D02*
X017048Y020669D01*
X016871Y020551D02*
X016647Y020551D01*
X016742Y020432D02*
X016776Y020432D01*
X017470Y020669D02*
X018048Y020669D01*
X017871Y020551D02*
X017647Y020551D01*
X017742Y020432D02*
X017776Y020432D01*
X018470Y020669D02*
X019048Y020669D01*
X018871Y020551D02*
X018647Y020551D01*
X018742Y020432D02*
X018776Y020432D01*
X017921Y019721D02*
X017596Y019721D01*
X017715Y019839D02*
X017803Y019839D01*
X018029Y019602D02*
X009512Y019602D01*
X009434Y019486D02*
X009434Y019486D01*
X009431Y019484D02*
X018029Y019484D01*
X018029Y019365D02*
X009254Y019365D01*
X013554Y019721D02*
X013921Y019721D01*
X013803Y019839D02*
X013680Y019839D01*
X014596Y019721D02*
X014921Y019721D01*
X014803Y019839D02*
X014715Y019839D01*
X015596Y019721D02*
X015921Y019721D01*
X015803Y019839D02*
X015715Y019839D01*
X016596Y019721D02*
X016921Y019721D01*
X016803Y019839D02*
X016715Y019839D01*
X019710Y018535D02*
X020122Y018535D01*
X019952Y018417D02*
X019828Y018417D01*
X022989Y019010D02*
X023060Y019010D01*
X023096Y019721D02*
X023421Y019721D01*
X023303Y019839D02*
X023215Y019839D01*
X024096Y019721D02*
X024421Y019721D01*
X024303Y019839D02*
X024215Y019839D01*
X025096Y019721D02*
X025421Y019721D01*
X025303Y019839D02*
X025215Y019839D01*
X026096Y019721D02*
X026421Y019721D01*
X026303Y019839D02*
X026215Y019839D01*
X027096Y019721D02*
X027421Y019721D01*
X027303Y019839D02*
X027215Y019839D01*
X027529Y015928D02*
X026385Y015928D01*
X026297Y015928D02*
X026220Y015928D01*
X026133Y015928D02*
X025298Y015928D01*
X026220Y015809D02*
X026297Y015809D01*
X026297Y015690D02*
X026220Y015690D01*
X026220Y015572D02*
X026297Y015572D01*
X026297Y015453D02*
X026220Y015453D01*
X026611Y015809D02*
X027529Y015809D01*
X028091Y008933D02*
X026350Y008933D01*
X026297Y008933D02*
X026220Y008933D01*
X026168Y008933D02*
X025298Y008933D01*
X026220Y008815D02*
X026297Y008815D01*
X026297Y008696D02*
X026220Y008696D01*
X026220Y008578D02*
X026297Y008578D01*
X026297Y008459D02*
X026220Y008459D01*
X026605Y008815D02*
X028210Y008815D01*
X028368Y008696D02*
X026707Y008696D01*
X029178Y005614D02*
X029539Y005614D01*
X029539Y005496D02*
X029320Y005496D01*
X029438Y005377D02*
X029539Y005377D01*
X029539Y005259D02*
X029492Y005259D01*
X025773Y004903D02*
X022754Y004903D01*
X024444Y005022D02*
X025709Y005022D01*
X025709Y005140D02*
X024563Y005140D01*
X026207Y002888D02*
X022760Y002888D01*
X022809Y002769D02*
X026326Y002769D01*
X026444Y002651D02*
X022809Y002651D01*
X022801Y002532D02*
X026529Y002532D01*
X026529Y002414D02*
X022752Y002414D01*
X022670Y002295D02*
X026529Y002295D01*
X026529Y002176D02*
X022526Y002176D01*
X022628Y001702D02*
X020890Y001702D01*
X021114Y001584D02*
X022404Y001584D01*
X022290Y001465D02*
X021228Y001465D01*
X021277Y001347D02*
X022240Y001347D01*
X022209Y001228D02*
X021309Y001228D01*
X021309Y001110D02*
X022209Y001110D01*
X022234Y000991D02*
X021284Y000991D01*
X021235Y000873D02*
X022283Y000873D01*
X022388Y000754D02*
X021129Y000754D01*
X020927Y000635D02*
X022591Y000635D01*
X022927Y000635D02*
X023591Y000635D01*
X023388Y000754D02*
X023129Y000754D01*
X023235Y000873D02*
X023283Y000873D01*
X023290Y001465D02*
X023228Y001465D01*
X023114Y001584D02*
X023404Y001584D01*
X023628Y001702D02*
X022890Y001702D01*
X023890Y001702D02*
X024628Y001702D01*
X024404Y001584D02*
X024114Y001584D01*
X024228Y001465D02*
X024290Y001465D01*
X024283Y000873D02*
X024235Y000873D01*
X024129Y000754D02*
X024388Y000754D01*
X024591Y000635D02*
X023927Y000635D01*
X024927Y000635D02*
X025591Y000635D01*
X025388Y000754D02*
X025129Y000754D01*
X025235Y000873D02*
X025283Y000873D01*
X025290Y001465D02*
X025228Y001465D01*
X025114Y001584D02*
X025404Y001584D01*
X025628Y001702D02*
X024890Y001702D01*
X026129Y000754D02*
X026388Y000754D01*
X026283Y000873D02*
X026235Y000873D01*
X025927Y000635D02*
X026591Y000635D01*
X029326Y002414D02*
X029539Y002414D01*
X029539Y002532D02*
X029465Y002532D01*
X020628Y001702D02*
X017890Y001702D01*
X018114Y001584D02*
X018439Y001584D01*
X018325Y001465D02*
X018228Y001465D01*
X017628Y001702D02*
X016890Y001702D01*
X017114Y001584D02*
X017404Y001584D01*
X017290Y001465D02*
X017228Y001465D01*
X017235Y000873D02*
X017283Y000873D01*
X017388Y000754D02*
X017129Y000754D01*
X016927Y000635D02*
X017591Y000635D01*
X017927Y000635D02*
X018691Y000635D01*
X018719Y000635D02*
X018799Y000635D01*
X018827Y000635D02*
X019691Y000635D01*
X019719Y000635D02*
X019799Y000635D01*
X019827Y000635D02*
X020591Y000635D01*
X020388Y000754D02*
X020100Y000754D01*
X020204Y000873D02*
X020283Y000873D01*
X019799Y000873D02*
X019719Y000873D01*
X019719Y000991D02*
X019799Y000991D01*
X019799Y001110D02*
X019719Y001110D01*
X019719Y001228D02*
X019799Y001228D01*
X019799Y001347D02*
X019719Y001347D01*
X019719Y001465D02*
X019799Y001465D01*
X019799Y001584D02*
X019719Y001584D01*
X019439Y001584D02*
X019079Y001584D01*
X019193Y001465D02*
X019325Y001465D01*
X019262Y001347D02*
X019256Y001347D01*
X018799Y001347D02*
X018719Y001347D01*
X018719Y001465D02*
X018799Y001465D01*
X018799Y001584D02*
X018719Y001584D01*
X018719Y001228D02*
X018799Y001228D01*
X018799Y001110D02*
X018719Y001110D01*
X018719Y000991D02*
X018799Y000991D01*
X018799Y000873D02*
X018719Y000873D01*
X018719Y000754D02*
X018799Y000754D01*
X019100Y000754D02*
X019418Y000754D01*
X019314Y000873D02*
X019204Y000873D01*
X019719Y000754D02*
X019799Y000754D01*
X020193Y001465D02*
X020290Y001465D01*
X020404Y001584D02*
X020079Y001584D01*
X018418Y000754D02*
X018129Y000754D01*
X018235Y000873D02*
X018314Y000873D01*
X014279Y010237D02*
X014239Y010237D01*
X014239Y010356D02*
X014279Y010356D01*
X014279Y010475D02*
X014239Y010475D01*
X014239Y010593D02*
X014279Y010593D01*
X014279Y010712D02*
X014239Y010712D01*
X014239Y010830D02*
X014279Y010830D01*
X014279Y010949D02*
X014239Y010949D01*
X014239Y011067D02*
X014279Y011067D01*
X013916Y011067D02*
X013631Y011067D01*
X013735Y010949D02*
X013813Y010949D01*
X013826Y010356D02*
X013728Y010356D01*
X013613Y010237D02*
X013941Y010237D01*
X013848Y012727D02*
X013506Y012727D01*
X012989Y012727D02*
X006479Y012727D01*
X006479Y012845D02*
X012897Y012845D01*
X012879Y012964D02*
X006479Y012964D01*
X006479Y013082D02*
X012901Y013082D01*
X012879Y013201D02*
X006479Y013201D01*
X006479Y013320D02*
X012915Y013320D01*
X012978Y013385D02*
X012978Y013385D01*
X013031Y013438D02*
X006479Y013438D01*
X013137Y013492D02*
X013137Y013492D01*
X013448Y013454D02*
X013448Y013454D01*
X013464Y013438D02*
X013951Y013438D01*
X013968Y013454D02*
X013968Y013454D01*
X013835Y013320D02*
X013580Y013320D01*
X013578Y013324D02*
X013578Y013324D01*
X014385Y013438D02*
X014934Y013438D01*
X014881Y013385D02*
X014881Y013385D01*
X014815Y013320D02*
X014501Y013320D01*
X015040Y013492D02*
X015040Y013492D01*
X015244Y013438D02*
X015394Y013438D01*
X015341Y013385D02*
X015341Y013385D01*
X015500Y013492D02*
X015500Y013492D01*
D17*
X020259Y017161D02*
X018259Y019161D01*
X018259Y020161D01*
X019259Y020161D02*
X019259Y018661D01*
X020759Y017161D01*
X020759Y006661D01*
X021259Y006161D01*
X025009Y006161D01*
X025259Y005911D01*
X024509Y006411D02*
X023759Y007161D01*
X021759Y007161D01*
X021259Y007661D01*
X021259Y017161D01*
X020259Y018161D01*
X020259Y017161D02*
X020259Y006161D01*
X021259Y005161D01*
X024259Y005161D01*
X024509Y005411D01*
X026259Y005411D01*
X026259Y006411D02*
X024509Y006411D01*
X026259Y003161D02*
X019759Y003161D01*
X019259Y003661D01*
X019259Y009161D01*
X021975Y011449D02*
X021975Y017945D01*
X020759Y019161D01*
X020759Y020161D01*
X022759Y020161D02*
X022759Y013161D01*
X023509Y012411D01*
X026259Y012411D01*
X025259Y012911D02*
X027509Y012911D01*
X027759Y013161D01*
X027759Y020161D01*
X023259Y018661D02*
X023259Y013661D01*
X023509Y013411D01*
X026259Y013411D01*
X026259Y003161D02*
X026759Y002661D01*
X026759Y001161D01*
D18*
X020259Y018161D03*
X023259Y018661D03*
M02*
