G75*
G70*
%OFA0B0*%
%FSLAX24Y24*%
%IPPOS*%
%LPD*%
%AMOC8*
5,1,8,0,0,1.08239X$1,22.5*
%
%ADD10C,0.0740*%
%ADD11R,0.0740X0.0740*%
%ADD12C,0.0640*%
%ADD13C,0.0120*%
%ADD14C,0.0100*%
%ADD15C,0.0500*%
%ADD16C,0.0436*%
D10*
X007759Y003161D03*
X007759Y004161D03*
X007759Y005161D03*
X007759Y006161D03*
X007759Y007161D03*
X011759Y009161D03*
X013259Y010661D03*
X014259Y010661D03*
X015259Y009161D03*
X017259Y010661D03*
X018259Y010661D03*
X019259Y009161D03*
X022259Y007661D03*
X022259Y006661D03*
X022259Y005661D03*
X022259Y004661D03*
X022259Y003661D03*
X022259Y002661D03*
X022759Y001161D03*
X023759Y001161D03*
X024759Y001161D03*
X025759Y001161D03*
X026759Y001161D03*
X027759Y001161D03*
X020759Y001161D03*
X019759Y001161D03*
X018759Y001161D03*
X017759Y001161D03*
X016759Y001161D03*
X015759Y001161D03*
X025259Y005911D03*
X026259Y006411D03*
X025259Y006911D03*
X026259Y007411D03*
X025259Y007911D03*
X026259Y008411D03*
X025259Y008911D03*
X025259Y012911D03*
X026259Y013411D03*
X025259Y013911D03*
X026259Y014411D03*
X025259Y014911D03*
X026259Y015411D03*
X025259Y015911D03*
X019259Y012161D03*
X015259Y012161D03*
X011759Y012161D03*
X012259Y020161D03*
X013259Y020161D03*
X014259Y020161D03*
X015259Y020161D03*
X016259Y020161D03*
X017259Y020161D03*
X018259Y020161D03*
X019259Y020161D03*
X020759Y020161D03*
X021759Y020161D03*
X022759Y020161D03*
X023759Y020161D03*
X024759Y020161D03*
X025759Y020161D03*
X026759Y020161D03*
X027759Y020161D03*
D11*
X026259Y012411D03*
X026259Y005411D03*
D12*
X021975Y009874D03*
X021975Y010661D03*
X021975Y011449D03*
D13*
X006479Y020070D02*
X006479Y001252D01*
X007350Y000381D01*
X028668Y000381D01*
X029539Y001252D01*
X029539Y002643D01*
X029434Y002486D01*
X029434Y002486D01*
X029124Y002279D01*
X029124Y002279D01*
X028759Y002206D01*
X028759Y002206D01*
X028393Y002279D01*
X028393Y002279D01*
X028084Y002486D01*
X028084Y002486D01*
X028084Y002486D01*
X027877Y002796D01*
X027877Y002796D01*
X027804Y003161D01*
X027804Y003161D01*
X027877Y003527D01*
X027877Y003527D01*
X028084Y003836D01*
X028083Y003836D02*
X024189Y003836D01*
X024189Y003718D02*
X028004Y003718D01*
X028084Y003836D02*
X028084Y003837D01*
X028084Y003837D01*
X028393Y004044D01*
X028393Y004044D01*
X028684Y004101D01*
X028598Y004101D01*
X028300Y004225D01*
X028072Y004452D01*
X027949Y004750D01*
X027949Y005072D01*
X028072Y005370D01*
X028300Y005598D01*
X028598Y005721D01*
X028920Y005721D01*
X029218Y005598D01*
X029445Y005370D01*
X029539Y005144D01*
X029539Y009178D01*
X029445Y008952D01*
X029218Y008725D01*
X028920Y008601D01*
X028598Y008601D01*
X028300Y008725D01*
X028072Y008952D01*
X027949Y009250D01*
X027949Y009572D01*
X028072Y009870D01*
X028300Y010098D01*
X028598Y010221D01*
X028920Y010221D01*
X029218Y010098D01*
X029445Y009870D01*
X029539Y009644D01*
X029539Y011678D01*
X029445Y011452D01*
X029218Y011225D01*
X028920Y011101D01*
X028598Y011101D01*
X028300Y011225D01*
X028072Y011452D01*
X027949Y011750D01*
X027949Y012072D01*
X028072Y012370D01*
X028300Y012598D01*
X028598Y012721D01*
X028920Y012721D01*
X029218Y012598D01*
X029445Y012370D01*
X029539Y012144D01*
X029539Y016178D01*
X029445Y015952D01*
X029218Y015725D01*
X028920Y015601D01*
X028598Y015601D01*
X028300Y015725D01*
X028072Y015952D01*
X027949Y016250D01*
X027949Y016572D01*
X028072Y016870D01*
X028300Y017098D01*
X028598Y017221D01*
X028920Y017221D01*
X029218Y017098D01*
X029445Y016870D01*
X029539Y016644D01*
X029539Y020070D01*
X028668Y020941D01*
X009277Y020941D01*
X009434Y020837D01*
X009434Y020837D01*
X009434Y020836D01*
X009641Y020527D01*
X009641Y020527D01*
X009714Y020161D01*
X009641Y019796D01*
X009641Y019796D01*
X009434Y019486D01*
X009434Y019486D01*
X009124Y019279D01*
X009124Y019279D01*
X008759Y019206D01*
X008759Y019206D01*
X008393Y019279D01*
X008393Y019279D01*
X008084Y019486D01*
X008084Y019486D01*
X008084Y019486D01*
X007877Y019796D01*
X007804Y020161D01*
X007877Y020527D01*
X008084Y020836D01*
X008084Y020837D01*
X008240Y020941D01*
X007350Y020941D01*
X006479Y020070D01*
X006485Y020077D02*
X007821Y020077D01*
X007811Y020195D02*
X006604Y020195D01*
X006722Y020314D02*
X007834Y020314D01*
X007858Y020432D02*
X006841Y020432D01*
X006959Y020551D02*
X007893Y020551D01*
X007972Y020669D02*
X007078Y020669D01*
X007197Y020788D02*
X008051Y020788D01*
X008188Y020906D02*
X007315Y020906D01*
X007844Y019958D02*
X006479Y019958D01*
X006479Y019839D02*
X007868Y019839D01*
X007927Y019721D02*
X006479Y019721D01*
X006479Y019602D02*
X008006Y019602D01*
X008087Y019484D02*
X006479Y019484D01*
X006479Y019365D02*
X008264Y019365D01*
X008555Y019247D02*
X006479Y019247D01*
X006479Y019128D02*
X015029Y019128D01*
X015029Y019010D02*
X006479Y019010D01*
X006479Y018891D02*
X015029Y018891D01*
X015029Y018773D02*
X006479Y018773D01*
X006479Y018654D02*
X015029Y018654D01*
X015029Y018535D02*
X006479Y018535D01*
X006479Y018417D02*
X015029Y018417D01*
X015029Y018298D02*
X006479Y018298D01*
X006479Y018180D02*
X015029Y018180D01*
X015029Y018061D02*
X006479Y018061D01*
X006479Y017943D02*
X015029Y017943D01*
X015029Y017824D02*
X006479Y017824D01*
X006479Y017706D02*
X015029Y017706D01*
X015029Y017587D02*
X006479Y017587D01*
X006479Y017469D02*
X015029Y017469D01*
X015029Y017350D02*
X006479Y017350D01*
X006479Y017231D02*
X015029Y017231D01*
X015029Y017113D02*
X006479Y017113D01*
X006479Y016994D02*
X015029Y016994D01*
X015029Y016876D02*
X006479Y016876D01*
X006479Y016757D02*
X015029Y016757D01*
X015029Y016639D02*
X006479Y016639D01*
X006479Y016520D02*
X015029Y016520D01*
X015029Y016402D02*
X006479Y016402D01*
X006479Y016283D02*
X015029Y016283D01*
X015029Y016165D02*
X006479Y016165D01*
X006479Y016046D02*
X015029Y016046D01*
X015029Y015928D02*
X006479Y015928D01*
X006479Y015809D02*
X015029Y015809D01*
X015029Y015756D02*
X011950Y012677D01*
X011868Y012711D01*
X011649Y012711D01*
X011447Y012627D01*
X011293Y012473D01*
X011209Y012271D01*
X011209Y012052D01*
X011293Y011850D01*
X011447Y011695D01*
X011649Y011611D01*
X011868Y011611D01*
X012070Y011695D01*
X012225Y011850D01*
X012309Y012052D01*
X012309Y012271D01*
X012275Y012352D01*
X015354Y015431D01*
X015489Y015566D01*
X015489Y019661D01*
X015570Y019695D01*
X015725Y019850D01*
X015759Y019931D01*
X015793Y019850D01*
X015947Y019695D01*
X016029Y019661D01*
X016029Y015256D01*
X010664Y009891D01*
X010529Y009756D01*
X010529Y006256D01*
X009664Y005391D01*
X008259Y005391D01*
X008225Y005473D01*
X008070Y005627D01*
X007965Y005671D01*
X008037Y005708D01*
X008104Y005757D01*
X008163Y005816D01*
X008212Y005883D01*
X008250Y005958D01*
X008276Y006037D01*
X008289Y006120D01*
X008289Y006121D01*
X007799Y006121D01*
X007799Y006201D01*
X008289Y006201D01*
X008289Y006203D01*
X008276Y006285D01*
X008250Y006365D01*
X008212Y006439D01*
X008163Y006506D01*
X008104Y006565D01*
X008037Y006615D01*
X007962Y006652D01*
X007935Y006661D01*
X007962Y006670D01*
X008037Y006708D01*
X008104Y006757D01*
X008163Y006816D01*
X008212Y006883D01*
X008250Y006958D01*
X008276Y007037D01*
X008289Y007120D01*
X008289Y007121D01*
X007799Y007121D01*
X007799Y006631D01*
X007799Y006201D01*
X007719Y006201D01*
X007719Y006121D01*
X007229Y006121D01*
X007229Y006120D01*
X007242Y006037D01*
X007268Y005958D01*
X007306Y005883D01*
X007355Y005816D01*
X007414Y005757D01*
X007481Y005708D01*
X007553Y005671D01*
X007447Y005627D01*
X007293Y005473D01*
X007209Y005271D01*
X007209Y005052D01*
X007293Y004850D01*
X007447Y004695D01*
X007529Y004661D01*
X007447Y004627D01*
X007293Y004473D01*
X007209Y004271D01*
X007209Y004052D01*
X007293Y003850D01*
X007447Y003695D01*
X007529Y003661D01*
X007447Y003627D01*
X007293Y003473D01*
X007209Y003271D01*
X007209Y003052D01*
X007293Y002850D01*
X007447Y002695D01*
X007649Y002611D01*
X007868Y002611D01*
X008070Y002695D01*
X008225Y002850D01*
X008259Y002931D01*
X016164Y002931D01*
X016529Y002566D01*
X016529Y001661D01*
X016447Y001627D01*
X016293Y001473D01*
X016259Y001391D01*
X016225Y001473D01*
X016070Y001627D01*
X015868Y001711D01*
X015649Y001711D01*
X015447Y001627D01*
X015293Y001473D01*
X015209Y001271D01*
X015209Y001052D01*
X015293Y000850D01*
X015447Y000695D01*
X015649Y000611D01*
X015868Y000611D01*
X016070Y000695D01*
X016225Y000850D01*
X016259Y000931D01*
X016293Y000850D01*
X016447Y000695D01*
X016649Y000611D01*
X016868Y000611D01*
X017070Y000695D01*
X017225Y000850D01*
X017259Y000931D01*
X017293Y000850D01*
X017447Y000695D01*
X017649Y000611D01*
X017868Y000611D01*
X018070Y000695D01*
X018225Y000850D01*
X018269Y000955D01*
X018306Y000883D01*
X018355Y000816D01*
X018414Y000757D01*
X018481Y000708D01*
X018555Y000670D01*
X018635Y000644D01*
X018717Y000631D01*
X018719Y000631D01*
X018719Y001121D01*
X018799Y001121D01*
X018799Y000631D01*
X018801Y000631D01*
X018883Y000644D01*
X018962Y000670D01*
X019037Y000708D01*
X019104Y000757D01*
X019163Y000816D01*
X019212Y000883D01*
X019250Y000958D01*
X019259Y000985D01*
X019268Y000958D01*
X019306Y000883D01*
X019355Y000816D01*
X019414Y000757D01*
X019481Y000708D01*
X019555Y000670D01*
X019635Y000644D01*
X019717Y000631D01*
X019719Y000631D01*
X019719Y001121D01*
X019799Y001121D01*
X019799Y000631D01*
X019801Y000631D01*
X019883Y000644D01*
X019962Y000670D01*
X020037Y000708D01*
X020104Y000757D01*
X020163Y000816D01*
X020212Y000883D01*
X020249Y000955D01*
X020293Y000850D01*
X020447Y000695D01*
X020649Y000611D01*
X020868Y000611D01*
X021070Y000695D01*
X021107Y000731D01*
X021673Y000731D01*
X021844Y000731D01*
X022002Y000797D01*
X022223Y001017D01*
X022293Y000850D01*
X022447Y000695D01*
X022649Y000611D01*
X022868Y000611D01*
X023070Y000695D01*
X023225Y000850D01*
X023259Y000931D01*
X023293Y000850D01*
X023447Y000695D01*
X023649Y000611D01*
X023868Y000611D01*
X024070Y000695D01*
X024225Y000850D01*
X024259Y000931D01*
X024293Y000850D01*
X024447Y000695D01*
X024649Y000611D01*
X024868Y000611D01*
X025070Y000695D01*
X025225Y000850D01*
X025259Y000931D01*
X025293Y000850D01*
X025447Y000695D01*
X025649Y000611D01*
X025868Y000611D01*
X026070Y000695D01*
X026225Y000850D01*
X026259Y000931D01*
X026293Y000850D01*
X026447Y000695D01*
X026649Y000611D01*
X026868Y000611D01*
X027070Y000695D01*
X027225Y000850D01*
X027259Y000931D01*
X027293Y000850D01*
X027447Y000695D01*
X027649Y000611D01*
X027868Y000611D01*
X028070Y000695D01*
X028225Y000850D01*
X028309Y001052D01*
X028309Y001271D01*
X028225Y001473D01*
X028070Y001627D01*
X027868Y001711D01*
X027649Y001711D01*
X027447Y001627D01*
X027293Y001473D01*
X027259Y001391D01*
X027225Y001473D01*
X027070Y001627D01*
X026868Y001711D01*
X026649Y001711D01*
X026447Y001627D01*
X026293Y001473D01*
X026259Y001391D01*
X026225Y001473D01*
X026070Y001627D01*
X025868Y001711D01*
X025649Y001711D01*
X025447Y001627D01*
X025293Y001473D01*
X025259Y001391D01*
X025225Y001473D01*
X025070Y001627D01*
X024868Y001711D01*
X024649Y001711D01*
X024447Y001627D01*
X024293Y001473D01*
X024259Y001391D01*
X024225Y001473D01*
X024070Y001627D01*
X023868Y001711D01*
X023649Y001711D01*
X023447Y001627D01*
X023293Y001473D01*
X023259Y001391D01*
X023225Y001473D01*
X023070Y001627D01*
X022903Y001697D01*
X024002Y002797D01*
X024123Y002918D01*
X024189Y003076D01*
X024189Y007481D01*
X024911Y007481D01*
X024947Y007445D01*
X025029Y007411D01*
X024947Y007377D01*
X024793Y007223D01*
X024709Y007021D01*
X024709Y006802D01*
X024793Y006600D01*
X024947Y006445D01*
X025029Y006411D01*
X024947Y006377D01*
X024793Y006223D01*
X024709Y006021D01*
X024709Y005802D01*
X024793Y005600D01*
X024947Y005445D01*
X025149Y005361D01*
X025368Y005361D01*
X025570Y005445D01*
X025709Y005584D01*
X025709Y004967D01*
X025814Y004861D01*
X026703Y004861D01*
X026809Y004967D01*
X026809Y005856D01*
X026703Y005961D01*
X026587Y005961D01*
X026725Y006100D01*
X026809Y006302D01*
X026809Y006521D01*
X026725Y006723D01*
X026570Y006877D01*
X026489Y006911D01*
X026570Y006945D01*
X026725Y007100D01*
X026809Y007302D01*
X026809Y007521D01*
X026725Y007723D01*
X026570Y007877D01*
X026465Y007921D01*
X026537Y007958D01*
X026604Y008007D01*
X026663Y008066D01*
X026712Y008133D01*
X026750Y008208D01*
X026776Y008287D01*
X026789Y008370D01*
X026789Y008373D01*
X026298Y008373D01*
X026298Y008450D01*
X026789Y008450D01*
X026789Y008453D01*
X026776Y008535D01*
X026750Y008615D01*
X026712Y008689D01*
X026663Y008756D01*
X026604Y008815D01*
X026537Y008865D01*
X026462Y008902D01*
X026383Y008928D01*
X026301Y008941D01*
X026297Y008941D01*
X026297Y008450D01*
X026220Y008450D01*
X026220Y008373D01*
X025729Y008373D01*
X025729Y008370D01*
X025742Y008287D01*
X025745Y008279D01*
X025615Y008333D01*
X025570Y008377D01*
X025465Y008421D01*
X025537Y008458D01*
X025604Y008507D01*
X025663Y008566D01*
X025712Y008633D01*
X025750Y008708D01*
X025776Y008787D01*
X025789Y008870D01*
X025789Y008873D01*
X025298Y008873D01*
X025298Y008950D01*
X025789Y008950D01*
X025789Y008953D01*
X025776Y009035D01*
X025750Y009115D01*
X025712Y009189D01*
X025663Y009256D01*
X025604Y009315D01*
X025537Y009365D01*
X025462Y009402D01*
X025383Y009428D01*
X025301Y009441D01*
X025297Y009441D01*
X025297Y008950D01*
X025220Y008950D01*
X025220Y008873D01*
X024729Y008873D01*
X024729Y008870D01*
X024742Y008787D01*
X024768Y008708D01*
X024806Y008633D01*
X024855Y008566D01*
X024914Y008507D01*
X024981Y008458D01*
X025053Y008421D01*
X024947Y008377D01*
X024911Y008341D01*
X024189Y008341D01*
X024189Y014481D01*
X024911Y014481D01*
X024947Y014445D01*
X025029Y014411D01*
X024947Y014377D01*
X024793Y014223D01*
X024709Y014021D01*
X024709Y013802D01*
X024793Y013600D01*
X024947Y013445D01*
X025029Y013411D01*
X024947Y013377D01*
X024793Y013223D01*
X024709Y013021D01*
X024709Y012802D01*
X024793Y012600D01*
X024947Y012445D01*
X025149Y012361D01*
X025368Y012361D01*
X025570Y012445D01*
X025709Y012584D01*
X025709Y011967D01*
X025814Y011861D01*
X026703Y011861D01*
X026809Y011967D01*
X026809Y012856D01*
X026703Y012961D01*
X026587Y012961D01*
X026725Y013100D01*
X026809Y013302D01*
X026809Y013521D01*
X026725Y013723D01*
X026570Y013877D01*
X026489Y013911D01*
X026570Y013945D01*
X026725Y014100D01*
X026809Y014302D01*
X026809Y014521D01*
X026725Y014723D01*
X026570Y014877D01*
X026465Y014921D01*
X026537Y014958D01*
X026604Y015007D01*
X026663Y015066D01*
X026712Y015133D01*
X026750Y015208D01*
X026776Y015287D01*
X026789Y015370D01*
X026789Y015373D01*
X026298Y015373D01*
X026298Y015450D01*
X026789Y015450D01*
X026789Y015453D01*
X026776Y015535D01*
X026750Y015615D01*
X026712Y015689D01*
X026663Y015756D01*
X026604Y015815D01*
X026537Y015865D01*
X026462Y015902D01*
X026383Y015928D01*
X026301Y015941D01*
X026297Y015941D01*
X026297Y015450D01*
X026220Y015450D01*
X026220Y015373D01*
X025729Y015373D01*
X025729Y015370D01*
X025742Y015287D01*
X025745Y015279D01*
X025615Y015333D01*
X025570Y015377D01*
X025465Y015421D01*
X025537Y015458D01*
X025604Y015507D01*
X025663Y015566D01*
X025712Y015633D01*
X025750Y015708D01*
X025776Y015787D01*
X025789Y015870D01*
X025789Y015873D01*
X025298Y015873D01*
X025298Y015950D01*
X025789Y015950D01*
X025789Y015953D01*
X025776Y016035D01*
X025750Y016115D01*
X025712Y016189D01*
X025663Y016256D01*
X025604Y016315D01*
X025537Y016365D01*
X025462Y016402D01*
X025383Y016428D01*
X025301Y016441D01*
X025297Y016441D01*
X025297Y015950D01*
X025220Y015950D01*
X025220Y015873D01*
X024729Y015873D01*
X024729Y015870D01*
X024742Y015787D01*
X024768Y015708D01*
X024806Y015633D01*
X024855Y015566D01*
X024914Y015507D01*
X024981Y015458D01*
X025053Y015421D01*
X024947Y015377D01*
X024911Y015341D01*
X024094Y015341D01*
X023923Y015341D01*
X023765Y015276D01*
X023515Y015026D01*
X023489Y014999D01*
X023489Y016066D01*
X026854Y019431D01*
X026989Y019566D01*
X026989Y019661D01*
X027070Y019695D01*
X027225Y019850D01*
X027259Y019931D01*
X027293Y019850D01*
X027447Y019695D01*
X027649Y019611D01*
X027868Y019611D01*
X028070Y019695D01*
X028225Y019850D01*
X028309Y020052D01*
X028309Y020271D01*
X028225Y020473D01*
X028070Y020627D01*
X027868Y020711D01*
X027649Y020711D01*
X027447Y020627D01*
X027293Y020473D01*
X027259Y020391D01*
X027225Y020473D01*
X027070Y020627D01*
X026868Y020711D01*
X026649Y020711D01*
X026447Y020627D01*
X026293Y020473D01*
X026259Y020391D01*
X026225Y020473D01*
X026070Y020627D01*
X025868Y020711D01*
X025649Y020711D01*
X025447Y020627D01*
X025293Y020473D01*
X025259Y020391D01*
X025225Y020473D01*
X025070Y020627D01*
X024868Y020711D01*
X024649Y020711D01*
X024447Y020627D01*
X024293Y020473D01*
X024259Y020391D01*
X024225Y020473D01*
X024070Y020627D01*
X023868Y020711D01*
X023649Y020711D01*
X023447Y020627D01*
X023293Y020473D01*
X023259Y020391D01*
X023225Y020473D01*
X023070Y020627D01*
X022868Y020711D01*
X022649Y020711D01*
X022447Y020627D01*
X022293Y020473D01*
X022259Y020391D01*
X022225Y020473D01*
X022070Y020627D01*
X021868Y020711D01*
X021649Y020711D01*
X021447Y020627D01*
X021293Y020473D01*
X021259Y020391D01*
X021225Y020473D01*
X021070Y020627D01*
X020868Y020711D01*
X020649Y020711D01*
X020447Y020627D01*
X020293Y020473D01*
X020209Y020271D01*
X020209Y020052D01*
X020293Y019850D01*
X020447Y019695D01*
X020649Y019611D01*
X020868Y019611D01*
X021070Y019695D01*
X021225Y019850D01*
X021259Y019931D01*
X021293Y019850D01*
X021447Y019695D01*
X021529Y019661D01*
X021529Y019066D01*
X021664Y018931D01*
X022164Y018431D01*
X022354Y018431D01*
X022926Y018431D01*
X023033Y018324D01*
X023180Y018263D01*
X023338Y018263D01*
X023484Y018324D01*
X023596Y018436D01*
X023657Y018582D01*
X023657Y018740D01*
X023596Y018887D01*
X023484Y018999D01*
X023338Y019059D01*
X023180Y019059D01*
X023033Y018999D01*
X022926Y018891D01*
X022354Y018891D01*
X021989Y019256D01*
X021989Y019661D01*
X022070Y019695D01*
X022225Y019850D01*
X022259Y019931D01*
X022293Y019850D01*
X022447Y019695D01*
X022649Y019611D01*
X022868Y019611D01*
X023070Y019695D01*
X023225Y019850D01*
X023259Y019931D01*
X023293Y019850D01*
X023447Y019695D01*
X023649Y019611D01*
X023868Y019611D01*
X024070Y019695D01*
X024225Y019850D01*
X024259Y019931D01*
X024293Y019850D01*
X024447Y019695D01*
X024649Y019611D01*
X024868Y019611D01*
X025070Y019695D01*
X025225Y019850D01*
X025259Y019931D01*
X025293Y019850D01*
X025447Y019695D01*
X025649Y019611D01*
X025868Y019611D01*
X026070Y019695D01*
X026225Y019850D01*
X026259Y019931D01*
X026293Y019850D01*
X026447Y019695D01*
X026462Y019689D01*
X023029Y016256D01*
X023029Y016066D01*
X023029Y007256D01*
X022731Y006959D01*
X022725Y006973D01*
X022570Y007127D01*
X022489Y007161D01*
X022570Y007195D01*
X022725Y007350D01*
X022809Y007552D01*
X022809Y007771D01*
X022725Y007973D01*
X022570Y008127D01*
X022368Y008211D01*
X022149Y008211D01*
X021947Y008127D01*
X021793Y007973D01*
X021709Y007771D01*
X021709Y007552D01*
X021793Y007350D01*
X021947Y007195D01*
X022029Y007161D01*
X021947Y007127D01*
X021793Y006973D01*
X021709Y006771D01*
X021709Y006552D01*
X021793Y006350D01*
X021947Y006195D01*
X022029Y006161D01*
X021947Y006127D01*
X021793Y005973D01*
X021709Y005771D01*
X021709Y005552D01*
X021793Y005350D01*
X021947Y005195D01*
X022029Y005161D01*
X021947Y005127D01*
X021793Y004973D01*
X021759Y004891D01*
X017989Y004891D01*
X017989Y009066D01*
X017989Y009256D01*
X017989Y009566D01*
X018067Y009644D01*
X018987Y009644D01*
X018947Y009627D01*
X018793Y009473D01*
X018709Y009271D01*
X018709Y009052D01*
X017989Y009052D01*
X017989Y008933D02*
X018758Y008933D01*
X018793Y008850D02*
X018709Y009052D01*
X018709Y009171D02*
X017989Y009171D01*
X017989Y009289D02*
X018717Y009289D01*
X018766Y009408D02*
X017989Y009408D01*
X017989Y009526D02*
X018846Y009526D01*
X019531Y009644D02*
X021529Y009644D01*
X021552Y009591D01*
X021692Y009450D01*
X021876Y009374D01*
X022075Y009374D01*
X022259Y009450D01*
X022399Y009591D01*
X022475Y009774D01*
X022475Y009973D01*
X022399Y010157D01*
X022273Y010284D01*
X022288Y010295D01*
X022342Y010349D01*
X022386Y010410D01*
X022420Y010477D01*
X022444Y010549D01*
X022455Y010623D01*
X022455Y010652D01*
X021985Y010652D01*
X021985Y010670D01*
X022455Y010670D01*
X022455Y010699D01*
X022444Y010774D01*
X022420Y010846D01*
X022386Y010913D01*
X022342Y010974D01*
X022288Y011027D01*
X022273Y011039D01*
X022399Y011165D01*
X022475Y011349D01*
X022475Y011548D01*
X022399Y011732D01*
X022259Y011873D01*
X022075Y011949D01*
X021876Y011949D01*
X021692Y011873D01*
X021552Y011732D01*
X021475Y011548D01*
X021475Y011349D01*
X021552Y011165D01*
X021678Y011039D01*
X021663Y011027D01*
X021609Y010974D01*
X021565Y010913D01*
X021531Y010846D01*
X021507Y010774D01*
X021495Y010699D01*
X021495Y010670D01*
X021966Y010670D01*
X021966Y010652D01*
X021495Y010652D01*
X021495Y010623D01*
X021507Y010549D01*
X021531Y010477D01*
X021565Y010410D01*
X021609Y010349D01*
X021663Y010295D01*
X021678Y010284D01*
X021552Y010157D01*
X021529Y010104D01*
X018067Y010104D01*
X017876Y010104D01*
X017664Y009891D01*
X017529Y009756D01*
X017529Y009391D01*
X015759Y009391D01*
X015725Y009473D01*
X015570Y009627D01*
X015368Y009711D01*
X015149Y009711D01*
X014947Y009627D01*
X014793Y009473D01*
X014709Y009271D01*
X014709Y009052D01*
X012309Y009052D01*
X012225Y008850D01*
X012070Y008695D01*
X011989Y008661D01*
X011989Y006066D01*
X011854Y005931D01*
X009854Y003931D01*
X009664Y003931D01*
X008259Y003931D01*
X008225Y003850D01*
X008070Y003695D01*
X007989Y003661D01*
X008070Y003627D01*
X008225Y003473D01*
X008259Y003391D01*
X016164Y003391D01*
X016354Y003391D01*
X016989Y002756D01*
X016989Y002566D01*
X016989Y001661D01*
X017070Y001627D01*
X017225Y001473D01*
X017259Y001391D01*
X017293Y001473D01*
X017447Y001627D01*
X017529Y001661D01*
X017529Y004566D01*
X017529Y004756D01*
X017529Y008931D01*
X015759Y008931D01*
X015725Y008850D01*
X015570Y008695D01*
X015368Y008611D01*
X015149Y008611D01*
X014947Y008695D01*
X014793Y008850D01*
X014709Y009052D01*
X014709Y009171D02*
X012309Y009171D01*
X012309Y009271D02*
X012225Y009473D01*
X012070Y009627D01*
X011868Y009711D01*
X011649Y009711D01*
X011447Y009627D01*
X011293Y009473D01*
X011209Y009271D01*
X011209Y009052D01*
X010989Y009052D01*
X010989Y008933D02*
X011258Y008933D01*
X011293Y008850D02*
X011209Y009052D01*
X011209Y009171D02*
X010989Y009171D01*
X010989Y009289D02*
X011217Y009289D01*
X011266Y009408D02*
X010989Y009408D01*
X010989Y009526D02*
X011346Y009526D01*
X011489Y009645D02*
X011068Y009645D01*
X010989Y009566D02*
X013029Y011606D01*
X013029Y011566D01*
X013029Y011161D01*
X012947Y011127D01*
X012793Y010973D01*
X012709Y010771D01*
X012709Y010552D01*
X012793Y010350D01*
X012947Y010195D01*
X013149Y010111D01*
X013368Y010111D01*
X013570Y010195D01*
X013725Y010350D01*
X013769Y010455D01*
X013806Y010383D01*
X013855Y010316D01*
X013914Y010257D01*
X013981Y010208D01*
X014055Y010170D01*
X014135Y010144D01*
X014217Y010131D01*
X014239Y010131D01*
X014239Y010641D01*
X014279Y010641D01*
X014279Y010131D01*
X014301Y010131D01*
X014383Y010144D01*
X014462Y010170D01*
X014537Y010208D01*
X014604Y010257D01*
X014663Y010316D01*
X014712Y010383D01*
X014750Y010458D01*
X014776Y010537D01*
X014789Y010620D01*
X014789Y010641D01*
X014279Y010641D01*
X014279Y010681D01*
X014789Y010681D01*
X014789Y010703D01*
X014776Y010785D01*
X014750Y010865D01*
X014712Y010939D01*
X014663Y011006D01*
X014604Y011065D01*
X014537Y011115D01*
X014462Y011152D01*
X014383Y011178D01*
X014301Y011191D01*
X014279Y011191D01*
X014279Y010681D01*
X014239Y010681D01*
X014239Y011191D01*
X014217Y011191D01*
X014135Y011178D01*
X014055Y011152D01*
X013981Y011115D01*
X013914Y011065D01*
X013855Y011006D01*
X013806Y010939D01*
X013769Y010867D01*
X013725Y010973D01*
X013570Y011127D01*
X013489Y011161D01*
X013489Y011566D01*
X013854Y011931D01*
X014759Y011931D01*
X014793Y011850D01*
X014947Y011695D01*
X015149Y011611D01*
X015368Y011611D01*
X015570Y011695D01*
X015725Y011850D01*
X015809Y012052D01*
X015809Y012271D01*
X015725Y012473D01*
X015570Y012627D01*
X015368Y012711D01*
X015149Y012711D01*
X014947Y012627D01*
X014793Y012473D01*
X014759Y012391D01*
X013814Y012391D01*
X016489Y015066D01*
X016489Y015256D01*
X016489Y019661D01*
X016570Y019695D01*
X016725Y019850D01*
X016759Y019931D01*
X016793Y019850D01*
X016947Y019695D01*
X017029Y019661D01*
X017029Y018566D01*
X017164Y018431D01*
X017664Y017931D01*
X017854Y017931D01*
X019926Y017931D01*
X020033Y017824D01*
X016489Y017824D01*
X016489Y017706D02*
X024478Y017706D01*
X024597Y017824D02*
X020485Y017824D01*
X020484Y017824D02*
X020596Y017936D01*
X020657Y018082D01*
X020657Y018240D01*
X020596Y018387D01*
X020484Y018499D01*
X020338Y018559D01*
X020180Y018559D01*
X020033Y018499D01*
X019926Y018391D01*
X017854Y018391D01*
X017489Y018756D01*
X017489Y019661D01*
X017570Y019695D01*
X017725Y019850D01*
X017759Y019931D01*
X017793Y019850D01*
X017947Y019695D01*
X018149Y019611D01*
X018368Y019611D01*
X018570Y019695D01*
X018725Y019850D01*
X018759Y019931D01*
X018793Y019850D01*
X018947Y019695D01*
X019149Y019611D01*
X019368Y019611D01*
X019570Y019695D01*
X019725Y019850D01*
X019809Y020052D01*
X019809Y020271D01*
X019725Y020473D01*
X019570Y020627D01*
X019368Y020711D01*
X019149Y020711D01*
X018947Y020627D01*
X018793Y020473D01*
X018759Y020391D01*
X018725Y020473D01*
X018570Y020627D01*
X018368Y020711D01*
X018149Y020711D01*
X017947Y020627D01*
X017793Y020473D01*
X017759Y020391D01*
X017725Y020473D01*
X017570Y020627D01*
X017368Y020711D01*
X017149Y020711D01*
X016947Y020627D01*
X016793Y020473D01*
X016759Y020391D01*
X016725Y020473D01*
X016570Y020627D01*
X016368Y020711D01*
X016149Y020711D01*
X015947Y020627D01*
X015793Y020473D01*
X015759Y020391D01*
X015725Y020473D01*
X015570Y020627D01*
X015368Y020711D01*
X015149Y020711D01*
X014947Y020627D01*
X014793Y020473D01*
X014759Y020391D01*
X014725Y020473D01*
X014570Y020627D01*
X014368Y020711D01*
X014149Y020711D01*
X013947Y020627D01*
X013793Y020473D01*
X013749Y020367D01*
X013712Y020439D01*
X013663Y020506D01*
X013604Y020565D01*
X013537Y020615D01*
X013462Y020652D01*
X013383Y020678D01*
X013301Y020691D01*
X013299Y020691D01*
X013299Y020201D01*
X013219Y020201D01*
X013219Y020691D01*
X013217Y020691D01*
X013135Y020678D01*
X013055Y020652D01*
X012981Y020615D01*
X012914Y020565D01*
X012855Y020506D01*
X012806Y020439D01*
X012769Y020367D01*
X012725Y020473D01*
X012570Y020627D01*
X012368Y020711D01*
X012149Y020711D01*
X011947Y020627D01*
X011793Y020473D01*
X011709Y020271D01*
X011709Y020052D01*
X011793Y019850D01*
X011947Y019695D01*
X012149Y019611D01*
X012368Y019611D01*
X012570Y019695D01*
X012725Y019850D01*
X012769Y019955D01*
X012806Y019883D01*
X012855Y019816D01*
X012914Y019757D01*
X012981Y019708D01*
X013055Y019670D01*
X013135Y019644D01*
X013217Y019631D01*
X013219Y019631D01*
X013219Y020121D01*
X013299Y020121D01*
X013299Y019631D01*
X013301Y019631D01*
X013383Y019644D01*
X013462Y019670D01*
X013537Y019708D01*
X013604Y019757D01*
X013663Y019816D01*
X013712Y019883D01*
X013749Y019955D01*
X013793Y019850D01*
X013947Y019695D01*
X014149Y019611D01*
X014368Y019611D01*
X014570Y019695D01*
X014725Y019850D01*
X014759Y019931D01*
X014793Y019850D01*
X014947Y019695D01*
X015029Y019661D01*
X015029Y015756D01*
X014963Y015690D02*
X006479Y015690D01*
X006479Y015572D02*
X014844Y015572D01*
X014726Y015453D02*
X006479Y015453D01*
X006479Y015335D02*
X014607Y015335D01*
X014489Y015216D02*
X006479Y015216D01*
X006479Y015098D02*
X014370Y015098D01*
X014252Y014979D02*
X006479Y014979D01*
X006479Y014861D02*
X014133Y014861D01*
X014015Y014742D02*
X006479Y014742D01*
X006479Y014624D02*
X013896Y014624D01*
X013777Y014505D02*
X006479Y014505D01*
X006479Y014386D02*
X013659Y014386D01*
X013540Y014268D02*
X006479Y014268D01*
X006479Y014149D02*
X013422Y014149D01*
X013303Y014031D02*
X006479Y014031D01*
X006479Y013912D02*
X013185Y013912D01*
X013066Y013794D02*
X006479Y013794D01*
X006479Y013675D02*
X012948Y013675D01*
X012829Y013557D02*
X006479Y013557D01*
X006479Y013438D02*
X012711Y013438D01*
X012592Y013320D02*
X006479Y013320D01*
X006479Y013201D02*
X012473Y013201D01*
X012355Y013082D02*
X006479Y013082D01*
X006479Y012964D02*
X012236Y012964D01*
X012118Y012845D02*
X006479Y012845D01*
X006479Y012727D02*
X011999Y012727D01*
X012294Y012371D02*
X013144Y012371D01*
X013262Y012490D02*
X012413Y012490D01*
X012531Y012608D02*
X013381Y012608D01*
X013499Y012727D02*
X012650Y012727D01*
X012768Y012845D02*
X013618Y012845D01*
X013736Y012964D02*
X012887Y012964D01*
X013005Y013082D02*
X013855Y013082D01*
X013973Y013201D02*
X013124Y013201D01*
X013242Y013320D02*
X014092Y013320D01*
X014211Y013438D02*
X013361Y013438D01*
X013479Y013557D02*
X014329Y013557D01*
X014448Y013675D02*
X013598Y013675D01*
X013717Y013794D02*
X014566Y013794D01*
X014685Y013912D02*
X013835Y013912D01*
X013954Y014031D02*
X014803Y014031D01*
X014922Y014149D02*
X014072Y014149D01*
X014191Y014268D02*
X015040Y014268D01*
X015159Y014386D02*
X014309Y014386D01*
X014428Y014505D02*
X015277Y014505D01*
X015396Y014624D02*
X014546Y014624D01*
X014665Y014742D02*
X015514Y014742D01*
X015633Y014861D02*
X014783Y014861D01*
X014902Y014979D02*
X015752Y014979D01*
X015870Y015098D02*
X015021Y015098D01*
X015139Y015216D02*
X015989Y015216D01*
X016029Y015335D02*
X015258Y015335D01*
X015376Y015453D02*
X016029Y015453D01*
X016029Y015572D02*
X015489Y015572D01*
X015489Y015690D02*
X016029Y015690D01*
X016029Y015809D02*
X015489Y015809D01*
X015489Y015928D02*
X016029Y015928D01*
X016029Y016046D02*
X015489Y016046D01*
X015489Y016165D02*
X016029Y016165D01*
X016029Y016283D02*
X015489Y016283D01*
X015489Y016402D02*
X016029Y016402D01*
X016029Y016520D02*
X015489Y016520D01*
X015489Y016639D02*
X016029Y016639D01*
X016029Y016757D02*
X015489Y016757D01*
X015489Y016876D02*
X016029Y016876D01*
X016029Y016994D02*
X015489Y016994D01*
X015489Y017113D02*
X016029Y017113D01*
X016029Y017231D02*
X015489Y017231D01*
X015489Y017350D02*
X016029Y017350D01*
X016029Y017469D02*
X015489Y017469D01*
X015489Y017587D02*
X016029Y017587D01*
X016029Y017706D02*
X015489Y017706D01*
X015489Y017824D02*
X016029Y017824D01*
X016029Y017943D02*
X015489Y017943D01*
X015489Y018061D02*
X016029Y018061D01*
X016029Y018180D02*
X015489Y018180D01*
X015489Y018298D02*
X016029Y018298D01*
X016029Y018417D02*
X015489Y018417D01*
X015489Y018535D02*
X016029Y018535D01*
X016029Y018654D02*
X015489Y018654D01*
X015489Y018773D02*
X016029Y018773D01*
X016029Y018891D02*
X015489Y018891D01*
X015489Y019010D02*
X016029Y019010D01*
X016029Y019128D02*
X015489Y019128D01*
X015489Y019247D02*
X016029Y019247D01*
X016029Y019365D02*
X015489Y019365D01*
X015489Y019484D02*
X016029Y019484D01*
X016029Y019602D02*
X015489Y019602D01*
X015596Y019721D02*
X015921Y019721D01*
X015803Y019839D02*
X015715Y019839D01*
X015029Y019602D02*
X009512Y019602D01*
X009434Y019486D02*
X009434Y019486D01*
X009431Y019484D02*
X015029Y019484D01*
X015029Y019365D02*
X009254Y019365D01*
X008962Y019247D02*
X015029Y019247D01*
X014921Y019721D02*
X014596Y019721D01*
X014715Y019839D02*
X014803Y019839D01*
X014776Y020432D02*
X014742Y020432D01*
X014647Y020551D02*
X014871Y020551D01*
X015048Y020669D02*
X014470Y020669D01*
X014048Y020669D02*
X013411Y020669D01*
X013299Y020669D02*
X013219Y020669D01*
X013107Y020669D02*
X012470Y020669D01*
X012647Y020551D02*
X012899Y020551D01*
X012802Y020432D02*
X012742Y020432D01*
X013219Y020432D02*
X013299Y020432D01*
X013299Y020314D02*
X013219Y020314D01*
X013219Y020551D02*
X013299Y020551D01*
X013619Y020551D02*
X013871Y020551D01*
X013776Y020432D02*
X013716Y020432D01*
X013299Y020077D02*
X013219Y020077D01*
X013219Y019958D02*
X013299Y019958D01*
X013299Y019839D02*
X013219Y019839D01*
X013219Y019721D02*
X013299Y019721D01*
X013554Y019721D02*
X013921Y019721D01*
X013803Y019839D02*
X013680Y019839D01*
X012963Y019721D02*
X012596Y019721D01*
X012715Y019839D02*
X012838Y019839D01*
X011921Y019721D02*
X009591Y019721D01*
X009650Y019839D02*
X011803Y019839D01*
X011748Y019958D02*
X009673Y019958D01*
X009697Y020077D02*
X011709Y020077D01*
X011709Y020195D02*
X009707Y020195D01*
X009684Y020314D02*
X011727Y020314D01*
X011776Y020432D02*
X009660Y020432D01*
X009625Y020551D02*
X011871Y020551D01*
X012048Y020669D02*
X009546Y020669D01*
X009467Y020788D02*
X028821Y020788D01*
X028703Y020906D02*
X009330Y020906D01*
X015470Y020669D02*
X016048Y020669D01*
X015871Y020551D02*
X015647Y020551D01*
X015742Y020432D02*
X015776Y020432D01*
X016470Y020669D02*
X017048Y020669D01*
X016871Y020551D02*
X016647Y020551D01*
X016742Y020432D02*
X016776Y020432D01*
X017470Y020669D02*
X018048Y020669D01*
X017871Y020551D02*
X017647Y020551D01*
X017742Y020432D02*
X017776Y020432D01*
X018470Y020669D02*
X019048Y020669D01*
X018871Y020551D02*
X018647Y020551D01*
X018742Y020432D02*
X018776Y020432D01*
X019470Y020669D02*
X020548Y020669D01*
X020371Y020551D02*
X019647Y020551D01*
X019742Y020432D02*
X020276Y020432D01*
X020227Y020314D02*
X019791Y020314D01*
X019809Y020195D02*
X020209Y020195D01*
X020209Y020077D02*
X019809Y020077D01*
X019770Y019958D02*
X020248Y019958D01*
X020303Y019839D02*
X019715Y019839D01*
X019596Y019721D02*
X020421Y019721D01*
X021096Y019721D02*
X021421Y019721D01*
X021529Y019602D02*
X017489Y019602D01*
X017489Y019484D02*
X021529Y019484D01*
X021529Y019365D02*
X017489Y019365D01*
X017489Y019247D02*
X021529Y019247D01*
X021529Y019128D02*
X017489Y019128D01*
X017489Y019010D02*
X021585Y019010D01*
X021704Y018891D02*
X017489Y018891D01*
X017489Y018773D02*
X021822Y018773D01*
X021941Y018654D02*
X017591Y018654D01*
X017710Y018535D02*
X020122Y018535D01*
X019952Y018417D02*
X017828Y018417D01*
X017534Y018061D02*
X016489Y018061D01*
X016489Y017943D02*
X017652Y017943D01*
X017415Y018180D02*
X016489Y018180D01*
X016489Y018298D02*
X017296Y018298D01*
X017178Y018417D02*
X016489Y018417D01*
X016489Y018535D02*
X017059Y018535D01*
X017029Y018654D02*
X016489Y018654D01*
X016489Y018773D02*
X017029Y018773D01*
X017029Y018891D02*
X016489Y018891D01*
X016489Y019010D02*
X017029Y019010D01*
X017029Y019128D02*
X016489Y019128D01*
X016489Y019247D02*
X017029Y019247D01*
X017029Y019365D02*
X016489Y019365D01*
X016489Y019484D02*
X017029Y019484D01*
X017029Y019602D02*
X016489Y019602D01*
X016596Y019721D02*
X016921Y019721D01*
X016803Y019839D02*
X016715Y019839D01*
X017596Y019721D02*
X017921Y019721D01*
X017803Y019839D02*
X017715Y019839D01*
X018596Y019721D02*
X018921Y019721D01*
X018803Y019839D02*
X018715Y019839D01*
X020396Y018535D02*
X022059Y018535D01*
X022236Y019010D02*
X023060Y019010D01*
X023458Y019010D02*
X025782Y019010D01*
X025901Y019128D02*
X022117Y019128D01*
X021999Y019247D02*
X026019Y019247D01*
X026138Y019365D02*
X021989Y019365D01*
X021989Y019484D02*
X026256Y019484D01*
X026375Y019602D02*
X021989Y019602D01*
X022096Y019721D02*
X022421Y019721D01*
X022303Y019839D02*
X022215Y019839D01*
X022242Y020432D02*
X022276Y020432D01*
X022371Y020551D02*
X022147Y020551D01*
X021970Y020669D02*
X022548Y020669D01*
X022970Y020669D02*
X023548Y020669D01*
X023371Y020551D02*
X023147Y020551D01*
X023242Y020432D02*
X023276Y020432D01*
X023970Y020669D02*
X024548Y020669D01*
X024371Y020551D02*
X024147Y020551D01*
X024242Y020432D02*
X024276Y020432D01*
X024970Y020669D02*
X025548Y020669D01*
X025371Y020551D02*
X025147Y020551D01*
X025242Y020432D02*
X025276Y020432D01*
X025970Y020669D02*
X026548Y020669D01*
X026371Y020551D02*
X026147Y020551D01*
X026242Y020432D02*
X026276Y020432D01*
X026970Y020669D02*
X027548Y020669D01*
X027371Y020551D02*
X027147Y020551D01*
X027242Y020432D02*
X027276Y020432D01*
X027970Y020669D02*
X028940Y020669D01*
X029058Y020551D02*
X028147Y020551D01*
X028242Y020432D02*
X029177Y020432D01*
X029295Y020314D02*
X028291Y020314D01*
X028309Y020195D02*
X029414Y020195D01*
X029532Y020077D02*
X028309Y020077D01*
X028270Y019958D02*
X029539Y019958D01*
X029539Y019839D02*
X028215Y019839D01*
X028096Y019721D02*
X029539Y019721D01*
X029539Y019602D02*
X026989Y019602D01*
X026907Y019484D02*
X029539Y019484D01*
X029539Y019365D02*
X026788Y019365D01*
X026670Y019247D02*
X029539Y019247D01*
X029539Y019128D02*
X026551Y019128D01*
X026433Y019010D02*
X029539Y019010D01*
X029539Y018891D02*
X026314Y018891D01*
X026195Y018773D02*
X029539Y018773D01*
X029539Y018654D02*
X026077Y018654D01*
X025958Y018535D02*
X029539Y018535D01*
X029539Y018417D02*
X025840Y018417D01*
X025721Y018298D02*
X029539Y018298D01*
X029539Y018180D02*
X025603Y018180D01*
X025484Y018061D02*
X029539Y018061D01*
X029539Y017943D02*
X025366Y017943D01*
X025247Y017824D02*
X029539Y017824D01*
X029539Y017706D02*
X025129Y017706D01*
X025010Y017587D02*
X029539Y017587D01*
X029539Y017469D02*
X024891Y017469D01*
X024773Y017350D02*
X029539Y017350D01*
X029539Y017231D02*
X024654Y017231D01*
X024536Y017113D02*
X028337Y017113D01*
X028197Y016994D02*
X024417Y016994D01*
X024299Y016876D02*
X028078Y016876D01*
X028026Y016757D02*
X024180Y016757D01*
X024062Y016639D02*
X027976Y016639D01*
X027949Y016520D02*
X023943Y016520D01*
X023825Y016402D02*
X025054Y016402D01*
X025055Y016402D02*
X024981Y016365D01*
X024914Y016315D01*
X024855Y016256D01*
X024806Y016189D01*
X024768Y016115D01*
X024742Y016035D01*
X024729Y015953D01*
X024729Y015950D01*
X025220Y015950D01*
X025220Y016441D01*
X025217Y016441D01*
X025135Y016428D01*
X025055Y016402D01*
X025220Y016402D02*
X025297Y016402D01*
X025297Y016283D02*
X025220Y016283D01*
X025220Y016165D02*
X025297Y016165D01*
X025297Y016046D02*
X025220Y016046D01*
X025220Y015928D02*
X023489Y015928D01*
X023489Y016046D02*
X024745Y016046D01*
X024793Y016165D02*
X023587Y016165D01*
X023706Y016283D02*
X024881Y016283D01*
X025464Y016402D02*
X027949Y016402D01*
X027949Y016283D02*
X025636Y016283D01*
X025725Y016165D02*
X027984Y016165D01*
X028033Y016046D02*
X025772Y016046D01*
X025914Y015815D02*
X025981Y015865D01*
X026055Y015902D01*
X026135Y015928D01*
X026217Y015941D01*
X026220Y015941D01*
X026220Y015450D01*
X025729Y015450D01*
X025729Y015453D01*
X025742Y015535D01*
X025768Y015615D01*
X025806Y015689D01*
X025855Y015756D01*
X025914Y015815D01*
X025907Y015809D02*
X025779Y015809D01*
X025807Y015690D02*
X025741Y015690D01*
X025754Y015572D02*
X025667Y015572D01*
X025729Y015453D02*
X025528Y015453D01*
X025613Y015335D02*
X025734Y015335D01*
X026220Y015453D02*
X026297Y015453D01*
X026297Y015572D02*
X026220Y015572D01*
X026220Y015690D02*
X026297Y015690D01*
X026297Y015809D02*
X026220Y015809D01*
X026220Y015928D02*
X026297Y015928D01*
X026385Y015928D02*
X028097Y015928D01*
X028216Y015809D02*
X026611Y015809D01*
X026711Y015690D02*
X028383Y015690D01*
X029135Y015690D02*
X029539Y015690D01*
X029539Y015572D02*
X026764Y015572D01*
X026789Y015453D02*
X029539Y015453D01*
X029539Y015335D02*
X026783Y015335D01*
X026753Y015216D02*
X029539Y015216D01*
X029539Y015098D02*
X026686Y015098D01*
X026566Y014979D02*
X029539Y014979D01*
X029539Y014861D02*
X026587Y014861D01*
X026706Y014742D02*
X029539Y014742D01*
X029539Y014624D02*
X026766Y014624D01*
X026809Y014505D02*
X029539Y014505D01*
X029539Y014386D02*
X026809Y014386D01*
X026795Y014268D02*
X029539Y014268D01*
X029539Y014149D02*
X026746Y014149D01*
X026656Y014031D02*
X029539Y014031D01*
X029539Y013912D02*
X026491Y013912D01*
X026654Y013794D02*
X029539Y013794D01*
X029539Y013675D02*
X026745Y013675D01*
X026794Y013557D02*
X029539Y013557D01*
X029539Y013438D02*
X026809Y013438D01*
X026809Y013320D02*
X029539Y013320D01*
X029539Y013201D02*
X026767Y013201D01*
X026708Y013082D02*
X029539Y013082D01*
X029539Y012964D02*
X026589Y012964D01*
X026809Y012845D02*
X029539Y012845D01*
X029539Y012727D02*
X026809Y012727D01*
X026809Y012608D02*
X028325Y012608D01*
X028192Y012490D02*
X026809Y012490D01*
X026809Y012371D02*
X028073Y012371D01*
X028024Y012253D02*
X026809Y012253D01*
X026809Y012134D02*
X027975Y012134D01*
X027949Y012016D02*
X026809Y012016D01*
X026739Y011897D02*
X027949Y011897D01*
X027949Y011779D02*
X024189Y011779D01*
X024189Y011897D02*
X025779Y011897D01*
X025709Y012016D02*
X024189Y012016D01*
X024189Y012134D02*
X025709Y012134D01*
X025709Y012253D02*
X024189Y012253D01*
X024189Y012371D02*
X025125Y012371D01*
X024903Y012490D02*
X024189Y012490D01*
X024189Y012608D02*
X024789Y012608D01*
X024740Y012727D02*
X024189Y012727D01*
X024189Y012845D02*
X024709Y012845D01*
X024709Y012964D02*
X024189Y012964D01*
X024189Y013082D02*
X024735Y013082D01*
X024784Y013201D02*
X024189Y013201D01*
X024189Y013320D02*
X024889Y013320D01*
X024964Y013438D02*
X024189Y013438D01*
X024189Y013557D02*
X024836Y013557D01*
X024761Y013675D02*
X024189Y013675D01*
X024189Y013794D02*
X024712Y013794D01*
X024709Y013912D02*
X024189Y013912D01*
X024189Y014031D02*
X024713Y014031D01*
X024762Y014149D02*
X024189Y014149D01*
X024189Y014268D02*
X024838Y014268D01*
X024969Y014386D02*
X024189Y014386D01*
X023515Y015026D02*
X023515Y015026D01*
X023489Y015098D02*
X023587Y015098D01*
X023489Y015216D02*
X023706Y015216D01*
X023908Y015335D02*
X023489Y015335D01*
X023489Y015453D02*
X024990Y015453D01*
X024850Y015572D02*
X023489Y015572D01*
X023489Y015690D02*
X024777Y015690D01*
X024738Y015809D02*
X023489Y015809D01*
X023029Y015809D02*
X016489Y015809D01*
X016489Y015928D02*
X023029Y015928D01*
X023029Y016046D02*
X016489Y016046D01*
X016489Y016165D02*
X023029Y016165D01*
X023056Y016283D02*
X016489Y016283D01*
X016489Y016402D02*
X023174Y016402D01*
X023293Y016520D02*
X016489Y016520D01*
X016489Y016639D02*
X023411Y016639D01*
X023530Y016757D02*
X016489Y016757D01*
X016489Y016876D02*
X023648Y016876D01*
X023767Y016994D02*
X016489Y016994D01*
X016489Y017113D02*
X023885Y017113D01*
X024004Y017231D02*
X016489Y017231D01*
X016489Y017350D02*
X024122Y017350D01*
X024241Y017469D02*
X016489Y017469D01*
X016489Y017587D02*
X024360Y017587D01*
X024715Y017943D02*
X020599Y017943D01*
X020648Y018061D02*
X024834Y018061D01*
X024952Y018180D02*
X020657Y018180D01*
X020633Y018298D02*
X023095Y018298D01*
X022940Y018417D02*
X020566Y018417D01*
X020484Y017824D02*
X020338Y017763D01*
X020180Y017763D01*
X020033Y017824D01*
X021215Y019839D02*
X021303Y019839D01*
X021276Y020432D02*
X021242Y020432D01*
X021147Y020551D02*
X021371Y020551D01*
X021548Y020669D02*
X020970Y020669D01*
X023096Y019721D02*
X023421Y019721D01*
X023303Y019839D02*
X023215Y019839D01*
X024096Y019721D02*
X024421Y019721D01*
X024303Y019839D02*
X024215Y019839D01*
X025096Y019721D02*
X025421Y019721D01*
X025303Y019839D02*
X025215Y019839D01*
X026096Y019721D02*
X026421Y019721D01*
X026303Y019839D02*
X026215Y019839D01*
X027096Y019721D02*
X027421Y019721D01*
X027303Y019839D02*
X027215Y019839D01*
X025664Y018891D02*
X023592Y018891D01*
X023644Y018773D02*
X025545Y018773D01*
X025426Y018654D02*
X023657Y018654D01*
X023638Y018535D02*
X025308Y018535D01*
X025189Y018417D02*
X023578Y018417D01*
X023423Y018298D02*
X025071Y018298D01*
X025298Y015928D02*
X026133Y015928D01*
X023029Y015690D02*
X016489Y015690D01*
X016489Y015572D02*
X023029Y015572D01*
X023029Y015453D02*
X016489Y015453D01*
X016489Y015335D02*
X023029Y015335D01*
X023029Y015216D02*
X016489Y015216D01*
X016489Y015098D02*
X023029Y015098D01*
X023029Y014979D02*
X016402Y014979D01*
X016283Y014861D02*
X023029Y014861D01*
X023029Y014742D02*
X016165Y014742D01*
X016046Y014624D02*
X023029Y014624D01*
X023029Y014505D02*
X015928Y014505D01*
X015809Y014386D02*
X023029Y014386D01*
X023029Y014268D02*
X015691Y014268D01*
X015572Y014149D02*
X023029Y014149D01*
X023029Y014031D02*
X015454Y014031D01*
X015335Y013912D02*
X023029Y013912D01*
X023029Y013794D02*
X015217Y013794D01*
X015098Y013675D02*
X023029Y013675D01*
X023029Y013557D02*
X014979Y013557D01*
X014861Y013438D02*
X023029Y013438D01*
X023029Y013320D02*
X014742Y013320D01*
X014624Y013201D02*
X023029Y013201D01*
X023029Y013082D02*
X014505Y013082D01*
X014387Y012964D02*
X023029Y012964D01*
X023029Y012845D02*
X014268Y012845D01*
X014150Y012727D02*
X023029Y012727D01*
X023029Y012608D02*
X019590Y012608D01*
X019570Y012627D02*
X019368Y012711D01*
X019149Y012711D01*
X018947Y012627D01*
X018793Y012473D01*
X018759Y012391D01*
X017664Y012391D01*
X017529Y012256D01*
X017029Y011756D01*
X017029Y011566D01*
X017029Y011161D01*
X016947Y011127D01*
X016793Y010973D01*
X016709Y010771D01*
X016709Y010552D01*
X016793Y010350D01*
X016947Y010195D01*
X017149Y010111D01*
X017368Y010111D01*
X017570Y010195D01*
X017725Y010350D01*
X017769Y010455D01*
X017806Y010383D01*
X017855Y010316D01*
X017914Y010257D01*
X017981Y010208D01*
X018055Y010170D01*
X018135Y010144D01*
X018217Y010131D01*
X018239Y010131D01*
X018239Y010641D01*
X018279Y010641D01*
X018279Y010131D01*
X018301Y010131D01*
X018383Y010144D01*
X018462Y010170D01*
X018537Y010208D01*
X018604Y010257D01*
X018663Y010316D01*
X018712Y010383D01*
X018750Y010458D01*
X018776Y010537D01*
X018789Y010620D01*
X018789Y010641D01*
X018279Y010641D01*
X018279Y010681D01*
X018789Y010681D01*
X018789Y010703D01*
X018776Y010785D01*
X018750Y010865D01*
X018712Y010939D01*
X018663Y011006D01*
X018604Y011065D01*
X018537Y011115D01*
X018462Y011152D01*
X018383Y011178D01*
X018301Y011191D01*
X018279Y011191D01*
X018279Y010681D01*
X018239Y010681D01*
X018239Y011191D01*
X018217Y011191D01*
X018135Y011178D01*
X018055Y011152D01*
X017981Y011115D01*
X017914Y011065D01*
X017855Y011006D01*
X017806Y010939D01*
X017769Y010867D01*
X017725Y010973D01*
X017570Y011127D01*
X017489Y011161D01*
X017489Y011566D01*
X017854Y011931D01*
X018759Y011931D01*
X018793Y011850D01*
X018947Y011695D01*
X019149Y011611D01*
X019368Y011611D01*
X019570Y011695D01*
X019725Y011850D01*
X019809Y012052D01*
X019809Y012271D01*
X019725Y012473D01*
X019570Y012627D01*
X019708Y012490D02*
X023029Y012490D01*
X023029Y012371D02*
X019767Y012371D01*
X019809Y012253D02*
X023029Y012253D01*
X023029Y012134D02*
X019809Y012134D01*
X019794Y012016D02*
X023029Y012016D01*
X023029Y011897D02*
X022199Y011897D01*
X022353Y011779D02*
X023029Y011779D01*
X023029Y011660D02*
X022429Y011660D01*
X022475Y011541D02*
X023029Y011541D01*
X023029Y011423D02*
X022475Y011423D01*
X022457Y011304D02*
X023029Y011304D01*
X023029Y011186D02*
X022408Y011186D01*
X022301Y011067D02*
X023029Y011067D01*
X023029Y010949D02*
X022360Y010949D01*
X022425Y010830D02*
X023029Y010830D01*
X023029Y010712D02*
X022453Y010712D01*
X022451Y010593D02*
X023029Y010593D01*
X023029Y010475D02*
X022419Y010475D01*
X022347Y010356D02*
X023029Y010356D01*
X023029Y010237D02*
X022319Y010237D01*
X022415Y010119D02*
X023029Y010119D01*
X023029Y010000D02*
X022464Y010000D01*
X022475Y009882D02*
X023029Y009882D01*
X023029Y009763D02*
X022471Y009763D01*
X022422Y009645D02*
X023029Y009645D01*
X023029Y009526D02*
X022335Y009526D01*
X022156Y009408D02*
X023029Y009408D01*
X023029Y009289D02*
X019801Y009289D01*
X019809Y009271D02*
X019725Y009473D01*
X019570Y009627D01*
X019531Y009644D01*
X019672Y009526D02*
X021616Y009526D01*
X021794Y009408D02*
X019752Y009408D01*
X019809Y009271D02*
X019809Y009052D01*
X023029Y009052D01*
X023029Y008933D02*
X019760Y008933D01*
X019725Y008850D02*
X019809Y009052D01*
X019809Y009171D02*
X023029Y009171D01*
X023029Y008815D02*
X019690Y008815D01*
X019725Y008850D02*
X019570Y008695D01*
X019368Y008611D01*
X019149Y008611D01*
X018947Y008695D01*
X018793Y008850D01*
X018827Y008815D02*
X017989Y008815D01*
X017989Y008696D02*
X018946Y008696D01*
X019572Y008696D02*
X023029Y008696D01*
X023029Y008578D02*
X017989Y008578D01*
X017989Y008459D02*
X023029Y008459D01*
X023029Y008341D02*
X017989Y008341D01*
X017989Y008222D02*
X023029Y008222D01*
X023029Y008104D02*
X022594Y008104D01*
X022713Y007985D02*
X023029Y007985D01*
X023029Y007867D02*
X022769Y007867D01*
X022809Y007748D02*
X023029Y007748D01*
X023029Y007629D02*
X022809Y007629D01*
X022792Y007511D02*
X023029Y007511D01*
X023029Y007392D02*
X022743Y007392D01*
X022649Y007274D02*
X023029Y007274D01*
X022928Y007155D02*
X022503Y007155D01*
X022661Y007037D02*
X022809Y007037D01*
X023223Y006800D02*
X023329Y006800D01*
X023329Y006906D02*
X023329Y003339D01*
X022795Y002805D01*
X022725Y002973D01*
X022570Y003127D01*
X022465Y003171D01*
X022537Y003208D01*
X022604Y003257D01*
X022663Y003316D01*
X022712Y003383D01*
X022750Y003458D01*
X022776Y003537D01*
X022789Y003620D01*
X022789Y003621D01*
X022299Y003621D01*
X022299Y003701D01*
X022789Y003701D01*
X022789Y003703D01*
X022776Y003785D01*
X022750Y003865D01*
X022712Y003939D01*
X022663Y004006D01*
X022604Y004065D01*
X022537Y004115D01*
X022465Y004151D01*
X022570Y004195D01*
X022725Y004350D01*
X022809Y004552D01*
X022809Y004771D01*
X022725Y004973D01*
X022570Y005127D01*
X022489Y005161D01*
X022570Y005195D01*
X022725Y005350D01*
X022809Y005552D01*
X022809Y005771D01*
X022725Y005973D01*
X022570Y006127D01*
X022489Y006161D01*
X022570Y006195D01*
X022725Y006350D01*
X022759Y006431D01*
X022854Y006431D01*
X023329Y006906D01*
X023329Y006681D02*
X023104Y006681D01*
X022985Y006563D02*
X023329Y006563D01*
X023329Y006444D02*
X022867Y006444D01*
X022701Y006326D02*
X023329Y006326D01*
X023329Y006207D02*
X022582Y006207D01*
X022609Y006088D02*
X023329Y006088D01*
X023329Y005970D02*
X022726Y005970D01*
X022775Y005851D02*
X023329Y005851D01*
X023329Y005733D02*
X022809Y005733D01*
X022809Y005614D02*
X023329Y005614D01*
X023329Y005496D02*
X022786Y005496D01*
X022736Y005377D02*
X023329Y005377D01*
X023329Y005259D02*
X022634Y005259D01*
X022540Y005140D02*
X023329Y005140D01*
X023329Y005022D02*
X022676Y005022D01*
X022754Y004903D02*
X023329Y004903D01*
X023329Y004784D02*
X022803Y004784D01*
X022809Y004666D02*
X023329Y004666D01*
X023329Y004547D02*
X022807Y004547D01*
X022758Y004429D02*
X023329Y004429D01*
X023329Y004310D02*
X022686Y004310D01*
X022563Y004192D02*
X023329Y004192D01*
X023329Y004073D02*
X022594Y004073D01*
X022701Y003955D02*
X023329Y003955D01*
X023329Y003836D02*
X022759Y003836D01*
X022787Y003718D02*
X023329Y003718D01*
X023329Y003599D02*
X022786Y003599D01*
X022757Y003480D02*
X023329Y003480D01*
X023329Y003362D02*
X022696Y003362D01*
X022585Y003243D02*
X023233Y003243D01*
X023114Y003125D02*
X022573Y003125D01*
X022692Y003006D02*
X022996Y003006D01*
X022877Y002888D02*
X022760Y002888D01*
X022053Y003171D02*
X021947Y003127D01*
X021793Y002973D01*
X021709Y002771D01*
X021709Y002552D01*
X021793Y002350D01*
X021947Y002195D01*
X022115Y002126D01*
X021581Y001591D01*
X021107Y001591D01*
X021070Y001627D01*
X020868Y001711D01*
X020649Y001711D01*
X020447Y001627D01*
X020293Y001473D01*
X020249Y001367D01*
X020212Y001439D01*
X020163Y001506D01*
X020104Y001565D01*
X020037Y001615D01*
X019962Y001652D01*
X019883Y001678D01*
X019801Y001691D01*
X019799Y001691D01*
X019799Y001201D01*
X019719Y001201D01*
X019719Y001121D01*
X019229Y001121D01*
X018799Y001121D01*
X018799Y001201D01*
X019229Y001201D01*
X019719Y001201D01*
X019719Y001691D01*
X019717Y001691D01*
X019635Y001678D01*
X019555Y001652D01*
X019481Y001615D01*
X019414Y001565D01*
X019355Y001506D01*
X019306Y001439D01*
X019268Y001365D01*
X019259Y001337D01*
X019250Y001365D01*
X019212Y001439D01*
X019163Y001506D01*
X019104Y001565D01*
X019037Y001615D01*
X018962Y001652D01*
X018883Y001678D01*
X018801Y001691D01*
X018799Y001691D01*
X018799Y001201D01*
X018719Y001201D01*
X018719Y001691D01*
X018717Y001691D01*
X018635Y001678D01*
X018555Y001652D01*
X018481Y001615D01*
X018414Y001565D01*
X018355Y001506D01*
X018306Y001439D01*
X018269Y001367D01*
X018225Y001473D01*
X018070Y001627D01*
X017989Y001661D01*
X017989Y004431D01*
X021759Y004431D01*
X021793Y004350D01*
X021947Y004195D01*
X022053Y004151D01*
X021981Y004115D01*
X021914Y004065D01*
X021855Y004006D01*
X021806Y003939D01*
X021768Y003865D01*
X021742Y003785D01*
X021729Y003703D01*
X021729Y003701D01*
X022219Y003701D01*
X022219Y003621D01*
X021729Y003621D01*
X021729Y003620D01*
X021742Y003537D01*
X021768Y003458D01*
X021806Y003383D01*
X021855Y003316D01*
X021914Y003257D01*
X021981Y003208D01*
X022053Y003171D01*
X021945Y003125D02*
X017989Y003125D01*
X017989Y003243D02*
X021932Y003243D01*
X021821Y003362D02*
X017989Y003362D01*
X017989Y003480D02*
X021760Y003480D01*
X021732Y003599D02*
X017989Y003599D01*
X017989Y003718D02*
X021731Y003718D01*
X021758Y003836D02*
X017989Y003836D01*
X017989Y003955D02*
X021817Y003955D01*
X021924Y004073D02*
X017989Y004073D01*
X017989Y004192D02*
X021955Y004192D01*
X021832Y004310D02*
X017989Y004310D01*
X017989Y004429D02*
X021760Y004429D01*
X021764Y004903D02*
X017989Y004903D01*
X017989Y005022D02*
X021841Y005022D01*
X021978Y005140D02*
X017989Y005140D01*
X017989Y005259D02*
X021884Y005259D01*
X021781Y005377D02*
X017989Y005377D01*
X017989Y005496D02*
X021732Y005496D01*
X021709Y005614D02*
X017989Y005614D01*
X017989Y005733D02*
X021709Y005733D01*
X021742Y005851D02*
X017989Y005851D01*
X017989Y005970D02*
X021791Y005970D01*
X021908Y006088D02*
X017989Y006088D01*
X017989Y006207D02*
X021935Y006207D01*
X021817Y006326D02*
X017989Y006326D01*
X017989Y006444D02*
X021754Y006444D01*
X021709Y006563D02*
X017989Y006563D01*
X017989Y006681D02*
X021709Y006681D01*
X021721Y006800D02*
X017989Y006800D01*
X017989Y006918D02*
X021770Y006918D01*
X021857Y007037D02*
X017989Y007037D01*
X017989Y007155D02*
X022015Y007155D01*
X021868Y007274D02*
X017989Y007274D01*
X017989Y007392D02*
X021775Y007392D01*
X021726Y007511D02*
X017989Y007511D01*
X017989Y007629D02*
X021709Y007629D01*
X021709Y007748D02*
X017989Y007748D01*
X017989Y007867D02*
X021749Y007867D01*
X021805Y007985D02*
X017989Y007985D01*
X017989Y008104D02*
X021924Y008104D01*
X024189Y008459D02*
X024979Y008459D01*
X024846Y008578D02*
X024189Y008578D01*
X024189Y008696D02*
X024774Y008696D01*
X024738Y008815D02*
X024189Y008815D01*
X024189Y008933D02*
X025220Y008933D01*
X025220Y008950D02*
X024729Y008950D01*
X024729Y008953D01*
X024742Y009035D01*
X024768Y009115D01*
X024806Y009189D01*
X024855Y009256D01*
X024914Y009315D01*
X024981Y009365D01*
X025055Y009402D01*
X025135Y009428D01*
X025217Y009441D01*
X025220Y009441D01*
X025220Y008950D01*
X025298Y008933D02*
X026168Y008933D01*
X026135Y008928D02*
X026217Y008941D01*
X026220Y008941D01*
X026220Y008450D01*
X025729Y008450D01*
X025729Y008453D01*
X025742Y008535D01*
X025768Y008615D01*
X025806Y008689D01*
X025855Y008756D01*
X025914Y008815D01*
X025981Y008865D01*
X026055Y008902D01*
X026135Y008928D01*
X026220Y008933D02*
X026297Y008933D01*
X026350Y008933D02*
X028091Y008933D01*
X028031Y009052D02*
X025770Y009052D01*
X025722Y009171D02*
X027982Y009171D01*
X027949Y009289D02*
X025631Y009289D01*
X025446Y009408D02*
X027949Y009408D01*
X027949Y009526D02*
X024189Y009526D01*
X024189Y009408D02*
X025072Y009408D01*
X025220Y009408D02*
X025297Y009408D01*
X025297Y009289D02*
X025220Y009289D01*
X025220Y009171D02*
X025297Y009171D01*
X025297Y009052D02*
X025220Y009052D01*
X024887Y009289D02*
X024189Y009289D01*
X024189Y009171D02*
X024796Y009171D01*
X024747Y009052D02*
X024189Y009052D01*
X024189Y009645D02*
X027979Y009645D01*
X028028Y009763D02*
X024189Y009763D01*
X024189Y009882D02*
X028084Y009882D01*
X028203Y010000D02*
X024189Y010000D01*
X024189Y010119D02*
X028351Y010119D01*
X029167Y010119D02*
X029539Y010119D01*
X029539Y010237D02*
X024189Y010237D01*
X024189Y010356D02*
X029539Y010356D01*
X029539Y010475D02*
X024189Y010475D01*
X024189Y010593D02*
X029539Y010593D01*
X029539Y010712D02*
X024189Y010712D01*
X024189Y010830D02*
X029539Y010830D01*
X029539Y010949D02*
X024189Y010949D01*
X024189Y011067D02*
X029539Y011067D01*
X029539Y011186D02*
X029124Y011186D01*
X029297Y011304D02*
X029539Y011304D01*
X029539Y011423D02*
X029416Y011423D01*
X029482Y011541D02*
X029539Y011541D01*
X029531Y011660D02*
X029539Y011660D01*
X029539Y012253D02*
X029494Y012253D01*
X029539Y012371D02*
X029444Y012371D01*
X029539Y012490D02*
X029326Y012490D01*
X029192Y012608D02*
X029539Y012608D01*
X027986Y011660D02*
X024189Y011660D01*
X024189Y011541D02*
X028035Y011541D01*
X028102Y011423D02*
X024189Y011423D01*
X024189Y011304D02*
X028220Y011304D01*
X028394Y011186D02*
X024189Y011186D01*
X025392Y012371D02*
X025709Y012371D01*
X025709Y012490D02*
X025615Y012490D01*
X021751Y011897D02*
X019745Y011897D01*
X019654Y011779D02*
X021598Y011779D01*
X021522Y011660D02*
X019486Y011660D01*
X019032Y011660D02*
X017583Y011660D01*
X017489Y011541D02*
X021475Y011541D01*
X021475Y011423D02*
X017489Y011423D01*
X017489Y011304D02*
X021494Y011304D01*
X021543Y011186D02*
X018335Y011186D01*
X018279Y011186D02*
X018239Y011186D01*
X018183Y011186D02*
X017489Y011186D01*
X017631Y011067D02*
X017916Y011067D01*
X017813Y010949D02*
X017735Y010949D01*
X018239Y010949D02*
X018279Y010949D01*
X018279Y011067D02*
X018239Y011067D01*
X018239Y010830D02*
X018279Y010830D01*
X018279Y010712D02*
X018239Y010712D01*
X018239Y010593D02*
X018279Y010593D01*
X018279Y010475D02*
X018239Y010475D01*
X018239Y010356D02*
X018279Y010356D01*
X018279Y010237D02*
X018239Y010237D01*
X017941Y010237D02*
X017613Y010237D01*
X017728Y010356D02*
X017826Y010356D01*
X017773Y010000D02*
X011423Y010000D01*
X011305Y009882D02*
X017654Y009882D01*
X017536Y009763D02*
X011186Y009763D01*
X010989Y009566D02*
X010989Y006256D01*
X010989Y006066D01*
X009989Y005066D01*
X009854Y004931D01*
X008259Y004931D01*
X008225Y004850D01*
X008070Y004695D01*
X007989Y004661D01*
X008070Y004627D01*
X008225Y004473D01*
X008259Y004391D01*
X009664Y004391D01*
X011529Y006256D01*
X011529Y008661D01*
X011447Y008695D01*
X011293Y008850D01*
X011327Y008815D02*
X010989Y008815D01*
X010989Y008696D02*
X011446Y008696D01*
X011529Y008578D02*
X010989Y008578D01*
X010989Y008459D02*
X011529Y008459D01*
X011529Y008341D02*
X010989Y008341D01*
X010989Y008222D02*
X011529Y008222D01*
X011529Y008104D02*
X010989Y008104D01*
X010989Y007985D02*
X011529Y007985D01*
X011529Y007867D02*
X010989Y007867D01*
X010989Y007748D02*
X011529Y007748D01*
X011529Y007629D02*
X010989Y007629D01*
X010989Y007511D02*
X011529Y007511D01*
X011529Y007392D02*
X010989Y007392D01*
X010989Y007274D02*
X011529Y007274D01*
X011529Y007155D02*
X010989Y007155D01*
X010989Y007037D02*
X011529Y007037D01*
X011529Y006918D02*
X010989Y006918D01*
X010989Y006800D02*
X011529Y006800D01*
X011529Y006681D02*
X010989Y006681D01*
X010989Y006563D02*
X011529Y006563D01*
X011529Y006444D02*
X010989Y006444D01*
X010989Y006326D02*
X011529Y006326D01*
X011479Y006207D02*
X010989Y006207D01*
X010989Y006088D02*
X011361Y006088D01*
X011242Y005970D02*
X010893Y005970D01*
X010774Y005851D02*
X011124Y005851D01*
X011005Y005733D02*
X010656Y005733D01*
X010537Y005614D02*
X010887Y005614D01*
X010768Y005496D02*
X010419Y005496D01*
X010300Y005377D02*
X010650Y005377D01*
X010531Y005259D02*
X010181Y005259D01*
X010063Y005140D02*
X010412Y005140D01*
X010294Y005022D02*
X009944Y005022D01*
X010175Y004903D02*
X008247Y004903D01*
X008160Y004784D02*
X010057Y004784D01*
X009938Y004666D02*
X008000Y004666D01*
X008151Y004547D02*
X009820Y004547D01*
X009701Y004429D02*
X008243Y004429D01*
X007517Y004666D02*
X006479Y004666D01*
X006479Y004784D02*
X007358Y004784D01*
X007271Y004903D02*
X006479Y004903D01*
X006479Y005022D02*
X007221Y005022D01*
X007209Y005140D02*
X006479Y005140D01*
X006479Y005259D02*
X007209Y005259D01*
X007253Y005377D02*
X006479Y005377D01*
X006479Y005496D02*
X007316Y005496D01*
X007434Y005614D02*
X006479Y005614D01*
X006479Y005733D02*
X007447Y005733D01*
X007329Y005851D02*
X006479Y005851D01*
X006479Y005970D02*
X007264Y005970D01*
X007234Y006088D02*
X006479Y006088D01*
X006479Y006207D02*
X007230Y006207D01*
X007229Y006203D02*
X007229Y006201D01*
X007719Y006201D01*
X007719Y006631D01*
X007719Y007121D01*
X007799Y007121D01*
X007799Y007201D01*
X008289Y007201D01*
X008289Y007203D01*
X008276Y007285D01*
X008250Y007365D01*
X008212Y007439D01*
X008163Y007506D01*
X008104Y007565D01*
X008037Y007615D01*
X007962Y007652D01*
X007883Y007678D01*
X007801Y007691D01*
X007799Y007691D01*
X007799Y007201D01*
X007719Y007201D01*
X007719Y007121D01*
X007229Y007121D01*
X007229Y007120D01*
X007242Y007037D01*
X007268Y006958D01*
X007306Y006883D01*
X007355Y006816D01*
X007414Y006757D01*
X007481Y006708D01*
X007555Y006670D01*
X007583Y006661D01*
X007555Y006652D01*
X007481Y006615D01*
X007414Y006565D01*
X007355Y006506D01*
X007306Y006439D01*
X007268Y006365D01*
X007242Y006285D01*
X007229Y006203D01*
X007255Y006326D02*
X006479Y006326D01*
X006479Y006444D02*
X007309Y006444D01*
X007411Y006563D02*
X006479Y006563D01*
X006479Y006681D02*
X007534Y006681D01*
X007719Y006681D02*
X007799Y006681D01*
X007799Y006563D02*
X007719Y006563D01*
X007719Y006444D02*
X007799Y006444D01*
X007799Y006326D02*
X007719Y006326D01*
X007719Y006207D02*
X007799Y006207D01*
X008209Y006444D02*
X010529Y006444D01*
X010529Y006326D02*
X008263Y006326D01*
X008288Y006207D02*
X010479Y006207D01*
X010361Y006088D02*
X008284Y006088D01*
X008254Y005970D02*
X010242Y005970D01*
X010124Y005851D02*
X008189Y005851D01*
X008071Y005733D02*
X010005Y005733D01*
X009887Y005614D02*
X008084Y005614D01*
X008202Y005496D02*
X009768Y005496D01*
X010707Y004784D02*
X017529Y004784D01*
X017529Y004666D02*
X010589Y004666D01*
X010470Y004547D02*
X017529Y004547D01*
X017529Y004429D02*
X010352Y004429D01*
X010233Y004310D02*
X017529Y004310D01*
X017529Y004192D02*
X010115Y004192D01*
X009996Y004073D02*
X017529Y004073D01*
X017529Y003955D02*
X009878Y003955D01*
X010826Y004903D02*
X017529Y004903D01*
X017529Y005022D02*
X010944Y005022D01*
X011063Y005140D02*
X017529Y005140D01*
X017529Y005259D02*
X011181Y005259D01*
X011300Y005377D02*
X017529Y005377D01*
X017529Y005496D02*
X011419Y005496D01*
X011537Y005614D02*
X017529Y005614D01*
X017529Y005733D02*
X011656Y005733D01*
X011774Y005851D02*
X017529Y005851D01*
X017529Y005970D02*
X011893Y005970D01*
X011989Y006088D02*
X017529Y006088D01*
X017529Y006207D02*
X011989Y006207D01*
X011989Y006326D02*
X017529Y006326D01*
X017529Y006444D02*
X011989Y006444D01*
X011989Y006563D02*
X017529Y006563D01*
X017529Y006681D02*
X011989Y006681D01*
X011989Y006800D02*
X017529Y006800D01*
X017529Y006918D02*
X011989Y006918D01*
X011989Y007037D02*
X017529Y007037D01*
X017529Y007155D02*
X011989Y007155D01*
X011989Y007274D02*
X017529Y007274D01*
X017529Y007392D02*
X011989Y007392D01*
X011989Y007511D02*
X017529Y007511D01*
X017529Y007629D02*
X011989Y007629D01*
X011989Y007748D02*
X017529Y007748D01*
X017529Y007867D02*
X011989Y007867D01*
X011989Y007985D02*
X017529Y007985D01*
X017529Y008104D02*
X011989Y008104D01*
X011989Y008222D02*
X017529Y008222D01*
X017529Y008341D02*
X011989Y008341D01*
X011989Y008459D02*
X017529Y008459D01*
X017529Y008578D02*
X011989Y008578D01*
X012072Y008696D02*
X014946Y008696D01*
X014827Y008815D02*
X012190Y008815D01*
X012260Y008933D02*
X014758Y008933D01*
X014717Y009289D02*
X012301Y009289D01*
X012309Y009271D02*
X012309Y009052D01*
X012252Y009408D02*
X014766Y009408D01*
X014846Y009526D02*
X012172Y009526D01*
X012029Y009645D02*
X014989Y009645D01*
X015529Y009645D02*
X017529Y009645D01*
X017529Y009526D02*
X015672Y009526D01*
X015752Y009408D02*
X017529Y009408D01*
X017529Y008815D02*
X015690Y008815D01*
X015572Y008696D02*
X017529Y008696D01*
X017387Y010119D02*
X021536Y010119D01*
X021632Y010237D02*
X018577Y010237D01*
X018692Y010356D02*
X021604Y010356D01*
X021532Y010475D02*
X018755Y010475D01*
X018785Y010593D02*
X021500Y010593D01*
X021497Y010712D02*
X018788Y010712D01*
X018761Y010830D02*
X021526Y010830D01*
X021591Y010949D02*
X018705Y010949D01*
X018602Y011067D02*
X021650Y011067D01*
X018864Y011779D02*
X017701Y011779D01*
X017820Y011897D02*
X018773Y011897D01*
X018810Y012490D02*
X015708Y012490D01*
X015767Y012371D02*
X017644Y012371D01*
X017525Y012253D02*
X015809Y012253D01*
X015809Y012134D02*
X017407Y012134D01*
X017288Y012016D02*
X015794Y012016D01*
X015745Y011897D02*
X017169Y011897D01*
X017051Y011779D02*
X015654Y011779D01*
X015486Y011660D02*
X017029Y011660D01*
X017029Y011541D02*
X013489Y011541D01*
X013489Y011423D02*
X017029Y011423D01*
X017029Y011304D02*
X013489Y011304D01*
X013489Y011186D02*
X014183Y011186D01*
X014239Y011186D02*
X014279Y011186D01*
X014335Y011186D02*
X017029Y011186D01*
X016887Y011067D02*
X014602Y011067D01*
X014705Y010949D02*
X016783Y010949D01*
X016734Y010830D02*
X014761Y010830D01*
X014788Y010712D02*
X016709Y010712D01*
X016709Y010593D02*
X014785Y010593D01*
X014755Y010475D02*
X016741Y010475D01*
X016790Y010356D02*
X014692Y010356D01*
X014577Y010237D02*
X016905Y010237D01*
X017131Y010119D02*
X013387Y010119D01*
X013613Y010237D02*
X013941Y010237D01*
X013826Y010356D02*
X013728Y010356D01*
X013131Y010119D02*
X011542Y010119D01*
X011660Y010237D02*
X012905Y010237D01*
X012790Y010356D02*
X011779Y010356D01*
X011897Y010475D02*
X012741Y010475D01*
X012709Y010593D02*
X012016Y010593D01*
X012134Y010712D02*
X012709Y010712D01*
X012734Y010830D02*
X012253Y010830D01*
X012372Y010949D02*
X012783Y010949D01*
X012887Y011067D02*
X012490Y011067D01*
X012609Y011186D02*
X013029Y011186D01*
X013029Y011304D02*
X012727Y011304D01*
X012846Y011423D02*
X013029Y011423D01*
X013029Y011541D02*
X012964Y011541D01*
X012669Y011897D02*
X012245Y011897D01*
X012294Y012016D02*
X012788Y012016D01*
X012907Y012134D02*
X012309Y012134D01*
X012309Y012253D02*
X013025Y012253D01*
X012551Y011779D02*
X012154Y011779D01*
X011986Y011660D02*
X012432Y011660D01*
X012314Y011541D02*
X006479Y011541D01*
X006479Y011423D02*
X012195Y011423D01*
X012077Y011304D02*
X006479Y011304D01*
X006479Y011186D02*
X011958Y011186D01*
X011840Y011067D02*
X006479Y011067D01*
X006479Y010949D02*
X011721Y010949D01*
X011603Y010830D02*
X006479Y010830D01*
X006479Y010712D02*
X011484Y010712D01*
X011365Y010593D02*
X006479Y010593D01*
X006479Y010475D02*
X011247Y010475D01*
X011128Y010356D02*
X006479Y010356D01*
X006479Y010237D02*
X011010Y010237D01*
X010891Y010119D02*
X006479Y010119D01*
X006479Y010000D02*
X010773Y010000D01*
X010654Y009882D02*
X006479Y009882D01*
X006479Y009763D02*
X010536Y009763D01*
X010529Y009645D02*
X006479Y009645D01*
X006479Y009526D02*
X010529Y009526D01*
X010529Y009408D02*
X006479Y009408D01*
X006479Y009289D02*
X010529Y009289D01*
X010529Y009171D02*
X006479Y009171D01*
X006479Y009052D02*
X010529Y009052D01*
X010529Y008933D02*
X006479Y008933D01*
X006479Y008815D02*
X010529Y008815D01*
X010529Y008696D02*
X006479Y008696D01*
X006479Y008578D02*
X010529Y008578D01*
X010529Y008459D02*
X006479Y008459D01*
X006479Y008341D02*
X010529Y008341D01*
X010529Y008222D02*
X006479Y008222D01*
X006479Y008104D02*
X010529Y008104D01*
X010529Y007985D02*
X006479Y007985D01*
X006479Y007867D02*
X010529Y007867D01*
X010529Y007748D02*
X006479Y007748D01*
X006479Y007629D02*
X007510Y007629D01*
X007481Y007615D02*
X007414Y007565D01*
X007355Y007506D01*
X007306Y007439D01*
X007268Y007365D01*
X007242Y007285D01*
X007229Y007203D01*
X007229Y007201D01*
X007719Y007201D01*
X007719Y007691D01*
X007717Y007691D01*
X007635Y007678D01*
X007555Y007652D01*
X007481Y007615D01*
X007359Y007511D02*
X006479Y007511D01*
X006479Y007392D02*
X007282Y007392D01*
X007240Y007274D02*
X006479Y007274D01*
X006479Y007155D02*
X007719Y007155D01*
X007799Y007155D02*
X010529Y007155D01*
X010529Y007037D02*
X008276Y007037D01*
X008230Y006918D02*
X010529Y006918D01*
X010529Y006800D02*
X008147Y006800D01*
X007984Y006681D02*
X010529Y006681D01*
X010529Y006563D02*
X008107Y006563D01*
X007799Y006800D02*
X007719Y006800D01*
X007719Y006918D02*
X007799Y006918D01*
X007799Y007037D02*
X007719Y007037D01*
X007719Y007274D02*
X007799Y007274D01*
X007799Y007392D02*
X007719Y007392D01*
X007719Y007511D02*
X007799Y007511D01*
X007799Y007629D02*
X007719Y007629D01*
X008007Y007629D02*
X010529Y007629D01*
X010529Y007511D02*
X008159Y007511D01*
X008236Y007392D02*
X010529Y007392D01*
X010529Y007274D02*
X008278Y007274D01*
X007371Y006800D02*
X006479Y006800D01*
X006479Y006918D02*
X007288Y006918D01*
X007242Y007037D02*
X006479Y007037D01*
X006479Y004547D02*
X007367Y004547D01*
X007274Y004429D02*
X006479Y004429D01*
X006479Y004310D02*
X007225Y004310D01*
X007209Y004192D02*
X006479Y004192D01*
X006479Y004073D02*
X007209Y004073D01*
X007249Y003955D02*
X006479Y003955D01*
X006479Y003836D02*
X007306Y003836D01*
X007425Y003718D02*
X006479Y003718D01*
X006479Y003599D02*
X007419Y003599D01*
X007300Y003480D02*
X006479Y003480D01*
X006479Y003362D02*
X007247Y003362D01*
X007209Y003243D02*
X006479Y003243D01*
X006479Y003125D02*
X007209Y003125D01*
X007228Y003006D02*
X006479Y003006D01*
X006479Y002888D02*
X007277Y002888D01*
X007373Y002769D02*
X006479Y002769D01*
X006479Y002651D02*
X007554Y002651D01*
X007963Y002651D02*
X016444Y002651D01*
X016529Y002532D02*
X006479Y002532D01*
X006479Y002414D02*
X016529Y002414D01*
X016529Y002295D02*
X006479Y002295D01*
X006479Y002176D02*
X016529Y002176D01*
X016529Y002058D02*
X006479Y002058D01*
X006479Y001939D02*
X016529Y001939D01*
X016529Y001821D02*
X006479Y001821D01*
X006479Y001702D02*
X015628Y001702D01*
X015404Y001584D02*
X006479Y001584D01*
X006479Y001465D02*
X015290Y001465D01*
X015240Y001347D02*
X006479Y001347D01*
X006503Y001228D02*
X015209Y001228D01*
X015209Y001110D02*
X006622Y001110D01*
X006740Y000991D02*
X015234Y000991D01*
X015283Y000873D02*
X006859Y000873D01*
X006977Y000754D02*
X015388Y000754D01*
X015591Y000635D02*
X007096Y000635D01*
X007214Y000517D02*
X028803Y000517D01*
X028685Y000398D02*
X007333Y000398D01*
X008145Y002769D02*
X016326Y002769D01*
X016207Y002888D02*
X008241Y002888D01*
X008217Y003480D02*
X017529Y003480D01*
X017529Y003362D02*
X016383Y003362D01*
X016502Y003243D02*
X017529Y003243D01*
X017529Y003125D02*
X016621Y003125D01*
X016739Y003006D02*
X017529Y003006D01*
X017529Y002888D02*
X016858Y002888D01*
X016976Y002769D02*
X017529Y002769D01*
X017529Y002651D02*
X016989Y002651D01*
X016989Y002532D02*
X017529Y002532D01*
X017529Y002414D02*
X016989Y002414D01*
X016989Y002295D02*
X017529Y002295D01*
X017529Y002176D02*
X016989Y002176D01*
X016989Y002058D02*
X017529Y002058D01*
X017529Y001939D02*
X016989Y001939D01*
X016989Y001821D02*
X017529Y001821D01*
X017529Y001702D02*
X016989Y001702D01*
X017114Y001584D02*
X017404Y001584D01*
X017290Y001465D02*
X017228Y001465D01*
X017235Y000873D02*
X017283Y000873D01*
X017388Y000754D02*
X017129Y000754D01*
X016927Y000635D02*
X017591Y000635D01*
X017927Y000635D02*
X018691Y000635D01*
X018719Y000635D02*
X018799Y000635D01*
X018827Y000635D02*
X019691Y000635D01*
X019719Y000635D02*
X019799Y000635D01*
X019827Y000635D02*
X020591Y000635D01*
X020388Y000754D02*
X020100Y000754D01*
X020204Y000873D02*
X020283Y000873D01*
X019799Y000873D02*
X019719Y000873D01*
X019719Y000991D02*
X019799Y000991D01*
X019799Y001110D02*
X019719Y001110D01*
X019719Y001228D02*
X019799Y001228D01*
X019799Y001347D02*
X019719Y001347D01*
X019719Y001465D02*
X019799Y001465D01*
X019799Y001584D02*
X019719Y001584D01*
X019439Y001584D02*
X019079Y001584D01*
X019193Y001465D02*
X019325Y001465D01*
X019262Y001347D02*
X019256Y001347D01*
X018799Y001347D02*
X018719Y001347D01*
X018719Y001465D02*
X018799Y001465D01*
X018799Y001584D02*
X018719Y001584D01*
X018439Y001584D02*
X018114Y001584D01*
X018228Y001465D02*
X018325Y001465D01*
X017989Y001702D02*
X020628Y001702D01*
X020404Y001584D02*
X020079Y001584D01*
X020193Y001465D02*
X020290Y001465D01*
X020890Y001702D02*
X021692Y001702D01*
X021810Y001821D02*
X017989Y001821D01*
X017989Y001939D02*
X021929Y001939D01*
X022048Y002058D02*
X017989Y002058D01*
X017989Y002176D02*
X021992Y002176D01*
X021847Y002295D02*
X017989Y002295D01*
X017989Y002414D02*
X021766Y002414D01*
X021717Y002532D02*
X017989Y002532D01*
X017989Y002651D02*
X021709Y002651D01*
X021709Y002769D02*
X017989Y002769D01*
X017989Y002888D02*
X021757Y002888D01*
X021826Y003006D02*
X017989Y003006D01*
X017529Y003599D02*
X008099Y003599D01*
X008093Y003718D02*
X017529Y003718D01*
X017529Y003836D02*
X008212Y003836D01*
X015890Y001702D02*
X016529Y001702D01*
X016404Y001584D02*
X016114Y001584D01*
X016228Y001465D02*
X016290Y001465D01*
X016283Y000873D02*
X016235Y000873D01*
X016129Y000754D02*
X016388Y000754D01*
X016591Y000635D02*
X015927Y000635D01*
X018129Y000754D02*
X018418Y000754D01*
X018314Y000873D02*
X018235Y000873D01*
X018719Y000873D02*
X018799Y000873D01*
X018799Y000991D02*
X018719Y000991D01*
X018719Y001110D02*
X018799Y001110D01*
X018799Y001228D02*
X018719Y001228D01*
X019204Y000873D02*
X019314Y000873D01*
X019418Y000754D02*
X019100Y000754D01*
X018799Y000754D02*
X018719Y000754D01*
X019719Y000754D02*
X019799Y000754D01*
X020927Y000635D02*
X022591Y000635D01*
X022388Y000754D02*
X021899Y000754D01*
X022078Y000873D02*
X022283Y000873D01*
X022234Y000991D02*
X022197Y000991D01*
X022927Y000635D02*
X023591Y000635D01*
X023388Y000754D02*
X023129Y000754D01*
X023235Y000873D02*
X023283Y000873D01*
X023290Y001465D02*
X023228Y001465D01*
X023114Y001584D02*
X023404Y001584D01*
X023628Y001702D02*
X022908Y001702D01*
X023027Y001821D02*
X029539Y001821D01*
X029539Y001939D02*
X023145Y001939D01*
X023264Y002058D02*
X029539Y002058D01*
X029539Y002176D02*
X023382Y002176D01*
X023501Y002295D02*
X028369Y002295D01*
X028192Y002414D02*
X023619Y002414D01*
X023738Y002532D02*
X028053Y002532D01*
X027974Y002651D02*
X023856Y002651D01*
X023975Y002769D02*
X027894Y002769D01*
X027858Y002888D02*
X024093Y002888D01*
X024160Y003006D02*
X027835Y003006D01*
X027811Y003125D02*
X024189Y003125D01*
X024189Y003243D02*
X027820Y003243D01*
X027844Y003362D02*
X024189Y003362D01*
X024189Y003480D02*
X027867Y003480D01*
X027925Y003599D02*
X024189Y003599D01*
X024189Y003955D02*
X028260Y003955D01*
X028380Y004192D02*
X024189Y004192D01*
X024189Y004310D02*
X028214Y004310D01*
X028096Y004429D02*
X024189Y004429D01*
X024189Y004547D02*
X028033Y004547D01*
X027984Y004666D02*
X024189Y004666D01*
X024189Y004784D02*
X027949Y004784D01*
X027949Y004903D02*
X026745Y004903D01*
X026809Y005022D02*
X027949Y005022D01*
X027977Y005140D02*
X026809Y005140D01*
X026809Y005259D02*
X028026Y005259D01*
X028079Y005377D02*
X026809Y005377D01*
X026809Y005496D02*
X028198Y005496D01*
X028340Y005614D02*
X026809Y005614D01*
X026809Y005733D02*
X029539Y005733D01*
X029539Y005851D02*
X026809Y005851D01*
X026595Y005970D02*
X029539Y005970D01*
X029539Y006088D02*
X026714Y006088D01*
X026770Y006207D02*
X029539Y006207D01*
X029539Y006326D02*
X026809Y006326D01*
X026809Y006444D02*
X029539Y006444D01*
X029539Y006563D02*
X026791Y006563D01*
X026742Y006681D02*
X029539Y006681D01*
X029539Y006800D02*
X026648Y006800D01*
X026506Y006918D02*
X029539Y006918D01*
X029539Y007037D02*
X026662Y007037D01*
X026748Y007155D02*
X029539Y007155D01*
X029539Y007274D02*
X026797Y007274D01*
X026809Y007392D02*
X029539Y007392D01*
X029539Y007511D02*
X026809Y007511D01*
X026764Y007629D02*
X029539Y007629D01*
X029539Y007748D02*
X026700Y007748D01*
X026581Y007867D02*
X029539Y007867D01*
X029539Y007985D02*
X026574Y007985D01*
X026690Y008104D02*
X029539Y008104D01*
X029539Y008222D02*
X026755Y008222D01*
X026784Y008341D02*
X029539Y008341D01*
X029539Y008459D02*
X026788Y008459D01*
X026762Y008578D02*
X029539Y008578D01*
X029539Y008696D02*
X029149Y008696D01*
X029308Y008815D02*
X029539Y008815D01*
X029539Y008933D02*
X029426Y008933D01*
X029487Y009052D02*
X029539Y009052D01*
X029536Y009171D02*
X029539Y009171D01*
X029539Y009645D02*
X029539Y009645D01*
X029539Y009763D02*
X029490Y009763D01*
X029539Y009882D02*
X029434Y009882D01*
X029539Y010000D02*
X029315Y010000D01*
X028368Y008696D02*
X026707Y008696D01*
X026605Y008815D02*
X028210Y008815D01*
X026297Y008815D02*
X026220Y008815D01*
X026220Y008696D02*
X026297Y008696D01*
X026297Y008578D02*
X026220Y008578D01*
X026220Y008459D02*
X026297Y008459D01*
X025913Y008815D02*
X025780Y008815D01*
X025811Y008696D02*
X025744Y008696D01*
X025756Y008578D02*
X025672Y008578D01*
X025730Y008459D02*
X025538Y008459D01*
X025607Y008341D02*
X025733Y008341D01*
X024983Y007392D02*
X024189Y007392D01*
X024189Y007274D02*
X024844Y007274D01*
X024765Y007155D02*
X024189Y007155D01*
X024189Y007037D02*
X024716Y007037D01*
X024709Y006918D02*
X024189Y006918D01*
X024189Y006800D02*
X024710Y006800D01*
X024759Y006681D02*
X024189Y006681D01*
X024189Y006563D02*
X024830Y006563D01*
X024950Y006444D02*
X024189Y006444D01*
X024189Y006326D02*
X024895Y006326D01*
X024786Y006207D02*
X024189Y006207D01*
X024189Y006088D02*
X024737Y006088D01*
X024709Y005970D02*
X024189Y005970D01*
X024189Y005851D02*
X024709Y005851D01*
X024737Y005733D02*
X024189Y005733D01*
X024189Y005614D02*
X024787Y005614D01*
X024897Y005496D02*
X024189Y005496D01*
X024189Y005377D02*
X025111Y005377D01*
X025407Y005377D02*
X025709Y005377D01*
X025709Y005259D02*
X024189Y005259D01*
X024189Y005140D02*
X025709Y005140D01*
X025709Y005022D02*
X024189Y005022D01*
X024189Y004903D02*
X025773Y004903D01*
X025709Y005496D02*
X025621Y005496D01*
X024189Y004073D02*
X028543Y004073D01*
X029492Y005259D02*
X029539Y005259D01*
X029539Y005377D02*
X029438Y005377D01*
X029539Y005496D02*
X029320Y005496D01*
X029178Y005614D02*
X029539Y005614D01*
X029465Y002532D02*
X029539Y002532D01*
X029434Y002486D02*
X029434Y002486D01*
X029539Y002414D02*
X029326Y002414D01*
X029148Y002295D02*
X029539Y002295D01*
X029539Y001702D02*
X027890Y001702D01*
X028114Y001584D02*
X029539Y001584D01*
X029539Y001465D02*
X028228Y001465D01*
X028277Y001347D02*
X029539Y001347D01*
X029515Y001228D02*
X028309Y001228D01*
X028309Y001110D02*
X029396Y001110D01*
X029278Y000991D02*
X028284Y000991D01*
X028235Y000873D02*
X029159Y000873D01*
X029041Y000754D02*
X028129Y000754D01*
X027927Y000635D02*
X028922Y000635D01*
X027591Y000635D02*
X026927Y000635D01*
X027129Y000754D02*
X027388Y000754D01*
X027283Y000873D02*
X027235Y000873D01*
X027228Y001465D02*
X027290Y001465D01*
X027404Y001584D02*
X027114Y001584D01*
X026890Y001702D02*
X027628Y001702D01*
X026628Y001702D02*
X025890Y001702D01*
X026114Y001584D02*
X026404Y001584D01*
X026290Y001465D02*
X026228Y001465D01*
X026235Y000873D02*
X026283Y000873D01*
X026388Y000754D02*
X026129Y000754D01*
X025927Y000635D02*
X026591Y000635D01*
X025591Y000635D02*
X024927Y000635D01*
X025129Y000754D02*
X025388Y000754D01*
X025283Y000873D02*
X025235Y000873D01*
X025228Y001465D02*
X025290Y001465D01*
X025404Y001584D02*
X025114Y001584D01*
X024890Y001702D02*
X025628Y001702D01*
X024628Y001702D02*
X023890Y001702D01*
X024114Y001584D02*
X024404Y001584D01*
X024290Y001465D02*
X024228Y001465D01*
X024235Y000873D02*
X024283Y000873D01*
X024388Y000754D02*
X024129Y000754D01*
X023927Y000635D02*
X024591Y000635D01*
X014279Y010237D02*
X014239Y010237D01*
X014239Y010356D02*
X014279Y010356D01*
X014279Y010475D02*
X014239Y010475D01*
X014239Y010593D02*
X014279Y010593D01*
X014279Y010712D02*
X014239Y010712D01*
X014239Y010830D02*
X014279Y010830D01*
X014279Y010949D02*
X014239Y010949D01*
X014239Y011067D02*
X014279Y011067D01*
X013916Y011067D02*
X013631Y011067D01*
X013735Y010949D02*
X013813Y010949D01*
X013583Y011660D02*
X015032Y011660D01*
X014864Y011779D02*
X013701Y011779D01*
X013820Y011897D02*
X014773Y011897D01*
X014810Y012490D02*
X013913Y012490D01*
X014031Y012608D02*
X014928Y012608D01*
X015590Y012608D02*
X018928Y012608D01*
X011532Y011660D02*
X006479Y011660D01*
X006479Y011779D02*
X011364Y011779D01*
X011273Y011897D02*
X006479Y011897D01*
X006479Y012016D02*
X011224Y012016D01*
X011209Y012134D02*
X006479Y012134D01*
X006479Y012253D02*
X011209Y012253D01*
X011251Y012371D02*
X006479Y012371D01*
X006479Y012490D02*
X011310Y012490D01*
X011428Y012608D02*
X006479Y012608D01*
X029181Y017113D02*
X029539Y017113D01*
X029539Y016994D02*
X029321Y016994D01*
X029440Y016876D02*
X029539Y016876D01*
X029539Y016757D02*
X029492Y016757D01*
X029533Y016165D02*
X029539Y016165D01*
X029539Y016046D02*
X029484Y016046D01*
X029539Y015928D02*
X029421Y015928D01*
X029539Y015809D02*
X029302Y015809D01*
D14*
X026759Y019661D02*
X026759Y020161D01*
X026759Y019661D02*
X023259Y016161D01*
X023259Y007161D01*
X022759Y006661D01*
X022259Y006661D01*
X022259Y004661D02*
X017759Y004661D01*
X017759Y009161D01*
X015259Y009161D01*
X017759Y009161D02*
X017759Y009661D01*
X017971Y009874D01*
X021975Y009874D01*
X019259Y012161D02*
X017759Y012161D01*
X017259Y011661D01*
X017259Y010661D01*
X015259Y012161D02*
X013759Y012161D01*
X013259Y011661D01*
X013259Y010661D01*
X011759Y009161D02*
X011759Y006161D01*
X009759Y004161D01*
X007759Y004161D01*
X007759Y005161D02*
X009759Y005161D01*
X010759Y006161D01*
X010759Y009661D01*
X016259Y015161D01*
X016259Y020161D01*
X017259Y020161D02*
X017259Y018661D01*
X017759Y018161D01*
X020259Y018161D01*
X021759Y019161D02*
X021759Y020161D01*
X021759Y019161D02*
X022259Y018661D01*
X023259Y018661D01*
X015259Y020161D02*
X015259Y015661D01*
X011759Y012161D01*
X017759Y004661D02*
X017759Y001161D01*
X016759Y001161D02*
X016759Y002661D01*
X016259Y003161D01*
X007759Y003161D01*
D15*
X020759Y001161D02*
X021759Y001161D01*
X023759Y003161D01*
X023759Y007911D01*
X025259Y007911D01*
X025509Y007911D01*
X026009Y007411D01*
X026259Y007411D01*
X023759Y007911D02*
X023759Y014661D01*
X024009Y014911D01*
X025259Y014911D01*
X025509Y014911D01*
X026009Y014411D01*
X026259Y014411D01*
D16*
X020259Y018161D03*
X023259Y018661D03*
M02*
