%
M48
M72
T01C0.0236
T02C0.0276
T03C0.0320
T04C0.0354
T05C0.0394
T06C0.0400
T07C0.1260
T08C0.1300
%
T01
X20259Y18161
X23259Y18661
T02
X21975Y11449
X21975Y10661
X21975Y9874
T03
X18259Y10661
X17259Y10661
X14259Y10661
X13259Y10661
T04
X11759Y9161
X15259Y9161
X19259Y9161
X19259Y12161
X15259Y12161
X11759Y12161
T05
X25259Y12911
X26259Y12411
X26259Y13411
X25259Y13911
X26259Y14411
X25259Y14911
X26259Y15411
X25259Y15911
X25259Y8911
X26259Y8411
X25259Y7911
X26259Y7411
X25259Y6911
X26259Y6411
X25259Y5911
X26259Y5411
T06
X7759Y3161
X7759Y4161
X7759Y5161
X7759Y6161
X7759Y7161
X15759Y1161
X16759Y1161
X17759Y1161
X18759Y1161
X19759Y1161
X20759Y1161
X22759Y1161
X23759Y1161
X24759Y1161
X25759Y1161
X26759Y1161
X27759Y1161
X22259Y2661
X22259Y3661
X22259Y4661
X22259Y5661
X22259Y6661
X22259Y7661
X22759Y20161
X23759Y20161
X24759Y20161
X25759Y20161
X26759Y20161
X27759Y20161
X21759Y20161
X20759Y20161
X19259Y20161
X18259Y20161
X17259Y20161
X16259Y20161
X15259Y20161
X14259Y20161
X13259Y20161
X12259Y20161
T07
X28759Y16411
X28759Y11911
X28759Y9411
X28759Y4911
T08
X28759Y3161
X8759Y20161
M30
