G75*
G70*
%OFA0B0*%
%FSLAX24Y24*%
%IPPOS*%
%LPD*%
%AMOC8*
5,1,8,0,0,1.08239X$1,22.5*
%
%ADD10C,0.0090*%
%ADD11C,0.0080*%
%ADD12C,0.0060*%
%ADD13C,0.0010*%
D10*
X008237Y000570D02*
X008407Y000570D01*
X008322Y000570D02*
X008322Y001080D01*
X008237Y001080D02*
X008407Y001080D01*
X008605Y001080D02*
X008861Y001080D01*
X008946Y000995D01*
X008946Y000825D01*
X008861Y000740D01*
X008605Y000740D01*
X008775Y000740D02*
X008946Y000570D01*
X008605Y000570D02*
X008605Y001080D01*
X009710Y001080D02*
X009965Y001080D01*
X010051Y000995D01*
X010051Y000655D01*
X009965Y000570D01*
X009710Y000570D01*
X009710Y001080D01*
X010263Y000825D02*
X010348Y000910D01*
X010518Y000910D01*
X010603Y000825D01*
X010603Y000740D01*
X010263Y000740D01*
X010263Y000655D02*
X010263Y000825D01*
X010263Y000655D02*
X010348Y000570D01*
X010518Y000570D01*
X010900Y000655D02*
X010985Y000570D01*
X010900Y000655D02*
X010900Y000995D01*
X010815Y000910D02*
X010985Y000910D01*
X011183Y000825D02*
X011269Y000910D01*
X011439Y000910D01*
X011524Y000825D01*
X011524Y000740D01*
X011183Y000740D01*
X011183Y000655D02*
X011183Y000825D01*
X011183Y000655D02*
X011269Y000570D01*
X011439Y000570D01*
X011736Y000655D02*
X011821Y000570D01*
X012076Y000570D01*
X012374Y000655D02*
X012459Y000570D01*
X012374Y000655D02*
X012374Y000995D01*
X012288Y000910D02*
X012459Y000910D01*
X012657Y000825D02*
X012657Y000655D01*
X012742Y000570D01*
X012912Y000570D01*
X012997Y000655D01*
X012997Y000825D01*
X012912Y000910D01*
X012742Y000910D01*
X012657Y000825D01*
X013209Y000740D02*
X013379Y000910D01*
X013464Y000910D01*
X013209Y000910D02*
X013209Y000570D01*
X012076Y000910D02*
X011821Y000910D01*
X011736Y000825D01*
X011736Y000655D01*
X014222Y000570D02*
X014477Y000570D01*
X014562Y000655D01*
X014562Y000740D01*
X014477Y000825D01*
X014222Y000825D01*
X014477Y000825D02*
X014562Y000910D01*
X014562Y000995D01*
X014477Y001080D01*
X014222Y001080D01*
X014222Y000570D01*
X014775Y000570D02*
X014775Y000910D01*
X014775Y000740D02*
X014945Y000910D01*
X015030Y000910D01*
X015235Y000825D02*
X015320Y000910D01*
X015490Y000910D01*
X015575Y000825D01*
X015575Y000740D01*
X015235Y000740D01*
X015235Y000655D02*
X015235Y000825D01*
X015235Y000655D02*
X015320Y000570D01*
X015490Y000570D01*
X015787Y000655D02*
X015872Y000740D01*
X016128Y000740D01*
X016128Y000825D02*
X016128Y000570D01*
X015872Y000570D01*
X015787Y000655D01*
X016043Y000910D02*
X016128Y000825D01*
X016043Y000910D02*
X015872Y000910D01*
X016340Y000740D02*
X016595Y000910D01*
X016800Y000825D02*
X016800Y000655D01*
X016885Y000570D01*
X017055Y000570D01*
X017141Y000655D01*
X017141Y000825D01*
X017055Y000910D01*
X016885Y000910D01*
X016800Y000825D01*
X016595Y000570D02*
X016340Y000740D01*
X016340Y000570D02*
X016340Y001080D01*
X017353Y000910D02*
X017353Y000655D01*
X017438Y000570D01*
X017693Y000570D01*
X017693Y000910D01*
X017905Y000910D02*
X018075Y000910D01*
X017990Y000995D02*
X017990Y000655D01*
X018075Y000570D01*
D11*
X008329Y002225D02*
X003211Y002225D01*
X003211Y008225D01*
X008329Y008225D01*
X008329Y002225D01*
X008682Y002155D02*
X009102Y002155D01*
X008682Y002015D02*
X008682Y002295D01*
X008892Y002475D02*
X009032Y002475D01*
X009102Y002545D01*
X009102Y002686D01*
X009032Y002756D01*
X008892Y002756D01*
X008822Y002686D01*
X008822Y002545D01*
X008892Y002475D01*
X009837Y003111D02*
X010998Y003111D01*
X010998Y002914D01*
X011786Y002914D01*
X011786Y003111D01*
X012947Y003111D01*
X012947Y001339D01*
X009837Y001339D01*
X009837Y003111D01*
X009837Y003339D02*
X009837Y005111D01*
X010998Y005111D01*
X010998Y004914D01*
X011786Y004914D01*
X011786Y005111D01*
X012947Y005111D01*
X012947Y003339D01*
X009837Y003339D01*
X009102Y003396D02*
X009102Y003536D01*
X009102Y003466D02*
X008682Y003466D01*
X008682Y003396D02*
X008682Y003536D01*
X008682Y003703D02*
X008682Y003913D01*
X008752Y003983D01*
X008892Y003983D01*
X008962Y003913D01*
X008962Y003703D01*
X009102Y003703D02*
X008682Y003703D01*
X008962Y003843D02*
X009102Y003983D01*
X009032Y004624D02*
X008752Y004624D01*
X008682Y004694D01*
X008682Y004834D01*
X008752Y004904D01*
X009032Y004904D02*
X009102Y004834D01*
X009102Y004694D01*
X009032Y004624D01*
X009032Y005084D02*
X009102Y005154D01*
X009102Y005294D01*
X009032Y005365D01*
X008892Y005365D01*
X008822Y005294D01*
X008822Y005154D01*
X008892Y005084D01*
X009032Y005084D01*
X009837Y005339D02*
X009837Y007111D01*
X010998Y007111D01*
X010998Y006914D01*
X011786Y006914D01*
X011786Y007111D01*
X012947Y007111D01*
X012947Y005339D01*
X009837Y005339D01*
X009102Y005545D02*
X008822Y005545D01*
X008822Y005755D01*
X008892Y005825D01*
X009102Y005825D01*
X008822Y006005D02*
X008822Y006145D01*
X008752Y006075D02*
X009032Y006075D01*
X009102Y006145D01*
X009102Y006312D02*
X008822Y006312D01*
X008962Y006312D02*
X008822Y006452D01*
X008822Y006522D01*
X008892Y006696D02*
X009032Y006696D01*
X009102Y006766D01*
X009102Y006906D01*
X009032Y006976D01*
X008892Y006976D01*
X008822Y006906D01*
X008822Y006766D01*
X008892Y006696D01*
X009102Y007156D02*
X009102Y007296D01*
X009102Y007226D02*
X008682Y007226D01*
X008682Y007156D01*
X008682Y007463D02*
X008682Y007533D01*
X009102Y007533D01*
X009102Y007463D02*
X009102Y007603D01*
X009032Y007770D02*
X008892Y007770D01*
X008822Y007840D01*
X008822Y007980D01*
X008892Y008050D01*
X008962Y008050D01*
X008962Y007770D01*
X009032Y007770D02*
X009102Y007840D01*
X009102Y007980D01*
X009102Y008230D02*
X008822Y008230D01*
X008962Y008230D02*
X008822Y008370D01*
X008822Y008440D01*
X009837Y009111D02*
X010998Y009111D01*
X010998Y008914D01*
X011786Y008914D01*
X011786Y009111D01*
X012947Y009111D01*
X012947Y007339D01*
X009837Y007339D01*
X009837Y009111D01*
X013182Y008676D02*
X013602Y008676D01*
X013602Y008536D02*
X013602Y008816D01*
X013322Y008536D02*
X013182Y008676D01*
X013182Y008356D02*
X013182Y008075D01*
X013182Y008216D02*
X013602Y008216D01*
X013532Y007895D02*
X013252Y007895D01*
X013182Y007825D01*
X013182Y007615D01*
X013602Y007615D01*
X013602Y007825D01*
X013532Y007895D01*
X013602Y006816D02*
X013602Y006536D01*
X013322Y006816D01*
X013252Y006816D01*
X013182Y006746D01*
X013182Y006606D01*
X013252Y006536D01*
X013182Y006356D02*
X013182Y006075D01*
X013182Y006216D02*
X013602Y006216D01*
X013532Y005895D02*
X013252Y005895D01*
X013182Y005825D01*
X013182Y005615D01*
X013602Y005615D01*
X013602Y005825D01*
X013532Y005895D01*
X013532Y004816D02*
X013602Y004746D01*
X013602Y004606D01*
X013532Y004536D01*
X013392Y004676D02*
X013392Y004746D01*
X013462Y004816D01*
X013532Y004816D01*
X013392Y004746D02*
X013322Y004816D01*
X013252Y004816D01*
X013182Y004746D01*
X013182Y004606D01*
X013252Y004536D01*
X013182Y004356D02*
X013182Y004075D01*
X013252Y003895D02*
X013182Y003825D01*
X013182Y003615D01*
X013602Y003615D01*
X013602Y003825D01*
X013532Y003895D01*
X013252Y003895D01*
X013182Y004216D02*
X013602Y004216D01*
X015892Y002975D02*
X015892Y002475D01*
X013602Y002216D02*
X013182Y002216D01*
X013182Y002356D02*
X013182Y002075D01*
X013252Y001895D02*
X013182Y001825D01*
X013182Y001615D01*
X013602Y001615D01*
X013602Y001825D01*
X013532Y001895D01*
X013252Y001895D01*
X013392Y002536D02*
X013392Y002816D01*
X013602Y002746D02*
X013182Y002746D01*
X013392Y002536D01*
X014242Y003725D02*
X014245Y003830D01*
X014252Y003936D01*
X014265Y004040D01*
X014283Y004144D01*
X014306Y004247D01*
X014335Y004349D01*
X014368Y004449D01*
X014406Y004548D01*
X014448Y004644D01*
X014496Y004739D01*
X014548Y004830D01*
X014604Y004919D01*
X014665Y005006D01*
X014730Y005089D01*
X014799Y005169D01*
X014872Y005245D01*
X014948Y005318D01*
X015028Y005387D01*
X015111Y005452D01*
X015198Y005513D01*
X015287Y005569D01*
X015378Y005621D01*
X015473Y005669D01*
X015569Y005711D01*
X015668Y005749D01*
X015768Y005782D01*
X015870Y005811D01*
X015973Y005834D01*
X016077Y005852D01*
X016181Y005865D01*
X016287Y005872D01*
X016392Y005875D01*
X016497Y005872D01*
X016603Y005865D01*
X016707Y005852D01*
X016811Y005834D01*
X016914Y005811D01*
X017016Y005782D01*
X017116Y005749D01*
X017215Y005711D01*
X017311Y005669D01*
X017406Y005621D01*
X017497Y005569D01*
X017586Y005513D01*
X017673Y005452D01*
X017756Y005387D01*
X017836Y005318D01*
X017912Y005245D01*
X017985Y005169D01*
X018054Y005089D01*
X018119Y005006D01*
X018180Y004919D01*
X018236Y004830D01*
X018288Y004739D01*
X018336Y004644D01*
X018378Y004548D01*
X018416Y004449D01*
X018449Y004349D01*
X018478Y004247D01*
X018501Y004144D01*
X018519Y004040D01*
X018532Y003936D01*
X018539Y003830D01*
X018542Y003725D01*
X018539Y003620D01*
X018532Y003514D01*
X018519Y003410D01*
X018501Y003306D01*
X018478Y003203D01*
X018449Y003101D01*
X018416Y003001D01*
X018378Y002902D01*
X018336Y002806D01*
X018288Y002711D01*
X018236Y002620D01*
X018180Y002531D01*
X018119Y002444D01*
X018054Y002361D01*
X017985Y002281D01*
X017912Y002205D01*
X017836Y002132D01*
X017756Y002063D01*
X017673Y001998D01*
X017586Y001937D01*
X017497Y001881D01*
X017406Y001829D01*
X017311Y001781D01*
X017215Y001739D01*
X017116Y001701D01*
X017016Y001668D01*
X016914Y001639D01*
X016811Y001616D01*
X016707Y001598D01*
X016603Y001585D01*
X016497Y001578D01*
X016392Y001575D01*
X016287Y001578D01*
X016181Y001585D01*
X016077Y001598D01*
X015973Y001616D01*
X015870Y001639D01*
X015768Y001668D01*
X015668Y001701D01*
X015569Y001739D01*
X015473Y001781D01*
X015378Y001829D01*
X015287Y001881D01*
X015198Y001937D01*
X015111Y001998D01*
X015028Y002063D01*
X014948Y002132D01*
X014872Y002205D01*
X014799Y002281D01*
X014730Y002361D01*
X014665Y002444D01*
X014604Y002531D01*
X014548Y002620D01*
X014496Y002711D01*
X014448Y002806D01*
X014406Y002902D01*
X014368Y003001D01*
X014335Y003101D01*
X014306Y003203D01*
X014283Y003306D01*
X014265Y003410D01*
X014252Y003514D01*
X014245Y003620D01*
X014242Y003725D01*
X018392Y006725D02*
X019392Y006725D01*
X019392Y008725D01*
X018392Y008725D01*
X018392Y006725D01*
X018642Y007725D02*
X019142Y007725D01*
X016892Y007975D02*
X016892Y008475D01*
X015112Y007725D02*
X015114Y007796D01*
X015120Y007867D01*
X015130Y007938D01*
X015144Y008007D01*
X015161Y008076D01*
X015183Y008144D01*
X015208Y008211D01*
X015237Y008276D01*
X015269Y008339D01*
X015305Y008401D01*
X015344Y008460D01*
X015387Y008517D01*
X015432Y008572D01*
X015481Y008624D01*
X015532Y008673D01*
X015586Y008719D01*
X015643Y008763D01*
X015701Y008803D01*
X015762Y008839D01*
X015825Y008873D01*
X015890Y008902D01*
X015956Y008928D01*
X016024Y008951D01*
X016092Y008969D01*
X016162Y008984D01*
X016232Y008995D01*
X016303Y009002D01*
X016374Y009005D01*
X016445Y009004D01*
X016516Y008999D01*
X016587Y008990D01*
X016657Y008977D01*
X016726Y008961D01*
X016794Y008940D01*
X016861Y008916D01*
X016927Y008888D01*
X016990Y008856D01*
X017052Y008821D01*
X017112Y008783D01*
X017170Y008741D01*
X017225Y008697D01*
X017278Y008649D01*
X017328Y008598D01*
X017375Y008545D01*
X017419Y008489D01*
X017460Y008431D01*
X017498Y008370D01*
X017532Y008308D01*
X017562Y008243D01*
X017589Y008178D01*
X017613Y008110D01*
X017632Y008042D01*
X017648Y007973D01*
X017660Y007902D01*
X017668Y007832D01*
X017672Y007761D01*
X017672Y007689D01*
X017668Y007618D01*
X017660Y007548D01*
X017648Y007477D01*
X017632Y007408D01*
X017613Y007340D01*
X017589Y007272D01*
X017562Y007207D01*
X017532Y007142D01*
X017498Y007080D01*
X017460Y007019D01*
X017419Y006961D01*
X017375Y006905D01*
X017328Y006852D01*
X017278Y006801D01*
X017225Y006753D01*
X017170Y006709D01*
X017112Y006667D01*
X017052Y006629D01*
X016990Y006594D01*
X016927Y006562D01*
X016861Y006534D01*
X016794Y006510D01*
X016726Y006489D01*
X016657Y006473D01*
X016587Y006460D01*
X016516Y006451D01*
X016445Y006446D01*
X016374Y006445D01*
X016303Y006448D01*
X016232Y006455D01*
X016162Y006466D01*
X016092Y006481D01*
X016024Y006499D01*
X015956Y006522D01*
X015890Y006548D01*
X015825Y006577D01*
X015762Y006611D01*
X015701Y006647D01*
X015643Y006687D01*
X015586Y006731D01*
X015532Y006777D01*
X015481Y006826D01*
X015432Y006878D01*
X015387Y006933D01*
X015344Y006990D01*
X015305Y007049D01*
X015269Y007111D01*
X015237Y007174D01*
X015208Y007239D01*
X015183Y007306D01*
X015161Y007374D01*
X015144Y007443D01*
X015130Y007512D01*
X015120Y007583D01*
X015114Y007654D01*
X015112Y007725D01*
X020892Y005975D02*
X020892Y004475D01*
X021092Y004225D02*
X021092Y006225D01*
X021392Y006225D01*
X021392Y006325D01*
X021392Y006225D02*
X021692Y006225D01*
X021692Y004225D01*
X021392Y004225D01*
X021392Y004125D01*
X021392Y004225D02*
X021092Y004225D01*
D12*
X020385Y003739D02*
X020329Y003795D01*
X020159Y003795D01*
X020159Y003455D01*
X020159Y003568D02*
X020329Y003568D01*
X020385Y003625D01*
X020385Y003739D01*
X020272Y003568D02*
X020385Y003455D01*
X020017Y003455D02*
X020017Y003795D01*
X019790Y003795D02*
X019790Y003455D01*
X019904Y003568D01*
X020017Y003455D01*
X019649Y003625D02*
X019649Y003739D01*
X019592Y003795D01*
X019422Y003795D01*
X019422Y003455D01*
X019422Y003568D02*
X019592Y003568D01*
X019649Y003625D01*
X021222Y004812D02*
X021278Y004755D01*
X021222Y004812D02*
X021222Y004925D01*
X021278Y004982D01*
X021335Y004982D01*
X021392Y004925D01*
X021449Y004982D01*
X021505Y004982D01*
X021562Y004925D01*
X021562Y004812D01*
X021505Y004755D01*
X021392Y004868D02*
X021392Y004925D01*
X021505Y005123D02*
X021562Y005180D01*
X021562Y005293D01*
X021505Y005350D01*
X021449Y005350D01*
X021392Y005293D01*
X021392Y005237D01*
X021392Y005293D02*
X021335Y005350D01*
X021278Y005350D01*
X021222Y005293D01*
X021222Y005180D01*
X021278Y005123D01*
X021278Y005492D02*
X021222Y005548D01*
X021222Y005662D01*
X021278Y005718D01*
X021505Y005492D01*
X021562Y005548D01*
X021562Y005662D01*
X021505Y005718D01*
X021278Y005718D01*
X021278Y005492D02*
X021505Y005492D01*
X018892Y005225D02*
X018894Y005288D01*
X018900Y005350D01*
X018910Y005412D01*
X018923Y005474D01*
X018941Y005534D01*
X018962Y005593D01*
X018987Y005651D01*
X019016Y005707D01*
X019048Y005761D01*
X019083Y005813D01*
X019121Y005862D01*
X019163Y005910D01*
X019207Y005954D01*
X019255Y005996D01*
X019304Y006034D01*
X019356Y006069D01*
X019410Y006101D01*
X019466Y006130D01*
X019524Y006155D01*
X019583Y006176D01*
X019643Y006194D01*
X019705Y006207D01*
X019767Y006217D01*
X019829Y006223D01*
X019892Y006225D01*
X019955Y006223D01*
X020017Y006217D01*
X020079Y006207D01*
X020141Y006194D01*
X020201Y006176D01*
X020260Y006155D01*
X020318Y006130D01*
X020374Y006101D01*
X020428Y006069D01*
X020480Y006034D01*
X020529Y005996D01*
X020577Y005954D01*
X020621Y005910D01*
X020663Y005862D01*
X020701Y005813D01*
X020736Y005761D01*
X020768Y005707D01*
X020797Y005651D01*
X020822Y005593D01*
X020843Y005534D01*
X020861Y005474D01*
X020874Y005412D01*
X020884Y005350D01*
X020890Y005288D01*
X020892Y005225D01*
X020890Y005162D01*
X020884Y005100D01*
X020874Y005038D01*
X020861Y004976D01*
X020843Y004916D01*
X020822Y004857D01*
X020797Y004799D01*
X020768Y004743D01*
X020736Y004689D01*
X020701Y004637D01*
X020663Y004588D01*
X020621Y004540D01*
X020577Y004496D01*
X020529Y004454D01*
X020480Y004416D01*
X020428Y004381D01*
X020374Y004349D01*
X020318Y004320D01*
X020260Y004295D01*
X020201Y004274D01*
X020141Y004256D01*
X020079Y004243D01*
X020017Y004233D01*
X019955Y004227D01*
X019892Y004225D01*
X019829Y004227D01*
X019767Y004233D01*
X019705Y004243D01*
X019643Y004256D01*
X019583Y004274D01*
X019524Y004295D01*
X019466Y004320D01*
X019410Y004349D01*
X019356Y004381D01*
X019304Y004416D01*
X019255Y004454D01*
X019207Y004496D01*
X019163Y004540D01*
X019121Y004588D01*
X019083Y004637D01*
X019048Y004689D01*
X019016Y004743D01*
X018987Y004799D01*
X018962Y004857D01*
X018941Y004916D01*
X018923Y004976D01*
X018910Y005038D01*
X018900Y005100D01*
X018894Y005162D01*
X018892Y005225D01*
D13*
X020924Y006005D02*
X020852Y005951D01*
X020853Y005952D02*
X020810Y006005D01*
X020765Y006056D01*
X020716Y006104D01*
X020665Y006149D01*
X020611Y006192D01*
X020555Y006231D01*
X020497Y006267D01*
X020437Y006300D01*
X020376Y006329D01*
X020312Y006354D01*
X020248Y006376D01*
X020182Y006395D01*
X020115Y006409D01*
X020048Y006420D01*
X019980Y006427D01*
X019912Y006430D01*
X019843Y006429D01*
X019775Y006424D01*
X019707Y006416D01*
X019640Y006403D01*
X019574Y006387D01*
X019509Y006367D01*
X019444Y006344D01*
X019382Y006317D01*
X019321Y006286D01*
X019262Y006252D01*
X019204Y006215D01*
X019149Y006174D01*
X019097Y006130D01*
X019047Y006084D01*
X019000Y006035D01*
X018955Y005983D01*
X018914Y005929D01*
X018875Y005872D01*
X018840Y005813D01*
X018809Y005753D01*
X018781Y005691D01*
X018756Y005627D01*
X018735Y005562D01*
X018718Y005496D01*
X018704Y005429D01*
X018695Y005361D01*
X018689Y005293D01*
X018687Y005225D01*
X018689Y005157D01*
X018695Y005089D01*
X018704Y005021D01*
X018718Y004954D01*
X018735Y004888D01*
X018756Y004823D01*
X018781Y004759D01*
X018809Y004697D01*
X018840Y004637D01*
X018875Y004578D01*
X018914Y004521D01*
X018955Y004467D01*
X019000Y004415D01*
X019047Y004366D01*
X019097Y004320D01*
X019149Y004276D01*
X019204Y004235D01*
X019262Y004198D01*
X019321Y004164D01*
X019382Y004133D01*
X019444Y004106D01*
X019509Y004083D01*
X019574Y004063D01*
X019640Y004047D01*
X019707Y004034D01*
X019775Y004026D01*
X019843Y004021D01*
X019912Y004020D01*
X019980Y004023D01*
X020048Y004030D01*
X020115Y004041D01*
X020182Y004055D01*
X020248Y004074D01*
X020312Y004096D01*
X020376Y004121D01*
X020437Y004150D01*
X020497Y004183D01*
X020555Y004219D01*
X020611Y004258D01*
X020665Y004301D01*
X020716Y004346D01*
X020765Y004394D01*
X020810Y004445D01*
X020853Y004498D01*
X020924Y004445D01*
X020925Y004444D01*
X020881Y004389D01*
X020833Y004336D01*
X020783Y004285D01*
X020730Y004238D01*
X020675Y004194D01*
X020617Y004152D01*
X020557Y004114D01*
X020496Y004079D01*
X020432Y004048D01*
X020367Y004020D01*
X020300Y003996D01*
X020232Y003975D01*
X020163Y003959D01*
X020093Y003946D01*
X020023Y003937D01*
X019952Y003931D01*
X019881Y003930D01*
X019810Y003933D01*
X019739Y003939D01*
X019669Y003949D01*
X019600Y003963D01*
X019531Y003981D01*
X019463Y004003D01*
X019397Y004028D01*
X019332Y004057D01*
X019269Y004090D01*
X019208Y004126D01*
X019149Y004165D01*
X019092Y004207D01*
X019037Y004252D01*
X018985Y004301D01*
X018936Y004352D01*
X018889Y004405D01*
X018846Y004462D01*
X018806Y004520D01*
X018769Y004581D01*
X018735Y004643D01*
X018705Y004707D01*
X018678Y004773D01*
X018655Y004840D01*
X018636Y004909D01*
X018621Y004978D01*
X018609Y005048D01*
X018601Y005119D01*
X018597Y005190D01*
X018597Y005260D01*
X018601Y005331D01*
X018609Y005402D01*
X018621Y005472D01*
X018636Y005541D01*
X018655Y005610D01*
X018678Y005677D01*
X018705Y005743D01*
X018735Y005807D01*
X018769Y005869D01*
X018806Y005930D01*
X018846Y005988D01*
X018889Y006045D01*
X018936Y006098D01*
X018985Y006149D01*
X019037Y006198D01*
X019092Y006243D01*
X019149Y006285D01*
X019208Y006324D01*
X019269Y006360D01*
X019332Y006393D01*
X019397Y006422D01*
X019463Y006447D01*
X019531Y006469D01*
X019600Y006487D01*
X019669Y006501D01*
X019739Y006511D01*
X019810Y006517D01*
X019881Y006520D01*
X019952Y006519D01*
X020023Y006513D01*
X020093Y006504D01*
X020163Y006491D01*
X020232Y006475D01*
X020300Y006454D01*
X020367Y006430D01*
X020432Y006402D01*
X020496Y006371D01*
X020557Y006336D01*
X020617Y006298D01*
X020675Y006256D01*
X020730Y006212D01*
X020783Y006165D01*
X020833Y006114D01*
X020881Y006061D01*
X020925Y006006D01*
X020918Y006001D01*
X020873Y006056D01*
X020826Y006109D01*
X020775Y006160D01*
X020722Y006207D01*
X020666Y006252D01*
X020608Y006293D01*
X020548Y006331D01*
X020486Y006366D01*
X020422Y006397D01*
X020356Y006424D01*
X020289Y006448D01*
X020220Y006468D01*
X020151Y006485D01*
X020081Y006497D01*
X020010Y006506D01*
X019939Y006510D01*
X019868Y006511D01*
X019797Y006507D01*
X019726Y006500D01*
X019655Y006489D01*
X019586Y006474D01*
X019517Y006455D01*
X019449Y006432D01*
X019383Y006406D01*
X019318Y006376D01*
X019256Y006342D01*
X019195Y006306D01*
X019136Y006265D01*
X019079Y006222D01*
X019025Y006175D01*
X018974Y006126D01*
X018926Y006073D01*
X018880Y006019D01*
X018838Y005961D01*
X018799Y005902D01*
X018763Y005840D01*
X018730Y005777D01*
X018702Y005712D01*
X018676Y005645D01*
X018655Y005577D01*
X018637Y005508D01*
X018624Y005438D01*
X018614Y005367D01*
X018608Y005296D01*
X018606Y005225D01*
X018608Y005154D01*
X018614Y005083D01*
X018624Y005012D01*
X018637Y004942D01*
X018655Y004873D01*
X018676Y004805D01*
X018702Y004738D01*
X018730Y004673D01*
X018763Y004610D01*
X018799Y004548D01*
X018838Y004489D01*
X018880Y004431D01*
X018926Y004377D01*
X018974Y004324D01*
X019025Y004275D01*
X019079Y004228D01*
X019136Y004185D01*
X019195Y004144D01*
X019256Y004108D01*
X019318Y004074D01*
X019383Y004044D01*
X019449Y004018D01*
X019517Y003995D01*
X019586Y003976D01*
X019655Y003961D01*
X019726Y003950D01*
X019797Y003943D01*
X019868Y003939D01*
X019939Y003940D01*
X020010Y003944D01*
X020081Y003953D01*
X020151Y003965D01*
X020220Y003982D01*
X020289Y004002D01*
X020356Y004026D01*
X020422Y004053D01*
X020486Y004084D01*
X020548Y004119D01*
X020608Y004157D01*
X020666Y004198D01*
X020722Y004243D01*
X020775Y004290D01*
X020826Y004341D01*
X020873Y004394D01*
X020918Y004449D01*
X020911Y004455D01*
X020866Y004400D01*
X020819Y004347D01*
X020769Y004297D01*
X020716Y004250D01*
X020661Y004206D01*
X020603Y004164D01*
X020544Y004127D01*
X020482Y004092D01*
X020418Y004061D01*
X020353Y004034D01*
X020286Y004010D01*
X020218Y003990D01*
X020149Y003974D01*
X020080Y003962D01*
X020009Y003953D01*
X019939Y003949D01*
X019868Y003948D01*
X019797Y003952D01*
X019727Y003959D01*
X019657Y003970D01*
X019588Y003985D01*
X019520Y004004D01*
X019452Y004026D01*
X019387Y004052D01*
X019322Y004082D01*
X019260Y004115D01*
X019200Y004152D01*
X019141Y004192D01*
X019085Y004235D01*
X019031Y004281D01*
X018981Y004331D01*
X018932Y004382D01*
X018887Y004437D01*
X018845Y004494D01*
X018806Y004553D01*
X018771Y004614D01*
X018738Y004677D01*
X018710Y004742D01*
X018685Y004808D01*
X018664Y004876D01*
X018646Y004944D01*
X018633Y005014D01*
X018623Y005084D01*
X018617Y005154D01*
X018615Y005225D01*
X018617Y005296D01*
X018623Y005366D01*
X018633Y005436D01*
X018646Y005506D01*
X018664Y005574D01*
X018685Y005642D01*
X018710Y005708D01*
X018738Y005773D01*
X018771Y005836D01*
X018806Y005897D01*
X018845Y005956D01*
X018887Y006013D01*
X018932Y006068D01*
X018981Y006119D01*
X019031Y006169D01*
X019085Y006215D01*
X019141Y006258D01*
X019200Y006298D01*
X019260Y006335D01*
X019322Y006368D01*
X019387Y006398D01*
X019452Y006424D01*
X019520Y006446D01*
X019588Y006465D01*
X019657Y006480D01*
X019727Y006491D01*
X019797Y006498D01*
X019868Y006502D01*
X019939Y006501D01*
X020009Y006497D01*
X020080Y006488D01*
X020149Y006476D01*
X020218Y006460D01*
X020286Y006440D01*
X020353Y006416D01*
X020418Y006389D01*
X020482Y006358D01*
X020544Y006323D01*
X020603Y006286D01*
X020661Y006244D01*
X020716Y006200D01*
X020769Y006153D01*
X020819Y006103D01*
X020866Y006050D01*
X020911Y005995D01*
X020903Y005990D01*
X020859Y006045D01*
X020811Y006098D01*
X020761Y006148D01*
X020708Y006196D01*
X020652Y006240D01*
X020594Y006281D01*
X020534Y006318D01*
X020472Y006353D01*
X020408Y006383D01*
X020342Y006410D01*
X020275Y006434D01*
X020207Y006453D01*
X020137Y006469D01*
X020067Y006481D01*
X019997Y006489D01*
X019926Y006493D01*
X019855Y006492D01*
X019784Y006488D01*
X019713Y006480D01*
X019643Y006468D01*
X019574Y006452D01*
X019506Y006433D01*
X019438Y006409D01*
X019373Y006382D01*
X019309Y006351D01*
X019247Y006317D01*
X019187Y006279D01*
X019129Y006237D01*
X019073Y006193D01*
X019020Y006146D01*
X018970Y006095D01*
X018923Y006042D01*
X018878Y005987D01*
X018837Y005929D01*
X018800Y005869D01*
X018765Y005806D01*
X018734Y005742D01*
X018707Y005677D01*
X018684Y005610D01*
X018664Y005541D01*
X018648Y005472D01*
X018636Y005402D01*
X018628Y005331D01*
X018624Y005261D01*
X018624Y005189D01*
X018628Y005119D01*
X018636Y005048D01*
X018648Y004978D01*
X018664Y004909D01*
X018684Y004840D01*
X018707Y004773D01*
X018734Y004708D01*
X018765Y004644D01*
X018800Y004581D01*
X018837Y004521D01*
X018878Y004463D01*
X018923Y004408D01*
X018970Y004355D01*
X019020Y004304D01*
X019073Y004257D01*
X019129Y004213D01*
X019187Y004171D01*
X019247Y004133D01*
X019309Y004099D01*
X019373Y004068D01*
X019438Y004041D01*
X019506Y004017D01*
X019574Y003998D01*
X019643Y003982D01*
X019713Y003970D01*
X019784Y003962D01*
X019855Y003958D01*
X019926Y003957D01*
X019997Y003961D01*
X020067Y003969D01*
X020137Y003981D01*
X020207Y003997D01*
X020275Y004016D01*
X020342Y004040D01*
X020408Y004067D01*
X020472Y004097D01*
X020534Y004132D01*
X020594Y004169D01*
X020652Y004210D01*
X020708Y004254D01*
X020761Y004302D01*
X020811Y004352D01*
X020859Y004405D01*
X020903Y004460D01*
X020896Y004466D01*
X020852Y004411D01*
X020805Y004358D01*
X020755Y004308D01*
X020702Y004261D01*
X020647Y004217D01*
X020589Y004177D01*
X020530Y004139D01*
X020468Y004105D01*
X020404Y004075D01*
X020339Y004048D01*
X020272Y004025D01*
X020204Y004005D01*
X020136Y003990D01*
X020066Y003978D01*
X019996Y003970D01*
X019925Y003966D01*
X019855Y003967D01*
X019784Y003971D01*
X019714Y003979D01*
X019645Y003991D01*
X019576Y004006D01*
X019508Y004026D01*
X019442Y004049D01*
X019377Y004076D01*
X019313Y004107D01*
X019251Y004141D01*
X019192Y004179D01*
X019134Y004220D01*
X019079Y004264D01*
X019026Y004311D01*
X018977Y004361D01*
X018930Y004413D01*
X018886Y004469D01*
X018845Y004526D01*
X018807Y004586D01*
X018773Y004648D01*
X018743Y004711D01*
X018716Y004776D01*
X018692Y004843D01*
X018673Y004911D01*
X018657Y004980D01*
X018645Y005049D01*
X018637Y005119D01*
X018633Y005190D01*
X018633Y005260D01*
X018637Y005331D01*
X018645Y005401D01*
X018657Y005470D01*
X018673Y005539D01*
X018692Y005607D01*
X018716Y005674D01*
X018743Y005739D01*
X018773Y005802D01*
X018807Y005864D01*
X018845Y005924D01*
X018886Y005981D01*
X018930Y006037D01*
X018977Y006089D01*
X019026Y006139D01*
X019079Y006186D01*
X019134Y006230D01*
X019192Y006271D01*
X019251Y006309D01*
X019313Y006343D01*
X019377Y006374D01*
X019442Y006401D01*
X019508Y006424D01*
X019576Y006444D01*
X019645Y006459D01*
X019714Y006471D01*
X019784Y006479D01*
X019855Y006483D01*
X019925Y006484D01*
X019996Y006480D01*
X020066Y006472D01*
X020136Y006460D01*
X020204Y006445D01*
X020272Y006425D01*
X020339Y006402D01*
X020404Y006375D01*
X020468Y006345D01*
X020530Y006311D01*
X020589Y006273D01*
X020647Y006233D01*
X020702Y006189D01*
X020755Y006142D01*
X020805Y006092D01*
X020852Y006039D01*
X020896Y005984D01*
X020889Y005979D01*
X020845Y006034D01*
X020798Y006086D01*
X020749Y006135D01*
X020696Y006182D01*
X020642Y006225D01*
X020584Y006266D01*
X020525Y006303D01*
X020464Y006337D01*
X020400Y006367D01*
X020336Y006394D01*
X020269Y006417D01*
X020202Y006436D01*
X020134Y006451D01*
X020065Y006463D01*
X019995Y006471D01*
X019925Y006475D01*
X019855Y006474D01*
X019785Y006470D01*
X019716Y006462D01*
X019647Y006451D01*
X019578Y006435D01*
X019511Y006416D01*
X019445Y006392D01*
X019380Y006365D01*
X019317Y006335D01*
X019256Y006301D01*
X019197Y006264D01*
X019139Y006223D01*
X019085Y006179D01*
X019033Y006133D01*
X018983Y006083D01*
X018936Y006031D01*
X018893Y005976D01*
X018852Y005919D01*
X018815Y005860D01*
X018781Y005798D01*
X018751Y005735D01*
X018724Y005670D01*
X018701Y005604D01*
X018682Y005537D01*
X018666Y005469D01*
X018654Y005400D01*
X018646Y005330D01*
X018642Y005260D01*
X018642Y005190D01*
X018646Y005120D01*
X018654Y005050D01*
X018666Y004981D01*
X018682Y004913D01*
X018701Y004846D01*
X018724Y004780D01*
X018751Y004715D01*
X018781Y004652D01*
X018815Y004590D01*
X018852Y004531D01*
X018893Y004474D01*
X018936Y004419D01*
X018983Y004367D01*
X019033Y004317D01*
X019085Y004271D01*
X019139Y004227D01*
X019197Y004186D01*
X019256Y004149D01*
X019317Y004115D01*
X019380Y004085D01*
X019445Y004058D01*
X019511Y004034D01*
X019578Y004015D01*
X019647Y003999D01*
X019716Y003988D01*
X019785Y003980D01*
X019855Y003976D01*
X019925Y003975D01*
X019995Y003979D01*
X020065Y003987D01*
X020134Y003999D01*
X020202Y004014D01*
X020269Y004033D01*
X020336Y004056D01*
X020400Y004083D01*
X020464Y004113D01*
X020525Y004147D01*
X020584Y004184D01*
X020642Y004225D01*
X020696Y004268D01*
X020749Y004315D01*
X020798Y004364D01*
X020845Y004416D01*
X020889Y004471D01*
X020882Y004476D01*
X020838Y004422D01*
X020792Y004370D01*
X020743Y004321D01*
X020691Y004275D01*
X020636Y004232D01*
X020579Y004192D01*
X020520Y004155D01*
X020459Y004121D01*
X020397Y004091D01*
X020332Y004065D01*
X020267Y004042D01*
X020200Y004023D01*
X020132Y004007D01*
X020063Y003996D01*
X019994Y003988D01*
X019925Y003984D01*
X019855Y003985D01*
X019786Y003989D01*
X019717Y003996D01*
X019648Y004008D01*
X019581Y004024D01*
X019514Y004043D01*
X019448Y004066D01*
X019384Y004093D01*
X019321Y004123D01*
X019260Y004157D01*
X019202Y004194D01*
X019145Y004234D01*
X019091Y004277D01*
X019039Y004324D01*
X018990Y004373D01*
X018943Y004425D01*
X018900Y004479D01*
X018860Y004536D01*
X018823Y004595D01*
X018789Y004656D01*
X018759Y004719D01*
X018732Y004783D01*
X018709Y004848D01*
X018690Y004915D01*
X018675Y004983D01*
X018663Y005052D01*
X018655Y005121D01*
X018651Y005190D01*
X018651Y005260D01*
X018655Y005329D01*
X018663Y005398D01*
X018675Y005467D01*
X018690Y005535D01*
X018709Y005602D01*
X018732Y005667D01*
X018759Y005731D01*
X018789Y005794D01*
X018823Y005855D01*
X018860Y005914D01*
X018900Y005971D01*
X018943Y006025D01*
X018990Y006077D01*
X019039Y006126D01*
X019091Y006173D01*
X019145Y006216D01*
X019202Y006256D01*
X019260Y006293D01*
X019321Y006327D01*
X019384Y006357D01*
X019448Y006384D01*
X019514Y006407D01*
X019581Y006426D01*
X019648Y006442D01*
X019717Y006454D01*
X019786Y006461D01*
X019855Y006465D01*
X019925Y006466D01*
X019994Y006462D01*
X020063Y006454D01*
X020132Y006443D01*
X020200Y006427D01*
X020267Y006408D01*
X020332Y006385D01*
X020397Y006359D01*
X020459Y006329D01*
X020520Y006295D01*
X020579Y006258D01*
X020636Y006218D01*
X020691Y006175D01*
X020743Y006129D01*
X020792Y006080D01*
X020838Y006028D01*
X020882Y005974D01*
X020875Y005968D01*
X020831Y006022D01*
X020785Y006073D01*
X020736Y006122D01*
X020685Y006168D01*
X020631Y006211D01*
X020574Y006251D01*
X020516Y006287D01*
X020455Y006321D01*
X020393Y006351D01*
X020329Y006377D01*
X020264Y006399D01*
X020198Y006418D01*
X020130Y006434D01*
X020062Y006445D01*
X019994Y006453D01*
X019925Y006457D01*
X019856Y006456D01*
X019787Y006452D01*
X019718Y006445D01*
X019650Y006433D01*
X019583Y006418D01*
X019516Y006398D01*
X019451Y006375D01*
X019388Y006349D01*
X019325Y006319D01*
X019265Y006286D01*
X019207Y006249D01*
X019150Y006209D01*
X019096Y006166D01*
X019045Y006120D01*
X018996Y006071D01*
X018950Y006019D01*
X018907Y005965D01*
X018867Y005909D01*
X018831Y005850D01*
X018797Y005790D01*
X018767Y005728D01*
X018741Y005664D01*
X018718Y005599D01*
X018699Y005532D01*
X018684Y005465D01*
X018672Y005397D01*
X018664Y005328D01*
X018660Y005260D01*
X018660Y005190D01*
X018664Y005122D01*
X018672Y005053D01*
X018684Y004985D01*
X018699Y004918D01*
X018718Y004851D01*
X018741Y004786D01*
X018767Y004722D01*
X018797Y004660D01*
X018831Y004600D01*
X018867Y004541D01*
X018907Y004485D01*
X018950Y004431D01*
X018996Y004379D01*
X019045Y004330D01*
X019096Y004284D01*
X019150Y004241D01*
X019207Y004201D01*
X019265Y004164D01*
X019325Y004131D01*
X019388Y004101D01*
X019451Y004075D01*
X019516Y004052D01*
X019583Y004032D01*
X019650Y004017D01*
X019718Y004005D01*
X019787Y003998D01*
X019856Y003994D01*
X019925Y003993D01*
X019994Y003997D01*
X020062Y004005D01*
X020130Y004016D01*
X020198Y004032D01*
X020264Y004051D01*
X020329Y004073D01*
X020393Y004099D01*
X020455Y004129D01*
X020516Y004163D01*
X020574Y004199D01*
X020631Y004239D01*
X020685Y004282D01*
X020736Y004328D01*
X020785Y004377D01*
X020831Y004428D01*
X020875Y004482D01*
X020867Y004487D01*
X020824Y004433D01*
X020778Y004382D01*
X020728Y004333D01*
X020677Y004287D01*
X020622Y004244D01*
X020565Y004204D01*
X020507Y004168D01*
X020446Y004134D01*
X020383Y004105D01*
X020319Y004079D01*
X020253Y004057D01*
X020186Y004038D01*
X020119Y004023D01*
X020050Y004012D01*
X019981Y004005D01*
X019912Y004002D01*
X019843Y004003D01*
X019773Y004008D01*
X019705Y004016D01*
X019637Y004029D01*
X019569Y004045D01*
X019503Y004066D01*
X019438Y004089D01*
X019374Y004117D01*
X019312Y004148D01*
X019252Y004183D01*
X019194Y004221D01*
X019138Y004262D01*
X019085Y004306D01*
X019034Y004353D01*
X018986Y004403D01*
X018941Y004456D01*
X018899Y004511D01*
X018860Y004568D01*
X018825Y004628D01*
X018793Y004689D01*
X018764Y004752D01*
X018739Y004817D01*
X018718Y004883D01*
X018700Y004950D01*
X018687Y005018D01*
X018677Y005087D01*
X018671Y005156D01*
X018669Y005225D01*
X018671Y005294D01*
X018677Y005363D01*
X018687Y005432D01*
X018700Y005500D01*
X018718Y005567D01*
X018739Y005633D01*
X018764Y005698D01*
X018793Y005761D01*
X018825Y005822D01*
X018860Y005882D01*
X018899Y005939D01*
X018941Y005994D01*
X018986Y006047D01*
X019034Y006097D01*
X019085Y006144D01*
X019138Y006188D01*
X019194Y006229D01*
X019252Y006267D01*
X019312Y006302D01*
X019374Y006333D01*
X019438Y006361D01*
X019503Y006384D01*
X019569Y006405D01*
X019637Y006421D01*
X019705Y006434D01*
X019773Y006442D01*
X019843Y006447D01*
X019912Y006448D01*
X019981Y006445D01*
X020050Y006438D01*
X020119Y006427D01*
X020186Y006412D01*
X020253Y006393D01*
X020319Y006371D01*
X020383Y006345D01*
X020446Y006316D01*
X020507Y006282D01*
X020565Y006246D01*
X020622Y006206D01*
X020677Y006163D01*
X020728Y006117D01*
X020778Y006068D01*
X020824Y006017D01*
X020867Y005963D01*
X020860Y005957D01*
X020817Y006011D01*
X020771Y006062D01*
X020722Y006111D01*
X020671Y006156D01*
X020617Y006199D01*
X020560Y006238D01*
X020502Y006275D01*
X020442Y006308D01*
X020379Y006337D01*
X020316Y006363D01*
X020250Y006385D01*
X020184Y006403D01*
X020117Y006418D01*
X020049Y006429D01*
X019980Y006436D01*
X019912Y006439D01*
X019843Y006438D01*
X019774Y006433D01*
X019706Y006425D01*
X019638Y006412D01*
X019572Y006396D01*
X019506Y006376D01*
X019441Y006352D01*
X019378Y006325D01*
X019317Y006294D01*
X019257Y006260D01*
X019199Y006222D01*
X019144Y006181D01*
X019091Y006137D01*
X019041Y006090D01*
X018993Y006041D01*
X018948Y005989D01*
X018906Y005934D01*
X018868Y005877D01*
X018833Y005818D01*
X018801Y005757D01*
X018772Y005694D01*
X018748Y005630D01*
X018726Y005564D01*
X018709Y005498D01*
X018696Y005430D01*
X018686Y005362D01*
X018680Y005294D01*
X018678Y005225D01*
X018680Y005156D01*
X018686Y005088D01*
X018696Y005020D01*
X018709Y004952D01*
X018726Y004886D01*
X018748Y004820D01*
X018772Y004756D01*
X018801Y004693D01*
X018833Y004632D01*
X018868Y004573D01*
X018906Y004516D01*
X018948Y004461D01*
X018993Y004409D01*
X019041Y004360D01*
X019091Y004313D01*
X019144Y004269D01*
X019199Y004228D01*
X019257Y004190D01*
X019317Y004156D01*
X019378Y004125D01*
X019441Y004098D01*
X019506Y004074D01*
X019572Y004054D01*
X019638Y004038D01*
X019706Y004025D01*
X019774Y004017D01*
X019843Y004012D01*
X019912Y004011D01*
X019980Y004014D01*
X020049Y004021D01*
X020117Y004032D01*
X020184Y004047D01*
X020250Y004065D01*
X020316Y004087D01*
X020379Y004113D01*
X020442Y004142D01*
X020502Y004175D01*
X020560Y004212D01*
X020617Y004251D01*
X020671Y004294D01*
X020722Y004339D01*
X020771Y004388D01*
X020817Y004439D01*
X020860Y004493D01*
X020092Y006976D02*
X020284Y007192D01*
X020318Y007223D01*
X020358Y007247D01*
X020373Y007252D01*
X020388Y007255D01*
X020478Y007255D01*
X020532Y007260D01*
X020584Y007274D01*
X020632Y007298D01*
X020678Y007330D01*
X020718Y007368D01*
X020753Y007412D01*
X020790Y007478D01*
X020815Y007550D01*
X020826Y007625D01*
X020824Y007701D01*
X020816Y007742D01*
X020802Y007781D01*
X020782Y007818D01*
X020746Y007863D01*
X020702Y007899D01*
X020702Y007864D01*
X020701Y007858D01*
X020750Y007858D01*
X020757Y007850D02*
X020696Y007850D01*
X020699Y007853D02*
X020687Y007839D01*
X020672Y007828D01*
X020664Y007825D01*
X020641Y007823D01*
X020619Y007827D01*
X020599Y007837D01*
X020563Y007863D01*
X020546Y007877D01*
X020532Y007894D01*
X020520Y007913D01*
X020512Y007933D01*
X020509Y007946D01*
X020510Y007959D01*
X020517Y007981D01*
X020528Y008000D01*
X020545Y008015D01*
X020565Y008026D01*
X020585Y008032D01*
X020606Y008034D01*
X020630Y008034D01*
X020630Y008034D01*
X020629Y008035D01*
X020612Y008048D01*
X020592Y008057D01*
X020578Y008063D01*
X020569Y008067D01*
X020534Y008076D01*
X020499Y008079D01*
X020465Y008076D01*
X020432Y008067D01*
X020401Y008052D01*
X020370Y008030D01*
X020343Y008004D01*
X020326Y007980D01*
X020315Y007953D01*
X020312Y007924D01*
X020316Y007895D01*
X020327Y007868D01*
X020374Y007799D01*
X020431Y007738D01*
X020446Y007720D01*
X020456Y007699D01*
X020460Y007676D01*
X020459Y007653D01*
X020451Y007631D01*
X020438Y007612D01*
X020420Y007597D01*
X020398Y007585D01*
X020374Y007577D01*
X020349Y007573D01*
X020320Y007574D01*
X020292Y007583D01*
X020267Y007598D01*
X020254Y007612D01*
X020245Y007629D01*
X020241Y007647D01*
X020241Y007664D01*
X020245Y007682D01*
X020249Y007689D01*
X020254Y007694D01*
X020287Y007718D01*
X020293Y007721D01*
X020300Y007723D01*
X020307Y007722D01*
X020288Y007725D01*
X020251Y007728D01*
X020214Y007725D01*
X020186Y007718D01*
X020161Y007705D01*
X020138Y007688D01*
X020120Y007666D01*
X020104Y007637D01*
X020095Y007606D01*
X020092Y007573D01*
X020092Y006976D01*
X020092Y006983D02*
X020098Y006983D01*
X020092Y006991D02*
X020106Y006991D01*
X020113Y007000D02*
X020092Y007000D01*
X020092Y007008D02*
X020121Y007008D01*
X020128Y007017D02*
X020092Y007017D01*
X020092Y007025D02*
X020136Y007025D01*
X020143Y007034D02*
X020092Y007034D01*
X020092Y007042D02*
X020151Y007042D01*
X020158Y007051D02*
X020092Y007051D01*
X020092Y007059D02*
X020166Y007059D01*
X020174Y007068D02*
X020092Y007068D01*
X020092Y007076D02*
X020181Y007076D01*
X020189Y007085D02*
X020092Y007085D01*
X020092Y007093D02*
X020196Y007093D01*
X020204Y007102D02*
X020092Y007102D01*
X020092Y007110D02*
X020211Y007110D01*
X020219Y007119D02*
X020092Y007119D01*
X020092Y007127D02*
X020226Y007127D01*
X020234Y007136D02*
X020092Y007136D01*
X020092Y007144D02*
X020241Y007144D01*
X020249Y007153D02*
X020092Y007153D01*
X020092Y007161D02*
X020257Y007161D01*
X020264Y007170D02*
X020092Y007170D01*
X020092Y007178D02*
X020272Y007178D01*
X020279Y007187D02*
X020092Y007187D01*
X020092Y007195D02*
X020287Y007195D01*
X020297Y007204D02*
X020092Y007204D01*
X020092Y007212D02*
X020306Y007212D01*
X020315Y007221D02*
X020092Y007221D01*
X020092Y007229D02*
X020328Y007229D01*
X020342Y007238D02*
X020092Y007238D01*
X020092Y007246D02*
X020357Y007246D01*
X020386Y007255D02*
X020092Y007255D01*
X020092Y007263D02*
X020544Y007263D01*
X020574Y007272D02*
X020092Y007272D01*
X020092Y007280D02*
X020596Y007280D01*
X020613Y007289D02*
X020092Y007289D01*
X020092Y007297D02*
X020630Y007297D01*
X020643Y007306D02*
X020092Y007306D01*
X020092Y007314D02*
X020655Y007314D01*
X020667Y007323D02*
X020092Y007323D01*
X020092Y007331D02*
X020679Y007331D01*
X020688Y007340D02*
X020092Y007340D01*
X020092Y007348D02*
X020697Y007348D01*
X020706Y007357D02*
X020092Y007357D01*
X020092Y007365D02*
X020715Y007365D01*
X020722Y007374D02*
X020092Y007374D01*
X020092Y007382D02*
X020729Y007382D01*
X020736Y007391D02*
X020092Y007391D01*
X020092Y007399D02*
X020743Y007399D01*
X020750Y007408D02*
X020092Y007408D01*
X020092Y007416D02*
X020755Y007416D01*
X020760Y007425D02*
X020092Y007425D01*
X020092Y007433D02*
X020765Y007433D01*
X020770Y007442D02*
X020092Y007442D01*
X020092Y007450D02*
X020775Y007450D01*
X020779Y007459D02*
X020092Y007459D01*
X020092Y007467D02*
X020784Y007467D01*
X020789Y007476D02*
X020092Y007476D01*
X020092Y007484D02*
X020792Y007484D01*
X020795Y007493D02*
X020092Y007493D01*
X020092Y007501D02*
X020798Y007501D01*
X020801Y007510D02*
X020092Y007510D01*
X020092Y007518D02*
X020804Y007518D01*
X020807Y007527D02*
X020092Y007527D01*
X020092Y007535D02*
X020810Y007535D01*
X020813Y007544D02*
X020092Y007544D01*
X020092Y007552D02*
X020815Y007552D01*
X020817Y007561D02*
X020092Y007561D01*
X020092Y007569D02*
X020818Y007569D01*
X020819Y007578D02*
X020376Y007578D01*
X020400Y007586D02*
X020820Y007586D01*
X020822Y007595D02*
X020416Y007595D01*
X020427Y007603D02*
X020823Y007603D01*
X020824Y007612D02*
X020437Y007612D01*
X020443Y007620D02*
X020826Y007620D01*
X020826Y007629D02*
X020449Y007629D01*
X020453Y007637D02*
X020826Y007637D01*
X020826Y007646D02*
X020456Y007646D01*
X020459Y007654D02*
X020825Y007654D01*
X020825Y007663D02*
X020459Y007663D01*
X020460Y007671D02*
X020825Y007671D01*
X020825Y007680D02*
X020460Y007680D01*
X020458Y007688D02*
X020824Y007688D01*
X020824Y007697D02*
X020457Y007697D01*
X020453Y007705D02*
X020823Y007705D01*
X020821Y007714D02*
X020449Y007714D01*
X020444Y007722D02*
X020820Y007722D01*
X020818Y007731D02*
X020437Y007731D01*
X020430Y007739D02*
X020816Y007739D01*
X020814Y007748D02*
X020422Y007748D01*
X020414Y007756D02*
X020811Y007756D01*
X020808Y007765D02*
X020406Y007765D01*
X020398Y007773D02*
X020805Y007773D01*
X020801Y007782D02*
X020390Y007782D01*
X020382Y007790D02*
X020797Y007790D01*
X020792Y007799D02*
X020374Y007799D01*
X020368Y007807D02*
X020788Y007807D01*
X020783Y007816D02*
X020362Y007816D01*
X020357Y007824D02*
X020633Y007824D01*
X020657Y007824D02*
X020777Y007824D01*
X020770Y007833D02*
X020679Y007833D01*
X020689Y007841D02*
X020763Y007841D01*
X020741Y007867D02*
X020702Y007867D01*
X020702Y007875D02*
X020731Y007875D01*
X020721Y007884D02*
X020702Y007884D01*
X020702Y007892D02*
X020710Y007892D01*
X020701Y007858D02*
X020699Y007853D01*
X020607Y007833D02*
X020351Y007833D01*
X020345Y007841D02*
X020593Y007841D01*
X020581Y007850D02*
X020339Y007850D01*
X020334Y007858D02*
X020570Y007858D01*
X020559Y007867D02*
X020328Y007867D01*
X020324Y007875D02*
X020549Y007875D01*
X020541Y007884D02*
X020321Y007884D01*
X020317Y007892D02*
X020534Y007892D01*
X020528Y007901D02*
X020315Y007901D01*
X020314Y007909D02*
X020523Y007909D01*
X020518Y007918D02*
X020313Y007918D01*
X020312Y007926D02*
X020515Y007926D01*
X020512Y007935D02*
X020313Y007935D01*
X020314Y007943D02*
X020510Y007943D01*
X020510Y007952D02*
X020315Y007952D01*
X020318Y007960D02*
X020510Y007960D01*
X020513Y007969D02*
X020322Y007969D01*
X020325Y007977D02*
X020515Y007977D01*
X020520Y007986D02*
X020330Y007986D01*
X020336Y007994D02*
X020525Y007994D01*
X020531Y008003D02*
X020342Y008003D01*
X020351Y008011D02*
X020541Y008011D01*
X020553Y008020D02*
X020360Y008020D01*
X020369Y008028D02*
X020573Y008028D01*
X020580Y008062D02*
X020422Y008062D01*
X020404Y008054D02*
X020600Y008054D01*
X020616Y008045D02*
X020392Y008045D01*
X020380Y008037D02*
X020627Y008037D01*
X020554Y008071D02*
X020444Y008071D01*
X020305Y007722D02*
X020306Y007722D01*
X020298Y007722D02*
X020203Y007722D01*
X020178Y007714D02*
X020281Y007714D01*
X020269Y007705D02*
X020161Y007705D01*
X020150Y007697D02*
X020258Y007697D01*
X020248Y007688D02*
X020139Y007688D01*
X020132Y007680D02*
X020244Y007680D01*
X020243Y007671D02*
X020124Y007671D01*
X020118Y007663D02*
X020241Y007663D01*
X020241Y007654D02*
X020114Y007654D01*
X020109Y007646D02*
X020241Y007646D01*
X020243Y007637D02*
X020104Y007637D01*
X020102Y007629D02*
X020245Y007629D01*
X020250Y007620D02*
X020099Y007620D01*
X020097Y007612D02*
X020254Y007612D01*
X020262Y007603D02*
X020095Y007603D01*
X020094Y007595D02*
X020272Y007595D01*
X020287Y007586D02*
X020093Y007586D01*
X020092Y007578D02*
X020309Y007578D01*
M02*
