G75*
G70*
%OFA0B0*%
%FSLAX24Y24*%
%IPPOS*%
%LPD*%
%AMOC8*
5,1,8,0,0,1.08239X$1,22.5*
%
%ADD10C,0.0740*%
%ADD11R,0.0740X0.0740*%
%ADD12C,0.0640*%
%ADD13C,0.0120*%
%ADD14C,0.0100*%
D10*
X006897Y003982D03*
X007897Y004482D03*
X006897Y004982D03*
X007897Y005482D03*
X006897Y005982D03*
X007897Y006482D03*
X007897Y003482D03*
X014897Y005232D03*
X015897Y005232D03*
X016897Y006732D03*
X016897Y003732D03*
D11*
X006897Y006982D03*
D12*
X010609Y006448D03*
X011397Y006448D03*
X012184Y006448D03*
X012184Y004448D03*
X011397Y004448D03*
X010609Y004448D03*
X010609Y002448D03*
X011397Y002448D03*
X012184Y002448D03*
X012184Y008448D03*
X011397Y008448D03*
X010609Y008448D03*
D13*
X004855Y002295D02*
X004573Y002178D01*
X004879Y002067D01*
X004879Y002067D01*
X005135Y001852D01*
X005135Y001852D01*
X005303Y001562D01*
X005303Y001562D01*
X005361Y001232D01*
X005361Y001232D01*
X005303Y000902D01*
X005303Y000902D01*
X005135Y000612D01*
X005135Y000612D01*
X005135Y000612D01*
X004945Y000452D01*
X016348Y000452D01*
X016158Y000612D01*
X016158Y000612D01*
X015990Y000902D01*
X015990Y000902D01*
X015932Y001232D01*
X015932Y001232D01*
X015990Y001562D01*
X015990Y001562D01*
X016158Y001852D01*
X016158Y001852D01*
X016414Y002067D01*
X016414Y002067D01*
X016729Y002182D01*
X016729Y002182D01*
X016896Y002182D01*
X017064Y002182D01*
X017064Y002182D01*
X017379Y002067D01*
X017379Y002067D01*
X017635Y001852D01*
X017635Y001852D01*
X017677Y001781D01*
X017677Y008683D01*
X017635Y008612D01*
X017635Y008612D01*
X017635Y008612D01*
X017379Y008396D01*
X017379Y008396D01*
X017064Y008282D01*
X016988Y008282D01*
X016896Y008282D01*
X016729Y008282D01*
X016729Y008282D01*
X016414Y008396D01*
X016414Y008396D01*
X016158Y008612D01*
X016158Y008612D01*
X015990Y008902D01*
X015990Y008902D01*
X015932Y009232D01*
X015932Y009232D01*
X015990Y009562D01*
X015990Y009562D01*
X016158Y009852D01*
X016158Y009852D01*
X016348Y010012D01*
X004945Y010012D01*
X005135Y009852D01*
X005135Y009852D01*
X005303Y009562D01*
X005303Y009562D01*
X005361Y009232D01*
X005361Y009232D01*
X005303Y008902D01*
X005303Y008902D01*
X005135Y008612D01*
X005135Y008612D01*
X005135Y008612D01*
X004879Y008396D01*
X004879Y008396D01*
X004573Y008285D01*
X004855Y008168D01*
X005083Y007941D01*
X005206Y007643D01*
X005206Y007321D01*
X005083Y007023D01*
X004855Y006795D01*
X004558Y006672D01*
X004235Y006672D01*
X003938Y006795D01*
X003710Y007023D01*
X003616Y007249D01*
X003616Y003215D01*
X003710Y003441D01*
X003938Y003668D01*
X004235Y003792D01*
X004558Y003792D01*
X004855Y003668D01*
X005083Y003441D01*
X005206Y003143D01*
X005206Y002821D01*
X005083Y002523D01*
X004855Y002295D01*
X004926Y002366D02*
X010109Y002366D01*
X010109Y002349D02*
X010185Y002165D01*
X010326Y002024D01*
X010510Y001948D01*
X010709Y001948D01*
X010892Y002024D01*
X011019Y002151D01*
X011030Y002136D01*
X011084Y002082D01*
X011145Y002038D01*
X011212Y002004D01*
X011284Y001980D01*
X011359Y001968D01*
X011388Y001968D01*
X011388Y002439D01*
X011405Y002439D01*
X011405Y001968D01*
X011434Y001968D01*
X011509Y001980D01*
X011581Y002004D01*
X011648Y002038D01*
X011709Y002082D01*
X011763Y002136D01*
X011774Y002151D01*
X011901Y002024D01*
X012084Y001948D01*
X012283Y001948D01*
X012467Y002024D01*
X012608Y002165D01*
X012684Y002349D01*
X012684Y002548D01*
X012608Y002732D01*
X012467Y002872D01*
X012283Y002948D01*
X012084Y002948D01*
X011901Y002872D01*
X011774Y002745D01*
X011763Y002761D01*
X011709Y002814D01*
X011648Y002859D01*
X011581Y002893D01*
X011509Y002916D01*
X011434Y002928D01*
X011405Y002928D01*
X011405Y002457D01*
X011388Y002457D01*
X011388Y002928D01*
X011359Y002928D01*
X011284Y002916D01*
X011212Y002893D01*
X011145Y002859D01*
X011084Y002814D01*
X011030Y002761D01*
X011019Y002745D01*
X010892Y002872D01*
X010839Y002894D01*
X010839Y003424D01*
X010839Y003614D01*
X010502Y003952D01*
X010510Y003948D01*
X010709Y003948D01*
X010892Y004024D01*
X011019Y004151D01*
X011030Y004136D01*
X011084Y004082D01*
X011145Y004038D01*
X011212Y004004D01*
X011284Y003980D01*
X011359Y003968D01*
X011388Y003968D01*
X011388Y004439D01*
X011405Y004439D01*
X011405Y003968D01*
X011434Y003968D01*
X011509Y003980D01*
X011581Y004004D01*
X011648Y004038D01*
X011709Y004082D01*
X011763Y004136D01*
X011774Y004151D01*
X011901Y004024D01*
X012084Y003948D01*
X012283Y003948D01*
X012467Y004024D01*
X012608Y004165D01*
X012684Y004349D01*
X012684Y004548D01*
X012608Y004732D01*
X012467Y004872D01*
X012283Y004948D01*
X012084Y004948D01*
X011901Y004872D01*
X011774Y004745D01*
X011763Y004761D01*
X011709Y004814D01*
X011648Y004859D01*
X011581Y004893D01*
X011509Y004916D01*
X011434Y004928D01*
X011405Y004928D01*
X011405Y004457D01*
X011388Y004457D01*
X011388Y004928D01*
X011359Y004928D01*
X011284Y004916D01*
X011212Y004893D01*
X011145Y004859D01*
X011084Y004814D01*
X011030Y004761D01*
X011019Y004745D01*
X010892Y004872D01*
X010839Y004894D01*
X010839Y005424D01*
X010839Y005614D01*
X010502Y005952D01*
X010510Y005948D01*
X010709Y005948D01*
X010892Y006024D01*
X011019Y006151D01*
X011030Y006136D01*
X011084Y006082D01*
X011145Y006038D01*
X011212Y006004D01*
X011284Y005980D01*
X011359Y005968D01*
X011388Y005968D01*
X011388Y006439D01*
X011405Y006439D01*
X011405Y005968D01*
X011434Y005968D01*
X011509Y005980D01*
X011581Y006004D01*
X011648Y006038D01*
X011709Y006082D01*
X011763Y006136D01*
X011774Y006151D01*
X011901Y006024D01*
X012084Y005948D01*
X012283Y005948D01*
X012467Y006024D01*
X012608Y006165D01*
X012684Y006349D01*
X012684Y006548D01*
X012608Y006732D01*
X012467Y006872D01*
X012283Y006948D01*
X012084Y006948D01*
X011901Y006872D01*
X011774Y006745D01*
X011763Y006761D01*
X011709Y006814D01*
X011648Y006859D01*
X011581Y006893D01*
X011509Y006916D01*
X011434Y006928D01*
X011405Y006928D01*
X011405Y006457D01*
X011388Y006457D01*
X011388Y006928D01*
X011359Y006928D01*
X011284Y006916D01*
X011212Y006893D01*
X011145Y006859D01*
X011084Y006814D01*
X011030Y006761D01*
X011019Y006745D01*
X010892Y006872D01*
X010709Y006948D01*
X010510Y006948D01*
X010326Y006872D01*
X010185Y006732D01*
X010177Y006712D01*
X008397Y006712D01*
X008363Y006793D01*
X008208Y006948D01*
X008006Y007032D01*
X007787Y007032D01*
X007585Y006948D01*
X007446Y006810D01*
X007446Y007426D01*
X007341Y007532D01*
X007126Y007532D01*
X007126Y007637D01*
X007708Y008218D01*
X010163Y008218D01*
X010185Y008165D01*
X010326Y008024D01*
X010510Y007948D01*
X010709Y007948D01*
X010892Y008024D01*
X011019Y008151D01*
X011030Y008136D01*
X011084Y008082D01*
X011145Y008038D01*
X011212Y008004D01*
X011284Y007980D01*
X011359Y007968D01*
X011388Y007968D01*
X011388Y008439D01*
X011405Y008439D01*
X011405Y007968D01*
X011434Y007968D01*
X011509Y007980D01*
X011581Y008004D01*
X011648Y008038D01*
X011709Y008082D01*
X011763Y008136D01*
X011774Y008151D01*
X011901Y008024D01*
X012084Y007948D01*
X012283Y007948D01*
X012467Y008024D01*
X012608Y008165D01*
X012684Y008349D01*
X012684Y008548D01*
X012608Y008732D01*
X012467Y008872D01*
X012283Y008948D01*
X012084Y008948D01*
X011901Y008872D01*
X011774Y008745D01*
X011763Y008761D01*
X011709Y008814D01*
X011648Y008859D01*
X011581Y008893D01*
X011509Y008916D01*
X011434Y008928D01*
X011405Y008928D01*
X011405Y008457D01*
X011388Y008457D01*
X011388Y008928D01*
X011359Y008928D01*
X011284Y008916D01*
X011212Y008893D01*
X011145Y008859D01*
X011084Y008814D01*
X011030Y008761D01*
X011019Y008745D01*
X010892Y008872D01*
X010709Y008948D01*
X010510Y008948D01*
X010326Y008872D01*
X010185Y008732D01*
X010163Y008678D01*
X007708Y008678D01*
X007518Y008678D01*
X006801Y007962D01*
X006667Y007827D01*
X006667Y007532D01*
X006452Y007532D01*
X006347Y007426D01*
X006347Y006537D01*
X006452Y006432D01*
X006569Y006432D01*
X006430Y006293D01*
X006347Y006091D01*
X006347Y005872D01*
X006430Y005670D01*
X006585Y005516D01*
X006666Y005482D01*
X006585Y005448D01*
X006430Y005293D01*
X006347Y005091D01*
X006347Y004872D01*
X006430Y004670D01*
X006585Y004516D01*
X006691Y004472D01*
X006619Y004435D01*
X006551Y004386D01*
X006492Y004327D01*
X006443Y004260D01*
X006405Y004185D01*
X006380Y004106D01*
X006367Y004024D01*
X006367Y004020D01*
X006858Y004020D01*
X006858Y003943D01*
X006935Y003943D01*
X006935Y003452D01*
X006938Y003452D01*
X007021Y003465D01*
X007100Y003491D01*
X007174Y003529D01*
X007242Y003578D01*
X007301Y003637D01*
X007350Y003704D01*
X007388Y003778D01*
X007413Y003858D01*
X007426Y003940D01*
X007426Y003943D01*
X006935Y003943D01*
X006935Y004020D01*
X007426Y004020D01*
X007426Y004024D01*
X007413Y004106D01*
X007388Y004185D01*
X007350Y004260D01*
X007301Y004327D01*
X007242Y004386D01*
X007174Y004435D01*
X007102Y004472D01*
X007208Y004516D01*
X007363Y004670D01*
X007446Y004872D01*
X007446Y005091D01*
X007363Y005293D01*
X007208Y005448D01*
X007127Y005482D01*
X007208Y005516D01*
X007363Y005670D01*
X007397Y005752D01*
X007413Y005752D01*
X007347Y005591D01*
X007347Y005372D01*
X007430Y005170D01*
X007585Y005016D01*
X007666Y004982D01*
X007585Y004948D01*
X007430Y004793D01*
X007347Y004591D01*
X007347Y004372D01*
X007430Y004170D01*
X007585Y004016D01*
X007691Y003972D01*
X007619Y003935D01*
X007551Y003886D01*
X007492Y003827D01*
X007443Y003760D01*
X007405Y003685D01*
X007380Y003606D01*
X007367Y003524D01*
X007367Y003520D01*
X007858Y003520D01*
X007858Y003443D01*
X007935Y003443D01*
X007935Y002952D01*
X007938Y002952D01*
X008021Y002965D01*
X008100Y002991D01*
X008174Y003029D01*
X008242Y003078D01*
X008301Y003137D01*
X008350Y003204D01*
X008388Y003278D01*
X008413Y003358D01*
X008426Y003440D01*
X008426Y003443D01*
X007935Y003443D01*
X007935Y003520D01*
X008426Y003520D01*
X008426Y003524D01*
X008413Y003606D01*
X008388Y003685D01*
X008350Y003760D01*
X008301Y003827D01*
X008242Y003886D01*
X008174Y003935D01*
X008102Y003972D01*
X008208Y004016D01*
X008363Y004170D01*
X008446Y004372D01*
X008446Y004591D01*
X008363Y004793D01*
X008208Y004948D01*
X008127Y004982D01*
X008208Y005016D01*
X008363Y005170D01*
X008397Y005252D01*
X008551Y005252D01*
X010379Y003424D01*
X010379Y002894D01*
X010326Y002872D01*
X010185Y002732D01*
X010109Y002548D01*
X010109Y002349D01*
X010151Y002247D02*
X004739Y002247D01*
X004710Y002129D02*
X010222Y002129D01*
X010361Y002010D02*
X004947Y002010D01*
X005088Y001891D02*
X016205Y001891D01*
X016158Y001852D02*
X016158Y001852D01*
X016112Y001773D02*
X005181Y001773D01*
X005250Y001654D02*
X016044Y001654D01*
X015986Y001536D02*
X005308Y001536D01*
X005328Y001417D02*
X015965Y001417D01*
X015944Y001299D02*
X005349Y001299D01*
X005352Y001180D02*
X015941Y001180D01*
X015962Y001062D02*
X005331Y001062D01*
X005310Y000943D02*
X015983Y000943D01*
X016035Y000825D02*
X005258Y000825D01*
X005190Y000706D02*
X016103Y000706D01*
X016186Y000587D02*
X005106Y000587D01*
X004965Y000469D02*
X016328Y000469D01*
X017588Y001891D02*
X017677Y001891D01*
X017677Y002010D02*
X017447Y002010D01*
X017677Y002129D02*
X017210Y002129D01*
X017677Y002247D02*
X012642Y002247D01*
X012684Y002366D02*
X017677Y002366D01*
X017677Y002484D02*
X012684Y002484D01*
X012661Y002603D02*
X017677Y002603D01*
X017677Y002721D02*
X012612Y002721D01*
X012500Y002840D02*
X017677Y002840D01*
X017677Y002958D02*
X010839Y002958D01*
X010839Y003077D02*
X017677Y003077D01*
X017677Y003195D02*
X017039Y003195D01*
X017006Y003182D02*
X017208Y003266D01*
X017363Y003420D01*
X017446Y003622D01*
X017446Y003841D01*
X017363Y004043D01*
X017208Y004198D01*
X017006Y004282D01*
X016787Y004282D01*
X016585Y004198D01*
X016430Y004043D01*
X016347Y003841D01*
X016347Y003622D01*
X016430Y003420D01*
X016585Y003266D01*
X016787Y003182D01*
X017006Y003182D01*
X016754Y003195D02*
X010839Y003195D01*
X010839Y003314D02*
X016537Y003314D01*
X016425Y003432D02*
X010839Y003432D01*
X010839Y003551D02*
X016376Y003551D01*
X016347Y003670D02*
X010784Y003670D01*
X010665Y003788D02*
X016347Y003788D01*
X016374Y003907D02*
X010547Y003907D01*
X010893Y004025D02*
X011170Y004025D01*
X011025Y004144D02*
X011012Y004144D01*
X011388Y004144D02*
X011405Y004144D01*
X011405Y004262D02*
X011388Y004262D01*
X011388Y004381D02*
X011405Y004381D01*
X011405Y004499D02*
X011388Y004499D01*
X011388Y004618D02*
X011405Y004618D01*
X011405Y004736D02*
X011388Y004736D01*
X011388Y004855D02*
X011405Y004855D01*
X011140Y004855D02*
X010910Y004855D01*
X010839Y004974D02*
X014408Y004974D01*
X014430Y004920D02*
X014585Y004766D01*
X014787Y004682D01*
X015006Y004682D01*
X015208Y004766D01*
X015363Y004920D01*
X015407Y005026D01*
X015443Y004954D01*
X015492Y004887D01*
X015551Y004828D01*
X015619Y004779D01*
X015693Y004741D01*
X015772Y004715D01*
X015855Y004702D01*
X015876Y004702D01*
X015876Y005212D01*
X015917Y005212D01*
X015917Y005252D01*
X016426Y005252D01*
X016426Y005274D01*
X016413Y005356D01*
X016388Y005435D01*
X016350Y005510D01*
X016301Y005577D01*
X016242Y005636D01*
X016174Y005685D01*
X016100Y005723D01*
X016021Y005749D01*
X015938Y005762D01*
X015917Y005762D01*
X015917Y005252D01*
X015876Y005252D01*
X015876Y005762D01*
X015855Y005762D01*
X015772Y005749D01*
X015693Y005723D01*
X015619Y005685D01*
X015551Y005636D01*
X015492Y005577D01*
X015443Y005510D01*
X015407Y005438D01*
X015363Y005543D01*
X015208Y005698D01*
X015126Y005732D01*
X015126Y006137D01*
X015492Y006502D01*
X016396Y006502D01*
X016430Y006420D01*
X016585Y006266D01*
X016787Y006182D01*
X017006Y006182D01*
X017208Y006266D01*
X017363Y006420D01*
X017446Y006622D01*
X017446Y006841D01*
X017363Y007043D01*
X017208Y007198D01*
X017006Y007282D01*
X016787Y007282D01*
X016585Y007198D01*
X016430Y007043D01*
X016396Y006962D01*
X015301Y006962D01*
X015167Y006827D01*
X014667Y006327D01*
X014667Y006137D01*
X014667Y005732D01*
X014585Y005698D01*
X014430Y005543D01*
X014347Y005341D01*
X014347Y005122D01*
X014430Y004920D01*
X014496Y004855D02*
X012484Y004855D01*
X012603Y004736D02*
X014655Y004736D01*
X015138Y004736D02*
X015706Y004736D01*
X015876Y004736D02*
X015917Y004736D01*
X015917Y004702D02*
X015938Y004702D01*
X016021Y004715D01*
X016100Y004741D01*
X016174Y004779D01*
X016242Y004828D01*
X016301Y004887D01*
X016350Y004954D01*
X016388Y005028D01*
X016413Y005108D01*
X016426Y005190D01*
X016426Y005212D01*
X015917Y005212D01*
X015917Y004702D01*
X016087Y004736D02*
X017677Y004736D01*
X017677Y004618D02*
X012655Y004618D01*
X012684Y004499D02*
X017677Y004499D01*
X017677Y004381D02*
X012684Y004381D01*
X012648Y004262D02*
X016740Y004262D01*
X016531Y004144D02*
X012586Y004144D01*
X012468Y004025D02*
X016423Y004025D01*
X017053Y004262D02*
X017677Y004262D01*
X017677Y004144D02*
X017262Y004144D01*
X017370Y004025D02*
X017677Y004025D01*
X017677Y003907D02*
X017419Y003907D01*
X017446Y003788D02*
X017677Y003788D01*
X017677Y003670D02*
X017446Y003670D01*
X017417Y003551D02*
X017677Y003551D01*
X017677Y003432D02*
X017368Y003432D01*
X017256Y003314D02*
X017677Y003314D01*
X016583Y002129D02*
X012571Y002129D01*
X012432Y002010D02*
X016346Y002010D01*
X011936Y002010D02*
X011593Y002010D01*
X011405Y002010D02*
X011388Y002010D01*
X011388Y002129D02*
X011405Y002129D01*
X011405Y002247D02*
X011388Y002247D01*
X011388Y002366D02*
X011405Y002366D01*
X011405Y002484D02*
X011388Y002484D01*
X011388Y002603D02*
X011405Y002603D01*
X011405Y002721D02*
X011388Y002721D01*
X011388Y002840D02*
X011405Y002840D01*
X011119Y002840D02*
X010925Y002840D01*
X010379Y002958D02*
X007979Y002958D01*
X007935Y002958D02*
X007858Y002958D01*
X007858Y002952D02*
X007858Y003443D01*
X007367Y003443D01*
X007367Y003440D01*
X007380Y003358D01*
X007405Y003278D01*
X007443Y003204D01*
X007492Y003137D01*
X007551Y003078D01*
X007619Y003029D01*
X007693Y002991D01*
X007772Y002965D01*
X007855Y002952D01*
X007858Y002952D01*
X007814Y002958D02*
X005206Y002958D01*
X005206Y002840D02*
X010293Y002840D01*
X010181Y002721D02*
X005165Y002721D01*
X005116Y002603D02*
X010132Y002603D01*
X010109Y002484D02*
X005044Y002484D01*
X005206Y003077D02*
X007552Y003077D01*
X007449Y003195D02*
X005185Y003195D01*
X005136Y003314D02*
X007394Y003314D01*
X007368Y003432D02*
X005086Y003432D01*
X004973Y003551D02*
X006588Y003551D01*
X006619Y003529D02*
X006693Y003491D01*
X006772Y003465D01*
X006855Y003452D01*
X006858Y003452D01*
X006858Y003943D01*
X006367Y003943D01*
X006367Y003940D01*
X006380Y003858D01*
X006405Y003778D01*
X006443Y003704D01*
X006492Y003637D01*
X006551Y003578D01*
X006619Y003529D01*
X006858Y003551D02*
X006935Y003551D01*
X006935Y003670D02*
X006858Y003670D01*
X006858Y003788D02*
X006935Y003788D01*
X006935Y003907D02*
X006858Y003907D01*
X006468Y003670D02*
X004852Y003670D01*
X004566Y003788D02*
X006402Y003788D01*
X006372Y003907D02*
X003616Y003907D01*
X003616Y004025D02*
X006367Y004025D01*
X006392Y004144D02*
X003616Y004144D01*
X003616Y004262D02*
X006445Y004262D01*
X006546Y004381D02*
X003616Y004381D01*
X003616Y004499D02*
X006624Y004499D01*
X006483Y004618D02*
X003616Y004618D01*
X003616Y004736D02*
X006403Y004736D01*
X006354Y004855D02*
X003616Y004855D01*
X003616Y004974D02*
X006347Y004974D01*
X006347Y005092D02*
X003616Y005092D01*
X003616Y005211D02*
X006396Y005211D01*
X006466Y005329D02*
X003616Y005329D01*
X003616Y005448D02*
X006585Y005448D01*
X006534Y005566D02*
X003616Y005566D01*
X003616Y005685D02*
X006424Y005685D01*
X006375Y005803D02*
X003616Y005803D01*
X003616Y005922D02*
X006347Y005922D01*
X006347Y006040D02*
X003616Y006040D01*
X003616Y006159D02*
X006375Y006159D01*
X006424Y006278D02*
X003616Y006278D01*
X003616Y006396D02*
X006533Y006396D01*
X006369Y006515D02*
X003616Y006515D01*
X003616Y006633D02*
X006347Y006633D01*
X006347Y006752D02*
X004750Y006752D01*
X004930Y006870D02*
X006347Y006870D01*
X006347Y006989D02*
X005049Y006989D01*
X005118Y007107D02*
X006347Y007107D01*
X006347Y007226D02*
X005167Y007226D01*
X005206Y007344D02*
X006347Y007344D01*
X006383Y007463D02*
X005206Y007463D01*
X005206Y007581D02*
X006667Y007581D01*
X006667Y007700D02*
X005183Y007700D01*
X005134Y007819D02*
X006667Y007819D01*
X006777Y007937D02*
X005085Y007937D01*
X004968Y008056D02*
X006895Y008056D01*
X007014Y008174D02*
X004841Y008174D01*
X004594Y008293D02*
X007132Y008293D01*
X007251Y008411D02*
X004897Y008411D01*
X005038Y008530D02*
X007369Y008530D01*
X007488Y008648D02*
X005157Y008648D01*
X005225Y008767D02*
X010221Y008767D01*
X010358Y008885D02*
X005293Y008885D01*
X005321Y009004D02*
X015972Y009004D01*
X015951Y009123D02*
X005342Y009123D01*
X005360Y009241D02*
X015934Y009241D01*
X015954Y009360D02*
X005339Y009360D01*
X005318Y009478D02*
X015975Y009478D01*
X016010Y009597D02*
X005283Y009597D01*
X005214Y009715D02*
X016079Y009715D01*
X016147Y009834D02*
X005146Y009834D01*
X005016Y009952D02*
X016277Y009952D01*
X016158Y009852D02*
X016158Y009852D01*
X016000Y008885D02*
X012435Y008885D01*
X012572Y008767D02*
X016068Y008767D01*
X016136Y008648D02*
X012642Y008648D01*
X012684Y008530D02*
X016255Y008530D01*
X016396Y008411D02*
X012684Y008411D01*
X012661Y008293D02*
X016699Y008293D01*
X017094Y008293D02*
X017677Y008293D01*
X017677Y008411D02*
X017397Y008411D01*
X017538Y008530D02*
X017677Y008530D01*
X017677Y008648D02*
X017657Y008648D01*
X017677Y008174D02*
X012612Y008174D01*
X012498Y008056D02*
X017677Y008056D01*
X017677Y007937D02*
X007427Y007937D01*
X007309Y007819D02*
X017677Y007819D01*
X017677Y007700D02*
X007190Y007700D01*
X007126Y007581D02*
X017677Y007581D01*
X017677Y007463D02*
X007410Y007463D01*
X007446Y007344D02*
X017677Y007344D01*
X017677Y007226D02*
X017141Y007226D01*
X017299Y007107D02*
X017677Y007107D01*
X017677Y006989D02*
X017385Y006989D01*
X017434Y006870D02*
X017677Y006870D01*
X017677Y006752D02*
X017446Y006752D01*
X017446Y006633D02*
X017677Y006633D01*
X017677Y006515D02*
X017402Y006515D01*
X017339Y006396D02*
X017677Y006396D01*
X017677Y006278D02*
X017220Y006278D01*
X017677Y006159D02*
X015149Y006159D01*
X015126Y006040D02*
X017677Y006040D01*
X017677Y005922D02*
X015126Y005922D01*
X015126Y005803D02*
X017677Y005803D01*
X017677Y005685D02*
X016175Y005685D01*
X016309Y005566D02*
X017677Y005566D01*
X017677Y005448D02*
X016381Y005448D01*
X016418Y005329D02*
X017677Y005329D01*
X017677Y005211D02*
X016426Y005211D01*
X016408Y005092D02*
X017677Y005092D01*
X017677Y004974D02*
X016360Y004974D01*
X016269Y004855D02*
X017677Y004855D01*
X015917Y004855D02*
X015876Y004855D01*
X015876Y004974D02*
X015917Y004974D01*
X015917Y005092D02*
X015876Y005092D01*
X015876Y005211D02*
X015917Y005211D01*
X015917Y005329D02*
X015876Y005329D01*
X015876Y005448D02*
X015917Y005448D01*
X015917Y005566D02*
X015876Y005566D01*
X015876Y005685D02*
X015917Y005685D01*
X015618Y005685D02*
X015221Y005685D01*
X015340Y005566D02*
X015484Y005566D01*
X015412Y005448D02*
X015402Y005448D01*
X014667Y005803D02*
X010650Y005803D01*
X010769Y005685D02*
X014572Y005685D01*
X014453Y005566D02*
X010839Y005566D01*
X010839Y005448D02*
X014391Y005448D01*
X014347Y005329D02*
X010839Y005329D01*
X010839Y005211D02*
X014347Y005211D01*
X014359Y005092D02*
X010839Y005092D01*
X011653Y004855D02*
X011884Y004855D01*
X011781Y004144D02*
X011768Y004144D01*
X011900Y004025D02*
X011623Y004025D01*
X011405Y004025D02*
X011388Y004025D01*
X010371Y003432D02*
X008425Y003432D01*
X008422Y003551D02*
X010252Y003551D01*
X010134Y003670D02*
X008393Y003670D01*
X008329Y003788D02*
X010015Y003788D01*
X009896Y003907D02*
X008213Y003907D01*
X008218Y004025D02*
X009778Y004025D01*
X009659Y004144D02*
X008336Y004144D01*
X008401Y004262D02*
X009541Y004262D01*
X009422Y004381D02*
X008446Y004381D01*
X008446Y004499D02*
X009304Y004499D01*
X009185Y004618D02*
X008435Y004618D01*
X008386Y004736D02*
X009067Y004736D01*
X008948Y004855D02*
X008301Y004855D01*
X008146Y004974D02*
X008830Y004974D01*
X008711Y005092D02*
X008285Y005092D01*
X008379Y005211D02*
X008592Y005211D01*
X007647Y004974D02*
X007446Y004974D01*
X007446Y005092D02*
X007508Y005092D01*
X007414Y005211D02*
X007397Y005211D01*
X007364Y005329D02*
X007327Y005329D01*
X007347Y005448D02*
X007208Y005448D01*
X007259Y005566D02*
X007347Y005566D01*
X007369Y005685D02*
X007385Y005685D01*
X007439Y004855D02*
X007492Y004855D01*
X007407Y004736D02*
X007390Y004736D01*
X007358Y004618D02*
X007310Y004618D01*
X007347Y004499D02*
X007169Y004499D01*
X007247Y004381D02*
X007347Y004381D01*
X007348Y004262D02*
X007392Y004262D01*
X007401Y004144D02*
X007457Y004144D01*
X007426Y004025D02*
X007575Y004025D01*
X007580Y003907D02*
X007421Y003907D01*
X007391Y003788D02*
X007464Y003788D01*
X007400Y003670D02*
X007325Y003670D01*
X007371Y003551D02*
X007205Y003551D01*
X007858Y003432D02*
X007935Y003432D01*
X007935Y003314D02*
X007858Y003314D01*
X007858Y003195D02*
X007935Y003195D01*
X007935Y003077D02*
X007858Y003077D01*
X008241Y003077D02*
X010379Y003077D01*
X010379Y003195D02*
X008344Y003195D01*
X008399Y003314D02*
X010379Y003314D01*
X011674Y002840D02*
X011868Y002840D01*
X011797Y002129D02*
X011756Y002129D01*
X011200Y002010D02*
X010857Y002010D01*
X010996Y002129D02*
X011038Y002129D01*
X015298Y004855D02*
X015524Y004855D01*
X015433Y004974D02*
X015385Y004974D01*
X014667Y005922D02*
X010532Y005922D01*
X010908Y006040D02*
X011141Y006040D01*
X011388Y006040D02*
X011405Y006040D01*
X011405Y006159D02*
X011388Y006159D01*
X011388Y006278D02*
X011405Y006278D01*
X011405Y006396D02*
X011388Y006396D01*
X011388Y006515D02*
X011405Y006515D01*
X011405Y006633D02*
X011388Y006633D01*
X011388Y006752D02*
X011405Y006752D01*
X011405Y006870D02*
X011388Y006870D01*
X011167Y006870D02*
X010894Y006870D01*
X011013Y006752D02*
X011024Y006752D01*
X011626Y006870D02*
X011899Y006870D01*
X011780Y006752D02*
X011769Y006752D01*
X012469Y006870D02*
X015210Y006870D01*
X015091Y006752D02*
X012588Y006752D01*
X012649Y006633D02*
X014973Y006633D01*
X014854Y006515D02*
X012684Y006515D01*
X012684Y006396D02*
X014736Y006396D01*
X014667Y006278D02*
X012654Y006278D01*
X012602Y006159D02*
X014667Y006159D01*
X014667Y006040D02*
X012483Y006040D01*
X011885Y006040D02*
X011652Y006040D01*
X010324Y006870D02*
X008286Y006870D01*
X008380Y006752D02*
X010205Y006752D01*
X008110Y006989D02*
X016408Y006989D01*
X016494Y007107D02*
X007446Y007107D01*
X007446Y006989D02*
X007683Y006989D01*
X007507Y006870D02*
X007446Y006870D01*
X007446Y007226D02*
X016652Y007226D01*
X016454Y006396D02*
X015386Y006396D01*
X015267Y006278D02*
X016573Y006278D01*
X011869Y008056D02*
X011673Y008056D01*
X011405Y008056D02*
X011388Y008056D01*
X011388Y008174D02*
X011405Y008174D01*
X011405Y008293D02*
X011388Y008293D01*
X011388Y008411D02*
X011405Y008411D01*
X011405Y008530D02*
X011388Y008530D01*
X011388Y008648D02*
X011405Y008648D01*
X011405Y008767D02*
X011388Y008767D01*
X011388Y008885D02*
X011405Y008885D01*
X011596Y008885D02*
X011933Y008885D01*
X011795Y008767D02*
X011757Y008767D01*
X011197Y008885D02*
X010860Y008885D01*
X010998Y008767D02*
X011036Y008767D01*
X010181Y008174D02*
X007664Y008174D01*
X007546Y008056D02*
X010295Y008056D01*
X010924Y008056D02*
X011120Y008056D01*
X004043Y006752D02*
X003616Y006752D01*
X003616Y006870D02*
X003863Y006870D01*
X003744Y006989D02*
X003616Y006989D01*
X003616Y007107D02*
X003675Y007107D01*
X003626Y007226D02*
X003616Y007226D01*
X003616Y003788D02*
X004227Y003788D01*
X003941Y003670D02*
X003616Y003670D01*
X003616Y003551D02*
X003820Y003551D01*
X003707Y003432D02*
X003616Y003432D01*
X003616Y003314D02*
X003657Y003314D01*
D14*
X007897Y005482D02*
X008647Y005482D01*
X010609Y003519D01*
X010609Y002448D01*
X010609Y004448D02*
X010609Y005519D01*
X010147Y005982D01*
X006897Y005982D01*
X007897Y006482D02*
X010576Y006482D01*
X010609Y006448D01*
X010609Y008448D02*
X007613Y008448D01*
X006897Y007732D01*
X006897Y006982D01*
X014897Y006232D02*
X014897Y005232D01*
X014897Y006232D02*
X015397Y006732D01*
X016897Y006732D01*
M02*
