G75*
G70*
%OFA0B0*%
%FSLAX24Y24*%
%IPPOS*%
%LPD*%
%AMOC8*
5,1,8,0,0,1.08239X$1,22.5*
%
%ADD10C,0.0080*%
%ADD11C,0.0130*%
%ADD12C,0.0740*%
%ADD13R,0.0740X0.0740*%
%ADD14C,0.0000*%
%ADD15C,0.0640*%
%ADD16C,0.0650*%
%ADD17R,0.0650X0.0650*%
%ADD18C,0.0120*%
%ADD19C,0.0300*%
D10*
X003392Y000225D02*
X022392Y000225D01*
X022392Y010225D01*
X003392Y010225D01*
X003392Y000225D01*
D11*
X006019Y009040D02*
X005957Y009102D01*
X006019Y009040D02*
X006142Y009040D01*
X006204Y009102D01*
X006204Y009225D01*
X006142Y009287D01*
X006080Y009287D01*
X005957Y009225D01*
X005957Y009410D01*
X006204Y009410D01*
X006417Y009225D02*
X006664Y009225D01*
X006878Y009287D02*
X007001Y009410D01*
X007001Y009040D01*
X006878Y009040D02*
X007125Y009040D01*
X007338Y009225D02*
X007585Y009225D01*
X007799Y009287D02*
X007922Y009410D01*
X007922Y009040D01*
X007799Y009040D02*
X008045Y009040D01*
X008259Y009040D02*
X008506Y009040D01*
X008382Y009040D02*
X008382Y009410D01*
X008259Y009287D01*
D12*
X007892Y006475D03*
X006892Y005975D03*
X007892Y005475D03*
X006892Y004975D03*
X007892Y004475D03*
X006892Y003975D03*
X007892Y003475D03*
X019392Y005225D03*
X020392Y005225D03*
X021392Y006725D03*
X021392Y003725D03*
D13*
X006892Y006975D03*
D14*
X003762Y007475D02*
X003764Y007525D01*
X003770Y007575D01*
X003780Y007624D01*
X003794Y007672D01*
X003811Y007719D01*
X003832Y007764D01*
X003857Y007808D01*
X003885Y007849D01*
X003917Y007888D01*
X003951Y007925D01*
X003988Y007959D01*
X004028Y007989D01*
X004070Y008016D01*
X004114Y008040D01*
X004160Y008061D01*
X004207Y008077D01*
X004255Y008090D01*
X004305Y008099D01*
X004354Y008104D01*
X004405Y008105D01*
X004455Y008102D01*
X004504Y008095D01*
X004553Y008084D01*
X004601Y008069D01*
X004647Y008051D01*
X004692Y008029D01*
X004735Y008003D01*
X004776Y007974D01*
X004815Y007942D01*
X004851Y007907D01*
X004883Y007869D01*
X004913Y007829D01*
X004940Y007786D01*
X004963Y007742D01*
X004982Y007696D01*
X004998Y007648D01*
X005010Y007599D01*
X005018Y007550D01*
X005022Y007500D01*
X005022Y007450D01*
X005018Y007400D01*
X005010Y007351D01*
X004998Y007302D01*
X004982Y007254D01*
X004963Y007208D01*
X004940Y007164D01*
X004913Y007121D01*
X004883Y007081D01*
X004851Y007043D01*
X004815Y007008D01*
X004776Y006976D01*
X004735Y006947D01*
X004692Y006921D01*
X004647Y006899D01*
X004601Y006881D01*
X004553Y006866D01*
X004504Y006855D01*
X004455Y006848D01*
X004405Y006845D01*
X004354Y006846D01*
X004305Y006851D01*
X004255Y006860D01*
X004207Y006873D01*
X004160Y006889D01*
X004114Y006910D01*
X004070Y006934D01*
X004028Y006961D01*
X003988Y006991D01*
X003951Y007025D01*
X003917Y007062D01*
X003885Y007101D01*
X003857Y007142D01*
X003832Y007186D01*
X003811Y007231D01*
X003794Y007278D01*
X003780Y007326D01*
X003770Y007375D01*
X003764Y007425D01*
X003762Y007475D01*
X003742Y009225D02*
X003744Y009275D01*
X003750Y009325D01*
X003760Y009375D01*
X003773Y009423D01*
X003790Y009471D01*
X003811Y009517D01*
X003835Y009561D01*
X003863Y009603D01*
X003894Y009643D01*
X003928Y009680D01*
X003965Y009715D01*
X004004Y009746D01*
X004045Y009775D01*
X004089Y009800D01*
X004135Y009822D01*
X004182Y009840D01*
X004230Y009854D01*
X004279Y009865D01*
X004329Y009872D01*
X004379Y009875D01*
X004430Y009874D01*
X004480Y009869D01*
X004530Y009860D01*
X004578Y009848D01*
X004626Y009831D01*
X004672Y009811D01*
X004717Y009788D01*
X004760Y009761D01*
X004800Y009731D01*
X004838Y009698D01*
X004873Y009662D01*
X004906Y009623D01*
X004935Y009582D01*
X004961Y009539D01*
X004984Y009494D01*
X005003Y009447D01*
X005018Y009399D01*
X005030Y009350D01*
X005038Y009300D01*
X005042Y009250D01*
X005042Y009200D01*
X005038Y009150D01*
X005030Y009100D01*
X005018Y009051D01*
X005003Y009003D01*
X004984Y008956D01*
X004961Y008911D01*
X004935Y008868D01*
X004906Y008827D01*
X004873Y008788D01*
X004838Y008752D01*
X004800Y008719D01*
X004760Y008689D01*
X004717Y008662D01*
X004672Y008639D01*
X004626Y008619D01*
X004578Y008602D01*
X004530Y008590D01*
X004480Y008581D01*
X004430Y008576D01*
X004379Y008575D01*
X004329Y008578D01*
X004279Y008585D01*
X004230Y008596D01*
X004182Y008610D01*
X004135Y008628D01*
X004089Y008650D01*
X004045Y008675D01*
X004004Y008704D01*
X003965Y008735D01*
X003928Y008770D01*
X003894Y008807D01*
X003863Y008847D01*
X003835Y008889D01*
X003811Y008933D01*
X003790Y008979D01*
X003773Y009027D01*
X003760Y009075D01*
X003750Y009125D01*
X003744Y009175D01*
X003742Y009225D01*
X003762Y002975D02*
X003764Y003025D01*
X003770Y003075D01*
X003780Y003124D01*
X003794Y003172D01*
X003811Y003219D01*
X003832Y003264D01*
X003857Y003308D01*
X003885Y003349D01*
X003917Y003388D01*
X003951Y003425D01*
X003988Y003459D01*
X004028Y003489D01*
X004070Y003516D01*
X004114Y003540D01*
X004160Y003561D01*
X004207Y003577D01*
X004255Y003590D01*
X004305Y003599D01*
X004354Y003604D01*
X004405Y003605D01*
X004455Y003602D01*
X004504Y003595D01*
X004553Y003584D01*
X004601Y003569D01*
X004647Y003551D01*
X004692Y003529D01*
X004735Y003503D01*
X004776Y003474D01*
X004815Y003442D01*
X004851Y003407D01*
X004883Y003369D01*
X004913Y003329D01*
X004940Y003286D01*
X004963Y003242D01*
X004982Y003196D01*
X004998Y003148D01*
X005010Y003099D01*
X005018Y003050D01*
X005022Y003000D01*
X005022Y002950D01*
X005018Y002900D01*
X005010Y002851D01*
X004998Y002802D01*
X004982Y002754D01*
X004963Y002708D01*
X004940Y002664D01*
X004913Y002621D01*
X004883Y002581D01*
X004851Y002543D01*
X004815Y002508D01*
X004776Y002476D01*
X004735Y002447D01*
X004692Y002421D01*
X004647Y002399D01*
X004601Y002381D01*
X004553Y002366D01*
X004504Y002355D01*
X004455Y002348D01*
X004405Y002345D01*
X004354Y002346D01*
X004305Y002351D01*
X004255Y002360D01*
X004207Y002373D01*
X004160Y002389D01*
X004114Y002410D01*
X004070Y002434D01*
X004028Y002461D01*
X003988Y002491D01*
X003951Y002525D01*
X003917Y002562D01*
X003885Y002601D01*
X003857Y002642D01*
X003832Y002686D01*
X003811Y002731D01*
X003794Y002778D01*
X003780Y002826D01*
X003770Y002875D01*
X003764Y002925D01*
X003762Y002975D01*
X003742Y001225D02*
X003744Y001275D01*
X003750Y001325D01*
X003760Y001375D01*
X003773Y001423D01*
X003790Y001471D01*
X003811Y001517D01*
X003835Y001561D01*
X003863Y001603D01*
X003894Y001643D01*
X003928Y001680D01*
X003965Y001715D01*
X004004Y001746D01*
X004045Y001775D01*
X004089Y001800D01*
X004135Y001822D01*
X004182Y001840D01*
X004230Y001854D01*
X004279Y001865D01*
X004329Y001872D01*
X004379Y001875D01*
X004430Y001874D01*
X004480Y001869D01*
X004530Y001860D01*
X004578Y001848D01*
X004626Y001831D01*
X004672Y001811D01*
X004717Y001788D01*
X004760Y001761D01*
X004800Y001731D01*
X004838Y001698D01*
X004873Y001662D01*
X004906Y001623D01*
X004935Y001582D01*
X004961Y001539D01*
X004984Y001494D01*
X005003Y001447D01*
X005018Y001399D01*
X005030Y001350D01*
X005038Y001300D01*
X005042Y001250D01*
X005042Y001200D01*
X005038Y001150D01*
X005030Y001100D01*
X005018Y001051D01*
X005003Y001003D01*
X004984Y000956D01*
X004961Y000911D01*
X004935Y000868D01*
X004906Y000827D01*
X004873Y000788D01*
X004838Y000752D01*
X004800Y000719D01*
X004760Y000689D01*
X004717Y000662D01*
X004672Y000639D01*
X004626Y000619D01*
X004578Y000602D01*
X004530Y000590D01*
X004480Y000581D01*
X004430Y000576D01*
X004379Y000575D01*
X004329Y000578D01*
X004279Y000585D01*
X004230Y000596D01*
X004182Y000610D01*
X004135Y000628D01*
X004089Y000650D01*
X004045Y000675D01*
X004004Y000704D01*
X003965Y000735D01*
X003928Y000770D01*
X003894Y000807D01*
X003863Y000847D01*
X003835Y000889D01*
X003811Y000933D01*
X003790Y000979D01*
X003773Y001027D01*
X003760Y001075D01*
X003750Y001125D01*
X003744Y001175D01*
X003742Y001225D01*
X020742Y001225D02*
X020744Y001275D01*
X020750Y001325D01*
X020760Y001375D01*
X020773Y001423D01*
X020790Y001471D01*
X020811Y001517D01*
X020835Y001561D01*
X020863Y001603D01*
X020894Y001643D01*
X020928Y001680D01*
X020965Y001715D01*
X021004Y001746D01*
X021045Y001775D01*
X021089Y001800D01*
X021135Y001822D01*
X021182Y001840D01*
X021230Y001854D01*
X021279Y001865D01*
X021329Y001872D01*
X021379Y001875D01*
X021430Y001874D01*
X021480Y001869D01*
X021530Y001860D01*
X021578Y001848D01*
X021626Y001831D01*
X021672Y001811D01*
X021717Y001788D01*
X021760Y001761D01*
X021800Y001731D01*
X021838Y001698D01*
X021873Y001662D01*
X021906Y001623D01*
X021935Y001582D01*
X021961Y001539D01*
X021984Y001494D01*
X022003Y001447D01*
X022018Y001399D01*
X022030Y001350D01*
X022038Y001300D01*
X022042Y001250D01*
X022042Y001200D01*
X022038Y001150D01*
X022030Y001100D01*
X022018Y001051D01*
X022003Y001003D01*
X021984Y000956D01*
X021961Y000911D01*
X021935Y000868D01*
X021906Y000827D01*
X021873Y000788D01*
X021838Y000752D01*
X021800Y000719D01*
X021760Y000689D01*
X021717Y000662D01*
X021672Y000639D01*
X021626Y000619D01*
X021578Y000602D01*
X021530Y000590D01*
X021480Y000581D01*
X021430Y000576D01*
X021379Y000575D01*
X021329Y000578D01*
X021279Y000585D01*
X021230Y000596D01*
X021182Y000610D01*
X021135Y000628D01*
X021089Y000650D01*
X021045Y000675D01*
X021004Y000704D01*
X020965Y000735D01*
X020928Y000770D01*
X020894Y000807D01*
X020863Y000847D01*
X020835Y000889D01*
X020811Y000933D01*
X020790Y000979D01*
X020773Y001027D01*
X020760Y001075D01*
X020750Y001125D01*
X020744Y001175D01*
X020742Y001225D01*
X020742Y009225D02*
X020744Y009275D01*
X020750Y009325D01*
X020760Y009375D01*
X020773Y009423D01*
X020790Y009471D01*
X020811Y009517D01*
X020835Y009561D01*
X020863Y009603D01*
X020894Y009643D01*
X020928Y009680D01*
X020965Y009715D01*
X021004Y009746D01*
X021045Y009775D01*
X021089Y009800D01*
X021135Y009822D01*
X021182Y009840D01*
X021230Y009854D01*
X021279Y009865D01*
X021329Y009872D01*
X021379Y009875D01*
X021430Y009874D01*
X021480Y009869D01*
X021530Y009860D01*
X021578Y009848D01*
X021626Y009831D01*
X021672Y009811D01*
X021717Y009788D01*
X021760Y009761D01*
X021800Y009731D01*
X021838Y009698D01*
X021873Y009662D01*
X021906Y009623D01*
X021935Y009582D01*
X021961Y009539D01*
X021984Y009494D01*
X022003Y009447D01*
X022018Y009399D01*
X022030Y009350D01*
X022038Y009300D01*
X022042Y009250D01*
X022042Y009200D01*
X022038Y009150D01*
X022030Y009100D01*
X022018Y009051D01*
X022003Y009003D01*
X021984Y008956D01*
X021961Y008911D01*
X021935Y008868D01*
X021906Y008827D01*
X021873Y008788D01*
X021838Y008752D01*
X021800Y008719D01*
X021760Y008689D01*
X021717Y008662D01*
X021672Y008639D01*
X021626Y008619D01*
X021578Y008602D01*
X021530Y008590D01*
X021480Y008581D01*
X021430Y008576D01*
X021379Y008575D01*
X021329Y008578D01*
X021279Y008585D01*
X021230Y008596D01*
X021182Y008610D01*
X021135Y008628D01*
X021089Y008650D01*
X021045Y008675D01*
X021004Y008704D01*
X020965Y008735D01*
X020928Y008770D01*
X020894Y008807D01*
X020863Y008847D01*
X020835Y008889D01*
X020811Y008933D01*
X020790Y008979D01*
X020773Y009027D01*
X020760Y009075D01*
X020750Y009125D01*
X020744Y009175D01*
X020742Y009225D01*
D15*
X012179Y008442D03*
X011392Y008442D03*
X010605Y008442D03*
X010605Y006442D03*
X011392Y006442D03*
X012179Y006442D03*
X012179Y004442D03*
X011392Y004442D03*
X010605Y004442D03*
X010605Y002442D03*
X011392Y002442D03*
X012179Y002442D03*
D16*
X016392Y002725D03*
X018892Y007225D03*
X018892Y008225D03*
X016392Y008225D03*
D17*
X016392Y007225D03*
X016392Y004725D03*
D18*
X016897Y004728D02*
X019155Y004728D01*
X019080Y004759D02*
X019283Y004675D01*
X019501Y004675D01*
X019704Y004759D01*
X019858Y004913D01*
X019902Y005019D01*
X019939Y004947D01*
X019988Y004880D01*
X020047Y004821D01*
X020114Y004772D01*
X020189Y004734D01*
X020268Y004708D01*
X020350Y004695D01*
X020372Y004695D01*
X020372Y005205D01*
X020412Y005205D01*
X020412Y005245D01*
X020922Y005245D01*
X020922Y005267D01*
X020909Y005349D01*
X020883Y005428D01*
X020845Y005503D01*
X020796Y005570D01*
X020737Y005629D01*
X020670Y005678D01*
X020595Y005716D01*
X020516Y005742D01*
X020434Y005755D01*
X020412Y005755D01*
X020412Y005245D01*
X020372Y005245D01*
X020372Y005755D01*
X020350Y005755D01*
X020268Y005742D01*
X020189Y005716D01*
X020114Y005678D01*
X020047Y005629D01*
X019988Y005570D01*
X019939Y005503D01*
X019902Y005431D01*
X019858Y005537D01*
X019704Y005691D01*
X019501Y005775D01*
X019283Y005775D01*
X019080Y005691D01*
X018926Y005537D01*
X018842Y005334D01*
X018842Y005116D01*
X018926Y004913D01*
X019080Y004759D01*
X018993Y004847D02*
X016897Y004847D01*
X016897Y004965D02*
X018904Y004965D01*
X018855Y005084D02*
X016897Y005084D01*
X016897Y005125D02*
X016792Y005230D01*
X016722Y005230D01*
X016722Y006720D01*
X016792Y006720D01*
X016897Y006825D01*
X016897Y006895D01*
X018508Y006895D01*
X018606Y006797D01*
X018792Y006720D01*
X018992Y006720D01*
X019178Y006797D01*
X019320Y006939D01*
X019397Y007125D01*
X019397Y007325D01*
X019320Y007511D01*
X019178Y007653D01*
X018992Y007730D01*
X018792Y007730D01*
X018606Y007653D01*
X018508Y007555D01*
X016897Y007555D01*
X016897Y007625D01*
X016792Y007730D01*
X015992Y007730D01*
X015887Y007625D01*
X015887Y006825D01*
X015992Y006720D01*
X016062Y006720D01*
X016062Y005230D01*
X015992Y005230D01*
X015887Y005125D01*
X015887Y004325D01*
X015992Y004220D01*
X016062Y004220D01*
X016062Y004055D01*
X012509Y004055D01*
X012509Y004064D01*
X012603Y004158D01*
X012679Y004342D01*
X012679Y004541D01*
X012603Y004725D01*
X012509Y004819D01*
X012509Y006064D01*
X012603Y006158D01*
X012679Y006342D01*
X012679Y006541D01*
X012603Y006725D01*
X012509Y006819D01*
X012509Y008064D01*
X012603Y008158D01*
X012679Y008342D01*
X012679Y008541D01*
X012603Y008725D01*
X012463Y008865D01*
X012279Y008942D01*
X012080Y008942D01*
X011896Y008865D01*
X011769Y008739D01*
X011758Y008754D01*
X011705Y008808D01*
X011644Y008852D01*
X011576Y008886D01*
X011504Y008910D01*
X011430Y008922D01*
X011401Y008922D01*
X011401Y008450D01*
X011383Y008450D01*
X011383Y008922D01*
X011354Y008922D01*
X011280Y008910D01*
X011208Y008886D01*
X011140Y008852D01*
X011079Y008808D01*
X011026Y008754D01*
X011015Y008739D01*
X010888Y008865D01*
X010704Y008942D01*
X010505Y008942D01*
X010321Y008865D01*
X010181Y008725D01*
X010105Y008541D01*
X010105Y008342D01*
X010181Y008158D01*
X010321Y008018D01*
X010505Y007942D01*
X010704Y007942D01*
X010888Y008018D01*
X011015Y008144D01*
X011026Y008129D01*
X011079Y008075D01*
X011140Y008031D01*
X011208Y007997D01*
X011280Y007973D01*
X011354Y007962D01*
X011383Y007962D01*
X011383Y008433D01*
X011401Y008433D01*
X011401Y007962D01*
X011430Y007962D01*
X011504Y007973D01*
X011576Y007997D01*
X011644Y008031D01*
X011705Y008075D01*
X011758Y008129D01*
X011769Y008144D01*
X011849Y008064D01*
X011849Y006819D01*
X011769Y006739D01*
X011758Y006754D01*
X011705Y006808D01*
X011644Y006852D01*
X011576Y006886D01*
X011504Y006910D01*
X011430Y006922D01*
X011401Y006922D01*
X011401Y006450D01*
X011383Y006450D01*
X011383Y006922D01*
X011354Y006922D01*
X011280Y006910D01*
X011208Y006886D01*
X011140Y006852D01*
X011079Y006808D01*
X011026Y006754D01*
X011015Y006739D01*
X010888Y006865D01*
X010704Y006942D01*
X010505Y006942D01*
X010321Y006865D01*
X010181Y006725D01*
X010105Y006541D01*
X010105Y006342D01*
X010181Y006158D01*
X010321Y006018D01*
X010505Y005942D01*
X010704Y005942D01*
X010888Y006018D01*
X011015Y006144D01*
X011026Y006129D01*
X011079Y006075D01*
X011140Y006031D01*
X011208Y005997D01*
X011280Y005973D01*
X011354Y005962D01*
X011383Y005962D01*
X011383Y006433D01*
X011401Y006433D01*
X011401Y005962D01*
X011430Y005962D01*
X011504Y005973D01*
X011576Y005997D01*
X011644Y006031D01*
X011705Y006075D01*
X011758Y006129D01*
X011769Y006144D01*
X011849Y006064D01*
X011849Y004819D01*
X011769Y004739D01*
X011758Y004754D01*
X011705Y004808D01*
X011644Y004852D01*
X011576Y004886D01*
X011504Y004910D01*
X011430Y004922D01*
X011401Y004922D01*
X011401Y004450D01*
X011383Y004450D01*
X011383Y004922D01*
X011354Y004922D01*
X011280Y004910D01*
X011208Y004886D01*
X011140Y004852D01*
X011079Y004808D01*
X011026Y004754D01*
X011015Y004739D01*
X010888Y004865D01*
X010704Y004942D01*
X010505Y004942D01*
X010321Y004865D01*
X010181Y004725D01*
X010105Y004541D01*
X010105Y004342D01*
X010181Y004158D01*
X010284Y004055D01*
X009029Y004055D01*
X008401Y004682D01*
X008358Y004787D01*
X008204Y004941D01*
X008122Y004975D01*
X008204Y005009D01*
X008358Y005163D01*
X008442Y005366D01*
X008442Y005584D01*
X008358Y005787D01*
X008204Y005941D01*
X008122Y005975D01*
X008204Y006009D01*
X008358Y006163D01*
X008442Y006366D01*
X008442Y006584D01*
X008358Y006787D01*
X008204Y006941D01*
X008001Y007025D01*
X007783Y007025D01*
X007580Y006941D01*
X007442Y006803D01*
X007442Y007420D01*
X007337Y007525D01*
X006447Y007525D01*
X006342Y007420D01*
X006342Y006530D01*
X006447Y006425D01*
X006564Y006425D01*
X006426Y006287D01*
X006342Y006084D01*
X006342Y005866D01*
X006426Y005663D01*
X006580Y005509D01*
X006662Y005475D01*
X006580Y005441D01*
X006426Y005287D01*
X006342Y005084D01*
X006342Y004866D01*
X006426Y004663D01*
X006580Y004509D01*
X006686Y004465D01*
X006614Y004428D01*
X006547Y004379D01*
X006488Y004320D01*
X006439Y004253D01*
X006401Y004178D01*
X006375Y004099D01*
X006362Y004017D01*
X003612Y004017D01*
X003612Y003899D02*
X006367Y003899D01*
X006362Y003933D02*
X006375Y003851D01*
X006401Y003772D01*
X006439Y003697D01*
X006488Y003630D01*
X006547Y003571D01*
X006614Y003522D01*
X006689Y003484D01*
X006768Y003458D01*
X006850Y003445D01*
X006854Y003445D01*
X006854Y003937D01*
X006930Y003937D01*
X006930Y004013D01*
X007422Y004013D01*
X007422Y004017D01*
X007572Y004017D01*
X007580Y004009D02*
X007686Y003965D01*
X007614Y003928D01*
X007547Y003879D01*
X007488Y003820D01*
X007439Y003753D01*
X007401Y003678D01*
X007375Y003599D01*
X007362Y003517D01*
X007362Y003513D01*
X007854Y003513D01*
X007854Y003437D01*
X007930Y003437D01*
X007930Y003513D01*
X008422Y003513D01*
X008422Y003517D01*
X008409Y003599D01*
X008383Y003678D01*
X008345Y003753D01*
X008296Y003820D01*
X008237Y003879D01*
X008170Y003928D01*
X008098Y003965D01*
X008160Y003991D01*
X008612Y003538D01*
X008705Y003445D01*
X008826Y003395D01*
X011849Y003395D01*
X011849Y002819D01*
X011769Y002739D01*
X011758Y002754D01*
X011705Y002808D01*
X011644Y002852D01*
X011576Y002886D01*
X011504Y002910D01*
X011430Y002922D01*
X011401Y002922D01*
X011401Y002450D01*
X011383Y002450D01*
X011383Y002922D01*
X011354Y002922D01*
X011280Y002910D01*
X011208Y002886D01*
X011140Y002852D01*
X011079Y002808D01*
X011026Y002754D01*
X011015Y002739D01*
X010888Y002865D01*
X010704Y002942D01*
X010505Y002942D01*
X010321Y002865D01*
X010181Y002725D01*
X010105Y002541D01*
X010105Y002342D01*
X010181Y002158D01*
X010321Y002018D01*
X010505Y001942D01*
X010704Y001942D01*
X010888Y002018D01*
X011015Y002144D01*
X011026Y002129D01*
X011079Y002075D01*
X011140Y002031D01*
X011208Y001997D01*
X011280Y001973D01*
X011354Y001962D01*
X011383Y001962D01*
X011383Y002433D01*
X011401Y002433D01*
X011401Y001962D01*
X011430Y001962D01*
X011504Y001973D01*
X011576Y001997D01*
X011644Y002031D01*
X011705Y002075D01*
X011758Y002129D01*
X011769Y002144D01*
X011896Y002018D01*
X012080Y001942D01*
X012279Y001942D01*
X012463Y002018D01*
X012603Y002158D01*
X012679Y002342D01*
X012679Y002541D01*
X012603Y002725D01*
X012509Y002819D01*
X012509Y003395D01*
X020944Y003395D01*
X021080Y003259D01*
X021283Y003175D01*
X021501Y003175D01*
X021704Y003259D01*
X021858Y003413D01*
X021942Y003616D01*
X021942Y003834D01*
X021858Y004037D01*
X021704Y004191D01*
X021501Y004275D01*
X021283Y004275D01*
X021080Y004191D01*
X020944Y004055D01*
X016722Y004055D01*
X016722Y004220D01*
X016792Y004220D01*
X016897Y004325D01*
X016897Y005125D01*
X016820Y005202D02*
X018842Y005202D01*
X018842Y005321D02*
X016722Y005321D01*
X016722Y005439D02*
X018885Y005439D01*
X018947Y005558D02*
X016722Y005558D01*
X016722Y005676D02*
X019065Y005676D01*
X019719Y005676D02*
X020111Y005676D01*
X019978Y005558D02*
X019837Y005558D01*
X019899Y005439D02*
X019906Y005439D01*
X020372Y005439D02*
X020412Y005439D01*
X020412Y005558D02*
X020372Y005558D01*
X020372Y005676D02*
X020412Y005676D01*
X020673Y005676D02*
X022172Y005676D01*
X022172Y005558D02*
X020806Y005558D01*
X020878Y005439D02*
X022172Y005439D01*
X022172Y005321D02*
X020913Y005321D01*
X020922Y005205D02*
X020412Y005205D01*
X020412Y004695D01*
X020434Y004695D01*
X020516Y004708D01*
X020595Y004734D01*
X020670Y004772D01*
X020737Y004821D01*
X020796Y004880D01*
X020845Y004947D01*
X020883Y005022D01*
X020909Y005101D01*
X020922Y005183D01*
X020922Y005205D01*
X020922Y005202D02*
X022172Y005202D01*
X022172Y005084D02*
X020903Y005084D01*
X020854Y004965D02*
X022172Y004965D01*
X022172Y004847D02*
X020763Y004847D01*
X020578Y004728D02*
X022172Y004728D01*
X022172Y004610D02*
X016897Y004610D01*
X016897Y004491D02*
X022172Y004491D01*
X022172Y004373D02*
X016897Y004373D01*
X016826Y004254D02*
X021232Y004254D01*
X021025Y004136D02*
X016722Y004136D01*
X016062Y004136D02*
X012580Y004136D01*
X012643Y004254D02*
X015958Y004254D01*
X015887Y004373D02*
X012679Y004373D01*
X012679Y004491D02*
X015887Y004491D01*
X015887Y004610D02*
X012651Y004610D01*
X012600Y004728D02*
X015887Y004728D01*
X015887Y004847D02*
X012509Y004847D01*
X012509Y004965D02*
X015887Y004965D01*
X015887Y005084D02*
X012509Y005084D01*
X012509Y005202D02*
X015964Y005202D01*
X016062Y005321D02*
X012509Y005321D01*
X012509Y005439D02*
X016062Y005439D01*
X016062Y005558D02*
X012509Y005558D01*
X012509Y005676D02*
X016062Y005676D01*
X016062Y005795D02*
X012509Y005795D01*
X012509Y005913D02*
X016062Y005913D01*
X016062Y006032D02*
X012509Y006032D01*
X012595Y006150D02*
X016062Y006150D01*
X016062Y006269D02*
X012649Y006269D01*
X012679Y006387D02*
X016062Y006387D01*
X016062Y006506D02*
X012679Y006506D01*
X012645Y006624D02*
X016062Y006624D01*
X015970Y006743D02*
X012585Y006743D01*
X012509Y006861D02*
X015887Y006861D01*
X015887Y006980D02*
X012509Y006980D01*
X012509Y007098D02*
X015887Y007098D01*
X015887Y007217D02*
X012509Y007217D01*
X012509Y007335D02*
X015887Y007335D01*
X015887Y007454D02*
X012509Y007454D01*
X012509Y007572D02*
X015887Y007572D01*
X015953Y007691D02*
X012509Y007691D01*
X012509Y007809D02*
X016140Y007809D01*
X016138Y007810D02*
X016206Y007776D01*
X016278Y007752D01*
X016354Y007740D01*
X016383Y007740D01*
X016383Y008216D01*
X016401Y008216D01*
X016401Y008234D01*
X016877Y008234D01*
X016877Y008263D01*
X016865Y008339D01*
X016841Y008411D01*
X016807Y008479D01*
X016762Y008541D01*
X016708Y008595D01*
X016646Y008640D01*
X016578Y008674D01*
X016506Y008698D01*
X016430Y008710D01*
X016401Y008710D01*
X016401Y008234D01*
X016383Y008234D01*
X016383Y008710D01*
X016354Y008710D01*
X016278Y008698D01*
X016206Y008674D01*
X016138Y008640D01*
X016076Y008595D01*
X016022Y008541D01*
X015977Y008479D01*
X015943Y008411D01*
X015919Y008339D01*
X015907Y008263D01*
X015907Y008234D01*
X016383Y008234D01*
X016383Y008216D01*
X015907Y008216D01*
X015907Y008187D01*
X015919Y008111D01*
X015943Y008039D01*
X015977Y007971D01*
X016022Y007909D01*
X016076Y007855D01*
X016138Y007810D01*
X016009Y007928D02*
X012509Y007928D01*
X012509Y008046D02*
X015940Y008046D01*
X015911Y008165D02*
X012606Y008165D01*
X012655Y008283D02*
X015910Y008283D01*
X015939Y008402D02*
X012679Y008402D01*
X012679Y008520D02*
X016007Y008520D01*
X016136Y008639D02*
X012639Y008639D01*
X012571Y008757D02*
X020565Y008757D01*
X020497Y008876D02*
X012438Y008876D01*
X011921Y008876D02*
X011598Y008876D01*
X011401Y008876D02*
X011383Y008876D01*
X011383Y008757D02*
X011401Y008757D01*
X011401Y008639D02*
X011383Y008639D01*
X011383Y008520D02*
X011401Y008520D01*
X011401Y008402D02*
X011383Y008402D01*
X011383Y008283D02*
X011401Y008283D01*
X011401Y008165D02*
X011383Y008165D01*
X011383Y008046D02*
X011401Y008046D01*
X011664Y008046D02*
X011849Y008046D01*
X011849Y007928D02*
X005081Y007928D01*
X005079Y007934D02*
X004851Y008162D01*
X004569Y008278D01*
X004874Y008390D01*
X004874Y008390D01*
X005131Y008605D01*
X005298Y008895D01*
X005357Y009225D01*
X005357Y009225D01*
X005298Y009555D01*
X005131Y009845D01*
X005131Y009845D01*
X004940Y010005D01*
X020844Y010005D01*
X020653Y009845D01*
X020485Y009555D01*
X020427Y009225D01*
X020485Y008895D01*
X020653Y008605D01*
X020653Y008605D01*
X020910Y008390D01*
X021224Y008275D01*
X021301Y008275D01*
X021559Y008275D01*
X021874Y008390D01*
X021874Y008390D01*
X022131Y008605D01*
X022172Y008676D01*
X022172Y001774D01*
X022131Y001845D01*
X022131Y001845D01*
X021874Y002060D01*
X021559Y002175D01*
X021224Y002175D01*
X020910Y002060D01*
X020653Y001845D01*
X020485Y001555D01*
X020485Y001555D01*
X020427Y001225D01*
X020485Y000895D01*
X020653Y000605D01*
X020653Y000605D01*
X020844Y000445D01*
X004940Y000445D01*
X005131Y000605D01*
X005298Y000895D01*
X005357Y001225D01*
X005298Y001555D01*
X005131Y001845D01*
X005131Y001845D01*
X004874Y002060D01*
X004569Y002172D01*
X004851Y002288D01*
X005079Y002516D01*
X005202Y002814D01*
X005202Y003136D01*
X005079Y003434D01*
X004851Y003662D01*
X004553Y003785D01*
X004231Y003785D01*
X003933Y003662D01*
X003705Y003434D01*
X003612Y003208D01*
X003612Y007242D01*
X003705Y007016D01*
X003933Y006788D01*
X004231Y006665D01*
X004553Y006665D01*
X004851Y006788D01*
X005079Y007016D01*
X005202Y007314D01*
X005202Y007636D01*
X005079Y007934D01*
X005130Y007809D02*
X011849Y007809D01*
X011849Y007691D02*
X005179Y007691D01*
X005202Y007572D02*
X011849Y007572D01*
X011849Y007454D02*
X007408Y007454D01*
X007442Y007335D02*
X011849Y007335D01*
X011849Y007217D02*
X007442Y007217D01*
X007442Y007098D02*
X011849Y007098D01*
X011849Y006980D02*
X008111Y006980D01*
X008284Y006861D02*
X010317Y006861D01*
X010198Y006743D02*
X008376Y006743D01*
X008426Y006624D02*
X010139Y006624D01*
X010105Y006506D02*
X008442Y006506D01*
X008442Y006387D02*
X010105Y006387D01*
X010135Y006269D02*
X008402Y006269D01*
X008345Y006150D02*
X010189Y006150D01*
X010307Y006032D02*
X008226Y006032D01*
X008232Y005913D02*
X011849Y005913D01*
X011849Y005795D02*
X008350Y005795D01*
X008404Y005676D02*
X011849Y005676D01*
X011849Y005558D02*
X008442Y005558D01*
X008442Y005439D02*
X011849Y005439D01*
X011849Y005321D02*
X008423Y005321D01*
X008374Y005202D02*
X011849Y005202D01*
X011849Y005084D02*
X008278Y005084D01*
X008146Y004965D02*
X011849Y004965D01*
X011849Y004847D02*
X011651Y004847D01*
X011401Y004847D02*
X011383Y004847D01*
X011383Y004728D02*
X011401Y004728D01*
X011401Y004610D02*
X011383Y004610D01*
X011383Y004491D02*
X011401Y004491D01*
X011133Y004847D02*
X010907Y004847D01*
X010302Y004847D02*
X008298Y004847D01*
X008382Y004728D02*
X010184Y004728D01*
X010133Y004610D02*
X008474Y004610D01*
X008593Y004491D02*
X010105Y004491D01*
X010105Y004373D02*
X008711Y004373D01*
X008830Y004254D02*
X010141Y004254D01*
X010203Y004136D02*
X008948Y004136D01*
X008370Y003780D02*
X008325Y003780D01*
X008389Y003662D02*
X008489Y003662D01*
X008418Y003543D02*
X008607Y003543D01*
X008755Y003425D02*
X008421Y003425D01*
X008422Y003433D02*
X008422Y003437D01*
X007930Y003437D01*
X007930Y002945D01*
X007934Y002945D01*
X008016Y002958D01*
X008095Y002984D01*
X008170Y003022D01*
X008237Y003071D01*
X008296Y003130D01*
X008345Y003197D01*
X008383Y003272D01*
X008409Y003351D01*
X008422Y003433D01*
X008394Y003306D02*
X011849Y003306D01*
X011849Y003188D02*
X008338Y003188D01*
X008235Y003069D02*
X011849Y003069D01*
X011849Y002951D02*
X007968Y002951D01*
X007930Y002951D02*
X007854Y002951D01*
X007854Y002945D02*
X007854Y003437D01*
X007362Y003437D01*
X007362Y003433D01*
X007375Y003351D01*
X007401Y003272D01*
X007439Y003197D01*
X007488Y003130D01*
X007547Y003071D01*
X007614Y003022D01*
X007689Y002984D01*
X007768Y002958D01*
X007850Y002945D01*
X007854Y002945D01*
X007815Y002951D02*
X005202Y002951D01*
X005202Y003069D02*
X007549Y003069D01*
X007446Y003188D02*
X005181Y003188D01*
X005132Y003306D02*
X007390Y003306D01*
X007363Y003425D02*
X005082Y003425D01*
X004969Y003543D02*
X006585Y003543D01*
X006854Y003543D02*
X006930Y003543D01*
X006930Y003445D02*
X006934Y003445D01*
X007016Y003458D01*
X007095Y003484D01*
X007170Y003522D01*
X007237Y003571D01*
X007296Y003630D01*
X007345Y003697D01*
X007383Y003772D01*
X007409Y003851D01*
X007422Y003933D01*
X007422Y003937D01*
X006930Y003937D01*
X006930Y003445D01*
X007199Y003543D02*
X007366Y003543D01*
X007395Y003662D02*
X007319Y003662D01*
X007386Y003780D02*
X007458Y003780D01*
X007416Y003899D02*
X007573Y003899D01*
X007580Y004009D02*
X007426Y004163D01*
X007342Y004366D01*
X007342Y004558D01*
X007298Y004603D01*
X007204Y004509D01*
X007098Y004465D01*
X007170Y004428D01*
X007237Y004379D01*
X007296Y004320D01*
X007345Y004253D01*
X007383Y004178D01*
X007409Y004099D01*
X007422Y004017D01*
X007397Y004136D02*
X007454Y004136D01*
X007388Y004254D02*
X007344Y004254D01*
X007342Y004373D02*
X007244Y004373D01*
X007161Y004491D02*
X007342Y004491D01*
X006623Y004491D02*
X003612Y004491D01*
X003612Y004373D02*
X006540Y004373D01*
X006440Y004254D02*
X003612Y004254D01*
X003612Y004136D02*
X006387Y004136D01*
X006362Y004017D02*
X006362Y004013D01*
X006854Y004013D01*
X006854Y003937D01*
X006362Y003937D01*
X006362Y003933D01*
X006398Y003780D02*
X004565Y003780D01*
X004851Y003662D02*
X006465Y003662D01*
X006854Y003662D02*
X006930Y003662D01*
X006930Y003780D02*
X006854Y003780D01*
X006854Y003899D02*
X006930Y003899D01*
X007854Y003425D02*
X007930Y003425D01*
X007930Y003306D02*
X007854Y003306D01*
X007854Y003188D02*
X007930Y003188D01*
X007930Y003069D02*
X007854Y003069D01*
X008211Y003899D02*
X008252Y003899D01*
X006480Y004610D02*
X003612Y004610D01*
X003612Y004728D02*
X006399Y004728D01*
X006350Y004847D02*
X003612Y004847D01*
X003612Y004965D02*
X006342Y004965D01*
X006342Y005084D02*
X003612Y005084D01*
X003612Y005202D02*
X006391Y005202D01*
X006460Y005321D02*
X003612Y005321D01*
X003612Y005439D02*
X006578Y005439D01*
X006532Y005558D02*
X003612Y005558D01*
X003612Y005676D02*
X006420Y005676D01*
X006371Y005795D02*
X003612Y005795D01*
X003612Y005913D02*
X006342Y005913D01*
X006342Y006032D02*
X003612Y006032D01*
X003612Y006150D02*
X006369Y006150D01*
X006418Y006269D02*
X003612Y006269D01*
X003612Y006387D02*
X006526Y006387D01*
X006367Y006506D02*
X003612Y006506D01*
X003612Y006624D02*
X006342Y006624D01*
X006342Y006743D02*
X004740Y006743D01*
X004923Y006861D02*
X006342Y006861D01*
X006342Y006980D02*
X005042Y006980D01*
X005112Y007098D02*
X006342Y007098D01*
X006342Y007217D02*
X005162Y007217D01*
X005202Y007335D02*
X006342Y007335D01*
X006376Y007454D02*
X005202Y007454D01*
X004966Y008046D02*
X010293Y008046D01*
X010178Y008165D02*
X004844Y008165D01*
X004582Y008283D02*
X010129Y008283D01*
X010105Y008402D02*
X004889Y008402D01*
X005030Y008520D02*
X010105Y008520D01*
X010145Y008639D02*
X005150Y008639D01*
X005131Y008605D02*
X005131Y008605D01*
X005131Y008605D01*
X005219Y008757D02*
X010213Y008757D01*
X010346Y008876D02*
X008688Y008876D01*
X008714Y008901D02*
X008645Y008832D01*
X008555Y008795D01*
X008210Y008795D01*
X008152Y008819D01*
X008094Y008795D01*
X007750Y008795D01*
X007660Y008832D01*
X007591Y008901D01*
X007558Y008980D01*
X007365Y008980D01*
X007332Y008901D01*
X007263Y008832D01*
X007173Y008795D01*
X006829Y008795D01*
X006739Y008832D01*
X006670Y008901D01*
X006637Y008980D01*
X006419Y008980D01*
X006412Y008963D01*
X006412Y008963D01*
X006411Y008962D01*
X006343Y008894D01*
X006343Y008894D01*
X006281Y008832D01*
X006281Y008832D01*
X006281Y008832D01*
X006267Y008826D01*
X006191Y008795D01*
X005970Y008795D01*
X005880Y008832D01*
X005749Y008963D01*
X005712Y009053D01*
X005712Y009150D01*
X005716Y009160D01*
X005715Y009168D01*
X005712Y009176D01*
X005712Y009216D01*
X005709Y009256D01*
X005712Y009265D01*
X005712Y009459D01*
X005749Y009549D01*
X005818Y009618D01*
X005908Y009655D01*
X006253Y009655D01*
X006343Y009618D01*
X006412Y009549D01*
X006444Y009470D01*
X006713Y009470D01*
X006714Y009470D01*
X006793Y009549D01*
X006862Y009618D01*
X006952Y009655D01*
X007050Y009655D01*
X007140Y009618D01*
X007209Y009549D01*
X007246Y009459D01*
X007246Y009452D01*
X007289Y009470D01*
X007634Y009470D01*
X007635Y009470D01*
X007714Y009549D01*
X007783Y009618D01*
X007873Y009655D01*
X007971Y009655D01*
X008061Y009618D01*
X008130Y009549D01*
X008143Y009517D01*
X008175Y009549D01*
X008244Y009618D01*
X008334Y009655D01*
X008431Y009655D01*
X008521Y009618D01*
X008590Y009549D01*
X008627Y009459D01*
X008627Y009255D01*
X008645Y009248D01*
X008714Y009179D01*
X008751Y009089D01*
X008751Y008991D01*
X008714Y008901D01*
X008751Y008994D02*
X020468Y008994D01*
X020447Y009113D02*
X008741Y009113D01*
X008661Y009231D02*
X020428Y009231D01*
X020449Y009350D02*
X008627Y009350D01*
X008624Y009468D02*
X020470Y009468D01*
X020504Y009587D02*
X008553Y009587D01*
X008212Y009587D02*
X008092Y009587D01*
X007752Y009587D02*
X007171Y009587D01*
X007242Y009468D02*
X007284Y009468D01*
X006831Y009587D02*
X006374Y009587D01*
X005787Y009587D02*
X005280Y009587D01*
X005314Y009468D02*
X005716Y009468D01*
X005712Y009350D02*
X005335Y009350D01*
X005356Y009231D02*
X005711Y009231D01*
X005712Y009113D02*
X005337Y009113D01*
X005316Y008994D02*
X005736Y008994D01*
X005837Y008876D02*
X005287Y008876D01*
X005298Y008895D02*
X005298Y008895D01*
X006324Y008876D02*
X006696Y008876D01*
X007307Y008876D02*
X007617Y008876D01*
X005212Y009705D02*
X020572Y009705D01*
X020641Y009824D02*
X005143Y009824D01*
X005015Y009942D02*
X020769Y009942D01*
X020653Y009845D02*
X020653Y009845D01*
X020653Y009845D01*
X019146Y008640D02*
X019078Y008674D01*
X019006Y008698D01*
X018930Y008710D01*
X018901Y008710D01*
X018901Y008234D01*
X019377Y008234D01*
X019377Y008263D01*
X019365Y008339D01*
X019341Y008411D01*
X019307Y008479D01*
X019262Y008541D01*
X019208Y008595D01*
X019146Y008640D01*
X019148Y008639D02*
X020634Y008639D01*
X020754Y008520D02*
X019277Y008520D01*
X019345Y008402D02*
X020895Y008402D01*
X020910Y008390D02*
X020910Y008390D01*
X021202Y008283D02*
X019374Y008283D01*
X019377Y008216D02*
X018901Y008216D01*
X018901Y008234D01*
X018883Y008234D01*
X018883Y008710D01*
X018854Y008710D01*
X018778Y008698D01*
X018706Y008674D01*
X018638Y008640D01*
X018576Y008595D01*
X018522Y008541D01*
X018477Y008479D01*
X018443Y008411D01*
X018419Y008339D01*
X018407Y008263D01*
X018407Y008234D01*
X018883Y008234D01*
X018883Y008216D01*
X018901Y008216D01*
X018901Y007740D01*
X018930Y007740D01*
X019006Y007752D01*
X019078Y007776D01*
X019146Y007810D01*
X019208Y007855D01*
X019262Y007909D01*
X019307Y007971D01*
X019341Y008039D01*
X019365Y008111D01*
X019377Y008187D01*
X019377Y008216D01*
X019373Y008165D02*
X022172Y008165D01*
X022172Y008283D02*
X021582Y008283D01*
X021889Y008402D02*
X022172Y008402D01*
X022172Y008520D02*
X022030Y008520D01*
X022131Y008605D02*
X022131Y008605D01*
X022131Y008605D01*
X022150Y008639D02*
X022172Y008639D01*
X022172Y008046D02*
X019344Y008046D01*
X019275Y007928D02*
X022172Y007928D01*
X022172Y007809D02*
X019144Y007809D01*
X019088Y007691D02*
X022172Y007691D01*
X022172Y007572D02*
X019259Y007572D01*
X019344Y007454D02*
X022172Y007454D01*
X022172Y007335D02*
X019393Y007335D01*
X019397Y007217D02*
X021141Y007217D01*
X021080Y007191D02*
X021283Y007275D01*
X021501Y007275D01*
X021704Y007191D01*
X021858Y007037D01*
X021942Y006834D01*
X021942Y006616D01*
X021858Y006413D01*
X021704Y006259D01*
X021501Y006175D01*
X021283Y006175D01*
X021080Y006259D01*
X020926Y006413D01*
X020842Y006616D01*
X020842Y006834D01*
X020926Y007037D01*
X021080Y007191D01*
X020987Y007098D02*
X019386Y007098D01*
X019337Y006980D02*
X020902Y006980D01*
X020853Y006861D02*
X019242Y006861D01*
X019047Y006743D02*
X020842Y006743D01*
X020842Y006624D02*
X016722Y006624D01*
X016722Y006506D02*
X020888Y006506D01*
X020952Y006387D02*
X016722Y006387D01*
X016722Y006269D02*
X021071Y006269D01*
X021713Y006269D02*
X022172Y006269D01*
X022172Y006150D02*
X016722Y006150D01*
X016722Y006032D02*
X022172Y006032D01*
X022172Y005913D02*
X016722Y005913D01*
X016722Y005795D02*
X022172Y005795D01*
X022172Y006387D02*
X021832Y006387D01*
X021896Y006506D02*
X022172Y006506D01*
X022172Y006624D02*
X021942Y006624D01*
X021942Y006743D02*
X022172Y006743D01*
X022172Y006861D02*
X021931Y006861D01*
X021882Y006980D02*
X022172Y006980D01*
X022172Y007098D02*
X021797Y007098D01*
X021643Y007217D02*
X022172Y007217D01*
X018901Y007809D02*
X018883Y007809D01*
X018883Y007740D02*
X018883Y008216D01*
X018407Y008216D01*
X018407Y008187D01*
X018419Y008111D01*
X018443Y008039D01*
X018477Y007971D01*
X018522Y007909D01*
X018576Y007855D01*
X018638Y007810D01*
X018706Y007776D01*
X018778Y007752D01*
X018854Y007740D01*
X018883Y007740D01*
X018883Y007928D02*
X018901Y007928D01*
X018901Y008046D02*
X018883Y008046D01*
X018883Y008165D02*
X018901Y008165D01*
X018901Y008283D02*
X018883Y008283D01*
X018883Y008402D02*
X018901Y008402D01*
X018901Y008520D02*
X018883Y008520D01*
X018883Y008639D02*
X018901Y008639D01*
X018636Y008639D02*
X016648Y008639D01*
X016777Y008520D02*
X018507Y008520D01*
X018439Y008402D02*
X016845Y008402D01*
X016874Y008283D02*
X018410Y008283D01*
X018411Y008165D02*
X016873Y008165D01*
X016877Y008187D02*
X016877Y008216D01*
X016401Y008216D01*
X016401Y007740D01*
X016430Y007740D01*
X016506Y007752D01*
X016578Y007776D01*
X016646Y007810D01*
X016708Y007855D01*
X016762Y007909D01*
X016807Y007971D01*
X016841Y008039D01*
X016865Y008111D01*
X016877Y008187D01*
X016844Y008046D02*
X018440Y008046D01*
X018509Y007928D02*
X016775Y007928D01*
X016644Y007809D02*
X018640Y007809D01*
X018696Y007691D02*
X016831Y007691D01*
X016897Y007572D02*
X018525Y007572D01*
X018542Y006861D02*
X016897Y006861D01*
X016814Y006743D02*
X018737Y006743D01*
X016401Y007809D02*
X016383Y007809D01*
X016383Y007928D02*
X016401Y007928D01*
X016401Y008046D02*
X016383Y008046D01*
X016383Y008165D02*
X016401Y008165D01*
X016401Y008283D02*
X016383Y008283D01*
X016383Y008402D02*
X016401Y008402D01*
X016401Y008520D02*
X016383Y008520D01*
X016383Y008639D02*
X016401Y008639D01*
X011849Y006861D02*
X011626Y006861D01*
X011767Y006743D02*
X011773Y006743D01*
X011401Y006743D02*
X011383Y006743D01*
X011383Y006861D02*
X011401Y006861D01*
X011158Y006861D02*
X010892Y006861D01*
X011011Y006743D02*
X011017Y006743D01*
X011383Y006624D02*
X011401Y006624D01*
X011401Y006506D02*
X011383Y006506D01*
X011383Y006387D02*
X011401Y006387D01*
X011401Y006269D02*
X011383Y006269D01*
X011383Y006150D02*
X011401Y006150D01*
X011401Y006032D02*
X011383Y006032D01*
X011140Y006032D02*
X010902Y006032D01*
X011644Y006032D02*
X011849Y006032D01*
X007673Y006980D02*
X007442Y006980D01*
X007442Y006861D02*
X007500Y006861D01*
X004044Y006743D02*
X003612Y006743D01*
X003612Y006861D02*
X003861Y006861D01*
X003742Y006980D02*
X003612Y006980D01*
X003612Y007098D02*
X003671Y007098D01*
X003622Y007217D02*
X003612Y007217D01*
X010863Y008876D02*
X011186Y008876D01*
X011029Y008757D02*
X010996Y008757D01*
X011755Y008757D02*
X011788Y008757D01*
X011120Y008046D02*
X010916Y008046D01*
X019629Y004728D02*
X020206Y004728D01*
X020372Y004728D02*
X020412Y004728D01*
X020412Y004847D02*
X020372Y004847D01*
X020372Y004965D02*
X020412Y004965D01*
X020412Y005084D02*
X020372Y005084D01*
X020372Y005202D02*
X020412Y005202D01*
X020412Y005321D02*
X020372Y005321D01*
X019930Y004965D02*
X019880Y004965D01*
X019791Y004847D02*
X020021Y004847D01*
X021552Y004254D02*
X022172Y004254D01*
X022172Y004136D02*
X021759Y004136D01*
X021866Y004017D02*
X022172Y004017D01*
X022172Y003899D02*
X021915Y003899D01*
X021942Y003780D02*
X022172Y003780D01*
X022172Y003662D02*
X021942Y003662D01*
X021912Y003543D02*
X022172Y003543D01*
X022172Y003425D02*
X021863Y003425D01*
X021751Y003306D02*
X022172Y003306D01*
X022172Y003188D02*
X021532Y003188D01*
X021252Y003188D02*
X016538Y003188D01*
X016506Y003198D02*
X016430Y003210D01*
X016401Y003210D01*
X016401Y002734D01*
X016877Y002734D01*
X016877Y002763D01*
X016865Y002839D01*
X016841Y002911D01*
X016807Y002979D01*
X016762Y003041D01*
X016708Y003095D01*
X016646Y003140D01*
X016578Y003174D01*
X016506Y003198D01*
X016401Y003188D02*
X016383Y003188D01*
X016383Y003210D02*
X016354Y003210D01*
X016278Y003198D01*
X016206Y003174D01*
X016138Y003140D01*
X016076Y003095D01*
X016022Y003041D01*
X015977Y002979D01*
X015943Y002911D01*
X015919Y002839D01*
X015907Y002763D01*
X015907Y002734D01*
X016383Y002734D01*
X016383Y003210D01*
X016246Y003188D02*
X012509Y003188D01*
X012509Y003306D02*
X021033Y003306D01*
X022172Y003069D02*
X016734Y003069D01*
X016821Y002951D02*
X022172Y002951D01*
X022172Y002832D02*
X016866Y002832D01*
X016877Y002716D02*
X016401Y002716D01*
X016401Y002734D01*
X016383Y002734D01*
X016383Y002716D01*
X016401Y002716D01*
X016401Y002240D01*
X016430Y002240D01*
X016506Y002252D01*
X016578Y002276D01*
X016646Y002310D01*
X016708Y002355D01*
X016762Y002409D01*
X016807Y002471D01*
X016841Y002539D01*
X016865Y002611D01*
X016877Y002687D01*
X016877Y002716D01*
X016877Y002714D02*
X022172Y002714D01*
X022172Y002595D02*
X016860Y002595D01*
X016810Y002477D02*
X022172Y002477D01*
X022172Y002358D02*
X016711Y002358D01*
X016401Y002358D02*
X016383Y002358D01*
X016383Y002240D02*
X016383Y002716D01*
X015907Y002716D01*
X015907Y002687D01*
X015919Y002611D01*
X015943Y002539D01*
X015977Y002471D01*
X016022Y002409D01*
X016076Y002355D01*
X016138Y002310D01*
X016206Y002276D01*
X016278Y002252D01*
X016354Y002240D01*
X016383Y002240D01*
X016073Y002358D02*
X012679Y002358D01*
X012679Y002477D02*
X015974Y002477D01*
X015924Y002595D02*
X012657Y002595D01*
X012608Y002714D02*
X015907Y002714D01*
X015918Y002832D02*
X012509Y002832D01*
X012509Y002951D02*
X015963Y002951D01*
X016050Y003069D02*
X012509Y003069D01*
X011849Y002832D02*
X011671Y002832D01*
X011401Y002832D02*
X011383Y002832D01*
X011383Y002714D02*
X011401Y002714D01*
X011401Y002595D02*
X011383Y002595D01*
X011383Y002477D02*
X011401Y002477D01*
X011401Y002358D02*
X011383Y002358D01*
X011383Y002240D02*
X011401Y002240D01*
X011401Y002121D02*
X011383Y002121D01*
X011383Y002003D02*
X011401Y002003D01*
X011588Y002003D02*
X011933Y002003D01*
X011793Y002121D02*
X011750Y002121D01*
X011196Y002003D02*
X010851Y002003D01*
X010991Y002121D02*
X011034Y002121D01*
X010358Y002003D02*
X004943Y002003D01*
X004874Y002060D02*
X004874Y002060D01*
X004708Y002121D02*
X010218Y002121D01*
X010147Y002240D02*
X004733Y002240D01*
X004920Y002358D02*
X010105Y002358D01*
X010105Y002477D02*
X005039Y002477D01*
X005111Y002595D02*
X010127Y002595D01*
X010176Y002714D02*
X005160Y002714D01*
X005202Y002832D02*
X010288Y002832D01*
X010921Y002832D02*
X011113Y002832D01*
X012566Y002121D02*
X021076Y002121D01*
X020910Y002060D02*
X020910Y002060D01*
X020841Y002003D02*
X012426Y002003D01*
X012637Y002240D02*
X022172Y002240D01*
X022172Y002121D02*
X021708Y002121D01*
X021874Y002060D02*
X021874Y002060D01*
X021943Y002003D02*
X022172Y002003D01*
X022172Y001884D02*
X022085Y001884D01*
X020699Y001884D02*
X005085Y001884D01*
X005177Y001766D02*
X020607Y001766D01*
X020653Y001845D02*
X020653Y001845D01*
X020653Y001845D01*
X020539Y001647D02*
X005245Y001647D01*
X005298Y001555D02*
X005298Y001555D01*
X005303Y001529D02*
X020481Y001529D01*
X020460Y001410D02*
X005324Y001410D01*
X005345Y001292D02*
X020439Y001292D01*
X020427Y001225D02*
X020427Y001225D01*
X020436Y001173D02*
X005347Y001173D01*
X005357Y001225D02*
X005357Y001225D01*
X005327Y001055D02*
X020457Y001055D01*
X020478Y000936D02*
X005306Y000936D01*
X005298Y000895D02*
X005298Y000895D01*
X005254Y000818D02*
X020530Y000818D01*
X020485Y000895D02*
X020485Y000895D01*
X020599Y000699D02*
X005185Y000699D01*
X005131Y000605D02*
X005131Y000605D01*
X005131Y000605D01*
X005102Y000581D02*
X020682Y000581D01*
X020823Y000462D02*
X004961Y000462D01*
X003652Y003306D02*
X003612Y003306D01*
X003612Y003425D02*
X003702Y003425D01*
X003612Y003543D02*
X003815Y003543D01*
X003933Y003662D02*
X003612Y003662D01*
X003612Y003780D02*
X004219Y003780D01*
X016383Y003069D02*
X016401Y003069D01*
X016401Y002951D02*
X016383Y002951D01*
X016383Y002832D02*
X016401Y002832D01*
X016401Y002714D02*
X016383Y002714D01*
X016383Y002595D02*
X016401Y002595D01*
X016401Y002477D02*
X016383Y002477D01*
D19*
X016392Y003725D02*
X016392Y004725D01*
X016392Y007225D01*
X018892Y007225D01*
X012179Y006442D02*
X012179Y004442D01*
X012179Y003725D01*
X016392Y003725D01*
X021392Y003725D01*
X012179Y003725D02*
X012179Y002442D01*
X012179Y003725D02*
X008892Y003725D01*
X008142Y004475D01*
X007892Y004475D01*
X007392Y004975D01*
X006892Y004975D01*
X012179Y006442D02*
X012179Y008442D01*
M02*
