%
M48
M72
T01C0.0276
T02C0.0320
T03C0.0354
T04C0.0394
T05C0.1260
T06C0.1300
%
T01
X10609Y2448
X11397Y2448
X12184Y2448
X12184Y4448
X11397Y4448
X10609Y4448
X10609Y6448
X11397Y6448
X12184Y6448
X12184Y8448
X11397Y8448
X10609Y8448
T02
X14897Y5232
X15897Y5232
T03
X16897Y6732
X16897Y3732
T04
X7897Y3482
X6897Y3982
X7897Y4482
X6897Y4982
X7897Y5482
X6897Y5982
X7897Y6482
X6897Y6982
T05
X4397Y7482
X4397Y2982
T06
X4397Y1232
X16897Y1232
X16897Y9232
X4397Y9232
M30
