%
M48
M72
T01C0.0276
T02C0.0320
T03C0.0354
T04C0.0394
T05C0.1260
T06C0.1300
%
T01
X10605Y2442
X11392Y2442
X12179Y2442
X16392Y2725
X12179Y4442
X11392Y4442
X10605Y4442
X10605Y6442
X11392Y6442
X12179Y6442
X16392Y7225
X16392Y8225
X18892Y8225
X18892Y7225
X16392Y4725
X12179Y8442
X11392Y8442
X10605Y8442
T02
X19392Y5225
X20392Y5225
T03
X21392Y6725
X21392Y3725
T04
X7892Y3475
X6892Y3975
X7892Y4475
X6892Y4975
X7892Y5475
X6892Y5975
X7892Y6475
X6892Y6975
T05
X4392Y7475
X4392Y2975
T06
X4392Y1225
X21392Y1225
X21392Y9225
X4392Y9225
M30
